<?xml version="1.0" encoding="utf-8"?>
<!-- Generator: Adobe Illustrator 18.1.1, SVG Export Plug-In . SVG Version: 6.00 Build 0)  -->
<svg version="1.1" id="圖層_1" xmlns="http://www.w3.org/2000/svg" xmlns:xlink="http://www.w3.org/1999/xlink" x="0px" y="0px"
	 width="24.6px" height="20px" viewBox="0 0 24.6 20" enable-background="new 0 0 24.6 20" xml:space="preserve">
<path fill="#808080" d="M21.7,0H4.7C3,0,1.6,1.6,1.6,3v12L0,20l4.5-2.5c0.1,0,0.1,0,0.2,0h16.9c1.8,0,3-1,3-2.5V3
	C24.6,1.6,23.4,0,21.7,0z M22.8,15c0,0.5-0.5,0.6-1.1,0.6H4.7c-0.6,0-1.3-0.2-1.3-0.6V3c0-0.5,0.7-1.2,1.3-1.2h16.9
	c0.6,0,1.1,0.7,1.1,1.2V15z M17,10.6h4.2V6.4H17V10.6z M11.2,10.6h4.2V6.4h-4.2V10.6z M5.3,10.6h4.2V6.4H5.3V10.6z"/>
</svg>
