<?xml version="1.0" encoding="utf-8"?>
<!-- Generator: Adobe Illustrator 18.1.1, SVG Export Plug-In . SVG Version: 6.00 Build 0)  -->
<svg version="1.1" id="圖層_1" xmlns="http://www.w3.org/2000/svg" xmlns:xlink="http://www.w3.org/1999/xlink" x="0px" y="0px"
	 width="44px" height="20px" viewBox="0 0 44 20" enable-background="new 0 0 44 20" xml:space="preserve">
<g>
	<g>
		<path fill="#808080" d="M10,10c0-4.4,2.1-8.2,5.1-10c-2,0.4-4,1-5.9,2c-3.3,1.6-6.2,4-8.7,7.1L0.2,9.4c-0.3,0.4-0.3,0.9,0,1.3
			l0.2,0.2C2.9,14,5.9,16.4,9.1,18C11,19,13,19.6,15,20C12,18.2,10,14.4,10,10z"/>
		<path fill="#808080" d="M43.8,9.4l-0.2-0.2c-2.5-3.1-5.5-5.5-8.7-7.1C33,1.1,31,0.4,29,0.1c3,1.8,5.1,5.6,5.1,10
			c0,4.4-2.1,8.2-5.1,10c2-0.4,4-1,5.9-2c3.3-1.6,6.2-4,8.7-7.1l0.2-0.2C44.1,10.3,44.1,9.7,43.8,9.4z"/>
	</g>
	<path fill="#808080" d="M32,10c0-5.5-4.5-10-10-10c-1.4,0-2.7,0.3-3.9,0.8C19.2,1.3,20,2.3,20,3.6c0,1.6-1.3,2.9-2.9,2.9
		c-1.5,0-2.8-1.1-2.9-2.6C12.8,5.5,12,7.7,12,10c0,5.5,4.5,10,10,10S32,15.6,32,10z"/>
</g>
</svg>
