<?xml version="1.0" encoding="utf-8"?>
<!-- Generator: Adobe Illustrator 18.1.1, SVG Export Plug-In . SVG Version: 6.00 Build 0)  -->
<svg version="1.1" id="圖層_1" xmlns="http://www.w3.org/2000/svg" xmlns:xlink="http://www.w3.org/1999/xlink" x="0px" y="0px"
	 width="18.1px" height="20px" viewBox="0 0 18.1 20" enable-background="new 0 0 18.1 20" xml:space="preserve">
<path fill-rule="evenodd" clip-rule="evenodd" fill="#808080" d="M9.9,7.8h6.6c0.8,0,1.5,0.6,1.5,1.3v0.7c0,0.7-0.7,1.3-1.5,1.3
	h-0.3c0.3,0.2,0.5,0.6,0.5,1v0.7c0,0.7-0.7,1.3-1.5,1.3H15c0.3,0.2,0.5,0.6,0.5,1v0.7c0,0.7-0.7,1.3-1.5,1.3h-0.2
	c0.3,0.2,0.5,0.6,0.5,1v0.7c0,0.7-0.7,1.3-1.5,1.3h-4H2.1H1.7C0.7,20,0,19.3,0,18.5V9.2c0-0.8,0.7-1.5,1.7-1.5H3
	C10.5,5.2,6.6,0.4,9.4,0c0.3,0,0.5,0,0.8,0c0.8,0,1.3,0.6,1.5,1.3C12.1,3.5,11.6,5.6,9.9,7.8L9.9,7.8z"/>
</svg>
