<?xml version="1.0" encoding="utf-8"?>
<!-- Generator: Adobe Illustrator 18.1.1, SVG Export Plug-In . SVG Version: 6.00 Build 0)  -->
<svg version="1.1" id="圖層_1" xmlns="http://www.w3.org/2000/svg" xmlns:xlink="http://www.w3.org/1999/xlink" x="0px" y="0px"
	 width="80.5px" height="31px" viewBox="0 0 80.5 31" enable-background="new 0 0 80.5 31" xml:space="preserve">
<g>
	<g id="XMLID_97_">
		<g>
			<defs>
				<path id="SVGID_1_" d="M77.3,30.7h-74c-1.7,0-3-1.3-3-3V3.2c0-1.7,1.3-3,3-3h74c1.6,0,3,1.3,3,3v24.5
					C80.3,29.4,78.9,30.7,77.3,30.7z"/>
			</defs>
			<clipPath id="SVGID_2_">
				<use xlink:href="#SVGID_1_"  overflow="visible"/>
			</clipPath>
			<polygon clip-path="url(#SVGID_2_)" fill="#FFFFFF" points="3.2,0.2 0.2,0.2 0.2,0.2 			"/>
			<polygon clip-path="url(#SVGID_2_)" fill="#FFFFFF" points="80.3,0.8 0.2,0.8 0.2,0.2 3.2,0.2 80.3,0.2 			"/>
			<rect x="0.2" y="0.8" clip-path="url(#SVGID_2_)" fill="#FEFEFE" width="80" height="0.6"/>
			<rect x="0.2" y="1.4" clip-path="url(#SVGID_2_)" fill="#FDFDFD" width="80" height="0.6"/>
			<rect x="0.2" y="2" clip-path="url(#SVGID_2_)" fill="#FCFCFC" width="80" height="0.6"/>
			<rect x="0.2" y="2.6" clip-path="url(#SVGID_2_)" fill="#FBFBFB" width="80" height="0.6"/>
			<rect x="0.2" y="3.2" clip-path="url(#SVGID_2_)" fill="#FAFAFA" width="80" height="0.6"/>
			<rect x="0.2" y="3.8" clip-path="url(#SVGID_2_)" fill="#F9F9F9" width="80" height="0.6"/>
			<rect x="0.2" y="4.4" clip-path="url(#SVGID_2_)" fill="#F8F8F8" width="80" height="0.6"/>
			<rect x="0.2" y="5" clip-path="url(#SVGID_2_)" fill="#F7F7F7" width="80" height="0.6"/>
			<rect x="0.2" y="5.6" clip-path="url(#SVGID_2_)" fill="#F6F6F6" width="80" height="0.6"/>
			<rect x="0.2" y="6.2" clip-path="url(#SVGID_2_)" fill="#F5F5F5" width="80" height="0.6"/>
			<rect x="0.2" y="6.8" clip-path="url(#SVGID_2_)" fill="#F4F4F4" width="80" height="0.6"/>
			<rect x="0.2" y="7.4" clip-path="url(#SVGID_2_)" fill="#F3F3F3" width="80" height="0.6"/>
			<rect x="0.2" y="8" clip-path="url(#SVGID_2_)" fill="#F2F2F2" width="80" height="0.6"/>
			<rect x="0.2" y="8.6" clip-path="url(#SVGID_2_)" fill="#F1F1F1" width="80" height="0.6"/>
			<rect x="0.2" y="9.2" clip-path="url(#SVGID_2_)" fill="#F0F0F0" width="80" height="0.6"/>
			<rect x="0.2" y="9.8" clip-path="url(#SVGID_2_)" fill="#EFEFEF" width="80" height="0.6"/>
			<rect x="0.2" y="10.4" clip-path="url(#SVGID_2_)" fill="#EEEEEE" width="80" height="0.6"/>
			<rect x="0.2" y="11" clip-path="url(#SVGID_2_)" fill="#EDEDED" width="80" height="0.6"/>
			<rect x="0.2" y="11.6" clip-path="url(#SVGID_2_)" fill="#ECECEC" width="80" height="0.6"/>
			<rect x="0.2" y="12.2" clip-path="url(#SVGID_2_)" fill="#EBEBEB" width="80" height="0.6"/>
			<rect x="0.2" y="12.8" clip-path="url(#SVGID_2_)" fill="#EAEAEA" width="80" height="0.6"/>
			<rect x="0.2" y="13.4" clip-path="url(#SVGID_2_)" fill="#E9E9E9" width="80" height="0.6"/>
			<rect x="0.2" y="14" clip-path="url(#SVGID_2_)" fill="#E8E8E8" width="80" height="0.6"/>
			<rect x="0.2" y="14.6" clip-path="url(#SVGID_2_)" fill="#E7E7E7" width="80" height="0.6"/>
			<rect x="0.2" y="15.2" clip-path="url(#SVGID_2_)" fill="#E6E6E6" width="80" height="0.6"/>
			<rect x="0.2" y="15.8" clip-path="url(#SVGID_2_)" fill="#E4E4E4" width="80" height="0.6"/>
			<rect x="0.2" y="16.4" clip-path="url(#SVGID_2_)" fill="#E3E3E3" width="80" height="0.6"/>
			<rect x="0.2" y="17" clip-path="url(#SVGID_2_)" fill="#E2E2E2" width="80" height="0.6"/>
			<rect x="0.2" y="17.6" clip-path="url(#SVGID_2_)" fill="#E1E1E1" width="80" height="0.6"/>
			<rect x="0.2" y="18.2" clip-path="url(#SVGID_2_)" fill="#E0E0E0" width="80" height="0.6"/>
			<rect x="0.2" y="18.8" clip-path="url(#SVGID_2_)" fill="#DFDFDF" width="80" height="0.6"/>
			<rect x="0.2" y="19.4" clip-path="url(#SVGID_2_)" fill="#DEDEDE" width="80" height="0.6"/>
			<rect x="0.2" y="20" clip-path="url(#SVGID_2_)" fill="#DDDDDD" width="80" height="0.6"/>
			<rect x="0.2" y="20.6" clip-path="url(#SVGID_2_)" fill="#DCDCDC" width="80" height="0.6"/>
			<rect x="0.2" y="21.1" clip-path="url(#SVGID_2_)" fill="#DBDBDB" width="80" height="0.6"/>
			<rect x="0.2" y="21.7" clip-path="url(#SVGID_2_)" fill="#DADADA" width="80" height="0.6"/>
			<rect x="0.2" y="22.3" clip-path="url(#SVGID_2_)" fill="#D9D9D9" width="80" height="0.6"/>
			<rect x="0.2" y="22.9" clip-path="url(#SVGID_2_)" fill="#D8D8D8" width="80" height="0.6"/>
			<rect x="0.2" y="23.5" clip-path="url(#SVGID_2_)" fill="#D7D7D7" width="80" height="0.6"/>
			<rect x="0.2" y="24.1" clip-path="url(#SVGID_2_)" fill="#D6D6D6" width="80" height="0.6"/>
			<rect x="0.2" y="24.7" clip-path="url(#SVGID_2_)" fill="#D5D5D5" width="80" height="0.6"/>
			<rect x="0.2" y="25.3" clip-path="url(#SVGID_2_)" fill="#D4D4D4" width="80" height="0.6"/>
			<rect x="0.2" y="25.9" clip-path="url(#SVGID_2_)" fill="#D3D3D3" width="80" height="0.6"/>
			<rect x="0.2" y="26.5" clip-path="url(#SVGID_2_)" fill="#D2D2D2" width="80" height="0.6"/>
			<rect x="0.2" y="27.1" clip-path="url(#SVGID_2_)" fill="#D1D1D1" width="80" height="0.6"/>
			<rect x="0.2" y="27.7" clip-path="url(#SVGID_2_)" fill="#D0D0D0" width="80" height="0.6"/>
			<rect x="0.2" y="28.3" clip-path="url(#SVGID_2_)" fill="#CFCFCF" width="80" height="0.6"/>
			<rect x="0.2" y="28.9" clip-path="url(#SVGID_2_)" fill="#CECECE" width="80" height="0.6"/>
			<rect x="0.2" y="29.5" clip-path="url(#SVGID_2_)" fill="#CDCDCD" width="80" height="0.6"/>
			<polygon clip-path="url(#SVGID_2_)" fill="#CCCCCC" points="80.3,30.7 77.2,30.7 0.2,30.7 0.2,30.1 80.3,30.1 			"/>
			<polygon clip-path="url(#SVGID_2_)" fill="#CCCCCC" points="77.2,30.7 80.3,30.7 80.3,30.7 			"/>
		</g>
		<path fill="#CCCCCC" d="M77.3,31h-74C1.5,31,0,29.5,0,27.7V3.2C0,1.5,1.5,0,3.3,0h74c1.8,0,3.3,1.5,3.3,3.3v24.5
			C80.5,29.5,79,31,77.3,31z M3.3,0.5c-1.5,0-2.8,1.2-2.8,2.8v24.5c0,1.5,1.2,2.8,2.8,2.8h74c1.5,0,2.8-1.2,2.8-2.8V3.2
			c0-1.5-1.2-2.8-2.8-2.8H3.3z"/>
	</g>
	<g id="XMLID_59_">
		<path id="XMLID_70_" fill="#37A9BF" d="M26.4,8.3L8.1,16.7c-0.4,0.2-0.4,0.8,0.1,0.9l3.9,1l2.3,4.1c0.1,0.3,0.5,0.3,0.7,0.1
			l2.3-2.2l6.1,1.9c0.3,0.1,0.5-0.1,0.6-0.3l3.1-13.4C27.3,8.5,26.9,8.1,26.4,8.3z"/>
		<g id="XMLID_66_">
			<path id="XMLID_69_" fill="#52DDDC" d="M18.8,11.8L8.1,16.7c-0.4,0.2-0.4,0.8,0.1,0.9l3.9,1l2.3,4.1c0.1,0.3,0.5,0.3,0.7,0.1
				l2.3-2.2l1.4,0.4V11.8z"/>
			<path id="XMLID_67_" fill="#52DDDC" d="M27.2,8C27.2,8,27.2,8,27.2,8C27.2,8,27.2,8,27.2,8z"/>
		</g>
		<path id="XMLID_65_" fill="#2C447F" d="M26.6,8.8c0.1-0.1,0-0.2-0.1-0.2l-14.4,10l0,0l2.3,4.1c0.1,0.1,0.2,0.2,0.3,0.2l1.1-2.9
			L26.6,8.8z"/>
		<path id="XMLID_62_" fill="#2D6CA3" d="M18.8,14l-6.7,4.6l0,0l2.3,4.1c0.1,0.1,0.2,0.2,0.3,0.2l1.1-2.9l3.1-3.2L18.8,14L18.8,14z"
			/>
	</g>
</g>
</svg>
