<?xml version="1.0" encoding="utf-8"?>
<!-- Generator: Adobe Illustrator 18.1.1, SVG Export Plug-In . SVG Version: 6.00 Build 0)  -->
<svg version="1.1" id="圖層_1" xmlns="http://www.w3.org/2000/svg" xmlns:xlink="http://www.w3.org/1999/xlink" x="0px" y="0px"
	 viewBox="0 0 136.8 40.4" enable-background="new 0 0 136.8 40.4" xml:space="preserve">
<g>
	<linearGradient id="SVGID_1_" gradientUnits="userSpaceOnUse" x1="94.7815" y1="66.4992" x2="48.8424" y2="-13.0698">
		<stop  offset="0" style="stop-color:#005DA6"/>
		<stop  offset="1" style="stop-color:#00529B"/>
	</linearGradient>
	<path fill="url(#SVGID_1_)" d="M136.8,40.4V3.8c0-2.1-0.4-3.8-0.8-3.8H1.9C0.9,0,0,0.8,0,1.9c0,0.5,0,1,0,1.9v36.6H136.8z"/>
	<g>
		<linearGradient id="SVGID_2_" gradientUnits="userSpaceOnUse" x1="33.8119" y1="44.1215" x2="18.5372" y2="17.665">
			<stop  offset="0" style="stop-color:#FFFFFF;stop-opacity:0.75"/>
			<stop  offset="1" style="stop-color:#FFFFFF;stop-opacity:0"/>
		</linearGradient>
		<path fill="url(#SVGID_2_)" d="M40,0H1.1C0.5,0,0,1.7,0,3.8v36.6h19.3L40,0z"/>
		<linearGradient id="SVGID_3_" gradientUnits="userSpaceOnUse" x1="22.0276" y1="38.6237" x2="9.7324" y2="17.3276">
			<stop  offset="0" style="stop-color:#FFFFFF;stop-opacity:0.25"/>
			<stop  offset="1" style="stop-color:#FFFFFF;stop-opacity:0"/>
		</linearGradient>
		<path fill="url(#SVGID_3_)" d="M1.1,0C0.5,0,0,1.7,0,3.8v36.6h2.1L22.8,0H1.1z"/>
	</g>
	<g>
		
			<linearGradient id="SVGID_4_" gradientUnits="userSpaceOnUse" x1="1014.0502" y1="2563.0925" x2="999.5313" y2="2537.9448" gradientTransform="matrix(-1 0 0 -1 1119.7776 2561)">
			<stop  offset="0" style="stop-color:#FFFFFF;stop-opacity:0.75"/>
			<stop  offset="1" style="stop-color:#FFFFFF;stop-opacity:0"/>
		</linearGradient>
		<path fill="url(#SVGID_4_)" d="M101.1,40.4h34.9c0.5,0,0.8-1.7,0.8-3.8V1.7c0-0.9-0.6-1.7-1.3-1.7L122,0L101.1,40.4z"/>
		
			<linearGradient id="SVGID_5_" gradientUnits="userSpaceOnUse" x1="1005.0743" y1="2558.8928" x2="992.8276" y2="2537.6809" gradientTransform="matrix(-1 0 0 -1 1119.7776 2561)">
			<stop  offset="0" style="stop-color:#FFFFFF;stop-opacity:0.25"/>
			<stop  offset="1" style="stop-color:#FFFFFF;stop-opacity:0"/>
		</linearGradient>
		<path fill="url(#SVGID_5_)" d="M135.9,40.4c0.5,0,0.8-1.7,0.8-3.8V2.5c0-1.4-0.4-2.5-1-2.5l-0.6,0l-21,40.4H135.9z"/>
	</g>
	
		<radialGradient id="SVGID_6_" cx="1113.8019" cy="-1266.1367" r="10.2204" gradientTransform="matrix(-6.6031 0 0 -2.7499 7495.9858 -3463.6296)" gradientUnits="userSpaceOnUse">
		<stop  offset="0" style="stop-color:#FFFFFF"/>
		<stop  offset="1" style="stop-color:#FFFFFF;stop-opacity:0"/>
	</radialGradient>
	<path opacity="0.7" fill="url(#SVGID_6_)" d="M68.4,0l66.2,0c1.2,0,2.2,1,2.2,2.2v38.2l-68.4,0L68.4,0z"/>
	
		<radialGradient id="SVGID_7_" cx="2332.053" cy="-1266.1367" r="10.2204" gradientTransform="matrix(6.6031 0 0 -2.7499 -15403.4863 -3463.6292)" gradientUnits="userSpaceOnUse">
		<stop  offset="0" style="stop-color:#FFFFFF"/>
		<stop  offset="1" style="stop-color:#FFFFFF;stop-opacity:0"/>
	</radialGradient>
	<path opacity="0.7" fill="url(#SVGID_7_)" d="M66.4,0L2,0C0.9,0,0,0.9,0,2l0,36.4c0,1.1,0.9,2,2,2l64.4,0c1.1,0,2-0.9,2-2l0-36.4
		C68.4,0.9,67.5,0,66.4,0z"/>
</g>
</svg>
