<?xml version="1.0" encoding="utf-8"?>
<!-- Generator: Adobe Illustrator 18.1.1, SVG Export Plug-In . SVG Version: 6.00 Build 0)  -->
<svg version="1.1" id="圖層_1" xmlns="http://www.w3.org/2000/svg" xmlns:xlink="http://www.w3.org/1999/xlink" x="0px" y="0px"
	 viewBox="0 0 98 90" enable-background="new 0 0 98 90" xml:space="preserve">
<g>
	<g>
		
			<linearGradient id="SVGID_1_" gradientUnits="userSpaceOnUse" x1="-1223.3199" y1="42.0163" x2="-1150.8304" y2="42.0163" gradientTransform="matrix(-1 0 0 1 -1135.3175 0)">
			<stop  offset="0" style="stop-color:#D1EFFF"/>
			<stop  offset="5.905741e-002" style="stop-color:#D7F1FF"/>
			<stop  offset="0.3719" style="stop-color:#F4FBFF"/>
			<stop  offset="0.551" style="stop-color:#FFFFFF"/>
			<stop  offset="0.6576" style="stop-color:#E8FBFF"/>
			<stop  offset="0.8795" style="stop-color:#AEF0FF"/>
			<stop  offset="1" style="stop-color:#8CEAFF"/>
		</linearGradient>
		<path fill="url(#SVGID_1_)" d="M15.5,42L88,82.8V1.3L15.5,42z M21.7,42L84.9,7.3v69.3L21.7,42z"/>
		
			<linearGradient id="SVGID_2_" gradientUnits="userSpaceOnUse" x1="-1210.2378" y1="66.0818" x2="-1188.7461" y2="24.9328" gradientTransform="matrix(-1 0 0 1 -1135.3175 0)">
			<stop  offset="0" style="stop-color:#FFFFFF;stop-opacity:0"/>
			<stop  offset="1" style="stop-color:#FFFFFF"/>
		</linearGradient>
		<path opacity="0.45" fill="url(#SVGID_2_)" d="M84.9,7.3L21.7,42l43.9,23.9c0,0,16.2,8.2,19.3-23C84.9,29.6,84.9,19,84.9,7.3z"/>
		
			<linearGradient id="SVGID_3_" gradientUnits="userSpaceOnUse" x1="-1206.73" y1="42.0162" x2="-1135.3175" y2="42.0162" gradientTransform="matrix(-1 0 0 1 -1135.3175 0)">
			<stop  offset="0" style="stop-color:#D1EFFF"/>
			<stop  offset="5.905741e-002" style="stop-color:#D7F1FF"/>
			<stop  offset="0.3719" style="stop-color:#F4FBFF"/>
			<stop  offset="0.551" style="stop-color:#FFFFFF"/>
			<stop  offset="0.6576" style="stop-color:#E8FBFF"/>
			<stop  offset="0.8795" style="stop-color:#AEF0FF"/>
			<stop  offset="1" style="stop-color:#8CEAFF"/>
		</linearGradient>
		<polygon fill="url(#SVGID_3_)" points="71.4,0 71.4,4.8 6.9,42 71.4,79.2 71.4,84 0,42 		"/>
	</g>
	<g>
		<path fill="#00FFFF" d="M44.4,35.2h1.2v4.4h5.3v1.2h-5.3v6.1H52v1.2H38.9v-1.2h5.4V35.2z"/>
		<path fill="#00FFFF" d="M67.1,40.8V42H53.8v-1.2H67.1z"/>
		<path fill="#00FFFF" d="M72.3,39.6v5.5h-1.2v-5.5v-0.6v-0.6h3.2c0.2-0.6,0.3-1.1,0.4-1.5h-5.4v-1.2h12.3v1.2H76
			c-0.1,0.4-0.2,0.9-0.3,1.5h3h0.6h0.6v6.8h-1.2v-5.5H72.3z M74.9,41.2h1.2v3c0,1.4-0.6,2.5-1.7,3.2c-1,0.6-2.5,1.1-4.5,1.3
			l-0.5-1.4c2-0.2,3.4-0.5,4.2-0.9c0.8-0.5,1.2-1.2,1.2-2.2V41.2z M76.8,46c1.5,0.3,3.2,0.8,5.1,1.7l-0.5,1.2
			c-2-0.9-3.6-1.4-4.8-1.7L76.8,46z"/>
	</g>
	
		<radialGradient id="SVGID_4_" cx="-885.3702" cy="1970.8007" r="10.8789" gradientTransform="matrix(-0.2918 0.3202 2.2488 1.2704 -4627.0527 -2151.2207)" gradientUnits="userSpaceOnUse">
		<stop  offset="0" style="stop-color:#FFFFFF"/>
		<stop  offset="1.252675e-002" style="stop-color:#FFFFFF;stop-opacity:0.9875"/>
		<stop  offset="1" style="stop-color:#FFFFFF;stop-opacity:0"/>
	</radialGradient>
	<path fill="url(#SVGID_4_)" d="M58,74.7c17.4,9.8,33.8,15.2,36.6,12.1c2.9-3.1-8.9-13.6-26.3-23.4C51,53.5,34.6,48.1,31.8,51.3
		C28.9,54.4,40.7,64.9,58,74.7z"/>
	
		<radialGradient id="SVGID_5_" cx="-2095.8625" cy="-5773.9053" r="10.8789" gradientTransform="matrix(-0.1276 -0.4108 -1.7124 0.9257 -10124.5654 4508.8926)" gradientUnits="userSpaceOnUse">
		<stop  offset="0" style="stop-color:#FFFFFF"/>
		<stop  offset="1.252675e-002" style="stop-color:#FFFFFF;stop-opacity:0.9875"/>
		<stop  offset="1" style="stop-color:#FFFFFF;stop-opacity:0"/>
	</radialGradient>
	<path fill="url(#SVGID_5_)" d="M27.8,17.5C14.6,24.6,4.9,33.7,6.1,37.7c1.2,4,13,1.5,26.2-5.7C45.6,24.9,55.3,15.9,54,11.8
		C52.8,7.8,41,10.3,27.8,17.5z"/>
</g>
</svg>
