<?xml version="1.0" encoding="utf-8"?>
<!-- Generator: Adobe Illustrator 18.1.1, SVG Export Plug-In . SVG Version: 6.00 Build 0)  -->
<svg version="1.1" id="圖層_1" xmlns="http://www.w3.org/2000/svg" xmlns:xlink="http://www.w3.org/1999/xlink" x="0px" y="0px"
	 width="49.5px" height="67.5px" viewBox="0 0 49.5 67.5" enable-background="new 0 0 49.5 67.5" xml:space="preserve">
<g>
	<linearGradient id="SVGID_1_" gradientUnits="userSpaceOnUse" x1="24.725" y1="0.3906" x2="24.725" y2="73.6767">
		<stop  offset="0" style="stop-color:#FBFCFC"/>
		<stop  offset="0.4174" style="stop-color:#F9FAFA"/>
		<stop  offset="0.5678" style="stop-color:#F2F3F3"/>
		<stop  offset="0.6749" style="stop-color:#E7E8E8"/>
		<stop  offset="0.7616" style="stop-color:#D6D7D7"/>
		<stop  offset="0.8359" style="stop-color:#C0C1C1"/>
		<stop  offset="0.9015" style="stop-color:#A5A5A5"/>
		<stop  offset="0.9595" style="stop-color:#868686"/>
		<stop  offset="1" style="stop-color:#6B6B6B"/>
	</linearGradient>
	<path fill="url(#SVGID_1_)" stroke="#FFFFFF" stroke-width="0.5" stroke-miterlimit="10" d="M38.5,66.9H11
		c-5.8,0-10.5-4.7-10.5-10.5V10.8C0.5,2.3,5.2,0.4,11,0.4h27.5c5.8,0,10.5,2.5,10.5,10.5v45.6C48.9,62.2,44.3,66.9,38.5,66.9z"/>
	<g opacity="0.8">
		<g>
			
				<linearGradient id="SVGID_2_" gradientUnits="userSpaceOnUse" x1="13840.3115" y1="-477.4317" x2="13887.9873" y2="-477.4317" gradientTransform="matrix(1 0 0 1 -13839.4248 510.7284)">
				<stop  offset="0" style="stop-color:#D6D7D9"/>
				<stop  offset="8.040637e-002" style="stop-color:#E6E7E8"/>
				<stop  offset="0.1869" style="stop-color:#F4F5F5"/>
				<stop  offset="0.3187" style="stop-color:#FDFDFD"/>
				<stop  offset="0.5495" style="stop-color:#FFFFFF"/>
				<stop  offset="0.8311" style="stop-color:#FBFBFC"/>
				<stop  offset="1" style="stop-color:#F5F5F6"/>
			</linearGradient>
			<polygon fill="url(#SVGID_2_)" points="0.9,33.6 0.9,33 48.6,33 48.6,33.6 0.9,33.6 			"/>
		</g>
		<g>
			
				<linearGradient id="SVGID_3_" gradientUnits="userSpaceOnUse" x1="13840.3115" y1="-478.0895" x2="13887.9873" y2="-478.0895" gradientTransform="matrix(1 0 0 1 -13839.4248 510.7284)">
				<stop  offset="0" style="stop-color:#D7D8DA"/>
				<stop  offset="2.232942e-002" style="stop-color:#BDBEC0"/>
				<stop  offset="6.364429e-002" style="stop-color:#939495"/>
				<stop  offset="0.1084" style="stop-color:#6E6F70"/>
				<stop  offset="0.1561" style="stop-color:#4F4F50"/>
				<stop  offset="0.2077" style="stop-color:#363636"/>
				<stop  offset="0.2645" style="stop-color:#222223"/>
				<stop  offset="0.3294" style="stop-color:#141515"/>
				<stop  offset="0.4094" style="stop-color:#0C0C0C"/>
				<stop  offset="0.5495" style="stop-color:#0A0A0A"/>
				<stop  offset="0.6136" style="stop-color:#0E0E0E"/>
				<stop  offset="0.673" style="stop-color:#191919"/>
				<stop  offset="0.7305" style="stop-color:#2C2C2C"/>
				<stop  offset="0.7869" style="stop-color:#464646"/>
				<stop  offset="0.8425" style="stop-color:#686868"/>
				<stop  offset="0.8974" style="stop-color:#919192"/>
				<stop  offset="0.9508" style="stop-color:#C2C2C2"/>
				<stop  offset="1" style="stop-color:#F5F5F6"/>
			</linearGradient>
			<polygon fill="url(#SVGID_3_)" points="0.9,33 0.9,32.3 48.6,32.3 48.6,33 0.9,33 			"/>
		</g>
	</g>
	<path opacity="0.2" d="M48.6,32.3V8.6c0-4.2-3.4-7.5-7.5-7.5H8.4c-4.2,0-7.5,3.4-7.5,7.5v23.7H48.6z"/>
	<path fill="#FFFFFF" d="M40.1,2H9.4c-5,0-7,3.1-7,4.8v0.4c0-1.4,2.3-4.4,6.5-4.4h31.7c4.2,0,6.5,3,6.5,4.4V6.7
		C47.1,5.1,45,2,40.1,2z"/>
</g>
</svg>
