<?xml version="1.0" encoding="utf-8"?>
<!-- Generator: Adobe Illustrator 18.1.1, SVG Export Plug-In . SVG Version: 6.00 Build 0)  -->
<svg version="1.1" id="圖層_1" xmlns="http://www.w3.org/2000/svg" xmlns:xlink="http://www.w3.org/1999/xlink" x="0px" y="0px"
	 width="117px" height="57.8px" viewBox="0 0 117 57.8" enable-background="new 0 0 117 57.8" xml:space="preserve">
<g>
	<polygon fill="#DFD3A2" points="0,54.7 3.6,55.3 6.2,57.8 6.9,54.2 9.4,51.6 5.8,50.9 3.1,48.4 2.5,52 	"/>
	<polygon fill="#DFD3A2" points="78.3,56.3 79.7,54.4 81.8,53.4 79.9,52.1 79,50 77.6,51.9 75.5,52.8 77.4,54.1 	"/>
	<linearGradient id="SVGID_1_" gradientUnits="userSpaceOnUse" x1="12.7508" y1="61.7088" x2="70.5806" y2="32.4968">
		<stop  offset="0" style="stop-color:#DD1D1D"/>
		<stop  offset="0.2721" style="stop-color:#D31C1C"/>
		<stop  offset="0.732" style="stop-color:#B91818"/>
		<stop  offset="1" style="stop-color:#A61616"/>
	</linearGradient>
	<path fill="url(#SVGID_1_)" d="M60.7,24.8c0,0-12.9,25.5-56,21c0,0,29.4,20.9,74,2.7C78.7,48.5,63.6,43.9,60.7,24.8z M24.9,49.7
		c-0.1,0.3-0.5,0.6-0.8,0.5c-0.3,0-0.5-0.3-0.4-0.6c0.1-0.3,0.4-0.6,0.8-0.5C24.8,49.1,25,49.4,24.9,49.7z M35.8,49.8
		c-0.1,0.1-1.1,0.7-1.2,0.7c-0.1,0-0.2-1-0.2-1c-0.1-0.1-0.6-0.9-0.6-1c0-0.1,1.1-0.4,1.2-0.4c0.1-0.1,1.1-0.7,1.2-0.7
		c0.1,0,0.2,1,0.2,1.1c0.1,0.1,0.6,0.9,0.6,1C37,49.5,35.9,49.7,35.8,49.8z M46.3,48.2c0,0-1.9,1.3-1.9,1.3c-0.1,0,0-1.9-0.1-2
		c0,0-1.1-1.5-1.1-1.6c0-0.1,2.1-0.4,2.1-0.4c0,0,1.9-1.4,1.9-1.3c0.1,0,0.1,2,0.1,2c0,0,1.1,1.6,1.1,1.6
		C48.5,47.9,46.4,48.2,46.3,48.2z M56,45.6l-2.6,1.9l0.1-3l-1.6-2.3l3.1-0.5l2.6-2l-0.1,3.1l1.6,2.4L56,45.6z"/>
	<g>
		<path fill="#EEE7CA" d="M63.7,12.1C70.9,0.3,86.2-3.5,98.1,3.6c11.8,7.1,15.7,22.5,8.5,34.3c-7.1,11.8-22.5,15.7-34.3,8.5
			C60.4,39.3,56.6,24,63.7,12.1"/>
		<path fill="#271D1B" d="M81.7,18.7c7.3-4,8.9-11,4.9-14.5c-3-2.6-8.5-2.3-12.9,0.1c-4.4,2.4-7.5,6.9-6.9,10.9
			C67.7,20.4,74.4,22.7,81.7,18.7"/>
		<path fill="#271D1B" d="M81.5,31.1c-7.1-4.3-14-2.2-15,3c-0.8,3.9,2.2,8.5,6.5,11.1c4.3,2.6,9.8,3.1,12.9,0.6
			C90,42.5,88.6,35.4,81.5,31.1"/>
		<path fill="#CB1716" d="M83.8,22.4c-2.3,1.3-4.6,2.1-6.7,2.4c2.1,0.4,4.3,1.3,6.6,2.7c2.3,1.4,4.1,3,5.5,4.6c-0.7-2-1-4.4-1-7.1
			c0-2.7,0.5-5,1.2-7.1C88,19.6,86.1,21.1,83.8,22.4z"/>
		<path fill="#CB1716" d="M102.4,39.8c-3.7,1.6-7.6,0.6-10.5-2.6c1.2,4.1,0,8-3.3,10.2c-0.7,0.4-1.4,0.8-2.2,1.1
			c7-0.4,13.7-3.8,17.9-9.9C103.7,39.1,103.1,39.5,102.4,39.8 M95.3,43.6l-1,0.6l0-1.2l-0.6-1l1.2,0l1-0.6l0,1.2l0.6,1L95.3,43.6"/>
		<path fill="#CB1716" d="M92.4,13.1c2.9-3.1,6.9-4,10.5-2.2c0.7,0.3,1.3,0.7,1.9,1.2c-1.9-2.8-4.4-5.3-7.5-7.2
			c-3.1-1.8-6.4-2.9-9.7-3.2c0.7,0.3,1.3,0.6,1.9,1C92.7,5.1,93.8,9,92.4,13.1 M95.4,6.5l0.6-1l0.5,1l1,0.6l-1,0.5l-0.6,1l-0.5-1
			l-1-0.6L95.4,6.5"/>
		<path fill="#CB1716" d="M71.3,24.7c-4.2-1-6.9-4-7.2-8c0-0.8,0-1.5,0.1-2.3c-3.3,6.6-3.3,14-0.4,20.4c-0.1-0.8-0.1-1.6-0.1-2.3
			C64.2,28.5,67.1,25.5,71.3,24.7 M63.2,24.9l0.6-1l0-1.2l1,0.6l1.2,0l-0.6,1l0,1.2l-1-0.6L63.2,24.9"/>
		<path fill="#271D1B" d="M92.4,25.1c-0.2,8.3,5.1,13.2,10,11.5c3.8-1.3,6.3-6.2,6.4-11.2c0.1-5-2.2-10-5.9-11.4
			C97.9,12.1,92.5,16.8,92.4,25.1"/>
		<path fill="#109BE0" d="M102.5,33c2.6-0.6,4.5-3.9,4.6-7.6c0.1-3.6-1.7-7-4.3-7.7c-3.2-0.8-6.3,2.4-6.4,7.5
			C96.3,30.3,99.3,33.7,102.5,33 M70.1,13.4c0.8,3.2,5.3,4.2,9.7,1.8c4.4-2.5,5.9-6.8,3.7-9.2c-1.8-2-5.7-1.9-8.8-0.2
			C71.4,7.6,69.4,10.8,70.1,13.4 M69.6,36c-0.8,2.6,1.2,5.9,4.3,7.8c3.1,1.9,6.9,2,8.8,0.1c2.3-2.3,1-6.7-3.3-9.3
			C75.1,31.9,70.6,32.9,69.6,36"/>
		<path fill="#1573B0" d="M102.5,33c2.6-0.6,4.5-3.9,4.6-7.6c0.1-3.6-1.7-7-4.3-7.7c-3.2-0.8-6.3,2.4-6.4,7.5
			C96.3,30.3,99.3,33.7,102.5,33 M70.1,13.4c0.8,3.2,5.3,4.2,9.7,1.8c4.4-2.5,5.9-6.8,3.7-9.2c-1.8-2-5.7-1.9-8.8-0.2
			C71.4,7.6,69.4,10.8,70.1,13.4 M69.6,36c-0.8,2.6,1.2,5.9,4.3,7.8c3.1,1.9,6.9,2,8.8,0.1c2.3-2.3,1-6.7-3.3-9.3
			C75.1,31.9,70.6,32.9,69.6,36"/>
		<path fill="#F2EBE3" d="M78.3,41.5l1.4-0.4l1.8,0.4l-1-1.4l0-1.5l-1.6,0.6l-1.8-0.3l1.1,1.4L78.3,41.5z M81.1,8
			c0.3-0.2,0.5-0.5,0.3-0.7c-0.2-0.2-0.6-0.2-0.9,0C80.2,7.5,80,7.8,80.2,8C80.3,8.2,80.7,8.2,81.1,8z M101.1,25.1l0.7-1.6l1.1-0.8
			l-1.1-1l-0.6-1.8l-0.7,1.6l-1.3,0.8l1.3,1.1L101.1,25.1z M102.4,30.5c0.3,0,0.5-0.4,0.5-0.7c0-0.4-0.2-0.6-0.4-0.6
			c-0.3,0-0.5,0.4-0.5,0.7C101.9,30.3,102.1,30.5,102.4,30.5z M99.8,26.4c-0.6,0-1.2,0.7-1.2,1.6c0,0.9,0.5,1.5,1.1,1.4
			c0.6-0.1,1.1-0.8,1.1-1.6C100.9,27.1,100.4,26.4,99.8,26.4z M74.5,13.4l1.3,0.7l0.3-1.6l1.2-1.4l-1.7,0.2l-1.2-0.6L74,12.2
			l-1.2,1.4L74.5,13.4z M81.1,11.8c0.7-0.4,1-1.2,0.7-1.7c-0.4-0.5-1.2-0.6-1.9-0.2c-0.7,0.4-1,1.1-0.7,1.6
			C79.5,12.1,80.3,12.2,81.1,11.8z M71.8,37.1c-0.1,0.2,0.1,0.6,0.4,0.8c0.3,0.2,0.7,0.2,0.8-0.1c0.1-0.2-0.1-0.6-0.4-0.8
			C72.2,36.9,71.9,36.9,71.8,37.1z M74.9,37.1c0.7,0.4,1.5,0.3,1.8-0.2c0.3-0.5,0-1.4-0.8-1.8c-0.7-0.4-1.5-0.3-1.8,0.3
			C73.8,35.9,74.2,36.7,74.9,37.1z"/>
		
			<radialGradient id="SVGID_2_" cx="7399.6602" cy="660.4487" r="25.0237" gradientTransform="matrix(-0.9831 -0.183 -0.183 0.9831 7480.7544 729.7391)" gradientUnits="userSpaceOnUse">
			<stop  offset="0" style="stop-color:#FEFBCD"/>
			<stop  offset="0.4778" style="stop-color:#FDF9CB"/>
			<stop  offset="0.6499" style="stop-color:#FAF4C4"/>
			<stop  offset="0.7726" style="stop-color:#F5EAB9"/>
			<stop  offset="0.8717" style="stop-color:#EEDCA8"/>
			<stop  offset="0.9557" style="stop-color:#E4CA92"/>
			<stop  offset="1" style="stop-color:#DEBE83"/>
		</radialGradient>
		<path fill="url(#SVGID_2_)" d="M96.2,8.2l0.3-0.6l1-0.5l-1-0.6l-0.5-1l-0.6,1l-1,0.5l1,0.6l0.1,0.1c0,0,0.1,0,0.1,0
			C95.8,7.9,96,8.1,96.2,8.2 M65.1,25.3c0-0.6,0-1.3,0.1-1.9l-0.3,0l-1-0.6l0,1.2l-0.6,1l1.2,0L65.1,25.3 M94.3,44.2l1-0.6l1.2,0
			l-0.6-1l0-0.5c-0.5,0.3-1,0.6-1.6,0.9l0,0L94.3,44.2 M86.6,45.1c-0.2,0.2-0.5,0.5-0.7,0.7c-2,1.6-4.9,2-7.8,1.4
			c-1.7-0.3-3.5-1-5.1-2c-4.3-2.6-7.3-7.2-6.5-11.1c0.1-0.3,0.2-0.7,0.3-1c-0.7-1.5-1.1-3.1-1.4-4.8c-0.9,1.2-1.4,2.6-1.6,4.1
			c-0.1,0.8-0.1,1.6,0.1,2.3c-2.9-6.3-2.9-13.8,0.4-20.4c-0.1,0.8-0.2,1.5-0.1,2.3c0.1,1.6,0.6,3,1.4,4.2c0.3-1.6,0.9-3.2,1.6-4.7
			c-0.1-0.3-0.2-0.7-0.2-1c-0.6-3.9,2.5-8.4,6.9-10.9c3-1.6,6.4-2.3,9.3-1.7c1.4,0.3,2.6,0.8,3.6,1.6c0.3,0.2,0.5,0.5,0.8,0.8
			c0.5,0.1,1,0.1,1.6,0.2c1.1,0.2,2.2,0.5,3.3,0.9c-0.6-1.4-1.5-2.5-2.8-3.5c-0.6-0.4-1.2-0.8-1.9-1c0.7,0.1,1.4,0.2,2.1,0.3
			c2.6,0.5,5.2,1.5,7.7,2.9c3.1,1.9,5.6,4.3,7.5,7.2c-0.6-0.5-1.2-0.9-1.9-1.2c-0.7-0.4-1.5-0.6-2.2-0.7C100,10,99.3,9.9,98.5,10
			c1.3,1.1,2.4,2.4,3.3,3.7c0.3,0.1,0.7,0.2,1,0.3c3.7,1.4,6,6.4,5.9,11.4c-0.1,5-2.6,9.9-6.4,11.2c-0.3,0.1-0.7,0.2-1,0.3
			c-1,1.4-2.1,2.6-3.4,3.6c1.4,0.2,2.9-0.1,4.4-0.7c0.7-0.3,1.3-0.7,2-1.2c-4.3,6-11,9.5-17.9,9.9c0.8-0.3,1.5-0.6,2.2-1.1
			c1.3-0.9,2.3-2,2.9-3.3C89.9,44.6,88.3,45,86.6,45.1 M80.4,49.6c10,1.9,20.6-2.4,26.2-11.7c7.1-11.8,3.3-27.2-8.5-34.3
			C95.5,2,92.7,1,89.9,0.5c-10-1.9-20.6,2.4-26.2,11.7c-7.1,11.8-3.3,27.2,8.5,34.3C74.9,48,77.6,49,80.4,49.6"/>
		<path fill="#130D0C" d="M67.1,16.2c0.3-0.5,0.5-1,0.8-1.5c0.6-1,1.3-1.9,2-2.8c0-0.1,0-0.3,0.1-0.4c0.4-2.1,2.2-4.3,4.6-5.6
			c2-1.1,4.3-1.5,6.2-1.2c0.5,0.1,1,0.3,1.4,0.5c1.7-0.3,3.4-0.3,5.2-0.1c-0.2-0.3-0.5-0.5-0.8-0.8c-1-0.8-2.2-1.4-3.6-1.6
			c-2.9-0.6-6.3,0.1-9.3,1.7c-4.4,2.4-7.5,6.9-6.9,10.9C66.9,15.5,67,15.9,67.1,16.2"/>
		<path fill="#130D0C" d="M78.1,47.2c2.9,0.6,5.8,0.2,7.8-1.4c0.3-0.2,0.5-0.4,0.7-0.7c-1.7,0.1-3.5,0-5.2-0.3l0,0
			c-1.2,0.5-2.6,0.6-4.1,0.3c-1.2-0.2-2.3-0.7-3.4-1.3c-2.5-1.5-4.2-3.9-4.4-6.1c-1.1-1.4-2-2.9-2.7-4.5c-0.1,0.3-0.2,0.6-0.3,1
			c-0.8,3.9,2.2,8.5,6.5,11.1C74.6,46.2,76.3,46.8,78.1,47.2"/>
		<path fill="#A51A13" d="M86.4,48.5c7-0.4,13.7-3.8,17.9-9.9c-0.6,0.5-1.3,0.9-2,1.2c-1.4,0.6-2.9,0.9-4.4,0.7
			c-0.7,0.6-1.4,1.1-2.1,1.5l0,0.5l0.6,1l-1.2,0l-1,0.6l0-1.2l0,0c-0.9,0.5-1.8,0.9-2.8,1.2c-0.6,1.3-1.6,2.4-2.9,3.3
			C87.9,47.8,87.2,48.2,86.4,48.5"/>
		<path fill="#A51A13" d="M104.8,12.1c-1.9-2.8-4.4-5.3-7.5-7.2c-2.4-1.5-5-2.4-7.7-2.9c-0.7-0.1-1.4-0.2-2.1-0.3
			c0.7,0.3,1.3,0.6,1.9,1c1.3,0.9,2.2,2.1,2.8,3.5c1.1,0.4,2.2,0.9,3.2,1.6l-0.1-0.1l-1-0.6l1-0.5l0.6-1l0.5,1l1,0.6l-1,0.5
			l-0.3,0.6c0.8,0.5,1.6,1.1,2.3,1.8c0.7-0.1,1.4,0,2.2,0.1c0.7,0.1,1.5,0.4,2.2,0.7C103.6,11.2,104.2,11.6,104.8,12.1"/>
		<path fill="#A51A13" d="M63.8,34.8c-0.1-0.8-0.1-1.6-0.1-2.3c0.2-1.6,0.7-3,1.6-4.1c-0.2-1-0.3-2-0.3-3l-0.7-0.4l-1.2,0l0.6-1
			l0-1.2l1,0.6l0.3,0c0.1-0.8,0.2-1.7,0.4-2.5c-0.8-1.2-1.3-2.6-1.4-4.2c0-0.8,0-1.5,0.1-2.3C60.9,21,60.9,28.5,63.8,34.8"/>
		<path fill="#130D0C" d="M101.4,36.9c0.3-0.1,0.7-0.1,1-0.3c3.8-1.3,6.3-6.2,6.4-11.2c0.1-5-2.2-10-5.9-11.4
			c-0.3-0.1-0.7-0.2-1-0.3c1,1.4,1.8,3,2.3,4.6c1.8,1.3,3,4.1,2.9,7.1c0,0.6-0.1,1.2-0.2,1.8c-0.4,2.2-1.5,4.1-3,5.1
			c-0.4,1-0.9,2.1-1.5,3.1C102.1,35.9,101.8,36.4,101.4,36.9"/>
		<path fill="#17628C" d="M70,11.9c3.2-3.7,7.6-6,12.3-6.7c-0.4-0.2-0.9-0.4-1.4-0.5c-1.9-0.4-4.2,0.1-6.2,1.2
			c-2.4,1.3-4.2,3.5-4.6,5.6C70,11.6,70,11.7,70,11.9 M103.9,32.3c1.5-1,2.5-2.9,3-5.1c0.1-0.6,0.2-1.2,0.2-1.8
			c0.1-2.9-1.1-5.7-2.9-7.1C105.7,22.8,105.7,27.8,103.9,32.3 M77.3,45.1c1.5,0.3,2.9,0.2,4.1-0.3c-2.3-0.4-4.5-1.3-6.5-2.5
			c-2.1-1.3-3.9-2.9-5.3-4.7c0.2,2.2,1.9,4.6,4.4,6.1C75,44.4,76.1,44.8,77.3,45.1"/>
	</g>
	<polygon fill="#DFD3A2" points="50.4,26.5 53.2,26.7 55.5,28.3 55.6,25.5 57.2,23.2 54.4,23.1 52.2,21.4 52,24.2 	"/>
	<polygon fill="#DFD3A2" points="110.8,34 113.6,33.6 116.1,34.8 115.7,32 117,29.5 114.2,29.9 111.6,28.6 112,31.4 	"/>
</g>
</svg>
