<?xml version="1.0" encoding="utf-8"?>
<!-- Generator: Adobe Illustrator 18.1.1, SVG Export Plug-In . SVG Version: 6.00 Build 0)  -->
<svg version="1.1" id="圖層_1" xmlns="http://www.w3.org/2000/svg" xmlns:xlink="http://www.w3.org/1999/xlink" x="0px" y="0px"
	 viewBox="0 0 50 28.6" enable-background="new 0 0 50 28.6" xml:space="preserve">
<g>
	<g>
		<path fill="#08143A" d="M0,3.2C0,1.4,1.4,0,3.2,0l34.6,0c1.9,0,3,1.5,3.5,2.3l0,0L49,14.5l-7.7,11.8l0,0c-0.6,0.8-1.7,2.3-3.5,2.3
			H3.2c-1.8,0-3.2-1.4-3.2-3.2L0,3.2z"/>
		
			<linearGradient id="SVGID_1_" gradientUnits="userSpaceOnUse" x1="-8449.6689" y1="-5085.7891" x2="-8449.6689" y2="-5134.832" gradientTransform="matrix(4.489700e-011 1 -1 4.489700e-011 -5084.832 8463.9834)">
			<stop  offset="0" style="stop-color:#032059"/>
			<stop  offset="7.237792e-002" style="stop-color:#032A64"/>
			<stop  offset="0.2732" style="stop-color:#053F7C"/>
			<stop  offset="0.4861" style="stop-color:#054F8D"/>
			<stop  offset="0.7172" style="stop-color:#065897"/>
			<stop  offset="1" style="stop-color:#065B9A"/>
		</linearGradient>
		<path fill="url(#SVGID_1_)" d="M1,3.2C1,1.4,2.4,0,4.2,0l34.6,0c1.9,0,3,1.5,3.5,2.3l0,0L50,14.5l-7.7,11.8l0,0
			c-0.6,0.8-1.7,2.3-3.5,2.3H4.2c-1.8,0-3.2-1.4-3.2-3.2V3.2z"/>
		<g>
			<path fill="#00104C" d="M2.3,25.1v-0.9h0.2v0.9H2.3z M2.3,23.3v-0.9h0.2v0.9H2.3z M2.3,21.5v-0.9h0.2v0.9H2.3z M2.3,19.8v-0.9
				h0.2v0.9H2.3z M2.3,18v-0.9h0.2V18H2.3z M2.3,16.2v-0.9h0.2v0.9H2.3z M2.3,14.5v-0.9h0.2v0.9H2.3z M2.3,12.7v-0.9h0.2v0.9H2.3z
				 M2.3,10.9v-0.9h0.2v0.9H2.3z M2.3,9.2V8.3h0.2v0.9H2.3z M2.3,7.4V6.5h0.2v0.9H2.3z M2.3,5.7V4.8h0.2v0.9H2.3z M2.3,3.9V3.2
				c0-0.3,0.1-0.6,0.2-0.9l0.2,0.1C2.6,2.7,2.5,2.9,2.5,3.2v0.7H2.3z M2.4,26l0.2-0.1c0.1,0.3,0.2,0.5,0.4,0.7l-0.2,0.2
				C2.6,26.6,2.5,26.3,2.4,26z M3.1,1.6C3.4,1.5,3.7,1.4,4,1.3l0,0.2c-0.3,0-0.5,0.1-0.8,0.3L3.1,1.6z M3.7,27.2L3.7,27
				c0.1,0,0.3,0.1,0.5,0.1h0.4v0.2H4.2C4,27.3,3.8,27.3,3.7,27.2z M4.9,1.5V1.3h0.9v0.2H4.9z M5.5,27.3v-0.2h0.9v0.2H5.5z M6.7,1.5
				V1.3h0.9v0.2H6.7z M7.2,27.3v-0.2h0.9v0.2H7.2z M8.4,1.5V1.3h0.9v0.2H8.4z M9,27.3v-0.2h0.9v0.2H9z M10.2,1.5V1.3h0.9v0.2H10.2z
				 M10.8,27.3v-0.2h0.9v0.2H10.8z M12,1.5V1.3h0.9v0.2H12z M12.5,27.3v-0.2h0.9v0.2H12.5z M13.7,1.5V1.3h0.9v0.2H13.7z M14.3,27.3
				v-0.2h0.9v0.2H14.3z M15.5,1.5V1.3h0.9v0.2H15.5z M16.1,27.3v-0.2h0.9v0.2H16.1z M17.3,1.5V1.3h0.9v0.2H17.3z M17.8,27.3v-0.2
				h0.9v0.2H17.8z M19,1.5V1.3h0.9v0.2H19z M19.6,27.3v-0.2h0.9v0.2H19.6z M20.8,1.5V1.3h0.9v0.2H20.8z M21.4,27.3v-0.2h0.9v0.2
				H21.4z M22.6,1.5V1.3h0.9v0.2H22.6z M23.1,27.3v-0.2H24v0.2H23.1z M24.3,1.5V1.3h0.9v0.2H24.3z M24.9,27.3v-0.2h0.9v0.2H24.9z
				 M26.1,1.5V1.3H27v0.2H26.1z M26.7,27.3v-0.2h0.9v0.2H26.7z M27.9,1.5V1.3h0.9v0.2H27.9z M28.4,27.3v-0.2h0.9v0.2H28.4z
				 M29.6,1.5V1.3h0.9v0.2H29.6z M30.2,27.3v-0.2h0.9v0.2H30.2z M31.4,1.5V1.3h0.9v0.2H31.4z M32,27.3v-0.2h0.9v0.2H32z M33.2,1.5
				V1.3H34v0.2H33.2z M33.7,27.3v-0.2h0.9v0.2H33.7z M34.9,1.5V1.3h0.9v0.2H34.9z M35.5,27.3v-0.2h0.9v0.2H35.5z M36.7,1.5V1.3h0.9
				v0.2H36.7z M37.2,27.3v-0.2h0.9v0.2H37.2z M38.5,1.5V1.3h0.3c0.2,0,0.4,0,0.6,0.1l-0.1,0.2c-0.2-0.1-0.3-0.1-0.5-0.1H38.5z
				 M39,27.1c0.3,0,0.5-0.1,0.8-0.3l0.1,0.2c-0.3,0.2-0.6,0.3-0.9,0.3L39,27.1z M40,2l0.1-0.2c0.2,0.2,0.4,0.4,0.6,0.6l-0.2,0.1
				C40.4,2.4,40.2,2.2,40,2z M40.4,26.2c0.2-0.2,0.3-0.4,0.6-0.7l0.2,0.1c-0.2,0.3-0.4,0.5-0.6,0.7L40.4,26.2z M41.1,3.4l0.2-0.1
				L41.8,4l-0.2,0.1L41.1,3.4z M41.4,24.8l0.5-0.7l0.2,0.1l-0.5,0.7L41.4,24.8z M42.1,4.9l0.2-0.1l0.5,0.7l-0.2,0.1L42.1,4.9z
				 M42.4,23.3l0.5-0.7l0.2,0.1l-0.5,0.7L42.4,23.3z M43,6.3l0.2-0.1L43.7,7l-0.2,0.1L43,6.3z M43.4,21.8l0.5-0.7l0.2,0.1L43.6,22
				L43.4,21.8z M44,7.8l0.2-0.1l0.5,0.7l-0.2,0.1L44,7.8z M44.3,20.4l0.5-0.7l0.2,0.1l-0.5,0.7L44.3,20.4z M44.9,9.3l0.2-0.1
				l0.5,0.7l-0.2,0.1L44.9,9.3z M45.3,18.9l0.5-0.7l0.2,0.1L45.5,19L45.3,18.9z M45.9,10.8l0.2-0.1l0.5,0.7l-0.2,0.1L45.9,10.8z
				 M46.3,17.4l0.5-0.7l0.2,0.1l-0.5,0.7L46.3,17.4z M46.8,12.3l0.2-0.1l0.5,0.7l-0.2,0.1L46.8,12.3z M47.2,15.9l0.5-0.7l0.2,0.1
				L47.4,16L47.2,15.9z M47.7,13.8l0.2-0.1l0.5,0.8l-0.1,0.1l-0.1-0.1l-0.1,0L47.7,13.8z"/>
		</g>
		<g>
			<circle fill="#FFFFFF" cx="44.4" cy="14.4" r="1.5"/>
			<path fill="#16347A" d="M44.4,16.3c-1.1,0-2-0.9-2-2c0-1.1,0.9-2,2-2c1.1,0,2,0.9,2,2C46.4,15.4,45.5,16.3,44.4,16.3z M44.4,13.3
				c-0.6,0-1.1,0.5-1.1,1.1c0,0.6,0.5,1.1,1.1,1.1c0.6,0,1.1-0.5,1.1-1.1C45.5,13.8,45,13.3,44.4,13.3z"/>
		</g>
		<g>
			<path fill="#FFDDD8" d="M2.4,25.4v-0.5h0.2v0.5c0,0.1,0,0.2,0,0.3l-0.2,0C2.5,25.7,2.4,25.5,2.4,25.4z M2.4,24v-0.9h0.2V24H2.4z
				 M2.4,22.2v-0.9h0.2v0.9H2.4z M2.4,20.5v-0.9h0.2v0.9H2.4z M2.4,18.7v-0.9h0.2v0.9H2.4z M2.4,16.9V16h0.2v0.9H2.4z M2.4,15.2
				v-0.9h0.2v0.9H2.4z M2.4,13.4v-0.9h0.2v0.9H2.4z M2.4,11.6v-0.9h0.2v0.9H2.4z M2.4,9.9V9h0.2v0.9H2.4z M2.4,8.1V7.2h0.2v0.9H2.4z
				 M2.4,6.3V5.4h0.2v0.9H2.4z M2.4,4.6V3.7h0.2v0.9H2.4z M2.5,2.8C2.6,2.5,2.7,2.2,3,2l0.2,0.2C2.9,2.3,2.8,2.6,2.7,2.8L2.5,2.8z
				 M2.9,26.6l0.2-0.2c0.2,0.2,0.4,0.3,0.7,0.4l-0.1,0.2C3.4,27,3.1,26.8,2.9,26.6z M3.8,1.5c0.1,0,0.3,0,0.4,0h0.5v0.2H4.2
				c-0.1,0-0.2,0-0.3,0L3.8,1.5z M4.6,27.1v-0.2h0.9v0.2H4.6z M5.6,1.7V1.5h0.9v0.2H5.6z M6.4,27.1v-0.2h0.9v0.2H6.4z M7.3,1.7V1.5
				h0.9v0.2H7.3z M8.2,27.1v-0.2H9v0.2H8.2z M9.1,1.7V1.5H10v0.2H9.1z M9.9,27.1v-0.2h0.9v0.2H9.9z M10.9,1.7V1.5h0.9v0.2H10.9z
				 M11.7,27.1v-0.2h0.9v0.2H11.7z M12.6,1.7V1.5h0.9v0.2H12.6z M13.5,27.1v-0.2h0.9v0.2H13.5z M14.4,1.7V1.5h0.9v0.2H14.4z
				 M15.2,27.1v-0.2h0.9v0.2H15.2z M16.2,1.7V1.5h0.9v0.2H16.2z M17,27.1v-0.2h0.9v0.2H17z M17.9,1.7V1.5h0.9v0.2H17.9z M18.8,27.1
				v-0.2h0.9v0.2H18.8z M19.7,1.7V1.5h0.9v0.2H19.7z M20.5,27.1v-0.2h0.9v0.2H20.5z M21.5,1.7V1.5h0.9v0.2H21.5z M22.3,27.1v-0.2
				h0.9v0.2H22.3z M23.2,1.7V1.5h0.9v0.2H23.2z M24,27.1v-0.2h0.9v0.2H24z M25,1.7V1.5h0.9v0.2H25z M25.8,27.1v-0.2h0.9v0.2H25.8z
				 M26.8,1.7V1.5h0.9v0.2H26.8z M27.6,27.1v-0.2h0.9v0.2H27.6z M28.5,1.7V1.5h0.9v0.2H28.5z M29.3,27.1v-0.2h0.9v0.2H29.3z
				 M30.3,1.7V1.5h0.9v0.2H30.3z M31.1,27.1v-0.2H32v0.2H31.1z M32.1,1.7V1.5H33v0.2H32.1z M32.9,27.1v-0.2h0.9v0.2H32.9z M33.8,1.7
				V1.5h0.9v0.2H33.8z M34.6,27.1v-0.2h0.9v0.2H34.6z M35.6,1.7V1.5h0.9v0.2H35.6z M36.4,27.1v-0.2h0.9v0.2H36.4z M37.4,1.7V1.5h0.9
				v0.2H37.4z M38.2,27.1v-0.2h0.6c0.1,0,0.2,0,0.3,0l0,0.2c-0.1,0-0.2,0-0.3,0H38.2z M38.8,1.7V1.5c0.3,0,0.6,0.1,0.9,0.2l-0.1,0.2
				C39.3,1.8,39,1.7,38.8,1.7z M39.8,26.6c0.2-0.1,0.4-0.3,0.6-0.6l0.2,0.1c-0.2,0.3-0.4,0.5-0.7,0.6L39.8,26.6z M40.2,2.5l0.2-0.2
				C40.6,2.5,40.8,2.7,41,3l-0.2,0.1C40.6,2.8,40.4,2.6,40.2,2.5z M40.9,25.3l0.5-0.7l0.2,0.1l-0.5,0.7L40.9,25.3z M41.3,3.8
				l0.2-0.1l0.5,0.7l-0.2,0.1L41.3,3.8z M41.9,23.8l0.5-0.7l0.2,0.1l-0.5,0.7L41.9,23.8z M42.2,5.3l0.2-0.1L42.9,6l-0.2,0.1
				L42.2,5.3z M42.9,22.3l0.5-0.7l0.2,0.1l-0.5,0.7L42.9,22.3z M43.1,6.8l0.2-0.1l0.5,0.7l-0.2,0.1L43.1,6.8z M43.8,20.8l0.5-0.7
				l0.2,0.1L44,21L43.8,20.8z M44.1,8.3l0.2-0.1L44.8,9l-0.2,0.1L44.1,8.3z M44.8,19.4l0.5-0.7l0.2,0.1L45,19.5L44.8,19.4z M45,9.8
				l0.2-0.1l0.5,0.7l-0.2,0.1L45,9.8z M45.8,17.9l0.5-0.7l0.2,0.1L45.9,18L45.8,17.9z M46,11.3l0.2-0.1l0.5,0.7l-0.2,0.1L46,11.3z
				 M46.7,16.4l0.5-0.7l0.2,0.1l-0.5,0.7L46.7,16.4z M46.9,12.8l0.2-0.1l0.5,0.7l-0.2,0.1L46.9,12.8z M47.7,14.9l0.3-0.5l-0.1-0.2
				l0.2-0.1l0.2,0.3L47.9,15L47.7,14.9z"/>
		</g>
	</g>
</g>
</svg>
