<?xml version="1.0" encoding="utf-8"?>
<!-- Generator: Adobe Illustrator 18.1.1, SVG Export Plug-In . SVG Version: 6.00 Build 0)  -->
<svg version="1.1" id="圖層_1" xmlns="http://www.w3.org/2000/svg" xmlns:xlink="http://www.w3.org/1999/xlink" x="0px" y="0px"
	 viewBox="0 0 53 53" enable-background="new 0 0 53 53" xml:space="preserve">
<path fill="#FFFFFF" d="M47,39V18.4c0-0.4-0.3-0.8-0.8-0.8c-0.4,0-0.8,0.3-0.8,0.8v20.2c-2.4-0.4-4.9,0.5-6.5,2.6
	c0,0-0.1,0.1-0.1,0.1c0,0-0.1,0.1-0.1,0.1c0,0.1-0.1,0.1-0.1,0.2c0,0-0.1,0.1-0.1,0.1c0,0.1-0.1,0.1-0.1,0.2c0,0,0,0.1-0.1,0.1
	c0,0.1-0.1,0.1-0.1,0.2c0,0,0,0.1-0.1,0.1c0,0.1-0.1,0.1-0.1,0.2c0,0,0,0.1-0.1,0.1c0,0.1-0.1,0.1-0.1,0.2c0,0,0,0.1-0.1,0.1
	c0,0.1,0,0.1-0.1,0.2c0,0,0,0.1,0,0.1c0,0.1,0,0.1-0.1,0.2c0,0,0,0.1,0,0.1c0,0.1,0,0.1-0.1,0.2c0,0,0,0.1,0,0.1
	c0,0.1-0.1,0.2-0.1,0.3c0,0,0,0,0,0c0,0.1,0,0.2-0.1,0.3c0,0,0,0.1,0,0.1c0,0.1,0,0.1,0,0.2H3.5c-0.3,0-0.5-0.2-0.5-0.5V13.7h6.5
	c0.4,0,0.8-0.3,0.8-0.8c0-0.4-0.3-0.8-0.8-0.8H3V6.6c0-0.3,0.2-0.5,0.5-0.5h5.6v1.1c0,1.2,0.9,2.1,2.1,2.1c1.2,0,2.1-0.9,2.1-2.1
	V6.1h21.8v1.1c0,1.2,0.9,2.1,2.1,2.1c1.2,0,2.1-0.9,2.1-2.1V6.1h5.6c0.3,0,0.5,0.2,0.5,0.5v5.6H12.3c-0.4,0-0.8,0.3-0.8,0.8
	c0,0.4,0.3,0.8,0.8,0.8h33.2v1.9c0,0.4,0.3,0.8,0.8,0.8c0.4,0,0.8-0.3,0.8-0.8V6.6c0-1.1-0.9-2-2-2h-5.6V2.3c0-1.2-0.9-2.1-2.1-2.1
	c-1.2,0-2.1,0.9-2.1,2.1v2.2H13.3V2.3c0-1.2-0.9-2.1-2.1-2.1c-1.2,0-2.1,0.9-2.1,2.1v2.2H3.5c-1.1,0-2,0.9-2,2v37.7c0,1.1,0.9,2,2,2
	l33.9,0c0.4,3.5,3.4,6.3,7,6.3c3.9,0,7-3.2,7-7C51.4,42.6,49.6,40.1,47,39z M36.6,2.3c0-0.3,0.3-0.6,0.6-0.6c0.3,0,0.6,0.3,0.6,0.6
	v4.9c0,0.3-0.3,0.6-0.6,0.6c-0.3,0-0.6-0.3-0.6-0.6V2.3z M10.7,2.3c0-0.3,0.3-0.6,0.6-0.6c0.3,0,0.6,0.3,0.6,0.6v4.9
	c0,0.3-0.3,0.6-0.6,0.6c-0.3,0-0.6-0.3-0.6-0.6V2.3z M44.4,51.1c-3,0-5.5-2.5-5.5-5.5c0-3.1,2.6-5.6,5.8-5.5c0.1,0,0.2,0,0.3,0
	c0.1,0,0.2,0,0.3,0c0,0,0.2,0,0.2,0c0.1,0,0.2,0,0.3,0.1c0,0,0,0,0.1,0c2.4,0.6,4.1,2.8,4.1,5.3C49.9,48.6,47.4,51.1,44.4,51.1z
	 M47.3,43.8c-0.3-0.3-0.8-0.2-1.1,0.1l-2.3,2.6l-1.3-1.3c-0.3-0.3-0.8-0.3-1.1,0c-0.3,0.3-0.3,0.8,0,1.1l1.9,1.8
	c0.1,0.1,0.3,0.2,0.5,0.2l0,0c0.2,0,0.4-0.1,0.5-0.3l2.8-3.2C47.6,44.6,47.6,44.1,47.3,43.8z M24.7,21.1c-0.3-0.2-0.7-0.2-1,0
	L20,24.3c-0.3,0.2-0.3,0.6-0.2,0.9l1.8,4c0.1,0.3,0.4,0.4,0.7,0.4h3.7c0.3,0,0.6-0.2,0.7-0.4l1.8-4c0.1-0.3,0.1-0.7-0.2-0.9
	L24.7,21.1z M25.6,28.1h-2.7v0l-1.4-3l2.7-2.4l2.7,2.4L25.6,28.1z M32.2,32.1c1.2-1.5,2-3.4,2.2-4.9c0-0.1,0-0.2,0-0.3
	c0-0.1,0-0.3,0-0.4c0-0.1,0-0.2,0-0.3c0-0.1,0-0.3,0-0.4c0-0.1,0-0.3,0-0.4c0-0.1,0-0.3,0-0.3c0-0.1,0-0.3,0-0.4
	c0-0.1,0-0.3-0.1-0.4c0-0.2-0.1-0.3-0.1-0.4c-0.1-0.3-0.1-0.5-0.2-0.8c-0.3-1.1-0.8-2.1-1.4-3c0,0,0,0,0-0.1
	c-1.3-1.8-3.1-3.2-5.3-3.9c0,0,0,0,0,0c0,0,0,0-0.1,0c-0.1,0-0.2-0.1-0.3-0.1c0,0-0.1,0-0.1,0c-0.1,0-0.2,0-0.2-0.1c0,0-0.1,0-0.1,0
	c-0.1,0-0.2,0-0.3-0.1c0,0-0.1,0-0.1,0c-0.1,0-0.2,0-0.3-0.1c0,0,0,0-0.1,0c-0.1,0-0.2,0-0.3,0c0,0-0.1,0-0.1,0c-0.1,0-0.2,0-0.3,0
	c0,0,0,0,0,0c-0.1,0-0.2,0-0.4,0c0,0-0.1,0-0.1,0c-0.1,0-0.2,0-0.4,0c-0.1,0-0.2,0-0.4,0c0,0-0.1,0-0.1,0c-0.1,0-0.2,0-0.4,0
	c0,0,0,0,0,0c-0.1,0-0.2,0-0.3,0c0,0-0.1,0-0.1,0c-0.1,0-0.2,0-0.3,0c0,0,0,0-0.1,0c-0.1,0-0.2,0-0.3,0.1c0,0-0.1,0-0.1,0
	c-0.1,0-0.2,0-0.3,0.1c0,0-0.1,0-0.1,0c-0.1,0-0.2,0-0.2,0.1c0,0-0.1,0-0.1,0c-0.1,0-0.2,0.1-0.3,0.1c0,0,0,0-0.1,0c0,0,0,0,0,0
	c-2.2,0.7-4,2.1-5.3,3.9c0,0,0,0,0,0.1c-0.7,1-1.1,1.9-1.4,3c-0.1,0.3-0.1,0.5-0.2,0.8c0,0.1,0,0.2-0.1,0.4c0,0.1,0,0.3-0.1,0.4
	c0,0.1,0,0.3,0,0.4c0,0.1,0,0.2,0,0.3c0,0.1,0,0.3,0,0.4c0,0.1,0,0.3,0,0.4c0,0.1,0,0.3,0,0.3c0,0.2,0,0.3,0,0.4c0,0.1,0,0.3,0,0.3
	c0.2,1.6,1,3.5,2.2,5c0,0,0,0,0,0.1c1.3,1.6,3.1,2.7,5.1,3.3c0.2,0,0.3,0.1,0.5,0.1c0.1,0,0.3,0.1,0.5,0.1c0.2,0,0.3,0.1,0.5,0.1
	c0,0,0,0,0,0c1.2,0.1,2.4,0.1,3.6-0.2c0.1,0,0,0,0.1,0c0.1,0,0.3-0.1,0.4-0.1c0.1,0,0.3-0.1,0.4-0.1c0.2-0.1,0.3-0.1,0.4-0.1
	c0.1,0,0.3-0.1,0.4-0.1c0.1-0.1,0.3-0.1,0.4-0.2c0.1-0.1,0.2-0.1,0.4-0.2c0.1-0.1,0.3-0.1,0.4-0.2c0.1-0.1,0.3-0.2,0.4-0.2
	c0.2-0.1,0.3-0.2,0.4-0.3C30.8,33.5,31.5,32.9,32.2,32.1C32.2,32.2,32.2,32.1,32.2,32.1z M32.2,22.2c0.4,1,0.7,2,0.7,3.2L31.6,24
	L32.2,22.2z M23.3,17L23.3,17c0.2,0,0.3,0,0.4,0c0,0,0,0,0,0c0.1,0,0.3,0,0.4,0h0c0.1,0,0.3,0,0.4,0c0,0,0,0,0,0c0.1,0,0.3,0,0.4,0
	c0,0,0,0,0,0c0,0,0,0,0,0l-0.9,0.6L23.3,17C23.3,17,23.3,17,23.3,17z M16.2,22.2l0.6,1.8l-1.4,1.3C15.5,24.2,15.8,23.2,16.2,22.2z
	 M18.7,32.4l1.9-0.1l0.9,1.7C20.5,33.6,19.5,33.1,18.7,32.4z M28,33.5l0.7-1.2l1.1,0.1C29.3,32.8,28.7,33.2,28,33.5z M31.2,30.9
	l-2.9-0.2c-0.3,0-0.6,0.1-0.7,0.4l-1.7,3.1c-0.8,0.2-1.6,0.2-2.4,0.1l-1.8-3.2c-0.1-0.3-0.4-0.4-0.7-0.4L17.3,31
	c-0.8-1-1.4-2.3-1.6-3.6l2.6-2.6c0.2-0.2,0.3-0.5,0.2-0.8l-1.2-3.5c1-1.3,2.4-2.4,4-3l2.6,1.7c0.1,0.1,0.3,0.1,0.4,0.1
	s0.3,0,0.4-0.1l2.6-1.7c1.6,0.6,3,1.6,4,3L30,23.9c-0.1,0.3,0,0.6,0.2,0.8l2.6,2.6C32.5,28.7,32,29.9,31.2,30.9z M30.8,37.5H17.6
	c-0.4,0-0.8,0.3-0.8,0.8c0,0.4,0.3,0.8,0.8,0.8h13.2c0.4,0,0.8-0.3,0.8-0.8C31.6,37.8,31.3,37.5,30.8,37.5z M17.6,40.1
	c-0.4,0-0.8,0.3-0.8,0.8c0,0.4,0.3,0.8,0.8,0.8h13.2c0.4,0,0.8-0.3,0.8-0.8c0-0.4-0.3-0.8-0.8-0.8H17.6z"/>
</svg>
