<?xml version="1.0" encoding="utf-8"?>
<!-- Generator: Adobe Illustrator 18.1.1, SVG Export Plug-In . SVG Version: 6.00 Build 0)  -->
<svg version="1.1" id="圖層_1" xmlns="http://www.w3.org/2000/svg" xmlns:xlink="http://www.w3.org/1999/xlink" x="0px" y="0px"
	 width="27.7px" height="37.7px" viewBox="0 0 27.7 37.7" enable-background="new 0 0 27.7 37.7" xml:space="preserve">
<g>
	<linearGradient id="SVGID_1_" gradientUnits="userSpaceOnUse" x1="13.85" y1="0.4782" x2="13.85" y2="40.87">
		<stop  offset="0" style="stop-color:#FBFCFC"/>
		<stop  offset="0.4174" style="stop-color:#F9FAFA"/>
		<stop  offset="0.5678" style="stop-color:#F2F3F3"/>
		<stop  offset="0.6749" style="stop-color:#E7E8E8"/>
		<stop  offset="0.7616" style="stop-color:#D6D7D7"/>
		<stop  offset="0.8359" style="stop-color:#C0C1C1"/>
		<stop  offset="0.9015" style="stop-color:#A5A5A5"/>
		<stop  offset="0.9595" style="stop-color:#868686"/>
		<stop  offset="1" style="stop-color:#6B6B6B"/>
	</linearGradient>
	<path fill="url(#SVGID_1_)" stroke="#FFFFFF" stroke-width="0.5" stroke-miterlimit="10" d="M21.4,37.1H6.3c-3.2,0-5.8-2.6-5.8-5.8
		V6.2c0-4.7,2.6-5.8,5.8-5.8h15.2c3.2,0,5.8,1.4,5.8,5.8v25.1C27.2,34.6,24.6,37.1,21.4,37.1z"/>
	<g opacity="0.8">
		<g>
			
				<linearGradient id="SVGID_2_" gradientUnits="userSpaceOnUse" x1="13840.1367" y1="-492.114" x2="13866.4131" y2="-492.114" gradientTransform="matrix(1 0 0 1 -13839.4248 510.7284)">
				<stop  offset="0" style="stop-color:#D6D7D9"/>
				<stop  offset="8.040637e-002" style="stop-color:#E6E7E8"/>
				<stop  offset="0.1869" style="stop-color:#F4F5F5"/>
				<stop  offset="0.3187" style="stop-color:#FDFDFD"/>
				<stop  offset="0.5495" style="stop-color:#FFFFFF"/>
				<stop  offset="0.8311" style="stop-color:#FBFBFC"/>
				<stop  offset="1" style="stop-color:#F5F5F6"/>
			</linearGradient>
			<polygon fill="url(#SVGID_2_)" points="0.7,18.8 0.7,18.4 27,18.4 27,18.8 0.7,18.8 			"/>
		</g>
		<g>
			
				<linearGradient id="SVGID_3_" gradientUnits="userSpaceOnUse" x1="13840.1367" y1="-492.4765" x2="13866.4131" y2="-492.4765" gradientTransform="matrix(1 0 0 1 -13839.4248 510.7284)">
				<stop  offset="0" style="stop-color:#D7D8DA"/>
				<stop  offset="2.232942e-002" style="stop-color:#BDBEC0"/>
				<stop  offset="6.364429e-002" style="stop-color:#939495"/>
				<stop  offset="0.1084" style="stop-color:#6E6F70"/>
				<stop  offset="0.1561" style="stop-color:#4F4F50"/>
				<stop  offset="0.2077" style="stop-color:#363636"/>
				<stop  offset="0.2645" style="stop-color:#222223"/>
				<stop  offset="0.3294" style="stop-color:#141515"/>
				<stop  offset="0.4094" style="stop-color:#0C0C0C"/>
				<stop  offset="0.5495" style="stop-color:#0A0A0A"/>
				<stop  offset="0.6136" style="stop-color:#0E0E0E"/>
				<stop  offset="0.673" style="stop-color:#191919"/>
				<stop  offset="0.7305" style="stop-color:#2C2C2C"/>
				<stop  offset="0.7869" style="stop-color:#464646"/>
				<stop  offset="0.8425" style="stop-color:#686868"/>
				<stop  offset="0.8974" style="stop-color:#919192"/>
				<stop  offset="0.9508" style="stop-color:#C2C2C2"/>
				<stop  offset="1" style="stop-color:#F5F5F6"/>
			</linearGradient>
			<polygon fill="url(#SVGID_3_)" points="0.7,18.4 0.7,18.1 27,18.1 27,18.4 0.7,18.4 			"/>
		</g>
	</g>
	<path opacity="0.2" d="M27,18.1V5c0-2.3-1.9-4.1-4.1-4.1h-18C2.6,0.9,0.7,2.7,0.7,5v13.1H27z"/>
	<path fill="#FFFFFF" d="M22.3,1.3H5.4C2.7,1.3,1.5,3.1,1.5,4v0.2c0-0.8,1.3-2.4,3.6-2.4h17.5c2.3,0,3.6,1.6,3.6,2.4V4
		C26.2,3.1,25,1.3,22.3,1.3z"/>
</g>
</svg>
