<?xml version="1.0" encoding="utf-8"?>
<!-- Generator: Adobe Illustrator 18.1.1, SVG Export Plug-In . SVG Version: 6.00 Build 0)  -->
<svg version="1.1" id="圖層_1" xmlns="http://www.w3.org/2000/svg" xmlns:xlink="http://www.w3.org/1999/xlink" x="0px" y="0px"
	 viewBox="0 0 53 53" enable-background="new 0 0 53 53" xml:space="preserve">
<path fill="#FFFCC5" d="M41,7.4H11.9c-5.8,0-10.5,4.7-10.5,10.5v17.1c0,5.8,4.7,10.5,10.5,10.5H41c5.8,0,10.5-4.7,10.5-10.5V17.9
	C51.4,12.1,46.8,7.4,41,7.4z M50.3,34.9c0,5.1-4.2,9.3-9.3,9.3H11.9c-5.1,0-9.3-4.2-9.3-9.3V17.9c0-5.1,4.2-9.3,9.3-9.3H41
	c5.1,0,9.3,4.2,9.3,9.3V34.9z M36.8,17.9c0.1,0.4,0.6,0.8,1,0.8c0.4,0,0.8-0.3,1-0.8l1.9-5.5c0.1-0.4-0.1-0.8-0.5-0.8
	c-0.4,0-0.9,0.4-1,0.8L38,16.2c-0.1,0.4-0.3,0.4-0.5,0l-1.1-3.8c-0.1-0.4-0.6-0.8-1-0.8c-0.4,0-0.7,0.3-0.5,0.8L36.8,17.9z M13,19.1
	c0.5,0,0.8-0.4,0.8-0.9v-1.7c0-0.5,0.4-0.9,0.9-0.9H16c0.5,0,0.9,0.4,0.9,0.9v1.7c0,0.5,0.4,0.9,0.8,0.9c0.5,0,0.8-0.4,0.8-0.9V12
	c0-0.5-0.4-0.9-0.8-0.9c-0.5,0-0.8,0.4-0.8,0.9v1.2c0,0.5-0.4,0.9-0.9,0.9h-1.3c-0.5,0-0.9-0.4-0.9-0.9V12c0-0.5-0.4-0.9-0.8-0.9
	c-0.5,0-0.8,0.4-0.8,0.9v6.1C12.1,18.7,12.5,19.1,13,19.1z M8.4,40h13.2V20.8H8.4V40z M9.6,21.9h10.9v16.9H9.6V21.9z M31.4,40h13.2
	V20.8H31.4V40z M32.6,21.9h10.9v16.9H32.6V21.9z M16.5,25.3h-3.5c-0.3,0-0.5,0.1-0.7,0.4c-0.2,0.2-0.3,0.6-0.3,1.1v7.1
	c0,0.5,0.1,0.8,0.3,1.1c0.2,0.3,0.4,0.4,0.7,0.4h3.5c0.3,0,0.6-0.1,0.8-0.4c0.2-0.2,0.3-0.5,0.3-1.1v-7.1c0-0.5-0.1-0.8-0.3-1.1
	C17.2,25.4,16.9,25.3,16.5,25.3z M16,33.7c0,0.2,0,0.3-0.1,0.5c-0.1,0.1-0.2,0.2-0.3,0.2h-1.4c-0.2,0-0.3-0.1-0.4-0.2
	c-0.1-0.2-0.1-0.3-0.1-0.5v-6.9c0-0.1,0-0.3,0.1-0.4c0.1-0.2,0.2-0.2,0.4-0.2h1.4c0.2,0,0.3,0.1,0.4,0.2c0.1,0.2,0.1,0.3,0.1,0.5
	V33.7z M39.9,25.3h-3.5c-0.3,0-0.5,0.1-0.7,0.4c-0.2,0.2-0.3,0.6-0.3,1.1v7.1c0,0.5,0.1,0.8,0.3,1.1c0.2,0.3,0.4,0.4,0.7,0.4h3.5
	c0.3,0,0.6-0.1,0.8-0.4c0.2-0.2,0.3-0.5,0.3-1.1v-7.1c0-0.5-0.1-0.8-0.3-1.1C40.5,25.4,40.2,25.3,39.9,25.3z M39.3,33.7
	c0,0.2,0,0.3-0.1,0.5c-0.1,0.1-0.2,0.2-0.3,0.2h-1.4c-0.2,0-0.3-0.1-0.4-0.2C37,34.1,37,33.9,37,33.7v-6.9c0-0.1,0-0.3,0.1-0.4
	c0.1-0.2,0.2-0.2,0.4-0.2h1.4c0.2,0,0.3,0.1,0.4,0.2c0.1,0.2,0.1,0.3,0.1,0.5V33.7z"/>
</svg>
