<?xml version="1.0" encoding="utf-8"?>
<!-- Generator: Adobe Illustrator 18.1.1, SVG Export Plug-In . SVG Version: 6.00 Build 0)  -->
<svg version="1.1" id="圖層_1" xmlns="http://www.w3.org/2000/svg" xmlns:xlink="http://www.w3.org/1999/xlink" x="0px" y="0px"
	 width="436.4px" height="19.6px" viewBox="0 0 436.4 19.6" enable-background="new 0 0 436.4 19.6" xml:space="preserve">
<g>
	<path fill="#D80D18" d="M259.7,19.6L263.1,0h15.6c0,0,7.7,7.4-4.6,12.1l4.8,7.5h-4.7l-2.9-4.4c0,0-1.4-2.8-5.1,0.2l0.5-2.6
		c0,0,13.7-6.9,8.2-10.7h-8.1l-3.1,17.6H259.7z"/>
	<path fill="#D80D18" d="M288.6,0c0,0-3.8,11.9-2.5,14.3c1.2,2.3,6.2,4.6,8.4,0C295.2,12.8,297,0,297,0h2.7c0,0-1.5,11.3-2.7,15.4
		c-0.8,2.5-7,7.1-13,1.6c0,0-2.7-2.6-0.7-9.4l2.1-7.6H288.6z"/>
	<path fill="#D80D18" d="M316.4,3.2c0,0-6.3-2.7-9,0c0,0-2.7,4,7.1,5.7c0,0,6.7,3.7,1.3,8.2c0,0-5.1,5.2-14.8,0.6
		c0,0,0.5-1.3,1.7-1.7c0,0,4.9,3.4,9.2,0.9c0,0,3.4-3.5-0.7-4.7c0,0-8.6-2.5-7-7.8c0,0,0.8-4.3,5.7-4.3c0,0,6.8-0.8,8.3,1.5
		C318.2,1.6,318.6,3.9,316.4,3.2z"/>
	<path fill="#D80D18" d="M334.6,3.2c0,0-6.3-2.7-9,0c0,0-2.7,4,7.1,5.7c0,0,6.7,3.7,1.3,8.2c0,0-5.1,5.2-14.8,0.6
		c0,0,0.5-1.3,1.7-1.7c0,0,4.9,3.4,9.2,0.9c0,0,3.5-3.5-0.7-4.7c0,0-8.6-2.5-7-7.8c0,0,0.8-4.3,5.7-4.3c0,0,6.8-0.8,8.3,1.5
		C336.4,1.6,336.8,3.9,334.6,3.2z"/>
	<polygon fill="#D80D18" points="340.9,0 337.5,19.6 342.6,19.6 346,0 	"/>
	<path fill="#D80D18" d="M357,14c0,0-8.3,5.8-5.9-1.2l7-9.4l3.5,15.4h4.2l-4-18.3c0,0-2.2-1.1-3.8,0L348,11.9c0,0-7.3,10.5,3.8,6.9
		l7-3.5C358.9,15.4,359.6,13.6,357,14z"/>
	<path fill="#D80D18" d="M376.4,7.7c0,0,0.7-7.6,6.7-4.6c0,0,4.3,2-0.5,6.8l-11.3,7.7l-0.3,1.9h16.1l0.5-3h-9.1
		c0,0,9.1-4.3,10.6-8.6c0,0,2.4-7.4-3.6-7.5c0,0-7-2.4-10.5,3.1l-0.8,4.6C374.3,8.2,375.3,9,376.4,7.7z"/>
	<path fill="#D80D18" d="M408.6,4.4c-1.3-6.5-10.3-3.8-10.3-3.8c-7,3.3-7,13.6-7,13.6c-0.1,1.9,1.9,3.4,1.9,3.4
		c6.8,5,13.3-0.7,13.3-0.7C411.2,9.9,408.6,4.4,408.6,4.4z M403.9,14.2c-3.6,4.1-6.9,1.6-6.9,1.6c-4.2-6.9,3.8-13.5,3.8-13.5
		c2-0.6,2.9,0.4,2.9,0.4C406.6,4.9,403.9,14.2,403.9,14.2z"/>
	<polygon fill="#D80D18" points="412.7,3.5 415.2,2.9 412.3,19.6 416.2,19.6 419.6,0 416.2,1.4 412.9,2.4 	"/>
	<path fill="#D80D18" d="M432.5,9.3C438,8.1,436,2,436,2c-1.5-3.2-8.7-1.6-8.7-1.6c-8.1,4-1.8,8.9-1.8,8.9
		c-10.3,3.4-2.9,9.1-2.9,9.1c6.2,3.3,11.7-1.1,11.7-1.1C439.3,10.8,432.5,9.3,432.5,9.3z M429.2,17.4c0,0-6.8,1.9-4.4-4.2
		c0,0,1.1-2.6,2.9-3.2l0.2-1.8c0,0-2.7-3.1,0.6-5.6c0,0,3.5-1.3,4,1.6c0,0,0.2,2.7-2.2,4c0,0-0.7,2.4,1.2,2.3
		C431.5,10.4,433.4,15.9,429.2,17.4z"/>
	<path d="M36.5,19.7h-4L35.8,0h12.2l-0.6,3.3h-8.2L38.5,8h7.7l-0.6,3.3h-7.7L36.5,19.7z"/>
	<path d="M54.3,0L51,19.7h-4.1L50.2,0H54.3z"/>
	<path d="M58.4,19.7h-4L57.7,0h12.2l-0.6,3.3h-8.2L60.3,8H68l-0.6,3.3h-7.7L58.4,19.7z"/>
	<path d="M71.3,19.6h-3.9L77.6,0h4.8l3.3,19.6h-4.1l-0.7-4.1h-7.5L71.3,19.6z M75,12.2h5.4l-1.1-8.4h-0.1L75,12.2z"/>
	<path d="M101.5,14.7L107.7,0h4.6l0.8,14.7h0.1L118.8,0h3.8l-8.2,19.6h-4.5L109,4.7l-6.2,14.9h-4.6L96.9,0h4.2L101.5,14.7z"/>
	<path d="M129.7,19.6c-5.9-0.1-8.4-3.3-7.4-9.6c1.3-6.4,4.9-9.7,10.9-10c5.8,0.2,8.2,3.5,7.3,10C139.2,16.3,135.6,19.5,129.7,19.6z
		 M132.7,3c-3.3,0-5.3,2.3-6.1,7c-0.9,4.7,0.3,6.9,3.6,6.9c3.1,0,5.1-2.3,5.9-6.9C137,5.3,135.8,3,132.7,3z"/>
	<path d="M146.9,11.8l-1.3,7.9h-4.1L144.8,0h8.1c4.3,0.1,6.2,1.8,5.7,5.1c-0.5,2.5-2.1,4.1-4.7,4.8l0,0.1c1.8,0.2,2.7,1.7,2.6,4.4
		c0,0.2,0,0.4,0,0.6c-0.3,2.4-0.2,4,0.2,4.7h-4.4c-0.1-1.7-0.1-3.5,0.2-5.3c0.1-1.7-0.4-2.5-1.3-2.5H146.9z M148.4,3.3l-0.9,5.2h3.4
		c1.8,0,3-0.9,3.3-2.8c0.2-1.6-0.6-2.4-2.5-2.4H148.4z"/>
	<path d="M171.4,19.6h-12.2L162.6,0h4l-2.8,16.3h8.2L171.4,19.6z"/>
	<path d="M173.7,19.6L177,0h6.5c6.3,0.1,8.9,3.4,7.9,9.8c-1.2,6.5-4.9,9.7-11.2,9.7H173.7z M180.5,3.3l-2.2,13h2.2
		c3.7,0.1,6-2,6.6-6.5c0.8-4.4-0.6-6.6-4.4-6.6H180.5z"/>
	<path d="M217.2,6.6h-4.3c0.3-2.3-0.8-3.5-3.1-3.6c-2.3,0.1-3.9,2.5-4.8,7c-0.7,4.5,0.1,6.8,2.4,6.9c2.3-0.1,3.8-1.3,4.3-3.6h4.3
		c-1,4.2-4.1,6.3-9.1,6.4c-5.1-0.1-7.2-3.3-6.2-9.6c1.3-6.4,4.5-9.7,9.7-10C215.4,0.2,217.7,2.4,217.2,6.6z"/>
	<path d="M233.3,0h4.1l-2.1,12.2c-1,4.8-4.2,7.3-9.5,7.4c-5.4-0.1-7.7-2.6-7-7.4L220.9,0h4.1l-1.8,10.6c-1,4.3,0,6.4,3.1,6.2
		c2.9,0.2,4.6-1.8,5.2-6.2L233.3,0z"/>
	<path d="M241.7,19.6h-4L241.1,0h5.8c5.1-0.1,7.4,1.9,6.7,6c-0.8,3.8-3.3,5.8-7.6,6h-3L241.7,19.6z M244.5,3.3l-0.9,5.5
		c0.2,0,0.6,0,1.2,0.1c2.7,0.3,4.2-0.7,4.5-2.9c0.3-1.9-0.9-2.8-3.5-2.8C245.1,3.4,244.7,3.4,244.5,3.3z"/>
	
		<radialGradient id="SVGID_1_" cx="21.1922" cy="9.7477" r="8.5893" gradientTransform="matrix(1 0 0 1.0262 0 -0.1625)" gradientUnits="userSpaceOnUse">
		<stop  offset="0" style="stop-color:#065B9A"/>
		<stop  offset="0.2698" style="stop-color:#065897"/>
		<stop  offset="0.5061" style="stop-color:#054E8C"/>
		<stop  offset="0.7299" style="stop-color:#053E7A"/>
		<stop  offset="0.9448" style="stop-color:#032761"/>
		<stop  offset="1" style="stop-color:#032059"/>
	</radialGradient>
	<polygon fill="url(#SVGID_1_)" points="24.3,19.6 13.6,19.6 18.1,0.1 28.7,0.1 	"/>
	
		<radialGradient id="SVGID_2_" cx="7.0098" cy="9.7477" r="8.3541" gradientTransform="matrix(1 0 0 1.0262 0 -0.1625)" gradientUnits="userSpaceOnUse">
		<stop  offset="0" style="stop-color:#C80106"/>
		<stop  offset="0.2408" style="stop-color:#C50106"/>
		<stop  offset="0.4423" style="stop-color:#BA0105"/>
		<stop  offset="0.6296" style="stop-color:#A90105"/>
		<stop  offset="0.8084" style="stop-color:#910204"/>
		<stop  offset="0.9797" style="stop-color:#710202"/>
		<stop  offset="1" style="stop-color:#6D0202"/>
	</radialGradient>
	<polygon fill="url(#SVGID_2_)" points="9.5,19.6 0,19.6 4.5,0.1 14,0.1 	"/>
</g>
</svg>
