<?xml version="1.0" encoding="utf-8"?>
<!-- Generator: Adobe Illustrator 18.1.1, SVG Export Plug-In . SVG Version: 6.00 Build 0)  -->
<svg version="1.1" id="圖層_1" xmlns="http://www.w3.org/2000/svg" xmlns:xlink="http://www.w3.org/1999/xlink" x="0px" y="0px"
	 width="63.8px" height="30.8px" viewBox="0 0 63.8 30.8" enable-background="new 0 0 63.8 30.8" xml:space="preserve">
<g>
	<linearGradient id="SVGID_1_" gradientUnits="userSpaceOnUse" x1="31.8762" y1="30.7779" x2="31.8762" y2="0.628">
		<stop  offset="0" style="stop-color:#BA0106"/>
		<stop  offset="3.498709e-002" style="stop-color:#B00105"/>
		<stop  offset="0.1559" style="stop-color:#930204"/>
		<stop  offset="0.2757" style="stop-color:#7E0203"/>
		<stop  offset="0.3929" style="stop-color:#710202"/>
		<stop  offset="0.5044" style="stop-color:#6D0202"/>
		<stop  offset="0.6378" style="stop-color:#9C0E08"/>
		<stop  offset="0.8054" style="stop-color:#D11C0F"/>
		<stop  offset="0.9313" style="stop-color:#F32513"/>
		<stop  offset="1" style="stop-color:#FF2815"/>
	</linearGradient>
	<path fill-rule="evenodd" clip-rule="evenodd" fill="url(#SVGID_1_)" d="M0,2.3c0-0.9,1-1.6,2.2-1.6h59.5c1.2,0,2.2,0.7,2.2,1.6
		v26.9c0,0.9-1,1.7-2.2,1.7H2.2C1,30.8,0,30,0,29.1V2.3z"/>
	<path fill-rule="evenodd" clip-rule="evenodd" fill="#FF0000" d="M61.6,0H2.2C1,0,0,0.7,0,1.6v0.6c0-0.9,1-1.6,2.2-1.6h59.5
		c1.2,0,2.2,0.7,2.2,1.6V1.6C63.8,0.7,62.8,0,61.6,0z"/>
	<path opacity="0.5" fill-rule="evenodd" clip-rule="evenodd" fill="#513921" d="M2.2,30.8h59.5c1.2,0,2.2-0.7,2.2-1.7v-1.4
		c0,0.9-1,1.6-2.2,1.6H2.2C1,29.4,0,28.6,0,27.7v1.4C0,30,1,30.8,2.2,30.8z"/>
	<path opacity="0.3" fill="#FFFFFF" d="M0,24.3l15.5,5.1H0.8c0,0-0.8,0-0.8-0.2V24.3z"/>
	<polyline opacity="0.3" fill="#FFFFFF" points="0,18.5 6.5,29.4 0.1,29.4 	"/>
	<path opacity="0.3" fill="#FFFFFF" d="M63.3,5.7L47.6,0.6h14.8c0,0,0.8,0,0.8,0.2V5.7z"/>
	<polyline opacity="0.3" fill="#FFFFFF" points="63.3,11.6 56.7,0.6 63.2,0.6 	"/>
	
		<radialGradient id="SVGID_2_" cx="1505.0096" cy="-423.0535" r="2.5385" gradientTransform="matrix(25.1073 0 0 8.1502 -37791.0039 3464.9099)" gradientUnits="userSpaceOnUse">
		<stop  offset="0" style="stop-color:#FFFFFF"/>
		<stop  offset="1" style="stop-color:#FFFFFF;stop-opacity:0"/>
	</radialGradient>
	<path opacity="0.2" fill="url(#SVGID_2_)" d="M62.1,30.8l-60.4,0C0.7,30.8,0,30,0,29.1L0,1.7C0,0.7,0.7,0,1.7,0l60.4,0
		c0.9,0,1.7,0.7,1.7,1.7l0,27.5C63.8,30,63,30.8,62.1,30.8z"/>
	<g>
		<polygon fill="#FFFFFF" points="5.5,14.1 8.4,16.1 8.4,14.9 13.2,14.9 13.2,13.3 8.4,13.3 8.4,12.1 		"/>
		<path fill="#FFFFFF" d="M18.2,8.9c-2.3,0-4.6,0-6.9,0c0,1.1,0,2.1,0,3.2c-0.4,0-0.9,0-1.3,0c0-0.1,0-0.2,0-0.3c0-1.3,0-2.5,0-3.8
			c0-0.4,0.1-0.5,0.5-0.5c3.6,0,7.2,0,10.8,0c0.3,0,0.5,0.1,0.5,0.5c0,4.1,0,8.1,0,12.2c0,0.2-0.1,0.4-0.3,0.5
			c-1.6,0.8-3.2,1.6-4.8,2.4c0,0,0,0-0.1,0c0-0.8,0-1.6,0-2.5c-0.2,0-0.3,0-0.5,0c-1.8,0-3.6,0-5.5,0c-0.5,0-0.6-0.1-0.6-0.6
			c0-1.3,0-2.6,0-4c0.4,0,0.9,0,1.3,0c0,1,0,2.1,0,3.2c1.7,0,3.4,0,5.2,0c0-0.2,0-0.3,0-0.5c0-2.7,0-5.5,0-8.2
			c0-0.3,0.1-0.5,0.3-0.6C17.3,9.7,17.8,9.3,18.2,8.9C18.3,9,18.2,9,18.2,8.9z"/>
	</g>
</g>
</svg>
