<?xml version="1.0" encoding="utf-8"?>
<!-- Generator: Adobe Illustrator 18.1.1, SVG Export Plug-In . SVG Version: 6.00 Build 0)  -->
<svg version="1.1" id="圖層_1" xmlns="http://www.w3.org/2000/svg" xmlns:xlink="http://www.w3.org/1999/xlink" x="0px" y="0px"
	 viewBox="0 0 52.8 54.4" enable-background="new 0 0 52.8 54.4" xml:space="preserve">
<g>
	<g>
		<path opacity="0.2" d="M16.7,27.9c0-0.1,0-0.2,0-0.2c0-1.5-1.2-2.7-2.7-2.7c-0.2,0-0.4,0-0.5,0.1c-0.4-1.8-1.9-3.2-3.9-3.2
			c-1.6,0-3,0.9-3.6,2.3C5.7,24.1,5.4,24,5,24c-1.8,0-3.2,1.4-3.2,3.2c0,0.3,0,0.5,0.1,0.7H16.7z"/>
		<linearGradient id="SVGID_1_" gradientUnits="userSpaceOnUse" x1="1.38" y1="24.5264" x2="16.2174" y2="24.5264">
			<stop  offset="1.477800e-002" style="stop-color:#E5C996"/>
			<stop  offset="0.3448" style="stop-color:#FCFCCE;stop-opacity:0.97"/>
			<stop  offset="0.601" style="stop-color:#E8C396"/>
			<stop  offset="1" style="stop-color:#DACD9A"/>
		</linearGradient>
		<path fill="url(#SVGID_1_)" d="M16.2,27.5c0-0.1,0-0.2,0-0.2c0-1.5-1.2-2.7-2.7-2.7c-0.2,0-0.4,0-0.5,0.1
			c-0.4-1.8-1.9-3.2-3.9-3.2c-1.6,0-3,0.9-3.6,2.3c-0.3-0.1-0.7-0.2-1-0.2c-1.8,0-3.2,1.4-3.2,3.2c0,0.3,0,0.5,0.1,0.7H16.2z"/>
	</g>
	<g>
		<path opacity="0.2" d="M35.5,18.7c0-0.1,0-0.1,0-0.2c0-1.2-1-2.2-2.2-2.2c-0.2,0-0.3,0-0.4,0c-0.3-1.5-1.6-2.7-3.2-2.7
			c-1.3,0-2.5,0.8-3,1.9c-0.3-0.1-0.5-0.1-0.8-0.1c-1.5,0-2.6,1.2-2.6,2.6c0,0.2,0,0.4,0.1,0.6H35.5z"/>
		<linearGradient id="SVGID_2_" gradientUnits="userSpaceOnUse" x1="22.8052" y1="15.9068" x2="35.1505" y2="15.9068">
			<stop  offset="1.477800e-002" style="stop-color:#E5C996"/>
			<stop  offset="0.3448" style="stop-color:#FCFCCE;stop-opacity:0.97"/>
			<stop  offset="0.601" style="stop-color:#E8C396"/>
			<stop  offset="1" style="stop-color:#DACD9A"/>
		</linearGradient>
		<path fill="url(#SVGID_2_)" d="M35.1,18.4c0-0.1,0-0.1,0-0.2c0-1.2-1-2.2-2.2-2.2c-0.2,0-0.3,0-0.4,0c-0.3-1.5-1.6-2.7-3.2-2.7
			c-1.3,0-2.5,0.8-3,1.9c-0.3-0.1-0.5-0.1-0.8-0.1c-1.5,0-2.6,1.2-2.6,2.6c0,0.2,0,0.4,0.1,0.6H35.1z"/>
	</g>
	<g>
		<path fill="#CB1716" d="M29.2,20.3c-3.2,6.8-6.3,13.6-9.5,20.4h28.1c-2.2-4.7-4.4-9.4-6.6-14.1c-3.3-1.7-6.6-3.5-10-5.2
			C30.6,21,29.9,20.6,29.2,20.3"/>
		<path fill="#F2EBE3" d="M29.2,20.3c0.7,0.3,1.3,0.7,2,1c3.4,1.7,6.7,3.5,10,5.2c-2.5-5.4-5-10.7-7.5-16.1
			C32.3,13.7,30.8,17,29.2,20.3"/>
		<path fill="#E24444" d="M37.8,28.7h-1.7c0.1-0.1,0.1-0.3,0.1-0.4c0-0.4-0.4-0.8-0.8-0.8h-3c-0.4,0-0.8,0.4-0.8,0.8
			c0,0.4,0.4,0.8,0.8,0.8h0.2c-0.1,0.1-0.1,0.3-0.1,0.4c0,0.4,0.4,0.8,0.8,0.8h4.5c0.4,0,0.8-0.4,0.8-0.8
			C38.7,29,38.3,28.7,37.8,28.7"/>
		<path fill="#E24444" d="M31.4,34.1h-0.5c0.1-0.1,0.1-0.3,0.1-0.4c0-0.4-0.4-0.8-0.8-0.8h-2.6c-0.4,0-0.8,0.4-0.8,0.8
			c0,0.1,0,0.3,0.1,0.4h-0.5c-0.4,0-0.8,0.4-0.8,0.8c0,0.4,0.4,0.8,0.8,0.8h5.1c0.4,0,0.8-0.4,0.8-0.8
			C32.2,34.4,31.8,34.1,31.4,34.1"/>
		<path fill="#A21212" d="M26.3,35.7c-0.4,0-0.8-0.4-0.8-0.8c0-0.4,0.4-0.8,0.8-0.8h0.5c-0.1-0.1-0.1-0.3-0.1-0.4
			c0-0.4,0.4-0.8,0.8-0.8h2.6c0.4,0,0.8,0.4,0.8,0.8c0,0.1,0,0.3-0.1,0.4h0.5c0.4,0,0.8,0.4,0.8,0.8c0,0.4-0.4,0.8-0.8,0.8H26.3
			 M29.2,20.3c-3.2,6.8-6.3,13.6-9.5,20.4h14V30.3h-0.4c-0.4,0-0.8-0.4-0.8-0.8c0-0.1,0-0.3,0.1-0.4h-0.2c-0.4,0-0.8-0.4-0.8-0.8
			c0-0.4,0.4-0.8,0.8-0.8h1.4v-4.9c-0.8-0.4-1.7-0.9-2.5-1.3C30.6,21,29.9,20.6,29.2,20.3"/>
		<path fill="#C2BCB6" d="M33.8,10.4c-1.5,3.3-3,6.6-4.6,9.8c0.7,0.3,1.3,0.7,2,1c0.9,0.4,1.7,0.8,2.5,1.3V10.4L33.8,10.4"/>
		<path fill="#B53636" d="M33.8,27.4h-1.4c-0.4,0-0.8,0.4-0.8,0.8c0,0.4,0.4,0.8,0.8,0.8h0.2c-0.1,0.1-0.1,0.3-0.1,0.4
			c0,0.4,0.4,0.8,0.8,0.8h0.4V27.4"/>
		<path fill="#B53636" d="M30.1,32.8h-2.6c-0.4,0-0.8,0.4-0.8,0.8c0,0.1,0,0.3,0.1,0.4h-0.5c-0.4,0-0.8,0.4-0.8,0.8
			c0,0.4,0.4,0.8,0.8,0.8h5.1c0.4,0,0.8-0.4,0.8-0.8c0-0.4-0.4-0.8-0.8-0.8h-0.5c0.1-0.1,0.1-0.3,0.1-0.4
			C30.9,33.2,30.6,32.8,30.1,32.8"/>
	</g>
	<g>
		<path fill="#5E9841" d="M15.3,23.8c-2.6,5.6-5.2,11.2-7.8,16.8h23.1c-1.8-3.9-3.6-7.8-5.4-11.7c-2.7-1.4-5.4-2.9-8.3-4.3
			C16.4,24.4,15.9,24.1,15.3,23.8"/>
		<path fill="#F2EBE3" d="M15.3,23.8c0.6,0.3,1.1,0.6,1.7,0.8c2.8,1.4,5.5,2.9,8.3,4.3c-2.1-4.4-4.1-8.8-6.2-13.3
			C17.8,18.4,16.6,21.1,15.3,23.8"/>
		<path fill="#75AA55" d="M22.4,30.8H21c0.1-0.1,0.1-0.2,0.1-0.3c0-0.4-0.3-0.7-0.7-0.7h-2.5c-0.4,0-0.7,0.3-0.7,0.7
			c0,0.4,0.3,0.7,0.7,0.7h0.2c-0.1,0.1-0.1,0.2-0.1,0.3c0,0.4,0.3,0.7,0.7,0.7h3.7c0.4,0,0.7-0.3,0.7-0.7
			C23.1,31.1,22.8,30.8,22.4,30.8"/>
		<path fill="#75AA55" d="M17.1,35.2h-0.4c0.1-0.1,0.1-0.2,0.1-0.3c0-0.4-0.3-0.7-0.7-0.7h-2.1c-0.4,0-0.7,0.3-0.7,0.7
			c0,0.1,0,0.2,0.1,0.3h-0.4c-0.4,0-0.7,0.3-0.7,0.7c0,0.4,0.3,0.7,0.7,0.7h4.2c0.4,0,0.7-0.3,0.7-0.7
			C17.7,35.5,17.4,35.2,17.1,35.2"/>
		<path fill="#4B7A34" d="M12.9,36.6c-0.4,0-0.7-0.3-0.7-0.7c0-0.4,0.3-0.7,0.7-0.7h0.4c-0.1-0.1-0.1-0.2-0.1-0.3
			c0-0.4,0.3-0.7,0.7-0.7H16c0.4,0,0.7,0.3,0.7,0.7c0,0.1,0,0.2-0.1,0.3h0.4c0.4,0,0.7,0.3,0.7,0.7c0,0.4-0.3,0.7-0.7,0.7H12.9
			 M15.3,23.8c-2.6,5.6-5.2,11.2-7.8,16.8h11.6v-8.6h-0.4c-0.4,0-0.7-0.3-0.7-0.7c0-0.1,0-0.2,0.1-0.3h-0.2c-0.4,0-0.7-0.3-0.7-0.7
			c0-0.4,0.3-0.7,0.7-0.7h1.1v-4c-0.7-0.4-1.4-0.7-2.1-1.1C16.4,24.4,15.9,24.1,15.3,23.8"/>
		<path fill="#C2BCB6" d="M19.1,15.7c-1.3,2.7-2.5,5.4-3.8,8.1c0.6,0.3,1.1,0.6,1.7,0.8c0.7,0.3,1.4,0.7,2.1,1.1V15.7L19.1,15.7"/>
		<path fill="#5E8844" d="M19.1,29.8h-1.1c-0.4,0-0.7,0.3-0.7,0.7c0,0.4,0.3,0.7,0.7,0.7h0.2c-0.1,0.1-0.1,0.2-0.1,0.3
			c0,0.4,0.3,0.7,0.7,0.7h0.4V29.8"/>
		<path fill="#5E8844" d="M16,34.2h-2.1c-0.4,0-0.7,0.3-0.7,0.7c0,0.1,0,0.2,0.1,0.3h-0.4c-0.4,0-0.7,0.3-0.7,0.7
			c0,0.4,0.3,0.7,0.7,0.7h4.2c0.4,0,0.7-0.3,0.7-0.7c0-0.4-0.3-0.7-0.7-0.7h-0.4c0.1-0.1,0.1-0.2,0.1-0.3
			C16.7,34.5,16.4,34.2,16,34.2"/>
	</g>
	<g>
		<path opacity="0.2" d="M27.2,42.4c0-0.1,0-0.2,0-0.3c0-2.1-1.7-3.8-3.8-3.8c-0.3,0-0.5,0-0.7,0.1c-0.5-2.6-2.7-4.5-5.4-4.5
			c-2.2,0-4.2,1.3-5,3.2c-0.4-0.1-0.9-0.2-1.4-0.2c-2.5,0-4.5,2-4.5,4.5c0,0.4,0,0.7,0.1,1H27.2z"/>
		<linearGradient id="SVGID_3_" gradientUnits="userSpaceOnUse" x1="6.078" y1="37.861" x2="26.9806" y2="37.861">
			<stop  offset="1.477800e-002" style="stop-color:#E5C996"/>
			<stop  offset="0.3448" style="stop-color:#FCFCCE;stop-opacity:0.97"/>
			<stop  offset="0.601" style="stop-color:#E8C396"/>
			<stop  offset="1" style="stop-color:#DACD9A"/>
		</linearGradient>
		<path fill="url(#SVGID_3_)" d="M27,42.1c0-0.1,0-0.2,0-0.3c0-2.1-1.7-3.8-3.8-3.8c-0.3,0-0.5,0-0.7,0.1c-0.5-2.6-2.7-4.5-5.4-4.5
			c-2.2,0-4.2,1.3-5,3.2c-0.4-0.1-0.9-0.2-1.4-0.2c-2.5,0-4.5,2-4.5,4.5c0,0.4,0,0.7,0.1,1H27z"/>
	</g>
	<g>
		<path opacity="0.2" d="M51.4,44c0-0.1,0-0.3,0-0.4c0-2.5-2.1-4.6-4.6-4.6c-0.3,0-0.6,0-0.9,0.1c-0.6-3.1-3.4-5.5-6.7-5.5
			c-2.7,0-5.1,1.6-6.2,4c-0.5-0.2-1.1-0.3-1.7-0.3c-3,0-5.5,2.4-5.5,5.5c0,0.4,0.1,0.8,0.1,1.2H51.4z"/>
		<linearGradient id="SVGID_4_" gradientUnits="userSpaceOnUse" x1="25.0377" y1="37.979" x2="50.5562" y2="37.979">
			<stop  offset="1.477800e-002" style="stop-color:#E5C996"/>
			<stop  offset="0.3448" style="stop-color:#FCFCCE;stop-opacity:0.97"/>
			<stop  offset="0.601" style="stop-color:#E8C396"/>
			<stop  offset="1" style="stop-color:#DACD9A"/>
		</linearGradient>
		<path fill="url(#SVGID_4_)" d="M50.5,43.2c0-0.1,0-0.3,0-0.4c0-2.5-2.1-4.6-4.6-4.6c-0.3,0-0.6,0-0.9,0.1
			c-0.6-3.1-3.4-5.5-6.7-5.5c-2.7,0-5.1,1.6-6.2,4c-0.5-0.2-1.1-0.3-1.7-0.3c-3,0-5.5,2.4-5.5,5.5c0,0.4,0.1,0.8,0.1,1.2H50.5z"/>
	</g>
</g>
</svg>
