<?xml version="1.0" encoding="utf-8"?>
<!-- Generator: Adobe Illustrator 18.1.1, SVG Export Plug-In . SVG Version: 6.00 Build 0)  -->
<svg version="1.1" id="圖層_1" xmlns="http://www.w3.org/2000/svg" xmlns:xlink="http://www.w3.org/1999/xlink" x="0px" y="0px"
	 viewBox="0 0 505.9 58.2" enable-background="new 0 0 505.9 58.2" xml:space="preserve">
<g>
	<radialGradient id="SVGID_1_" cx="252.9686" cy="29.6986" r="180.0081" gradientUnits="userSpaceOnUse">
		<stop  offset="0" style="stop-color:#DFD3A2"/>
		<stop  offset="0.2228" style="stop-color:#DBCE9D"/>
		<stop  offset="0.4921" style="stop-color:#D0BF8F"/>
		<stop  offset="0.7841" style="stop-color:#BDA777"/>
		<stop  offset="1" style="stop-color:#AC9061"/>
	</radialGradient>
	<path fill-rule="evenodd" clip-rule="evenodd" fill="url(#SVGID_1_)" d="M0,4.3c0-1.7,1.7-3.1,3.7-3.1h498.5c2.1,0,3.7,1.4,3.7,3.1
		v50.8c0,1.7-1.7,3.1-3.7,3.1H3.7c-2.1,0-3.7-1.4-3.7-3.1V4.3z"/>
	<path fill-rule="evenodd" clip-rule="evenodd" fill="#C1A884" d="M502.2,0H3.7C1.7,0,0,1.4,0,3.1v1.2c0-1.7,1.7-3.1,3.7-3.1h498.5
		c2.1,0,3.7,1.4,3.7,3.1V3.1C505.9,1.4,504.3,0,502.2,0z"/>
	<path opacity="0.5" fill-rule="evenodd" clip-rule="evenodd" fill="#AC9061" d="M3.7,58.2h498.5c2.1,0,3.7-1.4,3.7-3.1v-2.6
		c0,1.7-1.7,3.1-3.7,3.1H3.7c-2.1,0-3.7-1.4-3.7-3.1v2.6C0,56.8,1.7,58.2,3.7,58.2z"/>
	<path opacity="0.3" fill="#FFFFFF" d="M0,34.7l151.1,20.9H3.1c0,0-2.9,0-3.1-0.6V34.7z"/>
	<polyline opacity="0.2" fill="#FFFFFF" points="0,3.1 47.8,55.6 0.3,55.6 	"/>
	<path opacity="0.3" fill="#FFFFFF" d="M505.9,19.4L321.7,1.2h181.6c0,0,2.5,0,2.7,0.5V19.4z"/>
	<polyline opacity="0.2" fill="#FFFFFF" points="505.9,55.1 433.5,1.2 505.7,1.2 	"/>
</g>
</svg>
