<?xml version="1.0" encoding="utf-8"?>
<!-- Generator: Adobe Illustrator 18.1.1, SVG Export Plug-In . SVG Version: 6.00 Build 0)  -->
<svg version="1.1" id="圖層_1" xmlns="http://www.w3.org/2000/svg" xmlns:xlink="http://www.w3.org/1999/xlink" x="0px" y="0px"
	 viewBox="0 0 52.8 54.4" enable-background="new 0 0 52.8 54.4" xml:space="preserve">
<g>
	<g>
		<path opacity="0.2" d="M51.4,43.1c0-0.1,0-0.2,0-0.3c0-1.7-1.3-3-3-3c-0.2,0-0.4,0-0.6,0.1c-0.4-2-2.2-3.6-4.3-3.6
			c-1.8,0-3.3,1.1-4,2.6c-0.4-0.1-0.7-0.2-1.1-0.2c-2,0-3.6,1.6-3.6,3.6c0,0.3,0,0.6,0.1,0.8H51.4z"/>
		<linearGradient id="SVGID_1_" gradientUnits="userSpaceOnUse" x1="34.1479" y1="39.1751" x2="50.8066" y2="39.1751">
			<stop  offset="1.477800e-002" style="stop-color:#E5C996"/>
			<stop  offset="0.3448" style="stop-color:#FCFCCE;stop-opacity:0.97"/>
			<stop  offset="0.601" style="stop-color:#E8C396"/>
			<stop  offset="1" style="stop-color:#DACD9A"/>
		</linearGradient>
		<path fill="url(#SVGID_1_)" d="M50.8,42.6c0-0.1,0-0.2,0-0.3c0-1.7-1.3-3-3-3c-0.2,0-0.4,0-0.6,0.1c-0.4-2-2.2-3.6-4.3-3.6
			c-1.8,0-3.3,1.1-4,2.6c-0.4-0.1-0.7-0.2-1.1-0.2c-2,0-3.6,1.6-3.6,3.6c0,0.3,0,0.6,0.1,0.8H50.8z"/>
	</g>
	<g>
		<path fill="#CB1716" d="M38.7,33.5c0-3-1-5.8-2.5-8.1c-0.6-0.8-0.8-4-0.8-5v-3.9h0c0-0.2,0-0.4,0-0.5c0-5.4-4.4-9.8-9.8-9.8
			c-5.4,0-9.8,4.4-9.8,9.8c0,0.2,0,0.4,0,0.5v3.9c0,1-0.3,4.1-0.8,4.9c-1.5,2.2-2.5,5-2.5,7.9c0,0.1,0,0.2,0,0.3c0,0,0,0.1,0,0.2h0
			c0.1,7.5,5.9,11.9,13.2,11.9c7.2,0,13.1-4.3,13.2-11.9C38.7,33.7,38.7,33.7,38.7,33.5C38.7,33.6,38.7,33.6,38.7,33.5"/>
		<path fill="#1573B0" d="M15.6,22.3c2,3.4,5.7,5.6,9.9,5.6c4.2,0,7.9-2.3,9.9-5.7c-0.1-0.8-0.1-1.5-0.1-1.9v-3.9h0
			c0-0.2,0-0.4,0-0.5c0-5.4-4.4-9.8-9.8-9.8c-5.4,0-9.8,4.4-9.8,9.8c0,0.2,0,0.4,0,0.5v3.9C15.8,20.8,15.7,21.6,15.6,22.3"/>
		<path fill="#F2EBE3" d="M33.5,16.4c0,4.4-3.5,7.9-7.9,7.9c-4.4,0-7.9-3.5-7.9-7.9c0-4.4,3.5-7.9,7.9-7.9
			C29.9,8.5,33.5,12,33.5,16.4"/>
		<path fill="#CB1716" d="M25.5,8.5c-4.4,0-7.9,3.5-7.9,7.9c0,0.1,0,0.3,0,0.4c2.4-0.2,7-1.3,7.9-6.1c0.8,4.8,5.5,5.9,7.9,6.1
			c0-0.1,0-0.3,0-0.4C33.5,12,29.9,8.5,25.5,8.5"/>
		<path fill="#635139" d="M22.7,18.9c-0.3,0-0.5-0.2-0.5-0.5v-1.7c0-0.3,0.2-0.5,0.5-0.5c0.3,0,0.5,0.2,0.5,0.5v1.7
			C23.2,18.7,23,18.9,22.7,18.9"/>
		<path fill="#635139" d="M28.3,18.9c-0.3,0-0.5-0.2-0.5-0.5v-1.7c0-0.3,0.2-0.5,0.5-0.5c0.3,0,0.5,0.2,0.5,0.5v1.7
			C28.8,18.7,28.5,18.9,28.3,18.9z"/>
		<path fill="#635139" d="M25.5,22.1L25.5,22.1L25.5,22.1c-0.9,0-1.6-0.7-1.6-1.6c0-0.2,0.1-0.3,0.3-0.3c0.2,0,0.3,0.1,0.3,0.3
			c0,0.5,0.4,1,1,1c0.5,0,1-0.4,1-1c0-0.2,0.1-0.3,0.3-0.3c0.2,0,0.3,0.1,0.3,0.3C27.1,21.4,26.4,22.1,25.5,22.1L25.5,22.1"/>
		<path fill="#E2D8A7" d="M23.1,21.2c0,0.2-0.2,0.4-0.4,0.4c-0.2,0-0.4-0.2-0.4-0.4c0-0.2,0.2-0.4,0.4-0.4
			C23,20.9,23.1,21,23.1,21.2"/>
		<path fill="#E2D8A7" d="M21.7,21.2c0,0.2-0.2,0.4-0.4,0.4c-0.2,0-0.4-0.2-0.4-0.4c0-0.2,0.2-0.4,0.4-0.4
			C21.5,20.9,21.7,21,21.7,21.2"/>
		<path fill="#E2D8A7" d="M22.4,20c0,0.2-0.2,0.4-0.4,0.4c-0.2,0-0.4-0.2-0.4-0.4c0-0.2,0.2-0.4,0.4-0.4
			C22.2,19.7,22.4,19.8,22.4,20"/>
		<circle fill="#E2D8A7" cx="29.7" cy="21.2" r="0.4"/>
		<circle fill="#E2D8A7" cx="28.3" cy="21.2" r="0.4"/>
		<circle fill="#E2D8A7" cx="29" cy="20" r="0.4"/>
		<path fill="#F2EBE3" d="M35.6,23c-0.1-0.5-0.1-1-0.2-1.5c-1.5,2.8-4.1,4.9-7.3,5.7c-0.2-0.7-0.7-1.2-1.4-1.2
			c-0.5,0-0.9,0.3-1.2,0.7c-0.3-0.4-0.7-0.7-1.2-0.7c-0.6,0-1.2,0.5-1.4,1.2c-3.2-0.7-5.8-2.9-7.3-5.7c0,0.5-0.1,1-0.2,1.5
			c0.4,0.7,0.9,1.3,1.5,1.9c1.6,1.6,3.7,2.8,5.9,3.2c0.1,0.8,0.7,1.3,1.4,1.3c0.5,0,0.9-0.3,1.2-0.7c0.3,0.4,0.7,0.7,1.2,0.7
			c0.7,0,1.3-0.6,1.4-1.3c2.2-0.5,4.3-1.6,5.9-3.2C34.6,24.3,35.1,23.7,35.6,23"/>
		<path fill="#F2EBE3" d="M31.1,35.1c0-1.7-1.4-3.1-3.1-3.1c-1,0-1.9,0.5-2.5,1.2C25,32.5,24.1,32,23.1,32c-1.7,0-3.1,1.4-3.1,3.1
			c0,1.5,4.1,5.5,5.6,5.5C27,40.6,31.1,36.6,31.1,35.1"/>
		<path fill="#F2EBE3" d="M20.6,30.6c0,0.4-0.3,0.7-0.7,0.7c-0.4,0-0.7-0.3-0.7-0.7c0-0.4,0.3-0.7,0.7-0.7
			C20.2,29.9,20.6,30.2,20.6,30.6"/>
		<path fill="#F2EBE3" d="M18.7,33.4c0,0.4-0.3,0.7-0.7,0.7c-0.4,0-0.7-0.3-0.7-0.7c0-0.4,0.3-0.7,0.7-0.7
			C18.3,32.7,18.7,33,18.7,33.4"/>
		<path fill="#F2EBE3" d="M18.8,36.8c0,0.4-0.3,0.7-0.7,0.7c-0.4,0-0.7-0.3-0.7-0.7c0-0.4,0.3-0.7,0.7-0.7
			C18.5,36.1,18.8,36.4,18.8,36.8"/>
		<path fill="#F2EBE3" d="M21,39.5c0,0.4-0.3,0.7-0.7,0.7c-0.4,0-0.7-0.3-0.7-0.7s0.3-0.7,0.7-0.7C20.7,38.8,21,39.1,21,39.5"/>
		<circle fill="#F2EBE3" cx="31.2" cy="30.6" r="0.7"/>
		<circle fill="#F2EBE3" cx="33.1" cy="33.4" r="0.7"/>
		<circle fill="#F2EBE3" cx="33" cy="36.8" r="0.7"/>
		<circle fill="#F2EBE3" cx="30.8" cy="39.5" r="0.7"/>
		<path fill="#9F9875" d="M22.8,20.9c-0.2,0-0.4,0.2-0.4,0.4c0,0.2,0.2,0.4,0.4,0.4c0.2,0,0.4-0.2,0.4-0.4
			C23.1,21,23,20.9,22.8,20.9"/>
		<path fill="#9F9875" d="M21.3,20.9c-0.2,0-0.4,0.2-0.4,0.4c0,0.2,0.2,0.4,0.4,0.4c0.2,0,0.4-0.2,0.4-0.4
			C21.7,21,21.5,20.9,21.3,20.9"/>
		<path fill="#9F9875" d="M22,19.7c-0.2,0-0.4,0.2-0.4,0.4c0,0.2,0.2,0.4,0.4,0.4c0.2,0,0.4-0.2,0.4-0.4
			C22.4,19.8,22.2,19.7,22,19.7"/>
	</g>
	<g>
		<path opacity="0.2" d="M24.5,48.2c0-0.1,0-0.2,0-0.3c0-2.2-1.8-4-4-4c-0.3,0-0.5,0-0.8,0.1c-0.5-2.7-2.9-4.8-5.8-4.8
			c-2.4,0-4.5,1.4-5.4,3.5c-0.5-0.2-1-0.2-1.5-0.2c-2.6,0-4.8,2.1-4.8,4.8c0,0.4,0,0.7,0.1,1.1H24.5z"/>
		<linearGradient id="SVGID_2_" gradientUnits="userSpaceOnUse" x1="1.38" y1="42.8938" x2="23.7362" y2="42.8938">
			<stop  offset="1.477800e-002" style="stop-color:#E5C996"/>
			<stop  offset="0.3448" style="stop-color:#FCFCCE;stop-opacity:0.97"/>
			<stop  offset="0.601" style="stop-color:#E8C396"/>
			<stop  offset="1" style="stop-color:#DACD9A"/>
		</linearGradient>
		<path fill="url(#SVGID_2_)" d="M23.7,47.4c0-0.1,0-0.2,0-0.3c0-2.2-1.8-4-4-4c-0.3,0-0.5,0-0.8,0.1c-0.5-2.7-2.9-4.8-5.8-4.8
			c-2.4,0-4.5,1.4-5.4,3.5c-0.5-0.2-1-0.2-1.5-0.2c-2.6,0-4.8,2.1-4.8,4.8c0,0.4,0,0.7,0.1,1.1H23.7z"/>
	</g>
</g>
</svg>
