<?xml version="1.0" encoding="utf-8"?>
<!-- Generator: Adobe Illustrator 18.1.1, SVG Export Plug-In . SVG Version: 6.00 Build 0)  -->
<svg version="1.1" id="圖層_1" xmlns="http://www.w3.org/2000/svg" xmlns:xlink="http://www.w3.org/1999/xlink" x="0px" y="0px"
	 viewBox="0 0 338.1 18.3" enable-background="new 0 0 338.1 18.3" xml:space="preserve">
<g>
	<g>
		<path fill="#D80D18" d="M189.6,17v-16h12.7c0,0,7.3,6.1-2,9.9l5,6.1h-3.8l-3-3.6c0,0-1.5-2.3-4.1,0.2v-2.1c0,0,10.2-5.6,5.1-8.8
			h-6.6V17H189.6z"/>
		<path fill="#D80D18" d="M210.8,0.9c0,0-1,11.6,0,13c0,0,3.6,5.7,7.6,0v-13h2.5c0,0,1.9,9.2,0,14c0,0-5.2,6.4-11.6,1.4
			c0,0-2.9-2.4-2.1-8.5l0.7-6.9H210.8z"/>
		<path fill="#D80D18" d="M235.2,3.1c0,0-6.1-2.5-8.1,0c0,0-1.8,3.6,7.3,5.1c0,0,6.6,3.3,2.5,7.4c0,0-3.8,4.7-13.3,0.6
			c0,0,0.2-1.2,1.2-1.6c0,0,5,3.1,8.4,0.8c0,0,2.6-3.1-1.4-4.2c0,0-8.2-2.2-7.5-7c0,0,0-3.9,4.5-3.9c0,0,6-0.7,7.8,1.3
			C236.5,1.7,237.3,3.7,235.2,3.1z"/>
		<path fill="#D80D18" d="M250.6,3.1c0,0-6.1-2.5-8.1,0c0,0-1.8,3.6,7.3,5.1c0,0,6.6,3.3,2.5,7.4c0,0-3.8,4.7-13.3,0.6
			c0,0,0.2-1.2,1.2-1.6c0,0,5,3.1,8.4,0.8c0,0,2.6-3.1-1.4-4.2c0,0-8.2-2.2-7.5-7c0,0,0-3.9,4.5-3.9c0,0,6-0.7,7.8,1.3
			C251.9,1.7,252.6,3.7,250.6,3.1z"/>
		<rect x="255.1" y="0.9" fill="#D80D18" width="4.4" height="16.9"/>
		<path fill="#D80D18" d="M270.8,12.7c0,0-6.4,5-5.4-1.1l4.7-8.2l5.4,13.5h3.6l-6.3-16c0,0-2.1-1-3.3,0l-7,10c0,0-4.8,9.2,4.4,6
			l5.6-3.1C272.6,13.9,273,12.3,270.8,12.7z"/>
		<path fill="#D80D18" d="M285.9,7c0,0-0.6-6.8,5.3-4.1c0,0,4.2,1.8,0.7,6.1l-8.9,6.9v1.7h14.5v-2.7h-8.2c0,0,7.5-3.9,8.2-7.7
			c0,0,1-6.7-4.4-6.7c0,0-6.7-2.1-8.9,2.8v4.1C284.1,7.4,285.2,8.1,285.9,7z"/>
		<path fill="#D80D18" d="M313.5,4.1c-2.2-6-10.2-3.6-10.2-3.6c-5.9,3-4.3,12.7-4.3,12.7c0.2,1.7,2.3,3.1,2.3,3.1
			c7.1,4.7,12.2-0.7,12.2-0.7C316.8,9.2,313.5,4.1,313.5,4.1z M310.7,13.2c-2.7,3.8-6.2,1.5-6.2,1.5c-5-6.4,1.3-12.6,1.3-12.6
			c1.8-0.6,2.8,0.4,2.8,0.4C311.7,4.5,310.7,13.2,310.7,13.2z"/>
		<polygon fill="#D80D18" points="316.1,3.4 318.2,2.9 318.2,17 321.5,17 321.5,0.5 318.8,1.6 316.1,2.5 		"/>
		<path fill="#D80D18" d="M334.2,8.7c4.8-1.1,2-6.7,2-6.7c-1.9-3-8.3-1.5-8.3-1.5c-6.8,3.7-0.2,8.2-0.2,8.2
			c-8.9,3.1-1.2,8.3-1.2,8.3c6.3,3,10.6-1,10.6-1C340.6,10.1,334.2,8.7,334.2,8.7z M332.4,16.1c0,0-5.9,1.7-4.7-3.9
			c0,0,0.6-2.4,2.1-2.9l-0.1-1.7c0,0-3-2.9-0.3-5.1c0,0,3-1.2,3.9,1.5c0,0,0.6,2.5-1.4,3.7c0,0-0.3,2.2,1.5,2.1
			C333.3,9.6,336,14.8,332.4,16.1z"/>
	</g>
	<g>
		<path d="M3.4,17H0V1h10.3v2.7H3.4v3.8h6.5v2.7H3.4V17z"/>
		<path d="M15.6,1v16h-3.5V1H15.6z"/>
		<path d="M21.8,17h-3.4V1h10.3v2.7h-6.9v3.8h6.5v2.7h-6.5V17z"/>
		<path d="M32.8,17h-3.3l5.8-16h4.1L45,17h-3.5l-1.2-3.4H34L32.8,17z M34.8,10.9h4.6l-2.2-6.8h-0.1L34.8,10.9z"/>
		<path d="M57.5,13l3.1-12h3.9l2.8,12h0.1L70,1h3.2l-4.1,16h-3.8L62.5,4.8L59.4,17h-3.9L51.6,1h3.6L57.5,13z"/>
		<path d="M82.1,17.2c-5-0.1-7.6-2.8-7.7-8.1c0.1-5.4,2.7-8.2,7.7-8.4c4.9,0.2,7.5,3,7.6,8.4C89.6,14.3,87.1,17.1,82.1,17.2z
			 M82.1,3.1c-2.8,0-4.1,2-4.1,5.9c-0.1,3.9,1.3,5.9,4.1,5.8c2.7,0,4-1.9,4-5.8C86.1,5.1,84.8,3.1,82.1,3.1z"/>
		<path d="M95.5,10.6V17H92V1h6.8c3.6,0.1,5.5,1.5,5.5,4.2c-0.1,2.1-1.2,3.4-3.3,3.9v0.1c1.6,0.2,2.5,1.4,2.9,3.6
			c0,0.2,0,0.3,0.1,0.5c0.1,2,0.4,3.2,0.9,3.8h-3.7c-0.3-1.4-0.6-2.8-0.6-4.3c-0.2-1.4-0.7-2.1-1.5-2.1H95.5z M95.5,3.7v4.2h2.9
			c1.6,0,2.4-0.7,2.4-2.3c-0.1-1.3-0.9-2-2.4-2H95.5z"/>
		<path d="M117.3,17H107V1h3.4v13.3h6.9V17z"/>
		<path d="M119.2,17V1h5.5c5.3,0.1,8,2.7,8.1,8.1c-0.1,5.3-2.7,8-8.1,8H119.2z M122.6,3.7v10.7h1.8c3.2,0.1,4.7-1.6,4.7-5.3
			c0.1-3.6-1.5-5.4-4.7-5.4H122.6z"/>
		<path d="M154.1,6.2h-3.6c-0.1-1.9-1.2-2.9-3.1-3c-1.9,0.1-2.9,2.1-3,5.9c0.1,3.8,1.1,5.8,3,5.8c2-0.1,3-1.1,3.1-3h3.6
			c-0.2,3.5-2.5,5.3-6.8,5.4c-4.3-0.1-6.6-2.8-6.7-8.1c0.1-5.4,2.3-8.2,6.7-8.4C151.6,0.7,153.8,2.6,154.1,6.2z"/>
		<path d="M166.7,1h3.5V11c-0.2,4-2.5,6-6.9,6.2c-4.6-0.1-6.9-2.2-7-6.2V1h3.5v8.8c-0.2,3.6,1,5.3,3.6,5.1c2.5,0.2,3.6-1.5,3.5-5.1
			V1z"/>
		<path d="M176.7,17h-3.4V1h4.9c4.3-0.1,6.5,1.6,6.5,4.9c-0.1,3.1-2,4.8-5.5,4.9h-2.5V17z M176.7,3.7v4.5c0.2,0,0.5,0,1,0.1
			c2.3,0.2,3.4-0.5,3.4-2.3c0-1.6-1.1-2.3-3.4-2.3C177.2,3.7,176.8,3.7,176.7,3.7z"/>
	</g>
</g>
</svg>
