<?xml version="1.0" encoding="utf-8"?>
<!-- Generator: Adobe Illustrator 22.0.1, SVG Export Plug-In . SVG Version: 6.00 Build 0)  -->
<svg version="1.1" id="圖層_1" xmlns="http://www.w3.org/2000/svg" xmlns:xlink="http://www.w3.org/1999/xlink" x="0px" y="0px"
	 width="52px" height="64px" viewBox="0 0 52 64" style="enable-background:new 0 0 52 64;" xml:space="preserve">
<style type="text/css">
	.st0{fill:#6A3906;}
</style>
<g>
	<g>
		<path class="st0" d="M46.7,14.6H35.3v-2.5c0-1.1-0.9-2.1-2.1-2.1c-1.1,0-2.1,0.9-2.1,2.1v2.5H20.4v-2.5c0-1.1-0.9-2.1-2.1-2.1
			c-1.1,0-2.1,0.9-2.1,2.1v2.5H4.9c-2.3,0-4.1,1.8-4.1,4.1v31.5c0,2.3,1.8,4.1,4.1,4.1h41.8c2.3,0,4.1-1.8,4.1-4.1V18.7
			C50.8,16.4,49,14.6,46.7,14.6L46.7,14.6z M4.9,25.8v-7.1h11.4v1.9c0,1.1,0.9,2.1,2.1,2.1c1.1,0,2.1-0.9,2.1-2.1v-1.9h10.8v1.9
			c0,1.1,0.9,2.1,2.1,2.1c1.1,0,2.1-0.9,2.1-2.1v-1.9h11.4v7.1C44.9,25.8,6.7,25.8,4.9,25.8L4.9,25.8z M23.8,50.2H4.9V29.9h18.8
			v20.3H23.8z M46.7,50.2H27.9V29.9h18.8C46.7,29.9,46.7,50.2,46.7,50.2z"/>
		<path class="st0" d="M16.4,36.4c-1.4-2.1-3.8-2.1-5.2,0c-1.3,1.9-1.3,4.9,0,6.7c1.4,2.1,3.8,2.1,5.2,0
			C17.7,41.3,17.7,38.3,16.4,36.4L16.4,36.4z M15.1,42.3c-0.8,1.2-1.8,1.2-2.6,0c-0.9-1.3-0.9-3.6,0-5c0.8-1.1,1.8-1.2,2.6,0
			C16,38.7,16,40.9,15.1,42.3L15.1,42.3z"/>
		<path class="st0" d="M39.4,36.4c-1.4-2.1-3.8-2.1-5.2,0c-1.3,1.9-1.3,4.9,0,6.7c1.4,2.1,3.8,2.1,5.2,0
			C40.6,41.3,40.6,38.3,39.4,36.4L39.4,36.4z M38.1,42.3c-0.8,1.2-1.8,1.2-2.6,0c-0.9-1.3-0.9-3.6,0-5c0.8-1.1,1.8-1.2,2.6,0
			C39,38.7,39,40.9,38.1,42.3L38.1,42.3z"/>
	</g>
</g>
</svg>
