<?xml version="1.0" encoding="utf-8"?>
<!-- Generator: Adobe Illustrator 22.0.1, SVG Export Plug-In . SVG Version: 6.00 Build 0)  -->
<svg version="1.1" id="圖層_1" xmlns="http://www.w3.org/2000/svg" xmlns:xlink="http://www.w3.org/1999/xlink" x="0px" y="0px"
	 width="1032px" height="58.2px" viewBox="0 0 1032 58.2" style="enable-background:new 0 0 1032 58.2;" xml:space="preserve">
<style type="text/css">
	.st0{fill:url(#SVGID_1_);}
	.st1{fill:#C1A884;}
	.st2{opacity:0.3;fill:#1E2023;enable-background:new    ;}
	.st3{opacity:0.2;fill:#FFFFFF;enable-background:new    ;}
</style>
<g>
	
		<radialGradient id="SVGID_1_" cx="515.95" cy="28.1898" r="365.3879" gradientTransform="matrix(1 0 0 -1 0 57.8898)" gradientUnits="userSpaceOnUse">
		<stop  offset="0" style="stop-color:#DFD3A2"/>
		<stop  offset="0.2228" style="stop-color:#DBCE9D"/>
		<stop  offset="0.4921" style="stop-color:#D0BF8F"/>
		<stop  offset="0.7841" style="stop-color:#BDA777"/>
		<stop  offset="1" style="stop-color:#AC9061"/>
	</radialGradient>
	<path class="st0" d="M0,4.3c0-1.7,1.7-3.1,3.7-3.1h1024.5c2.1,0,3.7,1.4,3.7,3.1v50.8c0,1.7-1.7,3.1-3.7,3.1H3.7
		c-2.1,0-3.7-1.4-3.7-3.1V4.3z"/>
	<path class="st1" d="M1028.2,0H3.7C1.7,0,0,1.4,0,3.1v1.2c0-1.7,1.7-3.1,3.7-3.1h1024.5c2.1,0,3.7,1.4,3.7,3.1V3.1
		C1032,1.4,1030.3,0,1028.2,0z"/>
	<path class="st2" d="M3.7,58.2h1024.5c2.1,0,3.7-1.4,3.7-3.1v-2.6c0,1.7-1.7,3.1-3.7,3.1H3.7c-2.1,0-3.7-1.4-3.7-3.1v2.6
		C0,56.8,1.7,58.2,3.7,58.2z"/>
	<path class="st3" d="M0,34.7l151.1,20.9H3.1c0,0-2.9,0-3.1-0.6V34.7z"/>
	<polyline class="st3" points="0,3.1 47.8,55.6 0.3,55.6 	"/>
	<path class="st3" d="M1032,19.4L847.7,1.2h181.6c0,0,2.5,0,2.7,0.5V19.4z"/>
	<polyline class="st3" points="1032,55.1 959.5,1.2 1031.7,1.2 	"/>
</g>
</svg>
