<?xml version="1.0" encoding="utf-8"?>
<!-- Generator: Adobe Illustrator 22.0.1, SVG Export Plug-In . SVG Version: 6.00 Build 0)  -->
<svg version="1.1" id="圖層_1" xmlns="http://www.w3.org/2000/svg" xmlns:xlink="http://www.w3.org/1999/xlink" x="0px" y="0px"
	 width="545.3px" height="61.6px" viewBox="0 0 545.3 61.6" style="enable-background:new 0 0 545.3 61.6;" xml:space="preserve">
<style type="text/css">
	.st0{fill:url(#SVGID_1_);}
	.st1{opacity:0.2;fill:url(#SVGID_2_);enable-background:new    ;}
	.st2{opacity:0.3;fill:#FFFFFF;enable-background:new    ;}
	.st3{opacity:0.2;fill:#FFFFFF;enable-background:new    ;}
	.st4{opacity:0.1;enable-background:new    ;}
	.st5{opacity:0.3;fill:url(#SVGID_3_);enable-background:new    ;}
</style>
<g>
	<g>
		
			<linearGradient id="SVGID_1_" gradientUnits="userSpaceOnUse" x1="272.65" y1="-0.7046" x2="272.65" y2="54.4423" gradientTransform="matrix(1 0 0 -1 0 61.8898)">
			<stop  offset="0" style="stop-color:#926B3C"/>
			<stop  offset="0.1503" style="stop-color:#9D7A4B"/>
			<stop  offset="0.439" style="stop-color:#BAA172"/>
			<stop  offset="0.8332" style="stop-color:#E9DFB0"/>
			<stop  offset="1" style="stop-color:#FEFBCD"/>
		</linearGradient>
		<path class="st0" d="M545.3,61.6V5.7c0-3.2-1.8-5.7-3.9-5.7H3.9C1.8,0,0,2.6,0,5.7v55.9C0,61.6,545.3,61.6,545.3,61.6z"/>
		
			<radialGradient id="SVGID_2_" cx="-1432.9961" cy="87.6763" r="430.9463" gradientTransform="matrix(0.6784 0 0 -1 1307.9327 61.8898)" gradientUnits="userSpaceOnUse">
			<stop  offset="0" style="stop-color:#FFFFFF"/>
			<stop  offset="1" style="stop-color:#FFFFFF;stop-opacity:0"/>
		</radialGradient>
		<path class="st1" d="M545.3,61.6V5.7c0-3.2-1.8-5.7-3.9-5.7H36.9c67.2,0,357,5.1,451.2,61.6H545.3z"/>
		<path class="st2" d="M541.4,0H272.7C494.2,2,538.4,47.5,545,61.6c0.1-0.5,0.2-23.4,0.3-23.9v-32C545.3,2.6,543.6,0,541.4,0z"/>
		<path class="st3" d="M0,5.7v55.9C24.5,30.8,105.8,0.2,216.1,0H3.9C1.8,0,0,2.6,0,5.7z"/>
		<path class="st4" d="M545.3,47C506,63.7,137.8,57.6,124.1,56.4C8.1,46.5,2,12.1,3,0C1.3,0.6,0,2.9,0,5.6v55.9h545.3V47z"/>
	</g>
	
		<radialGradient id="SVGID_3_" cx="1743.4778" cy="1321.608" r="16.8825" gradientTransform="matrix(29.6346 0 0 -3.3559 -51704.0977 4469.1431)" gradientUnits="userSpaceOnUse">
		<stop  offset="0" style="stop-color:#FFFFFF"/>
		<stop  offset="1" style="stop-color:#FFFFFF;stop-opacity:0"/>
	</radialGradient>
	<rect y="0" class="st5" width="544.1" height="61.6"/>
</g>
</svg>
