<?xml version="1.0" encoding="utf-8"?>
<!-- Generator: Adobe Illustrator 18.1.1, SVG Export Plug-In . SVG Version: 6.00 Build 0)  -->
<svg version="1.1" id="圖層_1" xmlns="http://www.w3.org/2000/svg" xmlns:xlink="http://www.w3.org/1999/xlink" x="0px" y="0px"
	 viewBox="0 0 52.8 54.4" enable-background="new 0 0 52.8 54.4" xml:space="preserve">
<g>
	<linearGradient id="SVGID_1_" gradientUnits="userSpaceOnUse" x1="4.8054" y1="34.3166" x2="14.0802" y2="6.5114">
		<stop  offset="0" style="stop-color:#0A1A44"/>
		<stop  offset="1" style="stop-color:#22BDFF"/>
	</linearGradient>
	<path fill="url(#SVGID_1_)" d="M23,1.5c0,0-30.8,8.8-18.9,37.5c0,0-6.9-18.1,10.4-29.4C14.5,9.6,18.1,4,23,1.5z"/>
	<linearGradient id="SVGID_2_" gradientUnits="userSpaceOnUse" x1="48.992" y1="37.6074" x2="44.1749" y2="18.4939">
		<stop  offset="0" style="stop-color:#235031"/>
		<stop  offset="1" style="stop-color:#91B948"/>
	</linearGradient>
	<path fill="url(#SVGID_2_)" d="M46.8,10.5c0,0,11.7,17.3-2.5,33c0,0,9.3-10.6,1-26.1C45.3,17.4,46.7,15.4,46.8,10.5z"/>
	<path fill="#004F8E" d="M19.6,8.8c0,0-9.4,4.2-14.9,16.9c0,0-0.1,4.3,3.9,8.9c4,4.5,12.4,11.4,26.8,8.9c5.7-1.4,17.5-13.5,3.1-28.2
		c0.1,0.1-0.3,1.7-0.3,1.8c-0.3,1.6-0.7,3.1-1.3,4.6c-0.7,1.8-1.8,3.5-2.9,5.1c-1.2,1.7-2.7,3.4-4.7,4.3c-1.1,0.5-2.2,0.8-3.4,0.9
		c-1.3,0.1-2.6,0.3-3.9,0c-1.2-0.2-2.2-0.9-3.2-1.6c-2.3-1.7-3.5-4-3.6-6.8c0-0.8-0.1-1.6,0-2.3c0.1-2,0.5-3.9,1.1-5.8
		c0.5-1.6,1.3-3.2,2.1-4.7C18.8,10.2,19.2,9.5,19.6,8.8C19.6,8.8,19.6,8.8,19.6,8.8z"/>
	<path fill="#B1E4FF" d="M24.9,37.4l-8,3.7c0,0,6.1,2.9,8.5,2.7L24.9,37.4z"/>
	<path fill="#FFFFFF" d="M5.9,41c0,0,6.7-2.2,8.1-4.2l1.6,2.2c0,0,9.2-2.9,14.7-8.3c0,0-5,5.4-7.3,6.3c0,0,11.2-3.5,15.9-17.7
		c0,0,6.5,3.7,6.6,8.9c0,0-4.5-6.4-6.1-7.8c0,0-4.5,15.5-22.5,20.8c0,0,7.2,2.9,8,2.6c0,0-1.4,2.2-9.3-2.7c0,0-0.7,1.2-8.6,1.9
		L5.9,41z"/>
	<path fill="#0CAED0" d="M4.2,27.7c0,0-1.3,7.3,1.7,13.3c0,0,4.8-1.2,5.7-2.4C11.6,38.5,6.7,35.5,4.2,27.7z"/>
	<path fill="#6ECDFB" d="M7.1,28c0,0,2.8,5.7,9.8,6.3L13,37.8C13,37.8,7.1,31.5,7.1,28z"/>
	<linearGradient id="SVGID_3_" gradientUnits="userSpaceOnUse" x1="31.5148" y1="48.7134" x2="39.5848" y2="24.5584">
		<stop  offset="0" style="stop-color:#235031"/>
		<stop  offset="0.2062" style="stop-color:#346135"/>
		<stop  offset="0.614" style="stop-color:#618B3E"/>
		<stop  offset="1" style="stop-color:#91B948"/>
	</linearGradient>
	<path fill="url(#SVGID_3_)" d="M44.3,18.6c0,0,7.8,11-1,24.5c-4.7,7.8-13.8,11.5-23.8,9.1c0,0,16-1.1,23.3-13.2
		c2.5-4.8,4.7-11.2-0.5-17.2C42.3,21.8,44.2,20.6,44.3,18.6z"/>
	<path fill="#0CAED0" d="M13.1,37.8c0,0-8.5-7.9-5.8-17c0,0-2.5,4.4-2.6,5c0,0.5,0.1,7.1,7.8,12.5L13.1,37.8z"/>
	<path fill="none" d="M34.1,29.9c0,0,4.4,4.3,4.9,5.8c0,0-0.5,6.1-4.1,7.7c0,0-6.6,0.6-9.4,0.5c0,0,0.1-4.3-0.5-6.6
		C24.9,37.4,31.1,34,34.1,29.9z"/>
	<path fill="#B9CFE1" d="M36.9,25.6c0,0-2.1,3.2-3,4.3c0,0,5.3,4.9,5,6.7c-0.3,1.8-1.5,4.6-4.2,7c0,0,5.6-1.1,5.7-9
		C40.8,28.2,36.9,25.6,36.9,25.6z"/>
	<linearGradient id="SVGID_4_" gradientUnits="userSpaceOnUse" x1="19.4951" y1="43.2383" x2="44.9318" y2="43.2383">
		<stop  offset="0" style="stop-color:#CE0006"/>
		<stop  offset="0.2579" style="stop-color:#CC0008"/>
		<stop  offset="0.3962" style="stop-color:#C70210"/>
		<stop  offset="0.5061" style="stop-color:#BE051E"/>
		<stop  offset="0.6012" style="stop-color:#B20931"/>
		<stop  offset="0.6866" style="stop-color:#A10E4A"/>
		<stop  offset="0.7652" style="stop-color:#8D1469"/>
		<stop  offset="0.8385" style="stop-color:#751B8E"/>
		<stop  offset="0.9077" style="stop-color:#5924B8"/>
		<stop  offset="0.9711" style="stop-color:#3B2DE7"/>
		<stop  offset="1" style="stop-color:#2B32FF"/>
	</linearGradient>
	<path fill="url(#SVGID_4_)" d="M44.9,33.6c0,0,0.1,12.7-13.9,18.7c-1.8,0.4-5.6,1.3-11.5-0.1C19.5,52.2,40.4,50.5,44.9,33.6z"/>
	<path fill="#023242" d="M9.3,17.7c0,0,5.9-7.5,10.3-8.9l-2.1,3.8L9.3,17.7z"/>
	<linearGradient id="SVGID_5_" gradientUnits="userSpaceOnUse" x1="18.4441" y1="18.3901" x2="32.323" y2="18.3901">
		<stop  offset="0.1633" style="stop-color:#174262"/>
		<stop  offset="0.3662" style="stop-color:#2A6184"/>
		<stop  offset="0.6467" style="stop-color:#4186AE"/>
		<stop  offset="0.8676" style="stop-color:#509DC7"/>
		<stop  offset="1" style="stop-color:#55A5D1"/>
	</linearGradient>
	<path fill="url(#SVGID_5_)" d="M21.2,12.6c0,0-2.8,4.5-2.7,7.2c0,0,8.1,3.1,8.9,4.4c0,0,4.2-2.4,5-3.5c0,0-1.8-5.3-4.2-7.5
		C28.5,12.5,21.2,12.6,21.2,12.6z"/>
	<linearGradient id="SVGID_6_" gradientUnits="userSpaceOnUse" x1="27.0887" y1="36.0547" x2="37.3693" y2="40.9753">
		<stop  offset="0.3103" style="stop-color:#0B3D71"/>
		<stop  offset="0.6275" style="stop-color:#3274A4"/>
		<stop  offset="0.8702" style="stop-color:#4B98C5"/>
		<stop  offset="1" style="stop-color:#55A5D1"/>
	</linearGradient>
	<path fill="url(#SVGID_6_)" d="M33.5,30.7c0,0,5.8,6,1.2,12.9c0,0-8.6,0.4-9.3,0.1c0,0,6.4-11.3,6.9-11.8
		C32.8,31.4,33.5,30.7,33.5,30.7z"/>
	<linearGradient id="SVGID_7_" gradientUnits="userSpaceOnUse" x1="19.4953" y1="19.441" x2="28.1761" y2="17.5188">
		<stop  offset="0.2224" style="stop-color:#174262"/>
		<stop  offset="0.3743" style="stop-color:#205072"/>
		<stop  offset="0.6714" style="stop-color:#37769C"/>
		<stop  offset="1" style="stop-color:#55A5D1"/>
	</linearGradient>
	<path fill="url(#SVGID_7_)" d="M24.9,13.5c0,0,1.3-0.1,5.9,3.8c0.1,0.2,1.5,3.5,1.5,3.5l-5,3.5c0,0-4.8-3.4-8.9-4.4l2.7-7.2
		C21.2,12.6,24,13.2,24.9,13.5z"/>
	<linearGradient id="SVGID_8_" gradientUnits="userSpaceOnUse" x1="31.5272" y1="18.914" x2="37.1698" y2="15.6898">
		<stop  offset="0" style="stop-color:#FFFFFF;stop-opacity:0.6"/>
		<stop  offset="0.1806" style="stop-color:#EBF8FF;stop-opacity:0.6722"/>
		<stop  offset="0.5188" style="stop-color:#CBEDFF;stop-opacity:0.8075"/>
		<stop  offset="0.8041" style="stop-color:#B8E6FF;stop-opacity:0.9216"/>
		<stop  offset="1" style="stop-color:#B1E4FF"/>
	</linearGradient>
	<path fill="url(#SVGID_8_)" d="M27.8,11.9c0,0,6.1,3.2,6.4,14.7c0,0,2.9-3,4.2-10.2C38.3,16.3,33.1,11.2,27.8,11.9z"/>
	<path fill="#0CAED0" d="M9.4,17.6c0,0,4.6-5.4,8.2-5.1c-0.1,0.2-0.8,2-0.9,2.2C16.7,14.6,14.2,14.1,9.4,17.6z"/>
	<path fill="#3476BF" d="M15.5,14.7c0,0-8.4,8.1,1.3,19.7l0,0c0,0-13.1-0.8-9.6-13.6C9.5,15.2,15.5,14.7,15.5,14.7z"/>
	<path fill="#3476BF" d="M36.9,25.6c0,0,6.9,8.5,1.1,16c0,0,2.7-2.1,4.1-4C44,35,50,27.5,39.4,20.3C39.4,20.3,37.4,24.9,36.9,25.6z"
		/>
	<path opacity="0.5" fill="#6ECDFB" d="M36.9,25.6c0,0,6.9,8.5,1.1,16c0,0,2.7-2.1,4.1-4c1.9-2.6,3.1-7.9-3-16.4
		C39.1,21.2,37.4,24.9,36.9,25.6z"/>
	<path opacity="0.4" fill="#FFFFFF" d="M36.9,25.6c0,0,6.9,8.5,1.1,16c0,0,1.4-1.9,2.8-3.7c1.9-2.6,0.4-6.9-3.2-13.6
		C37.6,24.2,37.4,24.9,36.9,25.6z"/>
	<path fill="#0CAED0" d="M7.3,20.7c0,0-1.7,2.7-2.6,5"/>
	<linearGradient id="SVGID_9_" gradientUnits="userSpaceOnUse" x1="26.2006" y1="33.5988" x2="37.3421" y2="23.5871">
		<stop  offset="0" style="stop-color:#99C1D6"/>
		<stop  offset="0.1259" style="stop-color:#94BED6"/>
		<stop  offset="0.2725" style="stop-color:#86B5D5"/>
		<stop  offset="0.4288" style="stop-color:#6FA7D5"/>
		<stop  offset="0.5616" style="stop-color:#5597D4"/>
		<stop  offset="0.7518" style="stop-color:#55A0D2"/>
		<stop  offset="1" style="stop-color:#55A5D1"/>
	</linearGradient>
	<path fill="url(#SVGID_9_)" d="M37.1,21.2c0,0-2.7,6.7-6.8,9.4c0,0-5.3,5.7-7.3,6.3c0,0,9.7-3,15-15.1L37.1,21.2z"/>
	<path fill="#6ECDFB" d="M23.4,33.8L23.4,33.8c0,0-4.3,1-6.6,0.5c-1.1,1-1.6,1.6-2.8,2.6l1.5,2.1c0,0,8.3-2.6,13.7-7.4
		c0.1-0.2,0.9-0.8,1-1C28.7,31.6,25.7,33.3,23.4,33.8z"/>
	<linearGradient id="SVGID_10_" gradientUnits="userSpaceOnUse" x1="14.5683" y1="36.3639" x2="28.4949" y2="31.1414">
		<stop  offset="0" style="stop-color:#FFFFFF"/>
		<stop  offset="0.1271" style="stop-color:#FAFCFE;stop-opacity:0.8729"/>
		<stop  offset="0.2846" style="stop-color:#EAF4F9;stop-opacity:0.7154"/>
		<stop  offset="0.458" style="stop-color:#D1E7F3;stop-opacity:0.542"/>
		<stop  offset="0.6431" style="stop-color:#AED4E9;stop-opacity:0.3569"/>
		<stop  offset="0.8351" style="stop-color:#81BDDD;stop-opacity:0.1649"/>
		<stop  offset="1" style="stop-color:#55A5D1;stop-opacity:0"/>
	</linearGradient>
	<path fill="url(#SVGID_10_)" d="M30.3,30.6c-1.9,1.1-4.5,2.8-7.7,3.4l0.4-1.7c0,0-1.5,0-3-1c0,0-4.3,4.3-6.9,6.5l2.5,1.2
		c0,0,8.3-2.6,13.7-7.4C29.5,31.4,30.2,30.8,30.3,30.6z"/>
</g>
</svg>
