<?xml version="1.0" encoding="utf-8"?>
<!-- Generator: Adobe Illustrator 22.0.1, SVG Export Plug-In . SVG Version: 6.00 Build 0)  -->
<svg version="1.1" id="圖層_1" xmlns="http://www.w3.org/2000/svg" xmlns:xlink="http://www.w3.org/1999/xlink" x="0px" y="0px"
	 width="703.2px" height="49.9px" viewBox="0 0 703.2 49.9" style="enable-background:new 0 0 703.2 49.9;" xml:space="preserve">
<style type="text/css">
	.st0{fill:url(#SVGID_1_);}
	.st1{opacity:0.1;fill:#FFFFFF;enable-background:new    ;}
	.st2{opacity:0.2;fill:#FFFFFF;enable-background:new    ;}
</style>
<g>
	<g>
		<g>
			
				<linearGradient id="SVGID_1_" gradientUnits="userSpaceOnUse" x1="351.6" y1="-1.023775e-02" x2="351.6" y2="49.8898" gradientTransform="matrix(1 0 0 -1 0 49.8898)">
				<stop  offset="0" style="stop-color:#926B3C"/>
				<stop  offset="0.6136" style="stop-color:#D6C698"/>
				<stop  offset="1" style="stop-color:#FEFBCD"/>
			</linearGradient>
			<path class="st0" d="M703.2,49.9V4.6c0-2.6-1.7-4.6-3.8-4.6H3.8C1.7,0,0,2.1,0,4.6v45.3C0,49.9,703.2,49.9,703.2,49.9z"/>
			<path class="st1" d="M703.2,49.9V4.6c0-2.6-1.8-4.6-3.9-4.6H1.6c68.1,0,548.2,4.1,643.7,49.9H703.2z"/>
			<path class="st2" d="M697.6,0H341.4c316,1.6,351.8,38.5,361.3,49.9c0.2-0.4,0.3-19,0.5-19.4V4.6C703.2,2.1,700.7,0,697.6,0z"/>
		</g>
	</g>
</g>
</svg>
