<?xml version="1.0" encoding="utf-8"?>
<!-- Generator: Adobe Illustrator 18.1.1, SVG Export Plug-In . SVG Version: 6.00 Build 0)  -->
<svg version="1.1" id="圖層_1" xmlns="http://www.w3.org/2000/svg" xmlns:xlink="http://www.w3.org/1999/xlink" x="0px" y="0px"
	 width="112.5px" height="30.8px" viewBox="0 0 112.5 30.8" enable-background="new 0 0 112.5 30.8" xml:space="preserve">
<g>
	<linearGradient id="SVGID_1_" gradientUnits="userSpaceOnUse" x1="56.2276" y1="30.7776" x2="56.2276" y2="0.6278">
		<stop  offset="0" style="stop-color:#967C4B"/>
		<stop  offset="2.723278e-003" style="stop-color:#967C4B"/>
		<stop  offset="0.2596" style="stop-color:#936F40"/>
		<stop  offset="0.5044" style="stop-color:#926B3C"/>
		<stop  offset="0.6358" style="stop-color:#B4996A"/>
		<stop  offset="0.8043" style="stop-color:#DCCE9F"/>
		<stop  offset="0.9309" style="stop-color:#F5EFC1"/>
		<stop  offset="1" style="stop-color:#FEFBCD"/>
	</linearGradient>
	<path fill-rule="evenodd" clip-rule="evenodd" fill="url(#SVGID_1_)" d="M0,2.3c0-0.9,1-1.6,2.2-1.6h108.2c1.2,0,2.2,0.7,2.2,1.6
		v26.9c0,0.9-1,1.7-2.2,1.7H2.2C1,30.8,0,30,0,29.1V2.3z"/>
	<path opacity="0.3" fill="#FFFFFF" d="M0,24.3l15.5,5.1H0.8c0,0-0.8,0-0.8-0.2V24.3z"/>
	<polygon opacity="0.3" fill="#FFFFFF" points="0.1,29.4 6.5,29.4 0,18.5 	"/>
	<path opacity="0.3" fill="#FFFFFF" d="M112.5,5.7L96.8,0.6h12.3c0,0,3.3-0.3,3.3,1.5V5.7z"/>
	<path opacity="0.3" fill="#FFFFFF" d="M112.5,11.6l-6.6-11h5.7c0.4,0,0.8,0.3,0.8,0.8L112.5,11.6z"/>
	
		<radialGradient id="SVGID_2_" cx="1535.7777" cy="-431.174" r="3.6076" gradientTransform="matrix(28.4755 0 0 8.1502 -43739.7109 3531.0928)" gradientUnits="userSpaceOnUse">
		<stop  offset="0" style="stop-color:#FFFFFF"/>
		<stop  offset="1" style="stop-color:#FFFFFF;stop-opacity:0"/>
	</radialGradient>
	<path opacity="0.2" fill="url(#SVGID_2_)" d="M110.4,30.8l-108.3,0c-1.2,0-2.1-0.9-2.1-2.1L0,2.1C0,0.9,0.9,0,2.1,0l108.3,0
		c1.2,0,2.1,0.9,2.1,2.1l0,26.6C112.5,29.8,111.5,30.8,110.4,30.8z"/>
	<path fill-rule="evenodd" clip-rule="evenodd" fill="#FFFCDE" d="M110.3,0H2.2C1,0,0,0.7,0,1.6v0.6c0-0.9,1-1.6,2.2-1.6h108.2
		c1.2,0,2.2,0.7,2.2,1.6V1.6C112.5,0.7,111.5,0,110.3,0z"/>
	<path opacity="0.5" fill-rule="evenodd" clip-rule="evenodd" fill="#513921" d="M2.2,30.8h108.2c1.2,0,2.2-0.7,2.2-1.7v-1.4
		c0,0.9-1,1.6-2.2,1.6H2.2C1,29.4,0,28.6,0,27.7v1.4C0,30,1,30.8,2.2,30.8z"/>
	<path fill-rule="evenodd" clip-rule="evenodd" fill="#FFFFFF" d="M16.4,22.9c-1.4,0-2.8-0.1-4.1-0.5c-0.9-0.2-1.3-0.6-1.4-1.5
		c-0.2-2.2,0.4-4.2,2.1-5.8c0.7-0.7,1.4-1.3,1.9-2c0.1-0.1,0.2-0.2,0.4-0.2c0.7,0,1.5,0,2.2,0c0.2,0,0.3,0.1,0.4,0.2
		c0.4,0.6,1,1.1,1.5,1.7c1.9,1.7,2.6,3.8,2.5,6.1c-0.1,0.8-0.5,1.3-1.4,1.5C19.1,22.8,17.8,22.9,16.4,22.9L16.4,22.9z M16.3,12
		c0.4,0,0.9,0,1.3,0c0.2,0,0.4,0.1,0.4,0.3c0,0.2-0.2,0.3-0.4,0.3c-0.9,0-1.9,0-2.8,0c-0.2,0-0.4-0.1-0.4-0.3c0-0.2,0.2-0.3,0.4-0.3
		C15.4,12,15.9,12,16.3,12L16.3,12z M18.4,9.7c0.3,0.1,0.2,0.3,0.1,0.5c-0.2,0.4-0.4,0.8-0.6,1.2c-0.1,0.1-0.2,0.2-0.3,0.2
		c-0.8,0-1.6,0-2.5,0c-0.1,0-0.3,0-0.3-0.2c-0.3-0.6-0.6-1.2-0.9-1.7c-0.1-0.3,0-0.4,0.3-0.6c0.5-0.2,1-0.2,1.4,0.1
		c0.3,0.2,0.6,0.5,1,0.5C18,10,18,9.5,18.4,9.7L18.4,9.7z M16.9,19.2c0-0.2-0.1-0.3-0.2-0.4v0l0,0l0,0l0,0l0,0l0,0h0l0,0l0,0l0,0
		l0,0l0,0l0,0l0,0l0,0l0,0l0,0l0,0l0,0l0,0l0,0l0,0v0l0,0l0,0l0,0v0l0,0l0,0l0,0l0,0l0,0l0,0l0,0l0,0l0,0l0,0l0,0l0,0l0,0l0,0l0,0
		l0,0l0,0l0,0l0,0l0,0l0,0l0,0l0,0l0,0l0,0l0,0l0,0l0,0l0,0l0,0l0,0l0,0l0,0l0,0l0,0l0,0l0,0l0,0l0,0l0,0l0,0l0,0l0,0l0,0l0,0
		c-0.1-0.1-0.3-0.2-0.5-0.2c-0.5-0.2-0.9-0.4-1.2-0.6c-0.3-0.2-0.4-0.5-0.4-0.9c0-0.3,0.1-0.6,0.4-0.9c0.3-0.2,0.6-0.4,1-0.4v-0.7
		h0.6v0.7c0.4,0.1,0.7,0.2,1,0.5c0.2,0.3,0.3,0.6,0.3,1l0,0h-1c0-0.2-0.1-0.4-0.2-0.6c-0.1-0.1-0.3-0.2-0.5-0.2c-0.1,0-0.1,0-0.2,0
		l0,0h0l0,0l0,0l0,0l0,0h0l0,0l0,0l0,0l0,0h0l0,0l0,0l0,0l0,0l0,0l0,0l0,0l0,0l0,0l0,0l0,0h0l0,0l0,0l0,0l0,0h0l0,0l0,0l0,0l0,0l0,0
		l0,0l0,0l0,0l0,0l0,0l0,0l0,0l0,0l0,0l0,0l0,0l0,0l0,0l0,0l0,0l0,0l0,0l0,0l0,0l0,0l0,0l0,0l0,0l0,0l0,0l0,0v0l0,0l0,0l0,0l0,0v0
		l0,0l0,0l0,0l0,0l0,0l0,0l0,0l0,0l0,0l0,0l0,0l0,0l0,0l0,0l0,0l0,0l0,0l0,0l0,0l0,0l0,0l0,0l0,0l0,0l0,0l0,0l0,0l0,0l0,0l0,0l0,0
		l0,0l0,0l0,0l0,0l0,0l0,0l0,0l0,0l0,0l0,0l0,0l0,0l0,0v0l0,0l0,0l0,0l0,0l0,0l0,0l0,0l0,0l0,0l0,0l0,0l0,0l0,0l0,0l0,0l0,0h0l0,0
		l0,0l0,0l0,0l0,0l0,0l0,0l0,0l0,0l0,0l0,0l0,0l0,0l0,0l0,0l0,0l0,0l0,0l0,0l0,0l0,0l0,0l0,0l0,0l0,0l0,0v0l0,0l0,0l0,0l0,0l0,0l0,0
		l0,0l0,0l0,0l0,0l0,0l0,0l0,0v0l0,0l0,0l0,0l0,0v0l0,0l0,0l0,0l0,0l0,0l0,0l0,0l0,0l0,0l0,0l0,0l0,0l0,0l0,0l0,0l0,0l0,0l0,0l0,0
		l0,0v0l0,0l0,0l0,0l0,0l0,0l0,0v0l0,0v0l0,0l0,0l0,0v0l0,0v0l0,0c0,0,0,0.1,0,0.1c0,0.2,0.1,0.3,0.2,0.4c0.1,0.1,0.3,0.2,0.6,0.3
		c0.5,0.2,0.9,0.4,1.1,0.6c0.2,0.2,0.4,0.5,0.4,0.9c0,0.4-0.1,0.6-0.4,0.9c-0.2,0.2-0.6,0.3-1,0.4v0.6H16v-0.6
		c-0.4,0-0.8-0.2-1.1-0.4c-0.3-0.2-0.4-0.6-0.4-1l0,0h1c0,0.3,0.1,0.5,0.2,0.6c0.1,0.1,0.3,0.2,0.5,0.2c0.2,0,0.3,0,0.4-0.1l0,0l0,0
		l0,0v0l0,0l0,0l0,0l0,0l0,0l0,0l0,0l0,0l0,0l0,0l0,0l0,0l0,0l0,0l0,0v0l0,0l0,0l0,0l0,0l0,0v0h0l0,0l0,0l0,0l0,0l0,0l0,0l0,0l0,0
		l0,0l0,0l0,0l0,0l0,0h0v0l0,0l0,0l0,0l0,0l0,0l0,0h0l0,0l0,0v0l0,0l0,0h0v0l0,0l0,0l0,0l0,0l0,0l0,0l0,0l0,0l0,0l0,0l0,0l0,0l0,0
		C16.8,19.5,16.9,19.4,16.9,19.2L16.9,19.2z"/>
</g>
</svg>
