<?xml version="1.0" encoding="utf-8"?>
<!-- Generator: Adobe Illustrator 18.1.1, SVG Export Plug-In . SVG Version: 6.00 Build 0)  -->
<svg version="1.1" id="圖層_1" xmlns="http://www.w3.org/2000/svg" xmlns:xlink="http://www.w3.org/1999/xlink" x="0px" y="0px"
	 width="50px" height="40.6px" viewBox="0 0 50 40.6" enable-background="new 0 0 50 40.6" xml:space="preserve">
<path fill="#1A1A1A" d="M44,0H9.6C6.1,0,3.3,3.2,3.3,6.2v24.3L0,40.6l9.2-5.1c0.2,0,0.2,0.1,0.4,0.1H44c3.6,0,6-2,6-5V6.2
	C50,3.2,47.6,0,44,0z M46.3,30.5c0,1-1.1,1.3-2.3,1.3H9.6c-1.1,0-2.6-0.3-2.6-1.3V6.2c0-1,1.5-2.4,2.6-2.4H44c1.2,0,2.3,1.5,2.3,2.4
	V30.5z M34.6,21.5H43v-8.6h-8.5V21.5z M22.8,21.5h8.6v-8.6h-8.6V21.5z M10.7,21.5h8.6v-8.6h-8.6V21.5z"/>
</svg>
