<?xml version="1.0" encoding="utf-8"?>
<!-- Generator: Adobe Illustrator 18.1.1, SVG Export Plug-In . SVG Version: 6.00 Build 0)  -->
<svg version="1.1" id="圖層_1" xmlns="http://www.w3.org/2000/svg" xmlns:xlink="http://www.w3.org/1999/xlink" x="0px" y="0px"
	 width="51px" height="51px" viewBox="0 0 51 51" enable-background="new 0 0 51 51" xml:space="preserve">
<g>
	<g>
		<path fill="#B3B3B3" d="M28.8,24c3.5-1.3,6-4.7,6-8.7c0-5.1-4.2-9.3-9.3-9.3c-5.1,0-9.3,4.2-9.3,9.3c0,4,2.5,7.3,6,8.7
			c-7,1.5-12.2,7.7-12.3,15.1C14,42.7,19.5,45,25.5,45S37,42.7,41.1,39C41.1,31.6,35.8,25.5,28.8,24z"/>
	</g>
	<g>
		<path fill="#B3B3B3" d="M25.5,51C11.4,51,0,39.6,0,25.5S11.4,0,25.5,0S51,11.4,51,25.5S39.6,51,25.5,51z M25.5,1C12,1,1,12,1,25.5
			S12,50,25.5,50S50,39,50,25.5S39,1,25.5,1z"/>
	</g>
</g>
</svg>
