<?xml version="1.0" encoding="utf-8"?>
<!-- Generator: Adobe Illustrator 18.1.1, SVG Export Plug-In . SVG Version: 6.00 Build 0)  -->
<svg version="1.1" id="圖層_1" xmlns="http://www.w3.org/2000/svg" xmlns:xlink="http://www.w3.org/1999/xlink" x="0px" y="0px"
	 width="80px" height="65.6px" viewBox="0 0 80 65.6" enable-background="new 0 0 80 65.6" xml:space="preserve">
<g>
	<path fill="#484848" d="M73,13.4v51.9c3.8-1.3,6.5-8.2,7-9.8V13.4L73,13.4z"/>
	<path fill="#484848" d="M0,65.6h71.6V13.4V0H0V65.6z M33.2,60.2H4.8V58h28.4V60.2z M33.2,53.6H4.8v-2.3h28.4V53.6z M33.2,47H4.8
		v-2.3h28.4V47z M33.2,40.5H4.8v-2.3h28.4V40.5z M66.5,60.2H38.1V58h28.4V60.2z M66.5,53.6H38.1v-2.3h28.4V53.6z M66.5,47H38.1v-2.3
		h28.4V47z M66.5,40.5H38.1v-2.3h28.4V40.5z M61.6,19.6C61,19,60,18.1,58.7,16.9c-1.1-1-1.8-2-2.3-2.8c-0.5-0.9-0.7-1.9-0.7-3
		c0-2,0.7-3.4,2-4.5c0.8-0.6,1.8-0.9,3-0.9c1.2,0,2.2,0.3,3,0.8c0.6,0.4,1.2,1,1.6,1.7c0.4,0.7,0.6,1.6,0.7,2.5l-3.1,0.6
		c-0.1-0.9-0.3-1.6-0.8-2.1c-0.3-0.4-0.7-0.5-1.3-0.5c-0.6,0-1.1,0.3-1.4,0.8c-0.3,0.4-0.4,1-0.4,1.6c0,1,0.4,2,1.3,3
		c0.3,0.4,0.8,0.8,1.4,1.4c0.8,0.6,1.3,1.1,1.5,1.3c0.8,0.8,1.4,1.6,1.9,2.4c0.2,0.4,0.4,0.7,0.5,1c0.3,0.8,0.5,1.5,0.5,2.1
		c0,1.5-0.4,2.8-1.2,3.9c-0.5,0.7-1.3,1.2-2.2,1.5c-0.5,0.2-1.1,0.2-1.8,0.2c-1.3,0-2.3-0.3-3.2-0.9c-0.7-0.5-1.3-1.2-1.7-2.1
		c-0.4-0.9-0.6-1.9-0.7-3.1l3.1-0.2c0.1,1.3,0.5,2.2,1,2.7c0.4,0.4,0.8,0.6,1.3,0.6c0.7,0,1.3-0.4,1.7-1.1c0.2-0.3,0.3-0.8,0.3-1.4
		C62.8,21.4,62.4,20.5,61.6,19.6z M38.4,5.9l1.7,11.6l1.6-11.6h3.4l1.7,11.5l1.6-11.5h3.4l-3.4,21.6h-3.1l-1.9-11.9l-1.7,11.9h-3.1
		L35,5.9H38.4z M21.6,5.9h9.3v3.3h-6v5.9h4.4v3.3h-4.4v5.9h6v3.3h-9.3V5.9z M5.5,5.9h3.7l4.3,14.5V5.9h3.3v21.6h-3.5L8.7,13.7v13.8
		H5.5V5.9z M4.7,31.5h61.9v2.5H4.7V31.5z"/>
</g>
</svg>
