<?xml version="1.0" encoding="utf-8"?>
<!-- Generator: Adobe Illustrator 18.1.1, SVG Export Plug-In . SVG Version: 6.00 Build 0)  -->
<svg version="1.1" id="圖層_1" xmlns="http://www.w3.org/2000/svg" xmlns:xlink="http://www.w3.org/1999/xlink" x="0px" y="0px"
	 width="36.7px" height="20px" viewBox="0 0 36.7 20" enable-background="new 0 0 36.7 20" xml:space="preserve">
<g>
	<g>
		<path fill="#5C0C0D" d="M0,2.8c0-1.2,1.1-2.2,2.4-2.2h25.9c1.4,0,2.2,1,2.6,1.6l0,0l5.8,8.2l-5.8,8l0,0c-0.5,0.6-1.3,1.5-2.6,1.5
			H2.4c-1.3,0-2.4-1-2.4-2.2L0,2.8z"/>
		
			<linearGradient id="SVGID_1_" gradientUnits="userSpaceOnUse" x1="-4292.686" y1="2124.655" x2="-4292.686" y2="2088.3325" gradientTransform="matrix(4.489700e-011 1 -1 4.489700e-011 2124.6543 4302.4268)">
			<stop  offset="0" style="stop-color:#8E0525"/>
			<stop  offset="0.1467" style="stop-color:#A60B25"/>
			<stop  offset="0.3746" style="stop-color:#C51224"/>
			<stop  offset="0.597" style="stop-color:#DB1824"/>
			<stop  offset="0.8091" style="stop-color:#E81B24"/>
			<stop  offset="1" style="stop-color:#ED1C24"/>
		</linearGradient>
		<path fill="url(#SVGID_1_)" d="M0,2.2C0,1,1.1,0,2.4,0H28c1.4,0,2.2,1,2.6,1.6l0,0l5.7,8.2l-5.7,8l0,0c-0.5,0.6-1.3,1.5-2.6,1.5
			H2.4c-1.3,0-2.4-1-2.4-2.2L0,2.2z"/>
		<g>
			<path fill="#8C1E2D" d="M1,17v-0.6h0.2V17H1z M1,15.8v-0.6h0.2v0.6H1z M1,14.6V14h0.2v0.6H1z M1,13.4v-0.6h0.2v0.6H1z M1,12.2
				v-0.6h0.2v0.6H1z M1,11.1v-0.6h0.2v0.6H1z M1,9.9V9.3h0.2v0.6H1z M1,8.7V8.1h0.2v0.6H1z M1,7.5V6.9h0.2v0.6H1z M1,6.3V5.7h0.2
				v0.6H1z M1,5.1V4.5h0.2v0.6H1z M1,3.9V3.3h0.2v0.6H1z M1,2.7V2.2C1,2,1,1.8,1.1,1.6l0.1,0.1C1.2,1.9,1.1,2,1.1,2.2v0.4H1z
				 M1,17.7l0.2,0c0.1,0.2,0.2,0.3,0.3,0.5l-0.1,0.1C1.2,18,1.1,17.9,1,17.7z M1.6,1.2C1.8,1,2,1,2.3,0.9l0,0.1
				c-0.2,0-0.4,0.1-0.6,0.2L1.6,1.2z M2,18.5l0-0.1c0.1,0,0.2,0,0.3,0h0.3v0.1H2.4C2.3,18.5,2.1,18.5,2,18.5z M2.9,1.1V0.9h0.7v0.1
				H2.9z M3.3,18.5v-0.1H4v0.1H3.3z M4.2,1.1V0.9h0.7v0.1H4.2z M4.6,18.5v-0.1h0.7v0.1H4.6z M5.5,1.1V0.9h0.7v0.1H5.5z M5.9,18.5
				v-0.1h0.7v0.1H5.9z M6.8,1.1V0.9h0.7v0.1H6.8z M7.3,18.5v-0.1h0.7v0.1H7.3z M8.2,1.1V0.9h0.7v0.1H8.2z M8.6,18.5v-0.1h0.7v0.1
				H8.6z M9.5,1.1V0.9h0.7v0.1H9.5z M9.9,18.5v-0.1h0.7v0.1H9.9z M10.8,1.1V0.9h0.7v0.1H10.8z M11.2,18.5v-0.1h0.7v0.1H11.2z
				 M12.1,1.1V0.9h0.7v0.1H12.1z M12.5,18.5v-0.1h0.7v0.1H12.5z M13.4,1.1V0.9H14v0.1H13.4z M13.8,18.5v-0.1h0.7v0.1H13.8z
				 M14.7,1.1V0.9h0.7v0.1H14.7z M15.1,18.5v-0.1h0.7v0.1H15.1z M16,1.1V0.9h0.7v0.1H16z M16.4,18.5v-0.1h0.7v0.1H16.4z M17.3,1.1
				V0.9H18v0.1H17.3z M17.7,18.5v-0.1h0.7v0.1H17.7z M18.6,1.1V0.9h0.7v0.1H18.6z M19,18.5v-0.1h0.7v0.1H19z M19.9,1.1V0.9h0.7v0.1
				H19.9z M20.3,18.5v-0.1H21v0.1H20.3z M21.2,1.1V0.9h0.7v0.1H21.2z M21.6,18.5v-0.1h0.7v0.1H21.6z M22.5,1.1V0.9h0.7v0.1H22.5z
				 M23,18.5v-0.1h0.7v0.1H23z M23.9,1.1V0.9h0.7v0.1H23.9z M24.3,18.5v-0.1h0.7v0.1H24.3z M25.2,1.1V0.9h0.7v0.1H25.2z M25.6,18.5
				v-0.1h0.7v0.1H25.6z M26.5,1.1V0.9h0.7v0.1H26.5z M26.9,18.5v-0.1h0.7v0.1H26.9z M27.8,1.1V0.9H28c0.1,0,0.3,0,0.4,0.1l-0.1,0.1
				c-0.1,0-0.3-0.1-0.4-0.1H27.8z M28.2,18.4c0.2,0,0.4-0.1,0.6-0.2l0.1,0.1c-0.2,0.1-0.4,0.2-0.6,0.2L28.2,18.4z M28.9,1.4L29,1.3
				c0.2,0.1,0.3,0.3,0.5,0.4l-0.1,0.1C29.2,1.7,29.1,1.5,28.9,1.4z M29.2,17.8c0.1-0.1,0.2-0.3,0.4-0.5l0.1,0.1
				c-0.2,0.2-0.3,0.3-0.4,0.5L29.2,17.8z M29.8,2.3l0.1-0.1l0.3,0.5l-0.1,0.1L29.8,2.3z M30,16.8l0.4-0.5l0.1,0.1l-0.4,0.5L30,16.8z
				 M30.5,3.3l0.1-0.1l0.3,0.5l-0.1,0.1L30.5,3.3z M30.7,15.8l0.4-0.5l0.1,0.1l-0.4,0.5L30.7,15.8z M31.2,4.3l0.1-0.1l0.3,0.5
				l-0.1,0.1L31.2,4.3z M31.4,14.8l0.4-0.5l0.1,0.1l-0.4,0.5L31.4,14.8z M31.9,5.4L32,5.3l0.3,0.5l-0.1,0.1L31.9,5.4z M32.1,13.8
				l0.4-0.5l0.1,0.1l-0.4,0.5L32.1,13.8z M32.6,6.4l0.1-0.1L33,6.8l-0.1,0.1L32.6,6.4z M32.8,12.8l0.4-0.5l0.1,0.1L33,12.9
				L32.8,12.8z M33.3,7.4l0.1-0.1l0.3,0.5l-0.1,0.1L33.3,7.4z M33.5,11.8l0.4-0.5l0.1,0.1l-0.4,0.5L33.5,11.8z M34,8.4l0.1-0.1
				l0.3,0.5l-0.1,0.1L34,8.4z M34.3,10.8l0.4-0.5l0.1,0.1l-0.4,0.5L34.3,10.8z M34.7,9.4l0.1-0.1l0.4,0.5l0,0.1l-0.1,0l0,0L34.7,9.4
				z"/>
		</g>
		<g>
			<path fill="#FFDDD8" d="M1.1,17.3v-0.4h0.2v0.4c0,0.1,0,0.1,0,0.2l-0.2,0C1.1,17.4,1.1,17.3,1.1,17.3z M1.1,16.3v-0.6h0.2v0.6
				H1.1z M1.1,15.1v-0.6h0.2v0.6H1.1z M1.1,13.9v-0.6h0.2v0.6H1.1z M1.1,12.7v-0.6h0.2v0.6H1.1z M1.1,11.5v-0.6h0.2v0.6H1.1z
				 M1.1,10.3V9.7h0.2v0.6H1.1z M1.1,9.1V8.5h0.2v0.6H1.1z M1.1,7.9V7.3h0.2v0.6H1.1z M1.1,6.7V6.1h0.2v0.6H1.1z M1.1,5.5V4.9h0.2
				v0.6H1.1z M1.1,4.3V3.7h0.2v0.6H1.1z M1.1,3.1V2.5h0.2v0.6H1.1z M1.1,1.9c0.1-0.2,0.2-0.4,0.3-0.5l0.1,0.1C1.5,1.6,1.4,1.8,1.3,2
				L1.1,1.9z M1.5,18.1L1.6,18c0.1,0.1,0.3,0.2,0.5,0.3l0,0.1C1.8,18.3,1.6,18.2,1.5,18.1z M2.1,1.1c0.1,0,0.2,0,0.3,0h0.4v0.1H2.4
				c-0.1,0-0.2,0-0.3,0L2.1,1.1z M2.7,18.4v-0.1h0.7v0.1H2.7z M3.4,1.2V1h0.7v0.1H3.4z M4,18.4v-0.1h0.7v0.1H4z M4.7,1.2V1h0.7v0.1
				H4.7z M5.3,18.4v-0.1H6v0.1H5.3z M6,1.2V1h0.7v0.1H6z M6.6,18.4v-0.1h0.7v0.1H6.6z M7.3,1.2V1H8v0.1H7.3z M7.9,18.4v-0.1h0.7v0.1
				H7.9z M8.7,1.2V1h0.7v0.1H8.7z M9.3,18.4v-0.1h0.7v0.1H9.3z M10,1.2V1h0.7v0.1H10z M10.6,18.4v-0.1h0.7v0.1H10.6z M11.3,1.2V1
				h0.7v0.1H11.3z M11.9,18.4v-0.1h0.7v0.1H11.9z M12.6,1.2V1h0.7v0.1H12.6z M13.2,18.4v-0.1h0.7v0.1H13.2z M13.9,1.2V1h0.7v0.1
				H13.9z M14.5,18.4v-0.1h0.7v0.1H14.5z M15.2,1.2V1h0.7v0.1H15.2z M15.8,18.4v-0.1h0.7v0.1H15.8z M16.5,1.2V1h0.7v0.1H16.5z
				 M17.1,18.4v-0.1h0.7v0.1H17.1z M17.8,1.2V1h0.7v0.1H17.8z M18.4,18.4v-0.1h0.7v0.1H18.4z M19.1,1.2V1h0.7v0.1H19.1z M19.7,18.4
				v-0.1h0.7v0.1H19.7z M20.4,1.2V1h0.7v0.1H20.4z M21,18.4v-0.1h0.7v0.1H21z M21.7,1.2V1h0.7v0.1H21.7z M22.3,18.4v-0.1H23v0.1
				H22.3z M23,1.2V1h0.7v0.1H23z M23.6,18.4v-0.1h0.7v0.1H23.6z M24.4,1.2V1H25v0.1H24.4z M25,18.4v-0.1h0.7v0.1H25z M25.7,1.2V1
				h0.7v0.1H25.7z M26.3,18.4v-0.1h0.7v0.1H26.3z M27,1.2V1h0.7v0.1H27z M27.6,18.4v-0.1H28c0.1,0,0.1,0,0.2,0l0,0.1
				c-0.1,0-0.2,0-0.2,0H27.6z M28,1.2V1c0.2,0,0.4,0.1,0.7,0.2l-0.1,0.1C28.4,1.2,28.2,1.2,28,1.2z M28.8,18
				c0.1-0.1,0.3-0.2,0.5-0.4l0.1,0.1c-0.2,0.2-0.3,0.3-0.5,0.4L28.8,18z M29.1,1.7l0.1-0.1c0.1,0.1,0.3,0.3,0.4,0.5l-0.1,0.1
				C29.3,2,29.2,1.8,29.1,1.7z M29.6,17.2l0.4-0.5l0.1,0.1l-0.4,0.5L29.6,17.2z M29.8,2.6L30,2.6l0.3,0.5l-0.1,0.1L29.8,2.6z
				 M30.3,16.2l0.4-0.5l0.1,0.1l-0.4,0.5L30.3,16.2z M30.5,3.7l0.1-0.1L31,4.1l-0.1,0.1L30.5,3.7z M31,15.2l0.4-0.5l0.1,0.1
				l-0.4,0.5L31,15.2z M31.2,4.7l0.1-0.1l0.3,0.5l-0.1,0.1L31.2,4.7z M31.8,14.2l0.4-0.5l0.1,0.1l-0.4,0.5L31.8,14.2z M31.9,5.7
				l0.1-0.1l0.3,0.5l-0.1,0.1L31.9,5.7z M32.5,13.2l0.4-0.5l0.1,0.1l-0.4,0.5L32.5,13.2z M32.6,6.7l0.1-0.1l0.3,0.5L33,7.2L32.6,6.7
				z M33.2,12.2l0.4-0.5l0.1,0.1l-0.4,0.5L33.2,12.2z M33.3,7.7l0.1-0.1l0.3,0.5l-0.1,0.1L33.3,7.7z M33.9,11.2l0.4-0.5l0.1,0.1
				L34,11.2L33.9,11.2z M34,8.7l0.1-0.1l0.3,0.5l-0.1,0.1L34,8.7z M34.6,10.2l0.2-0.3l-0.1-0.1l0.1-0.1L35,9.8l-0.3,0.4L34.6,10.2z"
				/>
		</g>
		<path d="M14.3,9.7"/>
	</g>
	<g>
		<path fill="#FFFFA6" d="M11,15.1H9.5L5.5,9C5.4,8.7,5.3,8.5,5.2,8.4h0c0,0.2,0,0.6,0,1.2v5.5H4V6.8h1.5l3.9,6
			c0.2,0.3,0.3,0.5,0.4,0.6h0c0-0.3-0.1-0.7-0.1-1.2V6.8H11V15.1z"/>
		<path fill="#FFFFA6" d="M17.7,15.1h-4.6V6.8h4.4v1.1h-3.1v2.5h2.9v1.1h-2.9V14h3.3V15.1z"/>
		<path fill="#FFFFA6" d="M29.6,6.8l-2.3,8.3h-1.5l-1.6-5.8c-0.1-0.3-0.1-0.6-0.1-0.9h0C24,8.7,24,9,23.9,9.3l-1.6,5.8h-1.5
			l-2.4-8.3h1.4l1.6,6.1c0.1,0.3,0.1,0.6,0.1,0.9h0c0-0.2,0.1-0.5,0.2-0.9l1.7-6.1h1.3l1.6,6.1c0.1,0.2,0.1,0.5,0.1,0.8h0
			c0-0.3,0.1-0.5,0.1-0.8l1.5-6.1H29.6z"/>
	</g>
</g>
</svg>
