<?xml version="1.0" encoding="utf-8"?>
<!-- Generator: Adobe Illustrator 18.1.1, SVG Export Plug-In . SVG Version: 6.00 Build 0)  -->
<svg version="1.1" id="圖層_1" xmlns="http://www.w3.org/2000/svg" xmlns:xlink="http://www.w3.org/1999/xlink" x="0px" y="0px"
	 width="135.4px" height="26.9px" viewBox="0 0 135.4 26.9" enable-background="new 0 0 135.4 26.9" xml:space="preserve">
<g>
	<g>
		<path fill="#328BC4" d="M133.9,26.9H1.5c-0.8,0-1.5-0.7-1.5-1.5V1c0-0.6,0.5-1,1-1h133.3c0.6,0,1,0.5,1,1v24.4
			C135.4,26.2,134.7,26.9,133.9,26.9z M1,1l0,24.4c0,0.3,0.2,0.5,0.5,0.5h132.4c0.3,0,0.5-0.2,0.5-0.5V1L1,1z"/>
	</g>
	<g>
		<g>
			<g>
				<g>
					<g>
						<g>
							<path fill="#328BC4" d="M27.8,12.6c-2,0-4,0-5.9,0c-0.9,0-1.4-0.5-1.4-1.4c0-0.1-0.1-0.3-0.2-0.5c-0.2-0.2-0.5-0.4-0.8-0.6
								c-0.1-0.1-0.2-0.2-0.4-0.3L19,9.7l0.1-0.1c0.1-0.1,0.2-0.2,0.4-0.3c0.3-0.2,0.5-0.4,0.8-0.7c0.1-0.1,0.2-0.3,0.2-0.4
								c0-0.9,0.6-1.4,1.5-1.4c3.9,0,7.7,0,11.6,0c0.9,0,1.4,0.5,1.4,1.4c0,1.1,0,2,0,3c0,0.9-0.5,1.4-1.4,1.4
								C31.6,12.6,29.7,12.6,27.8,12.6z M19.4,9.7c0.1,0.1,0.2,0.1,0.2,0.2c0.3,0.2,0.5,0.4,0.8,0.7c0.2,0.2,0.3,0.4,0.3,0.6
								c0,0.8,0.4,1.1,1.1,1.1c3.9,0,7.8,0,11.7,0c0.7,0,1.1-0.4,1.1-1.1c0-0.9,0-1.9,0-3c0-0.8-0.4-1.2-1.2-1.2
								c-3.9,0-7.7,0-11.6,0c-0.8,0-1.2,0.4-1.2,1.2c0,0.2-0.1,0.4-0.3,0.6c-0.3,0.2-0.5,0.4-0.8,0.7C19.5,9.6,19.5,9.7,19.4,9.7z"
								/>
						</g>
						<g>
							<path fill="#328BC4" d="M27.8,12.9l-5.9,0c-1,0-1.6-0.6-1.7-1.7c0-0.1-0.1-0.2-0.1-0.3c-0.2-0.2-0.5-0.4-0.8-0.6l-0.8-0.6
								l0.8-0.6c0.3-0.2,0.5-0.4,0.8-0.6c0.1-0.1,0.1-0.2,0.1-0.2c0.1-1.1,0.7-1.7,1.7-1.7l5.8,0l5.8,0c1.1,0,1.7,0.6,1.7,1.7
								c0,1.1,0,2,0,3c0,1-0.6,1.7-1.7,1.7L27.8,12.9z M19.8,9.7c0.3,0.2,0.5,0.4,0.8,0.6c0.2,0.2,0.4,0.5,0.4,0.8
								c0,0.6,0.3,0.9,0.9,0.9c2.1,0,4.2,0,6.3,0l5.4,0c0.6,0,0.8-0.3,0.9-0.8c0-0.9,0-1.9,0-3c0-0.6-0.3-0.9-0.9-0.9l-6.8,0l-4.8,0
								c-0.6,0-0.9,0.3-0.9,0.9c0,0.3-0.2,0.6-0.4,0.8C20.4,9.3,20.1,9.5,19.8,9.7z"/>
						</g>
					</g>
				</g>
				<g>
					<g>
						<g>
							<g>
								<circle fill="#328BC4" cx="22.5" cy="9.7" r="0.5"/>
							</g>
							<g>
								<path fill="#328BC4" d="M22.5,10.5c-0.4,0-0.8-0.4-0.8-0.8s0.4-0.8,0.8-0.8s0.8,0.4,0.8,0.8S22.9,10.5,22.5,10.5z M22.5,9.5
									c-0.1,0-0.2,0.1-0.2,0.2s0.1,0.2,0.2,0.2s0.2-0.1,0.2-0.2S22.6,9.5,22.5,9.5z"/>
							</g>
						</g>
					</g>
					<g>
						<g>
							<g>
								<circle fill="#328BC4" cx="24.7" cy="9.7" r="0.5"/>
							</g>
							<g>
								<path fill="#328BC4" d="M24.7,10.5c-0.4,0-0.8-0.4-0.8-0.8s0.4-0.8,0.8-0.8s0.8,0.4,0.8,0.8S25.2,10.5,24.7,10.5z M24.7,9.5
									c-0.1,0-0.2,0.1-0.2,0.2s0.1,0.2,0.2,0.2S25,9.8,25,9.7S24.9,9.5,24.7,9.5z"/>
							</g>
						</g>
					</g>
					<g>
						<g>
							<g>
								<circle fill="#328BC4" cx="27" cy="9.7" r="0.5"/>
							</g>
							<g>
								<path fill="#328BC4" d="M27,10.5c-0.4,0-0.8-0.4-0.8-0.8s0.4-0.8,0.8-0.8s0.8,0.4,0.8,0.8S27.4,10.5,27,10.5z M27,9.5
									c-0.1,0-0.2,0.1-0.2,0.2s0.1,0.2,0.2,0.2c0.1,0,0.2-0.1,0.2-0.2S27.1,9.5,27,9.5z"/>
							</g>
						</g>
					</g>
					<g>
						<g>
							<g>
								<circle fill="#328BC4" cx="29.2" cy="9.7" r="0.5"/>
							</g>
							<g>
								<path fill="#328BC4" d="M29.2,10.5c-0.4,0-0.8-0.4-0.8-0.8s0.4-0.8,0.8-0.8S30,9.3,30,9.7S29.7,10.5,29.2,10.5z M29.2,9.5
									c-0.1,0-0.2,0.1-0.2,0.2s0.1,0.2,0.2,0.2s0.2-0.1,0.2-0.2S29.4,9.5,29.2,9.5z"/>
							</g>
						</g>
					</g>
					<g>
						<g>
							<g>
								<circle fill="#328BC4" cx="31.5" cy="9.7" r="0.5"/>
							</g>
							<g>
								<path fill="#328BC4" d="M31.5,10.5c-0.4,0-0.8-0.4-0.8-0.8s0.4-0.8,0.8-0.8c0.4,0,0.8,0.4,0.8,0.8S31.9,10.5,31.5,10.5z
									 M31.5,9.5c-0.1,0-0.2,0.1-0.2,0.2s0.1,0.2,0.2,0.2c0.1,0,0.2-0.1,0.2-0.2S31.6,9.5,31.5,9.5z"/>
							</g>
						</g>
					</g>
				</g>
			</g>
			<g>
				<g>
					<g>
						<g>
							<path fill="#328BC4" d="M30.1,19.5c-2,0-4,0-5.9,0c-0.9,0-1.4-0.5-1.4-1.4c0-0.1-0.1-0.3-0.2-0.5c-0.2-0.2-0.5-0.4-0.8-0.6
								c-0.1-0.1-0.2-0.2-0.4-0.3l-0.1-0.1l0.1-0.1c0.1-0.1,0.2-0.2,0.4-0.3c0.3-0.2,0.5-0.4,0.8-0.7c0.1-0.1,0.2-0.3,0.2-0.4
								c0-0.9,0.6-1.4,1.5-1.4c3.9,0,7.7,0,11.6,0c0.9,0,1.4,0.5,1.4,1.4c0,1.1,0,2,0,3c0,0.9-0.5,1.4-1.4,1.4
								C33.9,19.5,32,19.5,30.1,19.5z M21.7,16.6c0.1,0.1,0.2,0.1,0.2,0.2c0.3,0.2,0.5,0.4,0.8,0.7c0.2,0.2,0.3,0.4,0.3,0.6
								c0,0.8,0.4,1.1,1.1,1.1c3.9,0,7.8,0,11.7,0c0.7,0,1.1-0.4,1.1-1.1c0-0.9,0-1.9,0-3c0-0.8-0.4-1.2-1.2-1.2
								c-3.9,0-7.7,0-11.6,0c-0.8,0-1.2,0.4-1.2,1.2c0,0.2-0.1,0.4-0.3,0.6c-0.3,0.2-0.5,0.4-0.8,0.7C21.8,16.5,21.8,16.5,21.7,16.6
								z"/>
						</g>
						<g>
							<path fill="#328BC4" d="M30.1,19.8l-5.9,0c-1,0-1.6-0.6-1.7-1.7c0-0.1-0.1-0.2-0.1-0.3c-0.2-0.2-0.5-0.4-0.8-0.6l-0.8-0.6
								l0.8-0.6c0.3-0.2,0.5-0.4,0.8-0.6c0.1-0.1,0.1-0.2,0.1-0.2c0.1-1.1,0.7-1.7,1.7-1.7l5.8,0l5.8,0c1.1,0,1.7,0.6,1.7,1.7
								c0,1.1,0,2,0,3c0,1-0.6,1.7-1.7,1.7L30.1,19.8z M22.1,16.6c0.3,0.2,0.5,0.4,0.8,0.6c0.2,0.2,0.4,0.5,0.4,0.8
								c0,0.6,0.3,0.9,0.9,0.9l5.8,0l5.8,0c0.6,0,0.8-0.3,0.9-0.8c0-0.9,0-1.9,0-3c0-0.6-0.3-0.9-0.9-0.9l-5.8,0l-5.8,0
								c-0.6,0-0.9,0.3-0.9,0.9c0,0.3-0.2,0.6-0.4,0.8C22.7,16.2,22.4,16.4,22.1,16.6z"/>
						</g>
					</g>
				</g>
				<g>
					<g>
						<g>
							<g>
								<circle fill="#328BC4" cx="24.8" cy="16.6" r="0.5"/>
							</g>
							<g>
								<path fill="#328BC4" d="M24.8,17.4c-0.4,0-0.8-0.4-0.8-0.8s0.4-0.8,0.8-0.8c0.4,0,0.8,0.4,0.8,0.8S25.2,17.4,24.8,17.4z
									 M24.8,16.4c-0.1,0-0.2,0.1-0.2,0.2c0,0.1,0.1,0.2,0.2,0.2c0.1,0,0.2-0.1,0.2-0.2C25,16.5,24.9,16.4,24.8,16.4z"/>
							</g>
						</g>
					</g>
					<g>
						<g>
							<g>
								<circle fill="#328BC4" cx="27" cy="16.6" r="0.5"/>
							</g>
							<g>
								<path fill="#328BC4" d="M27,17.4c-0.4,0-0.8-0.4-0.8-0.8s0.4-0.8,0.8-0.8s0.8,0.4,0.8,0.8S27.5,17.4,27,17.4z M27,16.4
									c-0.1,0-0.2,0.1-0.2,0.2c0,0.1,0.1,0.2,0.2,0.2s0.2-0.1,0.2-0.2C27.2,16.5,27.1,16.4,27,16.4z"/>
							</g>
						</g>
					</g>
					<g>
						<g>
							<g>
								<circle fill="#328BC4" cx="29.3" cy="16.6" r="0.5"/>
							</g>
							<g>
								<path fill="#328BC4" d="M29.3,17.4c-0.4,0-0.8-0.4-0.8-0.8s0.4-0.8,0.8-0.8c0.4,0,0.8,0.4,0.8,0.8S29.7,17.4,29.3,17.4z
									 M29.3,16.4c-0.1,0-0.2,0.1-0.2,0.2c0,0.1,0.1,0.2,0.2,0.2c0.1,0,0.2-0.1,0.2-0.2C29.5,16.5,29.4,16.4,29.3,16.4z"/>
							</g>
						</g>
					</g>
					<g>
						<g>
							<g>
								<circle fill="#328BC4" cx="31.5" cy="16.6" r="0.5"/>
							</g>
							<g>
								<path fill="#328BC4" d="M31.5,17.4c-0.4,0-0.8-0.4-0.8-0.8s0.4-0.8,0.8-0.8s0.8,0.4,0.8,0.8S32,17.4,31.5,17.4z M31.5,16.4
									c-0.1,0-0.2,0.1-0.2,0.2c0,0.1,0.1,0.2,0.2,0.2s0.2-0.1,0.2-0.2C31.8,16.5,31.7,16.4,31.5,16.4z"/>
							</g>
						</g>
					</g>
					<g>
						<g>
							<g>
								<circle fill="#328BC4" cx="33.8" cy="16.6" r="0.5"/>
							</g>
							<g>
								<path fill="#328BC4" d="M33.8,17.4c-0.4,0-0.8-0.4-0.8-0.8s0.4-0.8,0.8-0.8c0.4,0,0.8,0.4,0.8,0.8S34.2,17.4,33.8,17.4z
									 M33.8,16.4c-0.1,0-0.2,0.1-0.2,0.2c0,0.1,0.1,0.2,0.2,0.2c0.1,0,0.2-0.1,0.2-0.2C34,16.5,33.9,16.4,33.8,16.4z"/>
							</g>
						</g>
					</g>
				</g>
			</g>
		</g>
	</g>
</g>
</svg>
