<?xml version="1.0" encoding="utf-8"?>
<!-- Generator: Adobe Illustrator 18.1.1, SVG Export Plug-In . SVG Version: 6.00 Build 0)  -->
<svg version="1.1" id="圖層_1" xmlns="http://www.w3.org/2000/svg" xmlns:xlink="http://www.w3.org/1999/xlink" x="0px" y="0px"
	 width="1183.7px" height="164.4px" viewBox="0 0 1183.7 164.4" enable-background="new 0 0 1183.7 164.4" xml:space="preserve">
<g>
	<g>
		
			<radialGradient id="SVGID_1_" cx="-2276.8286" cy="-1552.4398" r="99.2701" gradientTransform="matrix(1.7176 0 0 1.3335 4507.2583 2093.5781)" gradientUnits="userSpaceOnUse">
			<stop  offset="0" style="stop-color:#DAC581"/>
			<stop  offset="0.399" style="stop-color:#E8B678"/>
			<stop  offset="0.6552" style="stop-color:#FCFCEE;stop-opacity:0.97"/>
			<stop  offset="0.9852" style="stop-color:#E5B886"/>
		</radialGradient>
		<path fill-rule="evenodd" clip-rule="evenodd" fill="url(#SVGID_1_)" d="M400.6,46.7c-18.5,0-27.2-2.5-30.1-8.7l0-0.1l0-0.1
			c-2.5-8.6-12.1-13.6-12.2-13.6l-1-0.5l0-2.1l1.1-0.5c0.1,0,9.6-4.3,12.1-12.8l0-0.1l0-0.1c2.7-5.9,10.6-8,30.1-8h391.6
			c19.6,0,27.5,2.1,30.2,8l0,0.1l0,0.1C825,16.8,834.6,21,834.7,21l1.1,0.5v2.2l-1,0.5c-0.1,0-9.8,5-12.3,13.6l0,0.1l0,0.1
			c-2.8,6.2-11.6,8.7-30.2,8.7H400.6z"/>
		
			<radialGradient id="SVGID_2_" cx="-2276.8286" cy="-1552.4398" r="98.3343" gradientTransform="matrix(1.7176 0 0 1.3335 4507.2583 2093.5781)" gradientUnits="userSpaceOnUse">
			<stop  offset="0" style="stop-color:#065B9A"/>
			<stop  offset="0.2268" style="stop-color:#065695"/>
			<stop  offset="0.5008" style="stop-color:#054986"/>
			<stop  offset="0.7981" style="stop-color:#04336E"/>
			<stop  offset="1" style="stop-color:#032059"/>
		</radialGradient>
		<path fill-rule="evenodd" clip-rule="evenodd" fill="url(#SVGID_2_)" d="M820.2,8.4c-2.1-4.6-8.4-6.8-28.5-6.8
			c-7.1,0-274.9,0-301,0c-1.7,0-3.4,0-5.2,0c-4.4,0-12,0-24.7,0c-28.2,0-53.2,0-60.7,0c-20.1,0-25.7,2.2-27.8,6.8
			c-2.8,9.4-12.9,13.8-12.9,13.8v0.1v0.1c0,0,10.1,5.4,12.9,14.8c2.1,4.6,7.7,7.8,27.8,7.8c7.6,0,32.6,0,60.7,0
			c12.7,0,20.3,0,24.7,0c3.9,0,5.2,0,5.2,0c26,0,293.9,0,301,0c20.1,0,26.5-3.2,28.5-7.8c2.8-9.4,13.6-14.8,13.6-14.8v-0.1v-0.1
			C833.8,22.3,823,17.9,820.2,8.4z M373.9,25.9l-8.3-3.3l8.3-3.3l8.3,3.3L373.9,25.9z M817.8,25.9l-8.3-3.3l8.3-3.3l8.3,3.3
			L817.8,25.9z"/>
	</g>
	<g>
		<g>
			<path fill="#999999" d="M882.9,164.4H23.7c-13,0-23.6-10.6-23.6-23.6V45.1c0-13,10.6-23.6,23.6-23.6h296.2c1,0,1.8,0.8,1.8,1.8
				s-0.8,1.8-1.8,1.8H23.7c-11,0-20,9-20,20v95.6c0,11,9,20,20,20h859.2c1,0,1.8,0.8,1.8,1.8C884.8,163.5,884,164.4,882.9,164.4z"/>
		</g>
		<g>
			<path fill="#999999" d="M2.8,66.7L2,48.9c0,0-2.7-12.8,10.4-22.5c0,0,21.1-17.4,52.7,3.8C65.1,30.3,1.7,10.6,2.8,66.7z"/>
			<g>
				
					<linearGradient id="SVGID_3_" gradientUnits="userSpaceOnUse" x1="8650.3926" y1="7360.4697" x2="8802.3457" y2="7360.4697" gradientTransform="matrix(-1 0 0 -1 8810.4414 7419.9897)">
					<stop  offset="0" style="stop-color:#A61616"/>
					<stop  offset="1" style="stop-color:#999999"/>
				</linearGradient>
				<path fill="url(#SVGID_3_)" d="M8.1,29C55.6,9.4,108.6,63,115.5,73.4c-21.3,3.3-32,17.7-32,17.7c22.9-7.3,39.7-2.5,39.7-2.5
					c-13.8-1.1-25,15-25,15c20.9-9.3,42.4-4.9,42.4-4.9L160,74.4c-15.1-28.6-12.8-46-12.8-46c-9.3,22.3-5.9,28.2-5.9,28.2
					c-11.3-17.2-13.3-29.6-13.3-29.6c-2.3,16.1-2.1,27.2-1.3,34.4C102,38.8,91,29.2,75.7,22.6C36,6.3,13.7,22.4,8.1,29z"/>
				<g>
					<path fill="#EEE7CA" d="M128.6,102.4c3,26.4,26.8,45.3,53.2,42.3c26.4-3,45.3-26.8,42.3-53.2c-3-26.4-26.8-45.3-53.2-42.3
						C144.5,52.2,125.6,76,128.6,102.4"/>
					<path fill="#271D1B" d="M165.2,105.3c9.5,12.9,6.8,26.4-2.9,29.2c-7.3,2.1-16.7-2.7-22.4-10.4c-5.7-7.7-7.6-18.1-3.4-24.5
						C142,91.1,155.7,92.4,165.2,105.3"/>
					<path fill="#271D1B" d="M174.7,83.3c-15.9,1.8-26.2-7.3-23.8-17.1c1.8-7.4,10.7-13.1,20.3-14.2c9.5-1.1,19.5,2.5,22.9,9.3
						C198.6,70.3,190.6,81.5,174.7,83.3"/>
					<path fill="#CB1716" d="M171.8,100.4c-3.1-4.1-6.4-7.3-9.8-9.7c4,0.9,8.6,1.2,13.7,0.6c5.1-0.6,9.5-1.9,13.3-3.7
						c-2.8,3-5.3,6.9-7.4,11.6c-2.1,4.7-3.1,9.2-3.5,13.3C176.9,108.7,174.8,104.6,171.8,100.4z"/>
					<path fill="#CB1716" d="M218.2,84.9c1,1.1,1.8,2.3,2.5,3.6C218,74.6,209.1,63.2,197.2,57c1.1,1.1,2.1,2.3,3,3.6
						c4,6.5,3,14.4-2.4,20.5C205.3,77.8,213.1,79.1,218.2,84.9 M208.8,72.6l2.1,0.8l-1.8,1.3l-0.8,2.1l-1.3-1.8l-2.1-0.9l1.8-1.3
						l0.8-2.1L208.8,72.6"/>
					<path fill="#CB1716" d="M179.4,123.6c-0.8,8.2-5.9,14.3-13.4,15.8c-1.3,0.3-2.7,0.4-4.1,0.3c6.1,2.1,12.8,2.9,19.6,2.1
						c6.9-0.8,13.3-3.1,18.8-6.5c-1.4,0.4-2.8,0.6-4.2,0.6C188.3,136.1,182,131.3,179.4,123.6 M179.5,137.5l-1.4-1.8l2.2-0.2
						l1.8-1.4l0.2,2.2l1.4,1.8l-2.2,0.2l-1.8,1.4L179.5,137.5"/>
					<path fill="#CB1716" d="M151.8,86.4c-6.7-4.8-9.4-12.2-7-19.5c0.5-1.4,1.1-2.8,2-4c-10.1,8.7-16.1,21.8-15.6,35.9
						c0.4-1.4,0.9-2.8,1.6-4.1C136.5,87.8,143.8,84.8,151.8,86.4 M137.9,79.6l2,0.9l2.2-0.3l-0.9,2l0.3,2.2l-2-0.9l-2.2,0.3l0.9-2
						L137.9,79.6"/>
					<path fill="#271D1B" d="M189,102.5c6.4-14.7,19.4-19,26.7-12.1c5.5,5.3,6,15.8,2.2,24.6c-3.8,8.8-11.9,15.6-19.5,15.2
						C188.3,129.7,182.6,117.2,189,102.5"/>
					<path fill="#109BE0" d="M212.9,96.9c-5-3.8-13-0.3-16.9,8.7c-3.9,8.9-1,17.2,5.2,18.3c5.1,0.9,10.9-3.7,13.7-10.1
						C217.7,107.4,217,100.1,212.9,96.9 M140.7,105.2c-3.3,4-2.3,11.3,1.9,16.9c4.1,5.6,10.8,8.7,15.6,6.7
						c5.8-2.4,6.7-11.1,0.9-18.9C153.3,102,144.7,100.3,140.7,105.2 M157.9,65.4c-0.8,6.2,6.2,11.4,15.9,10.3
						c9.7-1.1,15.4-7.7,13.2-13.6c-1.8-4.9-8.7-7.6-15.6-6.8C164.7,56,158.6,60.2,157.9,65.4"/>
					<g>
						<path fill="#1573B0" d="M212.9,96.9c-5-3.8-13-0.3-16.9,8.7c-3.9,8.9-1,17.2,5.2,18.3c5.1,0.9,10.9-3.7,13.7-10.1
							C217.7,107.4,217,100.1,212.9,96.9 M140.7,105.2c-3.3,4-2.3,11.3,1.9,16.9c4.1,5.6,10.8,8.7,15.6,6.7
							c5.8-2.4,6.7-11.1,0.9-18.9C153.3,102,144.7,100.3,140.7,105.2 M157.9,65.4c-0.8,6.2,6.2,11.4,15.9,10.3
							c9.7-1.1,15.4-7.7,13.2-13.6c-1.8-4.9-8.7-7.6-15.6-6.8C164.7,56,158.6,60.2,157.9,65.4"/>
					</g>
					<path fill="#F2EBE3" d="M176.2,65l-3,1.6l3.4,0.9l2.3,2.2l1.3-2.7l2.9-1.6l-3.5-0.8l-2.1-1.9L176.2,65z M154,122.7
						c-0.4,0.2-0.4,0.9,0,1.5c0.4,0.6,1.1,0.9,1.6,0.6c0.4-0.2,0.5-0.9,0-1.5C155.1,122.8,154.4,122.5,154,122.7z M201.8,112.1
						l-3.1,0.9l1.7,2.4l-0.1,3.3l2.5-2.6l2.7-0.9l-1.3-2.3l0.1-3.4L201.8,112.1z M209.5,101.9c-0.3,0.7-0.2,1.4,0.3,1.7
						c0.4,0.3,1-0.1,1.3-0.7c0.3-0.7,0.2-1.4-0.2-1.7C210.4,100.9,209.8,101.2,209.5,101.9z M206,104.5c0.6-1.4,0.3-3-0.7-3.6
						c-1-0.6-2.4,0.1-3.1,1.6c-0.7,1.5-0.3,3.1,0.8,3.7C204.1,106.7,205.4,105.9,206,104.5z M145.5,106.9l1,3.4l-0.6,2.8l2.6,0
						l2.9,1.8l-0.9-3.4l0.8-3.1l-2.9,0.2L145.5,106.9z M155.1,115.6c-0.9,0.7-1,2.2,0,3.4c0.9,1.2,2.4,1.8,3.4,1.2
						c1-0.6,1.1-2.2,0.2-3.5C157.7,115.4,156,114.9,155.1,115.6z M163.9,65.9c0.7-0.1,1.3-0.6,1.3-1.1c0-0.5-0.6-0.8-1.3-0.7
						c-0.7,0.1-1.3,0.5-1.3,1C162.6,65.6,163.2,66,163.9,65.9z M165.2,70c0,1.2,1.3,2.1,2.9,1.9c1.6-0.2,2.9-1.3,2.8-2.5
						c-0.1-1.1-1.4-1.9-2.9-1.7C166.4,67.8,165.2,68.8,165.2,70z"/>
					
						<radialGradient id="SVGID_4_" cx="8864.8916" cy="6193.3394" r="48.066" gradientTransform="matrix(-0.9701 -0.2425 0.2425 -0.9701 7274.4746 8255.3896)" gradientUnits="userSpaceOnUse">
						<stop  offset="0" style="stop-color:#FEFBCD"/>
						<stop  offset="0.4778" style="stop-color:#FDF9CB"/>
						<stop  offset="0.6499" style="stop-color:#FAF4C4"/>
						<stop  offset="0.7726" style="stop-color:#F5EAB9"/>
						<stop  offset="0.8717" style="stop-color:#EEDCA8"/>
						<stop  offset="0.9557" style="stop-color:#E4CA92"/>
						<stop  offset="1" style="stop-color:#DEBE83"/>
					</radialGradient>
					<path fill="url(#SVGID_4_)" d="M182.2,135.2c-0.5,0.1-1,0.1-1.5,0.2c-0.1,0-0.1,0-0.2,0l-0.2,0.1l-2.2,0.2l1.4,1.8l0.2,2.2
						l1.8-1.4l2.2-0.2l-1.4-1.8L182.2,135.2 M141.4,80.3l-1.5,0.2l-2-0.9l0.3,2.2l-0.9,2l2.2-0.3l0.5,0.2
						C140.4,82.6,140.9,81.5,141.4,80.3 M207.5,70.8l-0.8,2.1l0,0c0.7,0.9,1.4,1.8,2,2.8l0.4-1l1.8-1.3l-2.1-0.8L207.5,70.8
						 M194.8,63c2.8,1.5,5.4,3.4,7.8,5.6c-0.1-2.8-0.9-5.5-2.5-8c-0.8-1.3-1.8-2.5-3-3.6c11.9,6.2,20.8,17.6,23.4,31.5
						c-0.7-1.3-1.5-2.6-2.5-3.6c-2-2.3-4.4-3.8-7-4.7c1.4,2.8,2.4,5.9,3.1,9.1c0.5,0.4,1.1,0.8,1.5,1.3c5.5,5.3,6,15.8,2.2,24.6
						c-3.8,8.8-11.9,15.6-19.5,15.2c-0.7,0-1.4-0.1-2-0.3c-2.7,1.6-5.6,3-8.7,3.9c1.2,0.7,2.5,1.2,3.9,1.5c1.4,0.3,2.9,0.5,4.4,0.5
						c1.4,0,2.8-0.3,4.2-0.6c-5.5,3.4-11.9,5.7-18.8,6.5c-5.4,0.6-10.7,0.2-15.7-1c-1.3-0.3-2.6-0.7-3.9-1.1c1.4,0,2.8-0.1,4.1-0.3
						c3-0.6,5.6-1.9,7.7-3.8c-2.2-0.2-4.3-0.5-6.4-1c-1-0.2-2-0.5-2.9-0.8c-0.6,0.3-1.3,0.6-2,0.8c-2.4,0.7-5,0.7-7.6,0
						c-5.5-1.3-11-5.2-14.9-10.5c-5.7-7.7-7.6-18.1-3.4-24.5c0.4-0.6,0.8-1.1,1.2-1.6c-0.1-3.3,0.2-6.4,0.9-9.5
						c-2.4,1.5-4.3,3.5-5.8,6.2c-0.7,1.3-1.2,2.7-1.6,4.1c-0.6-14.1,5.5-27.2,15.6-35.9c-0.8,1.3-1.5,2.6-2,4
						c-1,2.9-1.1,5.7-0.6,8.5c1.8-2.7,3.9-5.1,6.3-7.2c0-0.6,0.2-1.3,0.3-1.9c1.8-7.4,10.7-13.1,20.3-14.2c3.5-0.4,7.1-0.2,10.4,0.6
						c5.6,1.4,10.4,4.4,12.5,8.7C194.4,61.9,194.6,62.4,194.8,63 M187.7,50.2c-5.3-1.3-11-1.7-16.8-1c-26.4,3-45.3,26.8-42.3,53.2
						C130.9,123,146,139,165,143.7c5.3,1.3,11,1.7,16.8,1c26.4-3,45.3-26.8,42.3-53.2C221.7,70.9,206.7,54.9,187.7,50.2"/>
					<path fill="#130D0C" d="M137.7,97.9c0,1.1,0.1,2.2,0.2,3.4c0.3,2.2,0.7,4.4,1.3,6.5c-0.1,0.2-0.2,0.5-0.2,0.8
						c-1,4,0.4,9.3,3.5,13.5c2.6,3.6,6.3,6.1,9.9,7c1,0.2,1.9,0.3,2.9,0.3c2.8,1.8,5.8,3.3,9,4.3c-0.6,0.3-1.3,0.6-2,0.8
						c-2.4,0.7-5,0.7-7.6,0c-5.5-1.3-11-5.2-14.9-10.5c-5.7-7.7-7.6-18.1-3.4-24.5C136.8,98.9,137.3,98.4,137.7,97.9"/>
					<path fill="#130D0C" d="M181.6,52.6c5.6,1.4,10.4,4.4,12.5,8.7c0.3,0.6,0.5,1.2,0.7,1.7c-2.9-1.6-6.1-2.8-9.4-3.6l0,0
						c-1.6-1.8-4.1-3.1-6.9-3.7c-2.2-0.5-4.6-0.7-7-0.4c-5.5,0.6-10.5,3.4-12.6,7.2c-3,1.5-5.8,3.4-8.3,5.7c0-0.6,0.2-1.3,0.3-1.9
						c1.8-7.4,10.7-13.1,20.3-14.2C174.7,51.6,178.3,51.8,181.6,52.6"/>
					<path fill="#A51A13" d="M197.2,57c11.9,6.2,20.8,17.6,23.4,31.5c-0.7-1.3-1.5-2.6-2.5-3.6c-2-2.3-4.4-3.8-7-4.7
						c-0.7-1.5-1.6-3-2.5-4.4l0.4-1l1.8-1.3l-2.1-0.8l-1.3-1.8l-0.8,2.1l0,0c-1.2-1.5-2.5-3-4-4.3c-0.1-2.8-0.9-5.5-2.5-8
						C199.3,59.3,198.3,58.1,197.2,57"/>
					<path fill="#A51A13" d="M200.2,135.2c-5.5,3.4-11.9,5.7-18.8,6.5c-5.4,0.6-10.7,0.2-15.7-1c-1.3-0.3-2.6-0.7-3.9-1.1
						c1.4,0,2.8-0.1,4.1-0.3c3-0.6,5.6-1.9,7.7-3.8c2.2,0.2,4.5,0.1,6.9-0.1l-0.2,0.1l-2.2,0.2l1.4,1.8l0.2,2.2l1.8-1.4l2.2-0.2
						l-1.4-1.8l-0.1-1.2c1.9-0.3,3.7-0.7,5.4-1.2c1.2,0.7,2.5,1.2,3.9,1.5c1.4,0.3,2.9,0.5,4.4,0.5
						C197.4,135.8,198.8,135.6,200.2,135.2"/>
					<path fill="#A51A13" d="M146.8,62.8c-0.8,1.3-1.5,2.6-2,4c-1,2.9-1.1,5.7-0.6,8.5c-1.1,1.6-2,3.3-2.9,5l-1.5,0.2l-2-0.9
						l0.3,2.2l-0.9,2l2.2-0.3l0.5,0.2c-0.5,1.5-1,3.1-1.4,4.6c-2.4,1.5-4.3,3.5-5.8,6.2c-0.7,1.3-1.2,2.7-1.6,4.1
						C130.7,84.6,136.8,71.6,146.8,62.8"/>
					<path fill="#130D0C" d="M214.2,89.2c0.5,0.4,1.1,0.8,1.5,1.3c5.5,5.3,6,15.8,2.2,24.6c-3.8,8.8-11.9,15.6-19.5,15.2
						c-0.7,0-1.4-0.1-2-0.3c2.9-1.7,5.5-3.8,7.8-6.2c4.3-0.9,8.5-4.8,10.7-10c0.5-1.1,0.9-2.2,1.1-3.4c1-4.1,0.6-8.3-1.1-11.2
						c0.1-2.2,0.1-4.4-0.2-6.6C214.6,91.4,214.4,90.3,214.2,89.2"/>
					<g>
						<path fill="#17628C" d="M139.2,107.8c-0.1,0.2-0.2,0.5-0.2,0.8c-1,4,0.4,9.3,3.5,13.5c2.6,3.6,6.3,6.1,9.9,7
							c1,0.2,1.9,0.3,2.9,0.3C147.7,124.4,141.9,116.9,139.2,107.8 M214.9,99.2c-0.5,9.4-4.5,18.1-10.8,24.6
							c4.3-0.9,8.5-4.8,10.7-10c0.5-1.1,0.9-2.2,1.1-3.4C217,106.3,216.7,102.1,214.9,99.2 M178.6,55.7c-2.2-0.5-4.6-0.7-7-0.4
							c-5.5,0.6-10.5,3.4-12.6,7.2c4-2,8.4-3.3,13-3.9c4.6-0.5,9.2-0.2,13.5,0.8C183.8,57.6,181.4,56.3,178.6,55.7"/>
					</g>
				</g>
				<path fill="#999999" d="M10.7,38.9C1.9,43.4-5.5,127,20.3,149.7c19.2,16.8,49.9,12.9,49.9,12.9s-38.6,0-44,0s-24.5-2.9-24.5-24
					s0-89.7,0-89.7S9.1,37.3,10.7,38.9z"/>
			</g>
		</g>
	</g>
	<g>
		<g>
			<path fill="#999999" d="M1160.3,164.4H301c-1,0-1.8-0.8-1.8-1.8c0-1,0.8-1.8,1.8-1.8h859.2c11,0,20-9,20-20V45.1c0-11-9-20-20-20
				H864.1c-1,0-1.8-0.8-1.8-1.8s0.8-1.8,1.8-1.8h296.2c13,0,23.6,10.6,23.6,23.6v95.6C1183.8,153.8,1173.3,164.4,1160.3,164.4z"/>
		</g>
		<g>
			<path fill="#999999" d="M1181.2,66.7l0.9-17.8c0,0,2.7-12.8-10.4-22.5c0,0-21.1-17.4-52.7,3.8
				C1118.9,30.3,1182.3,10.6,1181.2,66.7z"/>
			<g>
				
					<linearGradient id="SVGID_5_" gradientUnits="userSpaceOnUse" x1="-162.8486" y1="7360.4697" x2="-10.896" y2="7360.4697" gradientTransform="matrix(1 0 0 -1 1186.7935 7419.9897)">
					<stop  offset="0" style="stop-color:#A61616"/>
					<stop  offset="1" style="stop-color:#999999"/>
				</linearGradient>
				<path fill="url(#SVGID_5_)" d="M1175.9,29c-47.5-19.6-100.6,34-107.4,44.4c21.3,3.3,32,17.7,32,17.7
					c-22.9-7.3-39.7-2.5-39.7-2.5c13.8-1.1,25,15,25,15c-20.9-9.3-42.4-4.9-42.4-4.9l-19.5-24.2c15.1-28.6,12.8-46,12.8-46
					c9.3,22.3,5.9,28.2,5.9,28.2c11.3-17.2,13.3-29.6,13.3-29.6c2.3,16.1,2.1,27.2,1.3,34.4c24.8-22.8,35.7-32.3,51-38.9
					C1148,6.3,1170.3,22.4,1175.9,29z"/>
				<g>
					<path fill="#EEE7CA" d="M1055.4,102.4c-3,26.4-26.8,45.3-53.2,42.3c-26.4-3-45.3-26.8-42.3-53.2c3-26.4,26.8-45.3,53.2-42.3
						C1039.5,52.2,1058.4,76,1055.4,102.4"/>
					<path fill="#271D1B" d="M1018.8,105.3c-9.5,12.9-6.8,26.4,2.9,29.2c7.3,2.1,16.7-2.7,22.4-10.4c5.7-7.7,7.6-18.1,3.4-24.5
						C1042,91.1,1028.3,92.4,1018.8,105.3"/>
					<path fill="#271D1B" d="M1009.3,83.3c15.9,1.8,26.2-7.3,23.8-17.1c-1.8-7.4-10.7-13.1-20.3-14.2c-9.5-1.1-19.5,2.5-22.9,9.3
						C985.4,70.3,993.4,81.5,1009.3,83.3"/>
					<path fill="#CB1716" d="M1012.2,100.4c3.1-4.1,6.4-7.3,9.8-9.7c-4,0.9-8.6,1.2-13.7,0.6c-5.1-0.6-9.5-1.9-13.3-3.7
						c2.8,3,5.3,6.9,7.4,11.6c2.1,4.7,3.1,9.2,3.5,13.3C1007.1,108.7,1009.2,104.6,1012.2,100.4z"/>
					<path fill="#CB1716" d="M965.8,84.9c5.1-5.8,12.9-7.1,20.4-3.7c-5.4-6.2-6.4-14-2.4-20.5c0.8-1.3,1.8-2.5,3-3.6
						c-11.9,6.2-20.8,17.6-23.4,31.5C964.1,87.2,964.9,86,965.8,84.9 M975.2,72.6l1.3-1.8l0.8,2.1l1.8,1.3l-2.1,0.9l-1.3,1.8
						l-0.8-2.1l-1.8-1.3L975.2,72.6"/>
					<path fill="#CB1716" d="M1004.6,123.6c-2.6,7.8-8.9,12.5-16.6,12.3c-1.4,0-2.8-0.3-4.2-0.6c5.5,3.4,11.9,5.7,18.8,6.5
						c6.8,0.8,13.5,0,19.6-2.1c-1.4,0-2.8-0.1-4.1-0.3C1010.5,137.8,1005.5,131.7,1004.6,123.6 M1004.5,137.5l-0.2,2.2l-1.8-1.4
						l-2.2-0.2l1.4-1.8l0.2-2.2l1.8,1.4l2.2,0.2L1004.5,137.5"/>
					<path fill="#CB1716" d="M1032.2,86.4c8-1.6,15.3,1.5,19,8.2c0.7,1.3,1.2,2.7,1.6,4.1c0.6-14.1-5.5-27.2-15.6-35.9
						c0.8,1.3,1.5,2.6,2,4C1041.6,74.2,1038.8,81.6,1032.2,86.4 M1046.1,79.6l-0.3,2.2l0.9,2l-2.2-0.3l-2,0.9l0.3-2.2l-0.9-2
						l2.2,0.3L1046.1,79.6"/>
					<path fill="#271D1B" d="M995,102.5c-6.4-14.7-19.4-19-26.7-12.1c-5.5,5.3-6,15.8-2.2,24.6c3.8,8.8,11.9,15.6,19.5,15.2
						C995.7,129.7,1001.4,117.2,995,102.5"/>
					<path fill="#109BE0" d="M971.1,96.9c-4.1,3.2-4.7,10.5-2,16.9c2.8,6.4,8.6,10.9,13.7,10.1c6.2-1,9-9.3,5.2-18.3
						C984.1,96.6,976.1,93.1,971.1,96.9 M1043.3,105.2c-4-4.8-12.6-3.2-18.4,4.7c-5.8,7.8-4.9,16.5,0.9,18.9
						c4.8,2,11.5-1.1,15.6-6.7C1045.6,116.5,1046.6,109.2,1043.3,105.2 M1026.1,65.4c-0.7-5.2-6.7-9.4-13.6-10.1
						c-6.9-0.8-13.7,2-15.6,6.8c-2.2,5.9,3.5,12.5,13.2,13.6C1019.8,76.8,1026.9,71.6,1026.1,65.4"/>
					<g>
						<path fill="#1573B0" d="M971.1,96.9c-4.1,3.2-4.7,10.5-2,16.9c2.8,6.4,8.6,10.9,13.7,10.1c6.2-1,9-9.3,5.2-18.3
							C984.1,96.6,976.1,93.1,971.1,96.9 M1043.3,105.2c-4-4.8-12.6-3.2-18.4,4.7c-5.8,7.8-4.9,16.5,0.9,18.9
							c4.8,2,11.5-1.1,15.6-6.7C1045.6,116.5,1046.6,109.2,1043.3,105.2 M1026.1,65.4c-0.7-5.2-6.7-9.4-13.6-10.1
							c-6.9-0.8-13.7,2-15.6,6.8c-2.2,5.9,3.5,12.5,13.2,13.6C1019.8,76.8,1026.9,71.6,1026.1,65.4"/>
					</g>
					<path fill="#F2EBE3" d="M1006.5,62.7l-2.1,1.9l-3.5,0.8l2.9,1.6l1.3,2.7l2.3-2.2l3.4-0.9l-3-1.6L1006.5,62.7z M1028.5,123.4
						c-0.4,0.6-0.4,1.3,0,1.5c0.4,0.2,1.1-0.1,1.6-0.6c0.4-0.6,0.4-1.2,0-1.5C1029.6,122.5,1028.9,122.8,1028.5,123.4z M979.7,109.6
						l0.1,3.4l-1.3,2.3l2.7,0.9l2.5,2.6l-0.1-3.3l1.7-2.4l-3.1-0.9L979.7,109.6z M973.2,101.1c-0.4,0.3-0.5,1-0.2,1.7
						c0.3,0.7,0.9,1,1.3,0.7c0.4-0.3,0.5-1,0.3-1.7C974.2,101.2,973.6,100.9,973.2,101.1z M981,106.2c1.1-0.5,1.5-2.2,0.8-3.7
						c-0.7-1.5-2-2.2-3.1-1.6c-1,0.6-1.3,2.2-0.7,3.6C978.6,105.9,979.9,106.7,981,106.2z M1035.6,108.7l-2.9-0.2l0.8,3.1l-0.9,3.4
						l2.9-1.8l2.6,0l-0.6-2.8l1-3.4L1035.6,108.7z M1025.4,116.7c-1,1.3-0.9,2.9,0.2,3.5c1,0.6,2.5,0,3.4-1.2c0.9-1.2,0.9-2.7,0-3.4
						C1028,114.9,1026.3,115.4,1025.4,116.7z M1021.4,65.1c0-0.5-0.6-1-1.3-1c-0.7-0.1-1.3,0.2-1.3,0.7c0,0.5,0.6,1,1.3,1.1
						C1020.8,66,1021.4,65.6,1021.4,65.1z M1016,67.6c-1.5-0.2-2.8,0.6-2.9,1.7c-0.1,1.2,1.1,2.3,2.8,2.5c1.6,0.2,2.9-0.7,2.9-1.9
						C1018.8,68.8,1017.5,67.8,1016,67.6z"/>
					
						<radialGradient id="SVGID_6_" cx="314.7793" cy="8330.8154" r="48.066" gradientTransform="matrix(0.9701 -0.2425 -0.2425 -0.9701 2722.7605 8255.3896)" gradientUnits="userSpaceOnUse">
						<stop  offset="0" style="stop-color:#FEFBCD"/>
						<stop  offset="0.4778" style="stop-color:#FDF9CB"/>
						<stop  offset="0.6499" style="stop-color:#FAF4C4"/>
						<stop  offset="0.7726" style="stop-color:#F5EAB9"/>
						<stop  offset="0.8717" style="stop-color:#EEDCA8"/>
						<stop  offset="0.9557" style="stop-color:#E4CA92"/>
						<stop  offset="1" style="stop-color:#DEBE83"/>
					</radialGradient>
					<path fill="url(#SVGID_6_)" d="M1001.8,135.2l-0.1,1.2l-1.4,1.8l2.2,0.2l1.8,1.4l0.2-2.2l1.4-1.8l-2.2-0.2l-0.2-0.1
						c-0.1,0-0.1,0-0.2,0C1002.8,135.3,1002.3,135.2,1001.8,135.2 M1042.6,80.3c0.5,1.1,1,2.3,1.4,3.5l0.5-0.2l2.2,0.3l-0.9-2
						l0.3-2.2l-2,0.9L1042.6,80.3 M976.5,70.8l-1.3,1.8l-2.1,0.8l1.8,1.3l0.4,1c0.6-1,1.3-1.9,2-2.8l0,0L976.5,70.8 M989.2,63
						c0.2-0.6,0.4-1.2,0.7-1.7c2.2-4.3,6.9-7.3,12.5-8.7c3.3-0.8,6.9-1,10.4-0.6c9.5,1.1,18.4,6.8,20.3,14.2
						c0.2,0.6,0.3,1.3,0.3,1.9c2.4,2.1,4.5,4.6,6.3,7.2c0.6-2.7,0.4-5.6-0.6-8.5c-0.5-1.4-1.1-2.8-2-4c10.1,8.7,16.1,21.8,15.6,35.9
						c-0.4-1.4-0.9-2.8-1.6-4.1c-1.4-2.6-3.4-4.7-5.8-6.2c0.7,3.1,1,6.2,0.9,9.5c0.4,0.5,0.9,1,1.2,1.6c4.2,6.4,2.3,16.8-3.4,24.5
						c-3.9,5.2-9.4,9.1-14.9,10.5c-2.6,0.6-5.2,0.7-7.6,0c-0.7-0.2-1.3-0.5-2-0.8c-1,0.3-1.9,0.6-2.9,0.8c-2.1,0.5-4.2,0.8-6.4,1
						c2.1,1.9,4.7,3.2,7.7,3.8c1.3,0.3,2.7,0.4,4.1,0.3c-1.3,0.4-2.6,0.8-3.9,1.1c-5,1.2-10.3,1.6-15.7,1
						c-6.9-0.8-13.3-3.1-18.8-6.5c1.4,0.4,2.8,0.6,4.2,0.6c1.5,0,3-0.1,4.4-0.5c1.4-0.3,2.7-0.8,3.9-1.5c-3.1-0.9-6-2.3-8.7-3.9
						c-0.6,0.2-1.3,0.2-2,0.3c-7.6,0.4-15.7-6.4-19.5-15.2c-3.8-8.8-3.4-19.4,2.2-24.6c0.5-0.5,1-0.9,1.5-1.3
						c0.7-3.2,1.7-6.2,3.1-9.1c-2.6,0.9-5,2.5-7,4.7c-1,1.1-1.8,2.3-2.5,3.6c2.6-13.9,11.6-25.3,23.4-31.5c-1.1,1.1-2.1,2.3-3,3.6
						c-1.6,2.5-2.4,5.3-2.5,8C983.7,66.4,986.4,64.6,989.2,63 M996.3,50.2c-19,4.6-34.1,20.7-36.4,41.3c-3,26.4,16,50.2,42.3,53.2
						c5.8,0.7,11.4,0.3,16.8-1c19-4.6,34.1-20.7,36.4-41.3c3-26.4-16-50.2-42.3-53.2C1007.3,48.6,1001.7,49,996.3,50.2"/>
					<path fill="#130D0C" d="M1046.3,97.9c0,1.1-0.1,2.2-0.2,3.4c-0.3,2.2-0.7,4.4-1.3,6.5c0.1,0.2,0.2,0.5,0.2,0.8
						c1,4-0.4,9.3-3.5,13.5c-2.6,3.6-6.3,6.1-9.9,7c-1,0.2-1.9,0.3-2.9,0.3c-2.8,1.8-5.8,3.3-9,4.3c0.6,0.3,1.3,0.6,2,0.8
						c2.4,0.7,5,0.7,7.6,0c5.5-1.3,11-5.2,14.9-10.5c5.7-7.7,7.6-18.1,3.4-24.5C1047.2,98.9,1046.7,98.4,1046.3,97.9"/>
					<path fill="#130D0C" d="M1002.4,52.6c-5.6,1.4-10.4,4.4-12.5,8.7c-0.3,0.6-0.5,1.2-0.7,1.7c2.9-1.6,6.1-2.8,9.4-3.6l0,0
						c1.6-1.8,4.1-3.1,6.9-3.7c2.2-0.5,4.6-0.7,7-0.4c5.5,0.6,10.5,3.4,12.6,7.2c3,1.5,5.8,3.4,8.3,5.7c0-0.6-0.2-1.3-0.3-1.9
						c-1.8-7.4-10.7-13.1-20.3-14.2C1009.3,51.6,1005.7,51.8,1002.4,52.6"/>
					<path fill="#A51A13" d="M986.8,57c-11.9,6.2-20.8,17.6-23.4,31.5c0.7-1.3,1.5-2.6,2.5-3.6c2-2.3,4.4-3.8,7-4.7
						c0.7-1.5,1.6-3,2.5-4.4l-0.4-1l-1.8-1.3l2.1-0.8l1.3-1.8l0.8,2.1l0,0c1.2-1.5,2.5-3,4-4.3c0.1-2.8,0.9-5.5,2.5-8
						C984.7,59.3,985.7,58.1,986.8,57"/>
					<path fill="#A51A13" d="M983.8,135.2c5.5,3.4,11.9,5.7,18.8,6.5c5.4,0.6,10.7,0.2,15.7-1c1.3-0.3,2.6-0.7,3.9-1.1
						c-1.4,0-2.8-0.1-4.1-0.3c-3-0.6-5.6-1.9-7.7-3.8c-2.2,0.2-4.5,0.1-6.9-0.1l0.2,0.1l2.2,0.2l-1.4,1.8l-0.2,2.2l-1.8-1.4
						l-2.2-0.2l1.4-1.8l0.1-1.2c-1.9-0.3-3.7-0.7-5.4-1.2c-1.2,0.7-2.5,1.2-3.9,1.5c-1.4,0.3-2.9,0.5-4.4,0.5
						C986.6,135.8,985.2,135.6,983.8,135.2"/>
					<path fill="#A51A13" d="M1037.2,62.8c0.8,1.3,1.5,2.6,2,4c1,2.9,1.1,5.7,0.6,8.5c1.1,1.6,2,3.3,2.9,5l1.5,0.2l2-0.9l-0.3,2.2
						l0.9,2l-2.2-0.3l-0.5,0.2c0.5,1.5,1,3.1,1.4,4.6c2.4,1.5,4.3,3.5,5.8,6.2c0.7,1.3,1.2,2.7,1.6,4.1
						C1053.3,84.6,1047.2,71.6,1037.2,62.8"/>
					<path fill="#130D0C" d="M969.8,89.2c-0.5,0.4-1.1,0.8-1.5,1.3c-5.5,5.3-6,15.8-2.2,24.6c3.8,8.8,11.9,15.6,19.5,15.2
						c0.7,0,1.4-0.1,2-0.3c-2.9-1.7-5.5-3.8-7.8-6.2c-4.3-0.9-8.5-4.8-10.7-10c-0.5-1.1-0.9-2.2-1.1-3.4c-1-4.1-0.6-8.3,1.1-11.2
						c-0.1-2.2-0.1-4.4,0.2-6.6C969.4,91.4,969.6,90.3,969.8,89.2"/>
					<g>
						<path fill="#17628C" d="M1044.8,107.8c-2.6,9.1-8.5,16.6-16.1,21.6c0.9,0,1.9-0.1,2.9-0.3c3.6-0.9,7.3-3.4,9.9-7
							c3.1-4.2,4.5-9.5,3.5-13.5C1044.9,108.3,1044.8,108,1044.8,107.8 M969.1,99.2c-1.8,2.9-2.1,7.1-1.1,11.2
							c0.3,1.1,0.7,2.3,1.1,3.4c2.2,5.2,6.5,9.1,10.7,10C973.6,117.3,969.6,108.6,969.1,99.2 M1005.4,55.7c-2.8,0.7-5.2,2-6.9,3.7
							c4.3-1,8.8-1.4,13.5-0.8c4.7,0.5,9.1,1.9,13,3.9c-2.1-3.7-7.1-6.6-12.6-7.2C1010,55,1007.6,55.1,1005.4,55.7"/>
					</g>
				</g>
				<path fill="#999999" d="M1173.3,38.9c8.8,4.5,16.2,88.1-9.6,110.8c-19.2,16.8-49.9,12.9-49.9,12.9s38.6,0,44,0s24.5-2.9,24.5-24
					s0-89.7,0-89.7S1174.9,37.3,1173.3,38.9z"/>
			</g>
		</g>
	</g>
	<g>
		<circle fill="#999999" cx="1156.5" cy="96.8" r="6.4"/>
		<polygon fill="#999999" points="1138.2,90.6 1135.1,92.6 1138.5,94.1 1140.6,97.1 1142,93.8 1145.1,91.7 1141.7,90.2 1139.6,87.2 
					"/>
		<polygon fill="#999999" points="1124.6,105.5 1123.7,109 1127.2,107.9 1130.8,108.9 1129.7,105.4 1130.6,101.8 1127.1,102.9 
			1123.5,102 		"/>
		<path fill="#999999" d="M1117.5,108.4c0,0-0.5-0.8-1.4,0.7c14.5,9.7,15.5,20.6,12.5,26.1c-2.9-2.3-1.7-5.8-3.6-8.7
			c-2.2-3.3-6.4-4-7.7-0.1c-1.3,3.9,2.9,8.6,6.3,9.1c1.8,0.3,2.7,1.3,3.1,2.2c-1.2,1-2.6,1.4-3.9,1.2c-7-1.1-15.5-14.5-15.5-14.5
			s-1,1.5-1.1,3.6c11,17.8,36.4,26.2,42.7,27.4c0,0-4.7-4.9-5.9-9.8C1135.1,113,1117.5,108.4,1117.5,108.4z"/>
		<circle fill="#999999" cx="1163.4" cy="83" r="4.8"/>
		<circle fill="#999999" cx="1138.7" cy="106.2" r="3.8"/>
		<circle fill="#999999" cx="1109" cy="116.1" r="4.9"/>
		<path fill="#999999" d="M1156.8,158.1c-5.4-7.9-15.3-30.3-15.5-46.6c1.5-2.1,3.8-3.2,3.8-3.2s0.6,20.4,7.5,26.2
			c1.8,1.5,4.5,1.7,7.2,0.7c0-1.2-0.5-2.8-2.4-4.1c-3.6-2.4-5.9-10.2-2.2-14c3.7-3.8,8.2-0.6,8.9,4.4c0.6,4.2-2.5,7.6-0.9,11.6
			c6.2-5.1,10.6-17.2,1.8-35.8c2-1.1,3.4-1.7,3.4-1.7s11.8,19.1,7.3,54.2L1156.8,158.1z"/>
	</g>
	<g>
		<circle fill="#999999" cx="31.3" cy="96.8" r="6.4"/>
		<polygon fill="#999999" points="48.2,87.2 46.1,90.2 42.7,91.7 45.8,93.8 47.2,97.1 49.3,94.1 52.7,92.6 49.6,90.6 		"/>
		<polygon fill="#999999" points="64.3,102 60.7,102.9 57.2,101.8 58.1,105.4 57,108.9 60.6,107.9 64.1,109 63.1,105.5 		"/>
		<path fill="#999999" d="M45,145.6c-1.2,5-5.9,9.8-5.9,9.8c6.3-1.2,31.6-9.6,42.7-27.4c-0.1-2-1.1-3.6-1.1-3.6s-8.6,13.4-15.5,14.5
			c-1.4,0.2-2.7-0.3-3.9-1.2c0.4-0.9,1.2-1.9,3.1-2.2c3.3-0.5,7.6-5.2,6.3-9.1c-1.3-3.9-5.6-3.2-7.7,0.1c-1.9,2.9-0.7,6.4-3.6,8.7
			c-3.1-5.6-2.1-16.5,12.5-26.1c-0.9-1.6-1.4-0.7-1.4-0.7S52.7,113,45,145.6z"/>
		<circle fill="#999999" cx="24.4" cy="83" r="4.8"/>
		<circle fill="#999999" cx="49.1" cy="106.2" r="3.8"/>
		<circle fill="#999999" cx="78.8" cy="116.1" r="4.9"/>
		<path fill="#999999" d="M31,158.1c5.4-7.9,15.3-30.3,15.5-46.6c-1.5-2.1-3.8-3.2-3.8-3.2s-0.6,20.4-7.5,26.2
			c-1.8,1.5-4.5,1.7-7.2,0.7c0-1.2,0.5-2.8,2.4-4.1c3.6-2.4,5.9-10.2,2.2-14c-3.7-3.8-8.2-0.6-8.9,4.4c-0.6,4.2,2.5,7.6,0.9,11.6
			c-6.2-5.1-10.6-17.2-1.8-35.8c-2-1.1-3.4-1.7-3.4-1.7S7.6,114.7,12,149.8L31,158.1z"/>
	</g>
</g>
</svg>
