<?xml version="1.0" encoding="utf-8"?>
<!-- Generator: Adobe Illustrator 18.1.1, SVG Export Plug-In . SVG Version: 6.00 Build 0)  -->
<svg version="1.1" id="圖層_1" xmlns="http://www.w3.org/2000/svg" xmlns:xlink="http://www.w3.org/1999/xlink" x="0px" y="0px"
	 width="87.8px" height="99.3px" viewBox="0 0 87.8 99.3" enable-background="new 0 0 87.8 99.3" xml:space="preserve">
<g>
	<g>
		<g>
			<path d="M22.8,47.7c4-7.5,6.1-7.1-1.8-15.1C13.1,24.6,22.8,1,22.8,1C-1.1,18.2,12,44.4,12,44.4c-5.2,0-10.8-14.4-10.8-14.4
				C1.2,57.6,30.1,66,30.1,66S18.8,55.2,22.8,47.7z M19.2,44.4c0,0,1.8-4.1-3.6-7.2c-6.4-3.7-1.8-14.4-1.8-14.4
				c-1.3,8.2,2.7,11.5,5.4,14.4C22,40.1,19.2,44.4,19.2,44.4z M30.1,33.5C19.7,23.2,26.4,8.2,26.4,8.2
				C11.7,25.6,30.1,33.5,30.1,33.5z M77,44.4c0,0,13.1-26.2-10.8-43.3c0,0,9.7,23.6,1.8,31.6c-7.9,8-5.8,7.5-1.8,15.1
				c4,7.5-7.2,18.4-7.2,18.4s28.9-8.4,28.9-36.1C87.8,29.9,82.2,44.4,77,44.4z M73.4,37.1c-5.4,3.2-3.6,7.2-3.6,7.2s-2.7-4.3,0-7.2
				c2.7-2.9,6.7-6.2,5.4-14.4C75.2,22.7,79.8,33.4,73.4,37.1z M62.6,8.2c0,0,6.7,15-3.6,25.3C58.9,33.5,77.3,25.6,62.6,8.2z
				 M48.1,80.5c0,0,5.5-3.6,9.6-13.7c0,0-4.9,3.7-10.4,3.9C47.3,70.7,48.9,76.9,48.1,80.5z M44.5,70.8c-4.6,1.2-12.6-4-12.6-4
				c7.6,7.6,6.4,5,9.9,8.3c3.5,3.3,2.7,12.6,2.7,12.6C48.1,78,45.1,70.6,44.5,70.8z"/>
		</g>
		<path d="M35.2,79.1l0-0.2l-0.2,0c-0.4,0-0.8,0-0.9,0c-0.5,0-1.1,0-1.9,0.1C30,79,28,79.1,26.3,79.1c-2.3,0-6-0.1-10.8-0.2l-0.2,0
			l0,0.2c-0.2,0.8-0.3,1.8-0.4,3.1c-0.2,1.6-0.2,1.9-0.2,2c0,0.4,0.3,0.7,0.7,0.7c0.5,0,0.7-0.5,0.8-0.7c0.4-0.9,0.9-1.7,1.5-2.3
			c0.6-0.6,1.2-0.9,1.9-1.1c0.6-0.1,1.7-0.2,3.1-0.2c0.2,2.6,0.3,6,0.3,10.1c0,2.7,0,4.4-0.1,5.2c-0.1,0.7-0.3,1.3-0.7,1.6
			c-0.4,0.3-1,0.5-1.7,0.5c-0.7,0-0.8,0.5-0.8,0.7c0,0.3,0.2,0.5,0.5,0.6c0.4,0,0.7,0,0.9,0h0l1.8-0.1c0.5,0,1.9,0,4.1,0l2.9,0.1
			l0.4,0c0.4,0,0.7-0.2,0.7-0.6c0-0.2-0.1-0.6-0.8-0.6c-1.3-0.1-1.8-0.3-1.9-0.4c-0.2-0.2-0.4-0.5-0.5-0.9c-0.1-0.4-0.2-1.7-0.3-3.9
			c-0.1-2.2-0.1-4.5-0.1-6.8c0-2.2,0.1-4,0.2-5.5c1.6,0,2.7,0.1,3.4,0.3c0.7,0.2,1.3,0.5,1.8,1.1c0.5,0.6,1,1.2,1.3,2
			c0.3,0.6,0.5,0.8,0.9,0.8c0.2,0,0.7-0.1,0.7-0.8l-0.2-2.4C35.3,80.3,35.2,79.5,35.2,79.1z M78.6,89l-6.5,0.1H70
			c-0.4,0-0.7,0.2-0.7,0.7c0,0.2,0.1,0.6,0.7,0.7c1.1,0.1,1.5,0.3,1.7,0.4c0.2,0.1,0.4,0.4,0.5,0.7c0.1,0.3,0.2,1,0.2,3.1
			c0,0.7-0.1,1.3-0.3,1.6c-0.2,0.4-0.6,0.7-1.3,1c-0.7,0.3-1.4,0.5-2.1,0.5c-1.6,0-3-0.8-4.2-2.5c-1.2-1.7-1.8-3.9-1.8-6.5
			c0-2.4,0.6-4.5,1.7-6.2c1.1-1.7,2.6-2.6,4.5-2.6c1.5,0,2.8,0.5,4,1.5c1.2,1,2.1,2.3,2.8,3.8c0.2,0.4,0.5,0.7,0.8,0.7
			c0.4,0,0.6-0.3,0.6-0.7c0-0.1,0-0.3,0-0.5l-0.4-4.3c0-0.3-0.1-1.1-0.7-1.1c-0.3,0-0.6,0.2-0.7,0.7c0,0.1-0.1,0.3-0.2,0.3
			c-0.1,0-0.3,0-0.5-0.1c-1.2-0.6-2.2-1-3.2-1.3c-0.9-0.3-2-0.5-3.2-0.5c-3.3,0-5.9,1.1-7.8,3.2c-1.9,2.1-2.9,4.7-2.9,7.6
			c0,2.1,0.5,3.9,1.4,5.4c0.9,1.5,2.2,2.7,3.8,3.5c1.5,0.8,3.3,1.2,5.3,1.2c1.2,0,2.3-0.2,3.5-0.4c1.2-0.3,2.3-0.8,3.4-1.4
			c1.7-1,1.7-1,1.8-1.2c0,0,0-0.1,0.1-1.1c0.1-3.7,0.2-4.3,0.3-4.4c0.1-0.2,0.4-0.3,0.8-0.4c1-0.2,1.2-0.3,1.2-0.3
			c0.2-0.1,0.3-0.3,0.3-0.5C79.3,89.2,79,89,78.6,89z M47.9,92.1C47.8,92.1,47.8,92.1,47.9,92.1c-0.5-1.4-1-2.8-1.4-4.2
			c0-0.1,0-0.1-0.1-0.2c0,0,0,0.1,0,0.1c-0.2,0.5-0.3,1-0.5,1.6c-0.3,0.9-0.6,1.8-0.9,2.6c0,0.1,0,0.1-0.1,0.1c-1.4,0-2.9,0-4.3,0
			c0,0,0,0-0.1,0c0,0,0,0,0,0c1.2,0.9,2.3,1.7,3.5,2.6c0,0,0.1,0.1,0,0.1c-0.4,1.4-0.9,2.7-1.3,4.1c0,0,0,0.1,0,0.2
			c1.2-0.9,2.5-1.7,3.7-2.6c1.2,0.9,2.5,1.8,3.7,2.6c0,0,0,0,0,0c-0.4-1.4-0.9-2.8-1.3-4.2c0-0.1,0-0.1,0-0.1
			c1.2-0.9,2.3-1.7,3.5-2.6c0,0,0,0,0.1-0.1c0,0-0.1,0-0.1,0C50.8,92.1,49.3,92.1,47.9,92.1z"/>
	</g>
	<g>
		<g>
			<linearGradient id="SVGID_1_" gradientUnits="userSpaceOnUse" x1="43.4373" y1="86.6861" x2="43.4373" y2="-1.062194e-003">
				<stop  offset="0" style="stop-color:#FEFBCD"/>
				<stop  offset="0.238" style="stop-color:#FCF8CA"/>
				<stop  offset="0.4236" style="stop-color:#F4EEC0"/>
				<stop  offset="0.5914" style="stop-color:#E8DEB0"/>
				<stop  offset="0.7488" style="stop-color:#D6C798"/>
				<stop  offset="0.8974" style="stop-color:#BFA97A"/>
				<stop  offset="1" style="stop-color:#AC9061"/>
			</linearGradient>
			<path fill="url(#SVGID_1_)" d="M21.8,46.6c4-7.5,6.1-7.1-1.8-15.1C12,23.6,21.8,0,21.8,0c-24,17.2-10.8,43.3-10.8,43.3
				c-5.2,0-10.8-14.4-10.8-14.4C0.1,56.6,29,65,29,65S17.8,54.2,21.8,46.6z M18.2,43.3c0,0,1.8-4.1-3.6-7.2
				c-6.4-3.7-1.8-14.4-1.8-14.4c-1.3,8.2,2.7,11.5,5.4,14.4C20.9,39.1,18.2,43.3,18.2,43.3z M29,32.5C18.7,22.2,25.4,7.2,25.4,7.2
				C10.6,24.6,29,32.5,29,32.5z M75.9,43.3c0,0,13.1-26.2-10.8-43.3c0,0,9.7,23.6,1.8,31.6c-7.9,8-5.8,7.5-1.8,15.1
				c4,7.5-7.2,18.4-7.2,18.4s28.9-8.4,28.9-36.1C86.8,28.9,81.1,43.3,75.9,43.3z M72.3,36.1c-5.4,3.2-3.6,7.2-3.6,7.2
				s-2.7-4.3,0-7.2c2.7-2.9,6.7-6.2,5.4-14.4C74.1,21.7,78.7,32.4,72.3,36.1z M61.5,7.2c0,0,6.7,15-3.6,25.3
				C57.9,32.5,76.3,24.6,61.5,7.2z M47,79.5c0,0,5.5-3.6,9.6-13.7c0,0-4.9,3.7-10.4,3.9C46.2,69.7,47.9,75.9,47,79.5z M43.4,69.8
				c-4.6,1.2-12.6-4-12.6-4c7.6,7.6,6.4,5,9.9,8.3c3.5,3.3,2.7,12.6,2.7,12.6C47,77,44.1,69.6,43.4,69.8z"/>
		</g>
		<linearGradient id="SVGID_2_" gradientUnits="userSpaceOnUse" x1="45.8855" y1="77.3601" x2="45.8855" y2="98.3045">
			<stop  offset="0" style="stop-color:#DFD3A2"/>
			<stop  offset="0.2614" style="stop-color:#D3C392"/>
			<stop  offset="0.5683" style="stop-color:#C8B484"/>
			<stop  offset="0.7246" style="stop-color:#B79D6D"/>
			<stop  offset="1" style="stop-color:#926B3C"/>
		</linearGradient>
		<path fill="url(#SVGID_2_)" d="M34.1,78l0-0.2l-0.2,0c-0.4,0-0.8,0-0.9,0c-0.5,0-1.1,0-1.9,0.1c-2.1,0.1-4.1,0.2-5.9,0.2
			c-2.3,0-6-0.1-10.8-0.2l-0.2,0l0,0.2c-0.2,0.8-0.3,1.8-0.4,3.1c-0.2,1.6-0.2,1.9-0.2,2c0,0.4,0.3,0.7,0.7,0.7
			c0.5,0,0.7-0.5,0.8-0.7c0.4-0.9,0.9-1.7,1.5-2.3c0.6-0.6,1.2-0.9,1.9-1.1c0.6-0.1,1.7-0.2,3.1-0.2c0.2,2.6,0.3,6,0.3,10.1
			c0,2.7,0,4.4-0.1,5.2c-0.1,0.7-0.3,1.3-0.7,1.6c-0.4,0.3-1,0.5-1.7,0.5c-0.7,0-0.8,0.5-0.8,0.7c0,0.3,0.2,0.5,0.5,0.6
			c0.4,0,0.7,0,0.9,0h0l1.8-0.1c0.5,0,1.9,0,4.1,0l2.9,0.1l0.4,0c0.4,0,0.7-0.2,0.7-0.6c0-0.2-0.1-0.6-0.8-0.6
			c-1.3-0.1-1.8-0.3-1.9-0.4c-0.2-0.2-0.4-0.5-0.5-0.9c-0.1-0.4-0.2-1.7-0.3-3.9c-0.1-2.2-0.1-4.5-0.1-6.8c0-2.2,0.1-4,0.2-5.5
			c1.6,0,2.7,0.1,3.4,0.3c0.7,0.2,1.3,0.5,1.8,1.1c0.5,0.6,1,1.2,1.3,2c0.3,0.6,0.5,0.8,0.9,0.8c0.2,0,0.7-0.1,0.7-0.8l-0.2-2.4
			C34.3,79.3,34.2,78.5,34.1,78z M77.5,88L71,88.1h-2.1c-0.4,0-0.7,0.2-0.7,0.7c0,0.2,0.1,0.6,0.7,0.7c1.1,0.1,1.5,0.3,1.7,0.4
			c0.2,0.1,0.4,0.4,0.5,0.7c0.1,0.3,0.2,1,0.2,3.1c0,0.7-0.1,1.3-0.3,1.6c-0.2,0.4-0.6,0.7-1.3,1c-0.7,0.3-1.4,0.5-2.1,0.5
			c-1.6,0-3-0.8-4.2-2.5c-1.2-1.7-1.8-3.9-1.8-6.5c0-2.4,0.6-4.5,1.7-6.2c1.1-1.7,2.6-2.6,4.5-2.6c1.5,0,2.8,0.5,4,1.5
			c1.2,1,2.1,2.3,2.8,3.8c0.2,0.4,0.5,0.7,0.8,0.7c0.4,0,0.6-0.3,0.6-0.7c0-0.1,0-0.3,0-0.5l-0.4-4.3c0-0.3-0.1-1.1-0.7-1.1
			c-0.3,0-0.6,0.2-0.7,0.7c0,0.1-0.1,0.3-0.2,0.3c-0.1,0-0.3,0-0.5-0.1c-1.2-0.6-2.2-1-3.2-1.3c-0.9-0.3-2-0.5-3.2-0.5
			c-3.3,0-5.9,1.1-7.8,3.2c-1.9,2.1-2.9,4.7-2.9,7.6c0,2.1,0.5,3.9,1.4,5.4c0.9,1.5,2.2,2.7,3.8,3.5c1.5,0.8,3.3,1.2,5.3,1.2
			c1.2,0,2.3-0.2,3.5-0.4c1.2-0.3,2.3-0.8,3.4-1.4c1.7-1,1.7-1,1.8-1.2c0,0,0-0.1,0.1-1.1c0.1-3.7,0.2-4.3,0.3-4.4
			c0.1-0.2,0.4-0.3,0.8-0.4c1-0.2,1.2-0.3,1.2-0.3c0.2-0.1,0.3-0.3,0.3-0.5C78.2,88.2,77.9,88,77.5,88z M46.8,91.1
			C46.8,91.1,46.7,91,46.8,91.1c-0.5-1.4-1-2.8-1.4-4.2c0-0.1,0-0.1-0.1-0.2c0,0,0,0.1,0,0.1c-0.2,0.5-0.3,1-0.5,1.6
			c-0.3,0.9-0.6,1.8-0.9,2.6c0,0.1,0,0.1-0.1,0.1c-1.4,0-2.9,0-4.3,0c0,0,0,0-0.1,0c0,0,0,0,0,0c1.2,0.9,2.3,1.7,3.5,2.6
			c0,0,0.1,0.1,0,0.1c-0.4,1.4-0.9,2.7-1.3,4.1c0,0,0,0.1,0,0.2c1.2-0.9,2.5-1.7,3.7-2.6c1.2,0.9,2.5,1.8,3.7,2.6c0,0,0,0,0,0
			c-0.4-1.4-0.9-2.8-1.3-4.2c0-0.1,0-0.1,0-0.1c1.2-0.9,2.3-1.7,3.5-2.6c0,0,0,0,0.1-0.1c0,0-0.1,0-0.1,0
			C49.7,91.1,48.2,91.1,46.8,91.1z"/>
	</g>
	<g>
		<path fill="#EEE7CA" d="M60.9,43.2c-3.5-9.4-14-14.1-23.3-10.6c-9.4,3.5-14.1,14-10.6,23.3c3.5,9.4,14,14.1,23.3,10.6
			C59.7,63,64.5,52.6,60.9,43.2"/>
		<path fill="#271D1B" d="M47.3,45.5c-4.7-3.8-4.9-9-1.6-11c2.5-1.5,6.4-0.5,9.2,1.8c2.8,2.3,4.4,5.9,3.5,8.7
			C57.1,48.6,51.9,49.4,47.3,45.5"/>
		<path fill="#271D1B" d="M45.8,54.4c5.7-2.1,10.3,0.3,10.3,4.1c0,2.9-2.7,5.8-6.1,7.1c-3.4,1.3-7.4,0.9-9.2-1.3
			C38.2,61.4,40.1,56.5,45.8,54.4"/>
		<path fill="#CB1716" d="M45.3,47.9c1.5,1.2,3,2.1,4.5,2.6c-1.6,0-3.3,0.4-5.1,1c-1.8,0.7-3.3,1.6-4.5,2.6c0.7-1.4,1.3-3,1.6-4.9
			c0.3-1.9,0.3-3.7,0-5.2C42.7,45.3,43.8,46.6,45.3,47.9z"/>
		<path fill="#CB1716" d="M29.8,57.8c-0.5-0.3-0.9-0.7-1.2-1.1c2.2,4.9,6.5,8.2,11.5,9.4c-0.5-0.3-1-0.6-1.4-1.1c-2.1-2-2.4-5-1-7.7
			C35.1,59.2,32.1,59.5,29.8,57.8 M34.3,61.4l-0.8-0.1l0.6-0.6l0.1-0.8l0.6,0.6l0.8,0.1l-0.6,0.6L34.9,62L34.3,61.4"/>
		<path fill="#CB1716" d="M40.4,40.1c-0.4-3.1,0.8-5.8,3.5-7c0.5-0.2,1-0.4,1.5-0.5c-2.4-0.2-4.9,0.1-7.4,1
			c-2.5,0.9-4.6,2.3-6.3,4.1c0.5-0.3,1-0.5,1.5-0.6C36,36.3,38.7,37.5,40.4,40.1 M39.1,35l0.7,0.5L39,35.8l-0.5,0.7l-0.3-0.8
			l-0.7-0.5l0.8-0.3l0.5-0.7L39.1,35"/>
		<path fill="#CB1716" d="M53.9,51.2c2.9,1.1,4.6,3.6,4.3,6.5c0,0.6-0.2,1.1-0.3,1.7c2.9-4.1,3.9-9.5,2.4-14.6
			c0,0.6-0.1,1.1-0.2,1.7C59.4,49.3,57,51,53.9,51.2 M59.6,52.4l-0.8-0.2L58,52.6l0.2-0.8l-0.3-0.8l0.8,0.2l0.8-0.3l-0.2,0.8
			L59.6,52.4"/>
		<path fill="#271D1B" d="M38.8,48.7c-1,6-5.4,8.7-8.7,6.9c-2.5-1.4-3.6-5.2-3-8.8c0.6-3.6,2.9-6.8,5.8-7.4
			C36.6,38.7,39.8,42.7,38.8,48.7"/>
		<path fill="#109BE0" d="M30.6,52.9c2.2,0.9,4.8-1.1,5.4-4.7c0.6-3.6-1.2-6.4-3.6-6.2c-2,0.2-3.7,2.4-4.1,4.9
			C27.9,49.5,28.8,52.2,30.6,52.9 M56.3,43.3c0.8-1.8-0.2-4.3-2.2-6c-2-1.7-4.7-2.2-6.3-1c-1.9,1.4-1.4,4.7,1.4,7
			C51.9,45.6,55.2,45.4,56.3,43.3 M53.6,59.4c-0.3-2.3-3.3-3.6-6.8-2.3c-3.4,1.3-4.9,4.2-3.6,6.2c1.1,1.6,3.9,2,6.3,1.1
			C52,63.5,53.8,61.4,53.6,59.4"/>
		<path fill="#1573B0" d="M30.6,52.9c2.2,0.9,4.8-1.1,5.4-4.7c0.6-3.6-1.2-6.4-3.6-6.2c-2,0.2-3.7,2.4-4.1,4.9
			C27.9,49.5,28.8,52.2,30.6,52.9 M56.3,43.3c0.8-1.8-0.2-4.3-2.2-6c-2-1.7-4.7-2.2-6.3-1c-1.9,1.4-1.4,4.7,1.4,7
			C51.9,45.6,55.2,45.4,56.3,43.3 M53.6,59.4c-0.3-2.3-3.3-3.6-6.8-2.3c-3.4,1.3-4.9,4.2-3.6,6.2c1.1,1.6,3.9,2,6.3,1.1
			C52,63.5,53.8,61.4,53.6,59.4"/>
		<path fill="#F2EBE3" d="M46.9,61.3l1-0.9l-1.3,0l-1-0.6l-0.2,1.1l-0.9,0.9l1.4,0l1,0.5L46.9,61.3z M49.8,38.1
			c0.1-0.1,0.1-0.4-0.1-0.5c-0.2-0.2-0.5-0.2-0.6-0.1c-0.1,0.1-0.1,0.4,0.1,0.5C49.4,38.2,49.7,38.2,49.8,38.1z M33.3,46.4l1.1-0.6
			L33.5,45l-0.3-1.2L32.5,45l-0.9,0.6l0.7,0.7l0.3,1.3L33.3,46.4z M31.4,50.8c0-0.3-0.1-0.5-0.2-0.6c-0.2-0.1-0.4,0.1-0.4,0.4
			c0,0.3,0.1,0.5,0.2,0.6C31.1,51.3,31.3,51.1,31.4,50.8z M32.4,49.5c-0.1,0.6,0.2,1.1,0.6,1.3c0.4,0.1,0.9-0.3,1-0.9
			c0.1-0.6-0.2-1.2-0.6-1.3C32.9,48.6,32.5,48.9,32.4,49.5z M54.3,43.1l-0.7-1.2l0-1.1l-1,0.3l-1.2-0.4l0.7,1.2l0,1.2l1.1-0.3
			L54.3,43.1z M50,40.8c0.3-0.3,0.2-0.9-0.3-1.2c-0.4-0.4-1.1-0.4-1.4-0.1c-0.3,0.3-0.2,0.9,0.3,1.3C49.1,41.1,49.7,41.1,50,40.8z
			 M51.4,59.8c-0.3,0.1-0.4,0.3-0.4,0.5c0,0.2,0.3,0.2,0.5,0.2c0.3-0.1,0.4-0.3,0.4-0.5C51.9,59.8,51.6,59.7,51.4,59.8z M50.5,58.4
			c-0.1-0.4-0.7-0.6-1.2-0.4c-0.6,0.2-0.9,0.7-0.8,1.2c0.1,0.4,0.7,0.6,1.2,0.4C50.2,59.3,50.6,58.8,50.5,58.4z"/>
		
			<radialGradient id="SVGID_3_" cx="275.2935" cy="73.7118" r="18.1354" gradientTransform="matrix(0.9973 7.352600e-002 -7.352600e-002 0.9973 -225.1687 -44.1884)" gradientUnits="userSpaceOnUse">
			<stop  offset="0" style="stop-color:#FEFBCD"/>
			<stop  offset="0.4778" style="stop-color:#FDF9CB"/>
			<stop  offset="0.6499" style="stop-color:#FAF4C4"/>
			<stop  offset="0.7726" style="stop-color:#F5EAB9"/>
			<stop  offset="0.8717" style="stop-color:#EEDCA8"/>
			<stop  offset="0.9557" style="stop-color:#E4CA92"/>
			<stop  offset="1" style="stop-color:#DEBE83"/>
		</radialGradient>
		<path fill="url(#SVGID_3_)" d="M38.3,36.1c0.2-0.1,0.4-0.1,0.5-0.2c0,0,0,0,0.1,0l0.1-0.1l0.8-0.3L39.1,35l-0.3-0.8l-0.5,0.7
			l-0.8,0.3l0.7,0.5L38.3,36.1 M58.3,52.5l0.5-0.2l0.8,0.2l-0.3-0.8l0.2-0.8l-0.8,0.3l-0.2,0C58.4,51.5,58.3,52,58.3,52.5 M34.9,62
			l0.1-0.8l0,0c-0.3-0.3-0.7-0.5-1-0.8L34,60.7l-0.6,0.6l0.8,0.1L34.9,62 M40.3,63.7c-1.2-0.3-2.3-0.8-3.4-1.3
			c0.3,1,0.8,1.9,1.6,2.7c0.4,0.4,0.9,0.8,1.4,1.1c-4.9-1.2-9.2-4.5-11.5-9.4c0.4,0.4,0.8,0.8,1.2,1.1c0.9,0.6,2,1,3,1.1
			c-0.8-0.9-1.4-1.9-1.9-3c-0.2-0.1-0.5-0.2-0.7-0.3c-2.5-1.4-3.6-5.2-3-8.8c0.6-3.6,2.9-6.8,5.8-7.4c0.3,0,0.5-0.1,0.8-0.1
			c0.8-0.8,1.8-1.6,2.8-2.2c-0.5-0.1-1-0.2-1.6-0.2c-0.5,0-1.1,0.1-1.7,0.2c-0.5,0.1-1,0.4-1.5,0.6c1.7-1.8,3.8-3.2,6.3-4.1
			c1.9-0.7,3.9-1.1,5.8-1.1c0.5,0,1,0,1.5,0.1c-0.5,0.1-1,0.3-1.5,0.5c-1,0.5-1.9,1.2-2.5,2.1c0.8-0.1,1.6-0.2,2.4-0.2
			c0.4,0,0.8,0,1.2,0c0.2-0.2,0.4-0.3,0.6-0.5c0.8-0.5,1.8-0.7,2.8-0.7c2.1,0,4.5,0.9,6.4,2.5c2.8,2.3,4.4,5.9,3.5,8.7
			c-0.1,0.2-0.2,0.5-0.3,0.7c0.3,1.2,0.5,2.4,0.5,3.6c0.7-0.7,1.3-1.7,1.5-2.8c0.1-0.5,0.2-1.1,0.2-1.7c1.5,5.1,0.5,10.4-2.4,14.6
			c0.2-0.5,0.3-1.1,0.3-1.7c0.1-1.1-0.1-2.2-0.6-3.2c-0.4,1.1-1,2.2-1.6,3.2c0,0.2,0.1,0.5,0.1,0.7c0,2.9-2.7,5.8-6.1,7.1
			c-1.3,0.5-2.6,0.7-3.9,0.7c-2.2,0-4.2-0.6-5.4-2C40.6,64.1,40.4,63.9,40.3,63.7 M44.1,67.7c2.1,0,4.2-0.4,6.2-1.2
			c9.4-3.5,14.1-14,10.6-23.3c-2.7-7.3-9.7-11.8-17.1-11.8c-2.1,0-4.2,0.4-6.2,1.2c-9.4,3.5-14.1,14-10.6,23.3
			C29.7,63.2,36.7,67.8,44.1,67.7"/>
		<path fill="#130D0C" d="M58,45.7c-0.1-0.4-0.2-0.8-0.4-1.2c-0.3-0.8-0.7-1.5-1.1-2.3c0-0.1,0-0.2,0-0.3c0-1.6-1-3.4-2.5-4.6
			c-1.3-1.1-2.9-1.7-4.3-1.7c-0.4,0-0.7,0.1-1.1,0.1c-1.2-0.4-2.4-0.7-3.7-0.8c0.2-0.2,0.4-0.3,0.6-0.5c0.8-0.5,1.8-0.7,2.8-0.7
			c2.1,0,4.5,0.9,6.4,2.5c2.8,2.3,4.4,5.9,3.5,8.7C58.2,45.2,58.1,45.5,58,45.7"/>
		<path fill="#130D0C" d="M46.1,66.3c-2.2,0-4.2-0.6-5.4-2c-0.2-0.2-0.3-0.4-0.4-0.6c1.2,0.3,2.5,0.5,3.8,0.5l0,0
			c0.8,0.5,1.8,0.7,2.9,0.7c0.8,0,1.7-0.2,2.6-0.5c2-0.7,3.5-2.2,4-3.8c1-0.8,1.8-1.8,2.5-2.8c0,0.2,0.1,0.5,0.1,0.7
			c0,2.9-2.7,5.8-6.1,7.1C48.7,66,47.4,66.3,46.1,66.3"/>
		<path fill="#A51A13" d="M40,66.1c-4.9-1.2-9.2-4.5-11.5-9.4c0.4,0.4,0.8,0.8,1.2,1.1c0.9,0.6,2,1,3,1.1c0.4,0.5,0.9,1,1.3,1.4
			L34,60.7l-0.6,0.6l0.8,0.1l0.6,0.6l0.1-0.8l0,0c0.6,0.4,1.2,0.9,1.8,1.2c0.3,1,0.8,1.9,1.6,2.7C39,65.5,39.5,65.8,40,66.1"/>
		<path fill="#A51A13" d="M31.7,37.7c1.7-1.8,3.8-3.2,6.3-4.1c1.9-0.7,3.9-1.1,5.8-1.1c0.5,0,1,0,1.5,0.1c-0.5,0.1-1,0.3-1.5,0.5
			c-1,0.5-1.9,1.2-2.5,2.1c-0.8,0.1-1.7,0.4-2.5,0.7l0.1-0.1l0.8-0.3L39.1,35l-0.3-0.8l-0.5,0.7l-0.8,0.3l0.7,0.5l0.2,0.4
			c-0.7,0.3-1.3,0.6-1.9,0.9c-0.5-0.1-1-0.2-1.6-0.2c-0.5,0-1.1,0.1-1.7,0.2C32.7,37.3,32.2,37.5,31.7,37.7"/>
		<path fill="#A51A13" d="M57.9,59.4c0.2-0.5,0.3-1.1,0.3-1.7c0.1-1.1-0.1-2.2-0.6-3.2c0.2-0.7,0.4-1.4,0.6-2.1l0.5-0.2l0.8,0.2
			l-0.3-0.8l0.2-0.8l-0.8,0.3l-0.2,0c0.1-0.6,0.1-1.2,0.1-1.8c0.7-0.7,1.3-1.7,1.5-2.8c0.1-0.5,0.2-1.1,0.2-1.7
			C61.8,49.9,60.8,55.2,57.9,59.4"/>
		<path fill="#130D0C" d="M30.8,55.9c-0.2-0.1-0.5-0.2-0.7-0.3c-2.5-1.4-3.6-5.2-3-8.8c0.6-3.6,2.9-6.8,5.8-7.4
			c0.3,0,0.5-0.1,0.8-0.1c-0.9,0.9-1.7,1.9-2.3,3c-1.5,0.7-2.7,2.5-3,4.6c-0.1,0.4-0.1,0.9-0.1,1.3c0,1.6,0.5,3.1,1.4,4
			c0.2,0.8,0.4,1.6,0.7,2.4C30.5,55.1,30.6,55.5,30.8,55.9"/>
		<path fill="#17628C" d="M56.5,42.2c0-0.1,0-0.2,0-0.3c0-1.6-1-3.4-2.5-4.6c-1.3-1.1-2.9-1.7-4.3-1.7c-0.4,0-0.7,0.1-1.1,0.1
			C51.9,36.9,54.8,39.1,56.5,42.2 M29.6,52.3c-0.7-3.5,0-7,1.7-10c-1.5,0.7-2.7,2.5-3,4.6c-0.1,0.4-0.1,0.9-0.1,1.3
			C28.2,49.9,28.7,51.4,29.6,52.3 M46.9,64.9c0.8,0,1.7-0.2,2.6-0.5c2-0.7,3.5-2.2,4-3.8c-1.3,1.1-2.8,2-4.4,2.6
			c-1.6,0.6-3.3,0.9-5,0.9C44.8,64.6,45.8,64.9,46.9,64.9"/>
	</g>
</g>
</svg>
