<?xml version="1.0" encoding="utf-8"?>
<!-- Generator: Adobe Illustrator 18.1.1, SVG Export Plug-In . SVG Version: 6.00 Build 0)  -->
<svg version="1.1" id="圖層_1" xmlns="http://www.w3.org/2000/svg" xmlns:xlink="http://www.w3.org/1999/xlink" x="0px" y="0px"
	 viewBox="0 0 483.6 65.6" enable-background="new 0 0 483.6 65.6" xml:space="preserve">
<g>
	<g opacity="0.6">
		<polygon fill="#0071BC" points="62.7,19.6 67.9,20.1 65.4,15.4 67.5,13.7 64.9,12.9 65.4,7.7 60.7,10.1 59,8.1 58.2,10.6 53,10.2 
			55.4,14.8 53.4,16.6 55.9,17.4 55.5,22.6 60.1,20.1 61.9,22.2 		"/>
		<polygon fill="#0071BC" points="48.6,2.4 47.2,-0.1 45.9,2.4 43.3,3.8 45.9,5.2 47.2,7.7 48.6,5.2 51.1,3.8 		"/>
		<path fill="#0071BC" d="M47,20.6c0,0,0.9-0.7-1.1-1.4c-8.1,18.4-20.2,21.6-27.1,19.3c2-3.7,6.3-3.1,9.1-5.8
			c3.3-3.1,3.3-8.1-1.4-8.8c-4.7-0.7-9.1,5-9,8.9c0,2.1-1,3.3-1.9,3.9c-1.3-1.2-2.2-2.6-2.2-4.2C13.3,24.4,26.8,12,26.8,12
			s-1.9-0.8-4.2-0.6C4.6,27.5,0.1,57.8,0,65.2c0,0,4.6-6.3,10-8.6C45.3,41.4,47,20.6,47,20.6z"/>
		<circle fill="#0071BC" cx="34.7" cy="15.1" r="6.3"/>
		<circle fill="#0071BC" cx="64.2" cy="35.8" r="3.8"/>
		<path fill="#0071BC" d="M46.2,48.5c-0.8,1.3-1.7,2.5-2.7,3.7c-0.9,1.2-1.9,2.3-2.9,3.4c-2,2.1-4,3.9-5.8,5.3
			c-1.8,1.4-3.5,2.5-4.7,3.2c-0.6,0.4-1.1,0.6-1.5,0.8c-0.1,0-0.2,0.1-0.3,0.1c-0.1,0-0.2,0.1-0.2,0.1C28,65.2,28,65.2,28,65.2
			c-2.9,1-5.7-0.7-6.2-3.8c-0.5-3.1,1.5-6.4,4.5-7.4c0,0,0.1,0,0.1,0c0,0,0,0,0,0c0,0,0.1,0,0.1,0c0.2,0,0.5-0.1,1-0.2
			c0.9-0.2,2.2-0.7,3.8-1.3c1.6-0.7,3.4-1.6,5.3-2.9c1-0.6,1.9-1.3,2.9-2.1c1-0.8,1.9-1.6,2.9-2.5c0.9-0.9,1.8-1.8,2.7-2.8
			c0.9-1,1.7-2,2.4-3c0.8-1,1.5-2,2.1-3c0.2-0.2,0.3-0.5,0.5-0.7c0.1-0.2,0.3-0.5,0.4-0.7c0.3-0.5,0.6-0.9,0.8-1.4
			c0.5-0.9,1-1.8,1.3-2.5c0.4-0.8,0.7-1.4,0.9-2c0.5-1.1,0.8-1.8,0.8-1.8s-0.1,0.7-0.3,1.9c-0.1,0.6-0.3,1.3-0.5,2.2
			c-0.2,0.8-0.4,1.8-0.7,2.8c-0.1,0.5-0.3,1-0.5,1.6c-0.1,0.3-0.2,0.6-0.3,0.8c-0.1,0.3-0.2,0.6-0.3,0.9c-0.4,1.2-0.9,2.4-1.5,3.7
			c-0.6,1.3-1.2,2.6-1.9,3.9C47.8,45.9,47,47.2,46.2,48.5z M28.4,57.5c-1-0.5-2.3-0.1-2.9,1.1c-0.7,1.1-0.4,2.5,0.5,3.1
			c1,0.5,2.3,0.1,2.9-1.1C29.6,59.4,29.4,58.1,28.4,57.5z"/>
		<path fill="#0071BC" d="M68.9,51c-0.1-0.5-2.1-0.4-4.9,0.1c-1.2-2.5-4.1-3.8-6.8-3.1c-2.8,0.7-4.5,3.3-4.4,6.1
			c-2.7,1-4.4,1.9-4.3,2.4c0.1,0.5,2.1,0.4,4.9-0.1c1.2,2.5,4.1,3.8,6.8,3.1c2.8-0.7,4.5-3.3,4.4-6.1C67.4,52.4,69.1,51.5,68.9,51z"
			/>
	</g>
	<g opacity="0.6">
		<polygon fill="#0071BC" points="421,19.6 415.8,20.1 418.2,15.4 416.1,13.7 418.7,12.9 418.3,7.7 422.9,10.1 424.6,8.1 
			425.4,10.6 430.7,10.2 428.2,14.8 430.3,16.6 427.7,17.4 428.1,22.6 423.5,20.1 421.8,22.2 		"/>
		<polygon fill="#0071BC" points="435,2.4 436.4,-0.1 437.8,2.4 440.3,3.8 437.8,5.2 436.4,7.7 435,5.2 432.5,3.8 		"/>
		<path fill="#0071BC" d="M436.6,20.6c0,0-0.9-0.7,1.1-1.4c8.1,18.4,20.2,21.6,27.1,19.3c-2-3.7-6.3-3.1-9.1-5.8
			c-3.3-3.1-3.3-8.1,1.4-8.8c4.7-0.7,9.1,5,9,8.9c0,2.1,1,3.3,1.9,3.9c1.3-1.2,2.2-2.6,2.2-4.2c0.2-8.1-13.3-20.5-13.3-20.5
			s1.9-0.8,4.2-0.6c17.9,16,22.4,46.4,22.6,53.7c0,0-4.6-6.3-10-8.6C438.3,41.4,436.6,20.6,436.6,20.6z"/>
		<circle fill="#0071BC" cx="448.9" cy="15.1" r="6.3"/>
		<circle fill="#0071BC" cx="419.4" cy="35.8" r="3.8"/>
		<path fill="#0071BC" d="M435.2,44.6c-0.7-1.3-1.3-2.6-1.9-3.9c-0.6-1.3-1-2.5-1.5-3.7c-0.1-0.3-0.2-0.6-0.3-0.9
			c-0.1-0.3-0.2-0.6-0.3-0.8c-0.2-0.6-0.4-1.1-0.5-1.6c-0.3-1-0.5-2-0.7-2.8c-0.2-0.8-0.4-1.6-0.5-2.2c-0.2-1.2-0.3-1.9-0.3-1.9
			s0.3,0.6,0.8,1.8c0.2,0.6,0.6,1.2,0.9,2c0.4,0.8,0.8,1.6,1.3,2.5c0.2,0.5,0.5,0.9,0.8,1.4c0.1,0.2,0.3,0.5,0.4,0.7
			c0.2,0.2,0.3,0.5,0.5,0.7c0.6,1,1.3,2,2.1,3c0.8,1,1.6,2,2.4,3c0.9,1,1.8,1.9,2.7,2.8c0.9,0.9,1.9,1.7,2.9,2.5
			c1,0.8,1.9,1.5,2.9,2.1c1.9,1.3,3.8,2.2,5.3,2.9c1.6,0.7,2.9,1.1,3.8,1.3c0.4,0.1,0.8,0.2,1,0.2c0,0,0.1,0,0.1,0c0,0,0,0,0,0
			c0,0,0.1,0,0.1,0c2.9,1,5,4.3,4.5,7.4c-0.5,3.1-3.2,4.8-6.2,3.8c0,0,0,0-0.2-0.1c-0.1,0-0.1-0.1-0.2-0.1c-0.1,0-0.2-0.1-0.3-0.1
			c-0.4-0.2-0.9-0.5-1.5-0.8c-1.2-0.7-2.8-1.8-4.7-3.2c-1.8-1.4-3.8-3.2-5.8-5.3c-1-1-2-2.2-2.9-3.4c-0.9-1.2-1.8-2.4-2.7-3.7
			C436.6,47.2,435.9,45.9,435.2,44.6z M454.6,60.6c0.7,1.1,2,1.6,2.9,1.1c1-0.5,1.2-1.9,0.5-3.1c-0.7-1.1-2-1.6-2.9-1.1
			C454.2,58.1,454,59.4,454.6,60.6z"/>
		<path fill="#0071BC" d="M414.7,51c0.1-0.5,2.1-0.4,4.9,0.1c1.2-2.5,4.1-3.8,6.8-3.1c2.8,0.7,4.5,3.3,4.4,6.1
			c2.7,1,4.4,1.9,4.3,2.4c-0.1,0.5-2.1,0.4-4.9-0.1c-1.2,2.5-4.1,3.8-6.8,3.1c-2.8-0.7-4.5-3.3-4.4-6.1
			C416.3,52.4,414.6,51.5,414.7,51z"/>
	</g>
</g>
</svg>
