<?xml version="1.0" encoding="utf-8"?>
<!-- Generator: Adobe Illustrator 22.0.1, SVG Export Plug-In . SVG Version: 6.00 Build 0)  -->
<svg version="1.1" id="圖層_1" xmlns="http://www.w3.org/2000/svg" xmlns:xlink="http://www.w3.org/1999/xlink" x="0px" y="0px"
	 width="52px" height="64px" viewBox="0 0 52 64" style="enable-background:new 0 0 52 64;" xml:space="preserve">
<style type="text/css">
	.st0{fill:#6A3906;}
</style>
<g>
	<g>
		<g>
			<g>
				<path class="st0" d="M33.8,29.9c-0.6-0.6-1.4-1.1-2.2-1.5s-1.7-0.5-2.7-0.5c-0.9,0-1.8,0.2-2.7,0.5c-0.8,0.3-1.5,0.8-2.2,1.5
					c-0.6,0.6-1.1,1.4-1.5,2.2S22,33.8,22,34.8c0,0.9,0.2,1.8,0.5,2.7c0.3,0.8,0.8,1.5,1.5,2.2c0.6,0.6,1.4,1.1,2.2,1.5
					c0.8,0.4,1.7,0.5,2.7,0.5c0.9,0,1.8-0.2,2.7-0.5c0.8-0.3,1.5-0.8,2.2-1.5c0.6-0.6,1.1-1.4,1.5-2.2s0.5-1.7,0.5-2.7
					c0-0.9-0.2-1.8-0.5-2.7C34.9,31.3,34.4,30.5,33.8,29.9L33.8,29.9z M25.2,29.4c0.1,0,0.1-0.1,0.2-0.1c0.3-0.2,0.7-0.4,1.1-0.6
					c0.8-0.3,1.7-0.5,2.5-0.5c0.6,0,1.2,0.1,1.7,0.2c-0.2,0.1-0.5,0.3-0.9,0.6c-0.4,0-0.8,0-1.1,0c-0.5,0-1,0.2-1.5,0.3
					c-0.4,0.2-0.8,0.3-1,0.5C25.8,29.7,25.4,29.5,25.2,29.4C25.1,29.5,25.1,29.5,25.2,29.4L25.2,29.4z M31.4,31.1l-1.2,3.2l-2.8,0.5
					l-2.3-2.4c0.2-1.1,0.9-2,0.9-2s0.5-0.4,1.3-0.6c0.5-0.2,0.9-0.3,1.4-0.3c0.4,0,0.7,0,1.1,0L31.4,31.1z M22.7,34.5
					c-0.1,0.5-0.1,0.9-0.1,1.4c-0.1-0.1-0.1-0.2-0.1-0.3c0-0.3-0.1-0.6-0.1-0.9c0-1,0.2-1.9,0.6-2.7c0,0.4,0,0.9,0,1.2
					C22.9,33.6,22.8,34.1,22.7,34.5L22.7,34.5z M23.2,37c-0.1-0.2-0.1-0.6-0.2-1c0-0.5,0-1,0-1.4c0.1-0.3,0.1-0.7,0.3-1
					c0.5-0.4,1.1-0.6,1.4-0.7l2.3,2.3l-0.2,2.6l-2.2,0.7C24.1,38,23.6,37.5,23.2,37L23.2,37z M30,40.7c-0.5,0.3-1.7,0.4-2.2,0.4
					c-0.6-0.1-1.1-0.3-1.6-0.5c-0.4-0.2-0.9-0.5-1.3-0.8c0,0-0.1-0.7-0.1-0.9l2.2-0.7l2.6,1.1L30,40.7L30,40.7z M34.3,38.4
					c-0.4,0.6-0.8,1.1-1.4,1.5c-0.5,0.4-1.2,0.5-1.8,0.6l-0.6,0.1L30,39.1l1.8-1.9l2.4-0.2c0,0.4,0.1,0.9,0.1,1.3
					C34.3,38.3,34.3,38.4,34.3,38.4L34.3,38.4z M34.3,36.5L34.3,36.5l-2.4,0.3l-1.3-2.3l1.2-3.2l1.6,0.1c0.4,0.3,0.7,0.6,0.9,1
					c0.3,0.4,0.6,0.9,0.8,1.4C34.9,35.4,34.5,36.2,34.3,36.5L34.3,36.5z M35.2,32.9c-0.1-0.3-0.3-0.5-0.5-0.8
					c-0.3-0.4-0.6-0.8-1-1.1c-0.1-0.4-0.3-0.9-0.8-1.5l0,0l0.1,0.1c0.4,0.3,0.7,0.6,1,1C34.5,31.3,34.9,32.1,35.2,32.9L35.2,32.9
					L35.2,32.9z"/>
			</g>
		</g>
		<path class="st0" d="M29.5,8.5h-21v3.3h20.9V8.5H29.5z M12.9,13.7H8.5v4.4h4.4V13.7z M19,18.1v-4.4h-4.4v4.4H19z M50.3,11.6
			L40,1.3c-0.3-0.3-0.8-0.5-1.3-0.5H5.2c-2.4,0-4.4,2-4.4,4.4v54c0,2.4,2,4.4,4.4,4.4h41.2c2.4,0,4.4-2,4.4-4.4V12.9
			C50.8,12.4,50.6,11.9,50.3,11.6z M47.1,59.2c0,0.4-0.3,0.7-0.7,0.7H5.2c-0.4,0-0.7-0.3-0.7-0.7v-54c0-0.4,0.3-0.7,0.7-0.7h31.6
			v5.9c0,2.4,2,4.4,4.4,4.4h2V11h-2c-0.4,0-0.7-0.3-0.7-0.7V7l6.6,6.6V59.2z M31.7,50.9H12.2V34h2.6v-3.7h-3.1
			c-1.7,0-3.1,1.4-3.1,3.1v18c0,1.7,1.4,3.1,3.1,3.1h20.6c1.7,0,3.1-1.4,3.1-3.1v-3.1h-3.7C31.7,48.3,31.7,50.9,31.7,50.9z M40,22.6
			H19.4c-1.7,0-3.1,1.4-3.1,3.1v18c0,1.7,1.4,3.1,3.1,3.1H40c1.7,0,3.1-1.4,3.1-3.1v-18C43.1,24,41.7,22.6,40,22.6z M39.4,43.2H19.9
			V26.3h19.5V43.2z"/>
	</g>
</g>
</svg>
