<?xml version="1.0" encoding="utf-8"?>
<!-- Generator: Adobe Illustrator 18.1.1, SVG Export Plug-In . SVG Version: 6.00 Build 0)  -->
<svg version="1.1" id="圖層_1" xmlns="http://www.w3.org/2000/svg" xmlns:xlink="http://www.w3.org/1999/xlink" x="0px" y="0px"
	 width="52.8px" height="54.4px" viewBox="0 0 52.8 54.4" enable-background="new 0 0 52.8 54.4" xml:space="preserve">
<g>
	<g>
		<path opacity="0.2" d="M19,22.5c0-0.1,0-0.1,0-0.2c0-1.4-1.2-2.6-2.6-2.6c-0.2,0-0.3,0-0.5,0.1c-0.3-1.8-1.9-3.1-3.7-3.1
			c-1.5,0-2.9,0.9-3.5,2.2c-0.3-0.1-0.6-0.2-1-0.2c-1.7,0-3.1,1.4-3.1,3.1c0,0.2,0,0.5,0.1,0.7H19z"/>
		<linearGradient id="SVGID_1_" gradientUnits="userSpaceOnUse" x1="4.2338" y1="19.1563" x2="18.5985" y2="19.1563">
			<stop  offset="1.477800e-002" style="stop-color:#E5C996"/>
			<stop  offset="0.3448" style="stop-color:#FCFCCE;stop-opacity:0.97"/>
			<stop  offset="0.601" style="stop-color:#E8C396"/>
			<stop  offset="1" style="stop-color:#DACD9A"/>
		</linearGradient>
		<path fill="url(#SVGID_1_)" d="M18.6,22.1c0-0.1,0-0.1,0-0.2c0-1.4-1.2-2.6-2.6-2.6c-0.2,0-0.3,0-0.5,0.1
			c-0.3-1.8-1.9-3.1-3.7-3.1c-1.5,0-2.9,0.9-3.5,2.2c-0.3-0.1-0.6-0.2-1-0.2c-1.7,0-3.1,1.4-3.1,3.1c0,0.2,0,0.5,0.1,0.7H18.6z"/>
	</g>
	<g>
		<path opacity="0.2" d="M45.7,28c0-0.1,0-0.1,0-0.2c0-1.2-1-2.2-2.2-2.2c-0.1,0-0.3,0-0.4,0c-0.3-1.5-1.6-2.6-3.1-2.6
			c-1.3,0-2.4,0.8-2.9,1.9c-0.3-0.1-0.5-0.1-0.8-0.1c-1.4,0-2.6,1.1-2.6,2.6c0,0.2,0,0.4,0.1,0.6H45.7z"/>
		<linearGradient id="SVGID_2_" gradientUnits="userSpaceOnUse" x1="33.3878" y1="25.2485" x2="45.3399" y2="25.2485">
			<stop  offset="1.477800e-002" style="stop-color:#E5C996"/>
			<stop  offset="0.3448" style="stop-color:#FCFCCE;stop-opacity:0.97"/>
			<stop  offset="0.601" style="stop-color:#E8C396"/>
			<stop  offset="1" style="stop-color:#DACD9A"/>
		</linearGradient>
		<path fill="url(#SVGID_2_)" d="M45.3,27.7c0-0.1,0-0.1,0-0.2c0-1.2-1-2.2-2.2-2.2c-0.1,0-0.3,0-0.4,0c-0.3-1.5-1.6-2.6-3.1-2.6
			c-1.3,0-2.4,0.8-2.9,1.9c-0.3-0.1-0.5-0.1-0.8-0.1c-1.4,0-2.6,1.1-2.6,2.6c0,0.2,0,0.4,0.1,0.6H45.3z"/>
	</g>
	<g>
		<path opacity="0.2" d="M29.2,41c0-0.1,0-0.2,0-0.3c0-2-1.6-3.7-3.7-3.7c-0.2,0-0.5,0-0.7,0.1c-0.5-2.5-2.7-4.3-5.3-4.3
			c-2.2,0-4,1.3-4.9,3.1c-0.4-0.1-0.9-0.2-1.4-0.2c-2.4,0-4.3,1.9-4.3,4.3c0,0.3,0,0.7,0.1,1H29.2z"/>
		<linearGradient id="SVGID_3_" gradientUnits="userSpaceOnUse" x1="8.6779" y1="36.5668" x2="28.9147" y2="36.5668">
			<stop  offset="1.477800e-002" style="stop-color:#E5C996"/>
			<stop  offset="0.3448" style="stop-color:#FCFCCE;stop-opacity:0.97"/>
			<stop  offset="0.601" style="stop-color:#E8C396"/>
			<stop  offset="1" style="stop-color:#DACD9A"/>
		</linearGradient>
		<path fill="url(#SVGID_3_)" d="M28.9,40.7c0-0.1,0-0.2,0-0.3c0-2-1.6-3.7-3.7-3.7c-0.2,0-0.5,0-0.7,0.1c-0.5-2.5-2.7-4.3-5.3-4.3
			c-2.2,0-4,1.3-4.9,3.1c-0.4-0.1-0.9-0.2-1.4-0.2c-2.4,0-4.3,1.9-4.3,4.3c0,0.3,0,0.7,0.1,1H28.9z"/>
	</g>
	<g>
		<g>
			<g>
				<g>
					
						<linearGradient id="SVGID_4_" gradientUnits="userSpaceOnUse" x1="414.4547" y1="16.1292" x2="425.9079" y2="16.1292" gradientTransform="matrix(-1 0 0 1 435.957 0)">
						<stop  offset="5.618000e-003" style="stop-color:#EFC981"/>
						<stop  offset="0.1854" style="stop-color:#E6C081"/>
						<stop  offset="0.5955" style="stop-color:#C58511"/>
						<stop  offset="0.8106" style="stop-color:#E5B76D"/>
						<stop  offset="0.8708" style="stop-color:#EEC687"/>
						<stop  offset="1" style="stop-color:#F2E4CE"/>
					</linearGradient>
					<path fill="url(#SVGID_4_)" d="M21.3,22.9l0.2-0.8c-8.4-3.2-9.7-8.8-10.3-11.4l7.5,2.2l-0.2,1.6l1.8,0.6l-0.6-2.8l-9.3-2.9
						c-0.2-0.1-0.4,0.1-0.4,0.3l0.1,0.3C10.1,10.1,10.7,18.9,21.3,22.9z"/>
				</g>
				<g>
					
						<linearGradient id="SVGID_5_" gradientUnits="userSpaceOnUse" x1="109.899" y1="16.0358" x2="121.3521" y2="16.0358" gradientTransform="matrix(1 0 0 1 -77.9894 0)">
						<stop  offset="5.618000e-003" style="stop-color:#EFC981"/>
						<stop  offset="0.1854" style="stop-color:#E6C081"/>
						<stop  offset="0.5955" style="stop-color:#C58511"/>
						<stop  offset="0.8106" style="stop-color:#E5B76D"/>
						<stop  offset="0.8708" style="stop-color:#EEC687"/>
						<stop  offset="1" style="stop-color:#F2E4CE"/>
					</linearGradient>
					<path fill="url(#SVGID_5_)" d="M32.2,22.8L31.9,22c8.4-3.2,9.7-8.8,10.3-11.4l-7.5,2.2l0.2,1.6L33.2,15l0.6-2.8L43,9.3
						c0.2-0.1,0.4,0.1,0.4,0.3l-0.1,0.3C43.3,10,42.8,18.8,32.2,22.8z"/>
				</g>
				<g>
					<linearGradient id="SVGID_6_" gradientUnits="userSpaceOnUse" x1="18.9321" y1="19.7062" x2="34.3136" y2="19.7062">
						<stop  offset="5.618000e-003" style="stop-color:#EFC981"/>
						<stop  offset="0.1854" style="stop-color:#E6C081"/>
						<stop  offset="0.5955" style="stop-color:#C58511"/>
						<stop  offset="0.8106" style="stop-color:#E5B76D"/>
						<stop  offset="0.8708" style="stop-color:#EEC687"/>
						<stop  offset="1" style="stop-color:#F2E4CE"/>
					</linearGradient>
					<path fill="url(#SVGID_6_)" d="M26.6,28.5L26.6,28.5c-2.5,0-4.8-2.1-5.4-5.2l-2.3-12.4h15.4L32,23.3
						C31.5,26.4,29.1,28.5,26.6,28.5z"/>
					<linearGradient id="SVGID_7_" gradientUnits="userSpaceOnUse" x1="18.3253" y1="11.4997" x2="34.9202" y2="11.4997">
						<stop  offset="5.618000e-003" style="stop-color:#EFC981"/>
						<stop  offset="0.1854" style="stop-color:#E6C081"/>
						<stop  offset="0.5955" style="stop-color:#C58511"/>
						<stop  offset="0.8106" style="stop-color:#E5B76D"/>
						<stop  offset="0.8708" style="stop-color:#EEC687"/>
						<stop  offset="1" style="stop-color:#F2E4CE"/>
					</linearGradient>
					<path fill="url(#SVGID_7_)" d="M34.3,12.1H18.9c-0.3,0-0.6-0.3-0.6-0.6l0,0c0-0.3,0.3-0.6,0.6-0.6h15.4c0.3,0,0.6,0.3,0.6,0.6
						l0,0C34.9,11.8,34.6,12.1,34.3,12.1z"/>
					<linearGradient id="SVGID_8_" gradientUnits="userSpaceOnUse" x1="23.955" y1="28.97" x2="29.2905" y2="28.97">
						<stop  offset="5.618000e-003" style="stop-color:#EFC981"/>
						<stop  offset="0.1854" style="stop-color:#E6C081"/>
						<stop  offset="0.5955" style="stop-color:#C58511"/>
						<stop  offset="0.8106" style="stop-color:#E5B76D"/>
						<stop  offset="0.8708" style="stop-color:#EEC687"/>
						<stop  offset="1" style="stop-color:#F2E4CE"/>
					</linearGradient>
					<path fill="url(#SVGID_8_)" d="M29.3,28.8c-1.3,1.9-4.1,1.9-5.3,0c0-0.4,0-0.8,0-1.2c1.8,0,3.6,0,5.3,0
						C29.3,28.1,29.3,28.5,29.3,28.8z"/>
					<linearGradient id="SVGID_9_" gradientUnits="userSpaceOnUse" x1="24.4425" y1="31.9394" x2="28.8032" y2="31.9394">
						<stop  offset="5.618000e-003" style="stop-color:#EFC981"/>
						<stop  offset="0.1854" style="stop-color:#E6C081"/>
						<stop  offset="0.5955" style="stop-color:#C58511"/>
						<stop  offset="0.8106" style="stop-color:#E5B76D"/>
						<stop  offset="0.8708" style="stop-color:#EEC687"/>
						<stop  offset="1" style="stop-color:#F2E4CE"/>
					</linearGradient>
					<path fill="url(#SVGID_9_)" d="M28.8,33.3c-1,1.5-3.3,1.5-4.4,0c0-1.3,0-2.6,0-3.9c1.5,0,2.9,0,4.4,0
						C28.8,30.7,28.8,32,28.8,33.3z"/>
					<linearGradient id="SVGID_10_" gradientUnits="userSpaceOnUse" x1="21.8013" y1="35.7397" x2="31.4442" y2="35.7397">
						<stop  offset="5.618000e-003" style="stop-color:#EFC981"/>
						<stop  offset="0.1854" style="stop-color:#E6C081"/>
						<stop  offset="0.5955" style="stop-color:#C58511"/>
						<stop  offset="0.8106" style="stop-color:#E5B76D"/>
						<stop  offset="0.8708" style="stop-color:#EEC687"/>
						<stop  offset="1" style="stop-color:#F2E4CE"/>
					</linearGradient>
					<path fill="url(#SVGID_10_)" d="M31.4,38.9h-9.6l1.5-5.9c0.1-0.3,0.3-0.5,0.6-0.5h5.4c0.3,0,0.5,0.2,0.6,0.5L31.4,38.9z"/>
					<linearGradient id="SVGID_11_" gradientUnits="userSpaceOnUse" x1="19.8577" y1="39.8511" x2="33.3878" y2="39.8511">
						<stop  offset="5.618000e-003" style="stop-color:#EFC981"/>
						<stop  offset="0.1854" style="stop-color:#E6C081"/>
						<stop  offset="0.5955" style="stop-color:#C58511"/>
						<stop  offset="0.8106" style="stop-color:#E5B76D"/>
						<stop  offset="0.8708" style="stop-color:#EEC687"/>
						<stop  offset="1" style="stop-color:#F2E4CE"/>
					</linearGradient>
					<path fill="url(#SVGID_11_)" d="M33.4,41.4H19.9v-1.1c0-1.1,0.9-1.9,1.9-1.9h9.7c1.1,0,1.9,0.9,1.9,1.9V41.4z"/>
				</g>
			</g>
			<g>
				<g>
					<g>
						<linearGradient id="SVGID_12_" gradientUnits="userSpaceOnUse" x1="23.1287" y1="17.5925" x2="30.5454" y2="17.5925">
							<stop  offset="0" style="stop-color:#FBB03B"/>
							<stop  offset="0.1249" style="stop-color:#FBB537"/>
							<stop  offset="0.2824" style="stop-color:#FCC52B"/>
							<stop  offset="0.4566" style="stop-color:#FDDF18"/>
							<stop  offset="0.6276" style="stop-color:#FFFF00"/>
							<stop  offset="0.9592" style="stop-color:#FBB03B"/>
							<stop  offset="1" style="stop-color:#FBB03B"/>
						</linearGradient>
						<circle fill="url(#SVGID_12_)" cx="26.8" cy="17.6" r="3.7"/>
						<circle fill="#FBB03B" cx="26.8" cy="17.6" r="3.1"/>
						<path opacity="0.24" fill="#835712" d="M26.8,14.2c-1.8,0-3.3,1.5-3.3,3.3c0,1.8,1.5,3.3,3.3,3.3c1.8,0,3.3-1.5,3.3-3.3
							C30.2,15.7,28.7,14.2,26.8,14.2z M26.8,20.7c-1.7,0-3.1-1.4-3.1-3.1c0-1.7,1.4-3.1,3.1-3.1c1.7,0,3.1,1.4,3.1,3.1
							C29.9,19.3,28.5,20.7,26.8,20.7z"/>
					</g>
				</g>
				<g>
					<path fill="#B96E16" d="M26.9,15.2c-1.3,0-2.4,1.1-2.4,2.4c0,1.3,1.1,2.4,2.4,2.4c1.3,0,2.4-1,2.4-2.4
						C29.3,16.3,28.2,15.2,26.9,15.2z M28.8,16.3c-0.1,0-0.3,0-0.4-0.1c-0.2-0.2-0.4-0.3-0.7-0.5c-0.1-0.1-0.2-0.2-0.2-0.2
						c-0.1-0.1-0.1-0.1-0.2-0.2C28,15.5,28.5,15.8,28.8,16.3z M27.2,16c0.2-0.1,0.3-0.2,0.5-0.3c0,0,0.1,0,0.1,0
						c0.3,0.2,0.5,0.3,0.8,0.5c0,0,0,0,0,0.1c0,0.3,0.1,0.5,0.1,0.8c0,0,0,0,0,0c0,0,0,0,0,0.1c-0.2,0.1-0.4,0.2-0.6,0.3
						c0,0-0.1,0-0.1,0c-0.2-0.2-0.5-0.3-0.7-0.4c0,0-0.1-0.1-0.1-0.1c0-0.2,0-0.5-0.1-0.7C27.1,16.2,27.1,16.1,27.2,16z M27,16.1
						c0.1,0,0.1,0.1,0.1,0.1c0,0.1,0,0.2,0,0.2c0,0.2,0,0.4,0.1,0.6c0,0,0,0.1,0,0.1c-0.2,0.2-0.4,0.4-0.6,0.5c0,0-0.1,0-0.1,0
						c-0.3-0.1-0.5-0.2-0.8-0.2c0,0,0,0-0.1-0.1c0-0.2-0.1-0.5-0.2-0.7c0,0,0-0.1,0-0.1c0.2-0.2,0.4-0.3,0.6-0.5
						c0.1,0,0.1-0.1,0.2-0.1c0,0,0.1,0,0.1,0C26.5,16,26.7,16,27,16.1z M25.2,16.1c0.3-0.3,0.7-0.6,1.1-0.7c0.1,0,0.1,0,0.1,0
						c0,0.1-0.1,0.3-0.1,0.4c0,0,0,0,0,0.1c-0.2,0.2-0.5,0.4-0.7,0.6c0,0-0.1,0-0.1,0c-0.1,0-0.3,0-0.5,0
						C24.9,16.3,25,16.2,25.2,16.1z M25.5,19c0,0.1-0.1,0.2-0.1,0.3c0,0,0,0-0.1,0c-0.4-0.4-0.6-0.8-0.7-1.3c0-0.1,0-0.3,0-0.4
						c0.1,0.1,0.2,0.2,0.4,0.4c0.1,0.1,0.1,0.2,0.2,0.3c0.1,0.2,0.2,0.4,0.3,0.6C25.5,18.9,25.5,18.9,25.5,19z M25.5,18.9
						C25.5,18.9,25.5,18.9,25.5,18.9c-0.2-0.3-0.3-0.6-0.5-0.8c0,0,0-0.1,0-0.1c0.1-0.2,0.3-0.3,0.4-0.5c0,0,0-0.1,0.1-0.1
						c0.1,0,0.2,0,0.2,0.1c0.2,0.1,0.4,0.1,0.5,0.2c0,0,0.1,0,0.1,0.1c0.1,0.3,0.2,0.5,0.3,0.8c0,0,0,0.1,0,0.1
						c-0.1,0.2-0.3,0.4-0.4,0.5c0,0,0,0-0.1,0C26,19.1,25.8,19,25.5,18.9z M26.3,19.9c0.1,0,0.2,0,0.3-0.1c0.3-0.1,0.5-0.1,0.8-0.1
						c0.1,0,0.2,0,0.3,0c0,0,0.1,0,0.2,0.1C27.6,19.9,26.6,20,26.3,19.9z M28.2,19.1c-0.1,0.2-0.3,0.4-0.4,0.5c0,0-0.1,0-0.1,0
						c-0.3,0-0.5,0-0.8,0.1c-0.1,0-0.1,0-0.2-0.1c-0.1-0.1-0.2-0.2-0.3-0.4c0,0,0-0.1,0-0.1c0.1-0.2,0.3-0.3,0.4-0.5c0,0,0,0,0.1,0
						c0.2,0,0.5,0,0.7-0.1c0.1,0,0.2,0,0.3,0.1C27.9,18.8,28,18.9,28.2,19.1C28.2,19,28.2,19,28.2,19.1z M29.2,17.7
						c0,0.3-0.1,0.6-0.2,0.9c0,0.1-0.1,0.1-0.2,0.1c-0.2,0.1-0.4,0.1-0.6,0.2c0,0-0.1,0-0.1,0c-0.1-0.2-0.3-0.3-0.4-0.5
						c0,0,0,0,0-0.1c0.1-0.3,0.1-0.5,0.2-0.8c0,0,0-0.1,0.1-0.1c0.2-0.1,0.4-0.2,0.5-0.3c0.1,0,0.1,0,0.1,0c0.1,0.1,0.3,0.3,0.5,0.4
						C29.2,17.7,29.2,17.7,29.2,17.7z"/>
					<path fill="#F7931E" d="M26.8,15.2c-1.3,0-2.4,1.1-2.4,2.4c0,1.3,1.1,2.4,2.4,2.4c1.3,0,2.4-1,2.4-2.4
						C29.2,16.3,28.2,15.2,26.8,15.2z M28.8,16.3c-0.1,0-0.3,0-0.4-0.1c-0.2-0.2-0.4-0.3-0.7-0.5c-0.1-0.1-0.2-0.2-0.2-0.2
						c-0.1-0.1-0.1-0.1-0.2-0.2C27.9,15.4,28.4,15.8,28.8,16.3z M27.1,16c0.2-0.1,0.3-0.2,0.5-0.3c0,0,0.1,0,0.1,0
						c0.3,0.2,0.5,0.3,0.8,0.5c0,0,0,0,0,0.1c0,0.3,0.1,0.5,0.1,0.8c0,0,0,0,0,0c0,0,0,0,0,0.1c-0.2,0.1-0.4,0.2-0.6,0.3
						c0,0-0.1,0-0.1,0c-0.2-0.1-0.5-0.3-0.7-0.4c0,0-0.1-0.1-0.1-0.1c0-0.2,0-0.5-0.1-0.7C27,16.1,27,16.1,27.1,16z M26.9,16.1
						c0.1,0,0.1,0.1,0.1,0.1c0,0.1,0,0.2,0,0.2c0,0.2,0,0.4,0.1,0.6c0,0,0,0.1,0,0.1c-0.2,0.2-0.4,0.4-0.6,0.5c0,0-0.1,0-0.1,0
						c-0.3-0.1-0.5-0.2-0.8-0.2c0,0,0,0-0.1-0.1c0-0.2-0.1-0.5-0.2-0.7c0,0,0-0.1,0-0.1c0.2-0.2,0.4-0.3,0.6-0.5
						c0.1,0,0.1-0.1,0.2-0.1c0,0,0.1,0,0.1,0C26.4,15.9,26.7,16,26.9,16.1z M25.1,16c0.3-0.3,0.7-0.6,1.1-0.7c0.1,0,0.1,0,0.1,0
						c0,0.1-0.1,0.3-0.1,0.4c0,0,0,0,0,0.1c-0.2,0.2-0.5,0.4-0.7,0.6c0,0-0.1,0-0.1,0c-0.1,0-0.3,0-0.5,0C24.9,16.3,25,16.2,25.1,16
						z M25.4,19c0,0.1-0.1,0.2-0.1,0.3c0,0,0,0-0.1,0c-0.4-0.4-0.6-0.8-0.7-1.3c0-0.1,0-0.3,0-0.4c0.1,0.1,0.2,0.2,0.4,0.4
						c0.1,0.1,0.1,0.2,0.2,0.3c0.1,0.2,0.2,0.4,0.3,0.6C25.4,18.9,25.4,18.9,25.4,19z M25.5,18.9C25.4,18.9,25.4,18.9,25.5,18.9
						c-0.2-0.3-0.3-0.6-0.5-0.8c0,0,0-0.1,0-0.1c0.1-0.2,0.3-0.3,0.4-0.5c0,0,0-0.1,0.1-0.1c0.1,0,0.2,0,0.2,0.1
						c0.2,0.1,0.4,0.1,0.5,0.2c0,0,0.1,0,0.1,0.1c0.1,0.3,0.2,0.5,0.3,0.8c0,0,0,0.1,0,0.1c-0.1,0.2-0.3,0.4-0.4,0.5c0,0,0,0-0.1,0
						C26,19.1,25.7,19,25.5,18.9z M26.2,19.8c0.1,0,0.2,0,0.3-0.1c0.3-0.1,0.5-0.1,0.8-0.1c0.1,0,0.2,0,0.3,0c0,0,0.1,0,0.2,0.1
						C27.6,19.9,26.5,20,26.2,19.8z M28.1,19c-0.1,0.2-0.3,0.4-0.4,0.5c0,0-0.1,0-0.1,0c-0.3,0-0.5,0-0.8,0.1c-0.1,0-0.1,0-0.2-0.1
						c-0.1-0.1-0.2-0.2-0.3-0.4c0,0,0-0.1,0-0.1c0.1-0.2,0.3-0.3,0.4-0.5c0,0,0,0,0.1,0c0.2,0,0.5,0,0.7-0.1c0.1,0,0.2,0,0.3,0.1
						C27.9,18.7,28,18.8,28.1,19C28.1,19,28.1,19,28.1,19z M29.2,17.7c0,0.3-0.1,0.6-0.2,0.9c0,0.1-0.1,0.1-0.2,0.1
						c-0.2,0.1-0.4,0.1-0.6,0.2c0,0-0.1,0-0.1,0c-0.1-0.2-0.3-0.3-0.4-0.5c0,0,0,0,0-0.1c0.1-0.3,0.1-0.5,0.2-0.8c0,0,0-0.1,0.1-0.1
						c0.2-0.1,0.4-0.2,0.5-0.3c0.1,0,0.1,0,0.1,0c0.1,0.1,0.3,0.3,0.5,0.4C29.2,17.6,29.2,17.7,29.2,17.7z"/>
				</g>
			</g>
		</g>
		<rect x="19" y="41.4" fill="#42210B" width="15.4" height="1.2"/>
	</g>
	<g>
		<path opacity="0.2" d="M49,45.3c0-0.1,0-0.3,0-0.4c0-2.5-2-4.5-4.5-4.5c-0.3,0-0.6,0-0.9,0.1c-0.6-3-3.2-5.3-6.4-5.3
			c-2.7,0-4.9,1.6-6,3.8c-0.5-0.2-1.1-0.3-1.7-0.3c-2.9,0-5.3,2.4-5.3,5.3c0,0.4,0,0.8,0.1,1.2H49z"/>
		<linearGradient id="SVGID_13_" gradientUnits="userSpaceOnUse" x1="23.4894" y1="39.4657" x2="48.195" y2="39.4657">
			<stop  offset="1.477800e-002" style="stop-color:#E5C996"/>
			<stop  offset="0.3448" style="stop-color:#FCFCCE;stop-opacity:0.97"/>
			<stop  offset="0.601" style="stop-color:#E8C396"/>
			<stop  offset="1" style="stop-color:#DACD9A"/>
		</linearGradient>
		<path fill="url(#SVGID_13_)" d="M48.2,44.5c0-0.1,0-0.3,0-0.4c0-2.5-2-4.5-4.5-4.5c-0.3,0-0.6,0-0.9,0.1c-0.6-3-3.2-5.3-6.4-5.3
			c-2.7,0-4.9,1.6-6,3.8c-0.5-0.2-1.1-0.3-1.7-0.3c-2.9,0-5.3,2.4-5.3,5.3c0,0.4,0,0.8,0.1,1.2H48.2z"/>
	</g>
</g>
</svg>
