<?xml version="1.0" encoding="utf-8"?>
<!-- Generator: Adobe Illustrator 18.1.1, SVG Export Plug-In . SVG Version: 6.00 Build 0)  -->
<svg version="1.1" id="圖層_1" xmlns="http://www.w3.org/2000/svg" xmlns:xlink="http://www.w3.org/1999/xlink" x="0px" y="0px"
	 viewBox="0 0 39.8 39.8" enable-background="new 0 0 39.8 39.8" xml:space="preserve">
<g>
	<path fill="#F2EBE3" d="M38.6,26.7C34.8,37,23.4,42.3,13,38.6C2.7,34.8-2.6,23.4,1.2,13C5,2.7,16.4-2.6,26.7,1.2
		C37,5,42.3,16.4,38.6,26.7"/>
	<path fill="#271D1B" d="M23.5,24.3c-5.1,4.2-5.3,9.9-1.7,12c2.7,1.6,7,0.5,10-2c3-2.5,4.8-6.5,3.8-9.5
		C34.3,20.9,28.6,20.1,23.5,24.3"/>
	<path fill="#271D1B" d="M21.9,14.6c6.2,2.3,11.2-0.4,11.2-4.6c0-3.2-3-6.3-6.8-7.7c-3.7-1.4-8.1-0.9-10.1,1.5
		C13.5,7,15.6,12.3,21.9,14.6"/>
	<path fill="#CB1716" d="M21.4,21.7c1.6-1.4,3.3-2.3,4.9-2.9c-1.7,0-3.6-0.4-5.6-1.1c-2-0.7-3.7-1.7-5-2.8c0.8,1.5,1.5,3.3,1.8,5.4
		c0.4,2.1,0.4,4,0.1,5.7C18.5,24.5,19.8,23.1,21.4,21.7z"/>
	<path fill="#CB1716" d="M4.2,10.9c2.6-1.8,5.9-1.6,8.6,0.5c-1.6-3-1.2-6.3,1-8.5c0.5-0.5,1-0.8,1.5-1.2C10,3.1,5.3,6.8,2.9,12.2
		C3.3,11.7,3.8,11.3,4.2,10.9 M9.2,6.9l0.7-0.6l0.1,0.9L10.7,8L9.7,8.1L9,8.7L8.9,7.8L8.3,7.1L9.2,6.9"/>
	<path fill="#CB1716" d="M16.1,30.3c-1.8,2.9-4.8,4.2-7.9,3.3c-0.6-0.2-1.1-0.4-1.6-0.7c1.9,1.9,4.2,3.5,6.9,4.5
		c2.7,1,5.4,1.3,8.1,1.1c-0.6-0.1-1.1-0.3-1.6-0.5C17,36.6,15.6,33.7,16.1,30.3 M14.7,35.9l-0.3,0.9L13.8,36l-0.9-0.3l0.7-0.6
		l0.3-0.9l0.6,0.7l0.9,0.3L14.7,35.9"/>
	<path fill="#CB1716" d="M30.8,18c3.4,0.1,6,2.1,6.8,5.2c0.2,0.6,0.2,1.2,0.2,1.8c1.6-5.6,0.4-11.5-2.8-15.9
		c0.2,0.6,0.3,1.2,0.4,1.8C35.7,14,33.9,16.7,30.8,18 M37,16.7l-0.3,0.9l0.2,0.9L36,18.1l-0.9,0.2l0.3-0.9l-0.2-0.9l0.9,0.3L37,16.7
		"/>
	<path fill="#271D1B" d="M14.3,20.9c-1.1-6.5-6-9.5-9.6-7.5c-2.7,1.6-4,5.8-3.3,9.7c0.7,3.9,3.3,7.5,6.4,8
		C11.9,31.9,15.4,27.4,14.3,20.9"/>
	<path fill="#109BE0" d="M5.2,16.3c-2,0.9-2.9,3.8-2.4,6.6c0.5,2.8,2.4,5.2,4.5,5.4c2.6,0.2,4.5-2.9,3.9-6.8
		C10.4,17.5,7.6,15.2,5.2,16.3 M33.4,26.7c-1.1-2.3-4.8-2.5-7.8,0.1c-3.1,2.6-3.6,6.2-1.5,7.7c1.7,1.3,4.7,0.7,6.9-1.2
		C33.2,31.4,34.4,28.6,33.4,26.7 M30.4,9c0.2-2.1-1.8-4.4-4.5-5.4c-2.7-1-5.7-0.6-6.9,1.2c-1.5,2.1,0.2,5.4,4,6.8
		C26.7,13,30.1,11.6,30.4,9"/>
	<path fill="#1573B0" d="M5.2,16.3c-2,0.9-2.9,3.8-2.4,6.6c0.5,2.8,2.4,5.2,4.5,5.4c2.6,0.2,4.5-2.9,3.9-6.8
		C10.4,17.5,7.6,15.2,5.2,16.3 M33.4,26.7c-1.1-2.3-4.8-2.5-7.8,0.1c-3.1,2.6-3.6,6.2-1.5,7.7c1.7,1.3,4.7,0.7,6.9-1.2
		C33.2,31.4,34.4,28.6,33.4,26.7 M30.4,9c0.2-2.1-1.8-4.4-4.5-5.4c-2.7-1-5.7-0.6-6.9,1.2c-1.5,2.1,0.2,5.4,4,6.8
		C26.7,13,30.1,11.6,30.4,9"/>
	<path fill="#F2EBE3" d="M22.8,6l-1,0.6h-1.5l1,0.9l0.3,1.2L22.6,8l1.5,0l-1-0.9L22.8,6z M25.7,32.5c-0.2,0.2-0.3,0.5-0.1,0.6
		c0.2,0.1,0.5,0.1,0.7-0.1c0.2-0.2,0.3-0.5,0.1-0.6C26.2,32.3,25.9,32.3,25.7,32.5z M7.4,22.2l-0.3,1.4l-0.8,0.8l1,0.6l0.7,1.3
		L8.4,25l0.9-0.8l-1.2-0.6L7.4,22.2z M5.6,18.2c-0.2,0.1-0.3,0.4-0.3,0.6c0.1,0.3,0.2,0.5,0.4,0.4c0.2-0.1,0.3-0.4,0.3-0.7
		C6,18.3,5.8,18.1,5.6,18.2z M8.3,21c0.5-0.1,0.8-0.7,0.7-1.4c-0.1-0.7-0.6-1.1-1.1-0.9c-0.5,0.1-0.7,0.8-0.6,1.4
		C7.3,20.6,7.8,21.1,8.3,21z M30,27.3l-1.2-0.4l0,1.3l-0.7,1.3l1.3-0.4l1.1,0.3l0-1.2l0.7-1.3L30,27.3z M25.1,29.6
		c-0.5,0.4-0.6,1.1-0.3,1.4c0.4,0.3,1,0.3,1.5-0.1c0.5-0.4,0.6-1,0.3-1.4C26.3,29.1,25.6,29.1,25.1,29.6z M28.5,8.4
		c0-0.2-0.2-0.4-0.4-0.5c-0.3-0.1-0.5,0-0.6,0.2c0,0.2,0.1,0.5,0.4,0.6C28.2,8.7,28.5,8.6,28.5,8.4z M26.1,8.9
		c-0.6-0.2-1.2,0-1.3,0.4c-0.2,0.5,0.2,1.1,0.9,1.3c0.6,0.2,1.2,0,1.4-0.5C27.1,9.7,26.7,9.1,26.1,8.9z"/>
	<path fill="#E8D6C4" d="M13.8,34.7l-0.2,0.5l-0.7,0.6l0.9,0.3l0.6,0.7l0.3-0.9l0.7-0.6L14.5,35l-0.1-0.1c0,0,0,0-0.1,0
		C14.2,34.8,14,34.7,13.8,34.7 M35.5,16.6c0.1,0.5,0.2,1,0.2,1.5l0.2,0l0.9,0.3l-0.2-0.9l0.3-0.9l-0.9,0.2L35.5,16.6 M9.9,6.3
		L9.2,6.9L8.3,7.1l0.6,0.7L9,8.2c0.4-0.3,0.7-0.6,1.1-0.9l0,0L9.9,6.3 M15.8,4.4C15.9,4.2,16,4,16.2,3.8c1.3-1.5,3.5-2.3,5.9-2.3
		c1.4,0,2.9,0.3,4.2,0.8c3.7,1.4,6.8,4.5,6.8,7.7c0,0.3,0,0.5-0.1,0.8c0.8,1.1,1.4,2.3,1.8,3.5c0.5-1,0.7-2.2,0.6-3.5
		c-0.1-0.6-0.2-1.2-0.4-1.8c3.2,4.5,4.4,10.3,2.8,15.9c0-0.6-0.1-1.2-0.2-1.8c-0.3-1.2-0.9-2.2-1.7-3c0,1.3-0.2,2.6-0.6,3.9
		c0.1,0.2,0.2,0.5,0.3,0.7c1.1,3-0.7,7-3.8,9.5c-2.1,1.7-4.7,2.8-7,2.8c-1.1,0-2.2-0.2-3-0.7c-0.3-0.1-0.5-0.3-0.7-0.5
		c-0.4,0-0.8,0.1-1.3,0.1c-0.9,0-1.8-0.1-2.7-0.2c0.7,1,1.6,1.8,2.7,2.3c0.5,0.2,1.1,0.4,1.6,0.5c-0.6,0-1.1,0.1-1.7,0.1
		c-2.1,0-4.3-0.4-6.4-1.1c-2.7-1-5-2.5-6.9-4.5c0.5,0.3,1.1,0.5,1.6,0.7c0.6,0.2,1.2,0.2,1.8,0.2c0.6,0,1.2-0.1,1.7-0.2
		c-1.2-0.7-2.2-1.5-3.1-2.4c-0.3,0-0.6,0-0.8-0.1c-3.1-0.6-5.7-4.1-6.4-8c-0.7-3.9,0.5-8.1,3.3-9.7c0.2-0.1,0.5-0.3,0.7-0.4
		c0.6-1.2,1.3-2.3,2.1-3.3c-1.1,0.1-2.3,0.5-3.3,1.2c-0.5,0.3-0.9,0.8-1.3,1.2C5.3,6.8,10,3.1,15.4,1.8c-0.6,0.3-1.1,0.7-1.5,1.2
		c-0.9,0.9-1.5,1.9-1.8,3C13.2,5.3,14.5,4.8,15.8,4.4 M19.9,0C11.8,0,4.2,5,1.2,13C-2.6,23.4,2.7,34.8,13,38.6
		c2.3,0.8,4.6,1.2,6.8,1.2c8.1,0,15.7-5,18.7-13C42.3,16.4,37,5,26.7,1.2C24.5,0.4,22.2,0,19.9,0"/>
	<path fill="#130D0C" d="M35.3,24c-0.1,0.4-0.3,0.9-0.4,1.3c-0.3,0.9-0.7,1.7-1.2,2.5c0,0.1,0,0.2,0,0.3c0,1.7-1.1,3.7-2.7,5.1
		c-1.4,1.2-3.1,1.9-4.7,1.9c-0.4,0-0.8-0.1-1.2-0.2c-1.3,0.5-2.6,0.7-4,0.9c0.2,0.2,0.5,0.4,0.7,0.5c0.9,0.5,1.9,0.7,3,0.7
		c2.3,0,4.9-1,7-2.8c3-2.5,4.8-6.5,3.8-9.5C35.6,24.5,35.5,24.3,35.3,24"/>
	<path fill="#130D0C" d="M22.1,1.5c-2.4,0-4.6,0.7-5.9,2.3C16,4,15.9,4.2,15.8,4.4c1.3-0.4,2.7-0.5,4.1-0.5c0,0,0,0,0,0
		c0.8-0.6,1.9-0.8,3.1-0.8c0.9,0,1.9,0.2,2.9,0.5C28,4.4,29.8,6,30.2,7.7c1.1,0.9,2,2,2.8,3.1c0-0.3,0.1-0.5,0.1-0.8
		c0-3.2-3-6.3-6.8-7.7C25,1.8,23.5,1.5,22.1,1.5"/>
	<path fill="#A51A13" d="M15.4,1.8C10,3.1,5.3,6.8,2.9,12.2c0.4-0.5,0.9-0.9,1.3-1.2c1-0.7,2.1-1.1,3.3-1.2C8,9.2,8.5,8.7,9,8.2
		L8.9,7.8L8.3,7.1l0.9-0.1l0.7-0.6l0.1,0.9l0,0c0.6-0.5,1.3-0.9,2-1.3c0.3-1.1,0.9-2.1,1.8-3C14.3,2.5,14.8,2.1,15.4,1.8"/>
	<path fill="#A51A13" d="M6.6,32.9c1.9,1.9,4.2,3.5,6.9,4.5c2.1,0.8,4.3,1.1,6.4,1.1c0.6,0,1.1,0,1.7-0.1c-0.6-0.1-1.1-0.3-1.6-0.5
		c-1.1-0.5-2.1-1.3-2.7-2.3c-0.9-0.2-1.8-0.4-2.7-0.7l0.1,0.1l0.9,0.3l-0.7,0.6l-0.3,0.9L13.8,36l-0.9-0.3l0.7-0.6l0.2-0.5
		c-0.7-0.3-1.4-0.6-2.1-1c-0.6,0.2-1.1,0.2-1.7,0.2c-0.6,0-1.2-0.1-1.8-0.2C7.6,33.5,7.1,33.2,6.6,32.9"/>
	<path fill="#A51A13" d="M35.1,9c0.2,0.6,0.3,1.2,0.4,1.8c0.1,1.2-0.1,2.4-0.6,3.5c0.3,0.7,0.5,1.5,0.7,2.3l0.6,0.2l0.9-0.2
		l-0.3,0.9l0.2,0.9L36,18.1l-0.2,0c0.1,0.7,0.1,1.3,0.1,2c0.8,0.8,1.4,1.8,1.7,3c0.2,0.6,0.2,1.2,0.2,1.8
		C39.4,19.4,38.3,13.5,35.1,9"/>
	<path fill="#130D0C" d="M5.4,13.1c-0.3,0.1-0.5,0.2-0.7,0.4c-2.7,1.6-4,5.8-3.3,9.7c0.7,3.9,3.3,7.5,6.4,8c0.3,0.1,0.6,0.1,0.8,0.1
		c-1-1-1.8-2.1-2.5-3.3c-1.6-0.8-2.9-2.8-3.3-5.1c-0.1-0.5-0.1-1-0.1-1.5c0-1.8,0.6-3.4,1.5-4.4c0.2-0.9,0.4-1.8,0.7-2.6
		C5,13.9,5.2,13.5,5.4,13.1"/>
	<path fill="#17628C" d="M33.7,27.9c-1.9,3.4-5,5.9-8.6,7.1c0.4,0.1,0.8,0.2,1.2,0.2c1.5,0,3.3-0.7,4.7-1.9c1.7-1.4,2.7-3.4,2.7-5.1
		C33.8,28.1,33.7,28,33.7,27.9 M4.2,17c-1,1-1.5,2.6-1.5,4.4c0,0.5,0,1,0.1,1.5c0.4,2.3,1.7,4.3,3.3,5.1C4.2,24.7,3.5,20.8,4.2,17
		 M23,3.1c-1.2,0-2.3,0.3-3.1,0.8c1.8,0,3.7,0.3,5.5,1c1.8,0.7,3.5,1.6,4.9,2.8C29.8,6,28,4.4,25.9,3.6C24.9,3.2,23.9,3.1,23,3.1"/>
</g>
</svg>
