<?xml version="1.0" encoding="utf-8"?>
<!-- Generator: Adobe Illustrator 22.0.1, SVG Export Plug-In . SVG Version: 6.00 Build 0)  -->
<svg version="1.1" id="圖層_1" xmlns="http://www.w3.org/2000/svg" xmlns:xlink="http://www.w3.org/1999/xlink" x="0px" y="0px"
	 width="52px" height="64px" viewBox="0 0 52 64" style="enable-background:new 0 0 52 64;" xml:space="preserve">
<style type="text/css">
	.st0{fill:#6A3906;}
</style>
<g>
	<g>
		<path class="st0" d="M12.8,32.2c0-10.5,8.5-19,19-19s19,8.5,19,19s-8.5,19-19,19S12.8,42.7,12.8,32.2z M15.2,32.2
			c0,9.2,7.5,16.6,16.6,16.6c9.2,0,16.6-7.5,16.6-16.6c0-9.2-7.5-16.6-16.6-16.6C22.6,15.5,15.2,23,15.2,32.2z"/>
		<path class="st0" d="M21.5,32.2c0-5.7,4.6-10.3,10.3-10.3s10.3,4.6,10.3,10.3s-4.6,10.3-10.3,10.3S21.5,37.8,21.5,32.2z
			 M23.9,32.2c0,4.3,3.5,7.9,7.9,7.9c4.3,0,7.9-3.5,7.9-7.9c0-4.3-3.5-7.9-7.9-7.9C27.4,24.3,23.9,27.8,23.9,32.2z"/>
		
			<rect x="14.8" y="12.4" transform="matrix(0.3477 -0.9376 0.9376 0.3477 -14.5532 32.3291)" class="st0" width="2.4" height="28.5"/>
		<polygon class="st0" points="34.1,33.3 28.6,26.7 29.1,31.4 25.6,34.7 		"/>
		<polygon class="st0" points="0.8,25.3 4.6,22.4 3.7,17.6 11.5,20.5 12.4,25.2 12.4,25.2 12.4,25.3 12.4,25.3 12.4,25.3 8.6,28.2 
					"/>
	</g>
</g>
</svg>
