<?xml version="1.0" encoding="utf-8"?>
<!-- Generator: Adobe Illustrator 18.1.1, SVG Export Plug-In . SVG Version: 6.00 Build 0)  -->
<svg version="1.1" id="圖層_1" xmlns="http://www.w3.org/2000/svg" xmlns:xlink="http://www.w3.org/1999/xlink" x="0px" y="0px"
	 width="726.2px" height="95.1px" viewBox="0 0 726.2 95.1" enable-background="new 0 0 726.2 95.1" xml:space="preserve">
<g>
	<g>
		
			<radialGradient id="SVGID_1_" cx="-2507.7981" cy="-1566.5289" r="66.7956" gradientTransform="matrix(1.7176 0 0 1.3335 4671.5879 2104.918)" gradientUnits="userSpaceOnUse">
			<stop  offset="0" style="stop-color:#DAC581"/>
			<stop  offset="0.399" style="stop-color:#E8B678"/>
			<stop  offset="0.6552" style="stop-color:#FCFCEE;stop-opacity:0.97"/>
			<stop  offset="0.9852" style="stop-color:#E5B886"/>
		</radialGradient>
		<path fill-rule="evenodd" clip-rule="evenodd" fill="url(#SVGID_1_)" d="M232.4,31.6c-12.5,0-18.3-1.7-20.2-5.9l0-0.1l0-0.1
			c-1.7-5.8-8.1-9.1-8.2-9.2l-0.7-0.3l0-1.4l0.7-0.3c0.1,0,6.4-2.9,8.1-8.6l0-0.1l0-0.1c1.8-4,7.1-5.4,20.2-5.4h263.5
			c13.2,0,18.5,1.4,20.3,5.4l0,0.1l0,0.1c1.7,5.8,8.2,8.6,8.2,8.6l0.7,0.3v1.5l-0.7,0.3c-0.1,0-6.6,3.4-8.3,9.2l0,0.1l0,0.1
			c-1.9,4.2-7.8,5.9-20.3,5.9H232.4z"/>
		
			<radialGradient id="SVGID_2_" cx="-2507.7981" cy="-1566.5289" r="66.1659" gradientTransform="matrix(1.7176 0 0 1.3335 4671.5879 2104.918)" gradientUnits="userSpaceOnUse">
			<stop  offset="0" style="stop-color:#065B9A"/>
			<stop  offset="0.2268" style="stop-color:#065695"/>
			<stop  offset="0.5008" style="stop-color:#054986"/>
			<stop  offset="0.7981" style="stop-color:#04336E"/>
			<stop  offset="1" style="stop-color:#032059"/>
		</radialGradient>
		<path fill-rule="evenodd" clip-rule="evenodd" fill="url(#SVGID_2_)" d="M514.7,5.9c-1.4-3.1-5.7-4.6-19.2-4.6
			c-4.8,0-185,0-202.5,0c-1.1,0-2.3,0-3.5,0c-2.9,0-8,0-16.6,0c-19,0-35.8,0-40.9,0c-13.5,0-17.3,1.5-18.7,4.6
			c-1.9,6.3-8.7,9.3-8.7,9.3v0.1v0.1c0,0,6.8,3.6,8.7,9.9c1.4,3.1,5.2,5.2,18.7,5.2c5.1,0,21.9,0,40.9,0c8.6,0,13.7,0,16.6,0
			c2.6,0,3.5,0,3.5,0c17.5,0,197.7,0,202.5,0c13.5,0,17.8-2.1,19.2-5.2c1.9-6.3,9.2-9.9,9.2-9.9v-0.1v-0.1
			C523.8,15.2,516.5,12.2,514.7,5.9z M214.4,17.6l-5.6-2.2l5.6-2.2l5.6,2.2L214.4,17.6z M513,17.6l-5.6-2.2l5.6-2.2l5.6,2.2
			L513,17.6z"/>
	</g>
	<g>
		<g>
			<path fill="#999999" d="M486.6,95.3H13c-7.2,0-13-5.8-13-13V29.5c0-7.2,5.8-13,13-13h172.2c0.6,0,1,0.4,1,1s-0.4,1-1,1H13
				c-6.1,0-11,4.9-11,11v52.7c0,6.1,4.9,11,11,11h473.6c0.6,0,1,0.4,1,1S487.1,95.3,486.6,95.3z"/>
		</g>
		<g>
			<path fill="#999999" d="M1.5,41.4L1,31.6c0,0-1.5-7,5.7-12.4c0,0,11.6-9.6,29.1,2.1C35.8,21.4,0.9,10.5,1.5,41.4z"/>
			<g>
				
					<linearGradient id="SVGID_3_" gradientUnits="userSpaceOnUse" x1="8264.3115" y1="7314.5186" x2="8348.0596" y2="7314.5186" gradientTransform="matrix(-1 0 0 -1 8352.4414 7351.9897)">
					<stop  offset="0" style="stop-color:#A61616"/>
					<stop  offset="1" style="stop-color:#999999"/>
				</linearGradient>
				<path fill="url(#SVGID_3_)" d="M4.4,20.7C30.6,9.9,59.8,39.4,63.6,45.1c-11.7,1.8-17.6,9.7-17.6,9.7c12.6-4,21.9-1.4,21.9-1.4
					C60.3,52.8,54,61.7,54,61.7C65.6,56.6,77.4,59,77.4,59l10.7-13.3c-8.3-15.8-7-25.3-7-25.3c-5.1,12.3-3.3,15.6-3.3,15.6
					c-6.3-9.5-7.3-16.3-7.3-16.3c-1.2,8.9-1.2,15-0.7,19C56.1,26,50.1,20.8,41.6,17.1C19.7,8.2,7.5,17,4.4,20.7z"/>
				<g>
					<path fill="#EEE7CA" d="M70.8,61.1c1.7,14.5,14.8,25,29.3,23.3c14.5-1.6,25-14.8,23.3-29.3c-1.7-14.5-14.8-25-29.3-23.3
						C79.6,33.4,69.1,46.6,70.8,61.1"/>
					<path fill="#271D1B" d="M91,62.7c5.2,7.1,3.7,14.5-1.6,16.1c-4,1.2-9.2-1.5-12.4-5.8c-3.1-4.3-4.2-10-1.9-13.5
						C78.2,54.9,85.7,55.6,91,62.7"/>
					<path fill="#271D1B" d="M96.2,50.6c-8.8,1-14.4-4-13.1-9.4c1-4.1,5.9-7.2,11.2-7.8c5.3-0.6,10.7,1.4,12.6,5.1
						C109.4,43.4,105,49.6,96.2,50.6"/>
					<path fill="#CB1716" d="M94.6,60c-1.7-2.3-3.5-4-5.4-5.3c2.2,0.5,4.7,0.6,7.6,0.3c2.8-0.3,5.3-1,7.3-2
						c-1.5,1.7-2.9,3.8-4.1,6.4c-1.1,2.6-1.7,5.1-1.9,7.3C97.4,64.6,96.3,62.3,94.6,60z"/>
					<path fill="#CB1716" d="M120.2,51.4c0.5,0.6,1,1.3,1.4,2c-1.5-7.7-6.4-14-12.9-17.4c0.6,0.6,1.2,1.3,1.6,2
						c2.2,3.6,1.7,7.9-1.3,11.3C113.1,47.5,117.4,48.3,120.2,51.4 M115,44.7l1.1,0.5l-1,0.7l-0.5,1.1l-0.7-1l-1.1-0.5l1-0.7l0.5-1.1
						L115,44.7"/>
					<path fill="#CB1716" d="M98.8,72.8c-0.5,4.5-3.2,7.9-7.4,8.7c-0.7,0.1-1.5,0.2-2.3,0.2c3.4,1.1,7,1.6,10.8,1.2
						c3.8-0.4,7.3-1.7,10.3-3.6c-0.8,0.2-1.6,0.3-2.3,0.4C103.7,79.7,100.2,77,98.8,72.8 M98.8,80.4l-0.8-1l1.2-0.1l1-0.8l0.1,1.2
						l0.8,1l-1.2,0.1l-1,0.8L98.8,80.4"/>
					<path fill="#CB1716" d="M83.6,52.3c-3.7-2.6-5.2-6.7-3.8-10.8c0.3-0.8,0.6-1.5,1.1-2.2c-5.6,4.8-8.9,12-8.6,19.8
						c0.2-0.8,0.5-1.6,0.9-2.3C75.1,53.1,79.2,51.4,83.6,52.3 M75.9,48.5l1.1,0.5l1.2-0.2L77.8,50l0.2,1.2l-1.1-0.5l-1.2,0.2
						l0.5-1.1L75.9,48.5"/>
					<path fill="#271D1B" d="M104.1,61.2c3.5-8.1,10.7-10.5,14.7-6.6c3,2.9,3.3,8.7,1.2,13.6c-2.1,4.9-6.6,8.6-10.8,8.4
						C103.7,76.2,100.6,69.2,104.1,61.2"/>
					<path fill="#109BE0" d="M117.3,58.1c-2.7-2.1-7.2-0.2-9.3,4.8c-2.1,4.9-0.6,9.5,2.8,10.1c2.8,0.5,6-2,7.5-5.5
						C119.9,63.9,119.5,59.8,117.3,58.1 M77.4,62.6c-1.8,2.2-1.2,6.2,1,9.3c2.3,3.1,6,4.8,8.6,3.7c3.2-1.3,3.7-6.1,0.5-10.4
						C84.4,60.9,79.6,60,77.4,62.6 M87,40.7c-0.4,3.4,3.4,6.3,8.8,5.7c5.3-0.6,8.5-4.3,7.3-7.5c-1-2.7-4.8-4.2-8.6-3.8
						C90.7,35.5,87.3,37.9,87,40.7"/>
					<path fill="#1573B0" d="M117.3,58.1c-2.7-2.1-7.2-0.2-9.3,4.8c-2.1,4.9-0.6,9.5,2.8,10.1c2.8,0.5,6-2,7.5-5.5
						C119.9,63.9,119.5,59.8,117.3,58.1 M77.4,62.6c-1.8,2.2-1.2,6.2,1,9.3c2.3,3.1,6,4.8,8.6,3.7c3.2-1.3,3.7-6.1,0.5-10.4
						C84.4,60.9,79.6,60,77.4,62.6 M87,40.7c-0.4,3.4,3.4,6.3,8.8,5.7c5.3-0.6,8.5-4.3,7.3-7.5c-1-2.7-4.8-4.2-8.6-3.8
						C90.7,35.5,87.3,37.9,87,40.7"/>
					<path fill="#F2EBE3" d="M97,40.5l-1.6,0.9l1.9,0.5l1.3,1.2l0.7-1.5l1.6-0.9l-1.9-0.5l-1.2-1L97,40.5z M84.8,72.3
						c-0.2,0.1-0.2,0.5,0,0.8c0.2,0.3,0.6,0.5,0.9,0.3c0.2-0.1,0.3-0.5,0-0.8C85.4,72.3,85,72.2,84.8,72.3z M111.1,66.4l-1.7,0.5
						l0.9,1.3l0,1.8l1.4-1.4l1.5-0.5l-0.7-1.2l0.1-1.9L111.1,66.4z M115.4,60.8c-0.2,0.4-0.1,0.8,0.1,0.9c0.2,0.1,0.5,0,0.7-0.4
						c0.2-0.4,0.1-0.8-0.1-0.9C115.9,60.3,115.6,60.4,115.4,60.8z M113.4,62.3c0.3-0.8,0.2-1.7-0.4-2c-0.6-0.3-1.3,0-1.7,0.9
						c-0.4,0.8-0.2,1.7,0.4,2C112.4,63.4,113.1,63,113.4,62.3z M80.1,63.6l0.6,1.9l-0.3,1.5l1.5,0l1.6,1l-0.5-1.9l0.4-1.7l-1.6,0.1
						L80.1,63.6z M85.4,68.4c-0.5,0.4-0.5,1.2,0,1.9c0.5,0.7,1.3,1,1.9,0.7c0.6-0.3,0.6-1.2,0.1-1.9C86.8,68.3,85.9,68,85.4,68.4z
						 M90.3,41c0.4,0,0.7-0.3,0.7-0.6c0-0.3-0.3-0.5-0.7-0.4c-0.4,0-0.7,0.3-0.7,0.6C89.5,40.8,89.9,41,90.3,41z M91,43.2
						c0,0.7,0.7,1.1,1.6,1c0.9-0.1,1.6-0.7,1.5-1.4c0-0.6-0.8-1.1-1.6-1C91.7,42,91,42.6,91,43.2z"/>
					
						<radialGradient id="SVGID_4_" cx="8491.7646" cy="6200.3716" r="26.4916" gradientTransform="matrix(-0.9701 -0.2425 0.2425 -0.9701 6831.5576 8132.8657)" gradientUnits="userSpaceOnUse">
						<stop  offset="0" style="stop-color:#FEFBCD"/>
						<stop  offset="0.4778" style="stop-color:#FDF9CB"/>
						<stop  offset="0.6499" style="stop-color:#FAF4C4"/>
						<stop  offset="0.7726" style="stop-color:#F5EAB9"/>
						<stop  offset="0.8717" style="stop-color:#EEDCA8"/>
						<stop  offset="0.9557" style="stop-color:#E4CA92"/>
						<stop  offset="1" style="stop-color:#DEBE83"/>
					</radialGradient>
					<path fill="url(#SVGID_4_)" d="M100.3,79.2c-0.3,0-0.6,0.1-0.8,0.1c0,0-0.1,0-0.1,0l-0.1,0.1l-1.2,0.1l0.8,1l0.1,1.2l1-0.8
						l1.2-0.1l-0.8-1L100.3,79.2 M77.9,48.9L77,49.1l-1.1-0.5l0.2,1.2l-0.5,1.1l1.2-0.2l0.3,0.1C77.3,50.2,77.6,49.6,77.9,48.9
						 M114.3,43.7l-0.5,1.1l0,0c0.4,0.5,0.8,1,1.1,1.6l0.2-0.5l1-0.7l-1.1-0.5L114.3,43.7 M107.3,39.4c1.6,0.8,3,1.9,4.3,3.1
						c0-1.5-0.5-3-1.4-4.4c-0.4-0.7-1-1.4-1.6-2c6.5,3.4,11.5,9.7,12.9,17.4c-0.4-0.7-0.8-1.4-1.4-2c-1.1-1.2-2.4-2.1-3.9-2.6
						c0.8,1.6,1.3,3.2,1.7,5c0.3,0.2,0.6,0.4,0.9,0.7c3,2.9,3.3,8.7,1.2,13.6c-2.1,4.9-6.6,8.6-10.8,8.4c-0.4,0-0.8-0.1-1.1-0.2
						c-1.5,0.9-3.1,1.6-4.8,2.2c0.7,0.4,1.4,0.6,2.1,0.8c0.8,0.2,1.6,0.3,2.4,0.3c0.8,0,1.6-0.1,2.3-0.4c-3,1.9-6.5,3.2-10.3,3.6
						c-3,0.3-5.9,0.1-8.7-0.5c-0.7-0.2-1.4-0.4-2.1-0.6c0.8,0,1.5,0,2.3-0.2c1.7-0.3,3.1-1.1,4.3-2.1c-1.2-0.1-2.4-0.3-3.5-0.5
						c-0.5-0.1-1.1-0.3-1.6-0.5c-0.3,0.2-0.7,0.3-1.1,0.4c-1.3,0.4-2.7,0.4-4.2,0c-3-0.7-6.1-2.9-8.2-5.8c-3.1-4.3-4.2-10-1.9-13.5
						c0.2-0.3,0.4-0.6,0.7-0.9c0-1.8,0.1-3.5,0.5-5.2c-1.3,0.8-2.4,1.9-3.2,3.4c-0.4,0.7-0.7,1.5-0.9,2.3c-0.3-7.8,3-15,8.6-19.8
						c-0.5,0.7-0.8,1.5-1.1,2.2c-0.5,1.6-0.6,3.2-0.3,4.7c1-1.5,2.2-2.8,3.5-4c0-0.4,0.1-0.7,0.2-1.1c1-4.1,5.9-7.2,11.2-7.8
						c1.9-0.2,3.9-0.1,5.7,0.3c3.1,0.8,5.7,2.4,6.9,4.8C107.1,38.8,107.2,39.1,107.3,39.4 M103.3,32.4c-2.9-0.7-6.1-0.9-9.2-0.6
						c-14.5,1.6-25,14.8-23.3,29.3c1.3,11.4,9.6,20.2,20.1,22.8c2.9,0.7,6.1,0.9,9.2,0.6c14.5-1.6,25-14.8,23.3-29.3
						C122.1,43.8,113.8,34.9,103.3,32.4"/>
					<path fill="#130D0C" d="M75.8,58.6c0,0.6,0.1,1.2,0.1,1.9c0.1,1.2,0.4,2.4,0.7,3.6c0,0.1-0.1,0.3-0.1,0.4
						c-0.5,2.2,0.2,5.1,1.9,7.4c1.5,2,3.5,3.4,5.5,3.9c0.5,0.1,1.1,0.2,1.6,0.2c1.5,1,3.2,1.8,5,2.4c-0.3,0.2-0.7,0.3-1.1,0.4
						c-1.3,0.4-2.7,0.4-4.2,0c-3-0.7-6.1-2.9-8.2-5.8c-3.1-4.3-4.2-10-1.9-13.5C75.3,59.2,75.6,58.9,75.8,58.6"/>
					<path fill="#130D0C" d="M100,33.7c3.1,0.8,5.7,2.4,6.9,4.8c0.2,0.3,0.3,0.6,0.4,1c-1.6-0.9-3.3-1.6-5.2-2l0,0
						c-0.9-1-2.2-1.7-3.8-2.1c-1.2-0.3-2.5-0.4-3.9-0.2c-3,0.3-5.8,1.9-7,4c-1.7,0.8-3.2,1.9-4.6,3.1c0-0.4,0.1-0.7,0.2-1.1
						c1-4.1,5.9-7.2,11.2-7.8C96.2,33.1,98.2,33.2,100,33.7"/>
					<path fill="#A51A13" d="M108.6,36.1c6.5,3.4,11.5,9.7,12.9,17.4c-0.4-0.7-0.8-1.4-1.4-2c-1.1-1.2-2.4-2.1-3.9-2.6
						c-0.4-0.8-0.9-1.7-1.4-2.4l0.2-0.5l1-0.7l-1.1-0.5l-0.7-1l-0.5,1.1l0,0c-0.7-0.8-1.4-1.6-2.2-2.4c0-1.5-0.5-3-1.4-4.4
						C109.8,37.3,109.2,36.7,108.6,36.1"/>
					<path fill="#A51A13" d="M110.3,79.2c-3,1.9-6.5,3.2-10.3,3.6c-3,0.3-5.9,0.1-8.7-0.5c-0.7-0.2-1.4-0.4-2.1-0.6
						c0.8,0,1.5,0,2.3-0.2c1.7-0.3,3.1-1.1,4.3-2.1c1.2,0.1,2.5,0.1,3.8-0.1l-0.1,0.1l-1.2,0.1l0.8,1l0.1,1.2l1-0.8l1.2-0.1l-0.8-1
						l-0.1-0.7c1-0.2,2-0.4,3-0.7c0.7,0.4,1.4,0.6,2.1,0.8c0.8,0.2,1.6,0.3,2.4,0.3C108.7,79.5,109.5,79.4,110.3,79.2"/>
					<path fill="#A51A13" d="M80.8,39.3c-0.5,0.7-0.8,1.5-1.1,2.2c-0.5,1.6-0.6,3.2-0.3,4.7c-0.6,0.9-1.1,1.8-1.6,2.8L77,49.1
						l-1.1-0.5l0.2,1.2l-0.5,1.1l1.2-0.2l0.3,0.1c-0.3,0.8-0.6,1.7-0.7,2.6c-1.3,0.8-2.4,1.9-3.2,3.4c-0.4,0.7-0.7,1.5-0.9,2.3
						C71.9,51.3,75.3,44.1,80.8,39.3"/>
					<path fill="#130D0C" d="M118,53.8c0.3,0.2,0.6,0.4,0.9,0.7c3,2.9,3.3,8.7,1.2,13.6c-2.1,4.9-6.6,8.6-10.8,8.4
						c-0.4,0-0.8-0.1-1.1-0.2c1.6-1,3-2.1,4.3-3.4c2.3-0.5,4.7-2.7,5.9-5.5c0.3-0.6,0.5-1.2,0.6-1.9c0.6-2.3,0.4-4.6-0.6-6.2
						c0.1-1.2,0-2.4-0.1-3.6C118.2,55.1,118.1,54.4,118,53.8"/>
					<path fill="#17628C" d="M76.7,64.1c0,0.1-0.1,0.3-0.1,0.4c-0.5,2.2,0.2,5.1,1.9,7.4c1.5,2,3.5,3.4,5.5,3.9
						c0.5,0.1,1.1,0.2,1.6,0.2C81.3,73.2,78.1,69.1,76.7,64.1 M118.4,59.3c-0.3,5.2-2.5,10-5.9,13.6c2.3-0.5,4.7-2.7,5.9-5.5
						c0.3-0.6,0.5-1.2,0.6-1.9C119.5,63.2,119.3,60.9,118.4,59.3 M98.3,35.3c-1.2-0.3-2.5-0.4-3.9-0.2c-3,0.3-5.8,1.9-7,4
						c2.2-1.1,4.6-1.8,7.2-2.1c2.6-0.3,5.1-0.1,7.4,0.5C101.2,36.4,99.9,35.7,98.3,35.3"/>
				</g>
				<path fill="#999999" d="M5.8,26.1C1,28.6-3.1,74.7,11.1,87.2c10.6,9.3,27.5,7.1,27.5,7.1s-21.3,0-24.2,0S0.9,92.7,0.9,81
					s0-49.4,0-49.4S4.9,25.2,5.8,26.1z"/>
			</g>
		</g>
	</g>
	<g>
		<g>
			<path fill="#999999" d="M713.2,95.3H239.6c-0.6,0-1-0.4-1-1s0.4-1,1-1h473.6c6.1,0,11-4.9,11-11V29.5c0-6.1-4.9-11-11-11H541
				c-0.6,0-1-0.4-1-1s0.4-1,1-1h172.2c7.2,0,13,5.8,13,13v52.7C726.2,89.4,720.4,95.3,713.2,95.3z"/>
		</g>
		<g>
			<path fill="#999999" d="M724.7,41.4l0.5-9.8c0,0,1.5-7-5.7-12.4c0,0-11.6-9.6-29.1,2.1C690.4,21.4,725.3,10.5,724.7,41.4z"/>
			<g>
				
					<linearGradient id="SVGID_5_" gradientUnits="userSpaceOnUse" x1="-548.7337" y1="7314.5186" x2="-464.9849" y2="7314.5186" gradientTransform="matrix(1 0 0 -1 1186.7935 7351.9897)">
					<stop  offset="0" style="stop-color:#A61616"/>
					<stop  offset="1" style="stop-color:#999999"/>
				</linearGradient>
				<path fill="url(#SVGID_5_)" d="M721.8,20.7c-26.2-10.8-55.4,18.7-59.2,24.5c11.7,1.8,17.6,9.7,17.6,9.7
					c-12.6-4-21.9-1.4-21.9-1.4c7.6-0.6,13.8,8.3,13.8,8.3c-11.5-5.1-23.4-2.7-23.4-2.7l-10.7-13.3c8.3-15.8,7-25.3,7-25.3
					c5.1,12.3,3.3,15.6,3.3,15.6c6.3-9.5,7.3-16.3,7.3-16.3c1.2,8.9,1.2,15,0.7,19c13.7-12.5,19.7-17.8,28.1-21.5
					C706.4,8.2,718.7,17,721.8,20.7z"/>
				<g>
					<path fill="#EEE7CA" d="M655.4,61.1c-1.7,14.5-14.8,25-29.3,23.3c-14.5-1.6-25-14.8-23.3-29.3c1.7-14.5,14.8-25,29.3-23.3
						C646.6,33.4,657.1,46.6,655.4,61.1"/>
					<path fill="#271D1B" d="M635.2,62.7c-5.2,7.1-3.7,14.5,1.6,16.1c4,1.2,9.2-1.5,12.4-5.8c3.1-4.3,4.2-10,1.9-13.5
						C648,54.9,640.4,55.6,635.2,62.7"/>
					<path fill="#271D1B" d="M630,50.6c8.8,1,14.4-4,13.1-9.4c-1-4.1-5.9-7.2-11.2-7.8c-5.3-0.6-10.7,1.4-12.6,5.1
						C616.8,43.4,621.2,49.6,630,50.6"/>
					<path fill="#CB1716" d="M631.6,60c1.7-2.3,3.5-4,5.4-5.3c-2.2,0.5-4.7,0.6-7.6,0.3c-2.8-0.3-5.3-1-7.3-2
						c1.5,1.7,2.9,3.8,4.1,6.4c1.1,2.6,1.7,5.1,1.9,7.3C628.8,64.6,629.9,62.3,631.6,60z"/>
					<path fill="#CB1716" d="M606,51.4c2.8-3.2,7.1-3.9,11.2-2.1c-3-3.4-3.5-7.7-1.3-11.3c0.4-0.7,1-1.4,1.6-2
						c-6.5,3.4-11.5,9.7-12.9,17.4C605.1,52.7,605.5,52,606,51.4 M611.2,44.7l0.7-1l0.5,1.1l1,0.7l-1.1,0.5l-0.7,1l-0.5-1.1l-1-0.7
						L611.2,44.7"/>
					<path fill="#CB1716" d="M627.4,72.8c-1.5,4.3-4.9,6.9-9.2,6.8c-0.8,0-1.6-0.1-2.3-0.4c3,1.9,6.5,3.2,10.3,3.6
						c3.8,0.4,7.4,0,10.8-1.2c-0.8,0-1.5,0-2.3-0.2C630.7,80.6,627.9,77.3,627.4,72.8 M627.4,80.4l-0.1,1.2l-1-0.8l-1.2-0.1l0.8-1
						l0.1-1.2l1,0.8l1.2,0.1L627.4,80.4"/>
					<path fill="#CB1716" d="M642.6,52.3c4.4-0.9,8.5,0.8,10.5,4.5c0.4,0.7,0.7,1.5,0.9,2.3c0.3-7.8-3-15-8.6-19.8
						c0.5,0.7,0.8,1.5,1.1,2.2C647.8,45.5,646.3,49.6,642.6,52.3 M650.3,48.5l-0.2,1.2l0.5,1.1l-1.2-0.2l-1.1,0.5l0.2-1.2l-0.5-1.1
						l1.2,0.2L650.3,48.5"/>
					<path fill="#271D1B" d="M622.1,61.2c-3.5-8.1-10.7-10.5-14.7-6.6c-3,2.9-3.3,8.7-1.2,13.6c2.1,4.9,6.6,8.6,10.8,8.4
						C622.5,76.2,625.6,69.2,622.1,61.2"/>
					<path fill="#109BE0" d="M608.9,58.1c-2.3,1.7-2.6,5.8-1.1,9.3c1.5,3.5,4.7,6,7.5,5.5c3.4-0.6,5-5.1,2.8-10.1
						C616.1,57.9,611.7,56,608.9,58.1 M648.7,62.6c-2.2-2.7-6.9-1.8-10.1,2.6c-3.2,4.3-2.7,9.1,0.5,10.4c2.6,1.1,6.3-0.6,8.6-3.7
						C650,68.9,650.6,64.8,648.7,62.6 M639.2,40.7c-0.4-2.8-3.7-5.2-7.5-5.6c-3.8-0.4-7.6,1.1-8.6,3.8c-1.2,3.2,2,6.9,7.3,7.5
						C635.8,47,639.7,44.1,639.2,40.7"/>
					<path fill="#1573B0" d="M608.9,58.1c-2.3,1.7-2.6,5.8-1.1,9.3c1.5,3.5,4.7,6,7.5,5.5c3.4-0.6,5-5.1,2.8-10.1
						C616.1,57.9,611.7,56,608.9,58.1 M648.7,62.6c-2.2-2.7-6.9-1.8-10.1,2.6c-3.2,4.3-2.7,9.1,0.5,10.4c2.6,1.1,6.3-0.6,8.6-3.7
						C650,68.9,650.6,64.8,648.7,62.6 M639.2,40.7c-0.4-2.8-3.7-5.2-7.5-5.6c-3.8-0.4-7.6,1.1-8.6,3.8c-1.2,3.2,2,6.9,7.3,7.5
						C635.8,47,639.7,44.1,639.2,40.7"/>
					<path fill="#F2EBE3" d="M628.4,39.2l-1.2,1l-1.9,0.5l1.6,0.9l0.7,1.5l1.3-1.2l1.9-0.5l-1.6-0.9L628.4,39.2z M640.5,72.7
						c-0.2,0.3-0.2,0.7,0,0.8c0.2,0.1,0.6,0,0.9-0.3c0.2-0.3,0.2-0.7,0-0.8C641.2,72.2,640.8,72.3,640.5,72.7z M613.7,65.1l0.1,1.9
						l-0.7,1.2l1.5,0.5l1.4,1.4l0-1.8l0.9-1.3l-1.7-0.5L613.7,65.1z M610.1,60.4c-0.2,0.1-0.3,0.6-0.1,0.9c0.2,0.4,0.5,0.5,0.7,0.4
						c0.2-0.1,0.3-0.6,0.1-0.9C610.6,60.4,610.3,60.3,610.1,60.4z M614.4,63.2c0.6-0.3,0.8-1.2,0.4-2c-0.4-0.8-1.1-1.2-1.7-0.9
						c-0.6,0.3-0.7,1.2-0.4,2C613.1,63,613.8,63.4,614.4,63.2z M644.5,64.6l-1.6-0.1l0.4,1.7l-0.5,1.9l1.6-1l1.5,0l-0.3-1.5l0.6-1.9
						L644.5,64.6z M638.8,69c-0.5,0.7-0.5,1.6,0.1,1.9c0.6,0.3,1.4,0,1.9-0.7c0.5-0.7,0.5-1.5,0-1.9C640.3,68,639.4,68.3,638.8,69z
						 M636.6,40.5c0-0.3-0.3-0.5-0.7-0.6c-0.4,0-0.7,0.1-0.7,0.4c0,0.3,0.3,0.5,0.7,0.6C636.3,41,636.6,40.8,636.6,40.5z
						 M633.7,41.9c-0.8-0.1-1.6,0.3-1.6,1c-0.1,0.7,0.6,1.3,1.5,1.4c0.9,0.1,1.6-0.4,1.6-1C635.2,42.6,634.5,42,633.7,41.9z"/>
					
						<radialGradient id="SVGID_6_" cx="-58.1573" cy="8337.8008" r="26.4916" gradientTransform="matrix(0.9701 -0.2425 -0.2425 -0.9701 2707.6775 8132.8657)" gradientUnits="userSpaceOnUse">
						<stop  offset="0" style="stop-color:#FEFBCD"/>
						<stop  offset="0.4778" style="stop-color:#FDF9CB"/>
						<stop  offset="0.6499" style="stop-color:#FAF4C4"/>
						<stop  offset="0.7726" style="stop-color:#F5EAB9"/>
						<stop  offset="0.8717" style="stop-color:#EEDCA8"/>
						<stop  offset="0.9557" style="stop-color:#E4CA92"/>
						<stop  offset="1" style="stop-color:#DEBE83"/>
					</radialGradient>
					<path fill="url(#SVGID_6_)" d="M625.9,79.2l-0.1,0.7l-0.8,1l1.2,0.1l1,0.8l0.1-1.2l0.8-1l-1.2-0.1l-0.1-0.1c0,0-0.1,0-0.1,0
						C626.4,79.2,626.1,79.2,625.9,79.2 M648.3,48.9c0.3,0.6,0.6,1.3,0.8,1.9l0.3-0.1l1.2,0.2l-0.5-1.1l0.2-1.2l-1.1,0.5L648.3,48.9
						 M611.9,43.7l-0.7,1l-1.1,0.5l1,0.7l0.2,0.5c0.4-0.5,0.7-1.1,1.1-1.6l0,0L611.9,43.7 M618.9,39.4c0.1-0.3,0.2-0.6,0.4-1
						c1.2-2.4,3.8-4,6.9-4.8c1.8-0.4,3.8-0.6,5.7-0.3c5.3,0.6,10.2,3.7,11.2,7.8c0.1,0.4,0.1,0.7,0.2,1.1c1.3,1.2,2.5,2.5,3.5,4
						c0.3-1.5,0.2-3.1-0.3-4.7c-0.3-0.8-0.6-1.5-1.1-2.2c5.6,4.8,8.9,12,8.6,19.8c-0.2-0.8-0.5-1.6-0.9-2.3
						c-0.8-1.5-1.9-2.6-3.2-3.4c0.4,1.7,0.6,3.4,0.5,5.2c0.2,0.3,0.5,0.6,0.7,0.9c2.3,3.5,1.3,9.2-1.9,13.5c-2.1,2.9-5.2,5-8.2,5.8
						c-1.4,0.3-2.9,0.4-4.2,0c-0.4-0.1-0.7-0.3-1.1-0.4c-0.5,0.2-1.1,0.3-1.6,0.5c-1.2,0.3-2.3,0.5-3.5,0.5c1.2,1,2.6,1.8,4.3,2.1
						c0.7,0.1,1.5,0.2,2.3,0.2c-0.7,0.2-1.4,0.4-2.1,0.6c-2.8,0.7-5.7,0.9-8.7,0.5c-3.8-0.4-7.3-1.7-10.3-3.6
						c0.8,0.2,1.6,0.3,2.3,0.4c0.8,0,1.7-0.1,2.4-0.3c0.8-0.2,1.5-0.5,2.1-0.8c-1.7-0.5-3.3-1.2-4.8-2.2c-0.4,0.1-0.7,0.1-1.1,0.2
						c-4.2,0.2-8.6-3.5-10.8-8.4c-2.1-4.9-1.8-10.7,1.2-13.6c0.3-0.3,0.6-0.5,0.9-0.7c0.4-1.8,0.9-3.4,1.7-5
						c-1.5,0.5-2.8,1.4-3.9,2.6c-0.5,0.6-1,1.3-1.4,2c1.5-7.7,6.4-14,12.9-17.4c-0.6,0.6-1.2,1.3-1.6,2c-0.9,1.4-1.3,2.9-1.4,4.4
						C615.9,41.3,617.3,40.2,618.9,39.4 M622.8,32.4c-10.5,2.5-18.8,11.4-20.1,22.8c-1.7,14.5,8.8,27.7,23.3,29.3
						c3.2,0.4,6.3,0.1,9.2-0.6c10.5-2.5,18.8-11.4,20.1-22.8c1.6-14.5-8.8-27.7-23.3-29.3C628.9,31.4,625.8,31.6,622.8,32.4"/>
					<path fill="#130D0C" d="M650.4,58.6c0,0.6-0.1,1.2-0.1,1.9c-0.1,1.2-0.4,2.4-0.7,3.6c0,0.1,0.1,0.3,0.1,0.4
						c0.5,2.2-0.2,5.1-1.9,7.4c-1.5,2-3.5,3.4-5.5,3.9c-0.5,0.1-1.1,0.2-1.6,0.2c-1.5,1-3.2,1.8-5,2.4c0.3,0.2,0.7,0.3,1.1,0.4
						c1.3,0.4,2.7,0.4,4.2,0c3-0.7,6.1-2.9,8.2-5.8c3.1-4.3,4.2-10,1.9-13.5C650.8,59.2,650.6,58.9,650.4,58.6"/>
					<path fill="#130D0C" d="M626.2,33.7c-3.1,0.8-5.7,2.4-6.9,4.8c-0.2,0.3-0.3,0.6-0.4,1c1.6-0.9,3.3-1.6,5.2-2l0,0
						c0.9-1,2.2-1.7,3.8-2.1c1.2-0.3,2.5-0.4,3.9-0.2c3,0.3,5.8,1.9,7,4c1.7,0.8,3.2,1.9,4.6,3.1c0-0.4-0.1-0.7-0.2-1.1
						c-1-4.1-5.9-7.2-11.2-7.8C630,33.1,628,33.2,626.2,33.7"/>
					<path fill="#A51A13" d="M617.6,36.1c-6.5,3.4-11.5,9.7-12.9,17.4c0.4-0.7,0.8-1.4,1.4-2c1.1-1.2,2.4-2.1,3.9-2.6
						c0.4-0.8,0.9-1.7,1.4-2.4l-0.2-0.5l-1-0.7l1.1-0.5l0.7-1l0.5,1.1l0,0c0.7-0.8,1.4-1.6,2.2-2.4c0-1.5,0.5-3,1.4-4.4
						C616.4,37.3,617,36.7,617.6,36.1"/>
					<path fill="#A51A13" d="M615.9,79.2c3,1.9,6.5,3.2,10.3,3.6c3,0.3,5.9,0.1,8.7-0.5c0.7-0.2,1.4-0.4,2.1-0.6
						c-0.8,0-1.5,0-2.3-0.2c-1.7-0.3-3.1-1.1-4.3-2.1c-1.2,0.1-2.5,0.1-3.8-0.1l0.1,0.1l1.2,0.1l-0.8,1l-0.1,1.2l-1-0.8l-1.2-0.1
						l0.8-1l0.1-0.7c-1-0.2-2-0.4-3-0.7c-0.7,0.4-1.4,0.6-2.1,0.8c-0.8,0.2-1.6,0.3-2.4,0.3C617.5,79.5,616.7,79.4,615.9,79.2"/>
					<path fill="#A51A13" d="M645.3,39.3c0.5,0.7,0.8,1.5,1.1,2.2c0.5,1.6,0.6,3.2,0.3,4.7c0.6,0.9,1.1,1.8,1.6,2.8l0.8,0.1l1.1-0.5
						l-0.2,1.2l0.5,1.1l-1.2-0.2l-0.3,0.1c0.3,0.8,0.6,1.7,0.7,2.6c1.3,0.8,2.4,1.9,3.2,3.4c0.4,0.7,0.7,1.5,0.9,2.3
						C654.2,51.3,650.9,44.1,645.3,39.3"/>
					<path fill="#130D0C" d="M608.2,53.8c-0.3,0.2-0.6,0.4-0.9,0.7c-3,2.9-3.3,8.7-1.2,13.6c2.1,4.9,6.6,8.6,10.8,8.4
						c0.4,0,0.8-0.1,1.1-0.2c-1.6-1-3-2.1-4.3-3.4c-2.3-0.5-4.7-2.7-5.9-5.5c-0.3-0.6-0.5-1.2-0.6-1.9c-0.6-2.3-0.4-4.6,0.6-6.2
						c-0.1-1.2,0-2.4,0.1-3.6C608,55.1,608.1,54.4,608.2,53.8"/>
					<path fill="#17628C" d="M649.5,64.1c-1.5,5-4.7,9.2-8.9,11.9c0.5,0,1,0,1.6-0.2c2-0.5,4-1.9,5.5-3.9c1.7-2.3,2.5-5.2,1.9-7.4
						C649.6,64.4,649.6,64.2,649.5,64.1 M607.8,59.3c-1,1.6-1.2,3.9-0.6,6.2c0.2,0.6,0.4,1.3,0.6,1.9c1.2,2.8,3.6,5,5.9,5.5
						C610.3,69.3,608.1,64.5,607.8,59.3 M627.9,35.3c-1.5,0.4-2.9,1.1-3.8,2.1c2.4-0.6,4.9-0.7,7.4-0.5c2.6,0.3,5,1,7.2,2.1
						c-1.2-2.1-3.9-3.6-7-4C630.4,35,629.1,35.1,627.9,35.3"/>
				</g>
				<path fill="#999999" d="M720.4,26.1c4.8,2.5,8.9,48.6-5.3,61.1c-10.6,9.3-27.5,7.1-27.5,7.1s21.3,0,24.2,0
					c3,0,13.5-1.6,13.5-13.2s0-49.4,0-49.4S721.3,25.2,720.4,26.1z"/>
			</g>
		</g>
	</g>
	<g>
		<circle fill="#999999" cx="711.1" cy="58" r="3.5"/>
		<polygon fill="#999999" points="701,54.6 699.3,55.7 701.2,56.5 702.3,58.2 703.1,56.3 704.8,55.2 703,54.4 701.8,52.7 		"/>
		<polygon fill="#999999" points="693.6,62.8 693,64.8 695,64.2 696.9,64.7 696.3,62.7 696.9,60.8 694.9,61.4 693,60.9 		"/>
		<path fill="#999999" d="M689.6,64.4c0,0-0.3-0.5-0.8,0.4c8,5.3,8.6,11.3,6.9,14.4c-1.6-1.3-0.9-3.2-2-4.8
			c-1.2-1.8-3.6-2.2-4.3-0.1c-0.7,2.2,1.6,4.7,3.5,5c1,0.2,1.5,0.7,1.7,1.2c-0.7,0.5-1.4,0.8-2.2,0.7c-3.8-0.6-8.6-8-8.6-8
			s-0.5,0.8-0.6,2c6.1,9.8,20.1,14.4,23.5,15.1c0,0-2.6-2.7-3.2-5.4C699.3,67,689.6,64.4,689.6,64.4z"/>
		<circle fill="#999999" cx="714.9" cy="50.4" r="2.6"/>
		<circle fill="#999999" cx="701.3" cy="63.2" r="2.1"/>
		<circle fill="#999999" cx="685" cy="68.6" r="2.7"/>
		<path fill="#999999" d="M711.3,91.8c-3-4.4-8.4-16.7-8.6-25.7c0.8-1.2,2.1-1.8,2.1-1.8s0.3,11.3,4.1,14.4c1,0.8,2.5,0.9,4,0.4
			c0-0.7-0.3-1.5-1.3-2.2c-2-1.3-3.2-5.6-1.2-7.7c2-2.1,4.5-0.3,4.9,2.4c0.3,2.3-1.4,4.2-0.5,6.4c3.4-2.8,5.9-9.5,1-19.7
			c1.1-0.6,1.9-0.9,1.9-0.9s6.5,10.5,4,29.9L711.3,91.8z"/>
	</g>
	<g>
		<circle fill="#999999" cx="17.2" cy="58" r="3.5"/>
		<polygon fill="#999999" points="26.5,52.7 25.3,54.4 23.5,55.2 25.1,56.3 25.9,58.2 27.1,56.5 29,55.7 27.3,54.6 		"/>
		<polygon fill="#999999" points="35.3,60.9 33.4,61.4 31.4,60.8 32,62.7 31.3,64.7 33.3,64.2 35.3,64.8 34.7,62.8 		"/>
		<path fill="#999999" d="M24.7,84.9c-0.6,2.7-3.2,5.4-3.2,5.4C24.9,89.7,38.9,85,45,75.2c-0.1-1.1-0.6-2-0.6-2s-4.7,7.4-8.6,8
			c-0.7,0.1-1.5-0.1-2.2-0.7c0.2-0.5,0.7-1.1,1.7-1.2c1.8-0.3,4.2-2.8,3.5-5c-0.7-2.2-3.1-1.7-4.3,0.1c-1.1,1.6-0.4,3.5-2,4.8
			c-1.7-3.1-1.1-9.1,6.9-14.4c-0.5-0.9-0.8-0.4-0.8-0.4S29,67,24.7,84.9z"/>
		<circle fill="#999999" cx="13.4" cy="50.4" r="2.6"/>
		<circle fill="#999999" cx="27" cy="63.2" r="2.1"/>
		<circle fill="#999999" cx="43.3" cy="68.6" r="2.7"/>
		<path fill="#999999" d="M17,91.8c3-4.4,8.4-16.7,8.6-25.7c-0.8-1.2-2.1-1.8-2.1-1.8s-0.3,11.3-4.1,14.4c-1,0.8-2.5,0.9-4,0.4
			c0-0.7,0.3-1.5,1.3-2.2c2-1.3,3.2-5.6,1.2-7.7c-2-2.1-4.5-0.3-4.9,2.4c-0.3,2.3,1.4,4.2,0.5,6.4c-3.4-2.8-5.9-9.5-1-19.7
			c-1.1-0.6-1.9-0.9-1.9-0.9s-6.5,10.5-4,29.9L17,91.8z"/>
	</g>
</g>
</svg>
