<?xml version="1.0" encoding="utf-8"?>
<!-- Generator: Adobe Illustrator 18.1.1, SVG Export Plug-In . SVG Version: 6.00 Build 0)  -->
<svg version="1.1" id="圖層_1" xmlns="http://www.w3.org/2000/svg" xmlns:xlink="http://www.w3.org/1999/xlink" x="0px" y="0px"
	 viewBox="0 0 490 96.9" enable-background="new 0 0 490 96.9" xml:space="preserve">
<g>
	<g>
		<path fill="#D80D18" d="M68.6,81.4V42.7h30.7c0,0,17.7,14.7-4.8,23.9l12,14.7h-9.2l-7.2-8.8c0,0-3.7-5.5-10,0.4v-5.2
			c0,0,24.7-13.6,12.4-21.1H76.5v34.7H68.6z"/>
		<path fill="#D80D18" d="M119.6,42.7c0,0-2.4,27.9,0,31.5c0,0,8.6,13.7,18.3,0V42.7h6c0,0,4.5,22.2,0,33.9c0,0-12.6,15.5-27.9,3.5
			c0,0-6.9-5.8-5.2-20.6l1.6-16.7H119.6z"/>
		<path fill="#D80D18" d="M178.6,47.9c0,0-14.8-6-19.5,0c0,0-4.4,8.8,17.5,12.4c0,0,15.9,8,6,17.9c0,0-9.2,11.4-32.1,1.4
			c0,0,0.6-2.8,3-3.8c0,0,12,7.4,20.3,2c0,0,6.2-7.6-3.4-10.2c0,0-19.7-5.4-18.1-16.9c0,0,0-9.4,10.8-9.4c0,0,14.5-1.8,18.7,3.2
			C181.8,44.5,183.6,49.5,178.6,47.9z"/>
		<path fill="#D80D18" d="M215.6,47.9c0,0-14.7-6-19.5,0c0,0-4.4,8.8,17.5,12.4c0,0,15.9,8,6,17.9c0,0-9.2,11.4-32.1,1.4
			c0,0,0.6-2.8,3-3.8c0,0,12,7.4,20.3,2c0,0,6.2-7.6-3.4-10.2c0,0-19.7-5.4-18.1-16.9c0,0,0-9.4,10.8-9.4c0,0,14.5-1.8,18.7,3.2
			C218.8,44.5,220.6,49.5,215.6,47.9z"/>
		<rect x="226.6" y="42.7" fill="#D80D18" width="10.6" height="40.7"/>
		<path fill="#D80D18" d="M264.5,71.2c0,0-15.3,12.2-13-2.6l11.4-19.7L276,81.4h8.8l-15.1-38.7c0,0-5-2.4-8,0l-16.9,24.1
			c0,0-11.6,22.1,10.6,14.5l13.6-7.4C268.9,74,269.9,70.2,264.5,71.2z"/>
		<path fill="#D80D18" d="M300.9,57.3c0,0-1.4-16.3,12.8-10c0,0,10.2,4.4,1.6,14.8l-21.5,16.7v4.2h34.9v-6.6h-19.7
			c0,0,18.1-9.4,19.7-18.5c0,0,2.4-16.1-10.6-16.2c0,0-16.1-5.1-21.5,6.6v10C296.6,58.2,299.2,60,300.9,57.3z"/>
		<path fill="#D80D18" d="M367.5,50.3c-5.4-14.5-24.7-8.6-24.7-8.6c-14.4,7.3-10.4,30.6-10.4,30.6c0.4,4.2,5.6,7.6,5.6,7.6
			c17.1,11.3,29.5-1.6,29.5-1.6C375.5,62.6,367.5,50.3,367.5,50.3z M360.9,72.4c-6.6,9.1-14.9,3.6-14.9,3.6
			c-12.1-15.5,3.1-30.3,3.1-30.3c4.3-1.3,6.7,0.9,6.7,0.9C363.3,51.4,360.9,72.4,360.9,72.4z"/>
		<polygon fill="#D80D18" points="373.9,48.7 378.8,47.5 378.8,81.5 386.7,81.5 386.7,41.6 380.3,44.4 373.9,46.5 		"/>
		<path fill="#D80D18" d="M417.4,61.4c11.7-2.7,4.8-16.2,4.8-16.2c-4.6-7.2-20-3.5-20-3.5c-16.4,8.9-0.6,19.7-0.6,19.7
			c-21.5,7.6-3,20.1-3,20.1c15.1,7.3,25.6-2.4,25.6-2.4C433.1,64.7,417.4,61.4,417.4,61.4z M413.1,79.2c0,0-14.3,4.2-11.4-9.4
			c0,0,1.3-5.8,5.1-7.1l-0.3-4.1c0,0-7.2-7-0.7-12.4c0,0,7.3-2.8,9.4,3.6c0,0,1.5,6-3.3,8.8c0,0-0.6,5.2,3.5,5.1
			C415.4,63.7,421.9,76.1,413.1,79.2z"/>
	</g>
	<g>
		<path d="M132.6,26.5h-4.4V5.8h13.3v3.5h-9v4.9h8.4v3.5h-8.4V26.5z"/>
		<path d="M148.4,5.8v20.7h-4.5V5.8H148.4z"/>
		<path d="M156.5,26.5h-4.4V5.8h13.3v3.5h-9v4.9h8.4v3.5h-8.4V26.5z"/>
		<path d="M170.6,26.5h-4.3l7.5-20.7h5.3l7.3,20.7h-4.5l-1.6-4.4h-8.2L170.6,26.5z M173.3,18.7h5.9l-2.8-8.9h-0.1L173.3,18.7z"/>
		<path d="M202.7,21.4l4-15.6h5l3.6,15.6h0.1l3.4-15.6h4.1l-5.3,20.7h-4.9l-3.7-15.8l-4,15.8h-5l-5-20.7h4.6L202.7,21.4z"/>
		<path d="M234.5,26.8c-6.5-0.2-9.8-3.7-10-10.5c0.1-7,3.5-10.6,10-10.9c6.4,0.2,9.6,3.9,9.9,10.9C244.1,23.1,240.9,26.6,234.5,26.8
			z M234.5,8.6c-3.6,0-5.3,2.5-5.3,7.6c-0.1,5.1,1.7,7.6,5.3,7.5c3.4,0,5.2-2.5,5.2-7.5C239.7,11.1,237.9,8.6,234.5,8.6z"/>
		<path d="M251.8,18.2v8.3h-4.5V5.8h8.9c4.7,0.2,7.1,1.9,7.2,5.4c-0.1,2.7-1.5,4.4-4.3,5v0.1c2,0.2,3.3,1.8,3.7,4.6
			c0,0.2,0,0.4,0.1,0.7c0.1,2.5,0.5,4.2,1.1,4.9h-4.8c-0.4-1.8-0.7-3.7-0.8-5.6c-0.2-1.8-0.9-2.7-1.9-2.7H251.8z M251.8,9.3v5.5h3.7
			c2,0,3.1-1,3.1-2.9c-0.1-1.7-1.1-2.6-3.1-2.6H251.8z"/>
		<path d="M280,26.5h-13.3V5.8h4.4v17.3h9V26.5z"/>
		<path d="M282.5,26.5V5.8h7.1c6.9,0.1,10.4,3.5,10.4,10.4c-0.1,6.9-3.6,10.3-10.4,10.3H282.5z M286.9,9.3v13.8h2.4
			c4.1,0.2,6.1-2.1,6.1-6.8c0.1-4.7-1.9-7-6.1-7H286.9z"/>
		<path d="M327.6,12.5h-4.7c-0.2-2.5-1.5-3.8-4-3.9c-2.5,0.2-3.8,2.7-3.9,7.6c0.1,4.9,1.5,7.4,3.9,7.5c2.5-0.1,3.9-1.4,4-3.9h4.7
			c-0.3,4.6-3.2,6.9-8.7,6.9c-5.6-0.2-8.5-3.7-8.6-10.5c0.1-7,3-10.6,8.6-10.9C324.3,5.5,327.3,7.9,327.6,12.5z"/>
		<path d="M343.9,5.8h4.5v13c-0.2,5.2-3.2,7.8-9,8c-5.9-0.2-8.9-2.8-9.1-8v-13h4.5v11.3c-0.3,4.6,1.2,6.8,4.6,6.6
			c3.2,0.2,4.7-2,4.5-6.6V5.8z"/>
		<path d="M356.8,26.5h-4.4V5.8h6.4c5.6-0.1,8.4,2.1,8.4,6.4c-0.2,4-2.5,6.2-7.2,6.4h-3.3V26.5z M356.8,9.3v5.8c0.2,0,0.7,0,1.3,0.1
			c3,0.3,4.4-0.7,4.4-3c0-2-1.5-3-4.4-2.9C357.5,9.4,357,9.4,356.8,9.3z"/>
	</g>
	<g>
		<g>
			<radialGradient id="SVGID_1_" cx="23.7238" cy="48.455" r="38.1481" gradientUnits="userSpaceOnUse">
				<stop  offset="0" style="stop-color:#DAC59A"/>
				<stop  offset="0.399" style="stop-color:#E8B696"/>
				<stop  offset="0.6552" style="stop-color:#FCFCEE;stop-opacity:0.97"/>
				<stop  offset="0.9852" style="stop-color:#E5B896"/>
			</radialGradient>
			<path fill="url(#SVGID_1_)" d="M5.8,54.4c0,0,6.1-6.5-3-19.8c0,0-8.8-17.6,5-28.5c0,0,16.4-14.6,34,1.6c0,0,11.3,11.5,1.8,29.1
				c0,0-6.1,12.1-8.3,14.8c0,0-4,5.5,0,9.7c0,0-1.7,0.9-3.5-1.1c0,0,0,1,1.4,3.5c0,0,4.3,7.4,5.1,11.1c0,0,5,12.3,0.7,18
				c0,0-4.3,6.1-21.5,3.6c0,0-10.3-1.8-9.4-8.6c0,0,2.1-12.7,3.2-15.7c0,0,1.9-8.5,1.5-11c0,0-4,0-4.7-0.2c0,0,3.8-3.3,3.3-6.4
				C11.5,54.4,7.1,55.3,5.8,54.4z"/>
			<path fill="#D80D18" d="M10.1,85.4c0,0,12.5-0.6,16.1-10.9c0,0,1.5,1.3-1.6,7.7c0,0-6.6,9.3-14.6,6.3V85.4z"/>
			<path fill="#D80D18" d="M10.1,83.4c0,0,4.6,1.1,3.3-12.8C13.4,70.6,11.7,82.1,10.1,83.4z"/>
			<path fill="#D80D18" d="M20.2,18c0,0,0.8,4.6,0,12.6c0,0,3.1-4.8,10.8-6.3C31,24.3,23.7,21.3,20.2,18z"/>
			<path fill="#D80D18" d="M37.8,23.7c0,0,6.1-1.9,6.1-7.3c0,0,1,2,1.3,3.6c0,0,0.7,8.5-0.8,10.5C44.4,30.5,43.3,26.1,37.8,23.7z"/>
			<path fill="#D80D18" d="M7.4,9.4c0,0,4.4-1,9.4,2.9c0,0-0.2-8.3,3.3-9.5C20.2,2.8,12.2,3.2,7.4,9.4z"/>
			<path fill="#231815" d="M28.5,52.6c0,0-6.9-0.3-7.4-10.3c0,0-1.1-8.3,9-12.6c0,0,10.2-4.3,12.8,3c0,0,0.5,3-2.5,9
				c0,0-6.4,10.7-8.6,10.8c0,0,0-0.2,0.2-2c0,0,0.6-3.2-2.5-2.9C29.4,47.5,26,48,28.5,52.6z"/>
			<path fill="#231815" d="M9.6,12.8c0,0,5.6-1.8,8.4,7.6c0,0,1.6,10.6-2.9,14.4c0,0-4.9,6.2-9.7-1c0,0-3.7-4.1-1.6-14.9
				C3.8,18.9,5.3,13.5,9.6,12.8z"/>
			<path fill="#231815" d="M21,12.7c0,0-2.9-7.2,4.4-8.5c0,0,6.9-2.4,15.2,6.1c0,0,6.5,6.6,0.6,10.5c0,0-5.2,3.5-13.2-1.1
				c0,0-4.6-2.6-7-6.7"/>
			<linearGradient id="SVGID_2_" gradientUnits="userSpaceOnUse" x1="4.0247" y1="25.8225" x2="14.9344" y2="21.8517">
				<stop  offset="0" style="stop-color:#01429A"/>
				<stop  offset="0.9852" style="stop-color:#4E9AD4;stop-opacity:0.97"/>
			</linearGradient>
			<path fill="url(#SVGID_2_)" d="M9.5,15.2c0,0-5.8-0.2-5.5,8.9c0,0,0.3,8.9,6.6,8.2c0,0,6.3-0.7,3.3-13.1
				C14,19.2,12.8,15,9.5,15.2z"/>
			<linearGradient id="SVGID_3_" gradientUnits="userSpaceOnUse" x1="35.107" y1="6.6829" x2="29.8465" y2="15.7943">
				<stop  offset="0" style="stop-color:#01429A"/>
				<stop  offset="0.9852" style="stop-color:#4E9AD4;stop-opacity:0.97"/>
			</linearGradient>
			<path fill="url(#SVGID_3_)" d="M28.8,15.2c0,0-7.1-4.6-3.6-8.6c0,0,2.7-3.7,10.9,0.7c0,0,6.7,5.2,3.5,8.8
				C39.7,16.1,36.9,20.5,28.8,15.2z"/>
			<linearGradient id="SVGID_4_" gradientUnits="userSpaceOnUse" x1="31.9212" y1="44.3152" x2="31.9212" y2="30.1611">
				<stop  offset="0" style="stop-color:#01429A"/>
				<stop  offset="0.9852" style="stop-color:#4E9AD4;stop-opacity:0.97"/>
			</linearGradient>
			<path fill="url(#SVGID_4_)" d="M27.3,33c0,0,5.1-4.7,12.1-2.1c0,0,5.5,4-2.9,10.2c0,0-5.1,4.1-11.1,2.9
				C25.4,44.1,18.1,40.3,27.3,33z"/>
			<path fill="#FCFCEE" d="M6.6,26.4c0,0,2.2,0.9,1.6,3.1c0,0,0.9-2.1,3.2-1.6c0,0-2.1-0.8-1.6-3.1C9.8,24.8,9,27,6.6,26.4z"/>
			<path fill="#FCFCEE" d="M32.1,13.2c0,0,1.7,0.6,1.2,2.3c0,0,0.6-1.6,2.4-1.2c0,0-1.6-0.6-1.2-2.4C34.5,12,33.9,13.7,32.1,13.2z"
				/>
			<path fill="#FCFCEE" d="M8,20.4c0,0,1.4-0.1,1.6,1.2c0,0-0.1-1.3,1.3-1.6c0,0-1.3,0.1-1.6-1.2C9.2,18.8,9.3,20.1,8,20.4z"/>
			<path fill="#FCFCEE" d="M27.4,11.6c0,0,1.4-0.1,1.6,1.2c0,0-0.1-1.3,1.3-1.6c0,0-1.3,0.1-1.6-1.2C28.6,10,28.7,11.4,27.4,11.6z"
				/>
			<path fill="#FCFCEE" d="M6,23.4c0,0,0.6,0,0.7,0.5c0,0,0-0.6,0.6-0.7c0,0-0.6,0-0.7-0.5C6.6,22.7,6.6,23.2,6,23.4z"/>
			<path fill="#FCFCEE" d="M32.7,9.5c0,0,0.6,0,0.7,0.5c0,0,0-0.6,0.6-0.7c0,0-0.6,0-0.7-0.5C33.3,8.8,33.3,9.4,32.7,9.5z"/>
			<path fill="#FCFCEE" d="M10.7,22.9c0,0,0.6,0,0.7,0.5c0,0,0-0.6,0.6-0.7c0,0-0.6,0-0.7-0.5C11.3,22.2,11.3,22.8,10.7,22.9z"/>
			<g>
				<path fill="#FCFCEE" d="M35.8,35.5c0,0-0.6,1.6-2.3,1.2c0,0,1.6,0.6,1.2,2.3c0,0,0.6-1.5,2.3-1.2C37,37.8,35.5,37.2,35.8,35.5z"
					/>
				<path fill="#FCFCEE" d="M29.7,38.9c0,0-0.5,1.3-1.9,1c0,0,1.3,0.5,1,1.9c0,0,0.5-1.2,1.9-1C30.7,40.8,29.4,40.3,29.7,38.9z"/>
				<path fill="#FCFCEE" d="M34.1,35.1c0,0,0-0.6,0.6-0.7c0,0-0.6,0-0.7-0.5c0,0,0,0.6-0.6,0.7C33.4,34.5,34,34.5,34.1,35.1z"/>
				<path fill="#FCFCEE" d="M30.2,36c0,0,0,0.6-0.6,0.7c0,0,0.6,0,0.7,0.5c0,0,0-0.6,0.6-0.7C30.9,36.5,30.3,36.6,30.2,36z"/>
			</g>
			<path fill="#D80D18" d="M18.8,58.5c-2.2,1.2-3,2.3-3,2.3c-0.7,2-0.3,10.3-0.3,10.3c-0.1,3.6,1.8,4.4,1.8,4.4
				c-0.1-0.7,1.6-3.3,1.6-3.3c3.4-1.9,2.7,2.9,2.7,2.9c-1.4,1.3-1.4,2.2-1.4,2.2c3.6,0.4,5.4-4.5,5.4-4.5
				C28.9,69.3,18.8,58.5,18.8,58.5z M20.8,70.2c-0.1-2.1-2.2-2.3-2.2-2.3c2.2-0.2,2.3-2.3,2.3-2.3c0.2,2.1,2.3,2.3,2.3,2.3
				C20.9,68.1,20.8,70.2,20.8,70.2z"/>
			<path fill="#FCFCEE" d="M14.1,6.6c0,0,0.5,0.6-0.1,1.2c0,0,0.6-0.4,1.2,0.1c0,0-0.4-0.6,0.1-1.2C15.2,6.7,14.6,7.2,14.1,6.6z"/>
			<path fill="#D80D18" d="M17.6,13.9c0,0,0.5,0.6-0.1,1.2c0,0,0.6-0.4,1.2,0.1c0,0-0.4-0.6,0.1-1.2C18.7,14,18.1,14.4,17.6,13.9z"
				/>
			<path fill="#D80D18" d="M18.9,15.6c0,0,0.3,0.4-0.1,0.8c0,0,0.4-0.3,0.8,0.1c0,0-0.3-0.4,0.1-0.8C19.7,15.7,19.3,16,18.9,15.6z"
				/>
			<path fill="#D80D18" d="M36.1,24c0,0-0.8,0.1-0.9-0.7c0,0,0,0.7-0.7,0.9c0,0,0.7-0.1,0.9,0.7C35.4,24.9,35.3,24.2,36.1,24z"/>
			<path fill="#D80D18" d="M33.9,24.2c0,0-0.5,0-0.6-0.5c0,0,0,0.5-0.5,0.6c0,0,0.5,0,0.6,0.5C33.4,24.8,33.4,24.3,33.9,24.2z"/>
			<path fill="#D80D18" d="M18,35.1c0,0,0.4-0.7,1.1-0.3c0,0-0.6-0.4-0.3-1.1c0,0-0.4,0.6-1.1,0.3C17.6,34,18.3,34.4,18,35.1z"/>
			<path fill="#D80D18" d="M19.1,33.3c0,0,0.3-0.4,0.7-0.2c0,0-0.4-0.3-0.2-0.8c0,0-0.3,0.4-0.7,0.2C18.9,32.5,19.3,32.8,19.1,33.3z
				"/>
			<path fill="#FCFCEE" d="M43.2,22.8c0,0,0.5,0.6-0.1,1.2c0,0,0.6-0.4,1.2,0.1c0,0-0.4-0.6,0.1-1.2C44.3,22.9,43.7,23.4,43.2,22.8z
				"/>
			<path fill="#D80D18" d="M29.1,79.1c-0.1-4.8-0.9-2.7-0.9-2.7c0.1,5.1-5,10.6-5,10.6c-3.5,4.8-13.1,4.3-13.1,4.3
				c8.7,7.1,16.1,0.5,16.1,0.5C30.2,88.4,29.1,79.1,29.1,79.1z M19.6,94.2c-0.1-1.7-1.8-1.8-1.8-1.8c1.7-0.1,1.8-1.8,1.8-1.8
				c0.2,1.7,1.8,1.8,1.8,1.8C19.8,92.6,19.6,94.2,19.6,94.2z M24.4,91.3c-0.1-1.2-1.3-1.3-1.3-1.3c1.2-0.1,1.3-1.3,1.3-1.3
				c0.1,1.2,1.3,1.3,1.3,1.3C24.5,90.2,24.4,91.3,24.4,91.3z M26.6,87.8c0-0.9-0.9-0.9-0.9-0.9c0.9-0.1,0.9-0.9,0.9-0.9
				c0.1,0.9,0.9,0.9,0.9,0.9C26.6,86.9,26.6,87.8,26.6,87.8z"/>
			<path fill="#D80D18" d="M35.4,75.2C32,63.5,24.6,56.4,24.6,56.4C13.9,43.9,17,36.2,17,36.2C12.4,40.6,6,38,6,38
				c5.9,7.4,2.4,15.2,2.4,15.2c3.6,0.9,5-3.5,5-3.5c3,6.9-1.5,9.4-1.5,9.4c6.3-0.7,6.6-4.3,6.6-4.3c3.6,2.8,8.5,11.6,8.5,11.6
				c4.3,6.3,4,17,4,17c1.3,9.7-6.5,11.6-6.5,11.6c3.5,0.3,8.6-1.1,8.6-1.1C42.1,90.8,35.4,75.2,35.4,75.2z M12.3,45.1
				c0.3-0.7-0.4-1-0.4-1c0.7,0.2,1-0.4,1-0.4c-0.2,0.7,0.4,1,0.4,1C12.6,44.5,12.3,45.1,12.3,45.1z M13.4,42.9
				c0.4-1.2-0.7-1.8-0.7-1.8c1.2,0.4,1.8-0.7,1.8-0.7c-0.4,1.3,0.8,1.8,0.8,1.8C14,41.8,13.4,42.9,13.4,42.9z M35.1,80.8
				c-0.9,0.1-1,0.9-1,0.9c0-0.9-0.9-0.9-0.9-0.9c0.9-0.1,0.9-0.9,0.9-0.9C34.2,80.8,35.1,80.8,35.1,80.8z M33.3,77.3
				c0.1,0.5,0.5,0.5,0.5,0.5c-0.5,0.1-0.5,0.5-0.5,0.5c0-0.5-0.5-0.5-0.5-0.5C33.3,77.8,33.3,77.3,33.3,77.3z M33.3,91.9
				c-0.1-1.7-1.8-1.8-1.8-1.8c1.7-0.1,1.8-1.8,1.8-1.8c0.2,1.7,1.8,1.8,1.8,1.8C33.4,90.3,33.3,91.9,33.3,91.9z M34.6,86.7
				c-0.1-1.2-1.3-1.3-1.3-1.3c1.2-0.1,1.3-1.3,1.3-1.3c0.1,1.2,1.3,1.3,1.3,1.3C34.7,85.6,34.6,86.7,34.6,86.7z"/>
		</g>
		<g>
			<g>
				<path d="M44.3,91.8v1.3h4.1v0.6h-4.1v1.3h-0.5v-3.3H44.3z"/>
				<path d="M48.4,86.9h-3.1c-0.3,0-0.6,0-0.9,0v0c0.2,0.1,0.4,0.1,0.5,0.1l3.5,1.5v0.3l-3.5,1.5c-0.1,0-0.2,0.1-0.5,0.1v0
					c0.2,0,0.5,0,0.9,0h3v0.6h-4.6v-0.8l3.2-1.4c0.2-0.1,0.4-0.2,0.6-0.2v0c-0.3-0.1-0.5-0.2-0.6-0.2l-3.2-1.4v-0.8h4.6V86.9z"/>
			</g>
			<g>
				<path d="M47.2,82.1c0.1,0.2,0.2,0.5,0.2,0.8c0,0.4-0.1,0.8-0.4,1c-0.3,0.3-0.6,0.4-1,0.4c-0.5,0-0.9-0.1-1.1-0.4
					c-0.3-0.3-0.4-0.6-0.4-1.1c0-0.3,0-0.5,0.1-0.7h0.5c-0.2,0.2-0.2,0.4-0.2,0.7c0,0.3,0.1,0.5,0.3,0.7c0.2,0.2,0.5,0.3,0.8,0.3
					c0.3,0,0.6-0.1,0.8-0.3c0.2-0.2,0.3-0.4,0.3-0.7c0-0.2-0.1-0.5-0.2-0.7H47.2z"/>
			</g>
			<path d="M43.6,82.8c0,1.3,1,2.3,2.3,2.3c1.3,0,2.3-1,2.3-2.3c0-1.3-1-2.3-2.3-2.3C44.6,80.5,43.6,81.5,43.6,82.8z M47.9,82.8
				c0,1.1-0.9,2-2,2c-1.1,0-2-0.9-2-2c0-1.1,0.9-2,2-2C47,80.8,47.9,81.7,47.9,82.8z"/>
		</g>
	</g>
	<g>
		<g>
			<radialGradient id="SVGID_5_" cx="465.3085" cy="48.455" r="38.1481" gradientUnits="userSpaceOnUse">
				<stop  offset="0" style="stop-color:#DAC59A"/>
				<stop  offset="0.399" style="stop-color:#E8B696"/>
				<stop  offset="0.6552" style="stop-color:#FCFCEE;stop-opacity:0.97"/>
				<stop  offset="0.9852" style="stop-color:#E5B896"/>
			</radialGradient>
			<path fill="url(#SVGID_5_)" d="M447.4,54.4c0,0,6.1-6.5-3-19.8c0,0-8.8-17.6,5-28.5c0,0,16.4-14.6,34,1.6c0,0,11.3,11.5,1.8,29.1
				c0,0-6.1,12.1-8.3,14.8c0,0-4,5.5,0,9.7c0,0-1.7,0.9-3.5-1.1c0,0,0,1,1.4,3.5c0,0,4.3,7.4,5.1,11.1c0,0,5,12.3,0.7,18
				c0,0-4.3,6.1-21.5,3.6c0,0-10.3-1.8-9.4-8.6c0,0,2.1-12.7,3.2-15.7c0,0,1.9-8.5,1.5-11c0,0-4,0-4.7-0.2c0,0,3.8-3.3,3.3-6.4
				C453,54.4,448.7,55.3,447.4,54.4z"/>
			<path fill="#D80D18" d="M451.7,85.4c0,0,12.5-0.6,16.1-10.9c0,0,1.5,1.3-1.6,7.7c0,0-6.6,9.3-14.6,6.3V85.4z"/>
			<path fill="#D80D18" d="M451.7,83.4c0,0,4.6,1.1,3.3-12.8C455,70.6,453.3,82.1,451.7,83.4z"/>
			<path fill="#D80D18" d="M461.8,18c0,0,0.8,4.6,0,12.6c0,0,3.1-4.8,10.8-6.3C472.6,24.3,465.3,21.3,461.8,18z"/>
			<path fill="#D80D18" d="M479.4,23.7c0,0,6.1-1.9,6.1-7.3c0,0,1,2,1.3,3.6c0,0,0.7,8.5-0.8,10.5C486,30.5,484.9,26.1,479.4,23.7z"
				/>
			<path fill="#D80D18" d="M449,9.4c0,0,4.4-1,9.4,2.9c0,0-0.2-8.3,3.3-9.5C461.8,2.8,453.8,3.2,449,9.4z"/>
			<path fill="#231815" d="M470.1,52.6c0,0-6.9-0.3-7.4-10.3c0,0-1.1-8.3,9-12.6c0,0,10.2-4.3,12.8,3c0,0,0.5,3-2.5,9
				c0,0-6.4,10.7-8.6,10.8c0,0,0-0.2,0.2-2c0,0,0.6-3.2-2.5-2.9C471,47.5,467.6,48,470.1,52.6z"/>
			<path fill="#231815" d="M451.2,12.8c0,0,5.6-1.8,8.4,7.6c0,0,1.6,10.6-2.9,14.4c0,0-4.9,6.2-9.7-1c0,0-3.7-4.1-1.6-14.9
				C445.4,18.9,446.9,13.5,451.2,12.8z"/>
			<path fill="#231815" d="M462.6,12.7c0,0-2.9-7.2,4.4-8.5c0,0,6.9-2.4,15.2,6.1c0,0,6.5,6.6,0.6,10.5c0,0-5.2,3.5-13.2-1.1
				c0,0-4.6-2.6-7-6.7"/>
			<linearGradient id="SVGID_6_" gradientUnits="userSpaceOnUse" x1="445.6094" y1="25.8225" x2="456.5191" y2="21.8517">
				<stop  offset="0" style="stop-color:#01429A"/>
				<stop  offset="0.9852" style="stop-color:#4E9AD4;stop-opacity:0.97"/>
			</linearGradient>
			<path fill="url(#SVGID_6_)" d="M451.1,15.2c0,0-5.8-0.2-5.5,8.9c0,0,0.3,8.9,6.6,8.2c0,0,6.3-0.7,3.3-13.1
				C455.6,19.2,454.3,15,451.1,15.2z"/>
			<linearGradient id="SVGID_7_" gradientUnits="userSpaceOnUse" x1="476.6918" y1="6.6829" x2="471.4313" y2="15.7943">
				<stop  offset="0" style="stop-color:#01429A"/>
				<stop  offset="0.9852" style="stop-color:#4E9AD4;stop-opacity:0.97"/>
			</linearGradient>
			<path fill="url(#SVGID_7_)" d="M470.4,15.2c0,0-7.1-4.6-3.6-8.6c0,0,2.7-3.7,10.9,0.7c0,0,6.7,5.2,3.5,8.8
				C481.3,16.1,478.5,20.5,470.4,15.2z"/>
			<linearGradient id="SVGID_8_" gradientUnits="userSpaceOnUse" x1="473.5059" y1="44.3152" x2="473.5059" y2="30.1611">
				<stop  offset="0" style="stop-color:#01429A"/>
				<stop  offset="0.9852" style="stop-color:#4E9AD4;stop-opacity:0.97"/>
			</linearGradient>
			<path fill="url(#SVGID_8_)" d="M468.9,33c0,0,5.1-4.7,12.1-2.1c0,0,5.5,4-2.9,10.2c0,0-5.1,4.1-11.1,2.9
				C467,44.1,459.7,40.3,468.9,33z"/>
			<path fill="#FCFCEE" d="M448.2,26.4c0,0,2.2,0.9,1.6,3.1c0,0,0.9-2.1,3.2-1.6c0,0-2.1-0.8-1.6-3.1
				C451.4,24.8,450.6,27,448.2,26.4z"/>
			<path fill="#FCFCEE" d="M473.7,13.2c0,0,1.7,0.6,1.2,2.3c0,0,0.6-1.6,2.4-1.2c0,0-1.6-0.6-1.2-2.4
				C476.1,12,475.4,13.7,473.7,13.2z"/>
			<path fill="#FCFCEE" d="M449.5,20.4c0,0,1.4-0.1,1.6,1.2c0,0-0.1-1.3,1.3-1.6c0,0-1.3,0.1-1.6-1.2
				C450.8,18.8,450.9,20.1,449.5,20.4z"/>
			<path fill="#FCFCEE" d="M469,11.6c0,0,1.4-0.1,1.6,1.2c0,0-0.1-1.3,1.3-1.6c0,0-1.3,0.1-1.6-1.2C470.2,10,470.3,11.4,469,11.6z"
				/>
			<path fill="#FCFCEE" d="M447.6,23.4c0,0,0.6,0,0.7,0.5c0,0,0-0.6,0.6-0.7c0,0-0.6,0-0.7-0.5C448.1,22.7,448.2,23.2,447.6,23.4z"
				/>
			<path fill="#FCFCEE" d="M474.3,9.5c0,0,0.6,0,0.7,0.5c0,0,0-0.6,0.6-0.7c0,0-0.6,0-0.7-0.5C474.9,8.8,474.9,9.4,474.3,9.5z"/>
			<path fill="#FCFCEE" d="M452.3,22.9c0,0,0.6,0,0.7,0.5c0,0,0-0.6,0.6-0.7c0,0-0.6,0-0.7-0.5C452.9,22.2,452.9,22.8,452.3,22.9z"
				/>
			<g>
				<path fill="#FCFCEE" d="M477.4,35.5c0,0-0.6,1.6-2.3,1.2c0,0,1.6,0.6,1.2,2.3c0,0,0.6-1.5,2.3-1.2
					C478.6,37.8,477.1,37.2,477.4,35.5z"/>
				<path fill="#FCFCEE" d="M471.3,38.9c0,0-0.5,1.3-1.9,1c0,0,1.3,0.5,1,1.9c0,0,0.5-1.2,1.9-1C472.3,40.8,471,40.3,471.3,38.9z"/>
				<path fill="#FCFCEE" d="M475.7,35.1c0,0,0-0.6,0.6-0.7c0,0-0.6,0-0.7-0.5c0,0,0,0.6-0.6,0.7C474.9,34.5,475.5,34.5,475.7,35.1z"
					/>
				<path fill="#FCFCEE" d="M471.8,36c0,0,0,0.6-0.6,0.7c0,0,0.6,0,0.7,0.5c0,0,0-0.6,0.6-0.7C472.5,36.5,471.9,36.6,471.8,36z"/>
			</g>
			<path fill="#D80D18" d="M460.4,58.5c-2.2,1.2-3,2.3-3,2.3c-0.7,2-0.3,10.3-0.3,10.3c-0.1,3.6,1.8,4.4,1.8,4.4
				c-0.1-0.7,1.6-3.3,1.6-3.3c3.4-1.9,2.7,2.9,2.7,2.9c-1.4,1.3-1.4,2.2-1.4,2.2c3.6,0.4,5.4-4.5,5.4-4.5
				C470.5,69.3,460.4,58.5,460.4,58.5z M462.4,70.2c-0.1-2.1-2.2-2.3-2.2-2.3c2.2-0.2,2.3-2.3,2.3-2.3c0.2,2.1,2.3,2.3,2.3,2.3
				C462.5,68.1,462.4,70.2,462.4,70.2z"/>
			<path fill="#FCFCEE" d="M455.7,6.6c0,0,0.5,0.6-0.1,1.2c0,0,0.6-0.4,1.2,0.1c0,0-0.4-0.6,0.1-1.2C456.8,6.7,456.2,7.2,455.7,6.6z
				"/>
			<path fill="#D80D18" d="M459.2,13.9c0,0,0.5,0.6-0.1,1.2c0,0,0.6-0.4,1.2,0.1c0,0-0.4-0.6,0.1-1.2
				C460.3,14,459.7,14.4,459.2,13.9z"/>
			<path fill="#D80D18" d="M460.5,15.6c0,0,0.3,0.4-0.1,0.8c0,0,0.4-0.3,0.8,0.1c0,0-0.3-0.4,0.1-0.8
				C461.3,15.7,460.9,16,460.5,15.6z"/>
			<path fill="#D80D18" d="M477.7,24c0,0-0.8,0.1-0.9-0.7c0,0,0,0.7-0.7,0.9c0,0,0.7-0.1,0.9,0.7C477,24.9,476.9,24.2,477.7,24z"/>
			<path fill="#D80D18" d="M475.5,24.2c0,0-0.5,0-0.6-0.5c0,0,0,0.5-0.5,0.6c0,0,0.5,0,0.6,0.5C475,24.8,475,24.3,475.5,24.2z"/>
			<path fill="#D80D18" d="M459.5,35.1c0,0,0.4-0.7,1.1-0.3c0,0-0.6-0.4-0.3-1.1c0,0-0.4,0.6-1.1,0.3
				C459.2,34,459.9,34.4,459.5,35.1z"/>
			<path fill="#D80D18" d="M460.7,33.3c0,0,0.3-0.4,0.7-0.2c0,0-0.4-0.3-0.2-0.8c0,0-0.3,0.4-0.7,0.2
				C460.5,32.5,460.9,32.8,460.7,33.3z"/>
			<path fill="#FCFCEE" d="M484.7,22.8c0,0,0.5,0.6-0.1,1.2c0,0,0.6-0.4,1.2,0.1c0,0-0.4-0.6,0.1-1.2
				C485.9,22.9,485.3,23.4,484.7,22.8z"/>
			<path fill="#D80D18" d="M470.7,79.1c-0.1-4.8-0.9-2.7-0.9-2.7c0.1,5.1-5,10.6-5,10.6c-3.5,4.8-13.1,4.3-13.1,4.3
				c8.7,7.1,16.1,0.5,16.1,0.5C471.8,88.4,470.7,79.1,470.7,79.1z M461.2,94.2c-0.1-1.7-1.8-1.8-1.8-1.8c1.7-0.1,1.8-1.8,1.8-1.8
				c0.2,1.7,1.8,1.8,1.8,1.8C461.4,92.6,461.2,94.2,461.2,94.2z M465.9,91.3c-0.1-1.2-1.3-1.3-1.3-1.3c1.2-0.1,1.3-1.3,1.3-1.3
				c0.1,1.2,1.3,1.3,1.3,1.3C466,90.2,465.9,91.3,465.9,91.3z M468.1,87.8c0-0.9-0.9-0.9-0.9-0.9c0.9-0.1,0.9-0.9,0.9-0.9
				c0.1,0.9,0.9,0.9,0.9,0.9C468.2,86.9,468.1,87.8,468.1,87.8z"/>
			<path fill="#D80D18" d="M477,75.2c-3.4-11.7-10.8-18.9-10.8-18.9c-10.7-12.4-7.6-20.1-7.6-20.1c-4.6,4.3-11.1,1.8-11.1,1.8
				c5.9,7.4,2.4,15.2,2.4,15.2c3.6,0.9,5-3.5,5-3.5c3,6.9-1.5,9.4-1.5,9.4c6.3-0.7,6.6-4.3,6.6-4.3c3.6,2.8,8.5,11.6,8.5,11.6
				c4.3,6.3,4,17,4,17c1.3,9.7-6.5,11.6-6.5,11.6c3.5,0.3,8.6-1.1,8.6-1.1C483.7,90.8,477,75.2,477,75.2z M453.9,45.1
				c0.3-0.7-0.4-1-0.4-1c0.7,0.2,1-0.4,1-0.4c-0.2,0.7,0.4,1,0.4,1C454.2,44.5,453.9,45.1,453.9,45.1z M455,42.9
				c0.4-1.2-0.7-1.8-0.7-1.8c1.2,0.4,1.8-0.7,1.8-0.7c-0.4,1.3,0.8,1.8,0.8,1.8C455.6,41.8,455,42.9,455,42.9z M476.6,80.8
				c-0.9,0.1-1,0.9-1,0.9c0-0.9-0.9-0.9-0.9-0.9c0.9-0.1,0.9-0.9,0.9-0.9C475.8,80.8,476.6,80.8,476.6,80.8z M474.9,77.3
				c0.1,0.5,0.5,0.5,0.5,0.5c-0.5,0.1-0.5,0.5-0.5,0.5c0-0.5-0.5-0.5-0.5-0.5C474.9,77.8,474.9,77.3,474.9,77.3z M474.9,91.9
				c-0.1-1.7-1.8-1.8-1.8-1.8c1.7-0.1,1.8-1.8,1.8-1.8c0.2,1.7,1.8,1.8,1.8,1.8C475,90.3,474.9,91.9,474.9,91.9z M476.2,86.7
				c-0.1-1.2-1.3-1.3-1.3-1.3c1.2-0.1,1.3-1.3,1.3-1.3c0.1,1.2,1.3,1.3,1.3,1.3C476.3,85.6,476.2,86.7,476.2,86.7z"/>
		</g>
		<g>
			<g>
				<path d="M485.9,91.8v1.3h4.1v0.6h-4.1v1.3h-0.5v-3.3H485.9z"/>
				<path d="M489.9,86.9h-3.1c-0.3,0-0.6,0-0.9,0v0c0.2,0.1,0.4,0.1,0.5,0.1l3.5,1.5v0.3l-3.5,1.5c-0.1,0-0.2,0.1-0.5,0.1v0
					c0.2,0,0.5,0,0.9,0h3v0.6h-4.6v-0.8l3.2-1.4c0.2-0.1,0.4-0.2,0.6-0.2v0c-0.3-0.1-0.5-0.2-0.6-0.2l-3.2-1.4v-0.8h4.6V86.9z"/>
			</g>
			<g>
				<path d="M488.8,82.1c0.1,0.2,0.2,0.5,0.2,0.8c0,0.4-0.1,0.8-0.4,1c-0.3,0.3-0.6,0.4-1,0.4c-0.5,0-0.9-0.1-1.1-0.4
					c-0.3-0.3-0.4-0.6-0.4-1.1c0-0.3,0-0.5,0.1-0.7h0.5c-0.2,0.2-0.2,0.4-0.2,0.7c0,0.3,0.1,0.5,0.3,0.7c0.2,0.2,0.5,0.3,0.8,0.3
					c0.3,0,0.6-0.1,0.8-0.3c0.2-0.2,0.3-0.4,0.3-0.7c0-0.2-0.1-0.5-0.2-0.7H488.8z"/>
			</g>
			<path d="M485.2,82.8c0,1.3,1,2.3,2.3,2.3c1.3,0,2.3-1,2.3-2.3c0-1.3-1-2.3-2.3-2.3C486.2,80.5,485.2,81.5,485.2,82.8z
				 M489.5,82.8c0,1.1-0.9,2-2,2c-1.1,0-2-0.9-2-2c0-1.1,0.9-2,2-2C488.6,80.8,489.5,81.7,489.5,82.8z"/>
		</g>
	</g>
</g>
</svg>
