<?xml version="1.0" encoding="utf-8"?>
<!-- Generator: Adobe Illustrator 18.1.1, SVG Export Plug-In . SVG Version: 6.00 Build 0)  -->
<svg version="1.1" id="圖層_1" xmlns="http://www.w3.org/2000/svg" xmlns:xlink="http://www.w3.org/1999/xlink" x="0px" y="0px"
	 width="652.4px" height="90.6px" viewBox="0 0 652.4 90.6" enable-background="new 0 0 652.4 90.6" xml:space="preserve">
<g>
	<g>
		
			<radialGradient id="SVGID_1_" cx="-2543.8567" cy="-1569.401" r="54.7128" gradientTransform="matrix(1.7176 0 0 1.3335 4698.1392 2105.9187)" gradientUnits="userSpaceOnUse">
			<stop  offset="0" style="stop-color:#DAC581"/>
			<stop  offset="0.399" style="stop-color:#E8B678"/>
			<stop  offset="0.6552" style="stop-color:#FCFCEE;stop-opacity:0.97"/>
			<stop  offset="0.9852" style="stop-color:#E5B886"/>
		</radialGradient>
		<path fill-rule="evenodd" clip-rule="evenodd" fill="url(#SVGID_1_)" d="M220.8,25.9c-10.2,0-15-1.4-16.6-4.8l0,0l0-0.1
			c-1.4-4.8-6.7-7.5-6.7-7.5l-0.5-0.3l0-1.2l0.6-0.3c0.1,0,5.3-2.4,6.7-7.1l0-0.1l0,0c1.5-3.3,5.8-4.4,16.6-4.4h215.8
			c10.8,0,15.2,1.2,16.7,4.4l0,0l0,0.1c1.4,4.7,6.7,7,6.7,7.1l0.6,0.3v1.2l-0.5,0.3c-0.1,0-5.4,2.7-6.8,7.5l0,0.1l0,0
			c-1.6,3.4-6.4,4.8-16.7,4.8H220.8z"/>
		
			<radialGradient id="SVGID_2_" cx="-2543.8567" cy="-1569.401" r="54.197" gradientTransform="matrix(1.7176 0 0 1.3335 4698.1392 2105.9187)" gradientUnits="userSpaceOnUse">
			<stop  offset="0" style="stop-color:#065B9A"/>
			<stop  offset="0.2268" style="stop-color:#065695"/>
			<stop  offset="0.5008" style="stop-color:#054986"/>
			<stop  offset="0.7981" style="stop-color:#04336E"/>
			<stop  offset="1" style="stop-color:#032059"/>
		</radialGradient>
		<path fill-rule="evenodd" clip-rule="evenodd" fill="url(#SVGID_2_)" d="M452.1,4.9c-1.1-2.5-4.6-3.8-15.7-3.8
			c-3.9,0-151.5,0-165.9,0c-0.9,0-1.9,0-2.8,0c-2.4,0-6.6,0-13.6,0c-15.5,0-29.3,0-33.5,0c-11.1,0-14.2,1.2-15.3,3.8
			c-1.5,5.2-7.1,7.6-7.1,7.6v0.1v0.1c0,0,5.6,2.9,7.1,8.1c1.1,2.5,4.2,4.3,15.3,4.3c4.2,0,17.9,0,33.5,0c7,0,11.2,0,13.6,0
			c2.1,0,2.8,0,2.8,0c14.3,0,162,0,165.9,0c11.1,0,14.6-1.8,15.7-4.3c1.5-5.2,7.5-8.1,7.5-8.1v-0.1v-0.1
			C459.6,12.5,453.6,10.1,452.1,4.9z M206.1,14.5l-4.6-1.8l4.6-1.8l4.6,1.8L206.1,14.5z M450.7,14.5l-4.6-1.8l4.6-1.8l4.6,1.8
			L450.7,14.5z"/>
	</g>
	<g>
		<g>
			<path fill="#999999" d="M486.6,90.8H13.1c-7.2,0-13-5.8-13-13V25.1c0-7.2,5.8-13,13-13h163.2c0.6,0,1,0.4,1,1s-0.4,1-1,1H13.1
				c-6.1,0-11,4.9-11,11v52.7c0,6.1,4.9,11,11,11h473.6c0.6,0,1,0.4,1,1S487.2,90.8,486.6,90.8z"/>
		</g>
		<g>
			<path fill="#999999" d="M1.6,37l-0.5-9.8c0,0-1.5-7,5.7-12.4c0,0,11.6-9.6,29.1,2.1C35.9,16.9,1,6,1.6,37z"/>
			<g>
				
					<linearGradient id="SVGID_3_" gradientUnits="userSpaceOnUse" x1="8190.2202" y1="7312.9819" x2="8273.9688" y2="7312.9819" gradientTransform="matrix(-1 0 0 -1 8278.4414 7345.9897)">
					<stop  offset="0" style="stop-color:#A61616"/>
					<stop  offset="1" style="stop-color:#999999"/>
				</linearGradient>
				<path fill="url(#SVGID_3_)" d="M4.5,16.2C30.6,5.4,59.9,34.9,63.7,40.7C51.9,42.5,46,50.4,46,50.4c12.6-4,21.9-1.4,21.9-1.4
					c-7.6-0.6-13.8,8.3-13.8,8.3c11.5-5.1,23.4-2.7,23.4-2.7l10.7-13.3c-8.3-15.8-7-25.3-7-25.3c-5.1,12.3-3.3,15.6-3.3,15.6
					c-6.3-9.5-7.3-16.3-7.3-16.3c-1.2,8.9-1.2,15-0.7,19C56.2,21.6,50.2,16.3,41.7,12.6C19.8,3.7,7.6,12.5,4.5,16.2z"/>
				<g>
					<path fill="#EEE7CA" d="M70.9,56.6c1.7,14.5,14.8,25,29.3,23.3c14.5-1.6,25-14.8,23.3-29.3c-1.7-14.5-14.8-25-29.3-23.3
						C79.7,29,69.2,42.1,70.9,56.6"/>
					<path fill="#271D1B" d="M91.1,58.2c5.2,7.1,3.7,14.5-1.6,16.1c-4,1.2-9.2-1.5-12.4-5.8c-3.1-4.3-4.2-10-1.9-13.5
						C78.3,50.4,85.8,51.1,91.1,58.2"/>
					<path fill="#271D1B" d="M96.3,46.1c-8.8,1-14.4-4-13.1-9.4c1-4.1,5.9-7.2,11.2-7.8c5.3-0.6,10.7,1.4,12.6,5.1
						C109.5,38.9,105.1,45.1,96.3,46.1"/>
					<path fill="#CB1716" d="M94.7,55.6c-1.7-2.3-3.5-4-5.4-5.3c2.2,0.5,4.7,0.6,7.6,0.3c2.8-0.3,5.3-1,7.3-2
						c-1.5,1.7-2.9,3.8-4.1,6.4c-1.1,2.6-1.7,5.1-1.9,7.3C97.5,60.1,96.4,57.8,94.7,55.6z"/>
					<path fill="#CB1716" d="M120.2,47c0.5,0.6,1,1.3,1.4,2c-1.5-7.7-6.4-14-12.9-17.4c0.6,0.6,1.2,1.3,1.6,2
						c2.2,3.6,1.7,7.9-1.3,11.3C113.1,43.1,117.5,43.8,120.2,47 M115.1,40.2l1.1,0.5l-1,0.7l-0.5,1.1l-0.7-1l-1.1-0.5l1-0.7l0.5-1.1
						L115.1,40.2"/>
					<path fill="#CB1716" d="M98.9,68.3c-0.5,4.5-3.2,7.9-7.4,8.7c-0.7,0.1-1.5,0.2-2.3,0.2c3.4,1.1,7,1.6,10.8,1.2
						c3.8-0.4,7.3-1.7,10.3-3.6c-0.8,0.2-1.6,0.3-2.3,0.4C103.8,75.2,100.3,72.6,98.9,68.3 M98.9,76l-0.8-1l1.2-0.1l1-0.8l0.1,1.2
						l0.8,1l-1.2,0.1l-1,0.8L98.9,76"/>
					<path fill="#CB1716" d="M83.7,47.8c-3.7-2.6-5.2-6.7-3.8-10.8c0.3-0.8,0.6-1.5,1.1-2.2c-5.6,4.8-8.9,12-8.6,19.8
						c0.2-0.8,0.5-1.6,0.9-2.3C75.2,48.6,79.3,46.9,83.7,47.8 M76,44.1l1.1,0.5l1.2-0.2l-0.5,1.1l0.2,1.2l-1.1-0.5l-1.2,0.2l0.5-1.1
						L76,44.1"/>
					<path fill="#271D1B" d="M104.2,56.7c3.5-8.1,10.7-10.5,14.7-6.6c3,2.9,3.3,8.7,1.2,13.6c-2.1,4.9-6.6,8.6-10.8,8.4
						C103.8,71.7,100.7,64.8,104.2,56.7"/>
					<path fill="#109BE0" d="M117.4,53.6c-2.7-2.1-7.2-0.2-9.3,4.8c-2.1,4.9-0.6,9.5,2.8,10.1c2.8,0.5,6-2,7.5-5.5
						C120,59.4,119.6,55.4,117.4,53.6 M77.5,58.2c-1.8,2.2-1.2,6.2,1,9.3c2.3,3.1,6,4.8,8.6,3.7c3.2-1.3,3.7-6.1,0.5-10.4
						C84.5,56.4,79.7,55.5,77.5,58.2 M87,36.2c-0.4,3.4,3.4,6.3,8.8,5.7c5.3-0.6,8.5-4.3,7.3-7.5c-1-2.7-4.8-4.2-8.6-3.8
						C90.8,31.1,87.4,33.4,87,36.2"/>
					<g>
						<path fill="#1573B0" d="M117.4,53.6c-2.7-2.1-7.2-0.2-9.3,4.8c-2.1,4.9-0.6,9.5,2.8,10.1c2.8,0.5,6-2,7.5-5.5
							C120,59.4,119.6,55.4,117.4,53.6 M77.5,58.2c-1.8,2.2-1.2,6.2,1,9.3c2.3,3.1,6,4.8,8.6,3.7c3.2-1.3,3.7-6.1,0.5-10.4
							C84.5,56.4,79.7,55.5,77.5,58.2 M87,36.2c-0.4,3.4,3.4,6.3,8.8,5.7c5.3-0.6,8.5-4.3,7.3-7.5c-1-2.7-4.8-4.2-8.6-3.8
							C90.8,31.1,87.4,33.4,87,36.2"/>
					</g>
					<path fill="#F2EBE3" d="M97.1,36l-1.6,0.9l1.9,0.5l1.3,1.2l0.7-1.5l1.6-0.9L99,35.8l-1.2-1L97.1,36z M84.9,67.8
						c-0.2,0.1-0.2,0.5,0,0.8c0.2,0.3,0.6,0.5,0.9,0.3c0.2-0.1,0.3-0.5,0-0.8C85.5,67.9,85.1,67.7,84.9,67.8z M111.2,62l-1.7,0.5
						l0.9,1.3l0,1.8l1.4-1.4l1.5-0.5l-0.7-1.2l0.1-1.9L111.2,62z M115.5,56.3c-0.2,0.4-0.1,0.8,0.1,0.9c0.2,0.1,0.5,0,0.7-0.4
						c0.2-0.4,0.1-0.8-0.1-0.9C116,55.8,115.6,56,115.5,56.3z M113.5,57.8c0.3-0.8,0.2-1.7-0.4-2c-0.6-0.3-1.3,0-1.7,0.9
						c-0.4,0.8-0.2,1.7,0.4,2C112.5,59,113.2,58.6,113.5,57.8z M80.2,59.1l0.6,1.9l-0.3,1.5l1.5,0l1.6,1L83,61.7l0.4-1.7l-1.6,0.1
						L80.2,59.1z M85.5,63.9c-0.5,0.4-0.5,1.2,0,1.9c0.5,0.7,1.3,1,1.9,0.7c0.6-0.3,0.6-1.2,0.1-1.9C86.9,63.8,86,63.5,85.5,63.9z
						 M90.3,36.5c0.4,0,0.7-0.3,0.7-0.6c0-0.3-0.3-0.5-0.7-0.4c-0.4,0-0.7,0.3-0.7,0.6C89.6,36.4,89.9,36.6,90.3,36.5z M91.1,38.8
						c0,0.7,0.7,1.1,1.6,1c0.9-0.1,1.6-0.7,1.5-1.4c0-0.6-0.8-1.1-1.6-1C91.7,37.6,91.1,38.1,91.1,38.8z"/>
					
						<radialGradient id="SVGID_4_" cx="8419.1357" cy="6207.7871" r="26.4916" gradientTransform="matrix(-0.9701 -0.2425 0.2425 -0.9701 6759.3896 8117.9814)" gradientUnits="userSpaceOnUse">
						<stop  offset="0" style="stop-color:#FEFBCD"/>
						<stop  offset="0.4778" style="stop-color:#FDF9CB"/>
						<stop  offset="0.6499" style="stop-color:#FAF4C4"/>
						<stop  offset="0.7726" style="stop-color:#F5EAB9"/>
						<stop  offset="0.8717" style="stop-color:#EEDCA8"/>
						<stop  offset="0.9557" style="stop-color:#E4CA92"/>
						<stop  offset="1" style="stop-color:#DEBE83"/>
					</radialGradient>
					<path fill="url(#SVGID_4_)" d="M100.4,74.7c-0.3,0-0.6,0.1-0.8,0.1c0,0-0.1,0-0.1,0l-0.1,0.1L98.2,75l0.8,1l0.1,1.2l1-0.8
						l1.2-0.1l-0.8-1L100.4,74.7 M78,44.5l-0.8,0.1L76,44.1l0.2,1.2l-0.5,1.1l1.2-0.2l0.3,0.1C77.4,45.7,77.7,45.1,78,44.5
						 M114.4,39.2l-0.5,1.1l0,0c0.4,0.5,0.8,1,1.1,1.6l0.2-0.5l1-0.7l-1.1-0.5L114.4,39.2 M107.4,34.9c1.6,0.8,3,1.9,4.3,3.1
						c0-1.5-0.5-3-1.4-4.4c-0.4-0.7-1-1.4-1.6-2c6.5,3.4,11.5,9.7,12.9,17.4c-0.4-0.7-0.8-1.4-1.4-2c-1.1-1.2-2.4-2.1-3.9-2.6
						c0.8,1.6,1.3,3.2,1.7,5c0.3,0.2,0.6,0.4,0.9,0.7c3,2.9,3.3,8.7,1.2,13.6c-2.1,4.9-6.6,8.6-10.8,8.4c-0.4,0-0.8-0.1-1.1-0.2
						c-1.5,0.9-3.1,1.6-4.8,2.2c0.7,0.4,1.4,0.6,2.1,0.8c0.8,0.2,1.6,0.3,2.4,0.3c0.8,0,1.6-0.1,2.3-0.4c-3,1.9-6.5,3.2-10.3,3.6
						c-3,0.3-5.9,0.1-8.7-0.5c-0.7-0.2-1.4-0.4-2.1-0.6c0.8,0,1.5,0,2.3-0.2c1.7-0.3,3.1-1.1,4.3-2.1c-1.2-0.1-2.4-0.3-3.5-0.5
						c-0.5-0.1-1.1-0.3-1.6-0.5c-0.3,0.2-0.7,0.3-1.1,0.4c-1.3,0.4-2.7,0.4-4.2,0c-3-0.7-6.1-2.9-8.2-5.8c-3.1-4.3-4.2-10-1.9-13.5
						c0.2-0.3,0.4-0.6,0.7-0.9c0-1.8,0.1-3.5,0.5-5.2c-1.3,0.8-2.4,1.9-3.2,3.4c-0.4,0.7-0.7,1.5-0.9,2.3c-0.3-7.8,3-15,8.6-19.8
						c-0.5,0.7-0.8,1.5-1.1,2.2c-0.5,1.6-0.6,3.2-0.3,4.7c1-1.5,2.2-2.8,3.5-4c0-0.4,0.1-0.7,0.2-1.1c1-4.1,5.9-7.2,11.2-7.8
						c1.9-0.2,3.9-0.1,5.7,0.3c3.1,0.8,5.7,2.4,6.9,4.8C107.1,34.3,107.3,34.6,107.4,34.9 M103.4,27.9c-2.9-0.7-6.1-0.9-9.2-0.6
						c-14.5,1.6-25,14.8-23.3,29.3c1.3,11.4,9.6,20.2,20.1,22.8c2.9,0.7,6.1,0.9,9.2,0.6c14.5-1.6,25-14.8,23.3-29.3
						C122.2,39.3,113.9,30.4,103.4,27.9"/>
					<path fill="#130D0C" d="M75.9,54.2c0,0.6,0.1,1.2,0.1,1.9c0.1,1.2,0.4,2.4,0.7,3.6c0,0.1-0.1,0.3-0.1,0.4
						c-0.5,2.2,0.2,5.1,1.9,7.4c1.5,2,3.5,3.4,5.5,3.9c0.5,0.1,1.1,0.2,1.6,0.2c1.5,1,3.2,1.8,5,2.4c-0.3,0.2-0.7,0.3-1.1,0.4
						c-1.3,0.4-2.7,0.4-4.2,0c-3-0.7-6.1-2.9-8.2-5.8c-3.1-4.3-4.2-10-1.9-13.5C75.4,54.7,75.7,54.4,75.9,54.2"/>
					<path fill="#130D0C" d="M100.1,29.2c3.1,0.8,5.7,2.4,6.9,4.8c0.2,0.3,0.3,0.6,0.4,1c-1.6-0.9-3.3-1.6-5.2-2l0,0
						c-0.9-1-2.2-1.7-3.8-2.1c-1.2-0.3-2.5-0.4-3.9-0.2c-3,0.3-5.8,1.9-7,4c-1.7,0.8-3.2,1.9-4.6,3.1c0-0.4,0.1-0.7,0.2-1.1
						c1-4.1,5.9-7.2,11.2-7.8C96.3,28.6,98.3,28.8,100.1,29.2"/>
					<path fill="#A51A13" d="M108.7,31.6c6.5,3.4,11.5,9.7,12.9,17.4c-0.4-0.7-0.8-1.4-1.4-2c-1.1-1.2-2.4-2.1-3.9-2.6
						c-0.4-0.8-0.9-1.7-1.4-2.4l0.2-0.5l1-0.7l-1.1-0.5l-0.7-1l-0.5,1.1l0,0c-0.7-0.8-1.4-1.6-2.2-2.4c0-1.5-0.5-3-1.4-4.4
						C109.9,32.9,109.3,32.2,108.7,31.6"/>
					<path fill="#A51A13" d="M110.3,74.7c-3,1.9-6.5,3.2-10.3,3.6c-3,0.3-5.9,0.1-8.7-0.5c-0.7-0.2-1.4-0.4-2.1-0.6
						c0.8,0,1.5,0,2.3-0.2c1.7-0.3,3.1-1.1,4.3-2.1c1.2,0.1,2.5,0.1,3.8-0.1l-0.1,0.1L98.2,75l0.8,1l0.1,1.2l1-0.8l1.2-0.1l-0.8-1
						l-0.1-0.7c1-0.2,2-0.4,3-0.7c0.7,0.4,1.4,0.6,2.1,0.8c0.8,0.2,1.6,0.3,2.4,0.3C108.8,75.1,109.6,74.9,110.3,74.7"/>
					<path fill="#A51A13" d="M80.9,34.8c-0.5,0.7-0.8,1.5-1.1,2.2c-0.5,1.6-0.6,3.2-0.3,4.7c-0.6,0.9-1.1,1.8-1.6,2.8l-0.8,0.1
						L76,44.1l0.2,1.2l-0.5,1.1l1.2-0.2l0.3,0.1c-0.3,0.8-0.6,1.7-0.7,2.6c-1.3,0.8-2.4,1.9-3.2,3.4c-0.4,0.7-0.7,1.5-0.9,2.3
						C72,46.8,75.4,39.6,80.9,34.8"/>
					<path fill="#130D0C" d="M118.1,49.4c0.3,0.2,0.6,0.4,0.9,0.7c3,2.9,3.3,8.7,1.2,13.6c-2.1,4.9-6.6,8.6-10.8,8.4
						c-0.4,0-0.8-0.1-1.1-0.2c1.6-1,3-2.1,4.3-3.4c2.3-0.5,4.7-2.7,5.9-5.5c0.3-0.6,0.5-1.2,0.6-1.9c0.6-2.3,0.4-4.6-0.6-6.2
						c0.1-1.2,0-2.4-0.1-3.6C118.3,50.6,118.2,50,118.1,49.4"/>
					<g>
						<path fill="#17628C" d="M76.7,59.6c0,0.1-0.1,0.3-0.1,0.4c-0.5,2.2,0.2,5.1,1.9,7.4c1.5,2,3.5,3.4,5.5,3.9
							c0.5,0.1,1.1,0.2,1.6,0.2C81.4,68.8,78.2,64.6,76.7,59.6 M118.5,54.9c-0.3,5.2-2.5,10-5.9,13.6c2.3-0.5,4.7-2.7,5.9-5.5
							c0.3-0.6,0.5-1.2,0.6-1.9C119.6,58.8,119.4,56.5,118.5,54.9 M98.4,30.9c-1.2-0.3-2.5-0.4-3.9-0.2c-3,0.3-5.8,1.9-7,4
							c2.2-1.1,4.6-1.8,7.2-2.1c2.6-0.3,5.1-0.1,7.4,0.5C101.3,32,100,31.3,98.4,30.9"/>
					</g>
				</g>
				<path fill="#999999" d="M5.9,21.6C1.1,24.1-3,70.2,11.2,82.7c10.6,9.3,27.5,7.1,27.5,7.1s-21.3,0-24.2,0S1,88.2,1,76.6
					s0-49.4,0-49.4S5,20.8,5.9,21.6z"/>
			</g>
		</g>
	</g>
	<g>
		<g>
			<path fill="#999999" d="M639.5,90.8H165.9c-0.6,0-1-0.4-1-1s0.4-1,1-1h473.6c6.1,0,11-4.9,11-11V25.1c0-6.1-4.9-11-11-11H476.3
				c-0.6,0-1-0.4-1-1s0.4-1,1-1h163.2c7.2,0,13,5.8,13,13v52.7C652.5,85,646.7,90.8,639.5,90.8z"/>
		</g>
		<g>
			<path fill="#999999" d="M651,37l0.5-9.8c0,0,1.5-7-5.7-12.4c0,0-11.6-9.6-29.1,2.1C616.7,16.9,651.6,6,651,37z"/>
			<g>
				
					<linearGradient id="SVGID_5_" gradientUnits="userSpaceOnUse" x1="-622.4354" y1="7312.9819" x2="-538.6866" y2="7312.9819" gradientTransform="matrix(1 0 0 -1 1186.7935 7345.9897)">
					<stop  offset="0" style="stop-color:#A61616"/>
					<stop  offset="1" style="stop-color:#999999"/>
				</linearGradient>
				<path fill="url(#SVGID_5_)" d="M648.1,16.2c-26.2-10.8-55.4,18.7-59.2,24.5c11.7,1.8,17.6,9.7,17.6,9.7
					c-12.6-4-21.9-1.4-21.9-1.4c7.6-0.6,13.8,8.3,13.8,8.3c-11.5-5.1-23.4-2.7-23.4-2.7l-10.7-13.3c8.3-15.8,7-25.3,7-25.3
					c5.1,12.3,3.3,15.6,3.3,15.6c6.3-9.5,7.3-16.3,7.3-16.3c1.2,8.9,1.2,15,0.7,19c13.7-12.5,19.7-17.8,28.1-21.5
					C632.7,3.7,645,12.5,648.1,16.2z"/>
				<g>
					<path fill="#EEE7CA" d="M581.7,56.6c-1.7,14.5-14.8,25-29.3,23.3c-14.5-1.6-25-14.8-23.3-29.3c1.7-14.5,14.8-25,29.3-23.3
						C572.9,29,583.4,42.1,581.7,56.6"/>
					<path fill="#271D1B" d="M561.5,58.2c-5.2,7.1-3.7,14.5,1.6,16.1c4,1.2,9.2-1.5,12.4-5.8c3.1-4.3,4.2-10,1.9-13.5
						C574.3,50.4,566.7,51.1,561.5,58.2"/>
					<path fill="#271D1B" d="M556.3,46.1c8.8,1,14.4-4,13.1-9.4c-1-4.1-5.9-7.2-11.2-7.8c-5.3-0.6-10.7,1.4-12.6,5.1
						C543.1,38.9,547.5,45.1,556.3,46.1"/>
					<path fill="#CB1716" d="M557.9,55.6c1.7-2.3,3.5-4,5.4-5.3c-2.2,0.5-4.7,0.6-7.6,0.3c-2.8-0.3-5.3-1-7.3-2
						c1.5,1.7,2.9,3.8,4.1,6.4c1.1,2.6,1.7,5.1,1.9,7.3C555.1,60.1,556.2,57.8,557.9,55.6z"/>
					<path fill="#CB1716" d="M532.3,47c2.8-3.2,7.1-3.9,11.2-2.1c-3-3.4-3.5-7.7-1.3-11.3c0.4-0.7,1-1.4,1.6-2
						C537.3,35,532.4,41.3,531,49C531.3,48.3,531.8,47.6,532.3,47 M537.5,40.2l0.7-1l0.5,1.1l1,0.7l-1.1,0.5l-0.7,1l-0.5-1.1l-1-0.7
						L537.5,40.2"/>
					<path fill="#CB1716" d="M553.7,68.3c-1.5,4.3-4.9,6.9-9.2,6.8c-0.8,0-1.6-0.1-2.3-0.4c3,1.9,6.5,3.2,10.3,3.6
						c3.8,0.4,7.4,0,10.8-1.2c-0.8,0-1.5,0-2.3-0.2C557,76.2,554.2,72.8,553.7,68.3 M553.7,76l-0.1,1.2l-1-0.8l-1.2-0.1l0.8-1
						l0.1-1.2l1,0.8l1.2,0.1L553.7,76"/>
					<path fill="#CB1716" d="M568.9,47.8c4.4-0.9,8.5,0.8,10.5,4.5c0.4,0.7,0.7,1.5,0.9,2.3c0.3-7.8-3-15-8.6-19.8
						c0.5,0.7,0.8,1.5,1.1,2.2C574.1,41.1,572.6,45.2,568.9,47.8 M576.6,44.1l-0.2,1.2l0.5,1.1l-1.2-0.2l-1.1,0.5l0.2-1.2l-0.5-1.1
						l1.2,0.2L576.6,44.1"/>
					<path fill="#271D1B" d="M548.4,56.7c-3.5-8.1-10.7-10.5-14.7-6.6c-3,2.9-3.3,8.7-1.2,13.6c2.1,4.9,6.6,8.6,10.8,8.4
						C548.8,71.7,551.9,64.8,548.4,56.7"/>
					<path fill="#109BE0" d="M535.2,53.6c-2.3,1.7-2.6,5.8-1.1,9.3c1.5,3.5,4.7,6,7.5,5.5c3.4-0.6,5-5.1,2.8-10.1
						C542.4,53.5,538,51.5,535.2,53.6 M575,58.2c-2.2-2.7-6.9-1.8-10.1,2.6c-3.2,4.3-2.7,9.1,0.5,10.4c2.6,1.1,6.3-0.6,8.6-3.7
						C576.3,64.4,576.9,60.4,575,58.2 M565.5,36.2c-0.4-2.8-3.7-5.2-7.5-5.6c-3.8-0.4-7.6,1.1-8.6,3.8c-1.2,3.2,2,6.9,7.3,7.5
						C562.1,42.5,566,39.7,565.5,36.2"/>
					<g>
						<path fill="#1573B0" d="M535.2,53.6c-2.3,1.7-2.6,5.8-1.1,9.3c1.5,3.5,4.7,6,7.5,5.5c3.4-0.6,5-5.1,2.8-10.1
							C542.4,53.5,538,51.5,535.2,53.6 M575,58.2c-2.2-2.7-6.9-1.8-10.1,2.6c-3.2,4.3-2.7,9.1,0.5,10.4c2.6,1.1,6.3-0.6,8.6-3.7
							C576.3,64.4,576.9,60.4,575,58.2 M565.5,36.2c-0.4-2.8-3.7-5.2-7.5-5.6c-3.8-0.4-7.6,1.1-8.6,3.8c-1.2,3.2,2,6.9,7.3,7.5
							C562.1,42.5,566,39.7,565.5,36.2"/>
					</g>
					<path fill="#F2EBE3" d="M554.7,34.7l-1.2,1l-1.9,0.5l1.6,0.9l0.7,1.5l1.3-1.2l1.9-0.5l-1.6-0.9L554.7,34.7z M566.8,68.2
						c-0.2,0.3-0.2,0.7,0,0.8c0.2,0.1,0.6,0,0.9-0.3c0.2-0.3,0.2-0.7,0-0.8C567.5,67.7,567.1,67.9,566.8,68.2z M540,60.6l0.1,1.9
						l-0.7,1.2l1.5,0.5l1.4,1.4l0-1.8l0.9-1.3l-1.7-0.5L540,60.6z M536.4,55.9c-0.2,0.1-0.3,0.6-0.1,0.9c0.2,0.4,0.5,0.5,0.7,0.4
						c0.2-0.1,0.3-0.6,0.1-0.9C536.9,56,536.6,55.8,536.4,55.9z M540.7,58.7c0.6-0.3,0.8-1.2,0.4-2c-0.4-0.8-1.1-1.2-1.7-0.9
						c-0.6,0.3-0.7,1.2-0.4,2C539.4,58.6,540.1,59,540.7,58.7z M570.8,60.1l-1.6-0.1l0.4,1.7l-0.5,1.9l1.6-1l1.5,0l-0.3-1.5l0.6-1.9
						L570.8,60.1z M565.1,64.5c-0.5,0.7-0.5,1.6,0.1,1.9c0.6,0.3,1.4,0,1.9-0.7c0.5-0.7,0.5-1.5,0-1.9
						C566.6,63.5,565.7,63.8,565.1,64.5z M562.9,36.1c0-0.3-0.3-0.5-0.7-0.6c-0.4,0-0.7,0.1-0.7,0.4c0,0.3,0.3,0.5,0.7,0.6
						C562.6,36.6,562.9,36.4,562.9,36.1z M560,37.5c-0.8-0.1-1.6,0.3-1.6,1c-0.1,0.7,0.6,1.3,1.5,1.4c0.9,0.1,1.6-0.4,1.6-1
						C561.5,38.1,560.8,37.6,560,37.5z"/>
					
						<radialGradient id="SVGID_6_" cx="-130.4083" cy="8345.1211" r="26.4916" gradientTransform="matrix(0.9701 -0.2425 -0.2425 -0.9701 2705.8452 8117.9814)" gradientUnits="userSpaceOnUse">
						<stop  offset="0" style="stop-color:#FEFBCD"/>
						<stop  offset="0.4778" style="stop-color:#FDF9CB"/>
						<stop  offset="0.6499" style="stop-color:#FAF4C4"/>
						<stop  offset="0.7726" style="stop-color:#F5EAB9"/>
						<stop  offset="0.8717" style="stop-color:#EEDCA8"/>
						<stop  offset="0.9557" style="stop-color:#E4CA92"/>
						<stop  offset="1" style="stop-color:#DEBE83"/>
					</radialGradient>
					<path fill="url(#SVGID_6_)" d="M552.2,74.7l-0.1,0.7l-0.8,1l1.2,0.1l1,0.8l0.1-1.2l0.8-1l-1.2-0.1l-0.1-0.1c0,0-0.1,0-0.1,0
						C552.7,74.8,552.4,74.7,552.2,74.7 M574.6,44.5c0.3,0.6,0.6,1.3,0.8,1.9l0.3-0.1l1.2,0.2l-0.5-1.1l0.2-1.2l-1.1,0.5L574.6,44.5
						 M538.2,39.2l-0.7,1l-1.1,0.5l1,0.7l0.2,0.5c0.4-0.5,0.7-1.1,1.1-1.6l0,0L538.2,39.2 M545.2,34.9c0.1-0.3,0.2-0.6,0.4-1
						c1.2-2.4,3.8-4,6.9-4.8c1.8-0.4,3.8-0.6,5.7-0.3c5.3,0.6,10.2,3.7,11.2,7.8c0.1,0.4,0.1,0.7,0.2,1.1c1.3,1.2,2.5,2.5,3.5,4
						c0.3-1.5,0.2-3.1-0.3-4.7c-0.3-0.8-0.6-1.5-1.1-2.2c5.6,4.8,8.9,12,8.6,19.8c-0.2-0.8-0.5-1.6-0.9-2.3
						c-0.8-1.5-1.9-2.6-3.2-3.4c0.4,1.7,0.6,3.4,0.5,5.2c0.2,0.3,0.5,0.6,0.7,0.9c2.3,3.5,1.3,9.2-1.9,13.5c-2.1,2.9-5.2,5-8.2,5.8
						c-1.4,0.3-2.9,0.4-4.2,0c-0.4-0.1-0.7-0.3-1.1-0.4c-0.5,0.2-1.1,0.3-1.6,0.5c-1.2,0.3-2.3,0.5-3.5,0.5c1.2,1,2.6,1.8,4.3,2.1
						c0.7,0.1,1.5,0.2,2.3,0.2c-0.7,0.2-1.4,0.4-2.1,0.6c-2.8,0.7-5.7,0.9-8.7,0.5c-3.8-0.4-7.3-1.7-10.3-3.6
						c0.8,0.2,1.6,0.3,2.3,0.4c0.8,0,1.7-0.1,2.4-0.3c0.8-0.2,1.5-0.5,2.1-0.8c-1.7-0.5-3.3-1.2-4.8-2.2c-0.4,0.1-0.7,0.1-1.1,0.2
						c-4.2,0.2-8.6-3.5-10.8-8.4c-2.1-4.9-1.8-10.7,1.2-13.6c0.3-0.3,0.6-0.5,0.9-0.7c0.4-1.8,0.9-3.4,1.7-5
						c-1.5,0.5-2.8,1.4-3.9,2.6c-0.5,0.6-1,1.3-1.4,2c1.5-7.7,6.4-14,12.9-17.4c-0.6,0.6-1.2,1.3-1.6,2c-0.9,1.4-1.3,2.9-1.4,4.4
						C542.2,36.8,543.6,35.8,545.2,34.9 M549.1,27.9c-10.5,2.5-18.8,11.4-20.1,22.8c-1.7,14.5,8.8,27.7,23.3,29.3
						c3.2,0.4,6.3,0.1,9.2-0.6c10.5-2.5,18.8-11.4,20.1-22.8c1.6-14.5-8.8-27.7-23.3-29.3C555.2,27,552.1,27.2,549.1,27.9"/>
					<path fill="#130D0C" d="M576.7,54.2c0,0.6-0.1,1.2-0.1,1.9c-0.1,1.2-0.4,2.4-0.7,3.6c0,0.1,0.1,0.3,0.1,0.4
						c0.5,2.2-0.2,5.1-1.9,7.4c-1.5,2-3.5,3.4-5.5,3.9c-0.5,0.1-1.1,0.2-1.6,0.2c-1.5,1-3.2,1.8-5,2.4c0.3,0.2,0.7,0.3,1.1,0.4
						c1.3,0.4,2.7,0.4,4.2,0c3-0.7,6.1-2.9,8.2-5.8c3.1-4.3,4.2-10,1.9-13.5C577.1,54.7,576.9,54.4,576.7,54.2"/>
					<path fill="#130D0C" d="M552.5,29.2c-3.1,0.8-5.7,2.4-6.9,4.8c-0.2,0.3-0.3,0.6-0.4,1c1.6-0.9,3.3-1.6,5.2-2l0,0
						c0.9-1,2.2-1.7,3.8-2.1c1.2-0.3,2.5-0.4,3.9-0.2c3,0.3,5.8,1.9,7,4c1.7,0.8,3.2,1.9,4.6,3.1c0-0.4-0.1-0.7-0.2-1.1
						c-1-4.1-5.9-7.2-11.2-7.8C556.3,28.6,554.3,28.8,552.5,29.2"/>
					<path fill="#A51A13" d="M543.9,31.6C537.3,35,532.4,41.3,531,49c0.4-0.7,0.8-1.4,1.4-2c1.1-1.2,2.4-2.1,3.9-2.6
						c0.4-0.8,0.9-1.7,1.4-2.4l-0.2-0.5l-1-0.7l1.1-0.5l0.7-1l0.5,1.1l0,0c0.7-0.8,1.4-1.6,2.2-2.4c0-1.5,0.5-3,1.4-4.4
						C542.7,32.9,543.3,32.2,543.9,31.6"/>
					<path fill="#A51A13" d="M542.2,74.7c3,1.9,6.5,3.2,10.3,3.6c3,0.3,5.9,0.1,8.7-0.5c0.7-0.2,1.4-0.4,2.1-0.6
						c-0.8,0-1.5,0-2.3-0.2c-1.7-0.3-3.1-1.1-4.3-2.1c-1.2,0.1-2.5,0.1-3.8-0.1l0.1,0.1l1.2,0.1l-0.8,1l-0.1,1.2l-1-0.8l-1.2-0.1
						l0.8-1l0.1-0.7c-1-0.2-2-0.4-3-0.7c-0.7,0.4-1.4,0.6-2.1,0.8c-0.8,0.2-1.6,0.3-2.4,0.3C543.8,75.1,543,74.9,542.2,74.7"/>
					<path fill="#A51A13" d="M571.6,34.8c0.5,0.7,0.8,1.5,1.1,2.2c0.5,1.6,0.6,3.2,0.3,4.7c0.6,0.9,1.1,1.8,1.6,2.8l0.8,0.1l1.1-0.5
						l-0.2,1.2l0.5,1.1l-1.2-0.2l-0.3,0.1c0.3,0.8,0.6,1.7,0.7,2.6c1.3,0.8,2.4,1.9,3.2,3.4c0.4,0.7,0.7,1.5,0.9,2.3
						C580.5,46.8,577.2,39.6,571.6,34.8"/>
					<path fill="#130D0C" d="M534.5,49.4c-0.3,0.2-0.6,0.4-0.9,0.7c-3,2.9-3.3,8.7-1.2,13.6c2.1,4.9,6.6,8.6,10.8,8.4
						c0.4,0,0.8-0.1,1.1-0.2c-1.6-1-3-2.1-4.3-3.4c-2.3-0.5-4.7-2.7-5.9-5.5c-0.3-0.6-0.5-1.2-0.6-1.9c-0.6-2.3-0.4-4.6,0.6-6.2
						c-0.1-1.2,0-2.4,0.1-3.6C534.3,50.6,534.4,50,534.5,49.4"/>
					<g>
						<path fill="#17628C" d="M575.8,59.6c-1.5,5-4.7,9.2-8.9,11.9c0.5,0,1,0,1.6-0.2c2-0.5,4-1.9,5.5-3.9c1.7-2.3,2.5-5.2,1.9-7.4
							C575.9,59.9,575.9,59.8,575.8,59.6 M534.1,54.9c-1,1.6-1.2,3.9-0.6,6.2c0.2,0.6,0.4,1.3,0.6,1.9c1.2,2.8,3.6,5,5.9,5.5
							C536.6,64.8,534.4,60,534.1,54.9 M554.2,30.9c-1.5,0.4-2.9,1.1-3.8,2.1c2.4-0.6,4.9-0.7,7.4-0.5c2.6,0.3,5,1,7.2,2.1
							c-1.2-2.1-3.9-3.6-7-4C556.7,30.5,555.4,30.6,554.2,30.9"/>
					</g>
				</g>
				<path fill="#999999" d="M646.7,21.6c4.8,2.5,8.9,48.6-5.3,61.1c-10.6,9.3-27.5,7.1-27.5,7.1s21.3,0,24.2,0
					c3,0,13.5-1.6,13.5-13.2s0-49.4,0-49.4S647.6,20.8,646.7,21.6z"/>
			</g>
		</g>
	</g>
	<g>
		<circle fill="#999999" cx="637.4" cy="53.5" r="3.5"/>
		<polygon fill="#999999" points="627.3,50.1 625.6,51.3 627.5,52.1 628.6,53.7 629.4,51.9 631.1,50.7 629.3,49.9 628.1,48.2 		"/>
		<polygon fill="#999999" points="619.9,58.3 619.3,60.3 621.3,59.7 623.2,60.2 622.6,58.3 623.2,56.3 621.2,56.9 619.2,56.4 		"/>
		<path fill="#999999" d="M615.9,59.9c0,0-0.3-0.5-0.8,0.4c8,5.3,8.6,11.3,6.9,14.4c-1.6-1.3-0.9-3.2-2-4.8
			c-1.2-1.8-3.6-2.2-4.3-0.1c-0.7,2.2,1.6,4.7,3.5,5c1,0.2,1.5,0.7,1.7,1.2c-0.7,0.5-1.4,0.8-2.2,0.7c-3.8-0.6-8.6-8-8.6-8
			s-0.5,0.8-0.6,2c6.1,9.8,20.1,14.4,23.5,15.1c0,0-2.6-2.7-3.2-5.4C625.6,62.5,615.9,59.9,615.9,59.9z"/>
		<circle fill="#999999" cx="641.2" cy="45.9" r="2.6"/>
		<circle fill="#999999" cx="627.6" cy="58.7" r="2.1"/>
		<circle fill="#999999" cx="611.3" cy="64.2" r="2.7"/>
		<path fill="#999999" d="M637.6,87.3c-3-4.4-8.4-16.7-8.6-25.7c0.8-1.2,2.1-1.8,2.1-1.8s0.3,11.3,4.1,14.4c1,0.8,2.5,0.9,4,0.4
			c0-0.7-0.3-1.5-1.3-2.2c-2-1.3-3.2-5.6-1.2-7.7c2-2.1,4.5-0.3,4.9,2.4c0.3,2.3-1.4,4.2-0.5,6.4c3.4-2.8,5.9-9.5,1-19.7
			c1.1-0.6,1.9-0.9,1.9-0.9s6.5,10.5,4,29.9L637.6,87.3z"/>
	</g>
	<g>
		<circle fill="#999999" cx="17.3" cy="53.5" r="3.5"/>
		<polygon fill="#999999" points="26.6,48.2 25.4,49.9 23.5,50.7 25.2,51.9 26,53.7 27.2,52.1 29,51.3 27.4,50.1 		"/>
		<polygon fill="#999999" points="35.4,56.4 33.5,56.9 31.5,56.3 32,58.3 31.4,60.2 33.4,59.7 35.3,60.3 34.8,58.3 		"/>
		<path fill="#999999" d="M24.8,80.5c-0.6,2.7-3.2,5.4-3.2,5.4C25,85.2,39,80.6,45.1,70.8c-0.1-1.1-0.6-2-0.6-2s-4.7,7.4-8.6,8
			c-0.7,0.1-1.5-0.1-2.2-0.7c0.2-0.5,0.7-1.1,1.7-1.2c1.8-0.3,4.2-2.8,3.5-5c-0.7-2.2-3.1-1.7-4.3,0.1c-1.1,1.6-0.4,3.5-2,4.8
			c-1.7-3.1-1.1-9.1,6.9-14.4c-0.5-0.9-0.8-0.4-0.8-0.4S29.1,62.5,24.8,80.5z"/>
		<circle fill="#999999" cx="13.5" cy="45.9" r="2.6"/>
		<circle fill="#999999" cx="27" cy="58.7" r="2.1"/>
		<circle fill="#999999" cx="43.4" cy="64.2" r="2.7"/>
		<path fill="#999999" d="M17.1,87.3c3-4.4,8.4-16.7,8.6-25.7c-0.8-1.2-2.1-1.8-2.1-1.8s-0.3,11.3-4.1,14.4c-1,0.8-2.5,0.9-4,0.4
			c0-0.7,0.3-1.5,1.3-2.2c2-1.3,3.2-5.6,1.2-7.7c-2-2.1-4.5-0.3-4.9,2.4c-0.3,2.3,1.4,4.2,0.5,6.4c-3.4-2.8-5.9-9.5-1-19.7
			c-1.1-0.6-1.9-0.9-1.9-0.9s-6.5,10.5-4,29.9L17.1,87.3z"/>
	</g>
</g>
</svg>
