<?xml version="1.0" encoding="utf-8"?>
<!-- Generator: Adobe Illustrator 18.1.1, SVG Export Plug-In . SVG Version: 6.00 Build 0)  -->
<svg version="1.1" id="圖層_1" xmlns="http://www.w3.org/2000/svg" xmlns:xlink="http://www.w3.org/1999/xlink" x="0px" y="0px"
	 viewBox="0 0 232.2 56.5" enable-background="new 0 0 232.2 56.5" xml:space="preserve">
<g>
	<g>
		<linearGradient id="SVGID_1_" gradientUnits="userSpaceOnUse" x1="116.1114" y1="2.1707" x2="116.1114" y2="56.7559">
			<stop  offset="0" style="stop-color:#EBEBEB"/>
			<stop  offset="0.168" style="stop-color:#E4E4E4"/>
			<stop  offset="0.4018" style="stop-color:#D2D2D2"/>
			<stop  offset="0.6741" style="stop-color:#B5B5B5"/>
			<stop  offset="0.9734" style="stop-color:#8C8C8C"/>
			<stop  offset="1" style="stop-color:#888888"/>
		</linearGradient>
		<path fill="url(#SVGID_1_)" d="M17.3,56.5C7.7,56.5,0,48.8,0,39.2v-22C0,7.7,7.7,0,17.3,0H215c9.5,0,17.3,7.7,17.3,17.3v22
			c0,9.5-7.7,17.3-17.3,17.3H17.3z"/>
	</g>
	<g>
		<path fill="#F2F2F2" d="M17.3,53.4C9.5,53.4,3.1,47,3.1,39.2v-22c0-7.8,6.3-14.1,14.1-14.1H215c7.8,0,14.1,6.3,14.1,14.1v22
			c0,7.8-6.3,14.1-14.1,14.1H17.3z"/>
	</g>
	<g opacity="0.4">
		<linearGradient id="SVGID_2_" gradientUnits="userSpaceOnUse" x1="116.1114" y1="39.4582" x2="116.1114" y2="3.1383">
			<stop  offset="0" style="stop-color:#D4D4D4"/>
			<stop  offset="0.2604" style="stop-color:#D1D1D1"/>
			<stop  offset="0.4173" style="stop-color:#C9C9C9"/>
			<stop  offset="0.5469" style="stop-color:#BBBBBB"/>
			<stop  offset="0.6615" style="stop-color:#A6A6A6"/>
			<stop  offset="0.7663" style="stop-color:#8C8C8C"/>
			<stop  offset="0.864" style="stop-color:#6C6C6C"/>
			<stop  offset="0.9543" style="stop-color:#464646"/>
			<stop  offset="1" style="stop-color:#303030"/>
		</linearGradient>
		<path fill="url(#SVGID_2_)" d="M229.1,23.1V16c0-7.1-5.8-12.9-12.9-12.9H16C8.9,3.1,3.1,8.9,3.1,16v22.5c0,0.3,0,0.6,0,0.9
			C35.1,25.3,193.2,16.2,229.1,23.1z"/>
	</g>
</g>
</svg>
