<svg id="圖層_1" data-name="圖層 1" xmlns="http://www.w3.org/2000/svg" viewBox="0 0 300 300"><defs><style>.cls-1{fill:#fff;}</style></defs><title>cross</title><line class="cls-1" x1="37.5" y1="37.5" x2="262.5" y2="262.5"/><path class="cls-1" d="M262.5,300A37.38,37.38,0,0,1,236,289L11,64A37.5,37.5,0,0,1,64,11L289,236a37.5,37.5,0,0,1-26.52,64Z" transform="translate(0)"/><line class="cls-1" x1="262.5" y1="37.5" x2="37.5" y2="262.5"/><path class="cls-1" d="M37.5,300A37.5,37.5,0,0,1,11,236L236,11a37.5,37.5,0,0,1,53,53L64,289A37.38,37.38,0,0,1,37.5,300Z" transform="translate(0)"/></svg>