<?xml version="1.0" encoding="utf-8"?>
<!-- Generator: Adobe Illustrator 22.0.1, SVG Export Plug-In . SVG Version: 6.00 Build 0)  -->
<svg version="1.1" id="圖層_1" xmlns="http://www.w3.org/2000/svg" xmlns:xlink="http://www.w3.org/1999/xlink" x="0px" y="0px"
	 width="89px" height="111.7px" viewBox="0 0 89 111.7" style="enable-background:new 0 0 89 111.7;" xml:space="preserve">
<style type="text/css">
	.st0{fill:#FFFFFF;}
</style>
<g>
	<g>
		<g>
			<path class="st0" d="M58.6,51.7c-1.1-1.1-2.4-2-3.9-2.6c-1.4-0.7-3.1-1-4.7-1c-1.7,0-3.2,0.3-4.7,1c-1.4,0.6-2.8,1.4-3.9,2.6
				c-1.1,1.1-2,2.4-2.6,3.9c-0.7,1.4-1,3.1-1,4.7c0,1.7,0.3,3.2,1,4.7c0.6,1.4,1.4,2.8,2.6,3.9c1.1,1.1,2.4,2,3.9,2.6
				c1.4,0.7,3.1,1,4.7,1c1.7,0,3.2-0.3,4.7-1c1.4-0.6,2.8-1.4,3.9-2.6c1.1-1.1,2-2.4,2.6-3.9c0.7-1.4,1-3.1,1-4.7
				c0-1.7-0.3-3.2-1-4.7C60.5,54.2,59.7,52.8,58.6,51.7L58.6,51.7z M43.3,51c0.1-0.1,0.2-0.2,0.3-0.2c0.6-0.4,1.2-0.8,1.9-1
				c1.4-0.6,2.9-0.9,4.4-0.9c1,0,2.1,0.1,3,0.4c-0.4,0.1-0.9,0.4-1.7,1.1c-0.7-0.1-1.3-0.1-2,0c-0.9,0.1-1.8,0.3-2.7,0.6
				c-0.8,0.2-1.4,0.6-1.8,0.8c-0.7-0.2-1.4-0.4-1.9-0.7C43.2,51.1,43.3,51,43.3,51L43.3,51z M54.3,54l-2.1,5.7l-5,1l-4.1-4.2
				c0.2-1.9,1.6-3.7,1.6-3.7s0.9-0.7,2.2-1.1c0.8-0.3,1.7-0.4,2.4-0.6c0.7-0.1,1.3,0,2,0L54.3,54z M38.8,59.9
				c-0.1,0.8-0.1,1.7-0.1,2.6c-0.1-0.2-0.2-0.3-0.2-0.6c-0.1-0.6-0.1-1.1-0.1-1.7c0-1.7,0.3-3.3,1-4.8c-0.1,0.8,0,1.6,0,2.1
				C39.2,58.4,39.1,59.2,38.8,59.9L38.8,59.9z M39.8,64.3c-0.1-0.4-0.2-1.1-0.3-1.8c-0.1-0.9,0-1.7,0.1-2.4s0.2-1.2,0.4-1.8
				c0.9-0.7,2-1.1,2.6-1.3l4,4.1l-0.4,4.6L42.3,67C41.3,66.2,40.5,65.3,39.8,64.3L39.8,64.3z M51.8,70.9c-0.9,0.6-3.1,0.7-4,0.8
				c-1-0.2-2-0.6-2.9-0.9c-0.8-0.3-1.6-0.9-2.2-1.4c0,0-0.1-1.2-0.1-1.7l4-1.3l4.6,2L51.8,70.9L51.8,70.9z M59.5,66.9
				c-0.7,1-1.6,1.9-2.4,2.6c-0.9,0.7-2.1,0.9-3.2,1.1c-0.1,0-1.1,0.2-1.1,0.1L52.1,68l3.2-3.3l4.3-0.4c0.1,0.7,0.1,1.7,0.2,2.3
				C59.6,66.7,59.5,66.8,59.5,66.9L59.5,66.9z M59.5,63.5L59.5,63.5l-4.3,0.4l-2.2-4l2.1-5.7l2.9,0.2c0.7,0.6,1.2,1.1,1.7,1.8
				c0.6,0.8,1,1.7,1.3,2.6C60.6,61.6,59.8,62.9,59.5,63.5L59.5,63.5z M61,57.1c-0.2-0.4-0.6-1-0.9-1.4c-0.6-0.7-1.1-1.3-1.9-1.9
				c-0.1-0.7-0.4-1.7-1.4-2.7l0,0c0.1,0,0.1,0.1,0.2,0.1c0.7,0.6,1.2,1.1,1.8,1.8C59.9,54.2,60.6,55.6,61,57.1L61,57.1L61,57.1z"/>
		</g>
	</g>
	<path class="st0" d="M50.9,13.7H13.7v5.8h37.2V13.7z M21.5,23.1h-7.8v7.8h7.8V23.1z M32.3,30.8V23h-7.8v7.8H32.3z M87.9,19.2
		L69.6,0.9C69,0.3,68.2,0,67.3,0H7.9C3.6,0,0,3.4,0,7.8v96c0,4.3,3.6,7.9,7.9,7.9h73.2c4.3,0,7.9-3.6,7.9-7.9V21.5
		C88.8,20.6,88.5,19.9,87.9,19.2z M82.3,103.8c0,0.7-0.6,1.3-1.3,1.3H7.8c-0.7,0-1.3-0.6-1.3-1.3v-96c0-0.7,0.6-1.3,1.3-1.3H64v10.4
		c0,4.3,3.6,7.9,7.9,7.9h3.6v-6.5h-3.7c-0.7,0-1.3-0.6-1.3-1.3v-5.8L82.3,23V103.8L82.3,103.8L82.3,103.8z M54.9,89.1H20.3v-30h4.6
		v-6.5h-5.6c-3.1,0-5.6,2.4-5.6,5.6v32c0,3.1,2.4,5.6,5.6,5.6h36.5c3.1,0,5.6-2.4,5.6-5.6v-5.6h-6.5v4.7l0,0V89.1z M69.6,38.9H33.1
		c-3.1,0-5.6,2.4-5.6,5.6v32c0,3.1,2.4,5.6,5.6,5.6h36.5c3.1,0,5.6-2.4,5.6-5.6v-32C75.1,41.3,72.7,38.9,69.6,38.9z M68.6,75.4H34
		v-30h34.6V75.4z"/>
</g>
</svg>
