<?xml version="1.0" encoding="utf-8"?>
<!-- Generator: Adobe Illustrator 18.1.1, SVG Export Plug-In . SVG Version: 6.00 Build 0)  -->
<svg version="1.1" id="圖層_1" xmlns="http://www.w3.org/2000/svg" xmlns:xlink="http://www.w3.org/1999/xlink" x="0px" y="0px"
	 viewBox="0 0 80 100.6" enable-background="new 0 0 80 100.6" xml:space="preserve">
<g>
	<g>
		<g>
			<path fill="#808080" d="M52.8,46.7c-1-1-2.2-1.8-3.5-2.3c-1.3-0.6-2.8-0.9-4.2-0.9c-1.5,0-2.9,0.3-4.2,0.9
				c-1.3,0.5-2.5,1.3-3.5,2.3c-1,1-1.8,2.2-2.3,3.5c-0.6,1.3-0.9,2.8-0.9,4.2c0,1.5,0.3,2.9,0.9,4.2c0.5,1.3,1.3,2.5,2.3,3.5
				c1,1,2.2,1.8,3.5,2.3c1.3,0.6,2.8,0.9,4.2,0.9c1.5,0,2.9-0.3,4.2-0.9c1.3-0.5,2.5-1.3,3.5-2.3c1-1,1.8-2.2,2.3-3.5
				c0.6-1.3,0.9-2.8,0.9-4.2c0-1.5-0.3-2.9-0.9-4.2C54.6,48.8,53.8,47.7,52.8,46.7L52.8,46.7z M39,45.9c0.1-0.1,0.2-0.2,0.3-0.2
				c0.5-0.4,1.1-0.7,1.7-0.9c1.3-0.5,2.6-0.8,4-0.8c0.9,0,1.9,0.1,2.7,0.4c-0.4,0.1-0.8,0.4-1.5,1c-0.6-0.1-1.2-0.1-1.8,0
				c-0.8,0.1-1.6,0.3-2.4,0.5c-0.7,0.2-1.3,0.5-1.6,0.7c-0.6-0.2-1.3-0.4-1.7-0.6C38.9,46.1,39,46,39,45.9L39,45.9z M49,48.7
				l-1.9,5.1l-4.5,0.9l-3.7-3.8c0.2-1.7,1.4-3.3,1.4-3.3c0,0,0.8-0.6,2-1c0.7-0.3,1.5-0.4,2.2-0.5c0.6-0.1,1.2,0,1.8,0L49,48.7z
				 M35.1,54c-0.1,0.7-0.1,1.5-0.1,2.3c-0.1-0.2-0.2-0.3-0.2-0.5c-0.1-0.5-0.1-1-0.1-1.5c0-1.5,0.3-3,0.9-4.3c-0.1,0.7,0,1.4,0,1.9
				C35.4,52.6,35.2,53.3,35.1,54L35.1,54z M36,58c-0.1-0.4-0.2-1-0.3-1.6c-0.1-0.8,0-1.5,0.1-2.2c0.1-0.6,0.2-1.1,0.4-1.6
				c0.8-0.6,1.8-1,2.3-1.2l3.6,3.7l-0.4,4.1l-3.5,1.2C37.3,59.7,36.5,58.8,36,58L36,58z M46.7,63.9c-0.8,0.5-2.8,0.6-3.6,0.7
				c-0.9-0.2-1.8-0.5-2.6-0.8c-0.7-0.3-1.4-0.8-2-1.3c0,0-0.1-1.1-0.1-1.5l3.6-1.2l4.1,1.8L46.7,63.9L46.7,63.9z M53.6,60.3
				c-0.6,0.9-1.4,1.7-2.2,2.3c-0.8,0.6-1.9,0.8-2.9,1c-0.1,0-1,0.2-1,0.1l-0.6-2.4l2.9-3l3.9-0.4c0.1,0.6,0.1,1.5,0.2,2.1
				C53.7,60.1,53.7,60.2,53.6,60.3L53.6,60.3z M53.7,57.2C53.7,57.2,53.6,57.3,53.7,57.2l-3.9,0.4L47.7,54l1.9-5.1l2.6,0.2
				c0.6,0.5,1.1,1,1.5,1.6c0.5,0.7,0.9,1.5,1.2,2.3C54.6,55.5,54,56.8,53.7,57.2L53.7,57.2z M55,51.5c-0.2-0.4-0.5-0.9-0.8-1.3
				c-0.5-0.6-1-1.2-1.7-1.7c-0.1-0.6-0.4-1.5-1.3-2.4c0,0,0,0,0,0c0.1,0,0.1,0.1,0.2,0.1c0.6,0.5,1.1,1,1.6,1.6
				C54,48.8,54.7,50.1,55,51.5L55,51.5L55,51.5z M55,51.5"/>
		</g>
	</g>
	<path fill="#808080" d="M45.9,12.4H12.4v5.2h33.5V12.4z M19.4,20.8h-7v7h7V20.8z M29.1,27.8v-7h-7v7H29.1z M79.2,17.3L62.7,0.9
		C62.2,0.3,61.4,0,60.7,0H7.1C3.2,0,0.1,3.2,0.1,7.1v86.5c0,3.9,3.2,7.1,7.1,7.1H73c3.9,0,7.1-3.2,7.1-7.1V19.4
		C80.1,18.6,79.8,17.9,79.2,17.3z M74.2,93.5c0,0.6-0.5,1.2-1.2,1.2H7.1c-0.6,0-1.2-0.5-1.2-1.2V7.1c0-0.6,0.5-1.2,1.2-1.2h50.6v9.4
		c0,3.9,3.2,7.1,7.1,7.1H68v-5.9h-3.3c-0.6,0-1.2-0.5-1.2-1.2V10l10.6,10.6V93.5z M49.5,80.3H18.3V53.2h4.1v-5.9h-5
		c-2.8,0-5,2.2-5,5v28.8c0,2.8,2.2,5,5,5h32.9c2.8,0,5-2.2,5-5v-5h-5.9V80.3z M62.7,35H29.8c-2.8,0-5,2.2-5,5v28.8c0,2.8,2.2,5,5,5
		h32.9c2.8,0,5-2.2,5-5V40C67.7,37.2,65.5,35,62.7,35z M61.8,67.9H30.7V40.9h31.2V67.9z"/>
</g>
</svg>
