<?xml version="1.0" encoding="utf-8"?>
<!-- Generator: Adobe Illustrator 21.0.0, SVG Export Plug-In . SVG Version: 6.00 Build 0)  -->
<svg version="1.1" id="圖層_1" xmlns="http://www.w3.org/2000/svg" xmlns:xlink="http://www.w3.org/1999/xlink" x="0px" y="0px"
	 viewBox="0 0 150 150" style="enable-background:new 0 0 150 150;" xml:space="preserve">
<style type="text/css">
	.st0{fill:#0092EB;}
	.st1{fill:#FFFFFF;}
</style>
<g>
	<circle class="st0" cx="75" cy="75" r="75"/>
	<path id="path17-6_2_" class="st1" d="M107.1,102c4.1,3.1,9.3,5.6,7.1,12.5c-2.2,7.2-10.7,14.6-18.1,14.8c-1-0.2-3.1-0.5-5-1.2
		c-32.9-12.9-57.3-35-71.8-67.4C14.4,49.8,18.8,40.4,30,36.2c2-0.8,4-0.9,6-0.2c4.9,1.6,17.7,18,18.1,23c0.3,3.8-2.2,6-4.8,7.9
		c-4.8,3.5-4.7,7.8-2.4,12.4c5.1,10.5,13.5,17.6,24.2,22c3.9,1.6,7.5,1.3,10-2.7c4.4-7.2,10.1-7,16.5-2.9
		C100.8,97.7,104,99.7,107.1,102L107.1,102z"/>
	<path id="path19-1_2_" class="st1" d="M71.6,33.3c26.3,4,38.4,16.6,41.8,43.1c0.3,2.4-0.6,6.1,2.9,6.2c3.6,0.1,2.8-3.6,2.8-6
		c0.3-25-21.4-48.1-46.7-48.9c-1.9,0.3-5.8-1.3-6.1,3C66.1,33.5,69.4,33,71.6,33.3L71.6,33.3z"/>
	<path id="path21-2_2_" class="st1" d="M76.8,40.6c-2.5-0.3-5.9-1.5-6.5,2c-0.6,3.7,3.1,3.3,5.5,3.8c16.3,3.6,21.9,9.5,24.6,25.7
		c0.4,2.4-0.4,6,3.6,5.4c3-0.4,1.9-3.6,2.1-5.4C106.3,56.6,93,42.5,76.8,40.6L76.8,40.6z"/>
	<path id="path23_2_" class="st1" d="M78.3,53.3c-1.7,0-3.3,0.2-4,2c-0.9,2.7,1,3.3,3,3.7c6.7,1.1,10.2,5,10.8,11.7
		c0.2,1.8,1.3,3.3,3.1,3.1c2.4-0.3,2.6-2.4,2.6-4.5C93.9,61.7,85.5,53.1,78.3,53.3L78.3,53.3z"/>
</g>
</svg>
