<?xml version="1.0" encoding="utf-8"?>
<!-- Generator: Adobe Illustrator 21.0.0, SVG Export Plug-In . SVG Version: 6.00 Build 0)  -->
<svg version="1.1" id="圖層_1" xmlns="http://www.w3.org/2000/svg" xmlns:xlink="http://www.w3.org/1999/xlink" x="0px" y="0px"
	 viewBox="0 0 150.1 150" style="enable-background:new 0 0 150.1 150;" xml:space="preserve">
<style type="text/css">
	.st0{fill:#0092EB;}
</style>
<g>
	<path class="st0" d="M75.1,56.7C65,56.7,56.8,64.9,56.8,75c0,10.1,8.2,18.3,18.3,18.3S93.4,85.1,93.4,75
		C93.3,64.9,85.2,56.7,75.1,56.7 M111.8,85.6l-3.3,8l5.9,11.6l0.8,1.5l-8.2,8.2l-13.4-6.3l-8,3.3l-4,12.4l-0.5,1.6H69.6l-5-13.9
		l-8-3.3L45,114.6l-1.5,0.8l-8.2-8.2l6.3-13.4l-3.3-7.9l-12.3-4l-1.6-0.5V69.5l14-5l3.3-7.9L35.8,45L35,43.5l8.2-8.2l13.4,6.3
		l7.9-3.3l4-12.4l0.5-1.6h11.5l5,14l7.9,3.3l11.6-5.9l1.5-0.8l8.2,8.2l-6.3,13.4l3.3,8l12.4,4l1.6,0.5v11.5L111.8,85.6z"/>
	<path class="st0" d="M150.1,123.9c0,14.4-11.7,26.1-26.1,26.1s-26.1-11.7-26.1-26.1s11.7-26.1,26.1-26.1S150.1,109.5,150.1,123.9
		 M119.3,122.4c0.5-0.3,0.9-0.4,1.2-0.4c0.4,0,0.6,0.2,0.6,0.7c0,0.9-0.4,2.9-1.3,5.8l-1.7,6c-0.5,2-0.8,3.6-0.8,4.8
		c0,1,0.2,1.6,0.5,2.1c0.3,0.4,0.8,0.6,1.5,0.6c0.4,0,0.9-0.1,1.4-0.3c0.7-0.2,1.7-0.8,3.1-1.7l5.2-3.5l-0.7-1.3
		c-2.4,1.6-3.9,2.4-4.3,2.4c-0.5,0-0.7-0.3-0.7-0.9c0-1.1,0.6-3.7,1.9-7.9l0.8-2.7c1.1-3.7,1.6-6.1,1.6-7.3c0-0.6-0.2-1.1-0.5-1.4
		s-0.7-0.5-1.1-0.5c-0.7,0-1.8,0.4-3.2,1.1c-1.1,0.6-3.7,2.3-7.7,5.2l0.6,1.4C116.9,123.8,118,123.1,119.3,122.4 M124.6,111.4
		c0.5,0.5,1.2,0.8,2,0.8c1,0,1.9-0.4,2.5-1.1c0.7-0.8,1-1.7,1-2.9c0-0.8-0.3-1.5-0.8-2s-1.2-0.8-2-0.8c-1,0-1.9,0.4-2.6,1.1
		s-1,1.7-1,3C123.9,110.2,124.1,110.9,124.6,111.4"/>
	<path class="st0" d="M115.4,133.1c-11.4,8-25.3,12.6-40.3,12.6c-39,0-70.7-31.7-70.7-70.7S36.1,4.3,75.1,4.3S145.8,36,145.8,75
		c0,15-4.7,29-12.8,40.5h5.2c7.7-12,11.8-25.9,11.8-40.5c0-20-7.8-38.8-22-53S95,0,75,0S36.2,7.8,22,22S0,55,0,75s7.8,38.8,22,53
		s33,22,53,22c14.5,0,28.4-4.1,40.3-11.7L115.4,133.1L115.4,133.1z"/>
</g>
</svg>
