<?xml version="1.0" encoding="utf-8"?>
<!-- Generator: Adobe Illustrator 21.0.0, SVG Export Plug-In . SVG Version: 6.00 Build 0)  -->
<svg version="1.1" id="圖層_1" xmlns="http://www.w3.org/2000/svg" xmlns:xlink="http://www.w3.org/1999/xlink" x="0px" y="0px"
	 viewBox="0 0 150 150" style="enable-background:new 0 0 150 150;" xml:space="preserve">
<style type="text/css">
	.st0{fill:#0092EB;}
</style>
<g>
	<path class="st0" d="M75,150c-20,0-38.9-7.8-53-22S0,95,0,75s7.8-38.9,22-53C36.2,7.8,55,0,75,0s38.9,7.8,53,22
		c14.2,14.2,22,33,22,53s-7.8,38.9-22,53S95.1,150,75,150 M75,4.3C36,4.3,4.3,36,4.3,75S36,145.7,75,145.7S145.7,114,145.7,75
		S114,4.3,75,4.3"/>
	<path class="st0" d="M26.5,50.3c0,6.6,2.5,13.3,7.6,18.3l18.6,18.6c5.1,5.1,11.8,7.6,18.4,7.6l0,0c6.6,0,13.3-2.6,18.3-7.6l0.8-0.8
		L78.9,75.1l-0.8,0.8c-1.9,1.9-4.4,2.9-6.9,2.9c-2.6,0-5.1-1-7.1-2.9L45.5,57.3c-1.9-2-2.9-4.4-2.9-7c0-2.5,1-5,2.9-7l0.8-0.8
		c1.9-1.9,4.4-2.9,7-2.9s5,1,7,2.9l7.6,7.6c3.1,3.1,8.2,3.1,11.3,0c3.1-3.1,3.1-8.2,0-11.3l-7.6-7.6c-5-5-11.7-7.6-18.3-7.6
		S40,26.1,35,31.2L34.2,32C29.1,37,26.5,43.7,26.5,50.3 M70.5,99.5c-3.1,3.1-3.1,8.2,0,11.3l8,8c5.1,5.1,11.8,7.6,18.4,7.6l0,0
		c6.6,0,13.3-2.6,18.3-7.6l0.8-0.8c5.1-5,7.6-11.7,7.6-18.3c0-6.6-2.6-13.3-7.6-18.3L97.4,62.8c-5-5-11.7-7.6-18.3-7.6
		c-5.2,0-10.4,1.6-14.8,4.7c-0.7,0.4-1.4,0.9-2,1.5l-1.4,1.4l-0.8,0.8l11.3,11.3l0.8-0.8c1.9-1.9,4.4-2.9,7-2.9s5,1,7,2.9l18.6,18.6
		c1.9,1.9,2.9,4.4,2.9,7s-1,5.1-2.9,7l-0.8,0.8c-1.9,1.9-4.4,2.9-6.9,2.9c-2.6,0-5.1-1-7.1-2.9l-8-8C78.7,96.3,73.6,96.3,70.5,99.5"
		/>
</g>
</svg>
