<?xml version="1.0" encoding="utf-8"?>
<!-- Generator: Adobe Illustrator 18.1.1, SVG Export Plug-In . SVG Version: 6.00 Build 0)  -->
<svg version="1.1" id="圖層_1" xmlns="http://www.w3.org/2000/svg" xmlns:xlink="http://www.w3.org/1999/xlink" x="0px" y="0px"
	 viewBox="0 0 245.6 64.1" enable-background="new 0 0 245.6 64.1" xml:space="preserve">
<g>
	<g>
		<path fill="#0A88E5" d="M217.7,58.3H28.1c-15.4,0-28-12.5-28-28l0-2.3c0-15.4,12.5-28,28-28l189.7,0c15.4,0,28,12.5,28,28v2.3
			C245.7,45.7,233.2,58.3,217.7,58.3z"/>
		<g>
			<path fill="#1A3B74" d="M216.6,64.1H29.2C13.1,64.1,0.1,51,0.1,35l0,0c0-16.1,13-29.1,29.1-29.1h187.3c16.1,0,29.1,13,29.1,29.1
				l0,0C245.7,51,232.7,64.1,216.6,64.1z"/>
			<path fill="#0259B8" d="M216.6,60.6H29.2c-16.1,0-29.1-13-29.1-29.1l0,0c0-16.1,13-29.1,29.1-29.1h187.3
				c16.1,0,29.1,13,29.1,29.1l0,0C245.7,47.6,232.7,60.6,216.6,60.6z"/>
		</g>
		
			<circle fill-rule="evenodd" clip-rule="evenodd" fill="none" stroke="#FFFFFF" stroke-miterlimit="10" cx="32.5" cy="31.1" r="23.1"/>
		<polygon fill-rule="evenodd" clip-rule="evenodd" fill="#C5C9C9" points="67.7,60.6 68.6,61.2 68.6,2.1 67.7,2.1 		"/>
		<polygon fill-rule="evenodd" clip-rule="evenodd" fill="#F5F5F5" points="68.6,61.2 69.6,60.6 69.6,2.1 68.6,2.1 		"/>
	</g>
	<g>
		<path fill="#FFFFFF" d="M44,39.9v-0.4l-2.9,1.2l0,0v0.2L44,42v-0.4l-2.2-0.9L44,39.9L44,39.9z"/>
		<g>
			<path fill="#FFFFFF" d="M41.2,18.2V18c0-0.5-0.4-1-1-1h-1.1c-0.5,0-1,0.4-1,1v0.1H34V18c0-0.5-0.4-1-1-1h-1.1c-0.5,0-1,0.4-1,1
				v0.1h-4.2V18c0-0.5-0.4-1-1-1h-1.1c-0.5,0-1,0.4-1,1v0.1h-4.7v25.7h26.8V18.2H41.2z M39,18c0-0.1,0.1-0.1,0.1-0.1h1.1
				c0.1,0,0.1,0.1,0.1,0.1v2.4H39V18z M31.8,18c0-0.1,0.1-0.1,0.1-0.1H33c0.1,0,0.1,0.1,0.1,0.1v2.4h-1.4V18z M24.6,18
				c0-0.1,0.1-0.1,0.1-0.1h1.1c0.1,0,0.1,0.1,0.1,0.1v2.4h-1.4V18z M45.1,43.1H19.9V25.6h25.2V43.1z M45.1,24.8H19.9v-1.4h22.3v-0.8
				H19.9V19h3.9v2.2h3V19H31v2.2h3V19h4.2v2.2h3V19h3.9V24.8z M45.1,24.8"/>
			<path fill="#FFFFFF" d="M21,26.7V42h17.5l5.5-5.5v-9.7H21z M38.7,40.5v-3.8h3.8L38.7,40.5z M43.1,35.9h-5.3v5.3h-16V27.6h21.3
				L43.1,35.9L43.1,35.9z M43.1,35.9"/>
			<path fill="#FFFFFF" d="M29.6,37.3"/>
		</g>
		<g>
			
				<text transform="matrix(0.8816 0 0 1 21.9797 38.5723)" fill="#FFFFFF" font-family="'MicrosoftJhengHeiBold'" font-size="11.8777">14</text>
		</g>
		<text transform="matrix(1 0 0 1 35.3948 34.4326)" fill="#FFFFFF" font-family="'MicrosoftJhengHeiBold'" font-size="2.8384">Days</text>
		<text transform="matrix(1 0 0 1 35.3948 31.0781)" fill="#FFFFFF" font-family="'MicrosoftJhengHeiBold'" font-size="2.0919">before</text>
	</g>
</g>
</svg>
