<?xml version="1.0" encoding="utf-8"?>
<!-- Generator: Adobe Illustrator 18.1.1, SVG Export Plug-In . SVG Version: 6.00 Build 0)  -->
<svg version="1.1" id="圖層_1" xmlns="http://www.w3.org/2000/svg" xmlns:xlink="http://www.w3.org/1999/xlink" x="0px" y="0px"
	 viewBox="0 0 82 82" enable-background="new 0 0 82 82" xml:space="preserve">
<g>
	<circle fill="#FFFFFF" stroke="#0091EA" stroke-width="2" stroke-miterlimit="10" cx="41" cy="41" r="40"/>
	<path fill-rule="evenodd" clip-rule="evenodd" fill="#4D4D4D" d="M52.8,16.3H29.1c-1,0-1.8,0.8-1.8,1.8v45.4c0,1,0.8,1.8,1.8,1.8
		h23.7c1,0,1.8-0.8,1.8-1.8V18.1C54.6,17.1,53.8,16.3,52.8,16.3z M43,62.8c0,0.2-0.1,0.2-0.2,0.2h-3.6c-0.1,0-0.2-0.1-0.2-0.2v-3.1
		c0-0.2,0.1-0.2,0.2-0.2h3.6c0.1,0,0.2,0.1,0.2,0.2V62.8z M51.7,57.6H30.2V19.8h21.5V57.6z M33.7,46.2c0-4.8,1.8-3.6,5.4-5.7v-0.8
		c-0.6-0.5-0.8-1.3-1-2.1h0c-0.1,0-0.2-0.1-0.2-0.3c0,0,0,0,0-0.1c-0.1-0.1-0.1-0.2-0.2-0.4c-0.1-0.3-0.3-0.8-0.1-1
		c0.2-0.2,0.3,0,0.3,0c-0.3-1.4-0.6-3.2,1.3-3.7c0-1.2,4.4-0.6,5,1.2c0.2,0.7-0.1,2.4-0.1,2.4c0.1-0.1,0.1-0.1,0.3-0.1
		c0.2,0.2,0,0.9-0.1,1.1c-0.1,0.2-0.1,0.4-0.2,0.4v0c0,0.2-0.1,0.3-0.2,0.3c-0.2,0.7-0.4,1.6-1,2v0.9c3.6,2.1,5.4,1,5.4,5.7H33.7z"
		/>
</g>
</svg>
