<?xml version="1.0" encoding="utf-8"?>
<!-- Generator: Adobe Illustrator 18.1.1, SVG Export Plug-In . SVG Version: 6.00 Build 0)  -->
<svg version="1.1" id="圖層_1" xmlns="http://www.w3.org/2000/svg" xmlns:xlink="http://www.w3.org/1999/xlink" x="0px" y="0px"
	 viewBox="0 0 82 82" enable-background="new 0 0 82 82" xml:space="preserve">
<g>
	<radialGradient id="SVGID_1_" cx="41" cy="41" r="41" gradientUnits="userSpaceOnUse">
		<stop  offset="0" style="stop-color:#32C3FF"/>
		<stop  offset="0.2446" style="stop-color:#32C0FD"/>
		<stop  offset="0.4201" style="stop-color:#32B7F6"/>
		<stop  offset="0.574" style="stop-color:#32A7EA"/>
		<stop  offset="0.7155" style="stop-color:#3391DA"/>
		<stop  offset="0.8485" style="stop-color:#3374C5"/>
		<stop  offset="0.9734" style="stop-color:#3451AB"/>
		<stop  offset="1" style="stop-color:#3449A5"/>
	</radialGradient>
	<circle fill="url(#SVGID_1_)" cx="41" cy="41" r="41"/>
	<path fill-rule="evenodd" clip-rule="evenodd" fill="#FFFFFF" d="M54.4,16H30.1c-1,0-1.8,0.8-1.8,1.8v46.5c0,1,0.8,1.8,1.8,1.8
		h24.3c1,0,1.8-0.8,1.8-1.8V17.8C56.2,16.8,55.4,16,54.4,16z M44.3,63.7c0,0.2-0.1,0.3-0.3,0.3h-3.6c-0.1,0-0.3-0.1-0.3-0.3v-3.2
		c0-0.2,0.1-0.3,0.3-0.3h3.6c0.1,0,0.3,0.1,0.3,0.3V63.7z M53.3,58.3H31.2V19.6h22.1V58.3z M40.3,46.6l10.9-10.9
		c0.4-0.4,0.4-1.1,0-1.5c-0.4-0.4-1.1-0.4-1.5,0l-9.5,9.5l-4.4-4.4c-0.4-0.4-1.1-0.4-1.5,0c-0.4,0.4-0.4,1.1,0,1.5L40.3,46.6z"/>
</g>
</svg>
