<?xml version="1.0" encoding="utf-8"?>
<!-- Generator: Adobe Illustrator 18.1.1, SVG Export Plug-In . SVG Version: 6.00 Build 0)  -->
<svg version="1.1" id="圖層_1" xmlns="http://www.w3.org/2000/svg" xmlns:xlink="http://www.w3.org/1999/xlink" x="0px" y="0px"
	 viewBox="0 0 82 82" enable-background="new 0 0 82 82" xml:space="preserve">
<g>
	<radialGradient id="SVGID_1_" cx="41" cy="41" r="41" gradientUnits="userSpaceOnUse">
		<stop  offset="0" style="stop-color:#32C3FF"/>
		<stop  offset="0.2446" style="stop-color:#32C0FD"/>
		<stop  offset="0.4201" style="stop-color:#32B7F6"/>
		<stop  offset="0.574" style="stop-color:#32A7EA"/>
		<stop  offset="0.7155" style="stop-color:#3391DA"/>
		<stop  offset="0.8485" style="stop-color:#3374C5"/>
		<stop  offset="0.9734" style="stop-color:#3451AB"/>
		<stop  offset="1" style="stop-color:#3449A5"/>
	</radialGradient>
	<circle fill="url(#SVGID_1_)" cx="41" cy="41" r="41"/>
	<path fill-rule="evenodd" clip-rule="evenodd" fill="#FFFFFF" d="M53.1,15.7H28.8c-1,0-1.8,0.8-1.8,1.8v46.5c0,1,0.8,1.8,1.8,1.8
		h24.3c1,0,1.8-0.8,1.8-1.8V17.5C54.9,16.5,54.1,15.7,53.1,15.7z M43,63.4c0,0.2-0.1,0.3-0.3,0.3h-3.6c-0.1,0-0.3-0.1-0.3-0.3v-3.2
		c0-0.2,0.1-0.3,0.3-0.3h3.6c0.1,0,0.3,0.1,0.3,0.3V63.4z M52,58H29.9V19.3H52V58z M33.5,46.3c0-4.9,1.9-3.7,5.5-5.8v-0.8
		c-0.6-0.5-0.8-1.3-1-2.2h0c-0.1,0-0.2-0.1-0.2-0.3c0,0,0,0,0-0.1c-0.1-0.1-0.1-0.2-0.2-0.4c-0.1-0.3-0.3-0.8-0.1-1
		c0.2-0.2,0.3,0,0.3,0c-0.3-1.4-0.6-3.2,1.3-3.8c0-1.2,4.5-0.7,5.1,1.3c0.2,0.8-0.1,2.5-0.1,2.5c0.1-0.1,0.1-0.1,0.3-0.1
		c0.2,0.2,0,0.9-0.1,1.1c-0.1,0.2-0.1,0.4-0.2,0.5v0c0,0.2-0.1,0.3-0.2,0.3c-0.2,0.8-0.4,1.6-1,2v1c3.7,2.1,5.5,1,5.5,5.8H33.5z"/>
</g>
</svg>
