<?xml version="1.0" encoding="utf-8"?>
<!-- Generator: Adobe Illustrator 18.1.1, SVG Export Plug-In . SVG Version: 6.00 Build 0)  -->
<svg version="1.1" id="圖層_1" xmlns="http://www.w3.org/2000/svg" xmlns:xlink="http://www.w3.org/1999/xlink" x="0px" y="0px"
	 viewBox="0 0 128.1 37.5" enable-background="new 0 0 128.1 37.5" xml:space="preserve">
<g>
	<path fill-rule="evenodd" clip-rule="evenodd" fill="#B3B3B3" d="M0,2.8c0-1.1,1.2-2,2.6-2h122.9c1.4,0,2.6,0.9,2.6,2v32.7
		c0,1.1-1.2,2-2.6,2H2.6c-1.4,0-2.6-0.9-2.6-2V2.8z"/>
	<path fill-rule="evenodd" clip-rule="evenodd" fill="#CCCCCC" d="M125.5,0H2.6C1.2,0,0,0.9,0,2v0.8c0-1.1,1.2-2,2.6-2h122.9
		c1.4,0,2.6,0.9,2.6,2V2C128.2,0.9,127,0,125.5,0z"/>
	<path fill-rule="evenodd" clip-rule="evenodd" fill="#808080" d="M2.6,37.5h122.9c1.4,0,2.6-0.9,2.6-2v-1.7c0,1.1-1.2,2-2.6,2H2.6
		c-1.4,0-2.6-0.9-2.6-2v1.7C0,36.6,1.2,37.5,2.6,37.5z"/>
	<path opacity="0.2" fill="#FFFFFF" d="M0,29.6l18.9,6.2H1c0,0-0.9,0-1-0.2V29.6z"/>
	<polyline opacity="0.2" fill="#FFFFFF" points="0,22.5 7.9,35.8 0.1,35.8 	"/>
	<path opacity="0.2" fill="#FFFFFF" d="M128.2,7l-19-6.2h18c0,0,0.9,0,1,0.2V7z"/>
	<polyline opacity="0.2" fill="#FFFFFF" points="128.2,14.1 120.1,0.8 128,0.8 	"/>
	
		<radialGradient id="SVGID_1_" cx="1535.5612" cy="-414.3822" r="4.6264" gradientTransform="matrix(25.1073 0 0 7.7477 -38562.4375 3230.1538)" gradientUnits="userSpaceOnUse">
		<stop  offset="0" style="stop-color:#FFFFFF"/>
		<stop  offset="1" style="stop-color:#FFFFFF;stop-opacity:0"/>
	</radialGradient>
	<rect x="0" y="0" opacity="0.4" fill="url(#SVGID_1_)" width="128.2" height="35.6"/>
</g>
</svg>
