<?xml version="1.0" encoding="utf-8"?>
<!-- Generator: Adobe Illustrator 18.1.1, SVG Export Plug-In . SVG Version: 6.00 Build 0)  -->
<svg version="1.1" id="圖層_1" xmlns="http://www.w3.org/2000/svg" xmlns:xlink="http://www.w3.org/1999/xlink" x="0px" y="0px"
	 viewBox="0 0 250.3 71.7" enable-background="new 0 0 250.3 71.7" xml:space="preserve">
<g>
	<g>
		<linearGradient id="SVGID_1_" gradientUnits="userSpaceOnUse" x1="125.16" y1="2.7555" x2="125.16" y2="72">
			<stop  offset="0" style="stop-color:#95C8EF"/>
			<stop  offset="0.1636" style="stop-color:#8FC2EA"/>
			<stop  offset="0.3912" style="stop-color:#80B0DB"/>
			<stop  offset="0.6563" style="stop-color:#6692C3"/>
			<stop  offset="0.9476" style="stop-color:#4269A3"/>
			<stop  offset="1" style="stop-color:#3B619C"/>
		</linearGradient>
		<path fill="url(#SVGID_1_)" d="M21.9,71.7C9.8,71.7,0,61.9,0,49.8V21.9C0,9.8,9.8,0,21.9,0h206.5c12.1,0,21.9,9.8,21.9,21.9v27.9
			c0,12.1-9.8,21.9-21.9,21.9H21.9z"/>
	</g>
	<g>
		<path fill="#26518E" d="M21.9,67.7C12,67.7,4,59.7,4,49.8V21.9C4,12,12,4,21.9,4h206.5c9.9,0,17.9,8,17.9,17.9v27.9
			c0,9.9-8,17.9-17.9,17.9H21.9z"/>
	</g>
	<g>
		<path fill="#1D649E" d="M244.3,49.8c0,8.8-7.1,15.9-15.9,15.9H21.9C13.1,65.7,6,58.6,6,49.8V21.9C6,13.1,13.1,6,21.9,6h206.5
			c8.8,0,15.9,7.1,15.9,15.9V49.8z"/>
	</g>
	<g opacity="0.4">
		<linearGradient id="SVGID_2_" gradientUnits="userSpaceOnUse" x1="125.16" y1="50.9201" x2="125.16" y2="5.9744">
			<stop  offset="0" style="stop-color:#C8DAEF"/>
			<stop  offset="0.1413" style="stop-color:#C2D6EC"/>
			<stop  offset="0.3379" style="stop-color:#B0CAE4"/>
			<stop  offset="0.5669" style="stop-color:#92B6D6"/>
			<stop  offset="0.8183" style="stop-color:#699AC3"/>
			<stop  offset="1" style="stop-color:#4783B3"/>
		</linearGradient>
		<path fill="url(#SVGID_2_)" d="M244.3,30.7v-8.8c0-8.8-7.1-15.9-15.9-15.9H21.9C13.1,6,6,13.1,6,21.9v27.9c0,0.4,0,0.8,0.1,1.1
			C45.5,33.4,199.9,22.1,244.3,30.7z"/>
	</g>
</g>
</svg>
