<?xml version="1.0" encoding="utf-8"?>
<!-- Generator: Adobe Illustrator 18.1.1, SVG Export Plug-In . SVG Version: 6.00 Build 0)  -->
<svg version="1.1" id="圖層_1" xmlns="http://www.w3.org/2000/svg" xmlns:xlink="http://www.w3.org/1999/xlink" x="0px" y="0px"
	 viewBox="0 0 82 82" enable-background="new 0 0 82 82" xml:space="preserve">
<g>
	<circle fill="#FFFFFF" stroke="#0091EA" stroke-width="2" stroke-miterlimit="10" cx="41" cy="41" r="40"/>
	<path fill-rule="evenodd" clip-rule="evenodd" fill="#4D4D4D" d="M54.1,16.6H30.3c-1,0-1.8,0.8-1.8,1.8v45.4c0,1,0.8,1.8,1.8,1.8
		h23.7c1,0,1.8-0.8,1.8-1.8V18.4C55.9,17.4,55,16.6,54.1,16.6z M44.2,63.1c0,0.2-0.1,0.2-0.2,0.2h-3.6c-0.1,0-0.2-0.1-0.2-0.2V60
		c0-0.2,0.1-0.2,0.2-0.2H44c0.1,0,0.2,0.1,0.2,0.2V63.1z M53,57.9H31.4V20.1H53V57.9z M40.3,46.5L51,35.8c0.4-0.4,0.4-1.1,0-1.5
		c-0.4-0.4-1.1-0.4-1.5,0l-9.2,9.2l-4.3-4.3c-0.4-0.4-1.1-0.4-1.5,0c-0.4,0.4-0.4,1.1,0,1.5L40.3,46.5z"/>
</g>
</svg>
