<?xml version="1.0" encoding="utf-8"?>
<!-- Generator: Adobe Illustrator 18.1.1, SVG Export Plug-In . SVG Version: 6.00 Build 0)  -->
<svg version="1.1" id="圖層_1" xmlns="http://www.w3.org/2000/svg" xmlns:xlink="http://www.w3.org/1999/xlink" x="0px" y="0px"
	 viewBox="0 0 148.6 43.5" enable-background="new 0 0 148.6 43.5" xml:space="preserve">
<g>
	<g>
		<path fill-rule="evenodd" clip-rule="evenodd" fill="#17657D" d="M0,3.2c0-1.3,1.4-2.3,3-2.3h142.5c1.7,0,3,1,3,2.3v37.9
			c0,1.3-1.4,2.3-3,2.3H3c-1.7,0-3-1-3-2.3V3.2z"/>
		<path fill-rule="evenodd" clip-rule="evenodd" fill="#1281B2" d="M145.5,0H3C1.4,0,0,1,0,2.3v0.9c0-1.3,1.4-2.3,3-2.3h142.5
			c1.7,0,3,1,3,2.3V2.3C148.6,1,147.2,0,145.5,0z"/>
		<path opacity="0.3" fill-rule="evenodd" clip-rule="evenodd" fill="#1E2023" d="M3,43.5h142.5c1.7,0,3-1,3-2.3v-2
			c0,1.3-1.4,2.3-3,2.3H3c-1.7,0-3-1-3-2.3v2C0,42.4,1.4,43.5,3,43.5z"/>
		<path opacity="0.2" fill="#FFFFFF" d="M0,34.4l21.9,7.1H1.1c0,0-1.1,0-1.1-0.2V34.4z"/>
		<polyline opacity="0.2" fill="#FFFFFF" points="0,26.1 9.2,41.5 0.1,41.5 		"/>
		<path opacity="0.2" fill="#FFFFFF" d="M148.6,8.1l-22.1-7.2h20.9c0,0,1.1,0,1.2,0.2V8.1z"/>
		<polyline opacity="0.2" fill="#FFFFFF" points="148.6,16.4 139.3,0.9 148.4,0.9 		"/>
	</g>
</g>
</svg>
