<?xml version="1.0" encoding="utf-8"?>
<!-- Generator: Adobe Illustrator 18.1.1, SVG Export Plug-In . SVG Version: 6.00 Build 0)  -->
<svg version="1.1" id="圖層_1" xmlns="http://www.w3.org/2000/svg" xmlns:xlink="http://www.w3.org/1999/xlink" x="0px" y="0px"
	 viewBox="0 0 82 82" enable-background="new 0 0 82 82" xml:space="preserve">
<g>
	<radialGradient id="SVGID_1_" cx="41" cy="41.1292" r="41" gradientUnits="userSpaceOnUse">
		<stop  offset="0" style="stop-color:#32C3FF"/>
		<stop  offset="0.2446" style="stop-color:#32C0FD"/>
		<stop  offset="0.4201" style="stop-color:#32B7F6"/>
		<stop  offset="0.574" style="stop-color:#32A7EA"/>
		<stop  offset="0.7155" style="stop-color:#3391DA"/>
		<stop  offset="0.8485" style="stop-color:#3374C5"/>
		<stop  offset="0.9734" style="stop-color:#3451AB"/>
		<stop  offset="1" style="stop-color:#3449A5"/>
	</radialGradient>
	<circle fill="url(#SVGID_1_)" cx="41" cy="41.1" r="41"/>
	<path fill="#FFFFFF" d="M40.7,21.6c4,0,6.9,4.8,6.9,10.7h4.8c0-8.5-5.3-15.4-11.8-15.4c-6.5,0-11.8,6.8-11.8,15.4h5
		C34,26.4,36.7,21.6,40.7,21.6z"/>
	<path fill="#FFFFFF" d="M56.9,38c0-2.7-2.5-4.9-5.5-4.9H30.6c-3,0-5.5,2.2-5.5,4.9v15.6c0,2.7,2.5,4.9,5.5,4.9h20.8
		c3,0,5.5-2.2,5.5-4.9V38z M43.3,47.6v5.3c0,1.1-1.2,2-2.4,2s-2.4-0.9-2.4-2v-5.3c-1.4-0.7-2.7-2.2-2.7-3.9c0-2.4,2.2-4.4,4.9-4.4
		c2.7,0,5.1,2,5.1,4.4C45.8,45.4,44.5,46.9,43.3,47.6z"/>
</g>
</svg>
