<?xml version="1.0" encoding="utf-8"?>
<!-- Generator: Adobe Illustrator 18.1.1, SVG Export Plug-In . SVG Version: 6.00 Build 0)  -->
<svg version="1.1" id="圖層_1" xmlns="http://www.w3.org/2000/svg" xmlns:xlink="http://www.w3.org/1999/xlink" x="0px" y="0px"
	 viewBox="0 0 82 82" enable-background="new 0 0 82 82" xml:space="preserve">
<g>
	<circle fill="#FFFFFF" stroke="#0091EA" stroke-width="2" stroke-miterlimit="10" cx="41" cy="41" r="40"/>
	<path fill="#4D4D4D" d="M40.7,21.9c3.9,0,6.7,4.7,6.8,10.4h4.7c0-8.3-5.1-15-11.5-15c-6.3,0-11.5,6.7-11.5,15h4.9
		C34.1,26.6,36.8,21.9,40.7,21.9z"/>
	<path fill="#4D4D4D" d="M56.5,38c0-2.6-2.4-4.8-5.4-4.8H30.9c-3,0-5.4,2.1-5.4,4.8v15.2c0,2.6,2.4,4.8,5.4,4.8h20.3
		c3,0,5.4-2.1,5.4-4.8V38z M43.2,47.4v5.1c0,1-1.2,1.9-2.3,1.9c-1.2,0-2.3-0.9-2.3-1.9v-5.1c-1.4-0.7-2.6-2.1-2.6-3.8
		c0-2.4,2.2-4.3,4.8-4.3c2.7,0,5,1.9,5,4.3C45.7,45.2,44.4,46.7,43.2,47.4z"/>
</g>
</svg>
