<?xml version="1.0" encoding="utf-8"?>
<!-- Generator: Adobe Illustrator 18.1.1, SVG Export Plug-In . SVG Version: 6.00 Build 0)  -->
<svg version="1.1" id="圖層_1" xmlns="http://www.w3.org/2000/svg" xmlns:xlink="http://www.w3.org/1999/xlink" x="0px" y="0px"
	 viewBox="0 0 250.3 71.7" enable-background="new 0 0 250.3 71.7" xml:space="preserve">
<g>
	<g>
		<linearGradient id="SVGID_1_" gradientUnits="userSpaceOnUse" x1="125.16" y1="2.7555" x2="125.16" y2="72">
			<stop  offset="0" style="stop-color:#D9D9D9"/>
			<stop  offset="0.2127" style="stop-color:#D2D2D2"/>
			<stop  offset="0.5085" style="stop-color:#C0C0C0"/>
			<stop  offset="0.8516" style="stop-color:#A3A3A3"/>
			<stop  offset="1" style="stop-color:#949494"/>
		</linearGradient>
		<path fill="url(#SVGID_1_)" d="M21.9,71.7C9.8,71.7,0,61.9,0,49.8V21.9C0,9.8,9.8,0,21.9,0h206.5c12.1,0,21.9,9.8,21.9,21.9v27.9
			c0,12.1-9.8,21.9-21.9,21.9H21.9z"/>
	</g>
	<g>
		<path fill="#999999" d="M21.9,67.7C12,67.7,4,59.7,4,49.8V21.9C4,12,12,4,21.9,4h206.5c9.9,0,17.9,8,17.9,17.9v27.9
			c0,9.9-8,17.9-17.9,17.9H21.9z"/>
	</g>
	<g>
		<path fill="#CCCCCC" d="M244.3,49.8c0,8.8-7.1,15.9-15.9,15.9H21.9C13.1,65.7,6,58.6,6,49.8V21.9C6,13.1,13.1,6,21.9,6h206.5
			c8.8,0,15.9,7.1,15.9,15.9V49.8z"/>
	</g>
	<g opacity="0.6">
		<linearGradient id="SVGID_2_" gradientUnits="userSpaceOnUse" x1="125.16" y1="50.9201" x2="125.16" y2="5.9744">
			<stop  offset="0" style="stop-color:#FCFCFC"/>
			<stop  offset="0.162" style="stop-color:#F6F6F6"/>
			<stop  offset="0.3874" style="stop-color:#E4E4E4"/>
			<stop  offset="0.65" style="stop-color:#C6C6C6"/>
			<stop  offset="0.9385" style="stop-color:#9E9E9E"/>
			<stop  offset="1" style="stop-color:#949494"/>
		</linearGradient>
		<path fill="url(#SVGID_2_)" d="M244.3,30.7v-8.8c0-8.8-7.1-15.9-15.9-15.9H21.9C13.1,6,6,13.1,6,21.9v27.9c0,0.4,0,0.8,0.1,1.1
			C45.5,33.4,199.9,22.1,244.3,30.7z"/>
	</g>
</g>
</svg>
