<?xml version="1.0" encoding="utf-8"?>
<!-- Generator: Adobe Illustrator 18.1.1, SVG Export Plug-In . SVG Version: 6.00 Build 0)  -->
<svg version="1.1" id="圖層_1" xmlns="http://www.w3.org/2000/svg" xmlns:xlink="http://www.w3.org/1999/xlink" x="0px" y="0px"
	 viewBox="0 0 153.2 150" enable-background="new 0 0 153.2 150" xml:space="preserve">
<g>
	<g>
		<path fill="#0091EA" d="M89.4,107.3l-0.3-68.2l42-0.1l0.3,68.2L89.4,107.3z M96.6,46.7l0.2,53.1l26.9-0.1l-0.2-53.1L96.6,46.7z"/>
	</g>
	<g>
		<path fill="#0091EA" d="M123.8,97.6l-0.2-49l19.3,4.1c5.4,1.2,8.7,4.3,8.7,8.2l0.1,25.1c0,3.3-2.7,6-7.1,7L123.8,97.6z
			 M131.2,57.9l0.1,30.3l11.7-2.6c0.5-0.1,1-0.3,1.2-0.4L144,60.9c0,0.4-0.8-0.4-2.8-0.8L131.2,57.9z"/>
	</g>
	<g>
		<path fill="#0091EA" d="M100.1,142.6L100.1,142.6c-2.6,0-5-1.1-6.7-3.1c-1.5-1.9-2.2-4.4-1.7-6.7l5.8-33.3l30.5-0.1l-6.3,36
			c-0.8,4.2-4.5,7.3-8.9,7.3L100.1,142.6z M103.8,107l-4.7,27.2l0.9,0.9h12.8c0.7,0,1.4-0.5,1.5-1.2l4.6-27L103.8,107z"/>
	</g>
	<g>
		<path fill="#0091EA" d="M12.7,139.4c-6.5,0-10.6-2.5-10.6-6.4L1.8,14.2c0-1.3,0.5-2.6,1.5-3.6c2.5-2.5,7.2-2.8,9.2-2.9h8.3
			c6.6,0,10.7,2.5,10.7,6.4l0.4,118.8c0,3.9-4.1,6.4-10.7,6.5H12.7z M9.7,131.5c0.7,0.2,1.7,0.4,3.1,0.4v3.8l0.1-3.8h8.3
			c1.4,0,2.5-0.2,3.1-0.4L23.8,15.6c-0.6-0.2-1.7-0.4-3.1-0.4h-8.3c-1.4,0-2.4,0.2-3.1,0.4L9.7,131.5z"/>
	</g>
	<g>
		<path fill="#0091EA" d="M24.2,138.9L23.8,14.1l-0.6-5l5,1.2c0.7,0.1,1.3,0.3,1.9,0.5L93,38.5c2.2,1,3.7,3.1,3.7,5.6l0.2,58.3
			c0,2.4-1.4,4.6-3.6,5.7L24.2,138.9z M31.4,19.5l0.4,107.7l57.6-25.8L89.2,45L31.4,19.5z"/>
	</g>
</g>
</svg>
