<?xml version="1.0" encoding="utf-8"?>
<!-- Generator: Adobe Illustrator 18.1.1, SVG Export Plug-In . SVG Version: 6.00 Build 0)  -->
<svg version="1.1" id="圖層_1" xmlns="http://www.w3.org/2000/svg" xmlns:xlink="http://www.w3.org/1999/xlink" x="0px" y="0px"
	 viewBox="0 0 153.2 150" enable-background="new 0 0 153.2 150" xml:space="preserve">
<g>
	<g>
		<g>
			<path fill="#0091EA" d="M129.4,138.9H23.2c-12.1,0-21.8-9.8-21.8-21.8V19.3c0-4.3,3.6-7.9,7.9-7.9h134.2c4.3,0,7.9,3.6,7.9,7.9
				V117C151.3,129,141.5,138.9,129.4,138.9z M10.2,20.1v96.8c0,7.2,5.9,13,13,13h106.2c7.2,0,13-5.9,13-13V20.1H10.2z"/>
		</g>
		<g>
			<path fill="#0091EA" d="M77.4,45.4c2.8,0,5,2.3,5,5h10c0-6.5-4.2-12.1-10-14.2v-5.9H72.3v5.9c-5.9,2.1-10,7.6-10,14.2
				c0,1.6,0.8,3.1,2,4l17.6,13.3c-0.8,1.7-2.5,2.9-4.6,2.9c-2.8,0-5-2.3-5-5h-10c0,6.5,4.2,12.1,10,14.2v5.9h10v-5.9
				c5.9-2.1,10-7.6,10-14.2c0-1.6-0.8-3.1-2-4L72.8,48.3C73.7,46.6,75.4,45.4,77.4,45.4z"/>
		</g>
		<g>
			<g>
				<polygon fill="#0091EA" points="118.2,85.6 112.2,85.6 112.2,94.8 103,94.8 103,100.8 112.2,100.8 112.2,109.9 118.2,109.9 
					118.2,100.8 127.3,100.8 127.3,94.8 118.2,94.8 				"/>
			</g>
			<g>
				<path fill="#0091EA" d="M115.1,122.3c-1,0-2-0.1-3-0.2c-1.5-0.3-2.3-0.4-3.1-0.6c-2.5-0.7-4.4-1.4-6.1-2.5
					c-0.9-0.5-1.7-1.1-2.5-1.7c-1.8-1.4-3.3-2.9-4.6-4.5c-0.8-1-1.3-1.8-1.8-2.6c-1.1-2-2-3.8-2.5-5.9c-0.3-1.3-0.5-2.1-0.6-2.9
					c-0.3-1.6-0.3-2.6-0.3-3.7c0-13.5,11-24.6,24.6-24.6s24.6,11,24.6,24.6c0,1-0.1,2-0.2,3c-0.3,1.4-0.4,2.3-0.6,3.1
					c-0.7,2.5-1.4,4.4-2.5,6.1c-0.6,1-1.2,1.9-1.8,2.6c-1.4,1.9-3,3.3-4.6,4.6c-0.8,0.6-1.5,1.1-2.3,1.6l-0.6,0.3
					c-1.6,0.9-3.5,1.7-5.5,2.3c-1.3,0.3-2.1,0.5-2.9,0.6C117.2,122.2,116.1,122.3,115.1,122.3z M115.1,79.8
					c-9.9,0-17.9,8.1-17.9,17.9c0,0.8,0.1,1.4,0.2,2.1c0.2,1.1,0.3,1.7,0.4,2.3c0.5,1.8,1.1,3.2,1.8,4.5c0.4,0.8,0.8,1.4,1.3,2
					c1,1.4,2.1,2.5,3.3,3.4c0.7,0.5,1.4,0.9,2,1.4c1.3,0.8,2.6,1.4,4.2,1.7c0.9,0.3,1.5,0.3,2.1,0.4c2.5,0.3,3.4,0.3,4.8,0.1
					c1.1-0.2,1.7-0.3,2.3-0.4c1.7-0.5,3.1-1,4.2-1.7l0.3-0.2c0.7-0.3,1.3-0.8,1.9-1.3c1.3-1,2.4-2.1,3.3-3.3c0.5-0.7,0.9-1.4,1.3-2
					c0.8-1.4,1.4-2.8,1.8-4.2c0.3-0.9,0.3-1.5,0.4-2.1c0.2-1.2,0.3-2,0.3-2.6C133.1,87.9,125,79.8,115.1,79.8z"/>
			</g>
		</g>
		<g>
			<rect x="9" y="93.6" fill="#0091EA" width="84.9" height="8.8"/>
		</g>
	</g>
	<rect x="136.4" y="93.6" fill="#0091EA" width="10.5" height="8.8"/>
</g>
</svg>
