<?xml version="1.0" encoding="utf-8"?>
<!-- Generator: Adobe Illustrator 18.1.1, SVG Export Plug-In . SVG Version: 6.00 Build 0)  -->
<svg version="1.1" id="圖層_1" xmlns="http://www.w3.org/2000/svg" xmlns:xlink="http://www.w3.org/1999/xlink" x="0px" y="0px"
	 viewBox="0 0 153.2 150" enable-background="new 0 0 153.2 150" xml:space="preserve">
<g>
	<g>
		<path fill="#0091EA" d="M143.5,13.1h-28.1V6.7c0-1.2-1-2.2-2.3-2.2s-2.3,1-2.3,2.2v6.4h-10V6.7c0-1.2-1-2.2-2.3-2.2
			c-1.2,0-2.3,1-2.3,2.2v6.4h-10V6.7c0-1.2-1-2.2-2.3-2.2s-2.3,1-2.3,2.2v6.4h-9.9V6.7c0-1.2-1-2.2-2.3-2.2S67,5.4,67,6.7v6.4H57
			V6.7c0-1.2-1-2.2-2.3-2.2s-2.3,1-2.3,2.2v6.4h-10V6.7c0-1.2-1-2.2-2.3-2.2s-2.3,1-2.3,2.2v6.4H9.7c-3.9,0-7.2,3.1-7.2,7v118.4
			c0,3.8,3.2,7,7.2,7h133.8c3.9,0,7.2-3.1,7.2-7V20C150.6,16.2,147.4,13.1,143.5,13.1L143.5,13.1z M146.1,138.5
			c0,1.4-1.1,2.5-2.6,2.5H9.7c-1.4,0-2.6-1.1-2.6-2.5V20c0-1.4,1.1-2.5,2.6-2.5h28.1v5.7c0,1.2,1,2.2,2.3,2.2c1.2,0,2.3-1,2.3-2.2
			v-5.7h10v5.7c0,1.2,1,2.2,2.3,2.2c1.2,0,2.3-1,2.3-2.2v-5.7h10v5.7c0,1.2,1,2.2,2.3,2.2s2.3-1,2.3-2.2v-5.7h10v5.7
			c0,1.2,1,2.2,2.3,2.2c1.2,0,2.3-1,2.3-2.2v-5.7h10v5.7c0,1.2,1,2.2,2.3,2.2s2.3-1,2.3-2.2v-5.7h10v5.7c0,1.2,1,2.2,2.3,2.2
			c1.2,0,2.3-1,2.3-2.2v-5.7h28.1c1.4,0,2.6,1.1,2.6,2.5L146.1,138.5L146.1,138.5z"/>
		<path fill="#0091EA" d="M143.5,146.5H9.7c-4.5,0-8.1-3.6-8.1-8V20c0-4.5,3.6-8,8.1-8h27.2V6.7c0-1.8,1.4-3.3,3.2-3.3
			c1.8,0,3.2,1.5,3.2,3.3v5.2h8.1V6.7c0-1.8,1.4-3.3,3.2-3.3c1.8,0,3.2,1.5,3.2,3.3v5.2h8.1V6.7c0-1.8,1.4-3.3,3.2-3.3
			s3.2,1.5,3.2,3.3v5.2h8.1V6.7c0-1.8,1.4-3.3,3.2-3.3c1.8,0,3.2,1.5,3.2,3.3v5.2h8.1V6.7c0-1.8,1.4-3.3,3.2-3.3s3.2,1.5,3.2,3.3
			v5.2h8.1V6.7c0-1.8,1.4-3.3,3.2-3.3c1.8,0,3.2,1.5,3.2,3.3v5.2h27.2c4.5,0,8.1,3.6,8.1,8v118.4C151.6,142.9,148,146.5,143.5,146.5
			z M9.7,14.1c-3.4,0-6.2,2.7-6.2,5.9v118.4c0,3.2,2.8,5.9,6.2,5.9h133.8c3.4,0,6.2-2.7,6.2-5.9V20c0-3.2-2.8-5.9-6.2-5.9h-29.1V6.7
			c0-0.6-0.6-1.1-1.3-1.1c-0.7,0-1.3,0.5-1.3,1.1v7.4H99.8V6.7c0-0.6-0.6-1.1-1.3-1.1c-0.7,0-1.3,0.5-1.3,1.1v7.4H85.2V6.7
			c0-0.6-0.6-1.1-1.3-1.1c-0.8,0-1.3,0.5-1.3,1.1v7.4H70.6V6.7c0-0.6-0.6-1.1-1.3-1.1c-0.8,0-1.3,0.5-1.3,1.1v7.4H56.1V6.7
			c0-0.6-0.6-1.1-1.3-1.1c-0.7,0-1.3,0.5-1.3,1.1v7.4H41.5V6.7c0-0.6-0.6-1.1-1.3-1.1c-0.7,0-1.3,0.5-1.3,1.1v7.4H9.7z M143.5,142.1
			H9.7c-1.9,0-3.5-1.6-3.5-3.6V20c0-2,1.6-3.6,3.5-3.6h29.1v6.8c0,0.6,0.6,1.1,1.3,1.1c0.7,0,1.3-0.5,1.3-1.1v-6.8h11.9v6.8
			c0,0.6,0.6,1.1,1.3,1.1c0.7,0,1.3-0.5,1.3-1.1v-6.8H68v6.8c0,0.6,0.6,1.1,1.3,1.1s1.3-0.5,1.3-1.1v-6.8h11.9v6.8
			c0,0.6,0.6,1.1,1.3,1.1c0.8,0,1.3-0.5,1.3-1.1v-6.8h11.9v6.8c0,0.6,0.6,1.1,1.3,1.1c0.7,0,1.3-0.5,1.3-1.1v-6.8h11.9v6.8
			c0,0.6,0.6,1.1,1.3,1.1c0.7,0,1.3-0.5,1.3-1.1v-6.8h29.1c2,0,3.5,1.6,3.5,3.6v118.4C147,140.5,145.5,142.1,143.5,142.1z M9.7,18.6
			c-0.9,0-1.6,0.7-1.6,1.4v118.4c0,0.8,0.8,1.4,1.6,1.4h133.8c0.9,0,1.6-0.7,1.6-1.4V20c0-0.8-0.8-1.4-1.6-1.4h-27.2v4.6
			c0,1.8-1.4,3.3-3.2,3.3s-3.2-1.5-3.2-3.3v-4.6h-8.1v4.6c0,1.8-1.4,3.3-3.2,3.3c-1.8,0-3.2-1.5-3.2-3.3v-4.6h-8.1v4.6
			c0,1.8-1.4,3.3-3.2,3.3s-3.2-1.5-3.2-3.3v-4.6h-8.1v4.6c0,1.8-1.4,3.3-3.2,3.3c-1.8,0-3.2-1.5-3.2-3.3v-4.6h-8.1v4.6
			c0,1.8-1.4,3.3-3.2,3.3c-1.8,0-3.2-1.5-3.2-3.3v-4.6h-8.1v4.6c0,1.8-1.4,3.3-3.2,3.3c-1.8,0-3.2-1.5-3.2-3.3v-4.6
			C36.8,18.6,9.7,18.6,9.7,18.6z"/>
	</g>
	<g>
		<path fill="#0091EA" d="M51.6,40h71c1.2,0,2.3-1,2.3-2.2c0-1.2-1-2.2-2.3-2.2h-71c-1.2,0-2.3,1-2.3,2.2C49.3,39,50.3,40,51.6,40
			L51.6,40z"/>
		<path fill="#0091EA" d="M132.4,45H51.6c-1.2,0-2.3,1-2.3,2.2c0,1.2,1,2.2,2.3,2.2h80.7c1.2,0,2.3-1,2.3-2.2
			C134.6,46,133.6,45,132.4,45L132.4,45z"/>
		<path fill="#0091EA" d="M38.3,33.9L27.8,44.2l-5.7-5.5c-0.9-0.9-2.3-0.9-3.2,0c-0.9,0.9-0.9,2.3,0,3.1l7.3,7.1
			c0.5,0.5,1,0.7,1.6,0.7s1.1-0.2,1.6-0.7L41.5,37c0.9-0.9,0.9-2.3,0-3.1C40.7,33,39.3,33,38.3,33.9L38.3,33.9z"/>
	</g>
	<g>
		<path fill="#0091EA" d="M51.6,66.1h71c1.2,0,2.3-1,2.3-2.2c0-1.2-1-2.2-2.3-2.2h-71c-1.2,0-2.3,1-2.3,2.2
			C49.3,65.1,50.3,66.1,51.6,66.1L51.6,66.1z"/>
		<path fill="#0091EA" d="M132.4,71.2H51.6c-1.2,0-2.3,1-2.3,2.2c0,1.2,1,2.2,2.3,2.2h80.7c1.2,0,2.3-1,2.3-2.2
			C134.6,72.1,133.6,71.2,132.4,71.2L132.4,71.2z"/>
		<path fill="#0091EA" d="M38.3,59.9L27.8,70.2l-5.7-5.5c-0.9-0.9-2.3-0.9-3.2,0c-0.9,0.9-0.9,2.3,0,3.1l7.3,7.1
			c0.5,0.5,1,0.7,1.6,0.7s1.1-0.2,1.6-0.7l12.1-11.8c0.9-0.9,0.9-2.3,0-3.1C40.7,59.1,39.3,59.1,38.3,59.9L38.3,59.9z"/>
	</g>
	<g>
		<path fill="#0091EA" d="M51.6,92.2h71c1.2,0,2.3-1,2.3-2.2s-1-2.2-2.3-2.2h-71c-1.2,0-2.3,1-2.3,2.2S50.3,92.2,51.6,92.2
			L51.6,92.2z"/>
		<path fill="#0091EA" d="M132.4,97.2H51.6c-1.2,0-2.3,1-2.3,2.2c0,1.2,1,2.2,2.3,2.2h80.7c1.2,0,2.3-1,2.3-2.2
			C134.6,98.3,133.6,97.2,132.4,97.2L132.4,97.2z"/>
		<path fill="#0091EA" d="M38.3,86.1L27.8,96.4l-5.7-5.5c-0.9-0.9-2.3-0.9-3.2,0c-0.9,0.9-0.9,2.3,0,3.1l7.3,7.1
			c0.5,0.5,1,0.7,1.6,0.7s1.1-0.2,1.6-0.7l12.1-11.8c0.9-0.9,0.9-2.3,0-3.1C40.7,85.2,39.3,85.2,38.3,86.1L38.3,86.1z"/>
	</g>
	<g>
		<path fill="#0091EA" d="M51.6,118.3h71c1.2,0,2.3-1,2.3-2.2c0-1.2-1-2.2-2.3-2.2h-71c-1.2,0-2.3,1-2.3,2.2
			C49.3,117.4,50.3,118.3,51.6,118.3L51.6,118.3z"/>
		<path fill="#0091EA" d="M132.4,123.4H51.6c-1.2,0-2.3,1-2.3,2.2s1,2.2,2.3,2.2h80.7c1.2,0,2.3-1,2.3-2.2S133.6,123.4,132.4,123.4
			L132.4,123.4z"/>
		<path fill="#0091EA" d="M38.3,112.1l-10.5,10.3l-5.7-5.5c-0.9-0.9-2.3-0.9-3.2,0c-0.9,0.9-0.9,2.3,0,3.1l7.3,7.1
			c0.5,0.5,1,0.7,1.6,0.7s1.1-0.2,1.6-0.7l12.1-11.8c0.9-0.9,0.9-2.3,0-3.1C40.7,111.3,39.3,111.3,38.3,112.1L38.3,112.1z"/>
	</g>
</g>
</svg>
