<?xml version="1.0" encoding="utf-8"?>
<!-- Generator: Adobe Illustrator 18.1.1, SVG Export Plug-In . SVG Version: 6.00 Build 0)  -->
<svg version="1.1" id="圖層_1" xmlns="http://www.w3.org/2000/svg" xmlns:xlink="http://www.w3.org/1999/xlink" x="0px" y="0px"
	 viewBox="0 0 153.2 150" enable-background="new 0 0 153.2 150" xml:space="preserve">
<path fill="#0091EA" d="M140,37.6l0-0.2l-1.3,0l0,10.6c-3-2.7-6.4-4.8-9.7-6.6c-8.4-4.5-17.6-7.2-26.9-8.9l0-5
	c4.6-4.2,8.6,1.9,11.7-4.1c-7.1,0.1-5.5-4.6-11.6-4.2v-0.3l-1.3,0l0,13.4c-2.3-0.4-4.5-0.7-6.8-1c-12.7-1.5-25.6-1.4-38.2,0.5
	c-1.2,0.2-2.3,0.4-3.5,0.6l0-13.4l-1.3,0l0,0.3c-6.1-0.4-4.5,4.3-11.6,4.2c3,6.1,7.1-0.1,11.7,4.1l0,5.1c-10.5,1.9-21,5.1-30.2,10.8
	c-2.1,1.3-4.3,2.9-6.4,4.8l0-10.8l-1.3,0l0,0.3c-6.1-0.4-4.5,4.3-11.6,4.2c3,6.1,7.1-0.1,11.7,4.1l0,3.4c-4.5,4.3-7.9,9.9-7.6,16.4
	c0.1,2.5,0.8,4.8,1.6,6.9c-0.8,4.3-3.4,20.9,3.7,32.7c0.2,0.4,0.3,0.8,0.6,1.2c0.8,1.2,1.7,2.5,2.8,3.7c0.3,0.4,0.7,0.8,1,1.1
	l0.3,0.3c2,2,4.3,3.9,7,5.7c1.6,1.1,3.4,2.1,5.3,3.1c1.9,1,3.8,1.9,5.9,2.8c4.1,1.7,8.5,3.2,13.2,4.3c2.3,0.6,4.7,1.1,7.1,1.5
	c0.1,0,0.2,0,0.4,0.1l0.7,2.5l1.5-0.5l1.5-0.5L52.9,112c16-4.3,31.5-4.3,47.5,0l-5.2,18.5l1.5,0.5l1.5,0.5l0.7-2.5
	c0.1,0,0.2,0,0.4-0.1c2.4-0.4,4.8-0.9,7.1-1.5c4.7-1.2,9.1-2.6,13.2-4.3c2-0.9,4-1.8,5.9-2.8c1.9-1,3.6-2,5.3-3.1
	c2.7-1.8,5-3.7,7-5.7l0.3-0.3c0.4-0.4,0.7-0.7,1-1.1c2.2-2.5,3.7-5,4.6-7.3c0.1-0.2,0.1-0.4,0.2-0.6c4.9-11,3.1-24.7,2.2-29.3
	c1-2.3,1.7-4.7,1.8-7.4c0-6.7-3.3-12.2-7.7-16.5l0-3.2c4.6-4.2,8.6,1.9,11.7-4.1C144.6,41.8,146.1,37.2,140,37.6z M102.7,39.1
	c6,1.2,11.9,2.9,17.6,5.3c5.1,2.1,11.3,5.2,15.7,9.6l-24.1,16c-4.8-3.9-12.4-7-21.6-8.5L102.7,39.1z M84.6,36.8
	c4.8,0.3,9.6,0.8,14.3,1.6L86.4,61c-3.1-0.4-6.4-0.6-9.8-0.6c-3.4,0-6.7,0.2-9.8,0.6L54.3,38.4C64.3,36.7,74.5,36.2,84.6,36.8z
	 M21.7,50.4c8.6-6.1,18.8-9.3,28.8-11.3L63,61.5c-9.2,1.5-16.8,4.6-21.6,8.5L17.3,54C18.7,52.7,20.2,51.5,21.7,50.4z M13.3,59.4
	c0.4-0.9,1-1.7,1.5-2.5l23.9,15.9c-1.7,2.1-2.6,4.4-2.6,6.8c0,3.7,2.3,7.2,6.2,10.2c-4.5-1.3-8.9-2.9-13.1-5c-5-2.4-10-5.5-13.7-9.9
	c-1.8-2.2-4.3-6.2-3.8-9.4C12,63.9,12.4,61.3,13.3,59.4z M32.3,103.9c-2.9-1-5.5-2.2-8-3.5c-1.6-0.8-3.2-1.7-4.6-2.7
	c-0.3-0.2-0.6-0.4-0.9-0.6V86.3c1.2,0.9,2.5,1.7,3.8,2.4c3.1,1.8,6.3,3.3,9.6,4.6V103.9z M15.4,83.5v10.8C14,93,12.9,91.7,12,90.4
	c-2-3-3.3-6.5-3.5-10.5c0.1-1.5,0.3-2.8,0.4-4C10.6,78.9,12.8,81.4,15.4,83.5z M14.1,96.5c0.1,0.1,0.1,0.2,0.2,0.3
	c0.3,0.4,0.7,0.8,1,1.1v9.6c-4.6-5.3-6.5-12.4-7-19C9.8,91.5,11.8,94.2,14.1,96.5z M32.3,117.3c-2.9-1-5.5-2.2-8-3.5
	c-1.6-0.8-3.2-1.7-4.6-2.7c-0.3-0.2-0.6-0.4-0.9-0.6v-9.4c1.1,0.9,2.4,1.8,3.7,2.7c1.6,1.1,3.4,2.1,5.3,3.1c1.4,0.8,2.9,1.5,4.5,2.2
	V117.3z M48.1,121.6c-4.3-0.8-8.4-1.9-12.2-3.1v-7.9c3.5,1.3,7.2,2.5,11,3.5c1.2,0.3,2.3,0.6,3.5,0.8l2.1,7.5
	C51.1,122.1,49.6,121.8,48.1,121.6z M52.1,108.9c-1.3-0.2-2.7-0.5-4-0.7c-4.3-0.8-8.4-1.9-12.2-3.1V94.6c7.3,2.5,14.8,4,22.3,5
	c12.4,1.6,25,1.6,37.4,0c7.3-1,14.7-2.5,21.8-4.9v10.4c-3.8,1.2-7.9,2.2-12.2,3.1c-1.3,0.2-2.6,0.5-4,0.7
	C84.7,104.4,68.6,104.4,52.1,108.9z M120.9,103.9V93.3c3-1.2,6-2.5,8.8-4.1c1.5-0.8,3.1-1.8,4.6-2.8v10.7c-0.3,0.2-0.6,0.4-0.9,0.6
	c-1.4,0.9-2.9,1.8-4.6,2.7C126.5,101.7,123.8,102.8,120.9,103.9z M117.3,118.5c-3.8,1.2-7.9,2.2-12.2,3.1c-1.5,0.3-3,0.5-4.5,0.8
	l2.1-7.5c1.2-0.3,2.4-0.5,3.5-0.8c3.9-1,7.5-2.1,11-3.5V118.5z M128.9,113.8c-2.4,1.3-5.1,2.4-8,3.5v-8.2c1.5-0.7,3-1.4,4.5-2.2
	c1.9-1,3.6-2,5.3-3.1c1.3-0.9,2.5-1.8,3.7-2.7v9.4c-0.3,0.2-0.6,0.4-0.9,0.6C132,112,130.5,113,128.9,113.8z M137.9,107.3v-9.4
	c0.4-0.4,0.7-0.7,1-1.1c0.3-0.3,0.5-0.7,0.8-1c2-2.1,3.7-4.5,5-7.2C144.2,95,142.4,102,137.9,107.3z M144.3,76.4
	c0.1,1.1,0.3,2.3,0.4,3.6c-0.3,4.7-2,8.8-4.7,12.2c-0.6,0.7-1.3,1.4-2,2.1V83.7C140.4,81.6,142.6,79.1,144.3,76.4z M141.4,65.4
	c-0.1,5.8-4.9,11.3-9.7,14.7c-6.2,4.4-13.3,7.4-20.6,9.4c3.9-2.9,6.1-6.4,6.1-10.1c0-2.4-0.9-4.7-2.6-6.8l23.8-15.8
	C140.1,59.4,141.2,62.2,141.4,65.4z"/>
</svg>
