<?xml version="1.0" encoding="utf-8"?>
<!-- Generator: Adobe Illustrator 18.1.1, SVG Export Plug-In . SVG Version: 6.00 Build 0)  -->
<svg version="1.1" id="圖層_1" xmlns="http://www.w3.org/2000/svg" xmlns:xlink="http://www.w3.org/1999/xlink" x="0px" y="0px"
	 viewBox="0 0 150 150" enable-background="new 0 0 150 150" xml:space="preserve">
<g>
	<g>
		<g>
			<path fill="#CCCCCC" d="M37.9,44.4l6.3-7.4l30.7,31.2l30.5-30.7l6.8,7L81.8,75.2l30.1,30.4l-6.2,7.5L75,82l-30.7,31.2l-6.4-7.3
				l30.4-30.8L37.9,44.4z"/>
		</g>
	</g>
	<g>
		<path fill="#CCCCCC" d="M75,150.1c-41.4,0-75-33.6-75-75s33.6-75,75-75s75,33.6,75,75S116.4,150.1,75,150.1z M75,8.5
			C38.3,8.5,8.5,38.4,8.5,75.1s29.9,66.5,66.5,66.5s66.5-29.9,66.5-66.5S111.7,8.5,75,8.5z"/>
	</g>
</g>
</svg>
