<?xml version="1.0" encoding="UTF-8" standalone="no"?>
<!-- Generator: Adobe Illustrator 18.1.1, SVG Export Plug-In . SVG Version: 6.00 Build 0)  -->
<svg id="圖層_1" xmlns="http://www.w3.org/2000/svg" xml:space="preserve" viewBox="0 0 273.4 44" version="1.1" y="0px" x="0px" xmlns:xlink="http://www.w3.org/1999/xlink" enable-background="new 0 0 273.4 44">
		<linearGradient id="SVGID_1_" y2="188" gradientUnits="userSpaceOnUse" x2="6202.7" gradientTransform="matrix(-1 0 0 -1 6339.5 188)" y1="144" x1="6202.7">
		<stop stop-color="#131D32" offset="0"/>
		<stop stop-color="#243750" offset=".5001"/>
		<stop stop-color="#324D69" offset="1"/>
	</linearGradient>
	<path d="m0.2 44h0.2 267c3.2 0 5.9-2.6 5.9-5.9v-32.2c0-3.2-2.6-5.9-5.9-5.9h-267-0.2v44z" fill="url(#SVGID_1_)"/>
		<linearGradient id="SVGID_2_" y2="209.48" gradientUnits="userSpaceOnUse" x2="6327" gradientTransform="matrix(-1 0 0 -1 6339.5 188)" y1="121.76" x1="6081.1">
		<stop stop-color="#00366A" offset="0"/>
		<stop stop-color="#045289" offset=".1101"/>
		<stop stop-color="#086BA3" offset=".2324"/>
		<stop stop-color="#0B7DB8" offset=".3672"/>
		<stop stop-color="#0D8BC6" offset=".5189"/>
		<stop stop-color="#0F93CE" offset=".7018"/>
		<stop stop-color="#0F95D1" offset="1"/>
	</linearGradient>
	<path opacity=".59" d="m0.2 2h0.2 267c2.1 0 3.9 1.7 3.9 3.9v32.2c0 2.1-1.7 3.9-3.9 3.9h-267-0.2v2h0.2 267c3.2 0 5.9-2.6 5.9-5.9v-32.2c0-3.2-2.6-5.9-5.9-5.9h-267-0.2v2z" fill="url(#SVGID_2_)"/>
</svg>
