<?xml version="1.0" encoding="utf-8"?>
<!-- Generator: Adobe Illustrator 21.0.0, SVG Export Plug-In . SVG Version: 6.00 Build 0)  -->
<svg version="1.1" id="圖層_1" xmlns="http://www.w3.org/2000/svg" xmlns:xlink="http://www.w3.org/1999/xlink" x="0px" y="0px"
	 viewBox="0 0 50 50" style="enable-background:new 0 0 50 50;" xml:space="preserve">
<style type="text/css">
	.st0{display:none;}
	.st1{display:inline;fill:none;stroke:#000000;stroke-width:0.25;stroke-miterlimit:10;}
	.st2{fill:#FFFFFF;}
</style>
<g id="圖層_2" class="st0">
	<rect y="0" class="st1" width="50" height="50"/>
</g>
<g id="圖層_1_1_">
	<path class="st2" d="M42.9,13.5c0-0.7-0.5-1.2-1.2-1.2H19.9c-1.4,0-1.9-0.9-2.3-2.1c0,0,0,0-0.2-0.2c-0.5-0.9-1.2-1.4-1.9-1.4h-5.3
		c-0.7,0-1.4,0.7-1.9,1.4l-0.2,0.5c-0.5,0.9-1.2,1.9-2.3,1.9H4.1c-0.7,0-1.2,0.5-1.2,1.2v21.1c0,0.2,0,0.5,0,0.7
		c0,0.7,0.5,0.7,0.7,0.7s0.5,0,0.7-0.7l3.3-18.1c0.2-0.7,0.9-1.4,1.6-1.4h33.2c0.2,0,0.5,0,0.5-0.2c0.2-0.2,0.2-0.7,0.2-0.9v-1.2
		H42.9z M41.8,14.7h-33c-1.4,0-2.6,0.9-2.8,2.3L3.9,29.3V13.5h1.6c2.1,0,2.8-1.6,3.5-2.6l0.2-0.2c0.5-0.7,0.7-0.9,0.9-0.9h5.3
		c0.2,0,0.5,0.2,0.7,0.7c0,0.2,0,0.2,0.2,0.5c0.5,0.9,1.4,2.6,3.5,2.6h21.8C41.8,13.5,41.8,14.7,41.8,14.7z M49.4,15.4
		c-0.5-0.5-0.9-0.7-1.6-0.7h-2.3v-1.2c0-2.1-1.6-3.7-3.7-3.7H20.2c0-0.2-0.2-0.5-0.2-0.7l-0.2-0.2c-1.2-2.3-3-2.8-4.2-2.8H9.7
		C8.1,6.1,6.9,7,6,8.9c0,0-0.2,0.2-0.2,0.5c-0.2,0.5-0.2,0.5-0.5,0.7H3.7c-2.1,0-3.7,1.6-3.7,3.7v26.5c0,1.9,1.2,3.3,3,3.7
		c0.2,0,0.5,0,0.7,0h39c1.4,0,2.6-1.2,2.8-2.3l4.4-24.2C50.1,16.6,49.9,15.9,49.4,15.4z M44.6,41.4c0,0.7-0.9,1.4-1.6,1.4h-39H3.7
		H3.4c-1.2-0.2-2.1-1.4-2.1-2.6V13.5c0-1.4,1.2-2.6,2.6-2.6h1.6c0.5,0,0.9-0.5,1.2-1.2V9.6L6.4,9.1l0.7,0.2C8.1,7.7,8.8,7,9.9,7h5.8
		c1.2,0,2.3,0.7,3,2.1c0,0.2,0,0.2,0.2,0.5c0.5,0.7,0.7,1.2,1.2,1.2H42c1.4,0,2.6,1.2,2.6,2.6v1.2c0,0.2,0,0.5,0.2,0.9
		c0.2,0.2,0.5,0.2,0.7,0.2H48c0.2,0,0.7,0.2,0.7,0.2c0.2,0.2,0.2,0.5,0.2,0.9L44.6,41.4z M25.7,20.1c-5.1,0-9.3,4.2-9.3,9.3
		s4.2,9.3,9.3,9.3s9.3-4.2,9.3-9.3C35,24.2,30.9,20.1,25.7,20.1z M32.9,26.3c0.5,0.9,0.7,1.9,0.7,2.8L32.5,28L32.9,26.3z M25,21.4
		L25,21.4c0.2,0,0.2,0,0.5,0l0,0c0.2,0,0.2,0,0.5,0l0,0c0.2,0,0.2,0,0.5,0l0,0c0.2,0,0.2,0,0.5,0l0,0l0,0L26,21.9L25,21.4L25,21.4z
		 M18.5,26.3l0.7,1.6l-1.2,1.2C18.1,28.2,18.3,27,18.5,26.3z M20.9,35.4h1.9l0.9,1.6C22.5,36.6,21.6,36.1,20.9,35.4z M29.2,36.3
		l0.7-1.2h0.9C30.4,35.9,29.9,36.1,29.2,36.3z M32,34l-2.6-0.2c-0.2,0-0.5,0.2-0.7,0.5L27.4,37c-0.7,0.2-1.4,0.2-2.1,0.2l-1.6-3
		c-0.2-0.2-0.5-0.5-0.7-0.5l-3.3,0.5c-0.7-0.9-1.2-2.1-1.4-3.3l2.3-2.3c0.2-0.2,0.2-0.5,0.2-0.7l-1.2-3.3c0.9-1.2,2.1-2.1,3.5-2.6
		l2.3,1.4c0,0,0.2,0,0.5,0c0.2,0,0.2,0,0.5,0l2.3-1.4c1.4,0.5,2.6,1.4,3.5,2.6L31.1,28c0,0.2,0,0.5,0.2,0.7l2.3,2.3
		C33.4,32.1,32.7,33.1,32,34z M26.2,25.4c-0.2-0.2-0.7-0.2-0.9,0L22,28.2c-0.2,0.2-0.2,0.5-0.2,0.7l1.6,3.5c0,0.2,0.5,0.5,0.7,0.5
		h3.3c0.2,0,0.5-0.2,0.7-0.5l1.6-3.5c0.2-0.2,0-0.7-0.2-0.7L26.2,25.4z M27.1,31.7h-2.3l-1.2-2.8l2.6-2.1l2.6,2.1L27.1,31.7z"/>
</g>
</svg>
