<?xml version="1.0" encoding="utf-8"?>
<!-- Generator: Adobe Illustrator 21.0.0, SVG Export Plug-In . SVG Version: 6.00 Build 0)  -->
<svg version="1.1" id="圖層_1" xmlns="http://www.w3.org/2000/svg" xmlns:xlink="http://www.w3.org/1999/xlink" x="0px" y="0px"
	 viewBox="0 0 50 50" style="enable-background:new 0 0 50 50;" xml:space="preserve">
<style type="text/css">
	.st0{display:none;}
	.st1{display:inline;fill:none;stroke:#FF0000;stroke-width:0.25;stroke-miterlimit:10;}
	.st2{fill:#FFFFFF;}
</style>
<g id="圖層_1_1_" class="st0">
	<rect y="0" class="st1" width="50" height="50"/>
</g>
<g id="圖層_2">
	<path class="st2" d="M29.3,35.4H16.7c-0.4,0-0.7,0.2-0.7,0.7c0,0.4,0.2,0.7,0.7,0.7h12.6c0.4,0,0.7-0.2,0.7-0.7
		C29.9,35.8,29.7,35.4,29.3,35.4z M16.7,38.1c-0.4,0-0.7,0.2-0.7,0.7c0,0.4,0.2,0.7,0.7,0.7h12.6c0.4,0,0.7-0.2,0.7-0.7
		c0-0.4-0.2-0.7-0.7-0.7H16.7z M22.8,14.6c-5.3,0-9.7,4.4-9.7,9.7s4.4,9.7,9.7,9.7s9.7-4.4,9.7-9.7C32.8,18.8,28.4,14.6,22.8,14.6z
		 M30.6,21c0.4,0.9,0.7,2,0.7,3.1l-1.3-1.3L30.6,21z M22.2,15.9L22.2,15.9c0.2,0,0.2,0,0.4,0l0,0c0.2,0,0.2,0,0.4,0l0,0
		c0.2,0,0.2,0,0.4,0l0,0c0.2,0,0.2,0,0.4,0l0,0l0,0l-1.1,0.7L22.2,15.9C22,15.9,22.2,15.9,22.2,15.9z M15.3,21l0.7,1.8l-1.3,1.3
		C14.7,23,14.9,21.9,15.3,21z M17.8,30.8l1.8-0.2l0.9,1.5C19.3,31.9,18.4,31.4,17.8,30.8z M26.6,31.6l0.7-1.1h1.1
		C27.7,31,27.3,31.4,26.6,31.6z M29.5,29.2L26.8,29c-0.2,0-0.4,0.2-0.7,0.4l-1.5,2.9c-0.9,0.2-1.5,0.2-2.2,0.2l-1.8-3.1
		C20.4,29.2,20.2,29,20,29l-3.5,0.4c-0.7-1.1-1.3-2.2-1.5-3.5l2.4-2.4c0.2-0.2,0.2-0.4,0.2-0.7l-1.3-3.5c0.9-1.3,2.2-2.2,3.8-2.9
		l2.4,1.5c0.2,0,0.2,0.2,0.4,0.2c0.2,0,0.2,0,0.4-0.2l2.4-1.5c1.5,0.7,2.9,1.5,3.8,2.9l-1.1,3.3c0,0.2,0,0.7,0.2,0.7l2.4,2.4
		C30.8,27.2,30.4,28.3,29.5,29.2z M23.5,19.9c-0.2-0.2-0.7-0.2-0.9,0L19.1,23c-0.2,0.2-0.2,0.7-0.2,0.9l1.8,3.8
		c0.2,0.2,0.4,0.4,0.7,0.4h3.5c0.2,0,0.4-0.2,0.7-0.4l1.8-3.8c0.2-0.2,0-0.7-0.2-0.9L23.5,19.9z M24.2,26.5h-2.7l-1.3-2.9l2.7-2.2
		l2.7,2.2L24.2,26.5z M44.5,36.9V17.3c0-0.4-0.2-0.7-0.7-0.7c-0.4,0-0.7,0.2-0.7,0.7v19.2c-3.3-0.2-6.9,1.1-7.7,6H3.2
		c-0.2,0-0.4-0.2-0.4-0.4v-29h6.2c0.4,0,0.7-0.2,0.7-0.7c0-0.4-0.2-0.7-0.7-0.7H2.7V6.4C2.7,6.2,2.9,6,3.2,6h5.3v1.1
		c0,1.1,0.9,2,2,2s2-0.9,2-2V6H33v1.1c0,1.1,0.9,2,2,2c1.1,0,2-0.9,2-2V6h5.3c0.2,0,0.4,0.2,0.4,0.4v5.3H11.6
		c-0.4,0-0.7,0.2-0.7,0.7s0.2,0.7,0.7,0.7H43v1.8c0,0.4,0.2,0.7,0.7,0.7s0.7-0.2,0.7-0.7V6.2c0-1.1-0.9-2-2-2H37V2c0-1.1-0.9-2-2-2
		c-1.1,0-2,0.9-2,2v2.2H12.5V2c0-1.1-0.9-2-2-2s-2,0.9-2,2v2.2H3.2c-1.1,0-2,0.9-2,2V42c0,1.1,0.9,2,2,2h32.3c0.4,3.3,3.1,6,6.6,6
		c3.8,0,6.6-3.1,6.6-6.6C48.7,40.5,47,38.1,44.5,36.9z M34.8,2.2c0-0.2,0.2-0.4,0.4-0.4c0.2,0,0.4,0.2,0.4,0.4v4.6
		c0,0.2-0.2,0.4-0.4,0.4c-0.2,0-0.4-0.2-0.4-0.4V2.2z M10,2.2c0-0.2,0.2-0.4,0.4-0.4c0.2,0,0.4,0.2,0.4,0.4v4.6
		c0,0.2-0.2,0.4-0.4,0.4c-0.2,0-0.4-0.2-0.4-0.4V2.2z M42.1,48.5c-2.9,0-5.3-2.4-5.3-5.3s2.4-5.3,5.3-5.3c2.9,0,5.3,2.4,5.3,5.3
		C47.4,46,45,48.5,42.1,48.5z M43.9,41.6L41.7,44l-1.1-1.1c-0.2-0.2-0.7-0.2-1.1,0c-0.2,0.2-0.2,0.7,0,1.1l1.8,1.8
		c0.2,0.2,0.2,0.2,0.4,0.2l0,0c0.2,0,0.4,0,0.4-0.2l2.7-3.1c0.2-0.2,0.2-0.7,0-1.1C44.5,41.2,44.1,41.4,43.9,41.6z"/>
</g>
</svg>
