<?xml version="1.0" encoding="utf-8"?>
<!-- Generator: Adobe Illustrator 21.0.0, SVG Export Plug-In . SVG Version: 6.00 Build 0)  -->
<svg version="1.1" id="圖層_1" xmlns="http://www.w3.org/2000/svg" xmlns:xlink="http://www.w3.org/1999/xlink" x="0px" y="0px"
	 viewBox="0 0 153.1 150.1" style="enable-background:new 0 0 153.1 150.1;" xml:space="preserve">
<style type="text/css">
	.st0{fill:#0092EB;}
</style>
<g>
	<path class="st0" d="M34.2,116.9c-5.4,2.6-10.5,5.6-15.2,9.1C8,113.5,1,97.5,0,79.8h25.5C25.9,93,29,105.5,34.2,116.9z"/>
	<path class="st0" d="M25.5,71H-0.1c1-17.7,8-33.8,19-46.3c5,3.6,10.3,6.8,16,9.5C29.5,45.4,26.2,57.8,25.5,71z"/>
	<path class="st0" d="M58.9,150c-12.7-3-24.2-9.1-33.7-17.6c4.1-2.9,8.4-5.5,13-7.7C43.7,134.3,50.7,142.8,58.9,150z"/>
	<path class="st0" d="M39.1,26.4c-4.9-2.3-9.5-5-13.9-8.1C35.4,9.1,48.1,2.6,62.1,0C52.9,7.4,45.2,16.3,39.1,26.4z"/>
	<path class="st0" d="M72.1,3.5v31c-8.6-0.4-16.9-2.1-24.7-4.8C53.8,19.4,62.2,10.5,72.1,3.5z"/>
	<path class="st0" d="M43.1,37.6c9.1,3.3,18.9,5.3,29,5.8V71H34.4C35.1,59.1,38.1,47.8,43.1,37.6z"/>
	<path class="st0" d="M34.3,79.8h37.8v27.6c-10.4,0.5-20.5,2.6-29.8,6.1C37.6,103.1,34.7,91.7,34.3,79.8z"/>
	<path class="st0" d="M46.4,121.3c8.1-2.9,16.7-4.7,25.7-5.2v33C61.7,141.9,52.9,132.3,46.4,121.3z"/>
	<path class="st0" d="M105.7,29.7c-7.8,2.7-16.1,4.4-24.7,4.8v-31C90.8,10.5,99.3,19.4,105.7,29.7z"/>
	<path class="st0" d="M106.6,121.3c-6.5,11-15.2,20.5-25.7,27.9v-33C89.9,116.6,98.5,118.4,106.6,121.3z"/>
	<path class="st0" d="M90.9,0c14,2.6,26.7,9.1,36.9,18.3c-4.3,3.1-9,5.8-13.9,8.1C107.9,16.3,100.1,7.4,90.9,0z"/>
	<path class="st0" d="M114.8,124.8c4.6,2.2,8.9,4.7,13,7.7c-9.4,8.5-20.9,14.6-33.7,17.6C102.4,142.8,109.4,134.3,114.8,124.8z"/>
	<path class="st0" d="M118.7,71H81V43.4c10.2-0.5,19.9-2.5,29-5.8C114.9,47.8,118,59.1,118.7,71z"/>
	<path class="st0" d="M110.7,113.4c-9.3-3.5-19.4-5.6-29.8-6.1V79.7h37.9C118.3,91.7,115.5,103.1,110.7,113.4z"/>
	<path class="st0" d="M127.6,79.8h25.5c-1,17.7-8,33.8-19,46.2c-4.8-3.5-9.9-6.6-15.2-9.1C124,105.5,127.1,93,127.6,79.8z"/>
	<path class="st0" d="M118.1,34.2c5.6-2.7,11-5.9,16-9.5c11,12.5,18,28.6,19,46.3h-25.6C126.8,57.8,123.5,45.4,118.1,34.2z"/>
</g>
</svg>
