<?xml version="1.0" encoding="utf-8"?>
<!-- Generator: Adobe Illustrator 21.0.0, SVG Export Plug-In . SVG Version: 6.00 Build 0)  -->
<svg version="1.1" id="圖層_1" xmlns="http://www.w3.org/2000/svg" xmlns:xlink="http://www.w3.org/1999/xlink" x="0px" y="0px"
	 viewBox="0 0 102.6 149.9" style="enable-background:new 0 0 102.6 149.9;" xml:space="preserve">
<style type="text/css">
	.st0{fill:#0092EB;}
</style>
<g>
	<path class="st0" d="M86.4,54.2H16.2C7.2,54.2,0,61.5,0,70.4v63.3c0,9,7.3,16.2,16.2,16.2h70.2c9,0,16.2-7.3,16.2-16.2V70.4
		C102.7,61.5,95.4,54.2,86.4,54.2z M58.5,112.8v24H44.2v-24c-5.4-2.6-9.2-8.2-9.2-14.6c0-9,7.3-16.4,16.3-16.4s16.3,7.3,16.3,16.4
		C67.7,104.7,64,110.2,58.5,112.8z"/>
	<g>
		<path class="st0" d="M82.5,47.5L82.5,47.5c-5,0-9.1-4.1-9.1-9.1v-4c0-8.9-7.2-16.1-16.1-16.1H45.4c-8.9,0-16.1,7.2-16.1,16.1v4
			c0,5-4.1,9.1-9.1,9.1l0,0c-5,0-9.1-4.1-9.1-9.1v-4C11.1,15.4,26.5,0,45.5,0h11.9c19,0,34.4,15.4,34.4,34.4v4
			C91.7,43.4,87.6,47.5,82.5,47.5z"/>
	</g>
</g>
</svg>
