<?xml version="1.0" encoding="utf-8"?>
<!-- Generator: Adobe Illustrator 18.1.1, SVG Export Plug-In . SVG Version: 6.00 Build 0)  -->
<svg version="1.1" id="圖層_1" xmlns="http://www.w3.org/2000/svg" xmlns:xlink="http://www.w3.org/1999/xlink" x="0px" y="0px"
	 viewBox="0 0 99.2 30.8" enable-background="new 0 0 99.2 30.8" xml:space="preserve">
<g>
	<g>
		<path fill-rule="evenodd" clip-rule="evenodd" fill="#0C5F8E" d="M0,2.3c0-0.9,1-1.6,2.2-1.6H97c1.2,0,2.2,0.7,2.2,1.6v26.9
			c0,0.9-1,1.7-2.2,1.7H2.2C1,30.8,0,30,0,29.1V2.3z"/>
		<path fill-rule="evenodd" clip-rule="evenodd" fill="#1281B2" d="M97,0H2.2C1,0,0,0.7,0,1.6v0.6c0-0.9,1-1.6,2.2-1.6H97
			c1.2,0,2.2,0.7,2.2,1.6V1.6C99.2,0.7,98.2,0,97,0z"/>
		<path opacity="0.3" fill-rule="evenodd" clip-rule="evenodd" fill="#1E2023" d="M2.2,30.8H97c1.2,0,2.2-0.7,2.2-1.7v-1.4
			c0,0.9-1,1.6-2.2,1.6H2.2C1,29.4,0,28.6,0,27.7v1.4C0,30,1,30.8,2.2,30.8z"/>
		<path opacity="0.1" fill="#FFFFFF" d="M0,24.3l15.5,5.1H0.8c0,0-0.8,0-0.8-0.2V24.3z"/>
		<polyline opacity="0.1" fill="#FFFFFF" points="0,18.5 6.5,29.4 0.1,29.4 		"/>
		<path opacity="0.1" fill="#FFFFFF" d="M99.2,5.7L83.5,0.6h14.8c0,0,0.8,0,0.8,0.2V5.7z"/>
		<polyline opacity="0.1" fill="#FFFFFF" points="99.2,11.6 92.6,0.6 99.1,0.6 		"/>
		
			<radialGradient id="SVGID_1_" cx="1522.1993" cy="-418.3193" r="3.582" gradientTransform="matrix(25.1073 0 0 7.7477 -38224.9336 3257.1448)" gradientUnits="userSpaceOnUse">
			<stop  offset="0" style="stop-color:#FFFFFF"/>
			<stop  offset="1" style="stop-color:#FFFFFF;stop-opacity:0"/>
		</radialGradient>
		<rect x="0" y="0" opacity="0.2" fill="url(#SVGID_1_)" width="98.3" height="29.3"/>
	</g>
	<path fill-rule="evenodd" clip-rule="evenodd" fill="#FFFFFF" d="M19.8,16.1v0.8c3.2,1.9,4.8,0.9,4.8,5.1h-6.5h-0.1h-6.6
		c0-4.3,1.6-3.2,4.8-5.1v-0.7c-0.6-0.4-0.7-1.1-0.9-1.9h0c-0.1,0-0.2-0.1-0.2-0.3c0,0,0,0,0-0.1c0-0.1-0.1-0.2-0.1-0.4
		c-0.1-0.2-0.3-0.7-0.1-0.9c0.2-0.1,0.3,0,0.3,0c-0.2-1.2-0.6-2.8,1.1-3.3c0-1.1,4-0.6,4.5,1.1c0.2,0.7-0.1,2.2-0.1,2.2
		c0-0.1,0.1-0.1,0.2-0.1c0.2,0.1,0,0.8-0.1,1c0,0.2-0.1,0.3-0.2,0.4v0c0,0.2-0.1,0.3-0.1,0.3C20.5,15,20.3,15.7,19.8,16.1L19.8,16.1
		z"/>
</g>
</svg>
