<?xml version="1.0" encoding="utf-8"?>
<!-- Generator: Adobe Illustrator 18.1.1, SVG Export Plug-In . SVG Version: 6.00 Build 0)  -->
<svg version="1.1" id="圖層_1" xmlns="http://www.w3.org/2000/svg" xmlns:xlink="http://www.w3.org/1999/xlink" x="0px" y="0px"
	 viewBox="0 0 63.8 30.8" enable-background="new 0 0 63.8 30.8" xml:space="preserve">
<g>
	<g>
		<path fill-rule="evenodd" clip-rule="evenodd" fill="#4F4F4F" d="M0,2.3c0-0.9,1-1.6,2.2-1.6h59.5c1.2,0,2.2,0.7,2.2,1.6v26.9
			c0,0.9-1,1.7-2.2,1.7H2.2C1,30.8,0,30,0,29.1V2.3z"/>
		<path fill-rule="evenodd" clip-rule="evenodd" fill="#666666" d="M61.6,0H2.2C1,0,0,0.7,0,1.6v0.6c0-0.9,1-1.6,2.2-1.6h59.5
			c1.2,0,2.2,0.7,2.2,1.6V1.6C63.8,0.7,62.8,0,61.6,0z"/>
		<path fill-rule="evenodd" clip-rule="evenodd" fill="#363636" d="M2.2,30.8h59.5c1.2,0,2.2-0.7,2.2-1.7v-1.4c0,0.9-1,1.6-2.2,1.6
			H2.2C1,29.4,0,28.6,0,27.7v1.4C0,30,1,30.8,2.2,30.8z"/>
		<path opacity="0.1" fill="#FFFFFF" d="M0,24.3l15.5,5.1H0.8c0,0-0.8,0-0.8-0.2V24.3z"/>
		<polyline opacity="0.1" fill="#FFFFFF" points="0,18.5 6.5,29.4 0.1,29.4 		"/>
		<path opacity="0.1" fill="#FFFFFF" d="M63.8,5.7L48.1,0.6h14.8c0,0,0.8,0,0.8,0.2V5.7z"/>
		<polyline opacity="0.1" fill="#FFFFFF" points="63.8,11.6 57.2,0.6 63.7,0.6 		"/>
		
			<radialGradient id="SVGID_1_" cx="1505.0096" cy="-418.3195" r="2.5385" gradientTransform="matrix(25.1073 0 0 7.7477 -37791.0039 3257.1448)" gradientUnits="userSpaceOnUse">
			<stop  offset="0" style="stop-color:#FFFFFF"/>
			<stop  offset="1" style="stop-color:#FFFFFF;stop-opacity:0"/>
		</radialGradient>
		<rect x="0" y="0" opacity="0.2" fill="url(#SVGID_1_)" width="63.8" height="29.3"/>
	</g>
	<g>
		<polygon fill="#FFFFFF" points="5.1,14.1 8,16.1 8,14.9 12.7,14.9 12.7,13.3 8,13.3 8,12.1 		"/>
		<path fill="#FFFFFF" d="M17.8,8.9c-2.3,0-4.6,0-6.9,0c0,1.1,0,2.1,0,3.2c-0.4,0-0.9,0-1.3,0c0-0.1,0-0.2,0-0.3c0-1.3,0-2.5,0-3.8
			c0-0.4,0.1-0.5,0.5-0.5c3.6,0,7.2,0,10.8,0c0.3,0,0.5,0.1,0.5,0.5c0,4.1,0,8.1,0,12.2c0,0.2-0.1,0.4-0.3,0.5
			c-1.6,0.8-3.2,1.6-4.8,2.4c0,0,0,0-0.1,0c0-0.8,0-1.6,0-2.5c-0.2,0-0.3,0-0.5,0c-1.8,0-3.6,0-5.5,0c-0.5,0-0.6-0.1-0.6-0.6
			c0-1.3,0-2.6,0-4c0.4,0,0.9,0,1.3,0c0,1,0,2.1,0,3.2c1.7,0,3.4,0,5.2,0c0-0.2,0-0.3,0-0.5c0-2.7,0-5.5,0-8.2
			c0-0.3,0.1-0.5,0.3-0.6C16.9,9.7,17.3,9.3,17.8,8.9C17.8,9,17.8,9,17.8,8.9z"/>
	</g>
</g>
</svg>
