<?xml version="1.0" encoding="utf-8"?>
<!-- Generator: Adobe Illustrator 18.1.1, SVG Export Plug-In . SVG Version: 6.00 Build 0)  -->
<svg version="1.1" id="圖層_1" xmlns="http://www.w3.org/2000/svg" xmlns:xlink="http://www.w3.org/1999/xlink" x="0px" y="0px"
	 viewBox="0 0 157.5 150" enable-background="new 0 0 157.5 150" xml:space="preserve">
<path fill="#0092EB" d="M132,29.5V38c0,6.6-5.4,12-12,12c-6.6,0-12-5.4-12-12v-9H49.4v9c0,6.6-5.4,12-12,12c-6.6,0-12-5.4-12-12
	v-8.5c-13,2.3-23.2,12.7-25.1,25.8h156.7C155.2,42.2,145,31.8,132,29.5z M37.4,45.2c4,0,7.2-3.3,7.2-7.2V13.4h68.2V38
	c0,3.9,3.3,7.2,7.2,7.2c4,0,7.2-3.3,7.2-7.2V7.1c0-3.9-3.2-7.2-7.2-7.2H37.4c-3.9,0-7.2,3.3-7.2,7.2V38
	C30.3,41.9,33.5,45.2,37.4,45.2z M0,65v54.1c0,1.6,0.1,3.1,0.4,4.6c2.2,14.8,15,26.2,30.5,26.2h95.8c15.5,0,28.3-11.4,30.5-26.2
	c0.3-1.5,0.4-3,0.4-4.6V65H0z M78.8,142.1c-19.1,0-34.7-15.5-34.7-34.7c0-19.1,15.5-34.6,34.7-34.6s34.7,15.5,34.7,34.6
	C113.4,126.6,97.9,142.1,78.8,142.1z M81.8,102.3c-5.9-2.5-6.9-3.7-6.9-5.5c0-0.8,0.4-3.5,4.8-3.5c3.9,0,6.3,1.4,7.3,2
	c0.6,0.3,1.3,0.4,1.9,0.2c0.6-0.2,1.1-0.7,1.3-1.3l1.7-4.4c0.4-1-0.1-2.2-1-2.8c-2.3-1.3-4.8-2.1-7.6-2.5V80c0-1.3-1-2.3-2.3-2.3
	h-4.1c-1.2,0-2.3,1-2.3,2.3V85c-6.2,1.7-10.1,6.5-10.1,12.6c0,7.8,6.3,11.3,12.5,13.7c5.1,2.1,6.1,3.8,6.1,5.8
	c0,2.5-2.3,4.3-5.7,4.3c-2.9,0-6-0.9-8.3-2.5c-0.6-0.4-1.3-0.5-2-0.3c-0.7,0.3-1.2,0.8-1.4,1.4l-1.6,4.5c-0.4,1-0.1,2,0.8,2.6
	c2.3,1.6,5.7,2.8,9.3,3.2v4.6c0,1.3,1,2.3,2.3,2.3h4.2c1.3,0,2.3-1,2.3-2.3v-5.1c6.4-1.8,10.6-6.9,10.6-13.2
	C93.6,108.1,87.2,104.5,81.8,102.3z"/>
</svg>
