<svg id="圖層_1" data-name="圖層 1" xmlns="http://www.w3.org/2000/svg" viewBox="0 0 85.04 40.77"><defs><style>.cls-1{fill:#4d4d4d;}.cls-2{fill:gray;}.cls-3{fill:#fff;}</style></defs><title>official_down03</title><path class="cls-1" d="M79.8,0,16,.29C14.56.29,13.4,2,12.52,3.2L0,20.39,11.94,38.73a5,5,0,0,0,3.79,2H80.67A4.48,4.48,0,0,0,85,36.4V5.82C85,3.49,82.42,0,79.8,0Z"/><path class="cls-2" d="M78.05,0H15.73a3.58,3.58,0,0,0-3.2,2L.87,19.22,12.52,36.4a4.44,4.44,0,0,0,3.49,2h62a4.48,4.48,0,0,0,4.37-4.37V4.37A4.48,4.48,0,0,0,78.05,0Z"/><path class="cls-3" d="M24.46,24.75a5.73,5.73,0,0,1-5.53-5.53,5.73,5.73,0,0,1,5.53-5.53A5.73,5.73,0,0,1,30,19.22C30.29,22.13,27.67,24.75,24.46,24.75Z"/><path class="cls-3" d="M47.18,24.75a5.73,5.73,0,0,1-5.53-5.53,5.53,5.53,0,1,1,11.07,0A5.73,5.73,0,0,1,47.18,24.75Z"/><path class="cls-3" d="M69.6,24.75a5.73,5.73,0,0,1-5.53-5.53,5.53,5.53,0,1,1,11.07,0C75.43,22.13,72.81,24.75,69.6,24.75Z"/></svg>