<?xml version="1.0" encoding="UTF-8" standalone="no"?>
<!-- Generator: Adobe Illustrator 21.0.0, SVG Export Plug-In . SVG Version: 6.00 Build 0)  -->
<svg id="圖層_1" style="enable-background:new 0 0 245.7 64.1" xmlns="http://www.w3.org/2000/svg" xml:space="preserve" viewBox="0 0 245.7 64.1" version="1.1" y="0px" x="0px" xmlns:xlink="http://www.w3.org/1999/xlink">
<style type="text/css">
	.st0{fill:#BF0202;}
	.st1{fill:#490101;}
	.st2{fill:#8C0000;}
	.st3{fill:#FFFFFF;}
	.st4{fill:#F5F5F5;}
	.st5{display:none;}
	.st6{display:inline;}
	.st7{opacity:0.4;}
	.st8{fill:#0597E8;}
	.st9{fill:#025F93;}
	.st10{fill:#0071BC;}
	.st11{fill:#C5C9C9;}
</style>
<g id="圖層_1_1_">
			<path class="st0" d="m217.6 58.3h-189.6c-15.4 0-28-12.5-28-28v-2.3c0-15.5 12.5-28 28-28h189.7c15.4 0 28 12.5 28 28v2.3c-0.1 15.5-12.6 28-28.1 28z"/>
				<path class="st1" d="m216.5 64.1h-187.4c-16.1 0-29.1-13-29.1-29.1s13-29.1 29.1-29.1h187.3c16.1 0 29.1 13 29.1 29.1 0.1 16.1-12.9 29.1-29 29.1z"/>
				<path class="st2" d="m216.5 60.7h-187.4c-16.1 0-29.1-13.1-29.1-29.2s13-29.1 29.1-29.1h187.3c16.1 0 29.1 13 29.1 29.1 0.1 16.1-12.9 29.2-29 29.2z"/>
			<path class="st3" d="m32.4 54.8c-13 0-23.6-10.6-23.6-23.6s10.6-23.6 23.6-23.6 23.6 10.5 23.6 23.6-10.6 23.6-23.6 23.6zm0-46.2c-12.5 0-22.6 10.1-22.6 22.6s10.1 22.6 22.6 22.6 22.6-10.2 22.6-22.6-10.2-22.6-22.6-22.6z"/>
			<polygon points="68.5 61.2 69.5 60.7 69.5 2.1 68.5 2.1" class="st4"/>
			<path class="st3" d="m18.9 27v9.3c0 2.9 2.4 5.3 5.3 5.3h16.4c2.9 0 5.3-2.4 5.3-5.3v-9.3h-27zm12.9 4.6h-2.3v7.1h-1.7v-7.1h-2.3v-1.6h6.4v1.6h-0.1zm7.5 6.4c-0.9 0.5-1.9 0.7-3 0.7-1.3 0-2.3-0.4-3.1-1.2s-1.2-1.8-1.2-3.1 0.4-2.4 1.3-3.3c0.8-0.8 2-1.3 3.3-1.3 0.9 0 1.7 0.1 2.3 0.4l0.1 0.1v1.8l-0.2-0.1c-0.6-0.4-1.4-0.6-2.2-0.6s-1.4 0.3-1.9 0.8c-0.5 0.5-0.8 1.2-0.8 2.1s0.2 1.6 0.7 2.1 1.1 0.7 1.9 0.7c0.5 0 0.9-0.1 1.2-0.2v-1.7h-1.7v-1.5h3.4v4.3h-0.1zm1.3-17.2h-16.4c-2.6 0-4.8 2-5.2 4.5h26.8c-0.4-2.5-2.6-4.5-5.2-4.5zm-4.9 3.5c-0.5 0-0.9-0.4-0.9-0.9s0.4-0.9 0.9-0.9 0.9 0.4 0.9 0.9c0 0.4-0.4 0.9-0.9 0.9zm3.1 0c-0.5 0-0.9-0.4-0.9-0.9s0.4-0.9 0.9-0.9 0.9 0.4 0.9 0.9c0 0.4-0.4 0.9-0.9 0.9zm3.1 0c-0.5 0-0.9-0.4-0.9-0.9s0.4-0.9 0.9-0.9 0.9 0.4 0.9 0.9c0 0.4-0.4 0.9-0.9 0.9z"/>
</g>
<g id="圖層_2" class="st5">
	<g class="st6">
		<g class="st7">
				<image width="1329" style="enable-background:new" xlink:href="F21252473EB9FF71.png" transform="matrix(.2391 0 0 .2379 -39.29 39.804)" height="563">
			</image>
		</g>
				<path class="st8" d="m213.6 130.3h-189.6c-15.4 0-28-12.5-28-28v-2.3c0-15.4 12.5-28 28-28h189.7c15.4 0 28 12.5 28 28v2.3c-0.1 15.4-12.6 28-28.1 28z"/>
				<path class="st9" d="m212.5 136.1h-187.4c-16.1 0-29.1-13.1-29.1-29.1 0-16.1 13-29.1 29.1-29.1h187.3c16.1 0 29.1 13 29.1 29.1 0.1 16-12.9 29.1-29 29.1z"/>
				<path class="st10" d="m212.5 132.6h-187.4c-16.1 0-29.1-13-29.1-29.1s13-29.1 29.1-29.1h187.3c16.1 0 29.1 13 29.1 29.1 0.1 16.1-12.9 29.1-29 29.1z"/>
				<path class="st3" d="m90.2 88.5c1.3 1.7 2.7 3.1 4.2 4.1 1.4 0.9 3.1 1.8 5 2.6l-1.2 1.6c-1.7-0.6-3.4-1.5-5-2.7-1.4-0.9-2.6-2-3.7-3.3-1.1 1.3-2.3 2.5-3.7 3.6-1.5 1.1-3.2 2-4.9 2.7l-1.2-1.5c2-0.8 3.7-1.7 5.1-2.7 1.5-1.1 2.8-2.5 4.1-4.2h1.3v-0.2zm0.3 6.7v13.2h-1.8v-13.2h1.8z"/>
				<path class="st3" d="m114.7 102.7c-1.6 2.4-4 4.2-7.1 5.5l-1.5-1.6c3.2-1.1 5.4-2.7 6.9-4.7 1.4-2.1 2.1-4.6 2.1-7.4v-6.3h1.8v6.3 0.9c0.7 3.2 1.7 5.7 3 7.3 1.4 1.7 3.5 3 6.1 3.8l-1.2 1.7c-2.7-1-4.8-2.5-6.4-4.4-0.9-1.1-1.7-2.6-2.3-4.3-0.3 1.2-0.8 2.2-1.4 3.2z"/>
				<path class="st3" d="m135.4 104.2v-8.3h-2.4v-1.8h4.2v10.7l1.9-0.9 0.3 1.8-3.4 1.6-1.1-1.4c0.3-0.4 0.5-1 0.5-1.7zm-0.3-16c1 0.7 2 1.7 3.2 3l-1.4 1.3c-1.2-1.3-2.2-2.3-3.1-3l1.3-1.3zm3.6 10.3v-1.8h3v-5.9h-2.4v-1.8h9.9v14.4c0 0.7 0.1 1.3 0.3 1.8 0.1 0.2 0.2 0.3 0.4 0.3s0.3-0.1 0.4-0.2c0.1-0.2 0.3-1.1 0.6-2.6l1.8 1.1c-0.2 1.7-0.7 2.9-1.3 3.6-0.4 0.5-0.9 0.8-1.4 0.8s-0.9-0.2-1.3-0.6c-0.8-1-1.2-3.2-1.2-6.6v-10.2h-3.9v5.9h2.6v1.8h-2.6v9.8h-1.8v-9.8h-3.1z"/>
				<path class="st3" d="m162.9 102.3c0 1-0.2 1.9-0.4 2.7-0.3 0.9-0.7 1.8-1.2 2.6l-1.7-1c0.5-0.7 0.9-1.4 1.1-2.1 0.2-0.8 0.3-1.6 0.4-2.4l1.8 0.2zm10.5-2.2h-10.9v-10.3h4.5c0.3-0.7 0.5-1.3 0.6-1.8l1.8 0.6-0.3 1.2h6.2v10.3h-1.9zm0-7.3v-1.4h-9.1v1.4h9.1zm0 2.9v-1.2h-9.1v1.2h9.1zm-9.1 1.6v1.1h9.1v-1.1h-9.1zm8.3 8.4c0.3-0.1 0.4-0.5 0.5-1.1 0-0.3 0.1-0.6 0.1-0.8l1.8 0.8c-0.1 0.4-0.2 0.8-0.2 1.3-0.1 0.6-0.4 1.1-0.7 1.4-0.4 0.2-0.8 0.4-1.3 0.4h-6.5c-1.2 0-1.8-0.6-1.8-1.8v-4.3h1.8v3.4c0 0.6 0.3 0.9 0.8 0.9h4.8c0.2 0 0.4-0.1 0.7-0.2zm-2.9-4.9c0.6 0.8 1.2 1.8 1.7 3.1l-1.6 0.8c-0.6-1.3-1.1-2.3-1.7-3.1l1.6-0.8zm6.7 0.7c0.9 1.4 1.7 3.2 2.5 5.4l-1.8 0.6c-0.8-2.2-1.6-3.9-2.4-5l1.7-1z"/>
				<path class="st11" d="m82.8 119.1l-0.6-0.8c1-0.4 1.9-0.9 2.6-1.4 0.7-0.6 1.4-1.3 2.1-2.2h0.6c0.7 0.9 1.4 1.6 2.1 2.1 0.8 0.5 1.6 1 2.6 1.4l-0.6 0.8c-0.5-0.2-1-0.5-1.5-0.7v0.7h-5.7v-0.7c-0.5 0.3-1 0.6-1.6 0.8zm3.1 1.9h-3v-0.9h8.6v0.9h-4.5c-0.6 0.8-1.3 1.6-1.9 2.3l4.2-0.4c-0.2-0.3-0.4-0.5-0.6-0.7l0.7-0.6c0.6 0.6 1.3 1.4 1.9 2.4l-0.8 0.6c-0.2-0.3-0.4-0.5-0.5-0.7l-6 0.5-0.3-1c0.8-0.8 1.5-1.6 2.2-2.4zm4-2.8c-0.3-0.2-0.6-0.4-0.8-0.6-0.7-0.5-1.3-1.1-1.9-1.7-0.6 0.7-1.2 1.3-1.9 1.8-0.2 0.2-0.5 0.3-0.7 0.5h5.3z"/>
				<path class="st11" d="m100 120.1h0.8v1.3c0 1-0.4 1.7-1.3 2.2-0.8 0.4-1.9 0.7-3.4 0.9l-0.3-1c1.5-0.1 2.6-0.3 3.2-0.6s0.9-0.8 0.9-1.5v-1.3h0.1zm-2.1-0.8v2.9h-0.9v-3.7h6.8v3.8h-0.9v-2.9l-5-0.1zm4.4-1.6h-4.6v-2.7h5.5v2.7h-0.9zm0-1.9h-3.7v1h3.7v-1zm-0.8 6.8c1 0.2 2.2 0.6 3.6 1.3l-0.4 0.9c-1.4-0.6-2.5-1-3.4-1.2l0.2-1z"/>
				<path class="st11" d="m113.9 114.7c0.6 0.8 1.3 1.5 2.1 2 0.7 0.5 1.6 0.9 2.5 1.3l-0.6 0.8c-0.9-0.3-1.7-0.8-2.5-1.4-0.7-0.5-1.3-1-1.8-1.7-0.5 0.7-1.2 1.3-1.8 1.8-0.8 0.6-1.6 1-2.5 1.3l-0.6-0.8c1-0.4 1.9-0.9 2.5-1.3 0.7-0.5 1.4-1.2 2.1-2.1l0.6 0.1zm0.2 3.4v6.6h-0.9v-6.6h0.9z"/>
				<path class="st11" d="m126.1 121.8c-0.8 1.2-2 2.1-3.5 2.7l-0.7-0.8c1.6-0.6 2.7-1.4 3.4-2.3 0.7-1.1 1.1-2.3 1.1-3.7v-3.1h0.9v3.1 0.4c0.3 1.6 0.8 2.8 1.5 3.7 0.7 0.8 1.7 1.5 3.1 1.9l-0.6 0.9c-1.4-0.5-2.4-1.3-3.2-2.2-0.5-0.6-0.8-1.3-1.1-2.2-0.3 0.6-0.5 1.2-0.9 1.6z"/>
				<path class="st11" d="m136.5 122.6v-4.2h-1.2v-0.9h2.1v5.4l0.9-0.5 0.1 0.9-1.7 0.8-0.5-0.7c0.2-0.2 0.3-0.5 0.3-0.8zm-0.2-8c0.5 0.4 1 0.9 1.6 1.5l-0.7 0.7c-0.6-0.7-1.1-1.2-1.5-1.5l0.6-0.7zm1.9 5.1v-0.9h1.5v-2.9h-1.2v-0.9h4.9v7.2c0 0.4 0 0.7 0.1 0.9 0 0.1 0.1 0.2 0.2 0.2s0.1 0 0.2-0.1 0.2-0.6 0.3-1.3l0.9 0.5c-0.1 0.8-0.3 1.4-0.6 1.8-0.2 0.3-0.4 0.4-0.7 0.4s-0.5-0.1-0.6-0.3c-0.4-0.5-0.6-1.6-0.6-3.3v-5.1h-1.9v2.9h1.3v0.9h-1.3v4.9h-0.9v-4.9h-1.6z"/>
				<path class="st11" d="m150.2 121.6c0 0.5-0.1 1-0.2 1.4-0.1 0.5-0.3 0.9-0.6 1.3l-0.8-0.5c0.3-0.3 0.5-0.7 0.6-1.1s0.2-0.8 0.2-1.2l0.8 0.1zm5.3-1.1h-5.4v-5.1h2.3c0.1-0.4 0.2-0.7 0.3-0.9l0.9 0.3c0 0.2-0.1 0.4-0.2 0.6h3.1v5.1h-1zm0-3.6v-0.7h-4.5v0.7h4.5zm0 1.4v-0.6h-4.5v0.6h4.5zm-4.5 0.8v0.5h4.6v-0.5h-4.6zm4.1 4.3c0.1-0.1 0.2-0.2 0.2-0.5v-0.4l0.9 0.4c0 0.2-0.1 0.4-0.1 0.6-0.1 0.3-0.2 0.5-0.4 0.7-0.2 0.1-0.4 0.2-0.7 0.2h-3.2c-0.6 0-0.9-0.3-0.9-0.9v-2.1h0.9v1.7c0 0.3 0.1 0.4 0.4 0.4h2.4c0.2-0.1 0.4-0.1 0.5-0.1zm-1.4-2.5c0.3 0.4 0.6 0.9 0.9 1.6l-0.8 0.4c-0.3-0.7-0.6-1.2-0.8-1.5l0.7-0.5zm3.3 0.3c0.4 0.7 0.9 1.6 1.3 2.7l-0.9 0.3c-0.4-1.1-0.8-1.9-1.2-2.5l0.8-0.5z"/>
				<path class="st11" d="m162.8 118.7h-1.2v-0.9h2.1v4.6c0 0.2 0.2 0.4 0.4 0.6s0.5 0.4 1 0.5c0.4 0.1 1 0.2 1.8 0.2 1.7 0 3.2-0.1 4.5-0.1l-0.2 1h-4.8c-0.9 0-1.5-0.2-2-0.4-0.4-0.2-0.8-0.4-1-0.7-0.1 0.2-0.3 0.4-0.7 0.7-0.3 0.2-0.7 0.4-1 0.5l-0.4-0.8c0.6-0.2 0.9-0.4 1.1-0.6s0.3-0.4 0.3-0.7l0.1-3.9zm-0.1-4.1c0.4 0.4 0.9 1 1.4 1.7l-0.8 0.6c-0.5-0.7-0.9-1.3-1.3-1.6l0.7-0.7zm2.9 6.7v1.8h-0.8v-5.8h1.8c-0.3-0.2-0.5-0.4-0.7-0.5l0.5-0.7 0.9 0.6c0.8-0.2 1.4-0.4 1.7-0.6 0.1-0.1 0.2-0.1 0.3-0.2h-4.5v-0.9h5.4l0.5 0.5c-0.4 0.6-0.8 1-1.2 1.2s-0.8 0.4-1.2 0.5h2.3v5c0 0.6-0.3 0.9-0.9 0.9h-0.6l-0.2-0.8h0.5c0.2 0 0.4-0.1 0.4-0.4v-0.6h-1.7v1.8h-0.8v-1.8h-1.7zm1.6-3.2h-1.6v0.7h1.6v-0.7zm0 1.6h-1.6v0.8h1.6v-0.8zm0.9-0.9h1.7v-0.7h-1.7v0.7zm0 1.6h1.7v-0.8h-1.7v0.8z"/>
				<path class="st11" d="m177.6 122.6c-0.5 0.9-1.2 1.5-2.1 2l-0.8-0.8c0.9-0.4 1.6-1 2.1-1.7 0.4-0.6 0.6-1.4 0.6-2.1h-2.4v-0.9h2.4v-2.2h-0.8c-0.2 0.5-0.5 1-0.8 1.5l-0.8-0.5c0.4-0.5 0.7-1 0.8-1.5 0.2-0.6 0.3-1.1 0.3-1.8l0.9 0.2c0 0.4-0.1 0.9-0.2 1.3h3v0.9h-1.6v2.2h1.8v0.9h-1.8c0 0.3-0.1 0.6-0.1 0.8 0.7 0.7 1.3 1.4 2 2.2l-0.7 0.6c-0.4-0.6-0.9-1.2-1.5-1.8-0.1 0.2-0.2 0.4-0.3 0.7zm3.8 1.6h-0.9v-8.2-0.3h0.3 2.8 0.3v0.3 8.2h-0.9v-0.9h-1.6v0.9zm1.7-1.8v-5.8h-1.6v0.1 5.7h1.6z"/>
			<path class="st3" d="m28.4 126.7c-13 0-23.6-10.6-23.6-23.6s10.6-23.6 23.6-23.6 23.6 10.6 23.6 23.6c0 13.1-10.6 23.6-23.6 23.6zm0-46.2c-12.5 0-22.6 10.1-22.6 22.6s10.1 22.6 22.6 22.6 22.6-10.1 22.6-22.6-10.2-22.6-22.6-22.6z"/>
			<polygon points="64.5 133.2 65.5 132.6 65.5 74.1 64.5 74.1" class="st4"/>
			<path class="st3" d="m28.2 92.2c-7.5 0-13.6 4.6-13.6 10.3 0 3.1 1.7 5.8 4.5 7.7-0.8 1.7-2.1 3.7-4.5 4.4 0 0 4.7 0 7.4-2.9 1.8 0.7 3.9 1.1 6.1 1.1 7.5 0 13.6-4.6 13.6-10.3 0.1-5.7-6-10.3-13.5-10.3zm-0.7 7.3h-2.7v8h-1.9v-8h-2.7v-1.7h7.3v1.7zm8.6 7.3c-1.1 0.6-2.2 0.9-3.4 0.9-1.4 0-2.6-0.4-3.5-1.3s-1.3-2.1-1.3-3.6 0.5-2.8 1.5-3.7 2.2-1.5 3.7-1.5c1 0 1.9 0.2 2.7 0.5l0.2 0.1v2.1l-0.4-0.2c-0.7-0.4-1.5-0.6-2.5-0.6-0.9 0-1.6 0.3-2.2 0.9s-0.9 1.4-0.9 2.4 0.3 1.8 0.8 2.4 1.2 0.8 2.1 0.8c0.5 0 1-0.1 1.4-0.3v-1.9h-2v-1.8h3.9v4.8h-0.1z"/>
	</g>
</g>
</svg>
