<?xml version="1.0" encoding="utf-8"?>
<!-- Generator: Adobe Illustrator 18.1.1, SVG Export Plug-In . SVG Version: 6.00 Build 0)  -->
<svg version="1.1" id="圖層_1" xmlns="http://www.w3.org/2000/svg" xmlns:xlink="http://www.w3.org/1999/xlink" x="0px" y="0px"
	 viewBox="0 0 150 150" enable-background="new 0 0 150 150" xml:space="preserve">
<path fill-rule="evenodd" clip-rule="evenodd" fill="#00A1E9" d="M150,75c0-41.4-33.6-75-75-75S0,33.6,0,75c0,41.4,33.6,75,75,75
	c24.6,0,46.4-11.8,60-30c0,0,0,0,0,0c-3.5-0.7-46.5-22.4-46.5-22.4C78.1,111.8,61.5,120,48.9,120s-26.4-7.2-26.4-22.7
	c0-15.5,12.9-23.5,26.2-23.5c13.3,0,35.3,7.9,35.3,7.9c3-4.8,6.9-17.1,6.9-17.1H42.8v-5.6h24.9v-8.9H37.6V45h30.1c0,0,0-10.5,0-12.7
	s2.2-2.3,2.2-2.3H82v15h29.9v5.4H82v8.9h24.5c-2.2,11.9-10.4,26.8-10.4,26.8c2.7,1.4,22.2,8.2,28.7,10.5c6.5,2.2,19.6,6.6,19.6,6.6
	S150,87.7,150,75z M26.7,96.8c0,4.2,4.5,14.5,19.8,14.5c15.2,0,27.6-13.4,31.4-19.4c0,0-15.1-9.7-31.6-9.7
	C29.7,82.3,26.7,92.6,26.7,96.8z"/>
</svg>
