<?xml version="1.0" encoding="utf-8"?>
<!-- Generator: Adobe Illustrator 18.1.1, SVG Export Plug-In . SVG Version: 6.00 Build 0)  -->
<svg version="1.1" id="圖層_1" xmlns="http://www.w3.org/2000/svg" xmlns:xlink="http://www.w3.org/1999/xlink" x="0px" y="0px"
	 viewBox="0 0 150 150" enable-background="new 0 0 150 150" xml:space="preserve">
<path fill="#E9BA00" d="M75,40.5L55.9,55.3h38.3L75,40.5z M75,0C33.6,0,0,33.6,0,75s33.6,75,75,75s75-33.6,75-75S116.4,0,75,0z
	 M29.4,61.9l44.1-34.1c0.4-0.3,0.9-0.5,1.5-0.5c0.6,0,1.1,0.2,1.5,0.5l44.1,34.1c0.8,0.6,1.1,1.7,0.8,2.7c-0.3,1-1.3,1.6-2.3,1.6
	H30.9c-1,0-1.9-0.6-2.3-1.6C28.3,63.6,28.6,62.5,29.4,61.9z M109.1,100.9c0.4,0,0.8,0.3,0.8,0.8v1.5c0,0.4-0.3,0.8-0.8,0.8h-17
	c-0.4,0-0.8-0.3-0.8-0.8v-1.5c0-0.4,0.3-0.8,0.8-0.8h2.4V75.7c-1.7,0-3.2-1.4-3.2-3.2c0-1.7,1.4-3.2,3.2-3.2h12.2
	c1.7,0,3.2,1.4,3.2,3.2c0,1.7-1.4,3.2-3.2,3.2v25.2H109.1z M65.7,72.5c0-1.7,1.4-3.2,3.2-3.2h12.2c1.7,0,3.2,1.4,3.2,3.2
	c0,1.7-1.4,3.2-3.2,3.2v25.2h2.4c0.4,0,0.8,0.3,0.8,0.8v1.5c0,0.4-0.3,0.8-0.8,0.8h-17c-0.4,0-0.8-0.3-0.8-0.8v-1.5
	c0-0.4,0.3-0.8,0.8-0.8h2.4V75.7C67.2,75.7,65.7,74.2,65.7,72.5z M57.9,100.9c0.4,0,0.8,0.3,0.8,0.8v1.5c0,0.4-0.3,0.8-0.8,0.8h-17
	c-0.4,0-0.8-0.3-0.8-0.8v-1.5c0-0.4,0.3-0.8,0.8-0.8h2.4V75.7c-1.7,0-3.2-1.4-3.2-3.2c0-1.7,1.4-3.2,3.2-3.2h12.2
	c1.7,0,3.2,1.4,3.2,3.2c0,1.7-1.4,3.2-3.2,3.2v25.2H57.9z M121.8,117.9H28.2v-3.9c0-0.4,0.2-0.8,0.5-1.1c0.3-0.3,0.7-0.5,1.1-0.5H36
	v-3.9c0-0.4,0.2-0.8,0.5-1.1c0.3-0.3,0.7-0.5,1.1-0.5h74.8c0.4,0,0.8,0.2,1.1,0.5c0.3,0.3,0.5,0.7,0.5,1.1v3.9h6.2
	c0.4,0,0.8,0.2,1.1,0.5c0.3,0.3,0.5,0.7,0.5,1.1V117.9z"/>
</svg>
