<?xml version="1.0" encoding="utf-8"?>
<!-- Generator: Adobe Illustrator 18.1.1, SVG Export Plug-In . SVG Version: 6.00 Build 0)  -->
<svg version="1.1" id="圖層_1" xmlns="http://www.w3.org/2000/svg" xmlns:xlink="http://www.w3.org/1999/xlink" x="0px" y="0px"
	 viewBox="0 0 153.2 150" enable-background="new 0 0 153.2 150" xml:space="preserve">
<g>
	<path fill="#808080" d="M34.3,116.9c-5.4,2.6-10.5,5.6-15.2,9.1C8,113.5,1,97.5,0,79.8h25.5C26,93,29.1,105.5,34.3,116.9z"/>
	<path fill="#808080" d="M25.6,70.9H0c1-17.7,8-33.8,19-46.3c5,3.6,10.3,6.8,16,9.5C29.6,45.4,26.3,57.8,25.6,70.9z"/>
	<path fill="#808080" d="M58.9,150c-12.7-3-24.2-9.1-33.7-17.6c4.1-2.9,8.4-5.5,13-7.7C43.7,134.3,50.7,142.8,58.9,150z"/>
	<path fill="#808080" d="M39.2,26.4c-4.9-2.3-9.5-5-13.9-8.1C35.5,9.1,48.2,2.6,62.2,0C53,7.3,45.2,16.3,39.2,26.4z"/>
	<path fill="#808080" d="M72.2,3.5v31c-8.6-0.4-16.9-2.1-24.7-4.8C53.8,19.4,62.3,10.4,72.2,3.5z"/>
	<path fill="#808080" d="M43.1,37.6c9.1,3.3,18.9,5.3,29,5.8v27.6H34.4C35.1,59.1,38.2,47.8,43.1,37.6z"/>
	<path fill="#808080" d="M34.4,79.8h37.8v27.6c-10.4,0.5-20.5,2.6-29.8,6.1C37.6,103.1,34.8,91.7,34.4,79.8z"/>
	<path fill="#808080" d="M46.5,121.3c8.1-2.9,16.7-4.7,25.7-5.2v33C61.8,141.9,53,132.3,46.5,121.3z"/>
	<path fill="#808080" d="M105.7,29.7c-7.8,2.7-16.1,4.4-24.7,4.8v-31C90.9,10.4,99.3,19.4,105.7,29.7z"/>
	<path fill="#808080" d="M106.7,121.3c-6.5,11-15.2,20.5-25.7,27.9v-33C90,116.6,98.6,118.4,106.7,121.3z"/>
	<path fill="#808080" d="M91,0c14,2.6,26.7,9.1,36.9,18.3c-4.3,3.1-9,5.8-13.9,8.1C107.9,16.3,100.1,7.3,91,0z"/>
	<path fill="#808080" d="M114.9,124.7c4.6,2.2,8.9,4.7,13,7.7c-9.4,8.5-20.9,14.6-33.7,17.6C102.4,142.8,109.4,134.3,114.9,124.7z"
		/>
	<path fill="#808080" d="M118.7,70.9H81V43.4c10.2-0.5,19.9-2.5,29-5.8C115,47.8,118,59.1,118.7,70.9z"/>
	<path fill="#808080" d="M110.8,113.4c-9.3-3.5-19.4-5.6-29.8-6.1V79.8h37.9C118.4,91.7,115.6,103.1,110.8,113.4z"/>
	<path fill="#808080" d="M127.7,79.8h25.5c-1,17.7-8,33.8-19,46.2c-4.8-3.5-9.9-6.6-15.2-9.1C124.1,105.5,127.2,93,127.7,79.8z"/>
	<path fill="#808080" d="M118.2,34.1c5.6-2.7,11-5.9,16-9.5c11,12.5,18,28.6,19,46.3h-25.6C126.9,57.8,123.6,45.4,118.2,34.1z"/>
</g>
</svg>
