<?xml version="1.0" encoding="utf-8"?>
<!-- Generator: Adobe Illustrator 21.0.0, SVG Export Plug-In . SVG Version: 6.00 Build 0)  -->
<svg version="1.1" id="圖層_1" xmlns="http://www.w3.org/2000/svg" xmlns:xlink="http://www.w3.org/1999/xlink" x="0px" y="0px"
	 viewBox="0 0 176.5 176.5" style="enable-background:new 0 0 176.5 176.5;" xml:space="preserve">
<style type="text/css">
	.st0{fill:#4D4D4D;}
</style>
<path class="st0" d="M167.2,13.3H9.3c-5.1,0-9.3,4.2-9.3,9.3v115c0,14.2,11.6,25.7,25.7,25.7h125c14.2,0,25.7-11.5,25.7-25.7v-115
	C176.5,17.5,172.3,13.3,167.2,13.3z M166.1,137.6c0,8.5-6.9,15.3-15.3,15.3h-125c-8.5,0-15.3-6.9-15.3-15.3v-17.2h95.2
	c0.1,0.6,0.3,1.3,0.5,2.3c0.7,2.3,1.6,4.6,2.9,6.9c0.6,1,1.2,2,2.1,3.1c1.5,1.9,3.2,3.6,5.4,5.3c0.9,0.7,1.9,1.4,3,2
	c2.1,1.2,4.3,2.1,7.2,2.9c0.9,0.2,1.9,0.4,3.7,0.7c1.2,0.1,2.3,0.2,3.5,0.2s2.4-0.1,4.3-0.4c1-0.1,1.9-0.3,3.4-0.7
	c2.4-0.7,4.6-1.6,6.5-2.7l0.7-0.4c0.9-0.5,1.7-1.1,2.7-1.9c1.9-1.5,3.7-3.2,5.4-5.4c0.7-0.9,1.4-1.9,2.1-3.1
	c1.2-2.1,2.1-4.3,2.9-7.2c0.1-0.5,0.3-1,0.4-1.7h3.8L166.1,137.6L166.1,137.6z M112.9,115c0-11.6,9.5-21.1,21.1-21.1s21,9.4,21,21.1
	c0,0.9-0.1,1.7-0.3,3.1c-0.1,0.7-0.2,1.4-0.5,2.5c-0.5,1.7-1.2,3.4-2.1,5c-0.4,0.7-0.9,1.4-1.5,2.3c-1.1,1.4-2.4,2.7-3.9,3.9
	c-0.7,0.5-1.4,1-2.2,1.5l-0.3,0.2c-1.4,0.8-3,1.4-5,2c-0.7,0.2-1.4,0.3-2.7,0.5c-1.7,0.2-2.8,0.3-5.7-0.1c-0.7-0.1-1.4-0.2-2.5-0.5
	c-1.7-0.5-3.4-1.2-4.9-2c-0.8-0.4-1.5-0.9-2.3-1.6c-1.4-1.1-2.7-2.4-3.9-4c-0.5-0.7-1-1.4-1.5-2.3c-0.9-1.5-1.6-3.1-2.1-5.3
	c-0.2-0.7-0.3-1.4-0.5-2.7C112.9,116.6,112.9,115.8,112.9,115z M166.1,110h-3.7C160,96.4,148.2,86.1,134,86.1s-26.1,10.4-28.4,23.9
	H10.4V23.7h155.7L166.1,110L166.1,110z M89.5,82.9c-3.3,0-5.9-2.7-5.9-5.9H71.7c0,7.7,5,14.2,11.8,16.7v7h11.8v-7
	c6.9-2.5,11.8-9,11.8-16.7c0-1.9-0.9-3.6-2.4-4.7L84.1,56.7c1-2,3-3.4,5.4-3.4c3.3,0,5.9,2.7,5.9,5.9h11.8c0-7.7-5-14.2-11.8-16.7
	v-7H83.6v7c-6.9,2.5-11.8,9-11.8,16.7c0,1.9,0.9,3.6,2.4,4.7l20.7,15.6C93.9,81.5,91.9,82.9,89.5,82.9z M130.4,129.2h7.1v-10.7h10.7
	v-7.1h-10.7v-10.7h-7.1v10.7h-10.7v7.1h10.7V129.2z"/>
</svg>
