<?xml version="1.0" encoding="utf-8"?>
<!-- Generator: Adobe Illustrator 18.1.1, SVG Export Plug-In . SVG Version: 6.00 Build 0)  -->
<svg version="1.1" id="圖層_1" xmlns="http://www.w3.org/2000/svg" xmlns:xlink="http://www.w3.org/1999/xlink" x="0px" y="0px"
	 viewBox="0 0 169.7 150" enable-background="new 0 0 169.7 150" xml:space="preserve">
<path fill="#FFFFFF" d="M155.8,15.2h-38.7V6.9c0-3.8-3.1-7-7-7c-3.8,0-7,3.1-7,7v8.4H66.5V6.9c0-3.8-3.1-7-7-7c-3.8,0-7,3.1-7,7v8.4
	H13.9C6.3,15.2,0,21.5,0,29.2V136c0,7.7,6.2,13.9,13.9,13.9h141.9c7.7,0,13.9-6.2,13.9-13.9V29.2C169.7,21.5,163.5,15.2,155.8,15.2z
	 M77.9,136h-64V67.3h64V136z M155.8,136h-64V67.3h64V136z M155.8,53.3H13.9V29.2l38.7,0v6.5c0,3.8,3.1,7,7,7c3.8,0,7-3.1,7-7v-6.5
	l36.7,0v6.5c0,3.8,3.1,7,7,7c3.8,0,7-3.1,7-7v-6.5l38.7,0V53.3z M53,112.1c4.2-6.3,4.3-16.4,0-22.8c-4.6-7-13-7.1-17.7,0
	c-4.3,6.3-4.3,16.6,0,22.8C40,119.1,48.3,119.1,53,112.1z M39.7,92.2c2.7-3.8,6.2-4,8.9,0c3.1,4.7,3,12.4,0,16.9
	c-2.7,4-6.2,3.9-8.9,0C36.7,104.6,36.6,97,39.7,92.2z M130.9,112.1c4.2-6.3,4.3-16.4,0-22.8c-4.6-7-13-7.1-17.7,0
	c-4.3,6.3-4.3,16.6,0,22.8C117.9,119.1,126.2,119.1,130.9,112.1z M117.6,92.2c2.7-3.8,6.2-4,8.9,0c3.1,4.7,3,12.4,0,16.9
	c-2.7,4-6.2,3.9-8.9,0C114.6,104.6,114.5,97,117.6,92.2z"/>
</svg>
