<?xml version="1.0" encoding="utf-8"?>
<!-- Generator: Adobe Illustrator 18.1.1, SVG Export Plug-In . SVG Version: 6.00 Build 0)  -->
<svg version="1.1" id="圖層_1" xmlns="http://www.w3.org/2000/svg" xmlns:xlink="http://www.w3.org/1999/xlink" x="0px" y="0px"
	 viewBox="0 0 145.5 150" enable-background="new 0 0 145.5 150" xml:space="preserve">
<g>
	<g>
		<path fill="#808080" d="M72.8,19.7c11.1,0,21.8,3.3,30.9,9.4l-11.3,7.2L135.9,59l-2.2-49l-12.5,8C107.7,6.4,90.7,0,72.8,0
			C38.4,0,8.5,23.2,0,56.5l19.1,4.8C25.3,36.8,47.4,19.7,72.8,19.7z"/>
		<path fill="#808080" d="M126.4,88.6c-6.2,24.6-28.3,41.7-53.6,41.7c-11.2,0-21.9-3.3-30.9-9.5l11.3-7.2L9.6,91l2.2,49l12.5-8
			C37.8,143.6,54.8,150,72.8,150c34.4,0,64.2-23.3,72.7-56.6L126.4,88.6z"/>
	</g>
</g>
</svg>
