<?xml version="1.0" encoding="utf-8"?>
<!-- Generator: Adobe Illustrator 18.1.1, SVG Export Plug-In . SVG Version: 6.00 Build 0)  -->
<svg version="1.1" id="圖層_1" xmlns="http://www.w3.org/2000/svg" xmlns:xlink="http://www.w3.org/1999/xlink" x="0px" y="0px"
	 viewBox="0 0 244.4 150" enable-background="new 0 0 244.4 150" xml:space="preserve">
<path fill="#4D4D4D" d="M236.2,0.8c-1.1-0.3-2.2-0.4-3.2-0.7h-58.3c-3.7,1.4-7.6,2.3-11,4.2c-4.7,2.6-7.6,6.8-8.7,12.2
	c-1.4,6.9-3.1,13.8-4.7,20.8h-4.8c1.9-7.9,3.4-15.8,5.6-23.5c1.9-6.5,7.3-10,13.3-12.3c1.3-0.5,2.7-0.9,4-1.4h-63.1
	c-4.7,1-9.2,2.4-12.9,5.6c-3.4,2.9-5.7,6.3-6.6,10.7c-1.4,6.4-2.9,12.7-4.3,19.1c-0.1,0.6-0.3,1.2-0.5,1.8h-5.4
	c1.1-5,2.2-9.9,3.3-14.7c0.9-3.7,1.5-7.6,3.1-11c2.5-5.4,7.4-8.4,12.9-10.3c1.1-0.4,2.2-0.8,3.3-1.2H46.5c-10.5,0-18.4,11-19.7,16.5
	C18,55.9,9.1,95.2,0.2,134.6c-0.9,5,1.1,15.5,12.9,15.5c16,0,32,0,48.3,0c-0.4-0.3-0.5-0.5-0.8-0.6c-6.3-2.8-8.8-7.1-7.3-13.9
	c1.9-9.3,4.1-18.4,6.3-27.8h5.5c-1.2,5.3-2.4,10.5-3.5,15.7c-0.9,4-1.9,8-2.7,12.1C57.3,144.4,62,149.9,71,150c7,0.1,14,0,21,0
	c12.5,0,25,0,37.5,0h1.7c-0.2-0.3-0.2-0.5-0.3-0.5c-7-3.4-8.9-7.2-7.3-14.8c0.6-2.8,1.3-5.6,1.9-8.4h4.7c-0.7,3-1.3,5.9-1.9,8.7
	c-1.8,9.2,2.9,14.9,12.2,15c16.2,0,32.3,0,48.5,0c3.6,0,7.2,0.2,10.7-0.1c8.7-0.7,15.3-6.7,17.4-15.6c3.6-15.7,7.1-31.5,10.7-47.2
	c5.5-24.2,10.9-48.4,16.4-72.6c0.1-0.4,0.2-0.7,0.4-1.1V9.2C242.9,5.1,240.6,1.9,236.2,0.8z M34.1,73.6c-4.2-1.4-6.8-5-6-9.4
	c1.4-8.1,3.2-16.2,4.8-24.3c0.1-0.5,0.8-1.2,1.3-1.3c2-0.1,3.9-0.1,6.2-0.1c-1.1,5.4-2.2,10.5-3.2,15.7c-0.5,2.4-1,4.8-1.5,7.2
	c-0.9,4.6,1.1,6.9,5.8,6.5c4.2-0.3,6.5-2.2,7.4-6.4c1.5-6.8,2.9-13.5,4.2-20.3c0.4-2,1-3,3.2-2.7c1.4,0.2,2.8,0,4.5,0
	c-0.1,0.8-0.1,1.4-0.2,2c-1.4,6.7-2.8,13.4-4.1,20.1C54.3,71.5,44.6,77.1,34.1,73.6z M80,58.6c-0.7,5-1.9,10-2.8,15h-5.3
	c0.7-3.7,1.4-7.4,2.2-11c0.1-0.5,0.2-0.9,0.3-1.4c0.1-1.5,0.8-3.2-1.1-4c-1.9-0.8-3.8-0.3-4.9,1.3c-1,1.4-1.6,3.1-2,4.7
	c-0.8,3.4-1.4,6.8-2.1,10.3h-5.3c1.4-6.9,2.7-13.7,4.1-20.7h5c0,0.7-0.1,1.4-0.1,2.1c0.3-0.1,0.5-0.2,0.7-0.2
	c1.8-0.8,3.5-2.1,5.3-2.4C78,51.7,80.6,54.3,80,58.6z M182.4,55.2c1.1,0.7,1.8,0.5,2.9,0.1c2-0.8,4.2-1,6.7-1.6
	c-1.5,6.7-2.8,12.9-4.2,18.9c-0.1,0.4-0.5,1-0.8,1c-2,0-4.1,0.4-5.9-0.3c-1.4-0.5-2.3-0.4-3.5-0.1c-6,1.8-9.6-0.8-8.7-7
	c0.4-3.1,1.7-6.3,3.3-9C174.2,53.8,178.9,53.1,182.4,55.2z M186.5,87.1c-0.6,1.2-1,3.3-1.8,3.5c-1.9,0.4-4,0.1-6.1-0.3
	c-0.5-0.1-1-1.2-1-1.9c-0.2-1.6,0-3.1,0-4.9h5.8c0.8,1.2,1.5,2.5,2.3,3.7C185.9,87.2,186.2,87.1,186.5,87.1z M143.5,62
	c1.4-6.8,2.9-13.7,4.2-20.5c0.3-1.3,0.7-1.7,2-1.7c4.6,0.1,9.2-0.1,13.8,0.1c6.6,0.2,9.4,3.9,8.2,10.4c-1.3,6.7-5.9,10.8-12.6,11.1
	c-2.1,0.1-4.1,0.1-6.2,0c-1.7-0.1-2.6,0.3-2.8,2.2c-0.5,3.3-1.3,6.5-2,10h-6.9C142,69.7,142.7,65.8,143.5,62z M122.2,54.3
	c0.1-0.6,1.2-1.3,1.9-1.5c1-0.3,2-0.1,3.2-0.1c0.1,0.8,0.1,1.5,0.2,2.4c2.4-2.1,4.8-3.3,7.8-2.8c3,0.5,4.8,2.6,4.4,5.5
	c-0.8,4.9-1.8,9.8-2.8,14.7c-0.1,0.4-0.8,0.9-1.3,1c-1.3,0.1-2.7,0-4.2,0c0.8-4.3,1.6-8.3,2.4-12.4c0.3-1.5,0.8-3.5-1-3.9
	c-1.5-0.4-3.5,0.1-4.8,0.9c-1.1,0.8-1.7,2.6-2.1,4.1c-0.9,3.7-1.6,7.4-2.3,11.1h-5.3C119.6,67.1,120.8,60.7,122.2,54.3z M120.7,86.1
	c-0.4,1.4-0.7,2.5-1,3.9c-2.7,0-5.4,0-8.1,0c-0.7,0-1.7-0.1-2,0.3c-2.5,3.1-5.8,1.8-9.2,2.1c0.6-2,0.2-4.2,3-4.5
	c0.7-0.1,1.4-1.2,1.8-2.1c1-1.9,2.4-2.8,4.6-2.5c1.1,0.2,2.3,0,3.7,0c-0.3,1-0.6,1.7-0.9,2.7H120.7z M88.5,72.7
	c-0.1,0.4-1,0.9-1.5,1c-1.3,0.1-2.7,0-4.4,0c0.9-4.4,1.8-8.7,2.7-12.9c0.4-1.9,1-3.7,1.2-5.6c0.2-2,1.1-2.8,3.1-2.5
	c0.9,0.1,1.9,0,3.2,0C91.3,59.7,89.9,66.2,88.5,72.7z M88.1,50.1c0.6-5.6,0.1-5.3,6.2-4.6C94.4,50.2,93.7,50.8,88.1,50.1z
	 M110.7,52.6c3.2,0.7,5.1,2.6,5.9,5.8c1.7,7.9-4.6,15.9-12.6,15.8c-5.4,0-8.4-3.1-8.3-8.5C95.9,57.1,103,50.9,110.7,52.6z
	 M109.5,118.1c-2.5,0-5.1,0.1-7.6,0c-2.6-0.1-3.3-1-2.8-3.5c0.5-2.6,1.3-5.1,2-7.8h-4.5c0.4-1.6,0.8-2.8,1.2-4.3h4.5
	c0.4-1.4,0.7-2.6,1.2-4.1c-1.5-0.1-2.8-0.2-4.1-0.3c0.5-4.1,0.5-4.1,4.4-4.1c4.8,0,9.5,0,14.3,0c0.2,3.8-0.2,4.3-3.7,4.3
	c-0.3,0-0.6,0-1,0c-3.7,0-3.7,0-4.3,4.1h6.6c-0.3,4-0.5,4.3-3,4.3c-5.5,0-6.4,1-6.5,7.3h7C113,118,112.9,118.1,109.5,118.1z
	 M134.8,109.1c-1.2,4.5-0.8,5,4.1,5.5c-0.1,3.3-0.2,3.4-3.4,3.4c-7.4,0-7.5,0-7.2-7.5c0.1-2.4,0.2-4.7,0.4-7.2h5.7
	c0.1,0.7,0.1,1.4,0.2,2.2c1.4,0.3,2.4,0.4,3-1.3c0.2-0.5,1.3-0.7,2.1-0.9c0.8-0.1,1.7,0,2.6,0C142.4,107.6,140.9,108.8,134.8,109.1z
	 M139.4,102c-4.1,0.1-8.1,0.2-12.2,0.1c-1.5,0-2.3,0.5-2.6,2c-0.8,3.3-1.7,6.5-2.6,10c1.3,0.1,2.3,0.3,3.2,0.4
	c0.1,2.8-1.2,3.7-3.8,3.4c-1.2-0.2-2.5,0-3.8-0.1c-2.7-0.1-3.2-0.8-2.5-3.5c1.7-6.5,3.5-13,5.3-19.5c0.8-3.1,1.8-6.1,2.5-9.2
	c0.4-1.8,1.1-2.4,2.9-2.2c1.2,0.1,2.4,0,3.6,0c0,0.8,0.1,1.4,0.1,2.4c5.6-3.9,11.8-2,18.1-2.5c-1.6,5.7-3,11-4.5,16.2
	C142.5,101.2,141.1,102,139.4,102z M159.9,117.9c-0.5-0.3-0.6-1.1-0.9-1.9h-12.7c0.8-1.8,0.1-4,2.5-4.8c0.3-0.1,0.5-1,0.6-1.5
	c1.8-6.4,3.7-12.8,5.4-19.3c0.4-1.4,0-3.1,0-4.6c0.1-1.9,1.2-2.5,3.1-2.3c0.9,0.1,1.8-0.1,2.6,0.1c0.8,0.1,1.5,0.6,1.9,0.8
	c4.9-0.4,9.6-0.7,14.7-1.1c-0.9,2.3-0.3,4.6-2.7,5.5c-0.3,0.1-0.4,1-0.6,1.5c-1.8,6.4-3.7,12.8-5.4,19.3c-0.4,1.5,0.2,3.3-0.1,4.8
	C167.6,117.1,162.3,119.3,159.9,117.9z M194.2,96.5c-1.7,0.2-3.5,0-5.5,0c-0.4,1.3-0.7,2.5-1.2,4h6.7c-0.3,1.2-0.5,2.3-0.9,3.1
	c-0.3,0.6-1.1,1.2-1.8,1.3c-1.3,0.2-2.7,0.2-4,0c-1.8-0.2-2.8,0.6-3.4,2.6h2.9c1.7,1.8-0.4,5.6,3.8,6.2c-0.6,1.3-0.9,3.5-1.6,3.7
	c-1.9,0.4-4.1,0.1-6-0.4c-0.6-0.1-0.9-1.7-1.2-2.7c-0.3-0.9-0.4-1.9-0.7-3c-1.8,2.2-3.1,4.9-5.2,6c-2.1,1.1-5.1,0.6-7.9,0.8
	c0.4-2.4,0.2-4.7,3.4-4.7c0.6,0,1.3-0.6,1.7-1.1c1.6-2.2,3.2-4.5,5.1-7.3h-6.6c0.3-1.2,0.5-2,0.7-2.9c0.2-1.3,0.9-1.9,2.3-1.7
	c0.8,0.1,1.6,0,2.4,0c3.5,0,3.5,0,4.1-4h-6.9c0.6-4.4,0.6-4.4,4.8-4.4c4.9,0,9.9,0,14.8,0h3C195.6,93.8,196.8,96.3,194.2,96.5z
	 M215,54.4c-4.3,8.6-8.4,17.3-12.8,25.9c-2.1,4-4.5,8-9.2,9.5c-1.3,0.4-2.8,0.6-4.3,0.9c-0.2-2.2,0.2-3.4,2-4.8
	c4.4-3.5,7.8-7.8,7.1-14.1c-0.6-6.2-1-12.4-1.5-18.8h7.3v12.6c0.2,0,0.4,0.1,0.6,0.1c1.4-3.3,3-6.6,4.2-10c0.8-2.3,2-3.4,4.5-3
	c0.8,0.1,1.7,0,2.8,0C215.3,53.5,215.2,54,215,54.4z M159,97.7c-0.5,2-1.1,3.9-1.7,6.1c3.6-1,7.1-1.4,6.6-6.1H159z M160.3,94.3
	c5.5-1,5.6-1,6.3-5.7C161.1,88.2,160.5,88.7,160.3,94.3z M155.5,111.4h4.9c0.4-1.5,0.8-3,1.2-4.5
	C156.1,106.4,155.7,106.7,155.5,111.4z M156.6,55.6c1.3,0,2.6,0,3.8-0.2c2.7-0.5,4.7-3.4,4.6-6.2c-0.1-2.2-1.4-3.2-4.9-3.4
	c-1.6-0.1-3.2-0.2-4.8,0c-0.6,0.1-1.5,0.7-1.6,1.2c-0.7,2.8-1.2,5.6-1.8,8.7C153.7,55.6,155.2,55.6,156.6,55.6z M129.8,94.7
	c-2.4-0.2-3.3,0.8-3.3,3.3c2.6,0,5.2-0.1,7.7,0c2.4,0.2,3-1.1,3-3.3C134.7,94.8,132.3,95,129.8,94.7z M128.2,91.5
	c2.8-0.2,5.5-0.6,8.1-0.5c2.3,0.1,2.9-0.9,2.8-3c-2.3,0-4.6,0-6.8,0C128.8,88,128.8,88,128.2,91.5z M179.8,69.2
	c4-4.1,3.8-9.6,1.3-10.3c-1.2-0.3-3,0.8-3.9,1.8c-1.7,1.9-2.3,4.4-1.7,6.9C176,69.9,178.1,70.9,179.8,69.2z M106,69.4
	c4.7-1.1,7.6-10.2,2.9-12.1c-2.1-0.9-6.7,0.4-7.7,8.2C100.8,68.5,103,69.9,106,69.4z"/>
</svg>
