<?xml version="1.0" encoding="utf-8"?>
<!-- Generator: Adobe Illustrator 18.1.1, SVG Export Plug-In . SVG Version: 6.00 Build 0)  -->
<svg version="1.1" id="圖層_1" xmlns="http://www.w3.org/2000/svg" xmlns:xlink="http://www.w3.org/1999/xlink" x="0px" y="0px"
	 viewBox="0 0 120.3 150" enable-background="new 0 0 120.3 150" xml:space="preserve">
<path fill-rule="evenodd" clip-rule="evenodd" fill="#4D4D4D" d="M60.3,150c-15-0.3-30-1.5-44.6-4.9c-10.1-2.4-14.4-6.9-15.3-16
	c-2.4-23.8,4.8-45,22.9-62.9c7.2-7.1,15.2-13.7,20.7-22c1-1.5,2.4-1.6,4.1-1.6c8.1,0,16.1,0,24.2,0c2,0,3.2,0.5,4.3,2.1
	c4.5,6.7,10.4,12.4,16.6,17.8c20.6,18.3,28.6,40.6,26.8,66c-0.6,9.1-5,14.2-15.2,16.6C90.3,148.5,75.4,149.7,60.3,150L60.3,150z
	 M59.9,31.5c4.8,0,9.7,0,14.5,0c2.6,0,4.6,0.9,4.5,3.4c0,2.2-1.9,3.2-4.3,3.2c-10,0-20,0-30,0c-2.4,0-4.2-1.1-4.1-3.4
	c0.1-2.2,1.9-3.2,4.3-3.2C49.9,31.5,54.9,31.5,59.9,31.5L59.9,31.5z M82.2,7.2c3.1,1.5,2.6,3.8,1.6,5.9c-2.1,4.3-4.5,8.5-6.8,12.8
	c-0.7,1.3-1.7,1.9-3.4,1.9c-8.9,0-17.7,0-26.6,0c-1.6,0-2.8-0.3-3.5-1.7c-3.2-6.2-6.5-12.4-9.8-18.6c-1.5-2.9-0.3-4.8,2.9-6.1
	C42-0.9,46.9-0.4,51.6,2.8C55,5.2,58,8.1,62.7,8.5C78.1,10,77.9,5.2,82.2,7.2L82.2,7.2z M66.2,109.8c0-1.8-0.6-3.3-1.8-4.4v0l0,0
	l0,0l0,0l0,0l0,0h0l0,0l0,0l0,0l0,0l0,0l0,0l0,0l0,0l0,0l0,0l0,0l0,0l0,0l0,0l0,0v0l0,0l0,0l0,0v0l0,0l0,0l0,0l0,0l0,0l0,0l0,0l0,0
	l0,0l0,0l0,0l0,0l0,0l0,0l0,0l0,0l0,0l0,0l0,0l0,0l0,0l0,0l0,0l0,0l0,0l0,0l0,0l0,0l0,0l0,0l0,0l0,0l0,0l0,0l0,0l0,0l0,0l0,0l0,0
	l0,0l0,0l0,0l0,0l0,0l0,0c-1.2-0.9-3-1.8-5.3-2.6c-5.6-1.8-9.7-3.8-12.4-6c-2.7-2.2-4.1-5.3-4.1-9.4c0-3.7,1.3-6.8,4.1-9.2
	c2.7-2.4,6.3-3.8,10.9-4.2v-7.2h6v7.3c4.4,0.6,7.9,2.3,10.4,5c2.5,2.7,3.8,6.2,3.7,10.5l-0.1,0.2H66.2c0-2.6-0.6-4.7-1.8-6.1
	c-1.2-1.4-2.9-2.1-5-2.1c-0.7,0-1.3,0.1-1.9,0.2l0,0h0l-0.1,0l0,0l0,0l0,0h0l-0.1,0l0,0l0,0l0,0h0l-0.1,0l0,0l0,0l0,0l0,0l-0.1,0
	l0,0l0,0l0,0l0,0l-0.1,0h0l-0.1,0l0,0l0,0l-0.1,0h0l0,0l0,0l0,0l-0.1,0l0,0l0,0l0,0l0,0l0,0l0,0l0,0l0,0l0,0l0,0l0,0l-0.1,0l0,0l0,0
	l0,0l0,0l0,0l0,0l0,0l0,0l0,0l0,0l0,0l0,0l0,0l0,0l-0.1,0v0l0,0l0,0l0,0l0,0v0l0,0l0,0l0,0l0,0l0,0l0,0l0,0l0,0l0,0l0,0l0,0l0,0
	l-0.1,0l0,0l0,0l0,0l0,0l0,0l0,0l0,0l0,0l0,0l0,0l0,0l0,0l0,0l0,0l0,0l0,0l0,0l0,0l0,0l0,0l0,0l0,0l0,0l0,0l0,0l0,0l0,0l0,0l0,0l0,0
	l0,0v0l0,0l0,0l0,0l0,0l0,0l0,0l0,0l0,0l0,0l0,0l0,0l0,0l0,0l0,0l0,0l0,0h0l0,0l0,0l0,0l0,0l0,0l0,0l0,0l0,0l0,0l0,0l0,0l0,0l0,0
	l0,0l0,0l0,0l0,0l0,0l0,0l0,0l0,0l0,0l0,0l0,0l0,0l0,0v0l0,0l0,0l0,0l0,0l0,0l0,0l0,0l0,0l0,0l0,0l0,0l0,0l0,0v0l0,0l0,0l0,0l0,0v0
	l0,0l0,0l0,0l0,0l0,0l0,0l0,0l0,0l0,0l0,0l0,0.1l0,0l0,0l0,0l0,0l0,0l0,0l0,0l0,0l0,0v0l0,0l0,0l0,0l0,0l0,0l0,0.1v0l0,0v0l0,0l0,0
	l0,0v0l0,0v0l0,0c-0.1,0.5-0.1,1-0.1,1.6c0,1.7,0.6,3.1,1.7,4.2c1.1,1.1,3.2,2.1,6.2,3.2c5.6,1.9,9.7,4,12.4,6.2
	c2.7,2.2,4,5.3,4,9.3c0,3.9-1.3,7-4,9.3c-2.7,2.3-6.4,3.7-11,4.1v6.6h-6v-6.6c-4.7-0.4-8.6-1.9-11.7-4.4c-3.1-2.5-4.6-6.3-4.5-11.2
	l0.1-0.2h10.8c0,3,0.8,5.1,2.3,6.4c1.5,1.3,3.5,1.9,5.9,1.9c1.9,0,3.5-0.4,4.6-1.1l0,0l0,0l0,0v0l0,0l0,0l0,0l0,0l0,0l0,0l0,0l0,0
	l0,0l0,0l0,0l0,0l0,0l0,0l0,0v0l0,0l0,0l0,0l0,0l0,0v0h0l0,0l0,0l0,0l0,0l0,0l0,0l0,0l0,0l0,0l0,0l0,0l0,0l0,0h0v0l0,0l0,0l0,0l0,0
	l0,0l0,0h0l0,0l0,0v0l0,0l0,0h0v0l0,0l0,0l0,0l0,0l0,0l0,0l0,0l0,0l0,0l0,0l0,0l0,0l0,0C65.5,113.1,66.2,111.6,66.2,109.8
	L66.2,109.8z"/>
</svg>
