<?xml version="1.0" encoding="utf-8"?>
<!-- Generator: Adobe Illustrator 18.1.1, SVG Export Plug-In . SVG Version: 6.00 Build 0)  -->
<svg version="1.1" id="圖層_1" xmlns="http://www.w3.org/2000/svg" xmlns:xlink="http://www.w3.org/1999/xlink" x="0px" y="0px"
	 viewBox="0 0 368.6 41.2" enable-background="new 0 0 368.6 41.2" xml:space="preserve">
<g>
	<path fill-rule="evenodd" clip-rule="evenodd" fill="#E6E6E6" d="M366,0H2.6C1.2,0,0,1,0,2.2v36.7c0,1.2,1.2,2.2,2.6,2.2H366
		c1.5,0,2.6-1,2.6-2.2V2.2C368.6,1,367.4,0,366,0z"/>
	<path opacity="0.3" fill-rule="evenodd" clip-rule="evenodd" fill="#1E2023" d="M366,0H2.6C1.2,0,0,1,0,2.2v1.9
		c0-1.2,1.2-2.3,2.6-2.3H366c1.5,0,2.6,1,2.6,2.3V2.2C368.6,1,367.4,0,366,0z"/>
</g>
</svg>
