<?xml version="1.0" encoding="utf-8"?>
<!-- Generator: Adobe Illustrator 18.1.1, SVG Export Plug-In . SVG Version: 6.00 Build 0)  -->
<svg version="1.1" id="圖層_1" xmlns="http://www.w3.org/2000/svg" xmlns:xlink="http://www.w3.org/1999/xlink" x="0px" y="0px"
	 viewBox="0 0 106.5 150" enable-background="new 0 0 106.5 150" xml:space="preserve">
<path fill-rule="evenodd" clip-rule="evenodd" fill="#FFFFFF" d="M53.4,150c-13.3-0.3-26.5-1.5-39.5-4.9c-8.9-2.4-12.8-6.9-13.6-16
	c-2.1-23.8,4.2-45,20.3-62.9c6.4-7.1,13.5-13.7,18.3-22c0.9-1.5,2.1-1.6,3.6-1.6c7.2,0,14.3,0,21.4,0c1.8,0,2.9,0.5,3.8,2.1
	c4,6.7,9.2,12.4,14.7,17.8c18.2,18.3,25.3,40.6,23.7,66c-0.6,9.1-4.4,14.2-13.4,16.6C80,148.5,66.8,149.7,53.4,150L53.4,150z
	 M53,31.5c4.3,0,8.6,0,12.8,0c2.3,0,4,0.9,4,3.4c0,2.2-1.7,3.2-3.8,3.2c-8.9,0-17.7,0-26.6,0c-2.1,0-3.7-1.1-3.6-3.4
	c0.1-2.2,1.6-3.2,3.8-3.2C44.2,31.5,48.6,31.5,53,31.5L53,31.5z M72.8,7.2c2.8,1.5,2.3,3.8,1.4,5.9c-1.9,4.3-4,8.5-6,12.8
	c-0.6,1.3-1.5,1.9-3,1.9c-7.9,0-15.7,0-23.6,0c-1.4,0-2.5-0.3-3.1-1.7c-2.9-6.2-5.8-12.4-8.6-18.6c-1.3-2.9-0.3-4.8,2.6-6.1
	c4.8-2.2,9.1-1.7,13.2,1.5c3,2.3,5.7,5.3,9.8,5.7C69.2,10,69,5.2,72.8,7.2L72.8,7.2z M58.6,109.8c0-1.8-0.5-3.3-1.6-4.4v0l0,0l0,0
	l0,0l0,0l0,0h0l0,0l0,0l0,0l0,0l0,0l0,0l0,0l0,0l0,0l0,0l0,0l0,0l0,0l0,0l0,0v0l0,0l0,0l0,0v0l0,0l0,0l0,0l0,0l0,0l0,0l0,0l0,0l0,0
	l0,0l0,0l0,0l0,0l0,0l0,0l0,0l0,0l0,0l0,0l0,0l0,0l0,0l0,0l0,0l0,0l0,0l0,0l0,0l0,0l0,0l0,0l0,0l0,0l0,0l0,0l0,0l0,0l0,0l0,0l0,0
	l0,0l0,0l0,0l0,0l0,0c-1.1-0.9-2.6-1.8-4.7-2.6c-5-1.8-8.6-3.8-11-6c-2.4-2.2-3.6-5.3-3.6-9.4c0-3.7,1.2-6.8,3.6-9.2
	c2.4-2.4,5.6-3.8,9.7-4.2v-7.2h5.3v7.3c3.9,0.6,7,2.3,9.2,5c2.2,2.7,3.3,6.2,3.3,10.5l-0.1,0.2h-9.5c0-2.6-0.5-4.7-1.6-6.1
	c-1.1-1.4-2.6-2.1-4.4-2.1c-0.6,0-1.2,0.1-1.7,0.2l0,0h0l0,0l0,0l0,0l0,0h0l0,0l0,0l0,0l0,0h0l0,0l0,0l0,0l0,0l0,0l0,0l0,0l0,0l0,0
	l0,0l0,0h0l0,0l0,0l0,0l0,0h0l0,0l0,0l0,0l0,0l0,0l0,0l0,0l0,0l0,0l0,0l0,0l0,0l0,0l0,0l0,0l0,0l0,0l0,0l0,0l0,0l0,0l0,0l0,0l0,0
	l0,0l0,0l0,0l0,0l0,0l0,0l0,0v0l0,0l0,0l0,0l0,0v0l0,0l0,0l0,0l0,0l0,0l0,0l0,0l0,0l0,0l0,0l0,0l0,0l-0.1,0l0,0l0,0l0,0l0,0l0,0l0,0
	l0,0l0,0l0,0l0,0l0,0l0,0l0,0l0,0l0,0l0,0l0,0l0,0l0,0l0,0l0,0l0,0l0,0l0,0l0,0l0,0l0,0l0,0l0,0l0,0l0,0v0l0,0l0,0l0,0l0,0l0,0l0,0
	l0,0l0,0l0,0l0,0l0,0l0,0l0,0l0,0l0,0l0,0h0l0,0l0,0l0,0l0,0l0,0l0,0l0,0l0,0l0,0l0,0l0,0l0,0l0,0l0,0l0,0l0,0l0,0l0,0l0,0l0,0l0,0
	l0,0l0,0l0,0l0,0l0,0v0l0,0l0,0l0,0l0,0l0,0l0,0l0,0l0,0l0,0l0,0l0,0l0,0l0,0v0l0,0l0,0l0,0l0,0v0l0,0l0,0l0,0l0,0l0,0l0,0l0,0l0,0
	l0,0l0,0l0,0.1l0,0l0,0l0,0l0,0l0,0l0,0l0,0l0,0l0,0v0l0,0l0,0l0,0l0,0l0,0l0,0.1v0l0,0v0l0,0l0,0l0,0v0l0,0v0l0,0
	c-0.1,0.5-0.1,1-0.1,1.6c0,1.7,0.5,3.1,1.5,4.2c1,1.1,2.8,2.1,5.5,3.2c4.9,1.9,8.6,4,10.9,6.2c2.4,2.2,3.6,5.3,3.6,9.3
	c0,3.9-1.2,7-3.6,9.3c-2.4,2.3-5.6,3.7-9.7,4.1v6.6h-5.3v-6.6c-4.2-0.4-7.6-1.9-10.3-4.4c-2.7-2.5-4-6.3-3.9-11.2l0.1-0.2H45
	c0,3,0.7,5.1,2.1,6.4c1.4,1.3,3.1,1.9,5.2,1.9c1.7,0,3.1-0.4,4.1-1.1l0,0l0,0l0,0v0l0,0l0,0l0,0l0,0l0,0l0,0l0,0l0,0l0,0l0,0l0,0
	l0,0l0,0l0,0l0,0v0l0,0l0,0l0,0l0,0l0,0v0h0l0,0l0,0l0,0l0,0l0,0l0,0l0,0l0,0l0,0l0,0l0,0l0,0l0,0h0v0l0,0l0,0l0,0l0,0l0,0l0,0h0
	l0,0l0,0v0l0,0l0,0h0v0l0,0l0,0l0,0l0,0l0,0l0,0l0,0l0,0l0,0l0,0l0,0l0,0l0,0C58,113.1,58.6,111.6,58.6,109.8L58.6,109.8z"/>
</svg>
