<?xml version="1.0" encoding="utf-8"?>
<!-- Generator: Adobe Illustrator 18.1.1, SVG Export Plug-In . SVG Version: 6.00 Build 0)  -->
<svg version="1.1" id="圖層_1" xmlns="http://www.w3.org/2000/svg" xmlns:xlink="http://www.w3.org/1999/xlink" x="0px" y="0px"
	 viewBox="0 0 149.9 150" enable-background="new 0 0 149.9 150" xml:space="preserve">
<path fill="#FFFFFF" d="M109.6,97.5c-1.3,1.4-2.7,3-4.3,4.5c-0.9,0.8-1.2,1.7-1.2,2.9c0,10.6,0,21.1,0,31.7c0,3.5-1.5,5-5,5
	c-28.6,0-57.2,0-85.7,0c-3.7,0-5.1-1.4-5.1-5.1c0-30,0-59.9,0-89.9c0-11.3,0-22.6,0-33.9c0-2.7,1.5-4.2,4.2-4.4c0.4,0,0.8,0,1.2,0
	c20,0,40,0,60,0h1.8c0,8.1,0,16,0,23.9c0,4,1.7,5.6,5.7,5.6c7,0,14,0,21,0c1.5,0,1.9,0.5,1.9,1.9c-0.1,4.1,0,8.2,0,12.3
	c0,0.5,0.1,1,0.1,2c1.4-1.5,2.3-2.8,3.6-3.7c4-2.9,5.3-6.7,4.7-11.5c-0.4-3.1-1.2-6-3.3-8.3c-8-8.8-16-17.5-24-26.2
	C82.6,1.4,79.4,0,75.5,0C54.6,0,33.7,0,12.8,0C5.4,0,0,5.3,0,12.7c0,41.5,0,83.1,0,124.6c0,7.4,5.3,12.7,12.8,12.7
	c28.9,0,57.8,0,86.7,0c7.7,0,12.9-5.3,12.9-13c0-11.3-0.1-22.6,0-33.9C112.5,100.7,112.4,98.7,109.6,97.5z M149,60.6
	c-1.3-1.3-3.1-1.2-4.7,0.4c-0.8,0.8-1.4,1.8-2,2.6c-1.9-1.8-3.2-3-4.5-4.2c2.2-2.6,4.4-4.9,6.2-7.4c1.5-2,2.4-4.4,1.8-7.1
	c-1.3-6.3-8.3-9.7-13.9-6.6c-2.6,1.5-5.1,3.4-7.2,5.6C112.4,56.2,100,68.6,87.6,81.1c-0.4,0.4-0.7,0.8-0.9,1
	c4.7,4.7,9.4,9.4,14.1,14.2c10.8-10.8,21.6-21.6,32.5-32.5c1.4,1.3,2.8,2.6,4.5,4.3c-0.6,0.4-1.2,0.7-1.6,1.1
	c-6.1,6.1-12.1,12.1-18.1,18.2c-1.5,1.5-1.6,3.3-0.3,4.6c1.3,1.3,3.1,1.2,4.6-0.3c8.8-8.8,17.6-17.6,26.4-26.5
	C150.2,63.6,150.3,61.9,149,60.6z M34.8,119c-0.7,2.4-1.7,4.8-1.9,7.2c-0.4,4.8,3,6.9,7.2,4.7c1.4-0.7,2.6-1.9,4-2.7
	c3.1-1.9,5-1.5,7.3,1.2c1.5,1.8,2.9,1.7,4.3-0.2c0.5-0.7,1.3-1.2,2.1-1.5c0.8-0.3,1.8-0.1,2.6-0.5c3.9-1.8,7.9-3.6,11.6-5.8
	c9.5-5.7,17.4-13.5,25-21.4c0.1-0.1,0.1-0.3,0.1-0.1c-4.7-4.8-9.3-9.4-14-14.1c-8.3,7.9-16.3,16.1-22.3,26.1
	c-2.6,4.4-5.3,8.8-5.7,14.1c-0.1,0-0.3,0-0.3,0c-0.4-0.3-0.7-0.7-1.1-1c-2.3-2.3-5.2-3.3-8.2-2.3c-2.1,0.6-4,2.1-6,3.2
	c-0.6,0.3-1.1,0.8-1.7,1.2c-0.2-0.1-0.4-0.2-0.6-0.3c0.6-1.9,1.2-3.8,1.8-5.7c0.4-1.3,1.1-2.6,1.4-3.9c0.5-2.6,0-5-2.1-6.8
	c-2.1-1.8-4.5-2-6.9-0.8c-1.9,1-3.8,2.4-5.2,4c-2.9,3.5-4.6,7.7-6.2,11.9c-0.5,1.3,0.1,2.3,1.3,2.9c1.2,0.6,2.5,0,3-1.3
	c0.2-0.3,0.2-0.7,0.4-1.1c1.5-3.1,3-6.2,4.7-9.1c0.8-1.3,2.1-2.3,3.4-3c1.8-1,3.2,0.2,2.9,2.3C35.6,117,35,117.9,34.8,119z M88,70.1
	c-1.1-0.2-2.2-0.6-3.3-0.6c-4.7-0.1-9.3,0-14,0c-14.2,0-28.4,0-42.5,0c-3,0-4.7,1.5-4.7,4c0,2.4,1.7,3.8,4.6,3.8
	c17.4,0,34.8,0,52.2,0c0.5,0,1.2,0,1.5-0.3c2.1-2,4.2-4.1,6.3-6.2C88.1,70.5,88.1,70.3,88,70.1z M59.8,99.6c0.4,0,1-0.2,1.3-0.5
	c1.9-2.3,3.8-4.6,6-7.1c-13.5,0-26.8,0-40,0c-2.1,0-3.6,1.7-3.6,3.8c0,2.1,1.5,3.8,3.6,3.8C38,99.6,48.9,99.6,59.8,99.6z M27.4,54.7
	c9.7,0,19.5,0,29.2,0c2.7,0,4.3-1.6,4.3-3.8c0-2.4-1.7-3.9-4.4-3.9c-4.8,0-9.6,0-14.3,0c-4.9,0-9.8,0-14.7,0c-2.7,0-4.3,1.4-4.4,3.7
	C23.1,53.2,24.6,54.7,27.4,54.7z"/>
</svg>
