<?xml version="1.0" encoding="utf-8"?>
<!-- Generator: Adobe Illustrator 18.1.1, SVG Export Plug-In . SVG Version: 6.00 Build 0)  -->
<svg version="1.1" id="圖層_1" xmlns="http://www.w3.org/2000/svg" xmlns:xlink="http://www.w3.org/1999/xlink" x="0px" y="0px"
	 viewBox="0 0 121.4 150" enable-background="new 0 0 121.4 150" xml:space="preserve">
<path fill="#FFFFFF" d="M112.3,89.8c0.2-0.6,0.3-1.2,0.3-1.8l-0.1-76.5c-0.6-6.4-5.9-11.4-12.3-11.4L11.4,0.1
	C5.1,0.6,0.1,6,0.1,12.5v6.7H0l0,99.6h0v6.7c0,6.9,5.6,12.6,12.5,12.6h6.2v0l18.4,0c3.5,0,6.2-2.8,6.2-6.3c0-3.5-2.8-6.3-6.2-6.3
	l-19.8,0l7.6-0.2c-10,0-12.5-1.9-12.5-12.6l0.1,12.8l-0.1,0l-0.1-113l0.1,0l-0.1,12.6c0-10.7,2.5-12.6,12.5-12.6l-4-0.1l72.2,0
	l-5.7,0.1c9.3,0,12.1,1.6,12.4,10.3l0,57.8c-4.5-2-9.5-3.2-14.8-3.2c-19.9,0-36.2,16.2-36.2,36.2c0,19.9,16.2,36.2,36.2,36.2
	c19.9,0,36.2-16.2,36.2-36.2C121.4,104.6,117.9,96.2,112.3,89.8z M85.2,140c-14.4,0-26.1-11.7-26.1-26.1c0-14.4,11.7-26.1,26.1-26.1
	c14.4,0,26.1,11.7,26.1,26.1C111.4,128.2,99.7,140,85.2,140z M99.1,108.8h-8.9v-8.9c0-2.8-2.2-5-5-5s-5,2.2-5,5v8.9h-8.9
	c-2.8,0-5,2.2-5,5c0,2.8,2.2,5,5,5h8.9v8.9c0,2.8,2.2,5,5,5s5-2.2,5-5v-8.9h8.9c2.8,0,5-2.2,5-5C104.2,111,101.9,108.8,99.1,108.8z
	 M24.9,69.1L87.6,69c3.5,0,6.2-2.8,6.2-6.3c0-3.5-2.8-6.3-6.2-6.3l-62.7,0.1c-3.5,0-6.2,2.8-6.2,6.3C18.6,66.3,21.4,69.1,24.9,69.1z
	 M24.9,44l62.7-0.1c3.5,0,6.2-2.8,6.2-6.3c0-3.5-2.8-6.3-6.2-6.3l-62.7,0.1c-3.5,0-6.2,2.8-6.2,6.3C18.6,41.2,21.4,44,24.9,44z"/>
</svg>
