<?xml version="1.0" encoding="utf-8"?>
<!-- Generator: Adobe Illustrator 18.1.1, SVG Export Plug-In . SVG Version: 6.00 Build 0)  -->
<svg version="1.1" id="圖層_1" xmlns="http://www.w3.org/2000/svg" xmlns:xlink="http://www.w3.org/1999/xlink" x="0px" y="0px"
	 viewBox="0 0 141.6 150" enable-background="new 0 0 141.6 150" xml:space="preserve">
<path fill="#FFFFFF" d="M13.8,89.4v57.9c0,1.5,1.2,2.6,2.6,2.6h62.2V97.5h29.2V150h17.4c1.5,0,2.6-1.2,2.6-2.6V89.4l-57-56.8
	L13.8,89.4z M60.1,122H33.8V97.5h26.4V122z M60.1,122 M139.4,68.6L70.8,0L38.4,32.3V18.1c0-3.3-2.7-6-6-6c-3.3,0-6,2.7-6,6v26.3
	L2.2,68.6c-2.9,2.9-2.9,7.7,0,10.6c1.5,1.5,3.4,2.2,5.3,2.2c1.9,0,3.9-0.7,5.3-2.2l57.9-57.9l57.9,57.9c2.9,3,7.7,3,10.6,0
	C142.3,76.3,142.3,71.5,139.4,68.6L139.4,68.6z M139.4,68.6"/>
</svg>
