<?xml version="1.0" encoding="utf-8"?>
<!-- Generator: Adobe Illustrator 18.1.1, SVG Export Plug-In . SVG Version: 6.00 Build 0)  -->
<svg version="1.1" id="圖層_1" xmlns="http://www.w3.org/2000/svg" xmlns:xlink="http://www.w3.org/1999/xlink" x="0px" y="0px"
	 viewBox="0 0 140.2 150" enable-background="new 0 0 140.2 150" xml:space="preserve">
<path fill="#0091EA" d="M139.3,138.6l-17-22.2c-1.3-1.7-3.6-2.2-5.4-1.2l-3.5-4.5c10.2-10.6,11.5-27.4,2.3-39.4
	c-10.1-13.2-29.1-15.7-42.3-5.5c-13.2,10.1-15.7,29.1-5.5,42.3c9.2,12,25.8,15.2,38.6,8l3.5,4.5c-1.4,1.5-1.5,3.8-0.2,5.5l17,22.2
	c1.5,1.9,4.2,2.3,6.1,0.8l5.7-4.4C140.4,143.3,140.7,140.5,139.3,138.6z M103.5,105.1c-8.5,6.5-20.6,4.9-27.1-3.6
	c-6.5-8.5-4.9-20.6,3.5-27.2c8.5-6.5,20.7-4.9,27.2,3.6C113.5,86.4,112,98.6,103.5,105.1z M114.5,142.1c-0.3,0-0.6,0-0.8,0H9.4
	c-1.6,0-1.6,0-1.6-1.7c0-42.5,0-85,0-127.5c0-1.1,0.3-1.7,1.2-2.2c0.9-0.5,1.8-1,3.1-1.8v2.1c0,29.4,0,58.8,0,88.2
	c0,5.1,0.1,10.2,0.6,15.2c0.5,5.4,1.7,10.8,4.3,15.7c1.2,2.3,2.7,4.3,4.8,5.8c1.2,0.8,2.4,1.3,3.9,1.3c28.8,0,57.5,0,86.3,0
	l-6.2-8.1c-1.1-1.4-1.7-3-1.8-4.6c-0.3-0.6-0.6-1.1-0.8-1.7c-1,0.3-1.9,0.5-2.9,0.8c0.7,1.6,1.6,3.2,2.3,4.8c0.1,0.2,0.3,0.5,0.5,1
	h-1.4c-6.7,0-13.5,0-20.2,0c-0.8,0-1.4-0.3-1.9-0.9c-2.1-2.3-3.5-5-4.4-7.9c-1.4-0.7-2.7-1.6-4-2.5c0.5,1.9,1.1,3.9,1.9,5.7
	c0.8,1.8,1.8,3.6,2.8,5.5c-0.5,0-0.9,0.1-1.2,0.1c-6.7,0-13.5,0-20.2,0c-0.8,0-1.4-0.3-1.9-0.9c-2.8-3.2-4.4-7-5.3-11.1
	c-0.7-3.1-1.1-6.3-1.6-9.4c-0.1-0.8,0.3-0.9,1-0.9c2.2,0,4.4,0,6.6,0h8.1c-0.6-1-1.1-2.1-1.6-3.1c-4.5,0-8.9,0-13.4,0
	c-0.8,0-1-0.3-1-1.1c0-6.8-0.1-13.7-0.1-20.5c0-1,0.3-1.4,1.4-1.4c3.6,0.1,7.1,0,10.7,0h0.6c0.3-1.1,0.6-2.2,1-3.2
	c-0.5,0-1.1,0-1.6,0c-3.6,0-7.2,0-10.8,0c-0.8,0-1.2-0.2-1.2-1.1c0-6.9,0-13.8,0-20.6c0-0.9,0.3-1.1,1.2-1.1c7.2,0,14.4,0,21.6,0
	c1,0,1.2,0.3,1.2,1.3c0,2.2,0,4.4,0,6.6c0.4-0.3,0.8-0.7,1.2-1c0.6-0.5,1.3-0.8,1.9-1.2c0-1.5,0-3,0-4.6c0-0.9,0.3-1.1,1.2-1.1
	c4.6,0,9.3,0,13.9,0c1.4-0.2,2.9-0.4,4.3-0.4c2.7,0,5.3,0.3,7.8,0.9c0.2-0.3,0.5-0.5,1-0.5c6.3,0,12.7,0,19,0c1,0,1.2,0.4,1.2,1.3
	c0,3.4,0,6.8,0,10.3c0,1.2,0,2.5,0,3.7c7.9,11.7,7.8,27.1,0.2,38.7c0,0.4,0.1,0.8,0.1,1.2c2,0.5,3.8,1.6,5.1,3.3l5.1,6.6
	c-1.2-4.3-2-8.8-2.4-13.4c-0.3-3.6-0.3-7.3-0.3-10.9c0-31.5,0-62.9,0-94.4c0-1-0.2-1.4-1.3-1.4C89.2,0,51.1,0,13,0
	c-0.7,0-1.5,0.2-2.1,0.6C7.7,2.4,4.6,4.4,1.3,6.2C0.4,6.8,0,7.4,0,8.5c0,46.6,0,93.2,0,139.9c0,1.6,0,1.6,1.5,1.6h95.2
	c8.3,0,16.6,0,25,0l-6.6-8.5C115.2,141.9,115,142.1,114.5,142.1z M100.4,28.8c6.4,0,12.8,0,19.1,0c0.9,0,1.2,0.3,1.2,1.3
	c0,3.4,0,6.8,0,10.3c0,3.4,0,6.8,0,10.3c0,0.9-0.3,1.2-1.2,1.2c-6.4,0-12.8,0-19.1,0c-0.9,0-1.1-0.3-1.1-1.2c0-6.9,0-13.7,0-20.6
	C99.3,29.1,99.6,28.8,100.4,28.8z M73.3,28.8c7.2,0,14.5,0,21.7,0c0.9,0,1.2,0.3,1.2,1.2c0,6.9,0,13.7,0,20.6c0,0.9-0.3,1.2-1.2,1.1
	c-3.6,0-7.3,0-10.9,0c-3.6,0-7.2,0-10.8,0c-0.9,0-1.2-0.3-1.2-1.2c0-6.9,0-13.7,0-20.6C72.2,29.1,72.5,28.8,73.3,28.8z M46.2,28.8
	c7.2,0,14.5,0,21.7,0c0.9,0,1.2,0.3,1.2,1.2c0,6.9,0,13.7,0,20.6c0,0.9-0.3,1.2-1.2,1.2c-3.6,0-7.3,0-10.9,0c-3.6,0-7.2,0-10.8,0
	c-0.9,0-1.2-0.3-1.2-1.1c0-6.9,0-13.7,0-20.6C45.1,29.1,45.4,28.8,46.2,28.8z M42.4,108.7c0.4,4.4,1.1,8.7,2.6,12.8
	c0.9,2.4,2.2,4.6,3.3,7c0.1,0.2,0.2,0.5,0.5,1h-1.3c-6.8,0-13.7,0-20.5,0c-0.8,0-1.4-0.3-1.9-0.9c-1.9-2.5-2.8-5.3-3.6-8.3
	c-1-4-1.4-8.2-1.6-12.3c0-0.7,0.2-0.9,0.9-0.9c1.4,0,2.9,0,4.3,0h15.6C42.3,107,42.3,107.1,42.4,108.7z M42,102.8
	c0,0.9-0.3,1.2-1.1,1.2c-6.6,0-13.3,0-19.9,0c-0.8,0-1.2-0.3-1.2-1.2c0-6.9,0-13.8,0-20.6c0-0.9,0.2-1.2,1.1-1.2
	c6.6,0,13.3,0,19.9,0c0.9,0,1.2,0.3,1.1,1.2c0,3.5,0,6.9,0,10.4h0C42,95.9,42,99.4,42,102.8z M21,28.8c6.6,0,13.3,0,19.9,0
	c0.9,0,1.2,0.3,1.1,1.2c0,6.9,0,13.7,0,20.6c0,0.9-0.3,1.1-1.2,1.1c-6.6,0-13.3,0-19.9,0c-0.9,0-1.1-0.3-1.1-1.2c0-3.5,0-6.9,0-10.4
	c0-3.4,0-6.8,0-10.3C19.8,29.1,20.1,28.8,21,28.8z M21.1,54.9c6.6,0,13.1,0,19.7,0c1,0,1.3,0.4,1.2,1.3c0,3.4,0,6.8,0,10.2
	c0,3.4,0,6.8,0,10.2c0,0.9-0.2,1.3-1.2,1.3c-6.6,0-13.2,0-19.8,0c-1,0-1.2-0.3-1.2-1.2c0-6.8,0-13.6,0-20.4
	C19.8,55.2,20.1,54.9,21.1,54.9z"/>
</svg>
