<?xml version="1.0" encoding="utf-8"?>
<!-- Generator: Adobe Illustrator 18.1.1, SVG Export Plug-In . SVG Version: 6.00 Build 0)  -->
<svg version="1.1" id="圖層_1" xmlns="http://www.w3.org/2000/svg" xmlns:xlink="http://www.w3.org/1999/xlink" x="0px" y="0px"
	 viewBox="0 0 128.4 150" enable-background="new 0 0 128.4 150" xml:space="preserve">
<g>
	<g>
		<g>
			<path fill="#CCCCCC" d="M13.5,150c-3,0-6.1-1-8.6-3.1c-5.8-4.8-6.6-13.3-1.8-19L104.5,4.9c4.8-5.8,13.3-6.6,19-1.8
				c5.8,4.8,6.6,13.3,1.8,19L24,145.1C21.3,148.3,17.4,150,13.5,150z"/>
		</g>
		<g>
			<path fill="#CCCCCC" d="M114.9,150c3,0,6.1-1,8.6-3.1c5.8-4.8,6.6-13.3,1.8-19L24,4.9c-4.8-5.8-13.3-6.6-19-1.8
				c-5.8,4.8-6.6,13.3-1.8,19l101.4,122.9C107.2,148.3,111,150,114.9,150z"/>
		</g>
	</g>
</g>
</svg>
