<?xml version="1.0" encoding="utf-8"?>
<!-- Generator: Adobe Illustrator 18.1.1, SVG Export Plug-In . SVG Version: 6.00 Build 0)  -->
<svg version="1.1" id="圖層_1" xmlns="http://www.w3.org/2000/svg" xmlns:xlink="http://www.w3.org/1999/xlink" x="0px" y="0px"
	 viewBox="0 0 150 150" enable-background="new 0 0 150 150" xml:space="preserve">
<path fill="#4D4D4D" d="M72.1,100.3H65c1.9,4,4.3,7.9,7.1,11.5V100.3z M41.8,100.3c6.3,8.1,15.6,13.9,26.1,15.7
	c-3.8-4.8-7-10.1-9.3-15.7H41.8z M56.5,54.5H38c-2.8,5.1-4.5,10.9-4.9,17h20.5C53.8,65.7,54.8,60,56.5,54.5z M53.5,77.4H33.1
	c0.4,6.1,2.2,11.9,4.9,17h18.5C54.8,89,53.8,83.2,53.5,77.4z M90.6,99.9l9-8.7l-18.1-9.4L90.6,99.9z M41.8,48.7h16.8
	c2.3-5.6,5.5-10.8,9.3-15.7C57.4,34.8,48.2,40.6,41.8,48.7z M82.1,33c3.8,4.8,7,10.1,9.3,15.7h16.8C101.8,40.6,92.6,34.8,82.1,33z
	 M72.1,48.7V37.2c-2.8,3.6-5.2,7.4-7.1,11.5H72.1z M75,0C33.6,0,0,33.6,0,75s33.6,75,75,75s75-33.6,75-75S116.4,0,75,0z M115,115.1
	c-0.7,0.7-1.5,1-2.4,1s-1.7-0.3-2.4-1l-12.6-12.6l-5.6,5.4c-0.6,0.6-1.5,0.9-2.3,0.9c-0.2,0-0.4,0-0.6,0c-1.1-0.2-2-0.9-2.4-1.8
	L70.8,75.5c-0.7-1.3-0.4-2.9,0.6-3.9s2.6-1.3,3.9-0.6l31.5,16.3c1,0.5,1.6,1.4,1.8,2.5c0.2,1.1-0.2,2.2-1,2.9l-5.2,5.1l12.5,12.5
	C116.3,111.7,116.3,113.8,115,115.1z M114.6,101.3c-0.5,0.7-1.5,0.8-2.1,0.2l-2.7-2.7c-0.5-0.5-0.5-1.4,0-2c1.4-1.3,2.2-2.1,2.8-3.8
	c2.4-4.8,3.9-10.1,4.3-15.7H99.4c-1.2,0-2.4-0.3-3.5-0.9L89,73c-0.7-0.4-0.4-1.4,0.3-1.4h1.3c-0.3-5.9-1.4-11.6-3.3-17h-9.4v11.1
	c0,0.7-0.7,1.2-1.4,1c-1.1-0.4-2.2-0.6-3.3-0.5c-0.6,0.1-1.1-0.4-1.1-1V54.5h-9.4c-1.9,5.4-3,11.2-3.3,17h6.2c0.4,0,0.7,0.3,0.6,0.7
	c-0.3,1.4-0.2,2.9,0.3,4.3c0.1,0.4-0.1,0.8-0.6,0.8h-6.5c0.3,5.9,1.4,11.6,3.3,17h9.4v-2c0-1.1,1.4-1.4,1.9-0.4l3.5,7.3
	c0.3,0.6,0.4,1.3,0.4,2v10.4c0.9-1.1,1.7-2.3,2.5-3.4c0.5-0.7,1.5-0.6,1.9,0.1c0.6,1.1,1.1,2,2,2.9c0.4,0.4,0.5,1,0.2,1.4
	c-0.8,1.1-1.6,2.1-2.4,3.2c5.5-0.9,10.7-3,15.5-6c0.4-0.2,0.9-0.2,1.2,0.1l2.8,2.8c0.4,0.4,0.4,1.2-0.2,1.5c-7.6,5-16.7,8-26.4,8
	c-26.4,0-47.9-21.4-47.9-47.9c0-26.4,21.5-47.9,47.9-47.9h0c26.4,0,47.9,21.5,47.9,47.9C122.9,84.1,120,93.4,114.6,101.3z
	 M96.5,71.6h20.5c-0.4-6.1-2.2-11.9-4.9-17H93.5C95.2,60,96.2,65.7,96.5,71.6z M77.9,48.7H85c-1.9-4-4.3-7.9-7.1-11.5V48.7z"/>
</svg>
