<?xml version="1.0" encoding="utf-8"?>
<!-- Generator: Adobe Illustrator 18.1.1, SVG Export Plug-In . SVG Version: 6.00 Build 0)  -->
<svg version="1.1" id="圖層_1" xmlns="http://www.w3.org/2000/svg" xmlns:xlink="http://www.w3.org/1999/xlink" x="0px" y="0px"
	 viewBox="0 0 168.2 150" enable-background="new 0 0 168.2 150" xml:space="preserve">
<path fill="#C1272D" d="M165.9,125.3L98.3,8.2C95.4,3.1,90,0,84.1,0c-6,0-11.3,3.1-14.3,8.2L2.2,125.3c-3,5.2-3,11.3,0,16.5
	c3,5.2,8.3,8.2,14.3,8.2h135.2c6,0,11.3-3.1,14.3-8.2C168.9,136.6,168.9,130.5,165.9,125.3z M153.6,134.6c-0.2,0.4-0.8,1.1-1.9,1.1
	H16.5c-1.1,0-1.7-0.7-1.9-1.1c-0.2-0.4-0.6-1.3,0-2.2L82.2,15.4c0.6-1,1.4-1.1,1.9-1.1s1.4,0.1,1.9,1.1l67.6,117.1
	C154.2,133.4,153.8,134.2,153.6,134.6z M84.1,40.3c-5.3,0-9.7,6.5-9.7,14.4c0,0,4.4,56,9.7,56c5.3,0,9.7-56,9.7-56
	C93.8,46.8,89.4,40.3,84.1,40.3z M84.1,119.1c-2.9,0-5.3,2.4-5.3,5.3c0,3,2.4,5.3,5.3,5.3c3,0,5.3-2.4,5.3-5.3
	C89.4,121.5,87,119.1,84.1,119.1z"/>
</svg>
