<?xml version="1.0" encoding="utf-8"?>
<!-- Generator: Adobe Illustrator 18.1.1, SVG Export Plug-In . SVG Version: 6.00 Build 0)  -->
<svg version="1.1" id="圖層_1" xmlns="http://www.w3.org/2000/svg" xmlns:xlink="http://www.w3.org/1999/xlink" x="0px" y="0px"
	 viewBox="0 0 157.2 150" enable-background="new 0 0 157.2 150" xml:space="preserve">
<path fill="#4D4D4D" d="M148.7,9h-28.5V3.5c0-1.9-1.5-3.5-3.4-3.5s-3.4,1.6-3.4,3.5V9h-8.5V3.5c0-1.9-1.5-3.5-3.4-3.5
	c-1.9,0-3.4,1.6-3.4,3.5V9h-8.5V3.5c0-1.9-1.5-3.5-3.4-3.5c-1.9,0-3.4,1.6-3.4,3.5V9h-8.5V3.5C74.4,1.6,72.8,0,71,0
	c-1.9,0-3.4,1.6-3.4,3.5V9h-8.5V3.5c0-1.9-1.5-3.5-3.4-3.5c-1.9,0-3.4,1.6-3.4,3.5V9h-8.5V3.5c0-1.9-1.5-3.5-3.4-3.5S37,1.6,37,3.5
	V9H8.5C3.8,9,0,12.8,0,17.4v124.1c0,4.7,3.8,8.4,8.5,8.4h140.2c4.7,0,8.5-3.8,8.5-8.4V17.4C157.2,12.8,153.4,9,148.7,9z
	 M150.4,141.6c0,0.8-0.8,1.5-1.7,1.5H8.5c-0.9,0-1.7-0.7-1.7-1.5V17.4c0-0.8,0.8-1.5,1.7-1.5H37v4.8c0,1.9,1.5,3.5,3.4,3.5
	s3.4-1.6,3.4-3.5v-4.8h8.5v4.8c0,1.9,1.5,3.5,3.4,3.5c1.9,0,3.4-1.6,3.4-3.5v-4.8h8.5v4.8c0,1.9,1.5,3.5,3.4,3.5
	c1.9,0,3.4-1.6,3.4-3.5v-4.8h8.5v4.8c0,1.9,1.5,3.5,3.4,3.5c1.9,0,3.4-1.6,3.4-3.5v-4.8h8.5v4.8c0,1.9,1.5,3.5,3.4,3.5
	c1.9,0,3.4-1.6,3.4-3.5v-4.8h8.5v4.8c0,1.9,1.5,3.5,3.4,3.5s3.4-1.6,3.4-3.5v-4.8h28.5c0.9,0,1.7,0.7,1.7,1.5V141.6z M52.4,38.4
	h74.4c1.3,0,2.4-1,2.4-2.3c0-1.3-1.1-2.3-2.4-2.3H52.4c-1.3,0-2.4,1-2.4,2.3C50,37.3,51.1,38.4,52.4,38.4z M137.1,43.7H52.4
	c-1.3,0-2.4,1-2.4,2.3c0,1.3,1.1,2.3,2.4,2.3h84.6c1.3,0,2.4-1,2.4-2.3C139.4,44.7,138.4,43.7,137.1,43.7z M38.5,31.9l-11,10.8
	l-6-5.8c-0.9-0.9-2.4-0.9-3.4,0c-0.9,0.9-0.9,2.4,0,3.3l7.6,7.4c0.5,0.5,1.1,0.7,1.7,0.7s1.2-0.2,1.7-0.7l12.7-12.4
	c0.9-0.9,0.9-2.4,0-3.3C41,31,39.5,31,38.5,31.9z M52.4,65.7h74.4c1.3,0,2.4-1,2.4-2.3c0-1.3-1.1-2.3-2.4-2.3H52.4
	c-1.3,0-2.4,1-2.4,2.3C50,64.7,51.1,65.7,52.4,65.7z M137.1,71H52.4c-1.3,0-2.4,1-2.4,2.3c0,1.3,1.1,2.3,2.4,2.3h84.6
	c1.3,0,2.4-1,2.4-2.3C139.4,72.1,138.4,71,137.1,71z M38.5,59.3l-11,10.8l-6-5.8c-0.9-0.9-2.4-0.9-3.4,0c-0.9,0.9-0.9,2.4,0,3.3
	l7.6,7.4c0.5,0.5,1.1,0.7,1.7,0.7s1.2-0.2,1.7-0.7l12.7-12.4c0.9-0.9,0.9-2.4,0-3.3C41,58.4,39.5,58.4,38.5,59.3z M52.4,93.1h74.4
	c1.3,0,2.4-1,2.4-2.3c0-1.3-1.1-2.3-2.4-2.3H52.4c-1.3,0-2.4,1-2.4,2.3C50,92.1,51.1,93.1,52.4,93.1z M137.1,98.4H52.4
	c-1.3,0-2.4,1-2.4,2.3c0,1.3,1.1,2.3,2.4,2.3h84.6c1.3,0,2.4-1,2.4-2.3C139.4,99.4,138.4,98.4,137.1,98.4z M38.5,86.6l-11,10.8
	l-6-5.8c-0.9-0.9-2.4-0.9-3.4,0c-0.9,0.9-0.9,2.4,0,3.3l7.6,7.4c0.5,0.5,1.1,0.7,1.7,0.7s1.2-0.2,1.7-0.7l12.7-12.4
	c0.9-0.9,0.9-2.4,0-3.3C41,85.7,39.5,85.7,38.5,86.6z M52.4,120.5h74.4c1.3,0,2.4-1,2.4-2.3c0-1.3-1.1-2.3-2.4-2.3H52.4
	c-1.3,0-2.4,1-2.4,2.3C50,119.4,51.1,120.5,52.4,120.5z M137.1,125.7H52.4c-1.3,0-2.4,1-2.4,2.3c0,1.3,1.1,2.3,2.4,2.3h84.6
	c1.3,0,2.4-1,2.4-2.3C139.4,126.8,138.4,125.7,137.1,125.7z M38.5,114l-11,10.8l-6-5.8c-0.9-0.9-2.4-0.9-3.4,0
	c-0.9,0.9-0.9,2.4,0,3.3l7.6,7.4c0.5,0.5,1.1,0.7,1.7,0.7s1.2-0.2,1.7-0.7l12.7-12.4c0.9-0.9,0.9-2.4,0-3.3
	C41,113.1,39.5,113.1,38.5,114z"/>
</svg>
