<?xml version="1.0" encoding="utf-8"?>
<!-- Generator: Adobe Illustrator 18.1.1, SVG Export Plug-In . SVG Version: 6.00 Build 0)  -->
<svg version="1.1" id="圖層_1" xmlns="http://www.w3.org/2000/svg" xmlns:xlink="http://www.w3.org/1999/xlink" x="0px" y="0px"
	 width="113.5px" height="36.2px" viewBox="0 0 113.5 36.2" enable-background="new 0 0 113.5 36.2" xml:space="preserve">
<g>
	<g>
		<g>
			<linearGradient id="SVGID_1_" gradientUnits="userSpaceOnUse" x1="56.765" y1="1.3935" x2="56.765" y2="36.3752">
				<stop  offset="0" style="stop-color:#C5FAFF"/>
				<stop  offset="0.1264" style="stop-color:#BFF6FE"/>
				<stop  offset="0.3023" style="stop-color:#ADEDFA"/>
				<stop  offset="0.5073" style="stop-color:#8FDCF4"/>
				<stop  offset="0.7342" style="stop-color:#66C6EC"/>
				<stop  offset="0.9765" style="stop-color:#31A9E1"/>
				<stop  offset="1" style="stop-color:#2CA6E0"/>
			</linearGradient>
			<path fill="url(#SVGID_1_)" d="M11.1,36.2C5,36.2,0,31.3,0,25.2V11.1C0,5,5,0,11.1,0h91.4c6.1,0,11.1,5,11.1,11.1v14.1
				c0,6.1-5,11.1-11.1,11.1H11.1z"/>
		</g>
		<g>
			<path fill="#2789BA" d="M11.1,34.2c-5,0-9.1-4.1-9.1-9.1V11.1C2,6.1,6.1,2,11.1,2h91.4c5,0,9.1,4.1,9.1,9.1v14.1
				c0,5-4.1,9.1-9.1,9.1H11.1z"/>
		</g>
		<g>
			<path fill="#4FC3FC" d="M110.5,25.2c0,4.4-3.6,8-8,8H11.1c-4.4,0-8-3.6-8-8V11.1c0-4.4,3.6-8,8-8h91.4c4.4,0,8,3.6,8,8V25.2z"/>
		</g>
		<g>
			<linearGradient id="SVGID_2_" gradientUnits="userSpaceOnUse" x1="56.765" y1="25.7258" x2="56.765" y2="3.0196">
				<stop  offset="0" style="stop-color:#CBFAF5"/>
				<stop  offset="0.1233" style="stop-color:#C5F7F4"/>
				<stop  offset="0.2949" style="stop-color:#B3EDF2"/>
				<stop  offset="0.4948" style="stop-color:#95DDEE"/>
				<stop  offset="0.7161" style="stop-color:#6CC8E8"/>
				<stop  offset="0.9524" style="stop-color:#37ACE2"/>
				<stop  offset="1" style="stop-color:#2CA6E0"/>
			</linearGradient>
			<path fill="url(#SVGID_2_)" d="M110.5,15.5v-4.4c0-4.4-3.6-8-8-8H11.1c-4.4,0-8,3.6-8,8v14.1c0,0.2,0,0.4,0,0.6
				C23,16.9,88,11.2,110.5,15.5z"/>
		</g>
	</g>
</g>
</svg>
