<?xml version="1.0" encoding="utf-8"?>
<!-- Generator: Adobe Illustrator 21.0.0, SVG Export Plug-In . SVG Version: 6.00 Build 0)  -->
<svg version="1.1" id="圖層_1" xmlns="http://www.w3.org/2000/svg" xmlns:xlink="http://www.w3.org/1999/xlink" x="0px" y="0px"
	 viewBox="0 0 105.8 43.2" style="enable-background:new 0 0 105.8 43.2;" xml:space="preserve">
<style type="text/css">
	.st0{fill:url(#SVGID_1_);}
	.st1{fill:#FFFFFF;}
</style>
<g>
	
		<linearGradient id="SVGID_1_" gradientUnits="userSpaceOnUse" x1="52.9" y1="2.2453" x2="52.9" y2="45.4453" gradientTransform="matrix(1 0 0 -1 0 45.4)">
		<stop  offset="0" style="stop-color:#47822E"/>
		<stop  offset="0.1685" style="stop-color:#508B38"/>
		<stop  offset="0.4584" style="stop-color:#69A354"/>
		<stop  offset="0.8322" style="stop-color:#92CA81"/>
		<stop  offset="1" style="stop-color:#A6DD97"/>
	</linearGradient>
	<path class="st0" d="M0,0.9v40.6c0,0.9,0.7,1.7,1.7,1.7h102.4c0.9,0,1.7-0.7,1.7-1.7V0.9c0-0.5-0.4-0.9-0.9-0.9H0.9
		C0.4,0,0,0.4,0,0.9z"/>
	<path class="st1" d="M39.6,12.4H20.8c-0.7,0-1.2,0.7-1.2,1.6v12.2c0,0.9,0.6,1.6,1.2,1.6H33l5.1,4.6l0.4-4.6h1.1
		c0.7,0,1.2-0.7,1.2-1.6V14C40.8,13.1,40.3,12.4,39.6,12.4z M30.2,25.6c-1.7,0-3.2-0.6-4.3-1.7c0-2.1,1.5-3.8,3.4-4.2
		c-1-0.4-1.7-1.3-1.7-2.4c0-1.4,1.2-2.6,2.6-2.6c1.4,0,2.6,1.2,2.6,2.6c0,1.1-0.7,2-1.7,2.4c1.9,0.4,3.4,2.1,3.4,4.2
		C33.4,24.9,31.9,25.6,30.2,25.6z"/>
</g>
</svg>
