<?xml version="1.0" encoding="utf-8"?>
<!-- Generator: Adobe Illustrator 18.1.1, SVG Export Plug-In . SVG Version: 6.00 Build 0)  -->
<svg version="1.1" id="圖層_1" xmlns="http://www.w3.org/2000/svg" xmlns:xlink="http://www.w3.org/1999/xlink" x="0px" y="0px"
	 viewBox="0 0 509.1 57.4" enable-background="new 0 0 509.1 57.4" xml:space="preserve">
<g>
	<g>
		<linearGradient id="SVGID_1_" gradientUnits="userSpaceOnUse" x1="254.5625" y1="58.3263" x2="254.5625" y2="6.9411">
			<stop  offset="0" style="stop-color:#002368"/>
			<stop  offset="0.2052" style="stop-color:#124889"/>
			<stop  offset="0.4095" style="stop-color:#2065A3"/>
			<stop  offset="0.6114" style="stop-color:#2A7AB5"/>
			<stop  offset="0.8096" style="stop-color:#3087C0"/>
			<stop  offset="1" style="stop-color:#328BC4"/>
		</linearGradient>
		<path fill="url(#SVGID_1_)" d="M509.1,57.4V5.3c0-2.9-1.6-5.3-3.6-5.3H3.6C1.6,0,0,2.4,0,5.3v52.1H509.1z"/>
		<path opacity="0.2" fill="#002368" d="M509.1,44c-36.6,15.5-379.7,9.9-392.5,8.8C8.5,43.5,1.9,11.4,2.8,0.1C1.2,0.7,0,2.8,0,5.3
			v52.1h509.1V44z"/>
		<path opacity="0.15" fill="#4ECDF9" d="M509.1,57.4V5.3c0-2.9-1.6-5.3-3.6-5.3H35.4C98,0,368.1,4.7,455.8,57.4H509.1z"/>
		<path opacity="0.2" fill="#E1FEFF" d="M505.5,0H255.1c206.5,1.9,247.6,44.2,253.7,57.4c0.1-0.4,0.2-21.9,0.3-22.3V5.3
			C509.1,2.4,507.5,0,505.5,0z"/>
		<path opacity="0.2" fill="#E1FEFF" d="M0,5.3v52.1C22.9,28.7,99.6,0.1,202.4,0H3.6C1.6,0,0,2.4,0,5.3z"/>
	</g>
	
		<radialGradient id="SVGID_2_" cx="1749.3555" cy="-987.6533" r="15.8754" gradientTransform="matrix(29.6346 0 0 3.236 -51875.9063 3227.6912)" gradientUnits="userSpaceOnUse">
		<stop  offset="0" style="stop-color:#FFFFFF"/>
		<stop  offset="1" style="stop-color:#FFFFFF;stop-opacity:0"/>
	</radialGradient>
	<path opacity="0.25" fill="url(#SVGID_2_)" d="M509.1,57.4L0,57.4L0,4.9C0,2.2,2.2,0,4.9,0l499.3,0c2.7,0,4.9,2.2,4.9,4.9
		L509.1,57.4z"/>
	<g>
		<g>
			<path fill="#CCCCCC" d="M474.1,23.1l1.6-1.9l7.8,7.9l7.7-7.8l1.7,1.8l-7.7,7.8l7.6,7.7l-1.6,1.9l-7.8-7.9l-7.8,7.9l-1.6-1.8
				l7.7-7.8L474.1,23.1z"/>
		</g>
	</g>
</g>
</svg>
