<?xml version="1.0" encoding="utf-8"?>
<!-- Generator: Adobe Illustrator 18.1.1, SVG Export Plug-In . SVG Version: 6.00 Build 0)  -->
<svg version="1.1" id="圖層_1" xmlns="http://www.w3.org/2000/svg" xmlns:xlink="http://www.w3.org/1999/xlink" x="0px" y="0px"
	 viewBox="0 0 146.1 37.5" enable-background="new 0 0 146.1 37.5" xml:space="preserve">
<g>
	<g>
		<g>
			<path fill-rule="evenodd" clip-rule="evenodd" fill="#0C5F8E" d="M0,2.8c0-1.1,1.2-2,2.6-2h140.9c1.4,0,2.6,0.9,2.6,2v32.7
				c0,1.1-1.2,2-2.6,2H2.6c-1.4,0-2.6-0.9-2.6-2V2.8z"/>
			<path fill-rule="evenodd" clip-rule="evenodd" fill="#1281B2" d="M143.5,0H2.6C1.2,0,0,0.9,0,2v0.8c0-1.1,1.2-2,2.6-2h140.9
				c1.4,0,2.6,0.9,2.6,2V2C146.1,0.9,145,0,143.5,0z"/>
			<path opacity="0.3" fill-rule="evenodd" clip-rule="evenodd" fill="#1E2023" d="M2.6,37.5h140.9c1.4,0,2.6-0.9,2.6-2v-1.7
				c0,1.1-1.2,2-2.6,2H2.6c-1.4,0-2.6-0.9-2.6-2v1.7C0,36.6,1.2,37.5,2.6,37.5z"/>
			<path opacity="0.1" fill="#FFFFFF" d="M0,29.6l18.9,6.2H1c0,0-0.9,0-1-0.2V29.6z"/>
			<polyline opacity="0.1" fill="#FFFFFF" points="0,22.5 7.9,35.8 0.1,35.8 			"/>
			<path opacity="0.1" fill="#FFFFFF" d="M146.1,7l-19-6.2h18c0,0,0.9,0,1,0.2V7z"/>
			<polyline opacity="0.1" fill="#FFFFFF" points="146.1,14.1 138.1,0.8 146,0.8 			"/>
		</g>
		
			<radialGradient id="SVGID_1_" cx="1544.1542" cy="-414.3822" r="5.1982" gradientTransform="matrix(25.1073 0 0 7.7477 -38779.4023 3230.1538)" gradientUnits="userSpaceOnUse">
			<stop  offset="0" style="stop-color:#FFFFFF"/>
			<stop  offset="1" style="stop-color:#FFFFFF;stop-opacity:0"/>
		</radialGradient>
		<rect x="0" y="0" opacity="0.2" fill="url(#SVGID_1_)" width="146.1" height="35.6"/>
	</g>
</g>
</svg>
