<?xml version="1.0" encoding="utf-8"?>
<!-- Generator: Adobe Illustrator 18.1.1, SVG Export Plug-In . SVG Version: 6.00 Build 0)  -->
<svg version="1.1" xmlns="http://www.w3.org/2000/svg" xmlns:xlink="http://www.w3.org/1999/xlink" x="0px" y="0px"
	 viewBox="0 0 150 150" enable-background="new 0 0 150 150" xml:space="preserve">
<g id="圖層_2" display="none">
	<rect x="0.1" y="-0.1" display="inline" fill="none" stroke="#0092EB" stroke-miterlimit="10" width="150" height="150"/>
</g>
<g id="圖層_1">
	<path fill="#0092EB" d="M120.7,17.3H29.4c-14.7,0-27,10.9-29,25h149.3C147.6,28.2,135.4,17.3,120.7,17.3z M93.3,36.5
		c-2.8,0-5.1-2.3-5.1-5.1c0-2.9,2.3-5.2,5.1-5.2c2.8,0,5.2,2.3,5.2,5.2C98.5,34.2,96.2,36.5,93.3,36.5z M110.6,36.5
		c-2.8,0-5.1-2.3-5.1-5.1c0-2.9,2.3-5.2,5.1-5.2c2.9,0,5.2,2.3,5.2,5.2C115.8,34.2,113.5,36.5,110.6,36.5z M127.9,36.5
		c-2.9,0-5.2-2.3-5.2-5.1c0-2.9,2.3-5.2,5.2-5.2c2.8,0,5.1,2.3,5.1,5.2C133,34.2,130.8,36.5,127.9,36.5z M0.1,51.6v51.5
		c0,16.2,13.1,29.4,29.4,29.4h91.3c16.2,0,29.4-13.1,29.4-29.4V51.6H0.1z M106,98.8l-9.8,2l5.6,8.3l-9.6,9.6l-8.3-5.6l-2,9.8H68.2
		l-2-9.8l-8.3,5.6l-9.6-9.6l5.6-8.3l-9.8-2V85.2l9.8-2l-5.6-8.3l9.6-9.6l8.3,5.6l2-9.8h13.6l2,9.8l8.3-5.6l9.6,9.6l-5.6,8.3l9.8,2
		V98.8z M75.1,78.6c-7.4,0-13.4,6-13.4,13.4c0,7.4,6,13.4,13.4,13.4c7.4,0,13.4-6,13.4-13.4C88.5,84.6,82.5,78.6,75.1,78.6z"/>
</g>
</svg>
