<?xml version="1.0" encoding="utf-8"?>
<!-- Generator: Adobe Illustrator 18.1.1, SVG Export Plug-In . SVG Version: 6.00 Build 0)  -->
<svg version="1.1" xmlns="http://www.w3.org/2000/svg" xmlns:xlink="http://www.w3.org/1999/xlink" x="0px" y="0px"
	 viewBox="0 0 150 150" enable-background="new 0 0 150 150" xml:space="preserve">
<g id="圖層_2" display="none">
	<rect x="0.1" y="-0.1" display="inline" fill="none" stroke="#0092EB" stroke-miterlimit="10" width="150" height="150"/>
</g>
<g id="圖層_1">
	<path fill-rule="evenodd" clip-rule="evenodd" fill="#0092EB" d="M150.1,48.9v81.5H48.9v-25H36.1v25h-2.9V95.8H20.4v34.6h-2.7V82.5
		H4.8v47.9H0.1V68.2c0,0.4,0.2,0.6,0.6,0.6H35c0.3,0,0.6-0.3,0.6-0.6V50.7H0.1v-1.7H150.1z M69.7,72.4H98v4.8H74.8v23.5h-5.1V72.4z
		 M89.1,81h12.7h5.1v28.3H78.5v-4.7V92.2V81H89.1z M60.8,63.8h28.3v4.8H65.9v23.5h-5.1V63.8z M0.1,19.4h150v25.7H0.1V19.4z
		 M134,28.3h8.2v7.8H134V28.3z M120.6,28.3h8.2v7.8h-8.2V28.3z M107.2,28.3h8.2v7.8h-8.2V28.3z M61.5,121.6h84.9v5H61.5V121.6z
		 M92.9,68.7h8.8v8.6h8.9V113H74.8v-8.4h-8.9V96h-8.8V60.1h35.9V68.7z M106.6,58.9h39.2V64h-39.2V58.9z M106.6,52.4h39.2v5.1h-39.2
		V52.4z M45.6,61l-3.5,2.7l-5.5,4.2v-8.4v-8.3l5.5,4.2l3.5,2.7V58l1,0.7l1,0.7l-1,0.7L45.6,61L45.6,61z"/>
</g>
</svg>
