<?xml version="1.0" encoding="utf-8"?>
<!-- Generator: Adobe Illustrator 18.1.1, SVG Export Plug-In . SVG Version: 6.00 Build 0)  -->
<svg version="1.1" xmlns="http://www.w3.org/2000/svg" xmlns:xlink="http://www.w3.org/1999/xlink" x="0px" y="0px"
	 viewBox="0 0 150 150" enable-background="new 0 0 150 150" xml:space="preserve">
<g id="圖層_2" display="none">
	<rect x="0.1" y="-0.1" display="inline" fill="none" stroke="#0092EB" stroke-miterlimit="10" width="150" height="150"/>
</g>
<g id="圖層_1">
	<path fill-rule="evenodd" clip-rule="evenodd" fill="#0092EB" d="M124.2,19.1v-6.9c0-6.9-5-12.3-11.1-12.3H30.8
		c-6.2,0-11.1,5.5-11.1,12.3v103.5h1.2v-0.1l12.3,0.3l0,0h0.6l80.3,0.5h0.8v-2.3c3.1,1.8,6.3,3.4,9.4,5.2V97.9V19.1z M114.8,141.1
		l0.2-20.8l-1.1-0.1l-80.3-0.5h-3.5l-0.2,21C45,140.8,99.8,141,114.8,141.1L114.8,141.1z M18.5,140.6h1.6l0.2-21l-5.2-0.1l-0.2,21
		L18.5,140.6z M135.3,131c0-0.9-0.5-1.6-1.2-2l-15.8-8.6l-0.2,21l16-8.3C134.8,132.6,135.3,131.9,135.3,131L135.3,131z M25.9,140.6
		h1.5l0.2-21l-5.2-0.1l-0.2,21L25.9,140.6z M21.5,144.4c2,3.3,5.5,5.5,9.3,5.5h82.3c4.4,0,8.2-2.9,10.1-7c-3.1,1.5-5.3,2.7-8.7,4.4
		v-2.3c-28.2-0.4-56.4-0.3-84.6-0.6h-2.9l0,0H21.5z M35.9,106.5H108c1.7,0,3.1,1.5,3.1,3.4l0,0c0,1.9-1.4,3.4-3.1,3.4H35.9
		c-1.7,0-3.1-1.5-3.1-3.4l0,0C32.7,108,34.1,106.5,35.9,106.5L35.9,106.5z M35.9,89.8H108c1.7,0,3.1,1.7,3.1,3.6l0,0
		c0,1.9-1.4,3.4-3.1,3.4H35.9c-1.7,0-3.1-1.5-3.1-3.4l0,0C32.7,91.5,34.1,89.8,35.9,89.8L35.9,89.8z M35.9,73.3H108
		c1.7,0,3.1,1.5,3.1,3.4l0,0c0,1.9-1.4,3.4-3.1,3.4H35.9c-1.7,0-3.1-1.5-3.1-3.4l0,0C32.7,74.8,34.1,73.3,35.9,73.3L35.9,73.3z
		 M35.9,56.7H108c1.7,0,3.1,1.5,3.1,3.4l0,0c0,1.9-1.4,3.6-3.1,3.6H35.9c-1.7,0-3.1-1.6-3.1-3.6l0,0C32.7,58.2,34.1,56.7,35.9,56.7
		L35.9,56.7z M35.9,40H108c1.7,0,3.1,1.6,3.1,3.6l0,0c0,1.9-1.4,3.4-3.1,3.4H35.9c-1.7,0-3.1-1.5-3.1-3.4l0,0
		C32.7,41.7,34.1,40,35.9,40L35.9,40z M35.9,23.5H108c1.7,0,3.1,1.5,3.1,3.4l0,0c0,1.9-1.4,3.4-3.1,3.4H35.9c-1.7,0-3.1-1.5-3.1-3.4
		l0,0C32.7,25,34.1,23.5,35.9,23.5L35.9,23.5z M57.1,11.5h29.6c1.7,0,3.3,1.6,3.3,3.6l0,0c0,1.9-1.5,3.4-3.3,3.4H57.1
		c-1.7,0-3.3-1.5-3.3-3.4l0,0C53.9,13.1,55.4,11.5,57.1,11.5L57.1,11.5z"/>
</g>
</svg>
