<?xml version="1.0" encoding="utf-8"?>
<!-- Generator: Adobe Illustrator 18.1.1, SVG Export Plug-In . SVG Version: 6.00 Build 0)  -->
<svg version="1.1" xmlns="http://www.w3.org/2000/svg" xmlns:xlink="http://www.w3.org/1999/xlink" x="0px" y="0px"
	 viewBox="0 0 150 150" enable-background="new 0 0 150 150" xml:space="preserve">
<g id="圖層_2" display="none">
	<rect x="0.1" y="-0.1" display="inline" fill="none" stroke="#0092EB" stroke-miterlimit="10" width="150" height="150"/>
</g>
<g id="圖層_1">
	<path fill="#0092EB" d="M70.6,125.9l14,14.3l2-1.8l50.5-49.8l2.2-2.2L125.2,72C115.7,81.4,80.1,116.6,70.6,125.9z M64.5,143.1
		c-0.2,0.7,0.1,1.5,0.7,2.1c0.6,0.6,1.4,0.8,2.1,0.7l15.7-4l-14.1-14.4L64.5,143.1z M128.3,69l-0.9,0.9l14.1,14.4l3.3-3.2
		l-14.1-14.4L128.3,69z M136,61.4l-2.3,2.2l-1,1l14.1,14.4l3.3-3.2L136,61.4z M80,31.2c-6.6,2.4-13.7,3.9-21.1,4.2v20h27.4
		C85.8,46.8,83.5,38.6,80,31.2z M86.4,61.8H58.9v20c7.6,0.3,14.9,1.9,21.6,4.4C84,78.8,86,70.5,86.4,61.8z M82.8,23.1
		c3.6-1.6,6.9-3.6,10.1-5.9C85.5,10.5,76.3,5.8,66.1,3.9C72.8,9.2,78.4,15.7,82.8,23.1z M58.9,6.4V29c6.2-0.3,12.3-1.5,18-3.5
		C72.2,18,66.1,11.5,58.9,6.4z M68.5,112.8c9.2-2.2,17.6-6.6,24.4-12.8c-3-2.1-6.1-4-9.4-5.6C79.5,101.4,74.4,107.6,68.5,112.8z
		 M92.7,55.4h18.6c-0.7-12.9-5.8-24.5-13.8-33.6c-3.6,2.6-7.5,4.9-11.6,6.9C89.8,36.9,92.2,45.9,92.7,55.4z M111.3,61.8H92.8
		c-0.3,9.6-2.6,18.7-6.4,26.9c3.9,1.9,7.6,4.1,11.1,6.6C105.5,86.3,110.6,74.7,111.3,61.8z M45.2,3.9c-10.2,1.9-19.4,6.6-26.8,13.3
		c3.2,2.3,6.5,4.2,10.1,5.9C32.9,15.7,38.6,9.2,45.2,3.9z M34.5,25.5c5.7,2,11.7,3.2,17.9,3.5V6.4C45.3,11.5,39.1,18,34.5,25.5z
		 M30.8,86.3c6.8-2.5,14.1-4.1,21.6-4.4v-20H25C25.3,70.5,27.4,78.8,30.8,86.3z M25.1,55.4h27.4v-20C45.1,35,38,33.6,31.4,31.2
		C27.8,38.6,25.6,46.8,25.1,55.4z M77.5,92c-5.9-2.1-12.1-3.4-18.6-3.7v24C66.5,106.9,72.8,100,77.5,92z M52.5,112.2v-24
		C46,88.6,39.7,89.9,33.8,92C38.5,100,44.9,106.9,52.5,112.2z M25.5,28.7c-4.1-1.9-8-4.3-11.6-6.9c-8,9.1-13.1,20.7-13.8,33.6h18.6
		C19.2,45.9,21.6,36.9,25.5,28.7z M18.6,61.8H0.1c0.7,12.9,5.8,24.5,13.8,33.6c3.5-2.5,7.2-4.8,11.1-6.6
		C21.2,80.5,18.9,71.4,18.6,61.8z M27.9,94.5c-3.3,1.6-6.5,3.4-9.4,5.6c6.8,6.1,15.2,10.6,24.4,12.8
		C36.9,107.6,31.8,101.4,27.9,94.5z"/>
</g>
</svg>
