<?xml version="1.0" encoding="utf-8"?>
<!-- Generator: Adobe Illustrator 18.1.1, SVG Export Plug-In . SVG Version: 6.00 Build 0)  -->
<svg version="1.1" xmlns="http://www.w3.org/2000/svg" xmlns:xlink="http://www.w3.org/1999/xlink" x="0px" y="0px"
	 viewBox="0 0 150 150" enable-background="new 0 0 150 150" xml:space="preserve">
<g id="圖層_2" display="none">
	<rect x="0.1" y="-0.1" display="inline" fill="none" stroke="#0092EB" stroke-miterlimit="10" width="150" height="150"/>
</g>
<g id="圖層_1">
	<path fill-rule="evenodd" clip-rule="evenodd" fill="#0091EA" d="M150.1,43.6v92H0.1v-92H150.1z M0.1,14.3h150v25.7H0.1V14.3z
		 M134.1,23.2h8.2v7.7h-8.2V23.2z M120.6,23.2h8.2v7.7h-8.2V23.2z M107.2,23.2h8.2v7.7h-8.2V23.2z M19.3,55.8h26
		c0.4,0,0.6,0.2,0.6,0.6v26c0,0.4-0.2,0.7-0.6,0.7h-26c-0.3,0-0.7-0.3-0.7-0.7v-26C18.6,56,19,55.8,19.3,55.8L19.3,55.8z M62,55h26
		c0.3,0,0.7,0.2,1,0.5c0.2,0.2,0.4,0.6,0.4,0.9v26c0,0.5-0.1,0.8-0.4,1.1c-0.4,0.2-0.7,0.5-1,0.5H62c-0.3,0-0.7-0.2-1-0.5
		c-0.2-0.2-0.4-0.6-0.4-1.1v-26c0-0.3,0.1-0.7,0.4-0.9C61.3,55.2,61.7,55,62,55L62,55z M88,56.6H62.2v25.7H88V56.6z M104.8,55h26
		c0.5,0,0.8,0.2,1,0.5c0.2,0.2,0.5,0.6,0.5,0.9v26c0,0.5-0.2,0.8-0.5,1.1c-0.2,0.2-0.6,0.5-1,0.5h-26c-0.4,0-0.7-0.2-0.9-0.5
		c-0.2-0.2-0.5-0.6-0.5-1.1v-26c0-0.3,0.2-0.7,0.5-0.9C104.1,55.2,104.4,55,104.8,55L104.8,55z M130.7,56.6H105v25.7h25.7V56.6z
		 M19.3,91.6h26c0.4,0,0.7,0.2,0.9,0.5c0.4,0.2,0.5,0.6,0.5,0.9v26.2c0,0.3-0.1,0.7-0.5,0.9c-0.2,0.2-0.6,0.5-0.9,0.5h-26
		c-0.5,0-0.8-0.2-1-0.5c-0.2-0.2-0.4-0.6-0.4-0.9V93c0-0.3,0.1-0.7,0.4-0.9C18.5,91.9,18.8,91.6,19.3,91.6L19.3,91.6z M45.1,93.3
		H19.4V119h25.7V93.3z M62,91.6h26c0.3,0,0.7,0.2,1,0.5c0.2,0.2,0.4,0.6,0.4,0.9v26.2c0,0.3-0.1,0.7-0.4,0.9c-0.4,0.2-0.7,0.5-1,0.5
		H62c-0.3,0-0.7-0.2-1-0.5c-0.2-0.2-0.4-0.6-0.4-0.9V93c0-0.3,0.1-0.7,0.4-0.9C61.3,91.9,61.7,91.6,62,91.6L62,91.6z M88,93.3H62.2
		V119H88V93.3z M104.8,91.6h26c0.5,0,0.8,0.2,1,0.5c0.2,0.2,0.5,0.6,0.5,0.9v26.2c0,0.3-0.2,0.7-0.5,0.9c-0.2,0.2-0.6,0.5-1,0.5h-26
		c-0.4,0-0.7-0.2-0.9-0.5c-0.2-0.2-0.5-0.6-0.5-0.9V93c0-0.3,0.2-0.7,0.5-0.9C104.1,91.9,104.4,91.6,104.8,91.6L104.8,91.6z
		 M130.7,93.3H105V119h25.7V93.3z"/>
</g>
</svg>
