<?xml version="1.0" encoding="UTF-8" standalone="no"?>
<!-- Generator: Adobe Illustrator 18.1.1, SVG Export Plug-In . SVG Version: 6.00 Build 0)  -->
<svg xmlns="http://www.w3.org/2000/svg" xml:space="preserve" version="1.1" y="0px" x="0px" xmlns:xlink="http://www.w3.org/1999/xlink" viewBox="0 0 150 150" enable-background="new 0 0 150 150">
<g id="圖層_2" display="none">
	<rect height="150" width="150" stroke="#0092EB" stroke-miterlimit="10" y="-.1" x=".1" display="inline" fill="none"/>
</g>
<g id="圖層_1">
	<g fill="#0092EB">
		<path d="m75.1 128.1c-1.1 0-2 0.9-2 2.1 0 1.1 0.9 2 2 2s2.1-0.9 2.1-2c-0.1-1.2-1-2.1-2.1-2.1zm0-20.2c-1.1 0-2 1-2 2.1s0.9 2.1 2 2.1 2.1-1 2.1-2.1c-0.1-1.1-1-2.1-2.1-2.1zm0 13.5c-1.1 0-2 1-2 2.1s0.9 2.1 2 2.1 2.1-1 2.1-2.1c-0.1-1.2-1-2.1-2.1-2.1zm0-6.7c-1.1 0-2 0.9-2 2.1 0 1.1 0.9 2 2 2s2.1-0.9 2.1-2c-0.1-1.2-1-2.1-2.1-2.1zm-31.5-55.5c1 0.5 2.3 0.2 2.9-0.8 0.5-1 0.2-2.2-0.8-2.7-1-0.7-2.2-0.2-2.7 0.7-0.6 0.9-0.2 2.2 0.6 2.8zm60 15.8c0-7.9-3.2-15-8.3-20.2-5.3-5.1-12.4-8.3-20.2-8.3s-15 3.2-20.1 8.3c-5.3 5.2-8.5 12.3-8.5 20.2s3.2 15 8.4 20.1c5.1 5.3 12.3 8.4 20.1 8.4s15-3.2 20.2-8.4c5.3-5.2 8.4-12.3 8.4-20.1zm-28.5 25.7c-7.1 0-13.6-2.8-18.2-7.6-4.7-4.6-7.5-11.1-7.5-18.2s2.8-13.6 7.5-18.2c4.6-4.7 11.1-7.6 18.2-7.6s13.6 2.8 18.2 7.6c4.7 4.6 7.5 11.1 7.5 18.2s-2.8 13.6-7.5 18.2c-4.7 4.7-11.1 7.6-18.2 7.6zm-32.1-7.3c0.6 1 1.7 1.3 2.7 0.8s1.3-1.7 0.8-2.7c-0.6-1-1.9-1.3-2.9-0.8-0.8 0.6-1.2 1.8-0.6 2.7zm81.6-47.1c-0.5-1-1.7-1.3-2.7-0.8-1 0.7-1.3 1.9-0.8 2.8 0.5 1 1.9 1.3 2.8 0.8s1.4-1.8 0.7-2.8zm-44.7-35.8l24.3 14 24.3 14c0.2-0.4 0.4-0.8 0.8-1.2l-24.3-14-24.5-14.1c-0.1 0.4-0.3 1-0.6 1.3zm32.4 83.6c-1-0.7-2.2-0.2-2.7 0.7-0.7 1-0.2 2.3 0.7 2.8 1 0.5 2.3 0.2 2.9-0.8 0.4-0.9 0.1-2.1-0.9-2.7zm-37.2-65.7c1.1 0 2.1-0.9 2.1-2 0-1.2-1-2.1-2.1-2.1s-2 0.9-2 2.1 0.9 2 2 2zm53.8 15.5c1.5 2.8 5.1 3.7 8 2.2 2.7-1.6 3.7-5.3 2.1-8-1.6-2.8-5.1-3.8-8-2.2-2.8 1.6-3.7 5.2-2.1 8zm4.4 59.1c0.4 0 1 0 1.5 0.1v-56.3c-0.6 0.1-1.1 0.1-1.5 0.1v56.1zm-15.2-5.6c-1-0.5-2.2-0.2-2.7 0.8s-0.2 2.3 0.8 2.8 2.2 0.2 2.7-0.8 0.2-2.2-0.8-2.8zm-5.1-44.3c-0.6-1-1.9-1.3-2.9-0.8s-1.3 1.8-0.7 2.7c0.6 1 1.7 1.3 2.7 0.8 1.2-0.5 1.5-1.8 0.9-2.7zm5.8-3.4c-0.6-1-1.8-1.3-2.7-0.8-1 0.5-1.3 1.9-0.8 2.8 0.6 1 1.8 1.3 2.7 0.7 1.1-0.5 1.4-1.7 0.8-2.7zm5.2 51.1c-1-0.5-2.3-0.2-2.8 0.8-0.6 1-0.2 2.2 0.8 2.7 1 0.7 2.2 0.2 2.7-0.7 0.6-1 0.1-2.3-0.7-2.8zm-91.9-3.4c-1 0.7-1.3 1.9-0.8 2.8 0.6 1 1.9 1.3 2.9 0.8s1.3-1.9 0.7-2.8c-0.7-1-1.9-1.4-2.8-0.8zm-18.8-51.3c2.7 1.5 6.3 0.7 8-2.2 1.5-2.7 0.7-6.3-2.2-8-2.8-1.6-6.4-0.7-8 2.2-1.6 2.7-0.6 6.3 2.2 8zm13 54.7c-1 0.5-1.3 1.9-0.8 2.8 0.6 0.9 1.7 1.3 2.7 0.7 1-0.5 1.3-1.8 0.8-2.7-0.6-1-1.8-1.4-2.7-0.8zm1.9-55.3c-1-0.5-2.2-0.2-2.7 0.8-0.6 1-0.2 2.3 0.8 2.8 1 0.6 2.2 0.2 2.7-0.8 0.5-0.9 0.2-2.1-0.8-2.8zm9.6 48.6c-1 0.6-1.3 1.8-0.8 2.7 0.7 1 1.9 1.3 2.8 0.8 1-0.5 1.3-1.9 0.8-2.8s-1.8-1.4-2.8-0.7zm-22.4 9c0.4-0.1 1-0.1 1.4-0.1v-56c-0.4 0-1 0-1.4-0.1v56.2zm18.7-54.2c-1-0.5-2.3-0.2-2.9 0.8-0.5 1-0.2 2.2 0.8 2.7 1 0.7 2.2 0.3 2.7-0.7 0.7-0.9 0.4-2.3-0.6-2.8zm-12.8 57.1c-1.6-2.8-5.2-3.8-8-2.2s-3.8 5.3-2.2 8c1.6 2.8 5.1 3.7 8 2.2 2.9-1.6 3.8-5.2 2.2-8zm115.6-2.2c-2.8-1.6-6.5-0.7-8 2.2-1.6 2.7-0.7 6.3 2.1 8 2.8 1.5 6.4 0.7 8-2.2 1.6-2.7 0.6-6.3-2.1-8zm-32.7 21.5l-24.3 14c0.3 0.4 0.4 0.7 0.5 1.2-0.9-2-2.9-3.5-5.3-3.5-3.2 0-5.8 2.6-5.8 5.9 0 3.2 2.6 5.8 5.8 5.8 3.3 0 5.9-2.6 5.9-5.8 0-0.8-0.2-1.5-0.4-2.2l24.4-14.1 24.3-14c-0.3-0.4-0.5-0.9-0.8-1.3l-24.3 14zm-34 14l-24.3-14-24.3-14c-0.2 0.4-0.4 0.9-0.8 1.3l24.3 14 24.4 14.1c0.2-0.5 0.5-1 0.7-1.4zm4.9-126.5c3.3 0 5.9-2.6 5.9-5.8 0-3.3-2.6-5.9-5.9-5.9-3.2 0-5.8 2.6-5.8 5.9 0 3.2 2.6 5.8 5.8 5.8zm32.1 43.5c-0.7-0.9-1.9-1.3-2.8-0.7-1 0.5-1.3 1.7-0.8 2.7s1.9 1.3 2.8 0.8c1.1-0.5 1.4-1.8 0.8-2.8zm-32.1-21.1c1.1 0 2.1-1 2.1-2.1s-1-2-2.1-2-2 0.9-2 2 0.9 2.1 2 2.1zm0 6.7c1.1 0 2.1-0.9 2.1-2 0-1.2-1-2.1-2.1-2.1s-2 0.9-2 2.1c0 1.1 0.9 2 2 2zm29.3 52.3c1 0.6 2.2 0.2 2.8-0.8s0.2-2.2-0.8-2.7-2.3-0.2-2.8 0.8-0.2 2.2 0.8 2.7zm-64.5-41.9c-1-0.5-2.2-0.2-2.8 0.8-0.5 1-0.2 2.2 0.8 2.7s2.3 0.2 2.8-0.8 0.2-2.2-0.8-2.7zm6-27.8l24.3-14c-0.2-0.3-0.5-0.9-0.7-1.3l-24.3 14.1-24.3 14c0.3 0.4 0.6 0.8 0.8 1.2l24.2-14zm29.2-2.7c1.1 0 2.1-1 2.1-2.1s-1-2-2.1-2-2 0.9-2 2 0.9 2.1 2 2.1zm-0.1 34.2c-7.7 0-13.9 6.2-13.9 13.9 0 4.8 2.4 9.2 6.4 11.7l3.3 9.1h8.3l3.3-9.1c4.1-2.6 6.5-6.9 6.5-11.7 0-7.7-6.3-13.9-13.9-13.9zm6.3 24l-0.5 0.3-3 8.4h-5.6l-3-8.4-0.6-0.3c-3.5-2.2-5.6-6-5.6-10.1 0-6.6 5.4-11.9 11.9-11.9 6.6 0 11.9 5.4 11.9 11.9 0.1 4.1-2 7.9-5.5 10.1zm-2.7 12.2h-7.2c-0.7 0-1.2 0.6-1.2 1.2 0 0.7 0.6 1.2 1.2 1.2h0.3v1.9c0 0.9 0.7 1.6 1.6 1.6h3.4c0.9 0 1.6-0.7 1.6-1.6v-1.9h0.3c0.7 0 1.2-0.6 1.2-1.2 0-0.7-0.6-1.2-1.2-1.2zm-3.6-25.9l-2.4 4.9-3.7-3.7 2.5 13.9c0.1 0.3 0.3 0.5 0.6 0.4s0.5-0.3 0.4-0.6l-1.9-10.4 2.3 2.3 2.1-4.2 2.1 4.2 2.3-2.3-1.9 10.4c-0.1 0.3 0.1 0.6 0.4 0.6h0.1c0.3 0 0.5-0.2 0.5-0.5l2.5-13.9-3.7 3.7-2.2-4.8z"/>
		<path d="m75.1 149.9c-3.9 0-7-3.1-7-7 0-0.5 0.1-1.1 0.2-1.6l-47.3-27.2c-0.4 0.4-0.8 0.7-1.3 1-1.1 0.6-2.3 0.9-3.5 0.9-2.5 0-4.8-1.3-6.1-3.5-0.9-1.6-1.2-3.4-0.7-5.2 0.5-1.9 1.7-3.4 3.3-4.4 0.5-0.3 1-0.5 1.5-0.7v-54.5l-1.5-0.6c-1.7-1-2.9-2.5-3.4-4.4-0.5-1.8-0.2-3.7 0.7-5.2 1.9-3.3 6.3-4.5 9.6-2.6 0.5 0.3 0.9 0.6 1.3 1l47.4-27.3c-0.1-0.5-0.2-1-0.2-1.6 0-3.9 3.1-7.1 7-7.1s7.1 3.2 7.1 7.1c0 0.6-0.1 1.1-0.2 1.6l47.1 27.2c0.4-0.4 0.8-0.7 1.3-1 3.4-1.9 7.7-0.7 9.6 2.6 0.9 1.6 1.2 3.5 0.7 5.3s-1.6 3.3-3.2 4.3c-0.5 0.3-1 0.5-1.5 0.6v54.5l1.5 0.6c1.6 1 2.8 2.6 3.3 4.4 0.4 1.8 0.2 3.7-0.8 5.2-1.3 2.2-3.5 3.5-6.1 3.5-1.2 0-2.4-0.3-3.5-0.9-0.5-0.3-0.9-0.6-1.3-1l-47.2 27.2c0.1 0.5 0.2 1.1 0.2 1.6 0 4.1-3.1 7.2-7 7.2zm-4.6-7.5v0.5c0 2.5 2.1 4.6 4.6 4.6 2.6 0 4.7-2.1 4.7-4.6 0-0.6-0.1-1.2-0.4-1.8l-0.1-0.2c-0.8-1.7-2.4-2.8-4.3-2.8-2.1 0-3.9 1.5-4.4 3.4l-0.1 0.9zm-47.5-31.7l47.1 27.2c1.3-1.3 3-2.1 4.9-2.1s3.7 0.7 5 2l47.1-27.2c-0.5-1.8-0.2-3.7 0.8-5.2 0.9-1.6 2.4-2.8 4.2-3.3v-54.4c-1.8-0.5-3.3-1.7-4.2-3.3-0.9-1.5-1.2-3.4-0.7-5.3l-47.2-27.1c-1.3 1.2-3 2-5 2-1.9 0-3.7-0.8-4.9-2l-47.1 27.1c0.5 1.7 0.3 3.7-0.6 5.4-1 1.7-2.5 2.8-4.3 3.3v54.3c1.8 0.5 3.4 1.7 4.3 3.3 0.9 1.7 1.1 3.6 0.6 5.3zm110.9-6.5c-1.7 0-3.2 0.9-4 2.4-0.6 1.1-0.8 2.3-0.5 3.5s1.1 2.3 2.2 2.9c2.1 1.1 5.1 0.4 6.3-1.8 0.6-1 0.8-2.3 0.5-3.5s-1.1-2.3-2.2-2.9c-0.6-0.3-1.4-0.6-2.3-0.6zm-119 0.2c-0.4 0.1-0.7 0.3-1 0.4-1.1 0.7-1.9 1.7-2.3 2.9-0.3 1.2-0.1 2.4 0.5 3.4 0.9 1.5 2.4 2.4 4 2.4 0.8 0 1.6-0.2 2.4-0.6 2.2-1.3 3-4.1 1.7-6.4-1-1.7-3.1-2.7-5-2.3l-0.3 0.2zm119-68.1c-0.8 0-1.6 0.2-2.3 0.6-1 0.6-1.8 1.6-2.1 2.9-0.3 1.2-0.2 2.5 0.5 3.5 0.8 1.5 2.3 2.4 4 2.4 0.8 0 1.7-0.2 2.4-0.6 1-0.6 1.8-1.6 2.1-2.8s0.1-2.4-0.5-3.5c-0.9-1.6-2.4-2.5-4.1-2.5zm-117.7 0c-1.7 0-3.2 0.9-4 2.4-0.6 1-0.8 2.3-0.5 3.4 0.3 1.2 1.1 2.3 2.2 2.9 2.1 1.2 5.1 0.4 6.4-1.8s0.5-5.1-1.8-6.4c-0.7-0.3-1.5-0.5-2.3-0.5zm58.9-34c-2.5 0-4.6 2.1-4.6 4.7 0 2.5 2.1 4.6 4.6 4.6 2 0 3.6-1.2 4.3-2.8l0.3-1.4v-0.4c0.1-2.7-2-4.7-4.6-4.7zm0 131.1c-1.7 0-3.2-1.4-3.2-3.2s1.4-3.3 3.2-3.3 3.3 1.5 3.3 3.3c-0.1 1.7-1.6 3.2-3.3 3.2zm0-4.1c-0.5 0-0.8 0.4-0.8 0.9 0 0.4 0.3 0.8 0.8 0.8s0.9-0.4 0.9-0.8c0-0.5-0.5-0.9-0.9-0.9zm0-2.6c-1.7 0-3.2-1.5-3.2-3.3s1.4-3.3 3.2-3.3c1.7 0 3.3 1.5 3.3 3.3-0.1 1.8-1.6 3.3-3.3 3.3zm0-4.2c-0.4 0-0.8 0.4-0.8 0.9s0.4 0.9 0.8 0.9 0.9-0.5 0.9-0.9-0.5-0.9-0.9-0.9zm0-2.6c-1.7 0-3.2-1.4-3.2-3.1 0-1.8 1.4-3.3 3.2-3.3s3.3 1.5 3.3 3.3c-0.1 1.7-1.6 3.1-3.3 3.1zm0-4c-0.5 0-0.8 0.4-0.8 0.9 0 0.4 0.3 0.8 0.8 0.8s0.9-0.4 0.9-0.8c0-0.6-0.5-0.9-0.9-0.9zm0-2.7c-1.7 0-3.2-1.5-3.2-3.3s1.4-3.3 3.2-3.3c1.7 0 3.3 1.5 3.3 3.3-0.1 1.8-1.6 3.3-3.3 3.3zm0-4.1c-0.4 0-0.8 0.4-0.8 0.9s0.4 0.9 0.8 0.9 0.9-0.5 0.9-0.9c0-0.5-0.5-0.9-0.9-0.9zm47.8-3.3c-0.6 0-1.2-0.2-1.7-0.5-0.7-0.4-1.2-1.1-1.4-1.9s-0.1-1.7 0.3-2.4c0.8-1.5 2.9-2.1 4.4-1.2 0.8 0.5 1.3 1.3 1.5 2.1s0 1.7-0.4 2.4c-0.5 0.9-1.6 1.5-2.7 1.5zm0-4.1c-0.3 0-0.6 0.1-0.8 0.4-0.1 0.2-0.1 0.4-0.1 0.6 0.1 0.2 0.2 0.4 0.4 0.5 0.6 0.4 0.9 0.1 1.2-0.2 0.2-0.2 0.2-0.5 0.1-0.6-0.1-0.2-0.2-0.5-0.4-0.6 0-0.1-0.2-0.1-0.4-0.1zm-95.7 4.1c-1.1 0-2.1-0.6-2.7-1.5-0.5-0.8-0.6-1.7-0.3-2.6 0.2-0.8 0.8-1.5 1.5-1.9 1.5-0.8 3.5-0.3 4.3 1.2 0.4 0.7 0.5 1.6 0.3 2.4s-0.8 1.5-1.5 1.9c-0.4 0.3-1 0.5-1.6 0.5zm0-4.1c-0.1 0-0.3 0-0.4 0.1-0.3 0.1-0.4 0.4-0.4 0.5-0.1 0.2 0 0.5 0.1 0.7 0.2 0.3 0.7 0.5 1 0.2 0.3-0.2 0.4-0.4 0.5-0.5 0.1-0.2 0-0.4-0.1-0.6s-0.4-0.4-0.7-0.4zm47.9 3c-8 0-15.4-3.1-21-8.8-5.6-5.5-8.8-13-8.8-21s3.1-15.4 8.8-21.1c5.6-5.6 13-8.7 21-8.7 7.9 0 15.4 3.1 21.1 8.7 5.6 5.7 8.7 13.2 8.7 21.1s-3.1 15.4-8.7 21c-5.7 5.7-13.2 8.8-21.1 8.8zm0-57.1c-7.3 0-14.2 2.8-19.3 8-5.2 5.2-8.1 12.1-8.1 19.4 0 7.4 2.9 14.2 8.1 19.3 5.1 5.2 12 8.1 19.3 8.1s14.2-2.9 19.4-8.1c5.1-5.1 8-12 8-19.3s-2.8-14.2-8-19.4c-5.3-5.2-12.2-8-19.4-8zm42 54.8c-0.5 0-1.1-0.1-1.6-0.4-1.5-0.8-2.1-2.9-1.2-4.4s2.8-2.1 4.4-1.2c1.6 1 2.1 2.9 1.2 4.5-0.6 0.9-1.7 1.5-2.8 1.5zm0-4.1c-0.3 0-0.6 0.2-0.7 0.4-0.2 0.4-0.1 1 0.3 1.2 0.1 0.1 0.3 0.1 0.4 0.1 0.3 0 0.6-0.2 0.7-0.4 0.2-0.4 0.1-1-0.4-1.3h-0.3zm-84 4.1c-1.2 0-2.3-0.6-2.9-1.6-0.8-1.5-0.3-3.4 1.1-4.4 1.7-1 3.6-0.3 4.4 1.2 0.4 0.7 0.6 1.6 0.4 2.5s-0.8 1.6-1.5 2c-0.4 0.2-0.9 0.3-1.5 0.3zm0-4.1c-0.1 0-0.3 0-0.4 0.1-0.4 0.3-0.6 0.8-0.3 1.2 0.3 0.5 0.9 0.5 1.2 0.3 0.2-0.1 0.3-0.3 0.4-0.5 0-0.1 0.1-0.4-0.1-0.7-0.3-0.2-0.6-0.4-0.8-0.4zm42 3.6c-7.3 0-14-2.8-19-7.9-5.1-5-7.9-11.7-7.9-19s2.8-14 7.9-19c5-5.1 11.7-7.9 19-7.9s14 2.8 19 7.9c5.1 5 7.9 11.7 7.9 19s-2.8 14-7.9 19c-5 5-11.8 7.9-19 7.9zm0-51.5c-6.6 0-12.8 2.6-17.3 7.2-4.7 4.6-7.2 10.7-7.2 17.3s2.6 12.8 7.2 17.3c4.6 4.7 10.7 7.2 17.3 7.2s12.8-2.6 17.3-7.2c4.7-4.6 7.2-10.7 7.2-17.3s-2.6-12.8-7.2-17.3c-4.6-4.6-10.7-7.2-17.3-7.2zm1.6 48.9h-3.4c-1.5 0-2.8-1.2-2.8-2.8v-0.9c-0.9-0.4-1.5-1.2-1.5-2.2 0-0.8 0.4-1.4 0.9-1.9l-3.3-9.2c-4.2-2.8-6.7-7.4-6.7-12.5 0-8.3 6.8-15.1 15.1-15.1s15 6.8 15 15.1c0 5.1-2.5 9.7-6.7 12.5l-3.3 9.2c0.6 0.4 0.9 1.1 0.9 1.9 0 1-0.6 1.9-1.5 2.2v0.9c0.1 1.6-1.2 2.8-2.7 2.8zm-4.1-5.9l0.3 1.3v1.9c0 0.2 0.2 0.4 0.4 0.4h3.4c0.2 0 0.4-0.2 0.4-0.4v-3.1h1.5l-6-0.1zm0.4-5.9h3.9l1.7-4.7c-0.2 0.1-0.4 0.2-0.6 0.2h-0.3c-0.9-0.2-1.6-1.1-1.4-2l1.2-6.6-0.8 0.8-1.7-3.6-1.7 3.5-0.8-0.8 1.2 6.6c0.1 0.5 0 0.9-0.3 1.3s-0.7 0.6-1.1 0.7l-0.3 0.1c-0.2 0-0.4 0-0.6-0.1l1.6 4.6zm2-28.4c-5.9 0-10.8 4.8-10.8 10.8 0 3.7 1.9 7.1 5 9.1l0.6 0.4-2.8-15.4 5.2 5.2 2.7-5.6 2.7 5.6 5.2-5.2-2.8 15.4 0.6-0.3c3.2-2 5.1-5.4 5.1-9.1 0-6.1-4.8-10.9-10.7-10.9zm36.2 39.9c-0.6 0-1.1-0.1-1.6-0.4-0.8-0.5-1.3-1.3-1.5-2.1s0-1.7 0.4-2.4c0.9-1.4 2.9-1.9 4.4-1 1.5 0.8 2 2.7 1.2 4.3-0.6 1-1.7 1.6-2.9 1.6zm0-4c-0.3 0-0.6 0.2-0.7 0.4-0.2 0.2-0.1 0.5-0.1 0.6 0.1 0.2 0.2 0.5 0.4 0.6 0.3 0.1 1 0 1.2-0.3 0.2-0.4 0.1-0.9-0.3-1.1-0.2-0.2-0.3-0.2-0.5-0.2zm-72.3 4c-1.1 0-2.2-0.6-2.8-1.6-0.9-1.7-0.4-3.6 1.2-4.4 1.2-0.8 3.5-0.4 4.4 1.1 0.9 1.6 0.3 3.6-1.2 4.5-0.5 0.3-1 0.4-1.6 0.4zm0-4c-0.1 0-0.3 0-0.4 0.1-0.5 0.3-0.6 0.8-0.4 1.2 0.2 0.3 0.8 0.5 1.2 0.3s0.5-0.8 0.3-1.2c-0.1-0.3-0.4-0.4-0.7-0.4zm66.5 0.7c-0.6 0-1.1-0.1-1.6-0.4-0.7-0.4-1.3-1.1-1.5-1.9s-0.1-1.7 0.3-2.4c0.8-1.5 2.9-2.1 4.5-1.2 0.7 0.4 1.3 1.1 1.5 1.9s0.1 1.7-0.3 2.4c-0.7 1-1.8 1.6-2.9 1.6zm0-4.1c-0.3 0-0.6 0.1-0.8 0.4-0.1 0.2-0.1 0.4-0.1 0.6 0 0.1 0.1 0.3 0.4 0.5 0.4 0.2 1 0.1 1.3-0.4 0.1-0.1 0.1-0.4 0-0.6 0-0.1-0.1-0.3-0.4-0.5 0 0.1-0.2 0-0.4 0zm-60.7 4.1c-1.1 0-2.2-0.6-2.8-1.6-0.8-1.5-0.4-3.4 1.1-4.3 1.7-0.9 3.7-0.3 4.5 1.2 0.9 1.6 0.3 3.5-1.2 4.3-0.5 0.2-1 0.4-1.6 0.4zm0-4.1c-0.2 0-0.3 0-0.5 0.1-0.3 0.2-0.4 0.7-0.2 1.1s0.7 0.5 1.1 0.3 0.5-0.7 0.3-1.1c-0.1-0.3-0.5-0.4-0.7-0.4zm60.7-31c-1.2 0-2.3-0.6-2.8-1.6-0.9-1.6-0.3-3.5 1.2-4.3 1.2-0.8 3.3-0.4 4.4 1 0.5 0.9 0.6 1.8 0.4 2.7-0.2 0.8-0.8 1.5-1.5 1.9-0.5 0.2-1.1 0.3-1.7 0.3zm0-4c-0.1 0-0.3 0-0.4 0.1-0.5 0.3-0.6 0.8-0.4 1.2 0.3 0.5 0.9 0.5 1.2 0.3 0.2-0.1 0.3-0.4 0.4-0.5 0.1-0.3 0-0.5-0.1-0.7 0-0.3-0.4-0.4-0.7-0.4zm-60.7 4c-0.6 0-1.1-0.1-1.6-0.4-1.5-0.9-2-2.9-1.1-4.5 1-1.5 3-2 4.4-1.1 1.5 0.8 2 2.7 1.2 4.3-0.6 1.1-1.7 1.7-2.9 1.7zm0-4c-0.3 0-0.6 0.2-0.7 0.4-0.2 0.4 0 1 0.3 1.2 0.2 0.1 0.9 0.2 1.2-0.3 0.2-0.4 0.1-0.9-0.3-1.1-0.2-0.2-0.4-0.2-0.5-0.2zm66.6 0.6c-1.1 0-2.2-0.6-2.8-1.6-0.4-0.7-0.6-1.5-0.4-2.4 0.2-0.8 0.8-1.5 1.5-2 1.5-0.8 3.6-0.3 4.5 1.2 0.9 1.6 0.3 3.5-1.2 4.4-0.6 0.3-1.1 0.4-1.6 0.4zm-0.1-4c-0.2 0-0.3 0-0.5 0.1s-0.3 0.3-0.4 0.5c0 0.2 0 0.4 0.1 0.6 0.3 0.5 0.8 0.6 1.2 0.4s0.5-0.7 0.3-1.1c-0.1-0.4-0.4-0.5-0.7-0.5zm-72.3 4c-0.6 0-1.1-0.1-1.6-0.4-1.6-0.9-2.1-2.8-1.2-4.3 1-1.6 3-2.1 4.5-1.2 0.7 0.4 1.3 1.1 1.5 1.9s0.1 1.7-0.3 2.4c-0.6 1-1.7 1.6-2.9 1.6zm0-4c-0.3 0-0.6 0.2-0.9 0.5-0.2 0.3-0.1 0.8 0.4 1 0.3 0.2 1 0.2 1.2-0.3 0.1-0.2 0.1-0.4 0.1-0.6 0-0.1-0.1-0.3-0.4-0.5-0.1 0-0.2-0.1-0.4-0.1zm78.1 0.7c-1.1 0-2.1-0.6-2.7-1.6-0.9-1.6-0.3-3.6 1.2-4.5 1.5-0.8 3.5-0.3 4.3 1.2 0.9 1.6 0.3 3.5-1.2 4.3-0.4 0.4-1 0.6-1.6 0.6zm0.1-4.1c-0.1 0-0.3 0-0.4 0.1-0.4 0.2-0.5 0.8-0.3 1.2s0.7 0.5 1 0.2c0.5-0.3 0.6-0.8 0.4-1.2-0.2-0.1-0.4-0.3-0.7-0.3zm-84 4.1c-0.6 0-1.2-0.2-1.7-0.5-1.5-0.8-2-2.7-1.2-4.3 0.8-1.5 2.9-2.1 4.5-1.2 0.8 0.4 1.3 1.2 1.5 2 0.2 0.9 0 1.8-0.4 2.5-0.5 0.9-1.5 1.5-2.7 1.5zm0-4.1c-0.3 0-0.6 0.1-0.8 0.4-0.2 0.4-0.1 0.9 0.3 1.1 0.2 0.1 0.4 0.2 0.5 0.2 0.3 0 0.5-0.1 0.6-0.4 0.2-0.3 0.2-0.6 0.2-0.7-0.1-0.2-0.2-0.4-0.4-0.5-0.1 0-0.2-0.1-0.4-0.1zm89.8 0.8c-1.2 0-2.3-0.6-2.9-1.6-0.8-1.5-0.4-3.4 1.1-4.4 1.8-1 3.6-0.3 4.4 1.2 0.4 0.6 0.6 1.5 0.4 2.3-0.2 0.9-0.7 1.6-1.5 2.1-0.3 0.2-0.9 0.4-1.5 0.4zm0-4.2c-0.1 0-0.3 0-0.4 0.1-0.4 0.3-0.5 0.8-0.3 1.2 0.3 0.5 0.9 0.5 1.2 0.3 0.1-0.1 0.3-0.3 0.3-0.6 0-0.2 0-0.4-0.1-0.6-0.2-0.2-0.4-0.4-0.7-0.4zm-95.7 4.2c-0.5 0-1.1-0.1-1.6-0.4-0.7-0.4-1.3-1.1-1.5-1.9s-0.1-1.8 0.3-2.5c0.8-1.5 2.8-2.1 4.3-1.2 1.6 1.1 2.1 2.9 1.2 4.5-0.4 0.8-1.5 1.5-2.7 1.5zm0-4.2c-0.3 0-0.6 0.2-0.7 0.4s-0.1 0.5-0.1 0.7c0 0.1 0.1 0.4 0.4 0.5 0.4 0.2 0.9 0.1 1.1-0.3 0.3-0.4 0.1-1-0.4-1.3 0 0.1-0.1 0-0.3 0zm47.9-3.3c-1.7 0-3.2-1.4-3.2-3.2s1.4-3.3 3.2-3.3 3.3 1.5 3.3 3.3c-0.1 1.7-1.6 3.2-3.3 3.2zm0-4.1c-0.5 0-0.8 0.4-0.8 0.9 0 0.4 0.3 0.8 0.8 0.8s0.9-0.4 0.9-0.8c0-0.5-0.5-0.9-0.9-0.9zm0-2.6c-1.7 0-3.2-1.5-3.2-3.3 0-1.7 1.4-3.1 3.2-3.1s3.3 1.4 3.3 3.1c-0.1 1.8-1.6 3.3-3.3 3.3zm0-4c-0.4 0-0.8 0.3-0.8 0.8s0.4 0.9 0.8 0.9 0.9-0.5 0.9-0.9c0-0.5-0.5-0.8-0.9-0.8zm0-2.8c-1.7 0-3.2-1.4-3.2-3.1 0-1.8 1.4-3.3 3.2-3.3s3.3 1.5 3.3 3.3c-0.1 1.7-1.6 3.1-3.3 3.1zm0-4c-0.5 0-0.8 0.4-0.8 0.9 0 0.4 0.3 0.8 0.8 0.8s0.9-0.4 0.9-0.8c0-0.6-0.5-0.9-0.9-0.9zm0-2.7c-1.7 0-3.2-1.5-3.2-3.3 0-1.7 1.4-3.1 3.2-3.1s3.3 1.4 3.3 3.1c-0.1 1.8-1.6 3.3-3.3 3.3zm0-4c-0.4 0-0.8 0.3-0.8 0.8s0.4 0.9 0.8 0.9 0.9-0.5 0.9-0.9-0.5-0.8-0.9-0.8z"/>
	</g>
</g>
</svg>
