<?xml version="1.0" encoding="utf-8"?>
<!-- Generator: Adobe Illustrator 18.1.1, SVG Export Plug-In . SVG Version: 6.00 Build 0)  -->
<svg version="1.1" id="圖層_1" xmlns="http://www.w3.org/2000/svg" xmlns:xlink="http://www.w3.org/1999/xlink" x="0px" y="0px"
	 viewBox="0 0 201.8 150" enable-background="new 0 0 201.8 150" xml:space="preserve">
<g>
	<path fill="#2A2A2A" d="M5.9,150h8.5l3.1-17.6H9L5.9,150z M28.3,121.4H2.2L0.7,130h26.1L28.3,121.4z M42.1,132.4l0.5,6.7h-4.5
		l2.8-6.7h-8.5L24.9,150h8.5l1.6-3.8h8.1l0.3,3.8h8.5l-1.3-17.6H42.1z M49.8,121.4H37l-3.6,8.6h17.1L49.8,121.4z M77.6,121.4H64.8
		c-1.8,0-3.5,0.6-5.1,1.9c-1.5,1.3-2.4,2.9-2.8,4.7l-0.3,1.9h26.1l0.3-1.9c0-0.2,0.1-0.4,0.1-0.6s0-0.4,0-0.6c0-1.6-0.5-2.9-1.6-4
		C80.6,122,79.2,121.4,77.6,121.4z M72.2,141.4h-9l1.6-9h-8.5l-1.9,10.9c0,0.2,0,0.4-0.1,0.6c0,0.2,0,0.4,0,0.6c0,1.6,0.5,2.9,1.5,4
		c1,1,2.3,1.6,4,1.6h12.8c1.8,0,3.5-0.6,5-1.9c1.6-1.3,2.5-2.9,2.8-4.7l1.9-10.9h-8.5L72.2,141.4z M163.8,121.4h-19.5
		c-1.8,0-3.5,0.6-5.1,1.9c-1.5,1.3-2.4,2.9-2.8,4.7l-0.3,1.9h26.1L163.8,121.4z M149.5,132.4l-1.1,6.7h3.8l-0.4,2.4h-9l1.6-9h-8.5
		l-1.9,10.9c0,0.2,0,0.4-0.1,0.6c0,0.2,0,0.4,0,0.6c0,1.5,0.5,2.9,1.5,3.9c1,1,2.3,1.6,4,1.6h12.8c1.8,0,3.5-0.6,5-1.9
		c1.6-1.3,2.5-2.9,2.8-4.7l1.9-10.9H149.5z M175.2,121.4h-8.5l-1.5,8.6h8.5L175.2,121.4z M164.7,132.4l-3,17.6h8.5l3.1-17.6H164.7z
		 M200.9,123c-1-1-2.4-1.6-4-1.6h-19.5l-1.5,8.6H202l0.3-1.9c0-0.2,0.1-0.4,0.1-0.6c0-0.2,0-0.4,0-0.6
		C202.5,125.4,201.9,124.1,200.9,123z M172.5,150h8.5l3.1-17.6h-8.5L172.5,150z M190,150h8.5l3.1-17.6h-8.5L190,150z"/>
	<path fill="#0091EA" d="M68.3,79.8c6.8-12.9,10.5-12.1-3.1-25.8C51.7,40.3,68.3,0,68.3,0c-41,29.4-18.5,74.1-18.5,74.1
		c-8.8,0-18.5-24.7-18.5-24.7c0,47.4,49.4,61.8,49.4,61.8S61.5,92.6,68.3,79.8z M62.1,74.1c0,0,3.1-6.9-6.2-12.4
		c-10.9-6.4-3.1-24.7-3.1-24.7c-2.3,14,4.6,19.7,9.3,24.7C66.8,66.8,62.1,74.1,62.1,74.1z M80.7,55.6C63,37.9,74.5,12.3,74.5,12.3
		C49.2,42.1,80.7,55.6,80.7,55.6z M161,74.1c0,0,22.4-44.7-18.5-74.1c0,0,16.6,40.3,3.1,54c-13.6,13.7-9.9,12.9-3.1,25.8
		c6.8,12.9-12.4,31.4-12.4,31.4s49.4-14.4,49.4-61.8C179.5,49.4,169.8,74.1,161,74.1z M154.8,61.8c-9.3,5.4-6.2,12.4-6.2,12.4
		s-4.7-7.3,0-12.4c4.7-5,11.5-10.7,9.3-24.7C157.9,37.1,165.7,55.4,154.8,61.8z M136.2,12.3c0,0,11.5,25.6-6.2,43.2
		C130.1,55.6,161.5,42.1,136.2,12.3z M111.5,135.9c0,0,9.3-6.1,16.4-23.4c0,0-8.4,6.4-17.8,6.7C110.1,119.1,112.9,129.7,111.5,135.9
		z M105.4,119.3c-7.8,2-21.6-6.8-21.6-6.8c13.1,13,11,8.5,17,14.1c6.1,5.7,4.6,21.6,4.6,21.6C111.5,131.6,106.4,119,105.4,119.3z
		 M131.9,101.3l-13.1,0.6l-5.7-7.2l3.5-10.8l11.1-3.5l9.2,7.2c0.1-0.8,0.1-1.5,0.1-2.3c0-6.8-2.2-13.1-5.8-18.3L127,78.6L116.1,82
		l-9.8-7.1V63.7L117,56l0-0.1c-3.6-1.4-7.5-2.2-11.6-2.2c-4,0-7.9,0.8-11.5,2.2l0,0.1l10.5,7.7V75l-9.8,7.2L83.8,79l-4.3-11.8
		c-3.6,5.1-5.7,11.4-5.7,18.1c0,0.9,0.1,1.8,0.1,2.7l9.3-7.2l11.2,3.4l3.4,10.5l-5.8,7.3l-13.2-0.6l-0.3,0.7
		c4.1,6.6,10.6,11.6,18.3,13.7l-3.4-12.5l5.4-6.9h13l5.4,6.9l-3.4,12.5c7.7-2.1,14.2-7.1,18.3-13.7L131.9,101.3z"/>
</g>
</svg>
