<?xml version="1.0" encoding="utf-8"?>
<!-- Generator: Adobe Illustrator 18.1.1, SVG Export Plug-In . SVG Version: 6.00 Build 0)  -->
<svg version="1.1" id="圖層_1" xmlns="http://www.w3.org/2000/svg" xmlns:xlink="http://www.w3.org/1999/xlink" x="0px" y="0px"
	 viewBox="0 0 292.3 35.9" enable-background="new 0 0 292.3 35.9" xml:space="preserve">
<g>
	<path opacity="0.73" fill-rule="evenodd" clip-rule="evenodd" fill="#F2F2F2" d="M292.3,33.9c0,1.1-1,2-2.3,2H4.1c-1.3,0-3-0.8-4-2
		L0,2c0-1.1,1-2,2.3-2H290c1.3,0,2.3,0.9,2.3,2V33.9z"/>
	<path opacity="0.3" fill-rule="evenodd" clip-rule="evenodd" fill="#1E2023" d="M290,0H2.3C1,0,0,0.9,0,2l0,2.8
		c0-1.1,1-3.1,2.3-3.1H290c1.3,0,2.3,0.9,2.3,2V2C292.3,0.9,291.3,0,290,0z"/>
</g>
</svg>
