<?xml version="1.0" encoding="utf-8"?>
<!-- Generator: Adobe Illustrator 18.1.1, SVG Export Plug-In . SVG Version: 6.00 Build 0)  -->
<svg version="1.1" id="圖層_1" xmlns="http://www.w3.org/2000/svg" xmlns:xlink="http://www.w3.org/1999/xlink" x="0px" y="0px"
	 viewBox="0 0 268.7 84.1" enable-background="new 0 0 268.7 84.1" xml:space="preserve">
<g>
	<path fill="#0091EA" d="M37.5,44.2c3.8-7.1,5.8-6.7-1.7-14.3C28.2,22.3,37.5,0,37.5,0c-22.7,16.3-10.3,41-10.3,41
		c-4.9,0-10.3-13.7-10.3-13.7c0,26.2,27.4,34.2,27.4,34.2S33.7,51.3,37.5,44.2z M34,41.1c0,0,1.7-3.8-3.4-6.8
		c-6-3.5-1.7-13.7-1.7-13.7c-1.3,7.8,2.5,10.9,5.1,13.7C36.6,37,34,41.1,34,41.1z M44.3,30.8C34.5,21,40.9,6.9,40.9,6.9
		C26.9,23.3,44.3,30.8,44.3,30.8z M88.8,41.1c0,0,12.4-24.8-10.3-41c0,0,9.2,22.3,1.7,29.9c-7.5,7.6-5.5,7.1-1.7,14.3
		c3.8,7.1-6.8,17.4-6.8,17.4S99,53.6,99,27.4C99,27.4,93.6,41.1,88.8,41.1z M85.3,34.2c-5.1,3-3.4,6.8-3.4,6.8s-2.6-4.1,0-6.8
		c2.6-2.8,6.4-5.9,5.1-13.7C87,20.5,91.4,30.7,85.3,34.2z M75.1,6.9c0,0,6.4,14.2-3.4,23.9C71.7,30.8,89.1,23.3,75.1,6.9z
		 M61.4,75.3c0,0,5.2-3.4,9.1-13c0,0-4.7,3.5-9.9,3.7C60.6,66,62.2,71.8,61.4,75.3z M58,66.1c-4.3,1.1-12-3.8-12-3.8
		c7.2,7.2,6.1,4.7,9.4,7.8c3.4,3.2,2.6,12,2.6,12C61.4,72.9,58.6,65.9,58,66.1z M72.7,56.1l-7.3,0.4l-3.1-4l1.9-6l6.1-2l5.1,4
		c0-0.4,0.1-0.8,0.1-1.3c0-3.8-1.2-7.2-3.2-10.1l-2.3,6.4l-6,1.9l-5.4-3.9v-6.2l5.9-4.3l0,0c-2-0.8-4.2-1.2-6.4-1.2
		c-2.2,0-4.4,0.4-6.3,1.2l0,0.1l5.8,4.2v6.3l-5.5,4l-6-1.8l-2.4-6.5c-2,2.8-3.2,6.3-3.2,10c0,0.5,0,1,0.1,1.5l5.1-4l6.2,1.9l1.9,5.8
		l-3.2,4l-7.3-0.4l-0.2,0.4c2.3,3.7,5.9,6.4,10.1,7.6l-1.9-6.9l3-3.8h7.2l3,3.8l-1.9,6.9c4.3-1.2,7.8-3.9,10.1-7.6L72.7,56.1z"/>
	<path fill="#2A2A2A" d="M15.3,67.3H0.8L0,72h14.4L15.3,67.3z M108.7,67.3H97.9L97.1,72h14.4l0.2-1.1c0-0.1,0-0.2,0-0.3s0-0.2,0-0.3
		c0-0.9-0.3-1.6-0.9-2.2C110.3,67.6,109.6,67.3,108.7,67.3z M2.9,83.1h4.7l1.7-9.8H4.6L2.9,83.1z M95.1,83.1h4.7l1.7-9.8h-4.7
		L95.1,83.1z M104.8,83.1h4.7l1.7-9.8h-4.7L104.8,83.1z M90.8,73.3l-1.7,9.8h4.7l1.7-9.8H90.8z M39.6,78.3h-5l0.9-5h-4.7l-1,6.1
		c0,0.1,0,0.2,0,0.3c0,0.1,0,0.2,0,0.3c0,0.9,0.3,1.6,0.9,2.2c0.6,0.6,1.3,0.9,2.2,0.9h7.1c1,0,1.9-0.4,2.8-1.1
		c0.9-0.7,1.4-1.6,1.5-2.6l1.1-6.1h-4.7L39.6,78.3z M42.6,67.3h-7.1c-1,0-2,0.4-2.8,1.1c-0.8,0.7-1.4,1.6-1.5,2.6L31,72h14.4
		l0.2-1.1c0-0.1,0-0.2,0-0.3s0-0.2,0-0.3c0-0.9-0.3-1.6-0.9-2.2C44.2,67.6,43.5,67.3,42.6,67.3z M82.4,73.3L81.8,77h2.1l-0.2,1.3h-5
		l0.9-5h-4.7l-1,6.1c0,0.1,0,0.2,0,0.3c0,0.1,0,0.2,0,0.3c0,0.9,0.3,1.6,0.9,2.2c0.6,0.6,1.3,0.9,2.2,0.9h7.1c1,0,1.9-0.4,2.8-1.1
		c0.9-0.7,1.4-1.6,1.5-2.6l1.1-6.1H82.4z M22.9,73.3l0.3,3.7h-2.5l1.6-3.7h-4.7l-4.1,9.8h4.7L19,81h4.5l0.2,2.1h4.7l-0.7-9.8H22.9z
		 M96.6,67.3h-4.7L91.1,72h4.7L96.6,67.3z M27.2,67.3h-7.1l-2,4.7h9.5L27.2,67.3z M90.3,67.3H79.6c-1,0-2,0.4-2.8,1.1
		c-0.8,0.7-1.4,1.6-1.5,2.6L75.1,72h14.4L90.3,67.3z M181,59.8l7.1-10.8h-9.9l-5.1,7.3h-1.6l1,3.5H181z M203.7,53.7l5,6.1h8.9
		l1.1-3.5h-2.2l-5.6-7.3h-21.8l-3.2,4.7H203.7z M131.9,64.1l-1.5-4.7h-8.4l1.5,4.7H131.9z M131.9,57l1.5-3H132l-1.6-4.8h-8.4
		l2.6,7.9H131.9z M124.5,67.3h7.4l0-0.1L124.5,67.3L124.5,67.3z M175.5,64.1h39.1v-3.5h-39.1V64.1z M188.3,76.6h-1.5l-1.7-3.3h-9.3
		l3.1,5.5h8.6L188.3,76.6z M199.8,72.1h16.5v-4.3h-16.5v-0.6h-9.4v0.6h-16.5v4.3h16.5v7.6h-18.9V84h47.4v-4.3h-19V72.1z M201.7,76.6
		l0.7,2.1h8.6l3.1-5.5h-9.3l-1.7,3.3H201.7z M259.2,76.4l-3.6-9l0.1-0.2h-6.9l0.1,0.2l-3.3,8.3l-3.3-8.3l0.1-0.2h-7l0.1,0.2l-3.5,9
		v-9.2h-9.5v16.8h9.5v-4.7h5.6l1.3-3.4l1.3,3.4h10.7l1.3-3.4l1.3,3.4h5.6v0.8h-2.7l1.8,3.9h10.4V67.3h-9.5V76.4z M222.5,49.5v14.6
		h9.5v-5.5l2.2,5.5h9.5l2-4.9l1.9,4.9h9.4l2.2-5.5v5.5h9.5V49.5H222.5z M259.2,55.5h-5.6l-1.3,3.4l-1.3-3.4h-10.7l-1.3,3.4l-1.3-3.4
		H232v-1.8h27.2V55.5z M145,49h-9l-2.7,6.4h25.6v8.7h8.8V51.3h-23.9L145,49z M123.2,79.6h-1.9l1.3,4.2h8.2l2.6-14.3h-8.4L123.2,79.6
		z M150,69.7h8.1v-2.4h-23.9v2.4h8.1v6.9h-1.8v-5.3h-6v9.3h16.3l1-4H150V69.7z M141.4,62.4h0.9v1.7h7.7v-1.7h6.9v-4h-14l0.9-2.3
		h-7.5l-2,5.6h-0.9l0.7,2.4h6.8L141.4,62.4z M157.7,80.6v-9.3h-6v5.3v4H157.7z M158.9,80.9h-2.2l1.5,3h9.5V67.3h-8.8V80.9z"/>
</g>
</svg>
