<?xml version="1.0" encoding="utf-8"?>
<!-- Generator: Adobe Illustrator 18.1.1, SVG Export Plug-In . SVG Version: 6.00 Build 0)  -->
<svg version="1.1" id="圖層_1" xmlns="http://www.w3.org/2000/svg" xmlns:xlink="http://www.w3.org/1999/xlink" x="0px" y="0px"
	 viewBox="0 0 98 90" enable-background="new 0 0 98 90" xml:space="preserve">
<g>
	<g>
		<linearGradient id="SVGID_1_" gradientUnits="userSpaceOnUse" x1="9.9975" y1="41.9761" x2="82.487" y2="41.9761">
			<stop  offset="0" style="stop-color:#D1EFFF"/>
			<stop  offset="5.905741e-002" style="stop-color:#D7F1FF"/>
			<stop  offset="0.3719" style="stop-color:#F4FBFF"/>
			<stop  offset="0.551" style="stop-color:#FFFFFF"/>
			<stop  offset="0.6576" style="stop-color:#E8FBFF"/>
			<stop  offset="0.8795" style="stop-color:#AEF0FF"/>
			<stop  offset="1" style="stop-color:#8CEAFF"/>
		</linearGradient>
		<path fill="url(#SVGID_1_)" d="M10,1.2v81.5L82.5,42L10,1.2z M13.1,76.6V7.3L76.3,42L13.1,76.6z"/>
		<linearGradient id="SVGID_2_" gradientUnits="userSpaceOnUse" x1="23.0797" y1="66.0416" x2="44.5714" y2="24.8927">
			<stop  offset="0" style="stop-color:#FFFFFF;stop-opacity:0"/>
			<stop  offset="1" style="stop-color:#FFFFFF"/>
		</linearGradient>
		<path opacity="0.45" fill="url(#SVGID_2_)" d="M13.1,7.3L76.3,42L32.4,65.9c0,0-16.2,8.2-19.3-23C13.1,29.5,13.1,19,13.1,7.3z"/>
		<linearGradient id="SVGID_3_" gradientUnits="userSpaceOnUse" x1="26.5875" y1="41.9761" x2="98" y2="41.9761">
			<stop  offset="0" style="stop-color:#D1EFFF"/>
			<stop  offset="5.905741e-002" style="stop-color:#D7F1FF"/>
			<stop  offset="0.3719" style="stop-color:#F4FBFF"/>
			<stop  offset="0.551" style="stop-color:#FFFFFF"/>
			<stop  offset="0.6576" style="stop-color:#E8FBFF"/>
			<stop  offset="0.8795" style="stop-color:#AEF0FF"/>
			<stop  offset="1" style="stop-color:#8CEAFF"/>
		</linearGradient>
		<polygon fill="url(#SVGID_3_)" points="26.6,0 26.6,4.8 91.1,42 26.6,79.2 26.6,84 98,42 		"/>
	</g>
	<g>
		<path fill="#00FFFF" d="M16.4,37.2V36h12.7v1.2H23v11.6h-1.2V37.2H16.4z M25.1,39.8c1.1,1,2.1,2.3,3.3,3.9l-1,0.8
			c-1.2-1.7-2.3-3-3.2-3.8L25.1,39.8z"/>
		<path fill="#00FFFF" d="M44.4,40.8V42H31.1v-1.2H44.4z"/>
		<path fill="#00FFFF" d="M49.6,39.5v5.5h-1.2v-5.5v-0.6v-0.6h3.2c0.2-0.6,0.3-1.1,0.4-1.5h-5.4v-1.2h12.3v1.2h-5.6
			c-0.1,0.4-0.2,0.9-0.3,1.5h3h0.6h0.6v6.8H56v-5.5H49.6z M52.2,41.2h1.2v3c0,1.4-0.6,2.5-1.7,3.2c-1,0.6-2.5,1.1-4.5,1.3l-0.5-1.4
			c2-0.2,3.4-0.5,4.2-0.9c0.8-0.5,1.2-1.2,1.2-2.2V41.2z M54.1,45.9c1.5,0.3,3.2,0.8,5.1,1.7l-0.5,1.2c-2-0.9-3.6-1.4-4.8-1.7
			L54.1,45.9z"/>
	</g>
	
		<radialGradient id="SVGID_4_" cx="550.9723" cy="355.2992" r="10.8789" gradientTransform="matrix(0.2918 0.3202 -2.2488 1.2704 672.9911 -558.817)" gradientUnits="userSpaceOnUse">
		<stop  offset="0" style="stop-color:#FFFFFF"/>
		<stop  offset="1.252675e-002" style="stop-color:#FFFFFF;stop-opacity:0.9875"/>
		<stop  offset="1" style="stop-color:#FFFFFF;stop-opacity:0"/>
	</radialGradient>
	<path fill="url(#SVGID_4_)" d="M40,74.7C22.6,84.5,6.2,89.9,3.3,86.7c-2.9-3.1,8.9-13.6,26.3-23.4C47,53.5,63.4,48.1,66.2,51.2
		C69.1,54.3,57.3,64.8,40,74.7z"/>
	
		<radialGradient id="SVGID_5_" cx="-706.027" cy="-3022.179" r="10.8789" gradientTransform="matrix(0.1276 -0.4108 1.7124 0.9257 5333.189 2532.4258)" gradientUnits="userSpaceOnUse">
		<stop  offset="0" style="stop-color:#FFFFFF"/>
		<stop  offset="1.252675e-002" style="stop-color:#FFFFFF;stop-opacity:0.9875"/>
		<stop  offset="1" style="stop-color:#FFFFFF;stop-opacity:0"/>
	</radialGradient>
	<path fill="url(#SVGID_5_)" d="M70.2,17.4c13.2,7.1,22.9,16.2,21.7,20.2c-1.2,4-13,1.5-26.2-5.7C52.4,24.9,42.7,15.8,44,11.8
		C45.2,7.8,57,10.3,70.2,17.4z"/>
</g>
</svg>
