<?xml version="1.0" encoding="UTF-8" standalone="no"?>
<!-- Generator: Adobe Illustrator 21.0.0, SVG Export Plug-In . SVG Version: 6.00 Build 0)  -->
<svg id="圖層_2" style="enable-background:new 0 0 246.3 64.1" xmlns="http://www.w3.org/2000/svg" xml:space="preserve" viewBox="0 0 246.3 64.1" version="1.1" y="0px" x="0px" xmlns:xlink="http://www.w3.org/1999/xlink">
<style type="text/css">
	.st0{fill:#89A5A0;}
	.st1{fill:#43514F;}
	.st2{fill:#5D7270;}
	.st3{fill:#FFFFFF;}
	.st4{fill:#F5F5F5;}
</style>
		<path class="st0" d="m217.6 58.3h-189.6c-15.4 0-28-12.5-28-28v-2.3c0-15.5 12.5-28 28-28h189.7c15.4 0 28 12.5 28 28v2.3c-0.1 15.5-12.6 28-28.1 28z"/>
		<path class="st1" d="m216.5 64.1h-187.4c-16.1 0-29.1-13-29.1-29.1s13-29.1 29.1-29.1h187.3c16.1 0 29.1 13 29.1 29.1 0.1 16.1-12.9 29.1-29 29.1z"/>
		<path class="st2" d="m216.5 60.7h-187.4c-16.1 0-29.1-13.1-29.1-29.2s13-29.1 29.1-29.1h187.3c16.1 0 29.1 13 29.1 29.1 0.1 16.1-12.9 29.2-29 29.2z"/>
	<path class="st3" d="m32.4 54.8c-13 0-23.6-10.6-23.6-23.6s10.6-23.6 23.6-23.6 23.6 10.6 23.6 23.6-10.6 23.6-23.6 23.6zm0-46.2c-12.5 0-22.6 10.1-22.6 22.6s10.1 22.6 22.6 22.6c12.4 0 22.6-10.2 22.6-22.6 0-12.5-10.2-22.6-22.6-22.6z"/>
	<polygon points="68.5 61.2 69.5 60.7 69.5 2.1 68.5 2.1" class="st4"/>
		<path class="st3" d="m48 32.7l-2.4-2.4-0.1-0.1h-0.1-0.2s-0.1 0-0.1 0.1l-2.4 2.4c-0.2 0.2-0.2 0.4 0 0.6 0.1 0.1 0.2 0.1 0.3 0.1s0.2 0 0.3-0.1l1.7-1.7v10.2c0 0.2 0.2 0.4 0.4 0.4s0.4-0.2 0.4-0.4v-10.2l1.7 1.7c0.1 0.1 0.2 0.1 0.3 0.1s0.2 0 0.3-0.1c0-0.2 0-0.4-0.1-0.6z"/>
		<rect y="17.5" x="18.8" height="2.5" class="st3" width="23.4"/>
		<path class="st3" d="m35.6 22.2h-1v0.9h1v-0.9zm2.1 1v-1h-1v0.9h0.9c0 0.1 0 0.1 0.1 0.1zm-4.1 0v-0.9h-1v1h1v-0.1zm1.9 2.8h-0.9v1.9h1v-1.7c0-0.1 0-0.2-0.1-0.2zm3.2-4.7v6.5c0 0.6-0.5 1.1-1.1 1.1h-4.8c-0.6 0-1.1-0.5-1.1-1.1v-6.5h-5.1v3.3h-3.1v-3.3h-3.1v22.4c0 0.8 0.7 1.5 1.6 1.5h17.1c0.9 0 1.6-0.7 1.6-1.5v-22.4h-2zm-12.2 20.2h-3.1v-3.8h3.1v3.8zm0-5.6h-3.1v-3.8h3.1v3.8zm0-5.7h-3.1v-3.8h3.1v3.8zm8 11.2c-0.1 0.1-0.2 0.1-0.4 0.1-0.1 0-0.3-0.1-0.4-0.1-0.1-0.1-0.1-0.2-0.1-0.3s0.1-0.2 0.1-0.3c0.2-0.2 0.5-0.2 0.7 0 0.1 0.1 0.1 0.2 0.1 0.3 0.1 0.1 0.1 0.2 0 0.3zm0.1-2.3c0 0.3-0.2 0.5-0.5 0.5s-0.5-0.2-0.5-0.5v-0.9c0-0.3 0.2-0.5 0.5-0.5s0.5 0.2 0.5 0.5v0.9zm0-2.8c0 0.3-0.2 0.5-0.5 0.5s-0.5-0.2-0.5-0.5v-0.5c0-0.3 0.2-0.5 0.5-0.5s0.5 0.2 0.5 0.5v0.5zm0-2.3c0 0.3-0.2 0.5-0.5 0.5s-0.5-0.2-0.5-0.5v-1c0-0.3 0.2-0.5 0.5-0.5s0.5 0.2 0.5 0.5v1zm0-2.8c0 0.3-0.2 0.5-0.5 0.5s-0.5-0.2-0.5-0.5v-0.5c0-0.3 0.2-0.5 0.5-0.5s0.5 0.2 0.5 0.5v0.5zm2.6 9.8c0 0.3-0.2 0.5-0.5 0.5s-0.5-0.2-0.5-0.5v-4.2c0-0.3 0.2-0.5 0.5-0.5s0.5 0.2 0.5 0.5v4.2zm0-6.1c0 0.3-0.2 0.5-0.5 0.5s-0.5-0.2-0.5-0.5v-4.2c0-0.3 0.2-0.5 0.5-0.5s0.5 0.2 0.5 0.5v4.2zm-4.5-7h0.9v-1.9h-1v1.8s0 0.1 0.1 0.1zm0-2.8h2.8c0.6 0 1.1 0.5 1.1 1.1v1.6c0 0.1 0.1 0.1 0.1 0.1h0.8c0.1 0 0.1-0.1 0.1-0.1v-3.5c0-0.1-0.1-0.1-0.1-0.1h-4.8c-0.1 0-0.1 0.1-0.1 0.1v0.7s0 0.1 0.1 0.1z"/>
</svg>
