<?xml version="1.0" encoding="utf-8"?>
<!-- Generator: Adobe Illustrator 18.1.1, SVG Export Plug-In . SVG Version: 6.00 Build 0)  -->
<svg version="1.1" id="圖層_1" xmlns="http://www.w3.org/2000/svg" xmlns:xlink="http://www.w3.org/1999/xlink" x="0px" y="0px"
	 viewBox="0 0 106.9 31.3" enable-background="new 0 0 106.9 31.3" xml:space="preserve">
<g>
	<g>
		<path fill-rule="evenodd" clip-rule="evenodd" fill="#17657D" d="M0,2.3c0-0.9,1-1.7,2.2-1.7h102.5c1.2,0,2.2,0.7,2.2,1.7v27.3
			c0,0.9-1,1.7-2.2,1.7H2.2C1,31.3,0,30.5,0,29.6V2.3z"/>
		<path fill-rule="evenodd" clip-rule="evenodd" fill="#1281B2" d="M104.7,0H2.2C1,0,0,0.8,0,1.7v0.6c0-0.9,1-1.7,2.2-1.7h102.5
			c1.2,0,2.2,0.7,2.2,1.7V1.7C106.9,0.8,105.9,0,104.7,0z"/>
		<path opacity="0.3" fill-rule="evenodd" clip-rule="evenodd" fill="#1E2023" d="M2.2,31.3h102.5c1.2,0,2.2-0.7,2.2-1.7v-1.4
			c0,0.9-1,1.7-2.2,1.7H2.2C1,29.9,0,29.1,0,28.2v1.4C0,30.5,1,31.3,2.2,31.3z"/>
		<path opacity="0.2" fill="#FFFFFF" d="M0,24.7l15.7,5.1H0.8c0,0-0.8,0-0.8-0.2V24.7z"/>
		<polyline opacity="0.2" fill="#FFFFFF" points="0,18.8 6.6,29.9 0.1,29.9 		"/>
		<path opacity="0.2" fill="#FFFFFF" d="M106.9,5.8L91,0.6h15c0,0,0.8,0,0.8,0.2V5.8z"/>
		<polyline opacity="0.2" fill="#FFFFFF" points="106.9,11.8 100.2,0.6 106.8,0.6 		"/>
	</g>
</g>
</svg>
