<?xml version="1.0" encoding="utf-8"?>
<!-- Generator: Adobe Illustrator 18.1.1, SVG Export Plug-In . SVG Version: 6.00 Build 0)  -->
<svg version="1.1" id="圖層_1" xmlns="http://www.w3.org/2000/svg" xmlns:xlink="http://www.w3.org/1999/xlink" x="0px" y="0px"
	 viewBox="0 0 150 117.4" enable-background="new 0 0 150 117.4" xml:space="preserve">
<g>
	<g>
		<g>
			<path fill="#4D4D4D" d="M44.2,33.8c-0.6-1.8-1.8-3.3-3.5-4.2L31.8,25c-1.7-0.9-3.6-1-5.5-0.5c-1.8,0.6-3.3,1.8-4.2,3.5L0.8,69.3
				C-1,72.8,0.4,77.2,3.9,79l8.9,4.6c1.2,0.6,2.4,0.9,3.6,0.8c2.5-0.1,4.8-1.5,6.1-3.9l21.3-41.2C44.7,37.6,44.8,35.7,44.2,33.8z
				 M39.5,37.1L18.2,78.3c-0.6,1.1-2,1.6-3.2,1l-8.9-4.6c-1.1-0.6-1.6-2-1-3.2l21.3-41.2c0.3-0.6,0.8-1,1.4-1.1
				c0.2-0.1,0.4-0.1,0.6-0.1c0.4,0,0.8,0.1,1.2,0.3l8.9,4.6c0.6,0.3,1,0.8,1.1,1.4C39.8,35.9,39.8,36.5,39.5,37.1z"/>
		</g>
		<g>
			<path fill="#4D4D4D" d="M148.8,61.9l-25.5-38.5c-1.1-1.6-2.7-2.7-4.5-3c-1.9-0.4-3.8,0-5.4,1l-8.3,5.5c-1.6,1.1-2.7,2.7-3,4.5
				c-0.4,1.9,0,3.8,1,5.4l25.5,38.5c1.5,2.2,3.9,3.3,6.4,3.2c1.2-0.1,2.4-0.5,3.5-1.2l8.3-5.5C150.1,69.6,151,65.2,148.8,61.9z
				 M144.1,67.8l-8.3,5.5c-1.1,0.7-2.5,0.4-3.2-0.7l-25.5-38.5c-0.3-0.5-0.5-1.1-0.3-1.7c0.1-0.6,0.5-1.1,1-1.5l8.3-5.5
				c0.3-0.2,0.7-0.4,1.1-0.4c0.2,0,0.4,0,0.6,0c0.6,0.1,1.1,0.5,1.5,1l25.5,38.5C145.5,65.6,145.2,67.1,144.1,67.8z"/>
		</g>
		<path fill="#4D4D4D" d="M72.1,97.2c-1.3-0.9-2.7-1.3-4.3-1.3c0.3-1.1,0.3-2.3,0.1-3.4c-0.4-2.1-1.6-3.9-3.4-5.1
			c-1.4-1-3-1.4-4.6-1.3c0.1-0.9,0.1-1.7-0.1-2.6c-0.4-2.2-1.7-4.1-3.5-5.3c-1.8-1.2-4.1-1.7-6.2-1.2c-2.2,0.4-4.1,1.7-5.3,3.5
			l-1.5,2.3c-0.6-1.1-1.4-2.1-2.5-2.8c-3.4-2.3-8-1.4-10.3,2l-1.8,2.7c-2.3,3.4-1.4,8,2,10.3c1.2,0.8,2.7,1.2,4.1,1.2
			c-0.3,1.2-0.4,2.5-0.2,3.8c0.4,2.2,1.7,4.1,3.5,5.3c1.5,1,3.2,1.5,5,1.4c0.4,0,0.8-0.1,1.3-0.2c0.4-0.1,0.8-0.2,1.2-0.4
			c0.5,1.9,1.6,3.6,3.3,4.7c1.5,1,3.1,1.4,4.8,1.3c0.9,0,1.7-0.3,2.5-0.6c0.5,1.9,1.6,3.5,3.2,4.6c1.4,0.9,3.1,1.4,4.7,1.3
			c0.4,0,0.8-0.1,1.2-0.1c2.1-0.4,3.9-1.6,5.1-3.4l3.8-5.7C76.7,104.6,75.8,99.7,72.1,97.2z M33.1,91.5c-1.5-1-1.9-3.1-0.9-4.6
			l1.8-2.7c0.6-0.9,1.6-1.4,2.6-1.5c0.7,0,1.4,0.1,2,0.5c0.7,0.5,1.2,1.2,1.4,2.1c0.2,0.9,0,1.7-0.5,2.5l-1.8,2.7
			c-0.5,0.7-1.2,1.2-2.1,1.4C34.7,92.2,33.8,92,33.1,91.5z M43.6,101.9c-1,0.2-2,0-2.8-0.5c-0.8-0.5-1.4-1.4-1.6-2.4
			c-0.2-1,0-2,0.5-2.8l8.8-13.2c0.5-0.8,1.4-1.4,2.4-1.6c0.2,0,0.4-0.1,0.6-0.1c0.8,0,1.5,0.2,2.2,0.6c0.8,0.5,1.4,1.4,1.6,2.4
			c0.2,1,0,2-0.5,2.8L46,100.4C45.4,101.2,44.6,101.7,43.6,101.9z M51.6,106.9L51.6,106.9c-0.7-0.5-1.2-1.2-1.4-2.1
			c-0.2-0.9,0-1.8,0.5-2.5l6.8-10.2c0.6-0.9,1.6-1.4,2.6-1.5c0.7,0,1.4,0.1,2,0.6c0.7,0.5,1.2,1.2,1.4,2.1c0.2,0.9,0,1.8-0.5,2.5
			L56.1,106C55.1,107.5,53.1,108,51.6,106.9z M70.6,105.8l-3.8,5.7c-0.5,0.8-1.3,1.3-2.2,1.5c-0.9,0.2-1.9,0-2.6-0.5
			c-0.8-0.5-1.3-1.3-1.5-2.2c-0.2-0.9,0-1.9,0.5-2.6l3.8-5.7c0.5-0.8,1.3-1.3,2.2-1.5c0.2,0,0.4-0.1,0.5-0.1c0.7,0,1.5,0.2,2.1,0.6
			C71.3,102,71.7,104.2,70.6,105.8z"/>
		<path fill="#4D4D4D" d="M106.4,35l-1.6,3.6c-0.5,0.3-3,1.5-11.4-0.4c-0.4-0.1-4.8-1.2-11.1-1.4c-6-0.3-14.8,0.2-23.1,3.8l-0.5,0.2
			l-0.3,0.4c-0.3,0.4-8.4,9.6-12,19.1l-0.1,0.1l0,0.1c-0.1,0.5-1,4.6,1.6,7c1.8,1.7,4.6,1.9,8.3,0.7c8-2.7,11.7-8.4,12.8-10.5
			l3.3-1.8l43.6,25.1c0.5,0.4,1.1,0.6,1.8,0.7c0.1,0,0.2,0,0.3,0c1.8-0.1,4.8-1.5,11.1-9.7l1-1.3L106.4,35z M118,76.8L72.3,50.6
			L66.1,54l-0.7,0.4l-0.3,0.7c-0.1,0.2-2.7,6.1-10.4,8.7c-2.3,0.8-3.4,0.6-3.7,0.3c-0.4-0.4-0.4-1.6-0.3-2.3
			c3-7.7,9.3-15.4,10.8-17.2c14.3-6,30.6-2,30.7-1.9l0.1,0c5.5,1.3,9.8,1.5,12.7,0.7c0.4-0.1,0.8-0.2,1.1-0.4l18.2,27.3
			C120.6,75.1,118.7,76.5,118,76.8z"/>
		<path fill="#4D4D4D" d="M32.6,35c2.5,3.3-1,7.1-4.5,4.9c-0.1-0.1-0.2-0.2-0.3-0.3c-2.5-3.3,1-7.1,4.5-4.9
			C32.5,34.8,32.6,34.9,32.6,35z"/>
		<path fill="#4D4D4D" d="M16.7,67.4c2.5,3.3-1,7.1-4.5,4.9C12.1,72.2,12,72.1,12,72c-2.5-3.3,1-7.1,4.5-4.9
			C16.5,67.2,16.6,67.3,16.7,67.4z"/>
		<path fill="#4D4D4D" d="M118.5,32.3c2.5,3.3-1,7.1-4.5,4.9c-0.1-0.1-0.2-0.2-0.3-0.3c-2.5-3.3,1-7.1,4.5-4.9
			C118.4,32.1,118.5,32.2,118.5,32.3z"/>
		<path fill="#4D4D4D" d="M138.1,61.8c2.5,3.3-1,7.1-4.5,4.9c-0.1-0.1-0.2-0.2-0.3-0.3c-2.5-3.3,1-7.1,4.5-4.9
			C137.9,61.6,138,61.7,138.1,61.8z"/>
		<path fill="#4D4D4D" d="M31.1,80.1l-4.7-5.3l14.7-28.5c2.2,1.6,4.9,2.3,6.4,2.7c0.2,0,0.3,0.1,0.4,0.1c0.1,0,0.2,0,0.3,0.1
			c2.5,0.3,4.9,0.7,7.1,1.2l3.4-4c-3-0.7-6.2-1.3-9.7-1.7c-0.1,0-0.2-0.1-0.3-0.1c-1.5-0.4-5-1.3-6-3.2c-0.4-0.8-1.2-1.2-2.1-1.2
			c-0.9,0-1.6,0.5-2,1.3L21.6,74.1c-0.4,0.8-0.3,1.9,0.3,2.6l5.7,6.5c0.3,0.4,1.8,2.3,4.1,4.9c0.1-0.4,0.2-0.7,0.4-1.1l1.8-2.7
			c0.1-0.1,0.2-0.2,0.4-0.3c-1.9-2.2-3.1-3.7-3.1-3.7C31.2,80.2,31.2,80.2,31.1,80.1z M120.6,80.2c-0.1-0.5-0.5-1-0.9-1.3
			c-0.1-0.1-10.9-5.5-21.7-12.4c-2.8-1.8-7.6-4.9-9.9-6.3l-4,2.1c2.8,1.7,8.5,4.3,12.7,7c8.8,5.6,17.1,11.3,19.6,12.9
			c0.4,1.7,0.5,3.7-0.4,4.7c-0.9,1.1-3,1.1-3.9,1L89.4,76.3c-1.1-0.6-2.5-0.2-3.1,0.9c-0.6,1.1-0.2,2.5,0.9,3.1L107.7,92
			c0,1.3-0.3,2.6-1.1,3.3c-1,0.9-2.6,0.9-3.3,0.8l-19.6-9.5c-1.1-0.5-2.5-0.1-3.1,1c-0.6,1.1-0.2,2.5,0.9,3.1l18.2,10.1
			c-0.1,1.2-0.5,2.1-1.1,2.7c-1.1,1-3,1-3.9,0.9l-15.3-7.6c-1.1-0.6-2.5-0.1-3.1,1c-0.6,1.1-0.2,2.5,1,3.1l12.6,6.8
			c-0.5,0.5-1.3,1.2-2.5,2.1c-3.5,2.5-10.2,0.7-12.5-0.2c-0.3-0.1-0.6-0.2-1-0.2c-1.8,0.1-3.6-0.1-5.4-0.5l-1.6,2.5
			c-0.4,0.7-1.1,1.1-1.9,1.3c3,0.9,5.9,1.4,8.6,1.3c1.4,0.5,5.5,1.8,9.7,1.6c2.4-0.1,4.8-0.7,6.8-2.2c2.4-1.7,3.8-3.2,4.5-4.5
			c1.6,0.1,4.6,0,6.9-2c1.7-1.5,2.6-3.6,2.8-6.3c1.6-0.1,3.6-0.5,5.3-2c1.6-1.4,2.5-3.5,2.7-6.2c1.8,0.1,4.9-0.2,7-2.6
			C121.4,87.8,121.8,84.5,120.6,80.2z"/>
	</g>
	<path fill="#4D4D4D" d="M83.5,16.5C83.7,16.7,83.8,16.9,83.5,16.5C83.3,16.1,83.4,16.3,83.5,16.5c-0.8-1.3-2.3-2.2-3.8-2.7
		c-1-0.4-2.1-0.6-3.1-0.8V6.8c0.9,0.1,1.8,0.4,2.5,0.9c0.3,0.2,0.6,0.5,0.9,0.8c0.1,0.2,0.2,0.3,0.3,0.5c0.1,0.2,0.1,0.4,0.2,0.5
		c0.3,0.6,0.9,1,1.6,1.1c0.7,0,1.4-0.4,1.7-0.9C84,9.4,84,9,84,8.7c0-0.2-0.1-0.4-0.2-0.6c-0.1-0.2-0.2-0.4-0.3-0.6
		c-0.4-0.7-0.9-1.3-1.5-1.9c-1.3-1.1-3-1.8-4.8-2.1c-0.2,0-0.5-0.1-0.7-0.1V1.7c0-0.6-0.4-1.2-1.1-1.5c-0.7-0.3-1.4-0.2-2,0.3
		c-0.4,0.3-0.6,0.8-0.6,1.2v1.8c-1.8,0.2-3.6,0.8-4.9,2c-0.6,0.5-1.1,1.1-1.5,1.8C66,8,65.9,8.9,65.9,9.7c0,0.8,0.2,1.6,0.6,2.4
		c0.4,0.7,0.9,1.3,1.6,1.7c1.4,1,3.1,1.5,4.8,1.9v6.5c-0.9-0.2-1.7-0.6-2.3-1.1c-0.3-0.3-0.6-0.6-0.8-0.9c-0.1-0.2-0.2-0.4-0.3-0.5
		c-0.1-0.2-0.1-0.4-0.2-0.6c-0.2-0.6-0.9-1.1-1.6-1.1c-0.7-0.1-1.4,0.3-1.8,0.9c-0.2,0.3-0.2,0.6-0.2,0.9c0,0.2,0.1,0.4,0.1,0.6
		c0.1,0.2,0.1,0.4,0.2,0.6c0.3,0.7,0.8,1.4,1.4,2c1.2,1.2,2.8,2,4.5,2.5c0.3,0.1,0.6,0.1,0.9,0.2v1.9c0,0.6,0.4,1.2,1.1,1.5
		c0.7,0.3,1.4,0.2,2-0.3c0.4-0.3,0.6-0.8,0.6-1.2v-1.7c1.8-0.1,3.7-0.6,5.2-1.6c1.4-1,2.3-2.4,2.5-4C84.4,18.9,84.2,17.6,83.5,16.5z
		 M72.9,12.2c-0.4-0.1-0.8-0.2-1.2-0.4c-0.4-0.1-0.8-0.3-1.2-0.6c-0.3-0.2-0.7-0.5-0.8-0.8c-0.2-0.4-0.2-0.8-0.1-1.2
		c0-0.4,0.2-0.7,0.4-1.1c0.6-0.8,1.8-1.3,2.9-1.5V12.2z M80.3,20.6c-0.7,1.2-2.3,1.6-3.7,1.8v-6c0.9,0.2,1.7,0.4,2.5,0.8
		c0.4,0.2,0.7,0.4,1,0.6c0.3,0.3,0.4,0.6,0.5,0.9C80.7,19.4,80.6,20.1,80.3,20.6z"/>
</g>
</svg>
