<?xml version="1.0" encoding="utf-8"?>
<!-- Generator: Adobe Illustrator 21.0.0, SVG Export Plug-In . SVG Version: 6.00 Build 0)  -->
<svg version="1.1" id="圖層_1" xmlns="http://www.w3.org/2000/svg" xmlns:xlink="http://www.w3.org/1999/xlink" x="0px" y="0px"
	 viewBox="0 0 150 150" style="enable-background:new 0 0 150 150;" xml:space="preserve">
<style type="text/css">
	.st0{fill:#0092EB;}
</style>
<g>
	<path class="st0" d="M75,150c-20,0-38.9-7.8-53-22C7.8,113.8,0,95,0,75s7.8-38.9,22-53C36.2,7.8,55,0,75,0s38.9,7.8,53,22
		c14.2,14.2,22,33,22,53s-7.8,38.9-22,53S95.1,150,75,150 M75,4.3C36,4.3,4.3,36,4.3,75S36,145.7,75,145.7S145.7,114,145.7,75
		C145.8,36,114,4.3,75,4.3"/>
	<path class="st0" d="M106.8,33.4H92.4v-8.6c0-1-1.2-1.6-2-0.9l-11.7,9.5H62c-5.8,0-10.5,4.7-10.5,10.5V46h40.7
		c6.7,0,12.3,4.7,12.3,10.5v42.7h2.4c5.8,0,10.5-4.7,10.5-10.5V43.9C117.3,38.1,112.6,33.4,106.8,33.4"/>
	<path class="st0" d="M88.1,50.3H43.3c-5.8,0-10.5,4.7-10.5,10.5v44.8c0,5.8,4.7,10.5,10.5,10.5h15v9.1c0,1,1.2,1.6,2,0.9l12.4-10
		h15.5c5.8,0,10.5-4.7,10.5-10.5V60.8C98.6,55,93.9,50.3,88.1,50.3 M88.9,97.5c0,4.5-3.7,8.2-8.2,8.2h-30c-4.5,0-8.2-3.7-8.2-8.2
		V69.6c0-4.5,3.7-8.2,8.2-8.2h30c4.5,0,8.2,3.7,8.2,8.2V97.5z"/>
	<path class="st0" d="M54.9,85.9c0,2.4-2.1,4.6-4.7,4.6c-3,0-4.3-2.5-4.3-4.6c0-3.3,2.3-4.4,4.3-4.4C53.1,81.5,54.9,83.4,54.9,85.9"
		/>
	<path class="st0" d="M70.1,85.9c0,2.4-2.1,4.6-4.7,4.6c-3,0-4.3-2.5-4.3-4.6c0-3.3,2.3-4.4,4.3-4.4C68.4,81.5,70.1,83.4,70.1,85.9"
		/>
	<path class="st0" d="M85.4,85.9c0,2.4-2.1,4.6-4.7,4.6c-3,0-4.3-2.5-4.3-4.6c0-3.3,2.3-4.4,4.3-4.4C83.7,81.5,85.4,83.4,85.4,85.9"
		/>
</g>
</svg>
