<?xml version="1.0" encoding="utf-8"?>
<!-- Generator: Adobe Illustrator 21.0.0, SVG Export Plug-In . SVG Version: 6.00 Build 0)  -->
<svg version="1.1" id="圖層_1" xmlns="http://www.w3.org/2000/svg" xmlns:xlink="http://www.w3.org/1999/xlink" x="0px" y="0px"
	 viewBox="0 0 150 150" style="enable-background:new 0 0 150 150;" xml:space="preserve">
<style type="text/css">
	.st0{fill:#0092EB;}
</style>
<g>
	<path class="st0" d="M75,150c-20,0-38.9-7.8-53-22C7.8,113.8,0,95,0,75s7.8-38.9,22-53S55,0,75,0s38.9,7.8,53,22
		c14.2,14.2,22,33,22,53s-7.8,38.9-22,53C113.8,142.2,95,150,75,150 M75,4.3C36,4.3,4.3,36,4.3,75S36,145.7,75,145.7
		S145.7,114,145.7,75S113.9,4.3,75,4.3"/>
	<path class="st0" d="M44.8,55.3c-0.3-4.6,0.3-8.9,1.6-12.9c1.3-3.9,3.3-7.3,5.9-10c2.6-2.8,5.8-4.9,9.6-6.5c3.8-1.6,8-2.3,12.6-2.3
		c4.1,0,8,0.5,11.7,1.4s7,2.4,9.8,4.5s5,4.7,6.7,7.9s2.5,7.1,2.5,11.6c0,4.3-0.8,8-2.5,11.2s-3.8,6.4-6.4,9.6
		c-1.5,1.8-3,3.6-4.5,5.4c-1.5,1.8-2.9,3.6-4.2,5.5c-0.9,1.3-1.6,2.4-2,3.4s-0.8,2-1.1,3c-0.3,1-0.5,2.1-0.6,3.2
		c-0.1,1.2-0.2,2.5-0.3,3.9H63.3c-0.1-3.2,0-6.4,0.3-9.7s1.3-6.3,3.1-9.2c1.1-1.3,2.5-3,4.2-5s3.4-4.1,5-6.4c1.6-2.2,3-4.5,4.1-6.8
		s1.7-4.6,1.7-6.7c0-2.4-0.6-4.5-1.7-6.2c-1.2-1.7-3.1-2.6-5.8-2.6c-2,0-3.5,0.4-4.6,1.3c-1.1,0.8-1.9,1.9-2.4,3.2s-0.8,2.7-0.9,4.4
		c-0.1,1.6-0.1,3.2-0.1,4.8L44.8,55.3L44.8,55.3z M61.9,126.4v-22.9h22.6l0.1,22.9H61.9z"/>
</g>
</svg>
