<?xml version="1.0" encoding="utf-8"?>
<!-- Generator: Adobe Illustrator 21.0.0, SVG Export Plug-In . SVG Version: 6.00 Build 0)  -->
<svg version="1.1" id="圖層_1" xmlns="http://www.w3.org/2000/svg" xmlns:xlink="http://www.w3.org/1999/xlink" x="0px" y="0px"
	 viewBox="0 0 150 150" style="enable-background:new 0 0 150 150;" xml:space="preserve">
<style type="text/css">
	.st0{fill:#0092EB;}
</style>
<g>
	<path class="st0" d="M75,150c-20,0-38.9-7.8-53-22C7.8,113.8,0,95,0,75s7.8-38.9,22-53S55,0,75,0s38.9,7.8,53,22
		c14.2,14.2,22,33,22,53s-7.8,38.9-22,53C113.9,142.1,95,150,75,150 M75,4.2C36,4.2,4.3,35.9,4.3,74.9S36,145.6,75,145.6
		s70.7-31.7,70.7-70.7C145.7,36,114,4.2,75,4.2"/>
	<g>
		<g>
			<path class="st0" d="M115.1,73.4c-1.6,0-3-0.6-4.1-1.7l-24.9-26c-1-1.1-1.6-2.5-1.6-4s0.6-2.9,1.7-4l9.1-8.7c2.2-2.1,5.9-2,8,0.2
				l24.9,26c2.2,2.2,2.1,5.8-0.2,8l-9.1,8.7C118,72.9,116.6,73.4,115.1,73.4z M99.2,31.7c-0.4,0-0.7,0.1-1,0.4l-9.1,8.7
				c-0.3,0.3-0.4,0.6-0.4,1s0.1,0.7,0.4,1l24.9,26c0.5,0.5,1.4,0.6,1.9,0l9.1-8.7c0.5-0.5,0.6-1.4,0-1.9l-24.9-26
				C100,31.9,99.6,31.7,99.2,31.7z"/>
		</g>
		<g>
			<path class="st0" d="M101,87.5L71.7,59c-0.1-0.1-2.7-2.6-7.6-2.3c-0.4,0-3.9,0.3-4.6,3.6c-2.1,10.2-8.2,11.4-11.6,11.2
				c-3.4-0.2-6.8-2.6-8.7-6.3c-1.7-3.3-3.6-10.3,2.8-20.4c7.8-12.3,18.9-9,24.3-7.4c0.9,0.3,3.1,0.4,5.2,0.6
				c7.6,0.5,14.2,1.2,17.2,4.2l-3,3c-2.1-2.1-9.8-2.6-14.4-2.9c-2.8-0.2-4.8-0.3-6-0.7c-7-2.1-14-3.4-19.6,5.5
				c-5.2,8.3-3.9,13.7-2.6,16.2c1.4,2.6,3.5,3.9,5.1,4c1.4,0.1,5.5,0.3,7.2-7.8c1.1-5.4,6.1-7,8.5-7c7-0.5,10.7,3.4,10.9,3.5
				L101,81.5l11.7-11.7l3,3L101,87.5z"/>
		</g>
		<g>
			<g>
				<path class="st0" d="M81.9,122.4c-3.2,0-6.5-2.3-8.4-4.2L20.8,66.5c-0.8-0.8-0.9-2.2,0-3c0.8-0.8,2.2-0.9,3,0l52.7,51.8
					c0.1,0.1,4.6,4.4,6.7,2.4c0.6-0.6,0.7-1,0.7-1.3c0-2.8-5.8-8.4-13.9-16.3l-0.6-0.6c-0.8-0.8-0.9-2.2,0-3c0.8-0.8,2.2-0.9,3,0
					l0.6,0.6c10.1,9.8,15.2,14.8,15.2,19.3c0,1.6-0.7,3.1-2,4.3C84.8,121.9,83.4,122.4,81.9,122.4z"/>
			</g>
			<g>
				<path class="st0" d="M89,115c-3.2,0-6.5-2.3-8.4-4.2c-0.8-0.8-0.8-2.2,0-3s2.2-0.8,3,0c0,0,4.6,4.4,6.7,2.4
					c0.6-0.6,0.7-1,0.7-1.3c0-2.8-5.8-8.4-13.9-16.3l-0.6-0.5c-0.8-0.8-0.9-2.2,0-3c0.8-0.8,2.2-0.9,3,0l0.6,0.5
					c10.1,9.8,15.2,14.8,15.2,19.3c0,1.6-0.7,3.1-2,4.3C91.9,114.6,90.5,115,89,115z"/>
			</g>
			<g>
				<path class="st0" d="M96.2,107.8c-3.2,0-6.5-2.3-8.4-4.2c-0.8-0.8-0.8-2.2,0-3s2.2-0.8,3,0c0,0,4.6,4.4,6.7,2.4
					c0.6-0.6,0.7-1,0.7-1.3c0-2.8-5.8-8.4-13.9-16.2l-0.6-0.6c-0.8-0.8-0.9-2.2,0-3c0.8-0.8,2.2-0.9,3,0l0.6,0.6
					c10.1,9.8,15.2,14.7,15.2,19.3c0,1.6-0.7,3.1-2,4.3C99.2,107.3,97.7,107.8,96.2,107.8z"/>
			</g>
			<g>
				<path class="st0" d="M103.5,100.5c-3.2,0-6.5-2.3-8.4-4.2c-0.8-0.8-0.8-2.2,0-3s2.2-0.8,3,0c0,0,4.6,4.4,6.7,2.4
					c0.6-0.6,0.7-1,0.7-1.3c0-2.8-5.8-8.4-13.9-16.3L91,77.6c-0.8-0.8-0.9-2.2,0-3c0.8-0.8,2.2-0.9,3,0l0.6,0.5
					c10.1,9.8,15.2,14.8,15.2,19.3c0,1.6-0.7,3.1-2,4.3C106.4,100.1,105,100.5,103.5,100.5z"/>
			</g>
		</g>
		<g>
			<g>
				<path class="st0" d="M56.3,117.5c-1.5,0-2.9-0.5-4.2-1.7s-1.9-2.7-2-4.3c-0.1-3.4,2.7-6.9,7.5-11.9c0.8-0.8,2.2-0.9,3,0
					c0.8,0.8,0.9,2.2,0,3c-3,3-6.4,6.8-6.3,8.8c0,0.3,0.1,0.7,0.7,1.3c2,2,6.6-2.3,6.6-2.4l3.4-3.4c0.8-0.8,2.2-0.8,3,0s0.8,2.2,0,3
					l-3.4,3.4C62.8,115.2,59.5,117.5,56.3,117.5z"/>
			</g>
			<g>
				<path class="st0" d="M49.2,110.2c-1.5,0-2.9-0.5-4.2-1.7s-1.9-2.7-2-4.2c-0.1-3.3,2.7-6.9,7.2-11.5c0.8-0.8,2.2-0.9,3-0.1
					c0.9,0.8,0.9,2.2,0.1,3c-1.6,1.7-6,6.2-6,8.5c0,0.3,0.1,0.7,0.7,1.2c2.1,2,6.6-2.3,6.7-2.4c0.8-0.8,2.2-0.8,3,0s0.8,2.2,0,3
					C55.7,107.9,52.4,110.2,49.2,110.2z"/>
			</g>
			<g>
				<path class="st0" d="M42,102.9c-1.5,0-2.9-0.5-4.2-1.7c-1.3-1.3-2-2.8-2.1-4.4c-0.1-3.2,2.6-6.5,7.1-11.2c0.8-0.8,2.2-0.9,3,0
					c0.8,0.8,0.9,2.2,0,3c-2.8,2.8-5.9,6.3-5.9,8.1c0,0.3,0.1,0.7,0.8,1.4c2,2,6.6-2.3,6.7-2.4c0.8-0.8,2.2-0.8,3,0s0.8,2.2,0,3
					C48.5,100.6,45.2,102.9,42,102.9z"/>
			</g>
			<g>
				<path class="st0" d="M34.7,95.7c-1.5,0-2.9-0.5-4.2-1.7s-1.9-2.7-2-4.2c-0.1-3.3,2.7-6.9,7.2-11.6c0.8-0.8,2.2-0.9,3-0.1
					s0.9,2.2,0.1,3c-1.7,1.7-6.1,6.3-6,8.5c0,0.3,0.1,0.7,0.7,1.3c2.1,2,6.6-2.3,6.7-2.4c0.8-0.8,2.2-0.8,3,0s0.8,2.2,0,3
					C41.2,93.4,37.9,95.7,34.7,95.7z"/>
			</g>
		</g>
		<circle class="st0" cx="115.3" cy="60.5" r="3.2"/>
	</g>
</g>
</svg>
