<?xml version="1.0" encoding="utf-8"?>
<!-- Generator: Adobe Illustrator 21.0.0, SVG Export Plug-In . SVG Version: 6.00 Build 0)  -->
<svg version="1.1" id="圖層_1" xmlns="http://www.w3.org/2000/svg" xmlns:xlink="http://www.w3.org/1999/xlink" x="0px" y="0px"
	 viewBox="0 0 150 150" style="enable-background:new 0 0 150 150;" xml:space="preserve">
<style type="text/css">
	.st0{fill:#0092EB;}
</style>
<g>
	<path class="st0" d="M75,150c-20,0-38.9-7.8-53-22S0,95,0,75s7.8-38.9,22-53S55,0,75,0s38.9,7.8,53,22s22,33,22,53s-7.8,38.9-22,53
		S95,150,75,150 M75,4.3C36,4.3,4.3,36,4.3,75S36,145.7,75,145.7S145.7,114,145.7,75S113.9,4.3,75,4.3"/>
	<path class="st0" d="M103.7,30.4c0-3.2,0-6.4-3.2-6.4h-51c-3.2,0-3.2,3.2-3.2,6.4c0,54.2,22.3,47.9,22.3,54.2V91
		c0,6.4-9.6,3.2-9.6,9.6h31.9c0-6.4-9.6-3.2-9.6-9.6v-6.4C81.3,78.2,103.7,84.6,103.7,30.4"/>
	<path class="st0" d="M113.2,30.4c-11.2,0-12.8,9.6-12.8,12.8s0,6.4,3.2,6.4s3.2-3.2,3.2-6.4c0-3.2,1.6-6.4,6.4-6.4s6.4,3.2,6.4,6.4
		c0,16-19.1,25.5-28.7,25.5H59c-9.6,0-28.7-9.6-28.7-25.5c0-3.2,1.6-6.4,6.4-6.4s6.4,3.2,6.4,6.4c0,3.2,0,6.4,3.2,6.4
		s3.2-3.2,3.2-6.4c0-3.2-1.6-12.8-12.8-12.8c-8,0-12.8,6.4-12.8,12.8c0,19.1,22.3,31.9,35.1,31.9h31.9c12.8,0,35.1-12.8,35.1-31.9
		C126,36.8,121.2,30.4,113.2,30.4"/>
	<path class="st0" d="M103.7,106.9H46.3c-1.8,0-3.2,1.4-3.2,3.2v12.8c0,1.8,1.4,3.2,3.2,3.2h57.4c1.8,0,3.2-1.4,3.2-3.2v-12.8
		C106.9,108.4,105.4,106.9,103.7,106.9 M59,113.3h31.9v6.4H59V113.3z"/>
	<path class="st0" d="M90.9,100.6H59c0,0-9.6,0-9.6,6.4h51C100.5,100.6,90.9,100.6,90.9,100.6 M68.6,91h12.8c1.8,0,3.2-1.4,3.2-3.2
		c0-1.8-1.4-3.2-3.2-3.2H68.6c-1.8,0-3.2,1.4-3.2,3.2S66.8,91,68.6,91"/>
</g>
</svg>
