<?xml version="1.0" encoding="utf-8"?>
<!-- Generator: Adobe Illustrator 18.1.1, SVG Export Plug-In . SVG Version: 6.00 Build 0)  -->
<svg version="1.1" id="圖層_1" xmlns="http://www.w3.org/2000/svg" xmlns:xlink="http://www.w3.org/1999/xlink" x="0px" y="0px"
	 viewBox="0 0 245.6 64.1" enable-background="new 0 0 245.6 64.1" xml:space="preserve">
<g>
	<g>
		<path fill="#0A88E5" d="M217.7,58.3H28.1c-15.4,0-28-12.5-28-28l0-2.3c0-15.4,12.5-28,28-28l189.7,0c15.4,0,28,12.5,28,28v2.3
			C245.7,45.7,233.2,58.3,217.7,58.3z"/>
		<path fill="#1A3B74" d="M216.6,64.1H29.2C13.1,64.1,0.1,51,0.1,35l0,0c0-16.1,13-29.1,29.1-29.1h187.3c16.1,0,29.1,13,29.1,29.1
			l0,0C245.7,51,232.7,64.1,216.6,64.1z"/>
		<path fill="#0259B8" d="M216.6,60.6H29.2c-16.1,0-29.1-13-29.1-29.1l0,0c0-16.1,13-29.1,29.1-29.1h187.3c16.1,0,29.1,13,29.1,29.1
			l0,0C245.7,47.6,232.7,60.6,216.6,60.6z"/>
	</g>
	
		<circle fill-rule="evenodd" clip-rule="evenodd" fill="none" stroke="#FFFFFF" stroke-miterlimit="10" cx="32.5" cy="31.1" r="23.1"/>
	<polygon fill-rule="evenodd" clip-rule="evenodd" fill="#C5C9C9" points="67.7,60.6 68.6,61.2 68.6,2.1 67.7,2.1 	"/>
	<polygon fill-rule="evenodd" clip-rule="evenodd" fill="#F5F5F5" points="68.6,61.2 69.6,60.6 69.6,2.1 68.6,2.1 	"/>
	<g>
		<g>
			<g>
				<path fill="#FFFFFF" d="M41.1,18.2V18c0-0.5-0.4-1-1-1H39c-0.5,0-1,0.4-1,1v0.1h-4.2V18c0-0.5-0.4-1-1-1h-1.1c-0.5,0-1,0.4-1,1
					v0.1h-4.2V18c0-0.5-0.4-1-1-1h-1.1c-0.5,0-1,0.4-1,1v0.1H19v25.7h26.8V18.2H41.1z M38.9,18c0-0.1,0.1-0.1,0.1-0.1h1.1
					c0.1,0,0.1,0.1,0.1,0.1v2.4h-1.4V18z M31.7,18c0-0.1,0.1-0.1,0.1-0.1h1.1c0.1,0,0.1,0.1,0.1,0.1v2.4h-1.4V18z M24.5,18
					c0-0.1,0.1-0.1,0.1-0.1h1.1c0.1,0,0.1,0.1,0.1,0.1v2.4h-1.4V18z M45,43.1H19.8V25.6H45V43.1z M45,24.8H19.8v-1.4h22.3v-0.8H19.8
					V19h3.9v2.2h3V19h4.2v2.2h3V19h4.2v2.2h3V19H45V24.8z M45,24.8"/>
				<path fill="#FFFFFF" d="M20.9,26.7V42h17.5l5.5-5.5v-9.7H20.9z M38.6,40.5v-3.8h3.8L38.6,40.5z M43,35.9h-5.3v5.3h-16V27.6H43
					L43,35.9L43,35.9z M43,35.9"/>
				<path fill="#FFFFFF" d="M29.5,37.3"/>
			</g>
			<g>
				<text transform="matrix(1 0 0 1 23.3689 39.4412)" fill="#FFFFFF" font-family="'MicrosoftJhengHeiBold'" font-size="12.1862">7</text>
			</g>
			<text transform="matrix(1 0 0 1 29.0359 39.1628)" fill="#FFFFFF" font-family="'MicrosoftJhengHeiBold'" font-size="3.158">Days</text>
			<rect x="31.4" y="30.5" fill="none" stroke="#FFFFFF" stroke-width="0.25" stroke-miterlimit="10" width="1.9" height="1.9"/>
			<rect x="34.3" y="30.5" fill="none" stroke="#FFFFFF" stroke-width="0.25" stroke-miterlimit="10" width="1.9" height="1.9"/>
			<rect x="37.2" y="30.5" fill="none" stroke="#FFFFFF" stroke-width="0.25" stroke-miterlimit="10" width="1.9" height="1.9"/>
			<rect x="31.4" y="33.3" fill="none" stroke="#FFFFFF" stroke-width="0.25" stroke-miterlimit="10" width="1.9" height="1.9"/>
			<rect x="34.3" y="33.3" fill="none" stroke="#FFFFFF" stroke-width="0.25" stroke-miterlimit="10" width="1.9" height="1.9"/>
			<rect x="37.2" y="33.3" fill="none" stroke="#FFFFFF" stroke-width="0.25" stroke-miterlimit="10" width="1.9" height="1.9"/>
			<rect x="40.1" y="30.5" fill="none" stroke="#FFFFFF" stroke-width="0.25" stroke-miterlimit="10" width="1.9" height="1.9"/>
		</g>
		<path fill="#FFFFFF" d="M43.9,39.7v-0.3l-2.4,1l0,0v0.2l2.4,1v-0.3L42,40.4L43.9,39.7L43.9,39.7z M41.4,41.9h2.4v-0.3h-2.4V41.9z
			 M41.4,42.4h2.4v-0.3h-2.4V42.4z"/>
	</g>
</g>
</svg>
