<?xml version="1.0" encoding="utf-8"?>
<!-- Generator: Adobe Illustrator 18.1.1, SVG Export Plug-In . SVG Version: 6.00 Build 0)  -->
<svg version="1.1" id="圖層_1" xmlns="http://www.w3.org/2000/svg" xmlns:xlink="http://www.w3.org/1999/xlink" x="0px" y="0px"
	 width="163.4px" height="163.4px" viewBox="0 0 163.4 163.4" enable-background="new 0 0 163.4 163.4" xml:space="preserve">
<g>
	<circle fill="#E6E6E6" cx="81.7" cy="81.7" r="81.7"/>
	<g>
		
			<linearGradient id="XMLID_2_" gradientUnits="userSpaceOnUse" x1="7631.6597" y1="-661.3369" x2="7631.6597" y2="-796.9657" gradientTransform="matrix(-1 0 0 1 7713.3599 806.382)">
			<stop  offset="0" style="stop-color:#FFFFFF"/>
			<stop  offset="0.1851" style="stop-color:#F8F8F9"/>
			<stop  offset="0.4603" style="stop-color:#E4E6E8"/>
			<stop  offset="0.7903" style="stop-color:#C3C8CD"/>
			<stop  offset="1" style="stop-color:#AAB1B9"/>
		</linearGradient>
		<circle id="XMLID_46_" fill="url(#XMLID_2_)" cx="81.7" cy="81.7" r="62.8"/>
		
			<linearGradient id="XMLID_3_" gradientUnits="userSpaceOnUse" x1="7631.6597" y1="-666.9291" x2="7631.6597" y2="-790.5877" gradientTransform="matrix(-1 0 0 1 7713.3599 806.382)">
			<stop  offset="0" style="stop-color:#AAB1B9"/>
			<stop  offset="0.2097" style="stop-color:#C3C8CD"/>
			<stop  offset="0.5397" style="stop-color:#E4E6E8"/>
			<stop  offset="0.8149" style="stop-color:#F8F8F9"/>
			<stop  offset="1" style="stop-color:#FFFFFF"/>
		</linearGradient>
		<circle id="XMLID_45_" fill="url(#XMLID_3_)" cx="81.7" cy="81.7" r="57.2"/>
	</g>
	<circle fill="none" stroke="#CCCCCC" stroke-width="10" stroke-miterlimit="10" cx="81.7" cy="81.8" r="73"/>
	<g id="XMLID_41_">
		
			<linearGradient id="XMLID_4_" gradientUnits="userSpaceOnUse" x1="39.8" y1="62.43" x2="123.6" y2="62.43" gradientTransform="matrix(1 0 0 -1 0 163.37)">
			<stop  offset="0" style="stop-color:#2C5209"/>
			<stop  offset="0.9201" style="stop-color:#68AB20"/>
		</linearGradient>
		<rect id="XMLID_42_" x="39.8" y="100.7" fill="url(#XMLID_4_)" width="83.8" height="0.5"/>
	</g>
	<path fill="#61961D" d="M57.8,117.5l-3.5,3.5l-3.5-3.5l3.5-3.5L57.8,117.5z M57,117.5l-2.7-2.7l-2.7,2.7l2.7,2.7L57,117.5z"/>
	<path fill="#61961D" d="M113.6,117.5l-3.5,3.5l-3.5-3.5l3.5-3.5L113.6,117.5z M112.8,117.5l-2.7-2.7l-2.7,2.7l2.7,2.7L112.8,117.5z
		"/>
	<g>
		<g enable-background="new    ">
			<path fill="#61961D" d="M82.1,43.6L81.1,45v4.7h-3.4V34.3h3.4V41h0.1l4.4-6.7H89l-4.8,6.9l4.8,8.5h-3.5L82.1,43.6z"/>
		</g>
	</g>
</g>
</svg>
