<?xml version="1.0" encoding="utf-8"?>
<!-- Generator: Adobe Illustrator 18.1.1, SVG Export Plug-In . SVG Version: 6.00 Build 0)  -->
<svg version="1.1" id="圖層_1" xmlns="http://www.w3.org/2000/svg" xmlns:xlink="http://www.w3.org/1999/xlink" x="0px" y="0px"
	 viewBox="0 0 172.6 150" enable-background="new 0 0 172.6 150" xml:space="preserve">
<path fill="#0091EA" d="M172.1,46.6c-2.1-14.5-12.9-26-27-29.4v-3.8c0-7.4-7-13.4-15.6-13.4s-15.6,6-15.6,13.4v2.7H58.3v-2.7
	C58.3,6,51.4,0,42.9,0S27.5,6,27.5,13.4v3.8c-14.1,3.4-24.8,14.9-27,29.4L0,50.5h172.6L172.1,46.6z M8.1,43.7
	c2.7-9.2,9.7-16.4,18.8-19.4v4.6c0,6.7,4.1,12.4,9.9,14.8H8.1z M33.9,29.7V13.4c0-3.8,4.2-7.1,9.1-7.1S52,9.6,52,13.4v12.7h0.1v2.8
	c0,5.1-4.1,9.2-9.2,9.2C38.1,38.1,34.3,34.4,33.9,29.7z M49,43.7c5.8-2.4,9.9-8.1,9.9-14.8v-6h54.9v6c0,6.7,4.1,12.4,9.9,14.8H49z
	 M129.7,38.1c-5.1,0-9.2-4.1-9.2-9.2l-0.3-15.5c0-3.8,4.2-7.1,9.2-7.1s9.2,3.2,9.2,7.1v16.8C138,34.6,134.4,38.1,129.7,38.1z
	 M135.8,43.7c5.8-2.4,9.9-8.1,9.9-14.8v-4.6c9.1,2.9,16.1,10.2,18.8,19.4H135.8z M88,150h48.7c17.6,0,32.9-13.1,35.3-30.3
	c0.3-1.6,0.5-3.4,0.5-5.5V54H88V150z M94.8,60.7h70.9v53.4c0,1.7-0.1,3-0.4,4.3c-2,14.1-14.4,24.7-28.7,24.7H94.8V60.7z M0.1,114.2
	c0,2.1,0.1,3.8,0.4,5.3C3.1,136.9,18.3,150,35.9,150h48.7V54H0.1V114.2z M6.9,60.7h70.9v82.5H35.9c-14.3,0-26.6-10.6-28.7-24.8
	c-0.2-1.2-0.3-2.5-0.3-4.2V60.7z M40.1,115.6H29.3v6.2h28.9v-6.2H47.5V71.6L29,76.5V83l11-3V115.6z M139.4,115.9
	c2.9-4.4,4.4-10.8,4.4-19c0-16.8-5.3-25.2-16-25.2c-5.6,0-9.9,2.2-12.8,6.7c-3,4.5-4.4,11-4.4,19.6c0,7.9,1.4,14,4.1,18.2
	c2.7,4.2,6.8,6.3,12.1,6.3C132.3,122.6,136.5,120.4,139.4,115.9z M127.2,116.6c-6.1,0-9.1-6.3-9.1-18.8c0-13.4,3.1-20.1,9.3-20.1
	c5.9,0,8.8,6.6,8.8,19.7C136.2,110.3,133.2,116.6,127.2,116.6z"/>
</svg>
