<?xml version="1.0" encoding="utf-8"?>
<!-- Generator: Adobe Illustrator 21.0.0, SVG Export Plug-In . SVG Version: 6.00 Build 0)  -->
<svg version="1.1" id="圖層_1" xmlns="http://www.w3.org/2000/svg" xmlns:xlink="http://www.w3.org/1999/xlink" x="0px" y="0px"
	 viewBox="0 0 150 150" style="enable-background:new 0 0 150 150;" xml:space="preserve">
<style type="text/css">
	.st0{fill:#0091EA;}
</style>
<path class="st0" d="M94.6,82.7v9.5c36.6,21.1,55.1,10.4,55.1,57.8H76h-0.8H0.3c0-49.1,18.5-36.7,55-57.8v-8.3
	c-6.4-4.6-7.9-12.8-10-21.4h-0.1c-1,0-1.9-1.5-1.9-3.4c0-0.2,0-0.4,0.1-0.7c-0.6-1-1.1-2.2-1.7-4.3c-0.8-2.6-3.1-8-1-10.2
	c1.8-1.7,3.1,0.1,3.1,0.1c-2.9-14-6.4-32.3,12.9-37.7c0-12,45.1-6.6,50.6,12.4c2.5,7.5-0.8,24.9-0.8,24.9c0.6-1.1,1.5-1.3,2.6-0.7
	c2.4,1.7-0.3,8.8-1,11.1c-0.6,2.1-1.2,3.6-1.8,4.6V59c0,1.9-0.8,3.4-1.7,3.4C102.8,70.1,100.7,78.5,94.6,82.7L94.6,82.7z"/>
</svg>
