<?xml version="1.0" encoding="utf-8"?>
<!-- Generator: Adobe Illustrator 21.0.0, SVG Export Plug-In . SVG Version: 6.00 Build 0)  -->
<svg version="1.1" id="圖層_1" xmlns="http://www.w3.org/2000/svg" xmlns:xlink="http://www.w3.org/1999/xlink" x="0px" y="0px"
	 viewBox="0 0 153.2 153.2" style="enable-background:new 0 0 153.2 153.2;" xml:space="preserve">
<style type="text/css">
	.st0{fill:#0091EA;}
</style>
<path class="st0" d="M61,32.7c-2.4,0-4.3,1.1-4.4,3.3c-0.1,2.3,1.7,3.4,4.2,3.4h30.4c2.4,0,4.4-1.1,4.4-3.3c0.1-2.6-1.9-3.4-4.6-3.4
	H61z M59.7,27.3c0.7,1.4,1.9,1.7,3.5,1.7h27c1.7,0,2.8-0.6,3.4-1.9c2.3-4.4,4.8-8.6,6.9-13c1.1-2.1,1.5-4.5-1.6-6
	c-4.4-2-4.2,2.9-19.9,1.3C74.3,9,71.3,6.1,67.8,3.7c-4.6-3.3-9.6-3.8-15-1.5c-3.3,1.3-4.5,3.3-3,6.2C53.1,14.7,56.5,21,59.7,27.3z
	 M110.2,64.2C104,58.7,98,53,93.4,46.1c-1.1-1.6-2.3-2.1-4.4-2.1H64.4c-1.7,0-3.2,0.1-4.2,1.6c-5.5,8.5-13.7,15.2-21,22.5
	c-18.4,18.1-25.8,39.7-23.3,63.9c1,9.3,5.3,13.8,15.5,16.3c14.8,3.4,30,4.7,45.3,5c15.2-0.3,30.4-1.5,45.2-5
	c10.3-2.4,14.8-7.7,15.4-16.8C139.3,105.5,131.1,82.9,110.2,64.2z M93.2,118.4c-2.8,2.3-6.5,3.7-11.2,4.2v6.7H76v-6.7
	c-4.8-0.4-8.7-1.9-11.9-4.5c-3.2-2.6-4.7-6.4-4.6-11.4l0.1-0.2h11.1c0,3.1,0.9,5.2,2.3,6.5c1.5,1.3,3.5,1.9,6,1.9
	c1.4,0,2.7-0.2,3.6-0.6c0-0.4,0.1-1.2,0.1-2c0-1.8-0.6-3.3-1.8-4.5c-1.2-1-3.1-1.8-5.4-2.7c-5.6-1.8-9.9-3.8-12.6-6.1
	c-2.8-2.2-4.2-5.4-4.2-9.6c0-3.7,1.3-6.9,4.2-9.4c2.8-2.4,6.4-3.8,11.1-4.3v-7.3H80v7.5c4.5,0.6,8,2.3,10.5,5.1
	c2.6,2.8,3.8,6.3,3.7,10.6l-0.1,0.2H82.7c0-2.7-0.6-4.8-1.8-6.2s-3-2.1-5.1-2.1c-0.7,0-1.3,0.1-1.9,0.2h-1.1V84
	c-0.1,0.5-0.1,1.1-0.1,1.6c0,1.7,0.6,3.2,1.7,4.3c1.1,1.1,3.3,2.1,6.3,3.3c5.6,1.9,9.9,4,12.6,6.3c2.8,2.2,4,5.4,4,9.5
	C97.4,112.9,96,116.1,93.2,118.4z"/>
</svg>
