<?xml version="1.0" encoding="utf-8"?>
<!-- Generator: Adobe Illustrator 18.1.1, SVG Export Plug-In . SVG Version: 6.00 Build 0)  -->
<svg version="1.1" id="圖層_1" xmlns="http://www.w3.org/2000/svg" xmlns:xlink="http://www.w3.org/1999/xlink" x="0px" y="0px"
	 viewBox="0 0 153.2 150" enable-background="new 0 0 153.2 150" xml:space="preserve">
<g>
	<g>
		<path fill="#0091EA" d="M76.5,97.6c-12.3,0-22.4-10.1-22.4-22.5s10.1-22.5,22.5-22.5S99.1,62.6,99.1,75S89,97.6,76.5,97.6z
			 M76.5,59.1c-8.8,0-15.9,7.2-15.9,15.9S67.8,91,76.5,91S92.5,83.8,92.5,75S85.4,59.1,76.5,59.1z"/>
	</g>
	<g>
		<path fill="#0091EA" d="M148.6,15.4H4.5c-1.6,0-2.9,1.4-2.9,3.1v113.2c0,1.8,1.4,3.1,2.9,3.1h144.1c1.6,0,2.9-1.4,2.9-3.1V18.5
			C151.6,16.8,150.2,15.4,148.6,15.4z M73.7,128.5H7.5V96.8h13.6c1.6,0,2.9-1.4,2.9-3.1v-7c0.5,0.1,1,0.1,1.4,0.1
			c5.7,0,10.4-5.3,10.4-11.7c0-6.4-4.7-11.7-10.5-11.7c-0.4,0-0.9,0.1-1.4,0.2v-7c0-1.8-1.3-3.1-2.9-3.1H7.5V21.6h66.3L73.7,128.5
			L73.7,128.5z M8.1,90.5v-31h10v31C18.1,90.5,8.1,90.5,8.1,90.5z M24.5,80.5V69.6c0.3-0.1,0.6-0.1,0.9-0.1c2.5,0,4.6,2.5,4.6,5.5
			c0,3-2.1,5.5-4.6,5.5C25.1,80.5,24.7,80.5,24.5,80.5z M145.7,53.3h-13.6c-1.6,0-2.9,1.4-2.9,3.1v7c-0.5-0.1-1-0.2-1.4-0.2
			c-5.8,0-10.5,5.3-10.5,11.7c0,6.4,4.7,11.7,10.5,11.7c0.5,0,0.9,0,1.4-0.1v7c0,1.8,1.3,3.1,2.9,3.1h13.6v31.8H79.4V21.6h66.3V53.3
			z M145.1,59.5v31h-10v-31H145.1z M128.7,69.6v10.8c-0.3,0.1-0.6,0.1-0.9,0.1c-2.5,0-4.6-2.5-4.6-5.5c0-3,2.1-5.5,4.6-5.5
			C128.1,69.5,128.4,69.5,128.7,69.6z"/>
	</g>
</g>
</svg>
