<?xml version="1.0" encoding="utf-8"?>
<!-- Generator: Adobe Illustrator 21.0.0, SVG Export Plug-In . SVG Version: 6.00 Build 0)  -->
<svg version="1.1" id="圖層_1" xmlns="http://www.w3.org/2000/svg" xmlns:xlink="http://www.w3.org/1999/xlink" x="0px" y="0px"
	 viewBox="0 0 199.8 199.8" style="enable-background:new 0 0 199.8 199.8;" xml:space="preserve">
<style type="text/css">
	.st0{fill:#4D4D4D;}
</style>
<path class="st0" d="M184.3,50v-0.3h-1.7v14.1c-4-3.5-8.5-6.4-12.9-8.8c-11.2-6-23.5-9.6-35.8-11.9v-6.7c6.1-5.6,11.5,2.6,15.5-5.5
	c-9.4,0.2-7.3-6-15.4-5.5v-0.3h-1.7l-0.1,17.8c-3-0.5-6.1-0.9-9.1-1.3c-16.9-2-34.1-1.9-50.9,0.6c-1.6,0.2-3.1,0.5-4.7,0.8l0.1-17.9
	h-1.7v0.3c-8.1-0.5-6.1,5.7-15.5,5.6c4,8.1,9.5-0.1,15.5,5.5v6.8c-14,2.5-28,6.8-40.2,14.4c-2.8,1.8-5.8,3.9-8.5,6.3V49.6h-1.7v0.3
	c-8.1-0.4-6,5.8-15.5,5.6c4,8.1,9.5-0.1,15.5,5.5v4.5C9.6,71.4,5.1,78.8,5.4,87.4c0.1,3.3,1,6.3,2.1,9.2c-1.1,5.8-4.5,27.8,4.9,43.5
	c0.3,0.5,0.5,1,0.8,1.6c1,1.6,2.3,3.3,3.7,4.9c0.4,0.5,0.9,1,1.4,1.5l0.4,0.4c2.6,2.6,5.7,5.2,9.3,7.5c2.2,1.5,4.5,2.8,7,4.2
	c2.5,1.3,5.1,2.5,7.8,3.7c5.5,2.3,11.4,4.2,17.6,5.8c3.1,0.8,6.3,1.5,9.5,2c0.2,0,0.3,0.1,0.5,0.1l0.9,3.3l1.9-0.6l1.9-0.6
	l-6.9-24.7c21.3-5.8,42-5.8,63.3,0l-6.9,24.7l2,0.6l1.9,0.6l0.9-3.3c0.2,0,0.3-0.1,0.5-0.1c3.2-0.6,6.4-1.3,9.5-2
	c6.2-1.5,12.1-3.5,17.6-5.8c2.7-1.2,5.3-2.4,7.8-3.7s4.8-2.7,7-4.1c3.5-2.4,6.7-4.9,9.3-7.5l0.4-0.4c0.5-0.5,0.9-1,1.4-1.5
	c2.9-3.3,4.9-6.7,6.1-9.7c0.1-0.3,0.1-0.5,0.2-0.8c6.5-14.7,4.1-32.8,3-38.9c1.3-3,2.3-6.3,2.5-9.9c0-8.9-4.4-16.2-10.3-22v-4.3
	c6.1-5.6,11.5,2.6,15.5-5.5C190.4,55.7,192.5,49.5,184.3,50z M134.7,52.1c8,1.6,15.8,3.9,23.4,7.1c6.7,2.8,15,6.9,20.8,12.8
	l-32.1,21.3c-6.3-5.2-16.5-9.3-28.8-11.4L134.7,52.1z M110.6,49.1c6.4,0.4,12.7,1.1,19.1,2.1l-16.7,30c-4.2-0.5-8.6-0.7-13.1-0.7
	s-8.9,0.3-13.1,0.7l-16.7-30C83.5,48.9,97.1,48.3,110.6,49.1z M26.8,67.1c11.4-8.1,25-12.4,38.4-15l16.5,29.8
	C69.5,84,59.3,88.1,53,93.3L20.9,72C22.7,70.2,24.7,68.6,26.8,67.1z M15.6,79c0.6-1.2,1.3-2.3,2-3.3l31.8,21.2
	c-2.3,2.8-3.5,5.8-3.5,9c0,5,3,9.6,8.3,13.6c-6-1.7-11.8-3.9-17.4-6.6c-6.6-3.3-13.3-7.3-18.2-13.2c-2.4-2.9-5.8-8.3-5.1-12.5
	C13.8,85.1,14.4,81.6,15.6,79z M41,138.3c-3.8-1.4-7.4-2.9-10.6-4.6c-2.2-1.1-4.2-2.3-6.1-3.5c-0.4-0.3-0.8-0.5-1.1-0.8v-14.5
	c1.7,1.1,3.4,2.2,5.1,3.2c4.1,2.4,8.4,4.4,12.8,6.1L41,138.3L41,138.3z M18.4,111.2v14.3c-1.9-1.7-3.3-3.4-4.5-5.2
	c-2.6-4.1-4.4-8.6-4.7-13.9c0.1-2,0.3-3.7,0.5-5.3C12,105,15,108.4,18.4,111.2z M16.7,128.5c0.1,0.1,0.2,0.2,0.3,0.4
	c0.4,0.5,0.9,1,1.4,1.5v12.8c-6.2-7-8.7-16.5-9.3-25.2C10.9,121.9,13.6,125.4,16.7,128.5z M41,156.1c-3.8-1.4-7.4-2.9-10.6-4.6
	c-2.2-1.1-4.2-2.3-6.1-3.5c-0.4-0.3-0.8-0.5-1.1-0.8v-12.5c1.5,1.2,3.1,2.4,4.9,3.6c2.2,1.5,4.5,2.8,7,4.1c1.9,1,3.9,2,6,2.9
	L41,156.1L41,156.1z M61.9,161.9c-5.7-1.1-11.1-2.5-16.2-4.1v-10.5c4.6,1.8,9.6,3.3,14.7,4.6c1.5,0.4,3.1,0.8,4.7,1.1l2.8,10
	C65.9,162.6,63.9,162.2,61.9,161.9z M67.2,145c-1.8-0.3-3.6-0.6-5.3-0.9c-5.7-1.1-11.1-2.5-16.2-4.1v-14c9.7,3.3,19.7,5.4,29.7,6.7
	c16.5,2.2,33.3,2.1,49.8-0.1c9.7-1.3,19.5-3.3,29-6.5v13.8c-5.1,1.6-10.5,3-16.2,4.1c-1.7,0.3-3.5,0.6-5.3,0.9
	C110.6,139,89.2,139,67.2,145z M158.9,138.3v-14c4-1.6,8-3.4,11.8-5.5c2.1-1.1,4.1-2.4,6.1-3.7v14.3c-0.4,0.3-0.8,0.5-1.1,0.8
	c-1.9,1.2-3.9,2.4-6.1,3.5C166.3,135.4,162.7,136.9,158.9,138.3z M154.1,157.8c-5.1,1.6-10.5,3-16.2,4.1c-2,0.4-4,0.7-6,1.1l2.8-10
	c1.6-0.3,3.2-0.7,4.7-1.1c5.1-1.3,10.1-2.8,14.7-4.6V157.8z M169.5,151.5c-3.3,1.7-6.8,3.2-10.6,4.6v-10.9c2.1-0.9,4.1-1.9,6-2.9
	c2.5-1.3,4.8-2.7,7-4.1c1.7-1.1,3.3-2.3,4.9-3.6v12.5c-0.4,0.3-0.8,0.5-1.1,0.8C173.7,149.2,171.7,150.4,169.5,151.5z M181.5,142.9
	v-12.5c0.5-0.5,0.9-1,1.4-1.5c0.4-0.5,0.7-0.9,1-1.4c2.7-2.9,5-6,6.6-9.6C189.9,126.5,187.5,135.9,181.5,142.9z M190,101.7
	c0.2,1.4,0.4,3,0.5,4.8c-0.3,6.3-2.7,11.7-6.3,16.3c-0.8,0.9-1.7,1.9-2.7,2.8v-14.2C184.8,108.6,187.7,105.4,190,101.7z M186.2,87.1
	c-0.1,7.8-6.6,15.1-12.9,19.6c-8.3,5.9-17.7,9.9-27.5,12.6c5.1-3.9,8.1-8.5,8.1-13.4c0-3.2-1.2-6.2-3.5-9l31.7-21.1
	C184.4,79.1,185.9,82.8,186.2,87.1z"/>
</svg>
