<?xml version="1.0" encoding="utf-8"?>
<!-- Generator: Adobe Illustrator 21.0.0, SVG Export Plug-In . SVG Version: 6.00 Build 0)  -->
<svg version="1.1" id="圖層_1" xmlns="http://www.w3.org/2000/svg" xmlns:xlink="http://www.w3.org/1999/xlink" x="0px" y="0px"
	 viewBox="0 0 157.2 157.2" style="enable-background:new 0 0 157.2 157.2;" xml:space="preserve">
<style type="text/css">
	.st0{fill:#4D4D4D;}
</style>
<g>
	<g>
		<path class="st0" d="M148.7,13.7h-29.5V7c0-1.3-1.1-2.3-2.4-2.3s-2.4,1-2.4,2.3v6.7h-10.5V7c0-1.3-1.1-2.3-2.4-2.3s-2.4,1-2.4,2.3
			v6.7H88.6V7c0-1.3-1.1-2.3-2.4-2.3s-2.4,1-2.4,2.3v6.7H73.4V7c0-1.3-1.1-2.3-2.4-2.3s-2.4,1-2.4,2.3v6.7H58.1V7
			c0-1.3-1.1-2.3-2.4-2.3c-1.3,0-2.4,1-2.4,2.3v6.7H42.8V7c0-1.3-1.1-2.3-2.4-2.3c-1.3,0-2.4,1-2.4,2.3v6.7H8.5C4.4,13.7,1,17,1,21
			v124.1c0,4,3.4,7.3,7.5,7.3h140.2c4.1,0,7.5-3.3,7.5-7.3V21C156.2,17,152.8,13.7,148.7,13.7L148.7,13.7z M151.4,145.1
			c0,1.5-1.2,2.6-2.7,2.6H8.5c-1.5,0-2.7-1.2-2.7-2.6V21c0-1.5,1.2-2.6,2.7-2.6H38v6c0,1.3,1.1,2.3,2.4,2.3c1.3,0,2.4-1,2.4-2.3v-6
			h10.5v6c0,1.3,1.1,2.3,2.4,2.3c1.3,0,2.4-1,2.4-2.3v-6h10.5v6c0,1.3,1.1,2.3,2.4,2.3s2.4-1,2.4-2.3v-6h10.5v6
			c0,1.3,1.1,2.3,2.4,2.3s2.4-1,2.4-2.3v-6h10.5v6c0,1.3,1.1,2.3,2.4,2.3s2.4-1,2.4-2.3v-6h10.5v6c0,1.3,1.1,2.3,2.4,2.3
			s2.4-1,2.4-2.3v-6h29.5c1.5,0,2.7,1.2,2.7,2.6v124.1H151.4z"/>
		<path class="st0" d="M148.7,153.5H8.5c-4.7,0-8.5-3.8-8.5-8.4V21c0-4.7,3.8-8.4,8.5-8.4H37V7c0-1.9,1.5-3.5,3.4-3.5
			s3.4,1.6,3.4,3.5v5.5h8.5V7c0-1.9,1.5-3.5,3.4-3.5s3.4,1.6,3.4,3.5v5.5h8.5V7c0-1.9,1.5-3.5,3.4-3.5s3.4,1.6,3.4,3.5v5.5h8.5V7
			c0-1.9,1.5-3.5,3.4-3.5s3.4,1.6,3.4,3.5v5.5h8.5V7c0-1.9,1.5-3.5,3.4-3.5S105,5.1,105,7v5.5h8.5V7c0-1.9,1.5-3.5,3.4-3.5
			s3.4,1.6,3.4,3.5v5.5h28.5c4.7,0,8.5,3.8,8.5,8.4V145C157.2,149.8,153.4,153.5,148.7,153.5z M8.5,14.8C4.9,14.8,2,17.6,2,21v124.1
			c0,3.4,2.9,6.2,6.5,6.2h140.2c3.6,0,6.5-2.8,6.5-6.2V21c0-3.4-2.9-6.2-6.5-6.2h-30.5V7c0-0.6-0.6-1.2-1.4-1.2
			c-0.7,0-1.4,0.5-1.4,1.2v7.8h-12.5V7c0-0.6-0.6-1.2-1.4-1.2c-0.7,0-1.4,0.5-1.4,1.2v7.8H87.6V7c0-0.6-0.6-1.2-1.4-1.2
			S84.8,6.3,84.8,7v7.8H72.3V7c0-0.6-0.6-1.2-1.4-1.2S69.5,6.3,69.5,7v7.8H57.1V7c0-0.6-0.6-1.2-1.4-1.2c-0.7,0-1.4,0.5-1.4,1.2v7.8
			H41.8V7c0-0.6-0.6-1.2-1.4-1.2C39.7,5.8,39,6.3,39,7v7.8C39,14.8,8.5,14.8,8.5,14.8z M148.7,148.9H8.5c-2,0-3.7-1.7-3.7-3.8V21
			c0-2.1,1.7-3.8,3.7-3.8H39v7.1c0,0.6,0.6,1.2,1.4,1.2c0.7,0,1.4-0.5,1.4-1.2v-7.1h12.5v7.1c0,0.6,0.6,1.2,1.4,1.2
			c0.7,0,1.4-0.5,1.4-1.2v-7.1h12.5v7.1c0,0.6,0.6,1.2,1.4,1.2s1.4-0.5,1.4-1.2v-7.1h12.5v7.1c0,0.6,0.6,1.2,1.4,1.2
			s1.4-0.5,1.4-1.2v-7.1h12.5v7.1c0,0.6,0.6,1.2,1.4,1.2c0.7,0,1.4-0.5,1.4-1.2v-7.1h12.5v7.1c0,0.6,0.6,1.2,1.4,1.2
			c0.7,0,1.4-0.5,1.4-1.2v-7.1h30.5c2.1,0,3.7,1.7,3.7,3.8v124.1C152.4,147.2,150.8,148.9,148.7,148.9z M8.5,19.5
			c-0.9,0-1.7,0.7-1.7,1.5v124.1c0,0.8,0.8,1.5,1.7,1.5h140.2c0.9,0,1.7-0.7,1.7-1.5V21c0-0.8-0.8-1.5-1.7-1.5h-28.5v4.8
			c0,1.9-1.5,3.5-3.4,3.5s-3.4-1.6-3.4-3.5v-4.8h-8.5v4.8c0,1.9-1.5,3.5-3.4,3.5s-3.4-1.6-3.4-3.5v-4.8h-8.5v4.8
			c0,1.9-1.5,3.5-3.4,3.5s-3.4-1.6-3.4-3.5v-4.8h-8.5v4.8c0,1.9-1.5,3.5-3.4,3.5s-3.4-1.6-3.4-3.5v-4.8H59v4.8
			c0,1.9-1.5,3.5-3.4,3.5s-3.4-1.6-3.4-3.5v-4.8h-8.5v4.8c0,1.9-1.5,3.5-3.4,3.5s-3.4-1.6-3.4-3.5v-4.8C36.9,19.5,8.5,19.5,8.5,19.5
			z"/>
	</g>
	<g>
		<path class="st0" d="M52.4,41.9h74.4c1.3,0,2.4-1,2.4-2.3s-1.1-2.3-2.4-2.3H52.4c-1.3,0-2.4,1-2.4,2.3S51.1,41.9,52.4,41.9
			L52.4,41.9z"/>
		<path class="st0" d="M137.1,47.2H52.4c-1.3,0-2.4,1-2.4,2.3s1.1,2.3,2.4,2.3H137c1.3,0,2.4-1,2.4-2.3S138.4,47.2,137.1,47.2
			L137.1,47.2z"/>
		<path class="st0" d="M38.5,35.5l-11,10.8l-6-5.8c-0.9-0.9-2.4-0.9-3.4,0c-0.9,0.9-0.9,2.4,0,3.3l7.6,7.4c0.5,0.5,1.1,0.7,1.7,0.7
			s1.2-0.2,1.7-0.7l12.7-12.4c0.9-0.9,0.9-2.4,0-3.3C41,34.6,39.5,34.6,38.5,35.5L38.5,35.5z"/>
	</g>
	<g>
		<path class="st0" d="M52.4,69.3h74.4c1.3,0,2.4-1,2.4-2.3c0-1.3-1.1-2.3-2.4-2.3H52.4c-1.3,0-2.4,1-2.4,2.3
			C50,68.2,51.1,69.3,52.4,69.3L52.4,69.3z"/>
		<path class="st0" d="M137.1,74.6H52.4c-1.3,0-2.4,1-2.4,2.3s1.1,2.3,2.4,2.3H137c1.3,0,2.4-1,2.4-2.3S138.4,74.6,137.1,74.6
			L137.1,74.6z"/>
		<path class="st0" d="M38.5,62.8l-11,10.8l-6-5.8c-0.9-0.9-2.4-0.9-3.4,0c-0.9,0.9-0.9,2.4,0,3.3l7.6,7.4c0.5,0.5,1.1,0.7,1.7,0.7
			s1.2-0.2,1.7-0.7l12.7-12.4c0.9-0.9,0.9-2.4,0-3.3C41,61.9,39.5,61.9,38.5,62.8L38.5,62.8z"/>
	</g>
	<g>
		<path class="st0" d="M52.4,96.6h74.4c1.3,0,2.4-1,2.4-2.3s-1.1-2.3-2.4-2.3H52.4c-1.3,0-2.4,1-2.4,2.3S51.1,96.6,52.4,96.6
			L52.4,96.6z"/>
		<path class="st0" d="M137.1,101.9H52.4c-1.3,0-2.4,1-2.4,2.3s1.1,2.3,2.4,2.3H137c1.3,0,2.4-1,2.4-2.3
			C139.4,103,138.4,101.9,137.1,101.9L137.1,101.9z"/>
		<path class="st0" d="M38.5,90.2l-11,10.8l-6-5.8c-0.9-0.9-2.4-0.9-3.4,0c-0.9,0.9-0.9,2.4,0,3.3l7.6,7.4c0.5,0.5,1.1,0.7,1.7,0.7
			s1.2-0.2,1.7-0.7l12.7-12.4c0.9-0.9,0.9-2.4,0-3.3C41,89.3,39.5,89.3,38.5,90.2L38.5,90.2z"/>
	</g>
	<g>
		<path class="st0" d="M52.4,124h74.4c1.3,0,2.4-1,2.4-2.3s-1.1-2.3-2.4-2.3H52.4c-1.3,0-2.4,1-2.4,2.3S51.1,124,52.4,124L52.4,124z
			"/>
		<path class="st0" d="M137.1,129.3H52.4c-1.3,0-2.4,1-2.4,2.3s1.1,2.3,2.4,2.3H137c1.3,0,2.4-1,2.4-2.3S138.4,129.3,137.1,129.3
			L137.1,129.3z"/>
		<path class="st0" d="M38.5,117.5l-11,10.8l-6-5.8c-0.9-0.9-2.4-0.9-3.4,0c-0.9,0.9-0.9,2.4,0,3.3l7.6,7.4c0.5,0.5,1.1,0.7,1.7,0.7
			s1.2-0.2,1.7-0.7l12.7-12.4c0.9-0.9,0.9-2.4,0-3.3C41,116.6,39.5,116.6,38.5,117.5L38.5,117.5z"/>
	</g>
</g>
</svg>
