<?xml version="1.0" encoding="utf-8"?>
<!-- Generator: Adobe Illustrator 21.0.0, SVG Export Plug-In . SVG Version: 6.00 Build 0)  -->
<svg version="1.1" id="圖層_1" xmlns="http://www.w3.org/2000/svg" xmlns:xlink="http://www.w3.org/1999/xlink" x="0px" y="0px"
	 viewBox="0 0 188.5 188.5" style="enable-background:new 0 0 188.5 188.5;" xml:space="preserve">
<style type="text/css">
	.st0{fill:#4D4D4D;}
</style>
<g>
	<g>
		<path class="st0" d="M94.2,122.6c-15.5,0-28.2-12.7-28.2-28.3S78.7,66,94.3,66s28.3,12.7,28.3,28.3S109.8,122.6,94.2,122.6z
			 M94.2,74.3c-11,0-20,9-20,20s9,20,20,20s20-9,20-20S105.3,74.3,94.2,74.3z"/>
	</g>
	<g>
		<path class="st0" d="M184.8,19.3H3.7c-2,0-3.7,1.8-3.7,3.9v142.2c0,2.2,1.7,3.9,3.7,3.9h181.1c2,0,3.7-1.8,3.7-3.9V23.2
			C188.5,21.1,186.8,19.3,184.8,19.3z M90.6,161.5H7.4v-39.9h17.1c2,0,3.7-1.8,3.7-3.9v-8.8c0.6,0.1,1.2,0.1,1.7,0.1
			c7.2,0,13.1-6.6,13.1-14.7s-5.9-14.7-13.2-14.7c-0.5,0-1.1,0.1-1.7,0.2V71c0-2.2-1.6-3.9-3.7-3.9h-17v-40h83.3v134.4H90.6z
			 M8.2,113.7V74.8h12.6v38.9H8.2z M28.8,101.1V87.5c0.4-0.1,0.7-0.1,1.1-0.1c3.2,0,5.8,3.1,5.8,6.9s-2.6,6.9-5.8,6.9
			C29.5,101.2,29.1,101.2,28.8,101.1z M181.1,67H164c-2,0-3.7,1.8-3.7,3.9v8.8c-0.6-0.1-1.2-0.2-1.7-0.2c-7.3,0-13.2,6.6-13.2,14.7
			s5.9,14.7,13.2,14.7c0.6,0,1.1,0,1.7-0.1v8.8c0,2.2,1.6,3.9,3.7,3.9h17.1v39.9H97.8V27.1h83.3V67z M180.3,74.8v38.9h-12.6V74.8
			H180.3z M159.7,87.5v13.6c-0.4,0.1-0.7,0.1-1.1,0.1c-3.2,0-5.8-3.1-5.8-6.9s2.6-6.9,5.8-6.9C159,87.4,159.4,87.4,159.7,87.5z"/>
	</g>
</g>
</svg>
