<?xml version="1.0" encoding="utf-8"?>
<!-- Generator: Adobe Illustrator 21.0.0, SVG Export Plug-In . SVG Version: 6.00 Build 0)  -->
<svg version="1.1" id="圖層_1" xmlns="http://www.w3.org/2000/svg" xmlns:xlink="http://www.w3.org/1999/xlink" x="0px" y="0px"
	 viewBox="0 0 166.8 166.8" style="enable-background:new 0 0 166.8 166.8;" xml:space="preserve">
<style type="text/css">
	.st0{fill:#4D4D4D;}
</style>
<g>
	<g>
		<path class="st0" d="M97.6,119.3l-0.3-75.8l46.7-0.1l0.3,75.8L97.6,119.3z M105.7,51.9l0.2,59l29.9-0.1l-0.2-59L105.7,51.9z"/>
	</g>
	<g>
		<path class="st0" d="M135.9,108.5L135.7,54l21.5,4.6c6,1.3,9.7,4.8,9.7,9.1l0.1,27.9c0,3.7-3,6.7-7.9,7.8L135.9,108.5z
			 M144.1,64.4l0.1,33.7l13-2.9c0.6-0.1,1.1-0.3,1.3-0.5l-0.1-27c0,0.4-0.9-0.5-3.1-0.9L144.1,64.4z"/>
	</g>
	<g>
		<path class="st0" d="M109.6,158.6L109.6,158.6c-2.9,0-5.6-1.2-7.4-3.4c-1.7-2.1-2.5-4.9-1.9-7.5l6.5-37l33.9-0.1l-7,40
			c-0.9,4.7-5,8.1-9.9,8.1L109.6,158.6z M113.7,119l-5.2,30.2l1,1h14.2c0.8,0,1.6-0.6,1.7-1.3l5.1-30L113.7,119z"/>
	</g>
	<g>
		<path class="st0" d="M12.4,155c-7.2,0-11.8-2.8-11.8-7.1L0.2,15.8c0-1.5,0.6-2.9,1.7-4c2.8-2.8,8-3.1,10.2-3.2h9.2
			c7.3,0,11.9,2.8,11.9,7.1l0.5,132.1c0,4.3-4.6,7.1-11.9,7.2H12.4z M9,146.2c0.8,0.2,1.9,0.4,3.4,0.4v4.2l0.1-4.2h9.2
			c1.6,0,2.8-0.2,3.5-0.4L24.7,17.4C24,17.2,22.8,17,21.3,17h-9.2c-1.6,0-2.7,0.2-3.5,0.4L9,146.2z"/>
	</g>
	<g>
		<path class="st0" d="M25.2,154.5L24.7,15.7L24,10.1l5.6,1.3c0.8,0.1,1.4,0.3,2.1,0.6l69.9,30.8c2.5,1.1,4.1,3.5,4.1,6.2l0.2,64.8
			c0,2.7-1.6,5.1-4,6.3L25.2,154.5z M33.1,21.7l0.5,119.8l64-28.7L97.4,50L33.1,21.7z"/>
	</g>
</g>
</svg>
