<?xml version="1.0" encoding="utf-8"?>
<!-- Generator: Adobe Illustrator 21.0.0, SVG Export Plug-In . SVG Version: 6.00 Build 0)  -->
<svg version="1.1" id="圖層_1" xmlns="http://www.w3.org/2000/svg" xmlns:xlink="http://www.w3.org/1999/xlink" x="0px" y="0px"
	 viewBox="0 0 176.5 176.5" style="enable-background:new 0 0 176.5 176.5;" xml:space="preserve">
<style type="text/css">
	.st0{fill:#4D4D4D;}
</style>
<g>
	<g>
		<g>
			<path class="st0" d="M150.4,163.4h-125c-14.2,0-25.7-11.5-25.7-25.7v-115c0-5.1,4.2-9.3,9.3-9.3h157.9c5.1,0,9.3,4.2,9.3,9.3v115
				C176.2,151.8,164.6,163.4,150.4,163.4z M10.1,23.7v113.9c0,8.5,6.9,15.3,15.3,15.3h125c8.5,0,15.3-6.9,15.3-15.3V23.7H10.1z"/>
		</g>
		<g>
			<path class="st0" d="M89.2,53.4c3.3,0,5.9,2.7,5.9,5.9h11.8c0-7.7-5-14.2-11.8-16.7v-7H83.2v7c-6.9,2.5-11.8,9-11.8,16.7
				c0,1.9,0.9,3.6,2.4,4.7l20.7,15.6c-1,2-3,3.4-5.4,3.4c-3.3,0-5.9-2.7-5.9-5.9H71.4c0,7.7,5,14.2,11.8,16.7v7H95v-7
				c6.9-2.5,11.8-9,11.8-16.7c0-1.9-0.9-3.6-2.4-4.7L83.8,56.8C84.8,54.8,86.8,53.4,89.2,53.4z"/>
		</g>
		<g>
			<g>
				<polygon class="st0" points="137.2,100.7 130.1,100.7 130.1,111.5 119.3,111.5 119.3,118.6 130.1,118.6 130.1,129.3 
					137.2,129.3 137.2,118.6 147.9,118.6 147.9,111.5 137.2,111.5 				"/>
			</g>
			<g>
				<path class="st0" d="M133.6,143.9c-1.2,0-2.4-0.1-3.5-0.2c-1.8-0.3-2.7-0.5-3.7-0.7c-2.9-0.8-5.2-1.7-7.2-2.9
					c-1.1-0.6-2-1.3-3-2c-2.1-1.6-3.9-3.4-5.4-5.3c-0.9-1.2-1.5-2.1-2.1-3.1c-1.3-2.3-2.3-4.5-2.9-6.9c-0.4-1.5-0.6-2.5-0.7-3.4
					c-0.3-1.9-0.3-3.1-0.3-4.3c0-15.9,13-28.9,28.9-28.9s28.9,13,28.9,28.9c0,1.2-0.1,2.3-0.2,3.5c-0.3,1.7-0.5,2.7-0.7,3.7
					c-0.8,2.9-1.7,5.2-2.9,7.2c-0.7,1.2-1.4,2.2-2.1,3.1c-1.7,2.2-3.5,3.9-5.4,5.4c-1,0.7-1.8,1.3-2.7,1.9l-0.7,0.4
					c-1.9,1.1-4.1,2-6.5,2.7c-1.5,0.4-2.5,0.6-3.4,0.7C136,143.8,134.8,143.9,133.6,143.9z M133.6,93.9c-11.6,0-21.1,9.5-21.1,21.1
					c0,0.9,0.1,1.7,0.2,2.5c0.2,1.3,0.3,2,0.5,2.7c0.6,2.1,1.3,3.8,2.1,5.3c0.5,0.9,1,1.6,1.5,2.3c1.2,1.6,2.5,2.9,3.9,4
					c0.8,0.6,1.6,1.1,2.3,1.6c1.5,0.9,3.1,1.6,4.9,2c1.1,0.3,1.8,0.4,2.5,0.5c2.9,0.4,4,0.3,5.7,0.1c1.3-0.2,2-0.3,2.7-0.5
					c2-0.6,3.6-1.2,5-2l0.3-0.2c0.8-0.4,1.5-0.9,2.2-1.5c1.5-1.2,2.8-2.5,3.9-3.9c0.6-0.8,1.1-1.6,1.5-2.3c1-1.7,1.6-3.3,2.1-5
					c0.3-1.1,0.4-1.8,0.5-2.5c0.2-1.4,0.3-2.3,0.3-3.1C154.7,103.4,145.2,93.9,133.6,93.9z"/>
			</g>
		</g>
		<g>
			<rect x="8.7" y="110.1" class="st0" width="99.9" height="10.4"/>
		</g>
	</g>
	<rect x="158.6" y="110.1" class="st0" width="12.4" height="10.4"/>
</g>
</svg>
