<?xml version="1.0" encoding="utf-8"?>
<!-- Generator: Adobe Illustrator 18.1.1, SVG Export Plug-In . SVG Version: 6.00 Build 0)  -->
<svg version="1.1" id="圖層_1" xmlns="http://www.w3.org/2000/svg" xmlns:xlink="http://www.w3.org/1999/xlink" x="0px" y="0px"
	 viewBox="0 0 150 150" enable-background="new 0 0 150 150" xml:space="preserve">
<g>
	<circle fill="#0092EB" cx="75.1" cy="75" r="75"/>
	<path fill="#FFFFFF" d="M109.3,53.8C107.6,37.9,94.9,25.1,79,23.3c-9.8-1.1-19.6,2-26.9,8.6c-7.3,6.5-11.5,15.9-11.5,25.7
		c0,7.8,2.5,15.1,7.3,21.2c2.4,3.1,7.8,13.9,7.2,18.3c0,0.1,0,0.3,0,0.4c0,0.2-0.1,0.4-0.1,0.6v23.6h12.1v5.3h16.5v-5.3h11.1V98
		c0-0.2,0-0.4-0.1-0.6c0-0.1,0-0.3,0-0.4c-0.7-5,5.1-15.4,7.2-18C107.7,71.9,110.3,62.9,109.3,53.8z M65,70.2L65,70.2
		c-0.3,0.2-0.6,0.3-0.9,0.3c-1.5,0-2.6-1.2-2.6-2.6c0-1.5,1.2-2.6,2.6-2.6c1.5,0,2.6,1.2,2.6,2.6c0,1-0.6,1.9-1.5,2.3H65z
		 M75.7,94.8h-2.9V76.2h2.9V94.8z M88.9,100.8v4.8H61.1v-4.8H88.9z M61.1,115.7v-4.1h27.8v4.1H61.1z M88.8,94.8h-7.2V76.1
		c0.8,0.3,1.7,0.5,2.6,0.5c4.8,0,8.6-3.9,8.6-8.6c0-4.8-3.9-8.6-8.6-8.6c-4.8,0-8.6,3.9-8.6,8.6c0,0.1,0,0.2,0,0.3h0v2h-2.9v-2h0
		c0-0.1,0-0.2,0-0.3c0-4.8-3.9-8.6-8.6-8.6c-4.8,0-8.6,3.9-8.6,8.6c0,4.8,3.9,8.6,8.6,8.6c0.7,0,1.4-0.1,2.1-0.3h0.5v18.5h-5.6
		c-0.8-7.2-6.4-17.1-8.5-19.7c-4-5-6.1-11.1-6.1-17.5c0-8.1,3.5-15.8,9.5-21.2c6.1-5.5,14-8,22.2-7.1c13.1,1.4,23.7,12,25,25.2
		c0.8,7.6-1.3,15-6.1,20.9C95.5,77.6,89.6,87.2,88.8,94.8z M81.6,67.9c0-1.5,1.2-2.6,2.6-2.6c1.5,0,2.6,1.2,2.6,2.6
		c0,1.5-1.2,2.6-2.6,2.6C82.8,70.5,81.6,69.3,81.6,67.9z"/>
</g>
</svg>
