<?xml version="1.0" encoding="utf-8"?>
<!-- Generator: Adobe Illustrator 21.0.0, SVG Export Plug-In . SVG Version: 6.00 Build 0)  -->
<svg version="1.1" id="圖層_1" xmlns="http://www.w3.org/2000/svg" xmlns:xlink="http://www.w3.org/1999/xlink" x="0px" y="0px"
	 viewBox="0 0 50 50" style="enable-background:new 0 0 50 50;" xml:space="preserve">
<style type="text/css">
	.st0{display:none;}
	.st1{display:inline;fill:none;stroke:#FF0000;stroke-width:0.25;stroke-miterlimit:10;}
	.st2{display:inline;fill:#00FFFF;}
	.st3{fill:#FFFFFF;}
</style>
<g id="圖層_2" class="st0">
	<rect y="0" class="st1" width="50" height="50"/>
	<rect x="54.3" y="16.5" class="st2" width="18" height="18"/>
</g>
<g id="圖層_1_1_">
	<g>
		<path class="st3" d="M43.9,42.9c-3.5,0-6.3-2.8-6.3-6.3c0-2.6,1.5-4.8,3.9-5.6v-9.5h-7.8c-1.3,2.6-3.7,4.3-6.5,5V31
			c2.4,0.9,4.1,3.2,4.1,5.8c0,3.5-2.8,6.3-6.3,6.3s-6.3-2.8-6.3-6.3c0-2.6,1.7-5,4.1-5.8v-4.5c-2.8-0.6-5.2-2.4-6.5-5h-8V31
			c2.4,0.9,3.9,3.2,3.9,5.6c0,3.5-2.8,6.3-6.3,6.3s-6.3-2.8-6.3-6.3c0-2.8,1.9-5.2,4.5-6.1V19.1c0-1.1,0.9-1.9,1.9-1.9h8.9
			c0-0.2,0-0.2,0-0.4c0-5.4,4.3-9.7,9.7-9.7s9.7,4.3,9.7,9.7c0,0.2,0,0.2,0,0.4h8.9c1.1,0,1.9,0.9,1.9,1.9v11.5
			c2.6,0.6,4.5,3.2,4.5,6.1C50.2,40.1,47.4,42.9,43.9,42.9z M32.7,19.8h10.6v12.3l-0.6,0.2c-1.9,0.6-3.2,2.4-3.2,4.3
			c0,2.6,2.2,4.5,4.5,4.5s4.5-2.2,4.5-4.5c0-2.2-1.5-4.1-3.9-4.5l-0.6-0.2V19.1c0-0.2-0.2-0.4-0.4-0.4H32.7l0.2-0.9
			c0-0.4,0-0.6,0-1.1c0-4.5-3.7-8-8-8s-8,3.7-8,8c0,0.4,0,0.6,0,1.1l0.2,0.9H6.3c-0.2,0-0.4,0.2-0.4,0.4v12.8l-0.6,0.2
			c-2.2,0.4-3.9,2.4-3.9,4.5c0,2.6,2.2,4.5,4.5,4.5s4.5-2.2,4.5-4.5c0-1.9-1.3-3.7-3.2-4.3l-0.6-0.2V19.8h10.6l0.2,0.4
			c1.1,2.6,3.5,4.3,6.3,4.5h0.6v7.1l-0.6,0.2c-2.2,0.4-3.5,2.4-3.5,4.5c0,2.6,2.2,4.5,4.5,4.5s4.5-2.2,4.5-4.5
			c0-2.2-1.5-3.9-3.5-4.5l-0.6-0.2v-6.9h0.6c2.8-0.4,5-2.2,6.3-4.5L32.7,19.8z"/>
	</g>
</g>
</svg>
