<?xml version="1.0" encoding="utf-8"?>
<!-- Generator: Adobe Illustrator 18.1.1, SVG Export Plug-In . SVG Version: 6.00 Build 0)  -->
<svg version="1.1" id="圖層_1" xmlns="http://www.w3.org/2000/svg" xmlns:xlink="http://www.w3.org/1999/xlink" x="0px" y="0px"
	 viewBox="0 0 150 150" enable-background="new 0 0 150 150" xml:space="preserve">
<path fill="#2E60A4" d="M150,58.5l-23.8-4.8l13.4-20.2l-23.3-23.3L96.2,23.8L91.5,0h-33l-4.7,23.8L33.6,10.3L10.3,33.6l13.4,20.2
	L0,58.5v32.9l23.7,4.7l-13.4,20.2l23.3,23.3l20.2-13.4l4.7,23.8h33l4.7-23.8l20.2,13.4l23.3-23.3l-13.4-20.2l23.8-4.7V58.5z
	 M75,107.5C57,107.5,42.5,93,42.5,75S57,42.5,75,42.5c17.9,0,32.5,14.5,32.5,32.5S92.9,107.5,75,107.5z"/>
</svg>
