<?xml version="1.0" encoding="utf-8"?>
<!-- Generator: Adobe Illustrator 18.1.1, SVG Export Plug-In . SVG Version: 6.00 Build 0)  -->
<svg version="1.1" id="圖層_1" xmlns="http://www.w3.org/2000/svg" xmlns:xlink="http://www.w3.org/1999/xlink" x="0px" y="0px"
	 viewBox="0 0 150 152" enable-background="new 0 0 150 152" xml:space="preserve">
<path fill="#4D4D4D" d="M76.7,69c-0.9-0.8-2.4-0.8-3.3,0L61.3,79.5c-0.9,0.7-1.1,2-0.6,3l6.1,13.1C67.1,96.4,68,97,69,97h12.1
	c1,0,1.9-0.6,2.3-1.5l6.1-13.1c0.5-1,0.2-2.2-0.6-3L76.7,69z M79.5,91.9h-8.9L66,82.1l9-7.8l9,7.8L79.5,91.9z M108.6,87.8
	c0.1-0.4,0.1-0.9,0.1-1.4c0-0.3,0-0.6,0.1-1.1c0-0.4,0-0.9,0-1.4c0-0.5,0-1,0-1.4c0-0.4,0-0.9-0.1-1.1c0-0.5-0.1-1-0.1-1.4
	c0-0.4-0.1-0.9-0.2-1.2c-0.1-0.6-0.2-1-0.2-1.4c-0.2-0.9-0.4-1.7-0.6-2.6c-1-3.5-2.5-6.8-4.6-9.8c0-0.1-0.1-0.1-0.1-0.2
	c-4.2-6-10.2-10.6-17.3-12.9c0,0,0,0-0.1,0c-0.1,0-0.2,0-0.2-0.1c-0.3-0.1-0.6-0.2-0.9-0.3c-0.1,0-0.3-0.1-0.4-0.1
	c-0.3-0.1-0.5-0.1-0.8-0.2c-0.1,0-0.2-0.1-0.4-0.1c-0.4-0.1-0.7-0.2-1.1-0.2c-0.1,0-0.2,0-0.3-0.1c-0.3-0.1-0.6-0.1-0.9-0.2
	c-0.1,0-0.2,0-0.2,0c-0.4-0.1-0.8-0.1-1.1-0.2c-0.1,0-0.2,0-0.3,0c-0.4,0-0.7-0.1-1.1-0.1c0,0-0.1,0-0.1,0c-0.4,0-0.8-0.1-1.2-0.1
	c-0.1,0-0.2,0-0.3,0c-0.4,0-0.8,0-1.2,0s-0.8,0-1.2,0c-0.1,0-0.2,0-0.3,0c-0.4,0-0.8,0-1.2,0.1c0,0-0.1,0-0.1,0
	c-0.4,0-0.7,0.1-1.1,0.1c-0.1,0-0.2,0-0.3,0c-0.4,0-0.7,0.1-1.1,0.2c-0.1,0-0.2,0-0.2,0c-0.3,0.1-0.6,0.1-0.9,0.2
	c-0.1,0-0.2,0-0.3,0.1c-0.4,0.1-0.7,0.1-1,0.2C67.2,51,67,51,66.9,51c-0.3,0.1-0.5,0.1-0.8,0.2c-0.1,0-0.3,0.1-0.4,0.1
	c-0.3,0.1-0.6,0.2-0.9,0.3c-0.1,0-0.2,0-0.2,0.1c0,0,0,0-0.1,0c-7.1,2.3-13.1,6.9-17.3,12.9c-0.1,0.1-0.1,0.1-0.1,0.2
	c-2.2,3.2-3.6,6.4-4.6,9.8c-0.2,0.9-0.5,1.7-0.6,2.6c-0.1,0.4-0.1,0.8-0.2,1.4c0,0.3-0.1,0.8-0.2,1.2c-0.1,0.5-0.1,1-0.1,1.4
	c0,0.2,0,0.7-0.1,1.1c0,0.4,0,1,0,1.4c0,0.5,0,1,0,1.4c0,0.4,0,0.9,0.1,1.1c0,0.5,0.1,0.9,0.1,1.4c0,0.3,0.1,1,0.1,1.1
	c0.7,5.4,3.2,11.5,7.4,16.5c0,0.1,0.1,0.1,0.1,0.2c4.3,5.2,10.1,8.9,16.7,10.8c0.5,0.1,1.1,0.3,1.7,0.4c0.5,0.1,1.1,0.2,1.7,0.3
	c0.5,0.1,1.1,0.2,1.7,0.3c0.1,0,0,0,0.1,0c3.9,0.5,8,0.3,11.9-0.6c0.2,0,0.1,0,0.3-0.1c0.4-0.1,1-0.2,1.2-0.3c0.5-0.1,1-0.3,1.4-0.4
	c0.7-0.2,0.9-0.3,1.3-0.5c0.4-0.1,0.9-0.3,1.2-0.5c0.4-0.2,0.9-0.4,1.3-0.6c0.4-0.2,0.8-0.4,1.2-0.6c0.4-0.2,0.9-0.5,1.2-0.6
	c0.4-0.2,0.9-0.5,1.3-0.8c0.6-0.4,1-0.6,1.3-0.9c2.5-1.7,4.7-3.8,6.7-6.2c0.1-0.1,0.1-0.1,0.2-0.2c4.1-5.1,6.6-11.2,7.2-16.3
	C108.5,88.7,108.6,88.2,108.6,87.8z M72.1,55.3c0,0,0.1,0,0.1,0c0.4,0,0.9-0.1,1.3-0.1c0,0,0.1,0,0.1,0c0.4,0,0.9,0,1.3,0h0.1
	c0.5,0,0.9,0,1.4,0c0,0,0.1,0,0.1,0c0.5,0,0.9,0.1,1.3,0.1c0,0,0.1,0,0.1,0c0,0,0.1,0,0.1,0l-3.1,2l-3.1-2
	C72,55.3,72,55.3,72.1,55.3z M48.7,72.4l2.1,6l-4.5,4.4C46.4,79.2,47.2,75.7,48.7,72.4z M56.8,106.1l6.4-0.4l3,5.5
	C62.8,110.1,59.6,108.4,56.8,106.1z M87.6,109.7l2.2-4l3.6,0.2C91.7,107.4,89.8,108.7,87.6,109.7z M98,101.2l-9.5-0.6
	c-1-0.1-1.9,0.5-2.4,1.3l-5.5,10.2c-2.7,0.5-5.3,0.6-7.9,0.4l-5.8-10.6c-0.5-0.9-1.4-1.4-2.4-1.3l-12.3,0.8c-2.7-3.5-4.5-7.5-5.4-12
	l8.7-8.5c0.7-0.7,0.9-1.7,0.6-2.7L52,66.7c3.3-4.4,7.8-7.8,13.1-9.8l8.6,5.5c0.4,0.3,0.9,0.4,1.4,0.4c0.5,0,0.9-0.1,1.4-0.4l8.6-5.5
	c5.2,1.9,9.8,5.4,13.1,9.8L94,78.2c-0.3,0.9-0.1,2,0.6,2.7l8.7,8.5C102.4,93.8,100.6,97.8,98,101.2z M99.3,78.4l2.1-6
	c1.5,3.3,2.2,6.7,2.4,10.4L99.3,78.4z M143.3,14.3h-18.6V7c0-3.8-3.1-6.9-6.9-6.9c0,0,0,0,0,0v0c-2.9,0-5.3,1.7-6.4,4.2
	c-0.4,0.8-0.5,1.7-0.5,2.7v7.3H39.2V7c0-1-0.2-1.9-0.5-2.7c-1.1-2.5-3.5-4.2-6.4-4.2c0,0,0,0,0,0v0c-3.8,0-6.9,3.1-6.9,6.9v7.3H6.8
	c-3.7,0-6.7,3-6.7,6.7v124.3c0,3.7,3,6.7,6.7,6.7h136.5c3.7,0,6.7-3,6.7-6.7V21C150,17.3,147,14.3,143.3,14.3z M116,7
	c0-1,0.8-1.9,1.9-1.9c1,0,1.9,0.8,1.9,1.9v16.1c0,1-0.8,1.9-1.9,1.9c-1,0-1.9-0.8-1.9-1.9V7z M30.4,7c0-1,0.8-1.9,1.9-1.9
	c1,0,1.9,0.8,1.9,1.9v16.1c0,1-0.8,1.9-1.9,1.9c-1,0-1.9-0.8-1.9-1.9V7z M5.1,21c0-0.1,0.1-0.1,0.1-0.2c0.1-0.8,0.7-1.5,1.6-1.5
	h18.6v3.8c0,3.8,3.1,6.9,6.9,6.9c1,0,1.9-0.2,2.7-0.5c0.3-0.1,0.5-0.4,0.8-0.5c2-1.2,3.5-3.3,3.5-5.9v-3.8h71.7v3.8
	c0,2.5,1.4,4.7,3.5,5.9c0.3,0.2,0.5,0.4,0.8,0.5c0.8,0.4,1.7,0.5,2.7,0.5c3.8,0,6.9-3.1,6.9-6.9v-3.8h18.6c0.8,0,1.5,0.7,1.6,1.5
	c0,0.1,0.1,0.1,0.1,0.2v18.5H5.1V21z M145,145.3c0,0.9-0.8,1.7-1.7,1.7H6.8c-0.9,0-1.7-0.8-1.7-1.7V50.9c0,0,0,0,0,0v-6.3H145v6.3
	c0,0,0,0,0,0V145.3z M84.2,132.5c-1.2-0.5-2-0.8-2.3-1.1c-0.3-0.3-0.5-0.7-0.5-1.2c0-0.5,0.2-0.9,0.7-1.2c0.5-0.3,1.1-0.5,1.8-0.5
	c1.3,0,2.5,0.3,3.5,1v-2.6c-1.1-0.4-2.2-0.6-3.4-0.6c-1.6,0-2.9,0.4-4,1.1c-1.1,0.7-1.6,1.8-1.6,3c0,0.9,0.2,1.7,0.7,2.3
	c0.5,0.6,1.4,1.2,2.9,1.7c1.3,0.5,2.2,0.9,2.6,1.2c0.4,0.3,0.6,0.7,0.6,1.2c0,1.1-0.9,1.7-2.8,1.7c-1.4,0-2.7-0.4-4-1.3v2.8
	c1.1,0.5,2.4,0.8,3.9,0.8c1.7,0,3.1-0.4,4.2-1.1c1.1-0.8,1.6-1.8,1.6-3.1c0-0.9-0.3-1.7-0.8-2.3C86.8,133.6,85.7,133,84.2,132.5z
	 M137.3,131h-31.2c-1,0-1.8,1.1-1.8,2.5c0,1.4,0.8,2.5,1.8,2.5h31.2c1,0,1.8-1.1,1.8-2.5C139.1,132.1,138.3,131,137.3,131z
	 M69.3,136.2c-0.2,0.7-0.4,1.4-0.5,2.1h-0.1c-0.1-0.6-0.2-1.3-0.5-2.1l-3.1-9.6h-3.2l5.1,13.9h3.1l5.4-13.9h-3.1L69.3,136.2z
	 M44,131H12.8c-1,0-1.8,1.1-1.8,2.5c0,1.4,0.8,2.5,1.8,2.5H44c1,0,1.8-1.1,1.8-2.5C45.8,132.1,45,131,44,131z"/>
</svg>
