<?xml version="1.0" encoding="utf-8"?>
<!-- Generator: Adobe Illustrator 21.0.0, SVG Export Plug-In . SVG Version: 6.00 Build 0)  -->
<svg version="1.1" id="圖層_1" xmlns="http://www.w3.org/2000/svg" xmlns:xlink="http://www.w3.org/1999/xlink" x="0px" y="0px"
	 viewBox="0 0 50 50" style="enable-background:new 0 0 50 50;" xml:space="preserve">
<style type="text/css">
	.st0{display:none;}
	.st1{display:inline;fill:none;stroke:#FF0000;stroke-width:0.25;stroke-miterlimit:10;}
	.st2{display:inline;fill:#00FFFF;}
	.st3{fill:#00FFFF;}
</style>
<g id="圖層_2" class="st0">
	<rect y="0" class="st1" width="50" height="50"/>
	<rect x="54.3" y="16.5" class="st2" width="18" height="18"/>
</g>
<g id="圖層_1_2_">
	<path class="st3" d="M39.6,6H10.4C4.6,6,0,10.8,0,16.5v17.1C0,39.4,4.8,44,10.4,44h29.2C45.4,44,50,39.2,50,33.5V16.5
		C50,10.6,45.2,6,39.6,6z M48.8,33.5c0,5.2-4.2,9.4-9.4,9.4h-29c-5.2,0-9.4-4.2-9.4-9.4V16.5c0-5.2,4.2-9.4,9.4-9.4h29.2
		c5.2,0,9.4,4.2,9.4,9.4v17.1H48.8z M35.4,16.5c0.2,0.4,0.6,0.8,1,0.8s0.8-0.4,1-0.8l1.9-5.6c0.2-0.4,0-0.8-0.4-0.8s-0.8,0.4-1,0.8
		l-1,3.7c-0.2,0.4-0.4,0.4-0.4,0l-1-3.7c-0.2-0.4-0.6-0.8-1-0.8s-0.6,0.4-0.6,0.8L35.4,16.5z M11.5,17.7c0.4,0,0.8-0.4,0.8-0.8v-1.7
		c0-0.4,0.4-0.8,0.8-0.8h1.5c0.4,0,0.8,0.4,0.8,0.8v1.5c0,0.4,0.4,0.8,0.8,0.8c0.4,0,0.8-0.4,0.8-0.8v-6c0-0.4-0.4-0.8-0.8-0.8
		c-0.4,0-0.8,0.4-0.8,0.8v1.3c0,0.4-0.4,0.8-0.8,0.8h-1.3c-0.4,0-0.8-0.4-0.8-0.8v-1.3c0-0.4-0.4-0.8-0.8-0.8
		c-0.4,0-0.8,0.4-0.8,0.8v6C10.6,17.3,11,17.7,11.5,17.7z M6.9,38.5H20V19.4H6.9V38.5z M8.1,20.6H19v16.9H8.1L8.1,20.6z M30,38.5
		h13.1V19.4H30L30,38.5z M31,20.6h10.8v16.9H31L31,20.6z M15,24h-3.5c-0.2,0-0.6,0.2-0.8,0.4c-0.2,0.2-0.2,0.6-0.2,1v7.1
		c0,0.4,0,0.8,0.2,1c0.2,0.2,0.4,0.4,0.8,0.4H15c0.2,0,0.6-0.2,0.8-0.4c0.2-0.2,0.2-0.6,0.2-1v-7.1c0-0.4,0-0.8-0.2-1
		C15.6,24,15.4,24,15,24z M14.6,32.3c0,0.2,0,0.4-0.2,0.4c0,0.2-0.2,0.2-0.4,0.2h-1.5c-0.2,0-0.2,0-0.4-0.2c0-0.2,0-0.4,0-0.4v-6.9
		c0-0.2,0-0.2,0-0.4s0.2-0.2,0.4-0.2H14c0.2,0,0.4,0,0.4,0.2s0.2,0.4,0.2,0.4V32.3z M38.3,24h-3.5c-0.2,0-0.6,0.2-0.8,0.4
		c-0.2,0.2-0.2,0.6-0.2,1v7.1c0,0.4,0,0.8,0.2,1c0.2,0.2,0.4,0.4,0.8,0.4h3.5c0.2,0,0.6-0.2,0.8-0.4c0.2-0.2,0.2-0.6,0.2-1v-7.1
		c0-0.4,0-0.8-0.2-1C39,24,38.8,24,38.3,24z M37.9,32.3c0,0.2,0,0.4-0.2,0.4c0,0.2-0.2,0.2-0.4,0.2h-1.5c-0.2,0-0.2,0-0.4-0.2
		c0-0.2,0-0.4,0-0.4v-6.9c0-0.2,0-0.2,0-0.4s0.2-0.2,0.4-0.2h1.5c0.2,0,0.4,0,0.4,0.2s0.2,0.4,0.2,0.4V32.3z"/>
</g>
</svg>
