<?xml version="1.0" encoding="utf-8"?>
<!-- Generator: Adobe Illustrator 18.1.1, SVG Export Plug-In . SVG Version: 6.00 Build 0)  -->
<svg version="1.1" id="圖層_1" xmlns="http://www.w3.org/2000/svg" xmlns:xlink="http://www.w3.org/1999/xlink" x="0px" y="0px"
	 viewBox="0 0 132.7 27.6" enable-background="new 0 0 132.7 27.6" xml:space="preserve">
<g>
	<path fill-rule="evenodd" clip-rule="evenodd" fill="#337D8C" d="M0,1.5C0,0.7,0.9,0,2,0h128.7c1.1,0,2,0.7,2,1.5v24.5
		c0,0.8-0.9,1.5-2,1.5H2c-1.1,0-2-0.7-2-1.5V1.5z"/>
	<path opacity="0.2" fill="#FFFFFF" d="M0,21.7l14.2,4.6H0.7c0,0-0.7,0-0.7-0.1V21.7z"/>
	<polygon opacity="0.2" fill="#FFFFFF" points="0.1,26.3 6,26.3 0,16.3 	"/>
	<path opacity="0.2" fill="#FFFFFF" d="M132.7,4.7L118.4,0l11.3,0c0,0,3-0.3,3,1.3V4.7z"/>
	<path opacity="0.2" fill="#FFFFFF" d="M132.7,10l-6-10h5.2c0.4,0,0.7,0.3,0.7,0.7L132.7,10z"/>
	
		<radialGradient id="SVGID_1_" cx="1545.3784" cy="-432.1945" r="4.1328" gradientTransform="matrix(28.4755 0 0 8.0572 -44014.4648 3497.4702)" gradientUnits="userSpaceOnUse">
		<stop  offset="0" style="stop-color:#FFFFFF"/>
		<stop  offset="1" style="stop-color:#FFFFFF;stop-opacity:0"/>
	</radialGradient>
	<path opacity="0.2" fill="url(#SVGID_1_)" d="M130.8,27.6l-128.9,0c-1.1,0-1.9-0.9-1.9-1.9L0,1.9C0,0.9,0.8,0,1.9,0L131,0
		c0.9,0,1.7,0.8,1.7,1.7l0,24C132.7,26.7,131.8,27.6,130.8,27.6z"/>
	<path opacity="0.5" fill-rule="evenodd" clip-rule="evenodd" fill="#1E2023" d="M2,27.6h128.7c1.1,0,2-0.7,2-1.5v-1.3
		c0,0.8-0.9,1.5-2,1.5H2c-1.1,0-2-0.7-2-1.5v1.3C0,26.9,0.9,27.6,2,27.6z"/>
	<path fill-rule="evenodd" clip-rule="evenodd" fill="#FFFFFF" d="M24.5,22.2c-1.6,0-3.2-0.2-4.7-0.5c-1.1-0.2-1.5-0.7-1.6-1.7
		c-0.3-2.5,0.5-4.7,2.4-6.6c0.8-0.8,1.6-1.4,2.2-2.3c0.1-0.2,0.3-0.2,0.4-0.2c0.9,0,1.7,0,2.6,0c0.2,0,0.3,0.1,0.5,0.2
		c0.5,0.7,1.1,1.3,1.8,1.9c2.2,1.9,3,4.3,2.8,7c-0.1,1-0.5,1.5-1.6,1.7C27.6,22,26.1,22.2,24.5,22.2L24.5,22.2z M24.4,9.7
		c0.5,0,1,0,1.5,0c0.3,0,0.5,0.1,0.5,0.4c0,0.2-0.2,0.3-0.5,0.3c-1.1,0-2.1,0-3.2,0c-0.3,0-0.4-0.1-0.4-0.4c0-0.2,0.2-0.3,0.5-0.3
		C23.4,9.7,23.9,9.7,24.4,9.7L24.4,9.7z M26.8,7.1c0.3,0.2,0.3,0.4,0.2,0.6c-0.2,0.5-0.5,0.9-0.7,1.4c-0.1,0.1-0.2,0.2-0.4,0.2
		c-0.9,0-1.9,0-2.8,0c-0.2,0-0.3,0-0.4-0.2c-0.3-0.7-0.7-1.3-1-2c-0.2-0.3,0-0.5,0.3-0.6c0.6-0.2,1.1-0.2,1.6,0.2
		c0.4,0.2,0.7,0.6,1.2,0.6C26.4,7.4,26.3,6.9,26.8,7.1L26.8,7.1z M25.1,18c0-0.2-0.1-0.3-0.2-0.5v0l0,0l0,0l0,0l0,0l0,0h0l0,0l0,0
		l0,0l0,0l0,0l0,0l0,0l0,0l0,0l0,0l0,0l0,0l0,0l0,0l0,0v0l0,0l0,0l0,0v0l0,0l0,0l0,0l0,0l0,0l0,0l0,0l0,0l0,0l0,0l0,0l0,0l0,0l0,0
		l0,0l0,0l0,0l0,0l0,0l0,0l0,0l0,0l0,0l0,0l0,0l0,0l0,0l0,0l0,0l0,0l0,0l0,0l0,0l0,0l0,0l0,0l0,0l0,0l0,0l0,0l0,0l0,0l0,0l0,0l0,0
		c-0.1-0.1-0.3-0.2-0.6-0.3c-0.6-0.2-1-0.4-1.3-0.6c-0.3-0.2-0.4-0.6-0.4-1c0-0.4,0.1-0.7,0.4-1c0.3-0.3,0.7-0.4,1.2-0.4v-0.8h0.6
		v0.8c0.5,0.1,0.8,0.2,1.1,0.5c0.3,0.3,0.4,0.7,0.4,1.1l0,0h-1.1c0-0.3-0.1-0.5-0.2-0.6c-0.1-0.2-0.3-0.2-0.5-0.2
		c-0.1,0-0.1,0-0.2,0l0,0h0l0,0l0,0l0,0l0,0h0l0,0l0,0l0,0l0,0h0l0,0l0,0l0,0l0,0l0,0l0,0l0,0l0,0l0,0l0,0l0,0h0l0,0l0,0l0,0l0,0h0
		l0,0l0,0l0,0l0,0l0,0l0,0l0,0l0,0l0,0l0,0l0,0l0,0l0,0l0,0l0,0l0,0l0,0l0,0l0,0l0,0l0,0l0,0l0,0l0,0l0,0l0,0l0,0l0,0l0,0l0,0l0,0v0
		l0,0l0,0l0,0l0,0v0l0,0l0,0l0,0l0,0l0,0l0,0l0,0l0,0l0,0l0,0l0,0l0,0l0,0l0,0l0,0l0,0l0,0l0,0l0,0l0,0l0,0l0,0l0,0l0,0l0,0l0,0l0,0
		l0,0l0,0l0,0l0,0l0,0l0,0l0,0l0,0l0,0l0,0l0,0l0,0l0,0l0,0l0,0l0,0l0,0v0l0,0l0,0l0,0l0,0l0,0l0,0l0,0l0,0l0,0l0,0l0,0l0,0l0,0l0,0
		l0,0l0,0h0l0,0l0,0l0,0l0,0l0,0l0,0l0,0l0,0l0,0l0,0l0,0l0,0l0,0l0,0l0,0l0,0l0,0l0,0l0,0l0,0l0,0l0,0l0,0l0,0l0,0l0,0v0l0,0l0,0
		l0,0l0,0l0,0l0,0l0,0l0,0l0,0l0,0l0,0l0,0l0,0v0l0,0l0,0l0,0l0,0v0l0,0l0,0l0,0l0,0l0,0l0,0l0,0l0,0l0,0l0,0l0,0l0,0l0,0l0,0l0,0
		l0,0l0,0l0,0l0,0l0,0v0l0,0l0,0l0,0l0,0l0,0l0,0v0l0,0v0l0,0l0,0l0,0v0l0,0v0l0,0c0,0.1,0,0.1,0,0.2c0,0.2,0.1,0.3,0.2,0.4
		c0.1,0.1,0.3,0.2,0.7,0.3c0.6,0.2,1,0.4,1.3,0.7c0.3,0.2,0.4,0.6,0.4,1c0,0.4-0.1,0.7-0.4,1c-0.3,0.2-0.7,0.4-1.2,0.4v0.7H24v-0.7
		c-0.5,0-0.9-0.2-1.2-0.5c-0.3-0.3-0.5-0.7-0.5-1.2l0,0h1.1c0,0.3,0.1,0.5,0.2,0.7c0.2,0.1,0.4,0.2,0.6,0.2c0.2,0,0.4,0,0.5-0.1l0,0
		l0,0l0,0v0l0,0l0,0l0,0l0,0l0,0l0,0l0,0l0,0l0,0l0,0l0,0l0,0l0,0l0,0l0,0v0l0,0l0,0l0,0l0,0l0,0v0h0l0,0l0,0l0,0l0,0l0,0l0,0l0,0
		l0,0l0,0l0,0l0,0l0,0l0,0h0v0l0,0l0,0l0,0l0,0l0,0l0,0h0l0,0l0,0v0l0,0l0,0h0v0l0,0l0,0l0,0l0,0l0,0l0,0l0,0l0,0l0,0l0,0l0,0l0,0
		l0,0C25,18.3,25.1,18.1,25.1,18L25.1,18z"/>
</g>
</svg>
