<?xml version="1.0" encoding="utf-8"?>
<!-- Generator: Adobe Illustrator 18.1.1, SVG Export Plug-In . SVG Version: 6.00 Build 0)  -->
<svg version="1.1" id="圖層_1" xmlns="http://www.w3.org/2000/svg" xmlns:xlink="http://www.w3.org/1999/xlink" x="0px" y="0px"
	 viewBox="0 0 103.3 30.8" enable-background="new 0 0 103.3 30.8" xml:space="preserve">
<g>
	<path fill-rule="evenodd" clip-rule="evenodd" fill="#0C5F8E" d="M0,2.3c0-0.9,1.1-1.6,2.4-1.6h98.5c1.3,0,2.4,0.7,2.4,1.6v26.9
		c0,0.9-1.1,1.7-2.4,1.7H2.4C1.1,30.8,0,30,0,29.1V2.3z"/>
	<path fill-rule="evenodd" clip-rule="evenodd" fill="#1281B2" d="M100.9,0H2.4C1.1,0,0,0.7,0,1.6v0.6c0-0.9,1.1-1.6,2.4-1.6h98.5
		c1.3,0,2.4,0.7,2.4,1.6V1.6C103.3,0.7,102.2,0,100.9,0z"/>
	<path opacity="0.1" fill="#FFFFFF" d="M0,18.3l37.7,11.1H2c0,0-1.8,0-2-0.3V18.3z"/>
	<polyline opacity="0.1" fill="#FFFFFF" points="0,5.6 15.8,29.4 0.2,29.4 	"/>
	<path opacity="0.1" fill="#FFFFFF" d="M103.3,10.2L65.4,0.6h36.2c0,0,1.6,0,1.7,0.3V10.2z"/>
	<polyline opacity="0.1" fill="#FFFFFF" points="103.3,21.4 89.5,0.6 103.1,0.6 	"/>
	
		<radialGradient id="SVGID_1_" cx="1519.1111" cy="-418.3195" r="3.4157" gradientTransform="matrix(27.8793 0 0 7.7477 -42358.6992 3257.1448)" gradientUnits="userSpaceOnUse">
		<stop  offset="0" style="stop-color:#FFFFFF"/>
		<stop  offset="1" style="stop-color:#FFFFFF;stop-opacity:0"/>
	</radialGradient>
	<rect x="0" y="0" opacity="0.2" fill="url(#SVGID_1_)" width="103.3" height="29.3"/>
	<path fill-rule="evenodd" clip-rule="evenodd" fill="#0C4B66" d="M2.8,30.8h97.7c1.5,0,2.8-0.7,2.8-1.7v-1.4c0,0.9-1.2,1.6-2.8,1.6
		H2.8c-1.5,0-2.8-0.7-2.8-1.6v1.4C0,30,1.2,30.8,2.8,30.8z"/>
</g>
</svg>
