<?xml version="1.0" encoding="utf-8"?>
<!-- Generator: Adobe Illustrator 18.1.1, SVG Export Plug-In . SVG Version: 6.00 Build 0)  -->
<svg version="1.1" id="圖層_1" xmlns="http://www.w3.org/2000/svg" xmlns:xlink="http://www.w3.org/1999/xlink" x="0px" y="0px"
	 viewBox="0 0 63.8 30.8" enable-background="new 0 0 63.8 30.8" xml:space="preserve">
<g>
	<g>
		<g>
			<path fill-rule="evenodd" clip-rule="evenodd" fill="#8C0000" d="M0,2.3c0-0.9,1-1.6,2.2-1.6h59.5c1.2,0,2.2,0.7,2.2,1.6v26.9
				c0,0.9-1,1.7-2.2,1.7H2.2C1,30.8,0,30,0,29.1V2.3z"/>
			<path fill-rule="evenodd" clip-rule="evenodd" fill="#BF0202" d="M61.6,0H2.2C1,0,0,0.7,0,1.6v0.6c0-0.9,1-1.6,2.2-1.6h59.5
				c1.2,0,2.2,0.7,2.2,1.6V1.6C63.8,0.7,62.8,0,61.6,0z"/>
			<path fill-rule="evenodd" clip-rule="evenodd" fill="#660000" d="M2.2,30.8h59.5c1.2,0,2.2-0.7,2.2-1.7v-1.4c0,0.9-1,1.6-2.2,1.6
				H2.2C1,29.4,0,28.6,0,27.7v1.4C0,30,1,30.8,2.2,30.8z"/>
			<path opacity="0.1" fill="#FFFFFF" d="M0,24.3l15.5,5.1H0.8c0,0-0.8,0-0.8-0.2V24.3z"/>
			<polyline opacity="0.2" fill="#FFFFFF" points="0,18.5 6.5,29.4 0.1,29.4 			"/>
			<path opacity="0.1" fill="#FFFFFF" d="M63.8,5.7L48.1,0.6h14.8c0,0,0.8,0,0.8,0.2V5.7z"/>
			<polyline opacity="0.2" fill="#FFFFFF" points="63.8,11.6 57.2,0.6 63.7,0.6 			"/>
		</g>
		
			<radialGradient id="SVGID_1_" cx="1468.6388" cy="-418.3193" r="3.4721" gradientTransform="matrix(16.8822 0 0 7.7477 -24798.1328 3257.145)" gradientUnits="userSpaceOnUse">
			<stop  offset="0" style="stop-color:#FFFFFF"/>
			<stop  offset="1" style="stop-color:#FFFFFF;stop-opacity:0"/>
		</radialGradient>
		<rect x="0" y="0" opacity="0.2" fill="url(#SVGID_1_)" width="63.8" height="29.3"/>
	</g>
	<path fill="#FFFFFF" d="M22.6,18c-1.8,0-3.3,1.5-3.3,3.3c0,1.8,1.5,3.3,3.3,3.3s3.3-1.5,3.3-3.3C25.8,19.5,24.4,18,22.6,18z
		 M22.6,23.6c-1.3,0-2.4-1.1-2.4-2.4c0-1.3,1.1-2.4,2.4-2.4c1.3,0,2.4,1.1,2.4,2.4C24.9,22.6,23.9,23.6,22.6,23.6z M20.1,18
		c-0.6-0.3-1.2-0.5-1.9-1v-1.1c0.7-0.5,1-1.5,1.2-2.3c0.1,0,0.2-0.2,0.2-0.4v0c0.1-0.1,0.1-0.3,0.2-0.5c0.1-0.3,0.4-1.1,0.1-1.3
		c-0.1-0.1-0.2-0.1-0.3,0.1c0,0,0.4-2,0.1-2.9c-0.6-2.2-5.9-2.9-5.9-1.5c-2.3,0.6-1.8,2.8-1.5,4.4c0,0-0.2-0.2-0.4,0
		c-0.2,0.3,0,0.9,0.1,1.2c0.1,0.2,0.1,0.4,0.2,0.5c0,0,0,0.1,0,0.1c0,0.2,0.1,0.4,0.2,0.4h0c0.2,1,0.4,2,1.2,2.5v1
		c-4.3,2.5-6.4,1-6.4,6.8h12.2c-0.6-0.7-0.9-1.6-0.9-2.5C18.5,19.9,19.1,18.7,20.1,18z M23.8,20.8H23V20c0-0.2-0.2-0.5-0.5-0.5
		c-0.2,0-0.5,0.2-0.5,0.5v0.8h-0.8c-0.2,0-0.5,0.2-0.5,0.5c0,0.2,0.2,0.5,0.5,0.5h0.8v0.8c0,0.2,0.2,0.5,0.5,0.5
		c0.2,0,0.5-0.2,0.5-0.5v-0.8h0.8c0.2,0,0.5-0.2,0.5-0.5C24.3,21,24.1,20.8,23.8,20.8z"/>
</g>
</svg>
