<?xml version="1.0" encoding="utf-8"?>
<!-- Generator: Adobe Illustrator 21.0.0, SVG Export Plug-In . SVG Version: 6.00 Build 0)  -->
<svg version="1.1" id="圖層_1" xmlns="http://www.w3.org/2000/svg" xmlns:xlink="http://www.w3.org/1999/xlink" x="0px" y="0px"
	 viewBox="0 0 101.5 150" style="enable-background:new 0 0 101.5 150;" xml:space="preserve">
<style type="text/css">
	.st0{fill:#0092EB;}
</style>
<path class="st0" d="M57.2,60.8C64,58.2,68.8,51.7,68.8,44c0-9.9-8.1-18-18.1-18s-18.1,8.1-18.1,18c0,7.7,4.8,14.2,11.6,16.8
	C30.7,63.7,20.5,75.7,20.4,90c8.1,7.1,18.6,11.5,30.3,11.5S72.9,97.1,81,90C80.9,75.7,70.8,63.8,57.2,60.8z M88.9,0H12.6
	C5.6,0,0,5.7,0,12.6v124.8c0,7,5.7,12.6,12.6,12.6h76.3c7,0,12.6-5.7,12.6-12.6V12.6C101.5,5.7,95.9,0,88.9,0z M50.7,142.1
	c-4.4,0-8.1-3.6-8.1-8.1s3.7-8.1,8.1-8.1c4.5,0,8.1,3.6,8.1,8.1S55.2,142.1,50.7,142.1z M88.5,109.3c0,5.4-4.4,9.9-9.9,9.9H22.9
	c-5.4,0-9.9-4.4-9.9-9.9V18.9c0-5.4,4.4-9.9,9.9-9.9h55.7c5.4,0,9.9,4.4,9.9,9.9V109.3z"/>
</svg>
