<?xml version="1.0" encoding="utf-8"?>
<!-- Generator: Adobe Illustrator 21.0.0, SVG Export Plug-In . SVG Version: 6.00 Build 0)  -->
<svg version="1.1" id="圖層_1" xmlns="http://www.w3.org/2000/svg" xmlns:xlink="http://www.w3.org/1999/xlink" x="0px" y="0px"
	 viewBox="0 0 178.3 176.9" style="enable-background:new 0 0 178.3 176.9;" xml:space="preserve">
<style type="text/css">
	.st0{fill:#0092EB;}
</style>
<path class="st0" d="M107.6,39.7c8.2,5.2,14,13.9,15.1,24.1c3.4,1.6,7.1,2.5,11,2.5c14.4,0,26.1-11.7,26.1-26.1
	s-11.7-26.1-26.1-26.1C119.4,13.9,107.8,25.4,107.6,39.7L107.6,39.7z M90.5,93.2c14.4,0,26.1-11.7,26.1-26.1S104.9,41,90.5,41
	S64.4,52.7,64.4,67.1C64.3,81.5,76.1,93.2,90.5,93.2L90.5,93.2z M101.6,95H79.4c-18.5,0-33.5,15-33.5,33.5v27.1L46,156l1.9,0.6
	c17.6,5.5,32.9,7.3,45.5,7.3c24.6,0,38.9-7,39.7-7.5l1.7-0.9h0.2v-27.1C135.1,110,120,95,101.6,95L101.6,95z M144.8,68h-22
	c-0.2,8.8-4,16.7-9.9,22.4c16.4,4.9,28.4,20.1,28.4,38.1v8.4c21.7-0.8,34.3-7,35.1-7.4l1.7-0.9h0.2v-27.1
	C178.3,83,163.3,68,144.8,68L144.8,68z M44.6,66.2c5.1,0,9.9-1.5,13.9-4c1.3-8.4,5.8-15.7,12.2-20.6c0-0.5,0.1-1,0.1-1.5
	C70.8,25.7,59.1,14,44.7,14S18.6,25.7,18.6,40.1C18.5,54.5,30.2,66.2,44.6,66.2L44.6,66.2z M68.1,90.4c-5.9-5.7-9.7-13.6-9.9-22.3
	C57.4,68,56.6,68,55.7,68H33.5C15,68,0,83,0,101.5v27.1l0.1,0.4l1.9,0.6c14.1,4.4,26.7,6.4,37.7,7.1v-8.2
	C39.7,110.5,51.7,95.3,68.1,90.4L68.1,90.4z"/>
</svg>
