<?xml version="1.0" encoding="utf-8"?>
<!-- Generator: Adobe Illustrator 18.1.1, SVG Export Plug-In . SVG Version: 6.00 Build 0)  -->
<svg version="1.1" id="圖層_1" xmlns="http://www.w3.org/2000/svg" xmlns:xlink="http://www.w3.org/1999/xlink" x="0px" y="0px"
	 viewBox="0 0 102.7 30.8" enable-background="new 0 0 102.7 30.8" xml:space="preserve">
<g>
	<path fill-rule="evenodd" clip-rule="evenodd" fill="#006837" d="M0,2.3c0-0.9,1-1.6,2.2-1.6h98.4c1.2,0,2.2,0.7,2.2,1.6v26.9
		c0,0.9-1,1.7-2.2,1.7H2.1C1,30.8,0,30,0,29.1V2.3z"/>
	<path fill-rule="evenodd" clip-rule="evenodd" fill="#20BC6A" d="M100.5,0H2.1C1,0,0,0.7,0,1.6v0.6c0-0.9,1-1.6,2.2-1.6h98.4
		c1.2,0,2.2,0.7,2.2,1.6V1.6C102.7,0.7,101.7,0,100.5,0z"/>
	<path opacity="0.3" fill-rule="evenodd" clip-rule="evenodd" fill="#1E2023" d="M2.1,30.8h98.4c1.2,0,2.2-0.7,2.2-1.7v-1.4
		c0,0.9-1,1.6-2.2,1.6H2.1C1,29.4,0,28.6,0,27.7v1.4C0,30,1,30.8,2.1,30.8z"/>
	<path opacity="0.1" fill="#FFFFFF" d="M0,24.3l15.5,5.1H0.8c0,0-0.8,0-0.8-0.2V24.3z"/>
	<path opacity="0.1" fill="#FFFFFF" d="M0.7,29.4l5.8-0.1L0,18.3l0,10.3C0,29,0.3,29.4,0.7,29.4z"/>
	<path opacity="0.1" fill="#FFFFFF" d="M102.7,5.7L87,0.6h12.8c0,0,2.6-0.3,2.8,1.6V5.7z"/>
	<path opacity="0.1" fill="#FFFFFF" d="M102.7,11.6l-6.6-11h4.8c0.9,0,1.7,0.7,1.7,1.6L102.7,11.6z"/>
	
		<radialGradient id="SVGID_1_" cx="1486.3569" cy="-418.2762" r="5.3206" gradientTransform="matrix(16.8822 0 0 7.7477 -25099.8945 3257.145)" gradientUnits="userSpaceOnUse">
		<stop  offset="0" style="stop-color:#FFFFFF"/>
		<stop  offset="1" style="stop-color:#FFFFFF;stop-opacity:0"/>
	</radialGradient>
	<path opacity="0.2" fill="url(#SVGID_1_)" d="M102.7,29.4L0,29.4L0,2.5c0-1,0.8-1.8,1.8-1.8l99,0c1,0,1.8,0.8,1.8,1.8V29.4z"/>
	<path fill="#FFFFFF" d="M18.8,11.6h-8.2c-1.1,0-1.9,0.8-1.9,1.9v7.4c0,1.1,0.8,1.9,1.9,1.9h8.2c1.1,0,1.9-0.8,1.9-1.9v-7.4
		C20.7,12.4,19.9,11.6,18.8,11.6z M15.3,21.5h-1.6v-1.7h1.6V21.5z M17,16.5c-0.1,0.4-0.5,0.7-1,1.2c-0.4,0.3-0.6,0.5-0.6,0.6
		c-0.1,0.1-0.1,0.3-0.1,0.6l0,0.4h-1.4l0-0.4c0-0.6,0-1,0.1-1.2c0.1-0.2,0.3-0.5,0.7-0.8c0.3-0.3,0.6-0.5,0.7-0.7
		c0.1-0.2,0.2-0.4,0.2-0.7c0-0.3-0.1-0.6-0.2-0.8c-0.2-0.2-0.4-0.2-0.7-0.2c-0.7,0-1,0.5-1.1,1.5l0,0.1l-1.4-0.3l0-0.1
		c0.2-1.7,1-2.6,2.5-2.6c0.7,0,1.3,0.2,1.8,0.6c0.4,0.4,0.7,1,0.7,1.7C17.2,15.8,17.1,16.2,17,16.5z M11.1,10.8
		c0.6,0,1.1-0.5,1.1-1.1V9.3c0-1,0.8-1.9,1.9-1.9h1.4c1,0,1.9,0.8,1.9,1.9v0.5c0,0.6,0.5,1.1,1.1,1.1c0.6,0,1.1-0.5,1.1-1.1V9.3
		c0-2.2-1.8-4-4-4H14c-2.2,0-4,1.8-4,4v0.5C10,10.3,10.5,10.8,11.1,10.8z"/>
</g>
</svg>
