<?xml version="1.0" encoding="UTF-8" standalone="no"?>
<!-- Generator: Adobe Illustrator 21.0.0, SVG Export Plug-In . SVG Version: 6.00 Build 0)  -->
<svg id="圖層_1" style="enable-background:new 0 0 245.7 64.1" xmlns="http://www.w3.org/2000/svg" xml:space="preserve" viewBox="0 0 245.7 64.1" version="1.1" y="0px" x="0px" xmlns:xlink="http://www.w3.org/1999/xlink">
<style type="text/css">
	.st0{display:none;}
	.st1{display:inline;}
	.st2{opacity:0.4;}
	.st3{fill:#BF0202;}
	.st4{fill:#490101;}
	.st5{fill:#8C0000;}
	.st6{fill:#FF7373;}
	.st7{fill:#C5C9C9;}
	.st8{fill:#FFFFFF;}
	.st9{fill:#F5F5F5;}
	.st10{fill:#0597E8;}
	.st11{fill:#025F93;}
	.st12{fill:#0071BC;}
	.st13{fill:none;stroke:#FFFFFF;stroke-miterlimit:10;}
</style>
<g id="圖層_1_1_" class="st0">
	<g class="st1">
		<g class="st2">
				<image width="1329" style="enable-background:new" xlink:href="44843A1F32E46C8E.png" transform="matrix(.2391 0 0 .2379 -35.29 -32.173)" height="563">
			</image>
		</g>
			<path class="st3" d="m217.6 58.3h-189.6c-15.4 0-28-12.5-28-28v-2.3c0-15.5 12.5-28 28-28h189.7c15.4 0 28 12.5 28 28v2.3c-0.1 15.5-12.6 28-28.1 28z"/>
				<path class="st4" d="m216.5 64.1h-187.4c-16.1 0-29.1-13-29.1-29.1s13-29.1 29.1-29.1h187.3c16.1 0 29.1 13 29.1 29.1 0.1 16.1-12.9 29.1-29 29.1z"/>
				<path class="st5" d="m216.5 60.7h-187.4c-16.1 0-29.1-13.1-29.1-29.2s13-29.1 29.1-29.1h187.3c16.1 0 29.1 13 29.1 29.1 0.1 16.1-12.9 29.2-29 29.2z"/>
				<path class="st6" d="m86 20.1v2.1h-1.8v-3.9h8.3c-0.2-0.6-0.5-1.1-0.7-1.5l1.7-0.7c0.3 0.6 0.6 1.4 0.9 2.3h8.5v3.9h-1.8v-2.1l-15.1-0.1zm3.4 16.2h-1.8v-14.8h12.2v5.8h-10.4v2h11.5v7h-1.8v-1.2h-9.7v1.2zm8.6-10.7v-2.4h-8.6v2.4h8.6zm1.1 7.8v-2.4h-9.7v2.4h9.7z"/>
				<path class="st6" d="m126.7 33.8v-15h-13.4v17.6h-1.8v-19.4h17v17.5c0 1.2-0.6 1.8-1.8 1.8h-1.7l-0.5-1.8h1.5c0.5 0 0.7-0.2 0.7-0.7zm-10.9-0.7l-1.9-0.7c1.2-1.6 2.2-3.2 3-4.9-0.9-1.6-1.8-2.9-2.6-3.9l1.5-1c0.7 0.8 1.3 1.7 2 2.8 0.5-1.4 0.8-3 1-4.6l1.7 0.3c-0.3 2.1-0.8 4.2-1.5 6.2 0.6 1 1.1 2 1.7 3.1l-1.5 0.9c-0.4-0.7-0.7-1.3-1-1.9-0.9 1.3-1.6 2.5-2.4 3.7zm5.3 0.6l-1.9-0.7c1.3-1.7 2.3-3.4 3.1-5.2-0.8-1.3-1.5-2.4-2.2-3.3l1.5-1c0.5 0.6 1 1.3 1.5 2.1 0.5-1.5 0.8-3.1 1-4.8l1.7 0.3c-0.3 2.2-0.8 4.4-1.5 6.5 0.7 1.2 1.3 2.5 2 3.9l-1.6 0.9c-0.4-0.9-0.9-1.8-1.3-2.6-0.7 1.4-1.4 2.7-2.3 3.9z"/>
				<path class="st6" d="m144.9 17.3c-0.6 1.7-1.4 3.3-2.3 4.7-1 1.5-2.2 2.8-3.5 4l-1.7-1.1c1.4-1.1 2.6-2.4 3.7-3.8 0.9-1.3 1.7-2.8 2.3-4.6l1.5 0.8zm1 6.1l1.7 0.8c-1.9 3.3-3.9 6.3-5.9 9.1l9.2-0.8c-0.6-1.1-1.2-2.1-1.7-2.9l1.6-0.9c1.2 1.7 2.4 4 3.6 6.7l-1.7 0.8c-0.3-0.7-0.6-1.3-0.8-1.8l-12.1 1.1-0.7-2c2.5-3.1 4.8-6.5 6.8-10.1zm4-7c0.8 1.9 1.5 3.5 2.3 4.6 0.9 1.2 2.2 2.7 3.8 4.2l-1.8 1.1c-1.4-1.4-2.6-2.8-3.4-4.2-0.9-1.4-1.7-3.1-2.4-4.9l1.5-0.8z"/>
				<path class="st6" d="m171.9 21.1h-4.4c-0.4 0.8-0.8 1.6-1.3 2.4l-1.9-0.8c0.8-1 1.3-1.9 1.7-2.8 0.4-0.8 0.6-1.8 0.9-2.9l1.8 0.3c-0.2 0.7-0.3 1.4-0.5 2h3.8v-3.2h1.8v3.2h6.6v1.8h-6.6v3.2h8.5v1.8h-18.8v-1.8h8.6v-3.2h-0.2zm-4 15.4h-1.8v-8.1-0.6h0.6 12.5 0.6v0.6 8.1h-1.8v-1.7h-10.2l0.1 1.7zm10.1-3.6v-3.2-0.3h-0.3-9.6-0.3v0.3 3.2h10.2z"/>
				<path class="st7" d="m87.4 44.5v1.1h-0.9v-2h4.1c-0.1-0.3-0.2-0.6-0.3-0.8l0.9-0.4c0.2 0.3 0.3 0.7 0.5 1.1h4.2v1.9h-0.9v-1.1h-7.6v0.2zm1.7 8.2h-0.9v-7.4h6.1v2.9h-5.2v1h5.8v3.5h-0.9v-0.6h-4.9v0.6zm4.3-5.4v-1.2h-4.3v1.2h4.3zm0.6 3.9v-1.2h-4.9v1.2h4.9z"/>
				<path class="st7" d="m106.6 51.5c0.3-0.3 0.5-1 0.5-2.1v-1.8h-3.9c-0.1 0.9-0.3 1.6-0.6 2.3-0.5 1.2-1.2 2.1-2.2 2.8l-0.9-0.7c1-0.6 1.8-1.4 2.2-2.4 0.5-1.1 0.7-2.4 0.7-3.8v-0.6h-2.9v-0.9h4.7c-0.3-0.5-0.5-0.9-0.7-1.1l0.8-0.5c0.3 0.3 0.6 0.8 0.8 1.3l-0.6 0.3h4.7v0.9h-6v0.6 0.9h4.7v2.9c0 1.3-0.2 2.2-0.7 2.6-0.3 0.3-0.8 0.5-1.3 0.5h-1.2l-0.2-1c0.5 0 0.9 0.1 1.4 0.1 0.3-0.1 0.5-0.2 0.7-0.3z"/>
				<path class="st7" d="m121 51.4v-7.5h-6.7v8.8h-0.9v-9.7h8.5v8.8c0 0.6-0.3 0.9-0.9 0.9h-0.8l-0.2-0.9h0.7c0.1 0 0.3-0.2 0.3-0.4zm-5.5-0.4l-1-0.3c0.6-0.8 1.1-1.6 1.5-2.4-0.5-0.8-0.9-1.4-1.3-2l0.7-0.5c0.3 0.4 0.7 0.9 1 1.4 0.2-0.7 0.4-1.5 0.5-2.3l0.8 0.2c-0.2 1.1-0.4 2.1-0.7 3.1 0.3 0.5 0.6 1 0.8 1.6l-0.8 0.5c-0.2-0.3-0.4-0.7-0.5-1-0.2 0.5-0.6 1.1-1 1.7zm2.7 0.4l-1-0.3c0.6-0.8 1.2-1.7 1.6-2.6-0.4-0.7-0.7-1.2-1.1-1.7l0.8-0.5c0.2 0.3 0.5 0.7 0.7 1.1 0.2-0.7 0.4-1.5 0.5-2.4l0.8 0.2c-0.2 1.1-0.4 2.2-0.8 3.2 0.3 0.6 0.7 1.2 1 1.9l-0.8 0.4c-0.2-0.5-0.4-0.9-0.7-1.3-0.2 0.7-0.6 1.3-1 2z"/>
				<path class="st7" d="m128.4 51.9c-0.8 0.2-1.6 0.3-2.3 0.3l-0.3-1c0.7 0 1.5-0.1 2.3-0.2 0.4-2 0.7-3.6 0.7-4.9l0.9 0.1c0 1.3-0.2 2.8-0.6 4.6 0.3-0.1 0.6-0.2 0.9-0.3l0.3 0.9c-0.5 0.2-1.2 0.3-1.9 0.5zm1.7-7.3v0.9h-4.2v-0.9h4.2zm-2.8 1.8c0.3 1.1 0.4 2.4 0.4 3.9l-0.9 0.1c0-1.6-0.2-2.9-0.4-3.8l0.9-0.2zm0.7-3.9c0.3 0.4 0.6 0.9 0.9 1.6l-0.8 0.4c-0.3-0.7-0.6-1.2-0.8-1.5l0.7-0.5zm3.5 10.2h-0.9v-4.8-0.3h0.3 1.2v-5h0.9v2.1h2.7v0.9h-2.7v2h1.9 0.3v0.3 4.8h-0.9v-0.9h-2.8v0.9zm2.8-1.8v-2.5h-2.8v0.1 2.4h2.8z"/>
				<path class="st7" d="m146.7 43l0.5 0.4c-0.7 1.4-1.5 2.4-2.4 3.2 1 0.5 2.3 0.9 4.1 1.2l-0.3 1c-0.5-0.1-1-0.2-1.5-0.4v0.3 3.9h-0.9v-0.9h-4.1v0.9h-0.9v-3.9-0.2c-0.4 0.2-0.9 0.3-1.4 0.4l-0.6-0.9c1.6-0.3 2.9-0.8 4-1.5-0.5-0.5-0.9-1.1-1.3-1.8-0.5 0.5-1.1 1-1.7 1.3l-0.6-0.8c0.7-0.3 1.2-0.6 1.7-1.1 0.4-0.4 0.8-1 1.1-1.7l0.9 0.2c0 0.1-0.1 0.2-0.1 0.3l3.5 0.1zm-5.3 5.5s0.1 0 0 0h5.3 0.2c-1.2-0.4-2.2-0.8-2.9-1.3-0.7 0.5-1.6 0.9-2.6 1.3zm4.8 2.4v-1.5h-4v0.1 1.4h4zm-3.7-6.9c0.3 0.8 0.8 1.5 1.4 2 0.8-0.6 1.4-1.4 1.9-2.2h-3.2c0 0.1-0.1 0.2-0.1 0.2z"/>
				<path class="st7" d="m152.6 51.3l-0.3-1c0.4 0 0.8-0.1 1.3-0.2v-5.5h-1.2v-0.9h3.1v0.9h-1v5.4c0.4-0.1 0.8-0.3 1.1-0.4l0.4 0.9c-0.5 0.2-1 0.4-1.6 0.5-0.7 0.1-1.3 0.3-1.8 0.3zm5.9-4.4h0.8v2.5c0 1-0.3 1.8-0.9 2.4-0.6 0.5-1.4 0.8-2.6 0.9l-0.5-0.9c1.1-0.1 1.9-0.4 2.4-0.7 0.5-0.4 0.7-0.9 0.7-1.6v-2.6h0.1zm-1.1-1.2v4.5h-0.9v-5.4h1.6c0.1-0.3 0.2-0.6 0.2-0.9h-2.4v-0.9h6v0.9h-2.6c0 0.3-0.1 0.6-0.2 0.9h2.2v5.4h-0.9v-4.5h-3zm2.5 5c0.7 0.2 1.5 0.6 2.3 1.1l-0.4 0.8c-0.9-0.5-1.7-0.9-2.3-1.1l0.4-0.8z"/>
				<path class="st7" d="m166.9 50.6v-4.2h-1.2v-0.9h2.1v5.4l0.9-0.5 0.1 0.9-1.7 0.8-0.5-0.7c0.2-0.2 0.3-0.5 0.3-0.8zm-0.2-8c0.5 0.4 1 0.9 1.6 1.5l-0.7 0.7c-0.6-0.7-1.1-1.2-1.5-1.5l0.6-0.7zm1.9 5.1v-0.9h1.5v-2.9h-1.2v-0.9h4.9v7.2c0 0.4 0 0.7 0.1 0.9 0 0.1 0.1 0.2 0.2 0.2s0.1 0 0.2-0.1 0.2-0.6 0.3-1.3l0.9 0.5c-0.1 0.8-0.3 1.4-0.6 1.8-0.2 0.3-0.4 0.4-0.7 0.4s-0.5-0.1-0.6-0.3c-0.4-0.5-0.6-1.6-0.6-3.3v-5.1h-2v2.9h1.3v0.9h-1.3v4.9h-0.9v-4.9h-1.5z"/>
				<path class="st7" d="m180.6 49.7c0 0.5-0.1 1-0.2 1.4-0.1 0.5-0.3 0.9-0.6 1.3l-0.8-0.5c0.3-0.3 0.5-0.7 0.6-1.1s0.2-0.8 0.2-1.2l0.8 0.1zm5.3-1.2h-5.5v-5.1h2.3c0.1-0.4 0.2-0.7 0.3-0.9l0.9 0.3c0 0.2-0.1 0.4-0.2 0.6h3.1v5.1h-0.5-0.4zm0-3.6v-0.7h-4.6v0.7h4.6zm0 1.4v-0.6h-4.6v0.6h4.6zm-4.5 0.8v0.5h4.6v-0.5h-4.6zm4.1 4.3c0.1-0.1 0.2-0.2 0.2-0.5v-0.4l0.9 0.4c0 0.2-0.1 0.4-0.1 0.6-0.1 0.3-0.2 0.5-0.4 0.7-0.2 0.1-0.4 0.2-0.7 0.2h-3.2c-0.6 0-0.9-0.3-0.9-0.9v-2.1h0.9v1.6c0 0.3 0.1 0.4 0.4 0.4h2.4c0.2 0.1 0.4 0 0.5 0zm-1.4-2.5c0.3 0.4 0.6 0.9 0.9 1.6l-0.8 0.4c-0.3-0.7-0.6-1.2-0.8-1.5l0.7-0.5zm3.3 0.4c0.4 0.7 0.9 1.6 1.3 2.7l-0.9 0.3c-0.4-1.1-0.8-1.9-1.2-2.5l0.8-0.5z"/>
				<path class="st7" d="m196.1 43.1c-0.3 0.8-0.7 1.6-1.2 2.4-0.5 0.7-1.1 1.4-1.7 2l-0.9-0.5c0.7-0.6 1.3-1.2 1.8-1.9s0.8-1.4 1.2-2.3l0.8 0.3zm0.5 3.1l0.8 0.4c-1 1.6-1.9 3.2-2.9 4.5l4.6-0.4c-0.3-0.6-0.6-1.1-0.9-1.5l0.8-0.5c0.6 0.9 1.2 2 1.8 3.4l-0.8 0.4c-0.1-0.3-0.3-0.6-0.4-0.9l-6 0.5-0.3-1c1.1-1.4 2.3-3.1 3.3-4.9zm2-3.5c0.4 1 0.8 1.7 1.2 2.3s1.1 1.3 1.9 2.1l-0.9 0.5c-0.7-0.7-1.3-1.4-1.7-2.1s-0.8-1.5-1.2-2.5l0.7-0.3z"/>
				<path class="st7" d="m209.6 45h-2.2c-0.2 0.4-0.4 0.8-0.7 1.2l-1-0.4c0.4-0.5 0.7-1 0.8-1.4 0.2-0.4 0.3-0.9 0.4-1.5l0.9 0.2c-0.1 0.4-0.2 0.7-0.2 1h1.9v-1.6h0.9v1.6h3.3v0.9h-3.3v1.6h4.2v0.9h-9.4v-0.9h4.3v-1.6h0.1zm-2.1 7.7h-0.9v-4-0.3h0.3 6.2 0.3v0.3 4h-0.9v-0.9h-5.1l0.1 0.9zm5.1-1.7v-1.7h-5v0.1 1.6h5z"/>
			<path class="st8" d="m32.4 54.8c-13 0-23.6-10.6-23.6-23.6s10.6-23.6 23.6-23.6 23.6 10.5 23.6 23.6-10.6 23.6-23.6 23.6zm0-46.2c-12.5 0-22.6 10.1-22.6 22.6s10.1 22.6 22.6 22.6 22.6-10.2 22.6-22.6-10.2-22.6-22.6-22.6z"/>
			<polygon points="68.5 61.2 69.5 60.7 69.5 2.1 68.5 2.1" class="st9"/>
			<path class="st8" d="m18.9 27v9.3c0 2.9 2.4 5.3 5.3 5.3h16.4c2.9 0 5.3-2.4 5.3-5.3v-9.3h-27zm12.9 4.6h-2.3v7.1h-1.7v-7.1h-2.3v-1.6h6.4v1.6h-0.1zm7.5 6.4c-0.9 0.5-1.9 0.7-3 0.7-1.3 0-2.3-0.4-3.1-1.2s-1.2-1.8-1.2-3.1 0.4-2.4 1.3-3.3c0.8-0.8 2-1.3 3.3-1.3 0.9 0 1.7 0.1 2.3 0.4l0.1 0.1v1.8l-0.2-0.1c-0.6-0.4-1.4-0.6-2.2-0.6s-1.4 0.3-1.9 0.8c-0.5 0.5-0.8 1.2-0.8 2.1s0.2 1.6 0.7 2.1 1.1 0.7 1.9 0.7c0.5 0 0.9-0.1 1.2-0.2v-1.7h-1.7v-1.5h3.4v4.3h-0.1zm1.3-17.2h-16.4c-2.6 0-4.8 2-5.2 4.5h26.8c-0.4-2.5-2.6-4.5-5.2-4.5zm-4.9 3.5c-0.5 0-0.9-0.4-0.9-0.9s0.4-0.9 0.9-0.9 0.9 0.4 0.9 0.9c0 0.4-0.4 0.9-0.9 0.9zm3.1 0c-0.5 0-0.9-0.4-0.9-0.9s0.4-0.9 0.9-0.9 0.9 0.4 0.9 0.9c0 0.4-0.4 0.9-0.9 0.9zm3.1 0c-0.5 0-0.9-0.4-0.9-0.9s0.4-0.9 0.9-0.9 0.9 0.4 0.9 0.9c0 0.4-0.4 0.9-0.9 0.9z"/>
	</g>
</g>
<g id="圖層_2">
			<path class="st10" d="m217.6 58.3h-189.6c-15.4 0-28-12.5-28-28v-2.3c0-15.5 12.5-28 28-28h189.7c15.4 0 28 12.5 28 28v2.3c-0.1 15.5-12.6 28-28.1 28z"/>
			<path class="st11" d="m216.5 64.1h-187.4c-16.1 0-29.1-13-29.1-29.1s13-29.1 29.1-29.1h187.3c16.1 0 29.1 13 29.1 29.1 0.1 16.1-12.9 29.1-29 29.1z"/>
			<path class="st12" d="m216.5 60.7h-187.4c-16.1 0-29.1-13.1-29.1-29.2s13-29.1 29.1-29.1h187.3c16.1 0 29.1 13 29.1 29.1 0.1 16.1-12.9 29.2-29 29.2z"/>
		<circle cy="31.2" cx="32.4" r="23.1" class="st13"/>
		<polygon points="68.5 61.2 69.5 60.7 69.5 2.1 68.5 2.1" class="st9"/>
		<path class="st8" d="m32.2 20.2c-7.5 0-13.6 4.6-13.6 10.3 0 3.1 1.7 5.8 4.5 7.7-0.8 1.7-2.1 3.7-4.5 4.4 0 0 4.7 0 7.4-2.9 1.8 0.7 3.9 1.1 6.1 1.1 7.5 0 13.6-4.6 13.6-10.3 0.1-5.7-6-10.3-13.5-10.3zm-0.7 7.3h-2.7v8h-1.9v-8h-2.7v-1.7h7.3v1.7zm8.6 7.3l-0.1 0.1c-1 0.5-2.1 0.8-3.3 0.8-1.4 0-2.6-0.4-3.5-1.3s-1.3-2.1-1.3-3.6 0.5-2.8 1.5-3.7 2.2-1.5 3.7-1.5c1 0 1.9 0.2 2.7 0.5l0.2 0.1v2.1l-0.5-0.3c-0.7-0.4-1.5-0.6-2.5-0.6-0.9 0-1.6 0.3-2.2 0.9s-0.9 1.4-0.9 2.4 0.3 1.8 0.8 2.4 1.2 0.8 2.1 0.8c0.5 0 1-0.1 1.4-0.3v-1.9h-2v-1.7h3.9v4.8z"/>
</g>
</svg>
