<?xml version="1.0" encoding="utf-8"?>
<!-- Generator: Adobe Illustrator 18.1.1, SVG Export Plug-In . SVG Version: 6.00 Build 0)  -->
<svg version="1.1" id="圖層_1" xmlns="http://www.w3.org/2000/svg" xmlns:xlink="http://www.w3.org/1999/xlink" x="0px" y="0px"
	 viewBox="0 0 149 150" enable-background="new 0 0 149 150" xml:space="preserve">
<path fill-rule="evenodd" clip-rule="evenodd" fill="#FFFFFF" d="M144.3,133.6H20.4l-3.6-6.4V3c0-1.7-1.4-3-3-3H9.6
	c-1.7,0-3,1.4-3,3v11.2H3c-1.7,0-3,1.4-3,3v0.8c0,1.7,1.4,3,3,3h3.5v27.4H3c-1.7,0-3,1.4-3,3v0.8c0,1.7,1.4,3,3,3h3.5v27.4H3
	c-1.7,0-3,1.4-3,3v0.8c0,1.7,1.4,3,3,3h3.5v27.4H3c-1.7,0-3,1.4-3,3v0.8c0,1.7,1.4,3,3,3h3.5v16.9c0,1.7,1.4,3,3,3H32v3
	c0,1.7,1.4,3,3.1,3h0.8c1.7,0,3-1.4,3-3v-3h27.4v3c0,1.7,1.4,3,3,3h0.8c1.7,0,3-1.4,3-3v-3h27.4v3c0,1.7,1.4,3,3,3h0.8
	c1.7,0,3-1.4,3-3v-3h27.4v3c0,1.7,1.4,3,3,3h0.8c1.7,0,3-1.4,3-3v-3h2.7c1.7,0,3-1.4,3-3v-4.2C147.4,135,146,133.6,144.3,133.6
	L144.3,133.6z M26.3,121.1h121.5c0.2,0,0.4-0.2,0.4-0.4c0-0.2-0.2-0.4-0.4-0.4H26.3c-0.2,0-0.4,0.2-0.4,0.4
	C25.9,120.9,26.1,121.1,26.3,121.1L26.3,121.1z M26.3,86.6h121.5c0.2,0,0.4-0.2,0.4-0.4c0-0.2-0.2-0.4-0.4-0.4H26.3
	c-0.2,0-0.4,0.2-0.4,0.4C25.9,86.4,26.1,86.6,26.3,86.6L26.3,86.6z M26.3,52.2h21.3l7.6,12.2c-2.1,2.1-3.5,5-3.5,8.2
	c0,6.3,4.9,11.4,11,11.4c6.1,0,11.1-5.1,11.1-11.4c0-1.7-0.4-3.4-1.1-4.9l20.1-15.2c1.6,1.4,3.6,2.2,5.8,2.2c2.5,0,4.7-1,6.3-2.7
	l20.6,13.3c-1.1,1.9-1.7,4.1-1.7,6.4c0,7.1,5.6,12.9,12.5,12.9c6.9,0,12.5-5.8,12.5-12.9s-5.6-12.9-12.5-12.9c-3.2,0-6,1.2-8.2,3.2
	l-15.5-10h35c0.2,0,0.4-0.2,0.4-0.4c0-0.2-0.2-0.4-0.4-0.4h-36.2l-4.4-2.8c0.3-0.9,0.5-1.9,0.5-2.9c0-5.1-4-9.2-9-9.2
	c-5,0-9,4.1-9,9.2c0,1.3,0.2,2.5,0.7,3.6l-2.9,2.2H52.1l-8.7-14c1.8-1.8,2.8-4.3,2.8-7c0-5.5-4.3-10-9.7-10s-9.7,4.5-9.7,10
	c0,5.5,4.3,9.9,9.7,9.9c1.2,0,2.3-0.2,3.3-0.6l7.3,11.8H26.3c-0.2,0-0.4,0.2-0.4,0.4C25.9,52,26.1,52.2,26.3,52.2L26.3,52.2z
	 M52.5,52.2h33.9L70.3,64.3c-2-1.9-4.6-3.1-7.5-3.1c-1.4,0-2.8,0.3-4.1,0.8L52.5,52.2L52.5,52.2z M26.3,17.7h121.5
	c0.2,0,0.4-0.2,0.4-0.4c0-0.2-0.2-0.4-0.4-0.4H26.3c-0.2,0-0.4,0.2-0.4,0.4C25.9,17.5,26.1,17.7,26.3,17.7L26.3,17.7z"/>
</svg>
