<?xml version="1.0" encoding="utf-8"?>
<!-- Generator: Adobe Illustrator 18.1.1, SVG Export Plug-In . SVG Version: 6.00 Build 0)  -->
<svg version="1.1" id="圖層_1" xmlns="http://www.w3.org/2000/svg" xmlns:xlink="http://www.w3.org/1999/xlink" x="0px" y="0px"
	 viewBox="0 0 188.5 150" enable-background="new 0 0 188.5 150" xml:space="preserve">
<g>
	<g>
		<g>
			<path fill="#4D4D4D" d="M94.2,103.3C78.7,103.3,66,90.6,66,75s12.7-28.3,28.3-28.3s28.3,12.7,28.3,28.3S109.8,103.3,94.2,103.3z
				 M94.2,55c-11,0-20,9-20,20s9,20,20,20s20-9,20-20S105.3,55,94.2,55z"/>
		</g>
		<g>
			<path fill="#4D4D4D" d="M184.8,0H3.7C1.7,0,0,1.8,0,3.9v142.2c0,2.2,1.7,3.9,3.7,3.9h181.1c2,0,3.7-1.8,3.7-3.9V3.9
				C188.5,1.8,186.8,0,184.8,0z M90.6,142.2H7.3v-39.9h17.1c2,0,3.7-1.8,3.7-3.9v-8.8c0.6,0.1,1.2,0.1,1.7,0.1
				C37.1,89.7,43,83.1,43,75c0-8.1-5.9-14.7-13.2-14.7c-0.5,0-1.1,0.1-1.7,0.2v-8.8c0-2.2-1.6-3.9-3.7-3.9H7.3V7.8h83.3V142.2z
				 M8.2,94.4V55.5h12.6v38.9H8.2z M28.8,81.8V68.2c0.4-0.1,0.7-0.1,1.1-0.1c3.2,0,5.8,3.1,5.8,6.9c0,3.8-2.6,6.9-5.8,6.9
				C29.5,81.9,29.1,81.9,28.8,81.8z M181.1,47.7H164c-2,0-3.7,1.8-3.7,3.9v8.8c-0.6-0.1-1.2-0.2-1.7-0.2c-7.3,0-13.2,6.6-13.2,14.7
				c0,8.1,5.9,14.7,13.2,14.7c0.6,0,1.1,0,1.7-0.1v8.8c0,2.2,1.6,3.9,3.7,3.9h17.1v39.9H97.8V7.8h83.3V47.7z M180.3,55.5v38.9h-12.6
				V55.5H180.3z M159.7,68.2v13.6c-0.4,0.1-0.7,0.1-1.1,0.1c-3.2,0-5.8-3.1-5.8-6.9c0-3.8,2.6-6.9,5.8-6.9
				C159,68.1,159.4,68.1,159.7,68.2z"/>
		</g>
	</g>
</g>
</svg>
