<?xml version="1.0" encoding="utf-8"?>
<!-- Generator: Adobe Illustrator 18.1.1, SVG Export Plug-In . SVG Version: 6.00 Build 0)  -->
<svg version="1.1" id="圖層_1" xmlns="http://www.w3.org/2000/svg" xmlns:xlink="http://www.w3.org/1999/xlink" x="0px" y="0px"
	 viewBox="0 0 178.3 150" enable-background="new 0 0 178.3 150" xml:space="preserve">
<path fill="#808080" d="M107.6,25.7c8.2,5.2,14,13.9,15.1,24.1c3.4,1.6,7.1,2.5,11,2.5c14.4,0,26.1-11.7,26.1-26.1
	c0-14.4-11.7-26.1-26.1-26.1C119.4,0,107.8,11.5,107.6,25.7L107.6,25.7z M90.5,79.3c14.4,0,26.1-11.7,26.1-26.1
	c0-14.4-11.7-26.1-26.1-26.1C76,27,64.3,38.7,64.3,53.1C64.3,67.6,76,79.3,90.5,79.3L90.5,79.3z M101.5,81H79.4
	c-18.5,0-33.5,15-33.5,33.5v27.1l0.1,0.4l1.9,0.6c17.6,5.5,32.9,7.3,45.5,7.3c24.6,0,38.9-7,39.7-7.5l1.7-0.9h0.2v-27.1
	C135,96.1,120,81,101.5,81L101.5,81z M144.8,54.1h-22c-0.2,8.8-4,16.7-9.9,22.4c16.4,4.9,28.4,20.1,28.4,38.1v8.4
	c21.7-0.8,34.3-7,35.1-7.4l1.7-0.9h0.2V87.5C178.3,69.1,163.3,54.1,144.8,54.1L144.8,54.1z M44.6,52.3c5.1,0,9.9-1.5,13.9-4
	c1.3-8.4,5.8-15.7,12.2-20.6c0-0.5,0.1-1,0.1-1.5C70.7,11.7,59,0,44.6,0C30.2,0,18.4,11.7,18.4,26.1C18.4,40.6,30.2,52.3,44.6,52.3
	L44.6,52.3z M68.1,76.5c-5.9-5.7-9.7-13.6-9.9-22.3c-0.8-0.1-1.6-0.1-2.5-0.1H33.5C15,54.1,0,69.1,0,87.5v27.1l0.1,0.4l1.9,0.6
	c14.1,4.4,26.7,6.4,37.7,7.1v-8.2C39.7,96.6,51.7,81.4,68.1,76.5L68.1,76.5z M68.1,76.5"/>
</svg>
