<?xml version="1.0" encoding="utf-8"?>
<!-- Generator: Adobe Illustrator 18.1.1, SVG Export Plug-In . SVG Version: 6.00 Build 0)  -->
<svg version="1.1" id="圖層_1" xmlns="http://www.w3.org/2000/svg" xmlns:xlink="http://www.w3.org/1999/xlink" x="0px" y="0px"
	 viewBox="0 0 99.3 58.5" enable-background="new 0 0 99.3 58.5" xml:space="preserve">
<g>
	<path fill-rule="evenodd" clip-rule="evenodd" fill="#1E8DD8" d="M0.1,3.2C0.1,1.4,1.6,0,3.4,0H96c1.8,0,3.3,1.4,3.3,3.2v52.1
		c0,1.8-1.5,3.2-3.3,3.2H3.4c-1.9,0-3.3-1.4-3.3-3.2V3.2z"/>
	<path opacity="0.2" fill="#FFFFFF" d="M0.1,36l52.8,22.5H2.8c0,0-2.6,0-2.8-0.7V36z"/>
	<polyline opacity="0.2" fill="#FFFFFF" points="0.1,10 22.3,58.5 0.4,58.5 	"/>
	<path opacity="0.2" fill="#FFFFFF" d="M99.4,19.6L53.4,0L97,0c0,0,2.2,0,2.4,0.6V19.6z"/>
	<polyline opacity="0.2" fill="#FFFFFF" points="99.4,42.2 80,0 99.1,0 	"/>
</g>
</svg>
