<?xml version="1.0" encoding="utf-8"?>
<!-- Generator: Adobe Illustrator 18.1.1, SVG Export Plug-In . SVG Version: 6.00 Build 0)  -->
<svg version="1.1" id="圖層_1" xmlns="http://www.w3.org/2000/svg" xmlns:xlink="http://www.w3.org/1999/xlink" x="0px" y="0px"
	 viewBox="0 0 149.5 150" enable-background="new 0 0 149.5 150" xml:space="preserve">
<path fill-rule="evenodd" clip-rule="evenodd" fill="#4D4D4D" d="M94.5,82.6v9.6c36.6,21.1,55.1,10.4,55.1,57.8H75.8h-0.8H0
	c0-49.1,18.5-36.7,55-57.8v-8.3c-6.4-4.6-7.9-12.8-10-21.4h-0.1c-1,0-1.9-1.5-1.9-3.4c0-0.2,0-0.4,0.1-0.7c-0.6-1-1.1-2.2-1.7-4.3
	c-0.8-2.6-3.1-8-1-10.2c1.8-1.7,3.1,0.1,3.1,0.1c-2.8-14-6.3-32.3,13-37.7c0-12,45.2-6.6,50.7,12.5c2.5,7.5-0.8,24.9-0.8,24.9
	c0.6-1.1,1.5-1.3,2.6-0.7c2.4,1.7-0.3,8.8-1,11.1c-0.6,2.1-1.2,3.6-1.8,4.6v0.3c0,1.9-0.8,3.4-1.7,3.4
	C102.6,70.1,100.5,78.5,94.5,82.6L94.5,82.6z"/>
</svg>
