<?xml version="1.0" encoding="utf-8"?>
<!-- Generator: Adobe Illustrator 18.1.1, SVG Export Plug-In . SVG Version: 6.00 Build 0)  -->
<svg version="1.1" id="圖層_1" xmlns="http://www.w3.org/2000/svg" xmlns:xlink="http://www.w3.org/1999/xlink" x="0px" y="0px"
	 viewBox="0 0 148.3 150" enable-background="new 0 0 148.3 150" xml:space="preserve">
<path fill="#2E60A4" d="M0.1,59.5c0,7,5.7,12.6,12.6,12.6h0.6c-3.6,2.2-6,6.2-6,10.7c0,7,5.7,12.6,12.6,12.6H67
	c-8.8,16.2-11.9,28.2-14.9,38.3c-1.7,5.8,1,12.2,6.6,15c6.3,3,13.2,0.9,16.9-5.9c8.4-15.2,21.6-34.2,42.3-55.4
	c3.6-3.7,6.1-8.2,7.3-13.2h23.1V12.8h-27.3c-5.1-7.6-13.8-12.6-23.7-12.6c-1.7,0-59.1,0-64.5,0c-7,0-12.6,5.7-12.6,12.6
	c0,4.5,2.4,8.5,6,10.7h-4.1c-7,0-12.6,5.7-12.6,12.6c0,4.5,2.4,8.5,6,10.7h-2.8C5.7,46.9,0.1,52.5,0.1,59.5L0.1,59.5z M0.1,59.5"/>
</svg>
