<?xml version="1.0" encoding="utf-8"?>
<!-- Generator: Adobe Illustrator 18.1.1, SVG Export Plug-In . SVG Version: 6.00 Build 0)  -->
<svg version="1.1" id="圖層_1" xmlns="http://www.w3.org/2000/svg" xmlns:xlink="http://www.w3.org/1999/xlink" x="0px" y="0px"
	 viewBox="0 0 48.8 30.8" enable-background="new 0 0 48.8 30.8" xml:space="preserve">
<g>
	<path fill-rule="evenodd" clip-rule="evenodd" fill="#0C5F8E" d="M0,2.3c0-0.9,0.7-1.6,1.6-1.6h45.5c0.9,0,1.6,0.7,1.6,1.6v26.9
		c0,0.9-0.7,1.7-1.6,1.7H1.6C0.7,30.8,0,30,0,29.1V2.3z"/>
	<path fill-rule="evenodd" clip-rule="evenodd" fill="#1281B2" d="M47.1,0H1.6C0.7,0,0,0.7,0,1.6v0.6c0-0.9,0.7-1.6,1.6-1.6h45.5
		c0.9,0,1.6,0.7,1.6,1.6V1.6C48.8,0.7,48.1,0,47.1,0z"/>
	<path fill-rule="evenodd" clip-rule="evenodd" fill="#0C4B66" d="M1.6,30.8h45.5c0.9,0,1.6-0.7,1.6-1.7v-1.4c0,0.9-0.7,1.6-1.6,1.6
		H1.6c-0.9,0-1.6-0.7-1.6-1.6v1.4C0,30,0.7,30.8,1.6,30.8z"/>
	<path opacity="0.2" fill="#FFFFFF" d="M0,18.3l26,11.1H1.4c0,0-1.3,0-1.4-0.3V18.3z"/>
	<polyline opacity="0.2" fill="#FFFFFF" points="0,5.6 10.9,29.4 0.1,29.4 	"/>
	<path opacity="0.2" fill="#FFFFFF" d="M48.8,10.2L26.2,0.6h21.4c0,0,1.1,0,1.2,0.3V10.2z"/>
	<polyline opacity="0.2" fill="#FFFFFF" points="48.8,21.4 39.3,0.6 48.7,0.6 	"/>
	
		<radialGradient id="SVGID_1_" cx="1474.1233" cy="-418.3195" r="2.5385" gradientTransform="matrix(19.2151 0 0 7.7477 -28328.7598 3257.1448)" gradientUnits="userSpaceOnUse">
		<stop  offset="0" style="stop-color:#FFFFFF"/>
		<stop  offset="1" style="stop-color:#FFFFFF;stop-opacity:0"/>
	</radialGradient>
	<rect x="0" y="0" opacity="0.4" fill="url(#SVGID_1_)" width="48.8" height="29.3"/>
</g>
</svg>
