<?xml version="1.0" encoding="utf-8"?>
<!-- Generator: Adobe Illustrator 18.1.1, SVG Export Plug-In . SVG Version: 6.00 Build 0)  -->
<svg version="1.1" id="圖層_1" xmlns="http://www.w3.org/2000/svg" xmlns:xlink="http://www.w3.org/1999/xlink" x="0px" y="0px"
	 viewBox="0 0 151.8 150" enable-background="new 0 0 151.8 150" xml:space="preserve">
<g>
	<path fill="#224F97" d="M120,87c-17.4,0.2-31.4,14.4-31.2,31.8c0.2,17.4,14.4,31.4,31.8,31.2c17.4-0.2,31.4-14.4,31.2-31.8
		C151.6,100.8,137.3,86.8,120,87z M120.5,141.3c-12.5,0.1-22.9-10-23-22.5c-0.1-12.5,10-22.8,22.5-23c12.5-0.1,22.8,10,23,22.5
		C143.1,130.8,133,141.1,120.5,141.3z M132.3,114l-7.7,0.1l-0.1-7.7c0-2.4-2-4.4-4.4-4.3c-2.4,0-4.4,2-4.3,4.4l0.1,7.7l-7.7,0.1
		c-2.4,0-4.4,2-4.3,4.4c0,2.4,2,4.4,4.4,4.3l7.7-0.1l0.1,7.7c0,2.4,2,4.4,4.4,4.3c2.4,0,4.4-2,4.3-4.4l-0.1-7.7l7.7-0.1
		c2.4,0,4.4-2,4.3-4.4C136.7,115.9,134.7,114,132.3,114z"/>
	<path fill-rule="evenodd" clip-rule="evenodd" fill="#224F97" d="M82.4,118.9c-0.1-12.4,5.7-23.4,14.8-30.4
		c-4.2-1.8-8.7-3.9-13.7-6.7l-0.1-8.6c5.4-3.7,7.2-11.1,8.8-17.9c0.8,0,1.5-1.3,1.5-3l0-0.3c0.5-0.9,1.1-2.2,1.6-4.1
		c0.6-2.1,2.9-8.4,0.8-9.9c-1-0.6-1.8-0.4-2.3,0.6c0,0,2.7-15.5,0.5-22.2C89.2-0.5,49-4.9,49.1,5.8C32,10.7,35.2,27,37.8,39.4
		c0,0-1.2-1.6-2.8-0.1c-1.9,2,0.3,6.8,1,9.1c0.5,1.8,1,2.9,1.5,3.8c-0.1,0.2-0.1,0.4-0.1,0.6c0,1.7,0.8,3,1.7,3l0.1,0
		c2,7.7,3.3,14.9,9.1,19l0.1,7.4C16.2,101.2-0.4,90.3,0,134l85.3-0.8C83.5,128.7,82.4,123.9,82.4,118.9z"/>
</g>
</svg>
