<?xml version="1.0" encoding="utf-8"?>
<!-- Generator: Adobe Illustrator 18.1.1, SVG Export Plug-In . SVG Version: 6.00 Build 0)  -->
<svg version="1.1" id="圖層_1" xmlns="http://www.w3.org/2000/svg" xmlns:xlink="http://www.w3.org/1999/xlink" x="0px" y="0px"
	 viewBox="0 0 166.8 150" enable-background="new 0 0 166.8 150" xml:space="preserve">
<g>
	<g>
		<g>
			<path fill="#4D4D4D" d="M97.4,110.7l-0.3-75.8l46.7-0.2l0.3,75.8L97.4,110.7z M105.6,43.3l0.2,59l29.9-0.1l-0.2-59L105.6,43.3z"
				/>
		</g>
		<g>
			<path fill="#4D4D4D" d="M135.7,99.9l-0.2-54.5L157,50c6,1.3,9.7,4.8,9.7,9.1l0.1,27.9c0,3.7-3,6.7-7.9,7.8L135.7,99.9z
				 M143.9,55.8l0.1,33.7l13-2.9c0.6-0.1,1.1-0.3,1.3-0.5l-0.1-27c0,0.4-0.9-0.5-3.1-0.9L143.9,55.8z"/>
		</g>
		<g>
			<path fill="#4D4D4D" d="M109.4,150L109.4,150c-2.9,0-5.6-1.2-7.4-3.4c-1.7-2.1-2.5-4.9-1.9-7.5l6.5-37l33.9-0.1l-7,40
				c-0.9,4.7-5,8.1-9.9,8.1L109.4,150z M113.5,110.4l-5.2,30.2l1,1l14.2,0c0.8,0,1.6-0.6,1.7-1.3l5.1-30L113.5,110.4z"/>
		</g>
		<g>
			<path fill="#4D4D4D" d="M12.3,146.4c-7.2,0-11.8-2.8-11.8-7.1L0,7.2c0-1.5,0.6-2.9,1.7-4C4.5,0.4,9.7,0,11.9,0L21,0
				c7.3,0,11.9,2.8,11.9,7.1l0.5,132.1c0,4.3-4.6,7.1-11.9,7.2L12.3,146.4z M8.8,137.6c0.8,0.2,1.9,0.4,3.4,0.4v4.2l0.1-4.2l9.2,0
				c1.6,0,2.8-0.2,3.5-0.4L24.6,8.8c-0.7-0.2-1.9-0.4-3.4-0.4l-9.2,0c-1.6,0-2.7,0.2-3.5,0.4L8.8,137.6z"/>
		</g>
		<g>
			<path fill="#4D4D4D" d="M25,145.9L24.6,7.1l-0.7-5.7l5.6,1.3c0.8,0.1,1.4,0.3,2.1,0.6l69.9,30.8c2.5,1.1,4.1,3.5,4.1,6.2
				l0.2,64.8c0,2.7-1.6,5.1-4,6.3L25,145.9z M32.9,13.1l0.5,119.8l64-28.7l-0.2-62.8L32.9,13.1z"/>
		</g>
	</g>
</g>
</svg>
