<?xml version="1.0" encoding="utf-8"?>
<!-- Generator: Adobe Illustrator 18.1.1, SVG Export Plug-In . SVG Version: 6.00 Build 0)  -->
<svg version="1.1" id="圖層_1" xmlns="http://www.w3.org/2000/svg" xmlns:xlink="http://www.w3.org/1999/xlink" x="0px" y="0px"
	 viewBox="0 0 134.4 150" enable-background="new 0 0 134.4 150" xml:space="preserve">
<path fill="#FFFFFF" d="M112.7,29.1v8.5c0,6.6-4.6,12-10.2,12c-5.6,0-10.2-5.4-10.2-12v-9H42.2v9c0,6.6-4.6,12-10.2,12
	c-5.6,0-10.2-5.4-10.2-12v-8.5C10.7,31.3,2,41.8,0.3,54.8h133.8C132.5,41.8,123.8,31.3,112.7,29.1z M32,44.7c3.4,0,6.1-3.3,6.1-7.2
	V13h58.2v24.6c0,3.9,2.8,7.2,6.1,7.2c3.4,0,6.1-3.3,6.1-7.2V6.7c0-3.9-2.7-7.2-6.1-7.2H32c-3.3,0-6.1,3.3-6.1,7.2v30.8
	C25.8,41.5,28.6,44.7,32,44.7z M100.7,88.2h-5v18.3h4.6c6.2,0,9.3-3.1,9.3-9.4C109.7,91.2,106.7,88.2,100.7,88.2z M0,64.6v54.1
	c0,1.6,0.1,3.1,0.3,4.6c1.8,14.8,12.8,26.2,26,26.2h81.8c13.2,0,24.1-11.4,26-26.2c0.2-1.5,0.3-3,0.3-4.6V64.6H0z M42.8,130.8h-7.2
	L20.8,81.9h7.1L38.4,119c0.4,1.4,0.7,2.9,0.8,4.5h0.1c0.1-1.4,0.4-2.9,0.9-4.6l10.7-37h6.8L42.8,130.8z M74.4,130.8h-6.5V81.9h6.5
	V130.8z M112,108.7c-3,3-6.7,4.4-11.1,4.2h-5.1v17.9h-6.5V81.9h12.6c4.7,0,8.3,1.3,10.9,3.8c2.5,2.6,3.8,6.3,3.8,11.1
	C116.5,101.7,115,105.7,112,108.7z"/>
</svg>
