<?xml version="1.0" encoding="utf-8"?>
<!-- Generator: Adobe Illustrator 18.1.1, SVG Export Plug-In . SVG Version: 6.00 Build 0)  -->
<svg version="1.1" id="圖層_1" xmlns="http://www.w3.org/2000/svg" xmlns:xlink="http://www.w3.org/1999/xlink" x="0px" y="0px"
	 viewBox="0 0 137.3 56.8" enable-background="new 0 0 137.3 56.8" xml:space="preserve">
<g>
	<g>
		<g>
			<g>
				<linearGradient id="SVGID_1_" gradientUnits="userSpaceOnUse" x1="68.63" y1="2.1853" x2="68.63" y2="57.0433">
					<stop  offset="0" style="stop-color:#D9D9D9"/>
					<stop  offset="0.2127" style="stop-color:#D2D2D2"/>
					<stop  offset="0.5085" style="stop-color:#C0C0C0"/>
					<stop  offset="0.8516" style="stop-color:#A3A3A3"/>
					<stop  offset="1" style="stop-color:#949494"/>
				</linearGradient>
				<path fill="url(#SVGID_1_)" d="M17.4,56.8C7.8,56.8,0,49,0,39.4V17.4C0,7.8,7.8,0,17.4,0h102.5c9.6,0,17.4,7.8,17.4,17.4v22.1
					c0,9.6-7.8,17.4-17.4,17.4H17.4z"/>
			</g>
			<g>
				<path fill="#999999" d="M17.4,53.6c-7.8,0-14.2-6.4-14.2-14.2V17.4c0-7.8,6.4-14.2,14.2-14.2h102.5c7.8,0,14.2,6.4,14.2,14.2
					v22.1c0,7.8-6.4,14.2-14.2,14.2H17.4z"/>
			</g>
			<g>
				<path fill="#CCCCCC" d="M132.5,39.4c0,7-5.7,12.6-12.6,12.6H17.4c-7,0-12.6-5.7-12.6-12.6V17.4c0-7,5.7-12.6,12.6-12.6h102.5
					c7,0,12.6,5.7,12.6,12.6V39.4z"/>
			</g>
			<g opacity="0.6">
				<linearGradient id="SVGID_2_" gradientUnits="userSpaceOnUse" x1="68.63" y1="40.343" x2="68.63" y2="4.7354">
					<stop  offset="0" style="stop-color:#FCFCFC"/>
					<stop  offset="0.162" style="stop-color:#F6F6F6"/>
					<stop  offset="0.3874" style="stop-color:#E4E4E4"/>
					<stop  offset="0.65" style="stop-color:#C6C6C6"/>
					<stop  offset="0.9385" style="stop-color:#9E9E9E"/>
					<stop  offset="1" style="stop-color:#949494"/>
				</linearGradient>
				<path fill="url(#SVGID_2_)" d="M132.5,24.3v-6.9c0-7-5.7-12.6-12.6-12.6H17.4c-7,0-12.6,5.7-12.6,12.6v22.1c0,0.3,0,0.6,0,0.9
					C36.1,26.4,97.3,17.5,132.5,24.3z"/>
			</g>
		</g>
	</g>
</g>
</svg>
