<?xml version="1.0" encoding="utf-8"?>
<!-- Generator: Adobe Illustrator 18.1.1, SVG Export Plug-In . SVG Version: 6.00 Build 0)  -->
<svg version="1.1" id="圖層_1" xmlns="http://www.w3.org/2000/svg" xmlns:xlink="http://www.w3.org/1999/xlink" x="0px" y="0px"
	 viewBox="0 0 141.1 150" enable-background="new 0 0 141.1 150" xml:space="preserve">
<g>
	<g>
		<path fill="#4D4D4D" d="M138.2,27.5c0.1-9.9-6.7-14.3-14-14.1c-9.4,0.4-18.8,0.1-28.4,0.1C94.9,3.2,91.4,0,81.5,0c-23,0-46,0-69,0
			C4.4,0,0,4.4,0,12.4c0,36,0,72.1,0,108.1c0,8,4.3,12.4,12.2,12.4c9.7,0,19.5,0,29.2,0.1c1.1,0,2.7,0.7,3.3,1.6
			c2.7,4,6.4,5.8,11.1,5.8c6,0,12,0,18,0c2.2,0,10.7,0,12.7,0c-0.7-3.9-7.8-7.3-8.5-10.9h-24V23.9h73.2v3.9c0,11.7,0,23.3,0,35
			c0,12.2,0,21.3,0.1,33.5c0,1.1,0.5,2.8,1.3,3c2.9,1.1,6.1,4.8,9.4,5.7v-3.4C138.1,76.9,137.8,52.2,138.2,27.5z M33,116.9
			c-3.2,0-6.4,0-9.6,0c-3.2,0-6.4,0-9.6,0c-2.1,0-3.5-1-3.5-3.2c0-2.2,1.4-3.3,3.5-3.3c6.4,0,12.8,0,19.2,0c2.1,0,3.6,1.1,3.6,3.2
			C36.5,115.8,35.1,116.8,33,116.9z M10.2,89.6c0-2.5,1.8-3.2,3.9-3.2c3.1,0,6.2,0,9.3,0c3,0,6,0,9,0c2.3,0,4.1,0.8,4.1,3.4
			c-0.1,2.3-1.7,3.2-4,3.2c-6.1,0-12.2,0-18.2,0C11.9,93,10.2,92.2,10.2,89.6z M42.9,68.6c-0.8,0.1-1.7,0.3-2.5,0.3
			c-8.6,0-17.1,0-25.7,0c-0.6,0-1.5,0.2-1.9-0.1c-1-0.9-2.5-2-2.5-3c0-1,1.7-2.8,2.6-2.8c9.9-0.2,19.8-0.1,29.9-0.1V68.6z
			 M42.9,44.7c-0.7,0.1-1.5,0.2-2.3,0.2c-8.6,0-17.3,0-25.9,0c-2.2,0-4.3-0.2-4.4-2.9c-0.1-2.9,2.1-3.3,4.4-3.3c8.6,0,17.3,0,25.9,0
			c0.7,0,1.5,0.1,2.3,0.2V44.7z M44.4,20c-0.6,0.6-1.5,1.1-2.3,1.1c-9.4,0.1-18.8,0-28.1,0c-2.1,0-3.6-0.7-3.7-3
			c-0.1-2.3,1.4-3.3,3.5-3.3c11.5,0,23,0,34.8,0C46.9,16.9,45.8,18.5,44.4,20z M115.7,38h-49v7.7h49V38z M112.1,61.1
			c-13.9,0.2-27.8,0.1-41.6,0.1h-3.6v8.1h49.2c0-1.6-0.2-3,0-4.3C116.4,61.7,115.1,61,112.1,61.1z M93.2,85H66.7v7.9h22.9L93.2,85z
			 M66.8,116.5H79v-7.9H66.8V116.5z"/>
		<g>
			<path fill="#4D4D4D" d="M107.1,150c-18.7,0-34-15.3-34-34s15.3-34,34-34s34,15.3,34,34S125.8,150,107.1,150z M107.1,90.5
				c-14.1,0-25.5,11.5-25.5,25.5s11.5,25.5,25.5,25.5s25.5-11.5,25.5-25.5S121.1,90.5,107.1,90.5z"/>
		</g>
		<polygon fill="#4D4D4D" points="121.4,111.8 111.3,111.8 111.3,101.6 102.8,101.6 102.8,111.8 92.7,111.8 92.7,120.2 102.8,120.2 
			102.8,130.4 111.3,130.4 111.3,120.2 121.4,120.2 		"/>
	</g>
</g>
</svg>
