<?xml version="1.0" encoding="utf-8"?>
<!-- Generator: Adobe Illustrator 18.1.1, SVG Export Plug-In . SVG Version: 6.00 Build 0)  -->
<svg version="1.1" id="圖層_1" xmlns="http://www.w3.org/2000/svg" xmlns:xlink="http://www.w3.org/1999/xlink" x="0px" y="0px"
	 viewBox="0 0 197.1 150" enable-background="new 0 0 197.1 150" xml:space="preserve">
<path fill="#FFFFFF" d="M122.2,0.1c-30.9,0-57.4,18.8-68.9,45.5l-8.6-3.2l-2.6-13.1L11.4,17.9L14,31l-5.1-1.9L5.5,38l5.1,1.9
	L0.2,48.1l30.8,11.4l10.5-8.2l8.7,3.2c-1.9,6.6-2.9,13.5-2.9,20.6c0,41.4,33.6,75,75,75s75-33.6,75-75
	C197.2,33.8,163.6,0.1,122.2,0.1z M122.2,140.7c-36.1,0-65.5-29.4-65.5-65.5c0-6,0.8-11.8,2.3-17.3l23.6,8.7
	c-0.6,2.8-0.9,5.6-0.9,8.6c0,22.4,18.2,40.5,40.5,40.5s40.5-18.2,40.5-40.5c0-22.4-18.2-40.5-40.5-40.5c-16.1,0-30,9.4-36.6,23
	l-23.5-8.7c10.1-23.1,33.2-39.3,60-39.3c36.1,0,65.5,29.4,65.5,65.5C187.8,111.3,158.4,140.7,122.2,140.7z M131.3,79.6l-21.7-26.1
	L111,67l-16.4-6.1c5.2-10,15.6-16.8,27.6-16.8c17.1,0,31.1,13.9,31.1,31.1c0,17.1-13.9,31.1-31.1,31.1S91.2,92.3,91.2,75.1
	c0-1.8,0.2-3.5,0.4-5.2l16.1,6l-9.9,9.4L131.3,79.6z"/>
</svg>
