<?xml version="1.0" encoding="utf-8"?>
<!-- Generator: Adobe Illustrator 18.1.1, SVG Export Plug-In . SVG Version: 6.00 Build 0)  -->
<svg version="1.1" id="圖層_1" xmlns="http://www.w3.org/2000/svg" xmlns:xlink="http://www.w3.org/1999/xlink" x="0px" y="0px"
	 viewBox="0 0 169.2 150" enable-background="new 0 0 169.2 150" xml:space="preserve">
<g id="微信支付_x5F_icon_4_">
	<g>
		<path fill-rule="evenodd" clip-rule="evenodd" fill="#4D4D4D" d="M159.6,38L62.2,94.5l-0.6,0.4c-0.8,0.4-1.6,0.6-2.5,0.6
			c-2.1,0-4-1.2-4.9-2.9l-0.4-0.8l-15.4-34C38.1,57.5,38,57,38,56.6c0-1.6,1.3-2.8,2.8-2.8c0.6,0,1.2,0.2,1.7,0.6l18.2,13
			c1.3,0.9,2.9,1.4,4.6,1.4c1,0,2-0.2,2.9-0.5L153.7,30C138.4,11.9,113.2,0,84.6,0C37.9,0,0,31.7,0,70.8c0,21.3,11.4,40.6,29.2,53.5
			c1.4,1,2.4,2.7,2.4,4.6c0,0.6-0.1,1.2-0.3,1.8c-1.4,5.3-3.7,13.9-3.8,14.3c-0.2,0.7-0.5,1.4-0.5,2.1c0,1.6,1.3,2.8,2.8,2.8
			c0.6,0,1.1-0.2,1.6-0.5L50,138.7c1.4-0.8,2.9-1.3,4.5-1.3c0.9,0,1.7,0.1,2.5,0.4c8.6,2.5,18,3.9,27.6,3.9
			c46.7,0,84.6-31.7,84.6-70.8C169.2,59,165.7,47.8,159.6,38z"/>
	</g>
</g>
</svg>
