<?xml version="1.0" encoding="utf-8"?>
<!-- Generator: Adobe Illustrator 18.1.1, SVG Export Plug-In . SVG Version: 6.00 Build 0)  -->
<svg version="1.1" id="圖層_1" xmlns="http://www.w3.org/2000/svg" xmlns:xlink="http://www.w3.org/1999/xlink" x="0px" y="0px"
	 viewBox="0 0 1140 53.9" enable-background="new 0 0 1140 53.9" xml:space="preserve">
<g>
	<path fill-rule="evenodd" clip-rule="evenodd" fill="#0C5F8E" d="M1140,53.9V3.1c0-1.7-1.7-3.1-3.7-3.1H3.7C1.7,0,0,1.4,0,3.1v50.8
		H1140z"/>
	<path opacity="0.2" fill="#FFFFFF" d="M0,23.1l151.4,30.8H3.1c0,0-2.9,0-3.1-0.6V23.1z"/>
	<polygon opacity="0.2" fill="#FFFFFF" points="0.3,53.9 47.9,53.9 0,8.1 	"/>
	<path opacity="0.2" fill="#FFFFFF" d="M1140,18.2L955.4,0l181.9,0c0,0,2.5,0,2.7,0.5V18.2z"/>
	<path opacity="0.2" fill="#FFFFFF" d="M1140,53.9L1067.4,0l68.5,0c2.1,0,3.8,1.7,3.8,3.8L1140,53.9z"/>
</g>
</svg>
