<?xml version="1.0" encoding="UTF-8" standalone="no"?>
<!-- Generator: Adobe Illustrator 18.1.1, SVG Export Plug-In . SVG Version: 6.00 Build 0)  -->
<svg xmlns="http://www.w3.org/2000/svg" xml:space="preserve" version="1.1" y="0px" x="0px" xmlns:xlink="http://www.w3.org/1999/xlink" viewBox="0 0 100 100" enable-background="new 0 0 100 100">
<g id="圖層_1" display="none">
	<rect height="100" width="100" stroke="#00f" stroke-miterlimit="10" display="inline" fill="none"/>
</g>
<g id="圖層_2">
						<path d="m41.9 30.9h-28.2c-4.1 0-6.4-2.4-6.6-6.6 0-0.7-0.5-1.6-1.1-2.1-1.1-1.1-2.4-2-3.7-3.1-0.6-0.4-1.1-0.9-1.7-1.3l-0.6-0.5 0.6-0.5c0.6-0.5 1.1-0.9 1.7-1.3 1.3-1.1 2.6-2.1 3.8-3.1 0.5-0.5 0.9-1.3 1-2 0.2-4.5 2.6-6.9 6.9-6.9h55c4.3 0 6.7 2.5 6.7 6.7v14.1c0 4.2-2.5 6.6-6.6 6.6h-27.2zm-39.9-13.6c0.4 0.3 0.7 0.6 1.1 0.8 1.3 1 2.6 2 3.8 3.1 0.8 0.8 1.4 2 1.4 3 0.2 3.6 2 5.4 5.4 5.4h55.4c3.5 0 5.3-1.8 5.4-5.3v-14.1c0-3.6-1.9-5.5-5.5-5.5h-55c-3.6 0-5.5 1.8-5.7 5.6 0 1-0.6 2.1-1.4 2.8-1.2 1.1-2.5 2.1-3.9 3.2-0.3 0.4-0.6 0.7-1 1z" fill="#808080"/>
							<circle cy="17.2" cx="16.7" r="2.4" fill="#808080"/>
							<circle cy="17.2" cx="27.4" r="2.4" fill="#808080"/>
							<circle cy="17.2" cx="38.1" r="2.4" fill="#808080"/>
							<circle cy="17.2" cx="48.8" r="2.4" fill="#808080"/>
							<circle cy="17.2" cx="59.5" r="2.4" fill="#808080"/>
						<path d="m52.8 63.7h-28.2c-4.1 0-6.4-2.4-6.6-6.6 0-0.7-0.5-1.6-1.1-2.1-1.1-1.1-2.4-2-3.7-3.1-0.6-0.4-1.1-0.9-1.7-1.3l-0.6-0.6 0.6-0.5c0.6-0.5 1.1-0.9 1.7-1.3 1.3-1.1 2.6-2.1 3.8-3.1 0.5-0.5 0.9-1.3 1-2 0.2-4.5 2.6-6.8 6.9-6.8h55c4.3 0 6.7 2.5 6.7 6.7v14.1c0 4.2-2.5 6.6-6.6 6.6h-27.2zm-39.9-13.7c0.4 0.3 0.7 0.6 1.1 0.8 1.3 1 2.6 2 3.8 3.1 0.8 0.8 1.4 2 1.4 3 0.2 3.6 2 5.4 5.4 5.4h55.4c3.5 0 5.3-1.8 5.4-5.3v-14.1c0-3.6-1.9-5.5-5.5-5.5h-55c-3.6 0-5.5 1.8-5.7 5.6 0 1-0.6 2.1-1.4 2.8-1.2 1.1-2.5 2.1-3.9 3.2-0.3 0.5-0.6 0.8-1 1z" fill="#808080"/>
							<circle cy="50" cx="27.6" r="2.4" fill="#808080"/>
							<circle cy="50" cx="38.3" r="2.4" fill="#808080"/>
							<circle cy="50" cx="49" r="2.4" fill="#808080"/>
							<circle cy="50" cx="59.7" r="2.4" fill="#808080"/>
							<circle cy="50" cx="70.4" r="2.4" fill="#808080"/>
						<path d="m66.1 96.5h-28.2c-4.1 0-6.4-2.4-6.6-6.6 0-0.7-0.5-1.6-1.1-2.1-1.1-1.1-2.4-2-3.7-3.1-0.6-0.4-1.1-0.9-1.7-1.3l-0.6-0.5 0.6-0.5c0.6-0.5 1.1-0.9 1.7-1.3 1.3-1.1 2.6-2.1 3.8-3.1 0.5-0.5 0.9-1.3 1-2 0.2-4.5 2.6-6.8 6.9-6.8h55c4.3 0 6.7 2.5 6.7 6.7v14.1c0 4.2-2.5 6.6-6.6 6.6-9-0.1-18.1-0.1-27.2-0.1zm-39.9-13.7c0.4 0.3 0.7 0.6 1.1 0.8 1.3 1 2.6 2 3.8 3.1 0.8 0.8 1.4 2 1.4 3 0.2 3.6 2 5.4 5.4 5.4h55.4c3.5 0 5.3-1.8 5.4-5.3v-14.1c0-3.6-1.9-5.5-5.5-5.5h-55c-3.6 0-5.5 1.8-5.7 5.6 0 1-0.6 2.1-1.4 2.8-1.2 1.1-2.5 2.1-3.9 3.2-0.3 0.4-0.6 0.7-1 1z" fill="#808080"/>
							<circle cy="82.8" cx="40.9" r="2.4" fill="#808080"/>
							<circle cy="82.8" cx="51.6" r="2.4" fill="#808080"/>
							<circle cy="82.8" cx="62.3" r="2.4" fill="#808080"/>
							<circle cy="82.8" cx="73" r="2.4" fill="#808080"/>
							<circle cy="82.8" cx="83.7" r="2.4" fill="#808080"/>
</g>
</svg>
