<?xml version="1.0" encoding="utf-8"?>
<!-- Generator: Adobe Illustrator 18.1.1, SVG Export Plug-In . SVG Version: 6.00 Build 0)  -->
<svg version="1.1" id="圖層_1" xmlns="http://www.w3.org/2000/svg" xmlns:xlink="http://www.w3.org/1999/xlink" x="0px" y="0px"
	 viewBox="0 0 150 188.8" enable-background="new 0 0 150 188.8" xml:space="preserve">
<path fill-rule="evenodd" clip-rule="evenodd" fill="#29ABE2" d="M82.5,73.3h55.1c6.9,0,12.4,5.5,12.4,12.4v6.5
	c0,6.7-5.5,12.4-12.4,12.4h-2.7c2.5,2.3,4,5.5,4,9.2v6.3c0,6.9-5.5,12.4-12.4,12.4h-1.9c2.5,2.3,4.2,5.5,4.2,9.2v6.5
	c0,6.9-5.7,12.4-12.4,12.4H115c2.5,2.3,4.2,5.5,4.2,9.2v6.5c0,6.7-5.7,12.4-12.4,12.4H73.7H17.4h-3.6c-7.7,0-13.8-6.3-13.8-14V87.2
	c0-7.6,6.1-14,13.8-14h11.1c62-23.9,30.2-69.6,52.8-73.1c2.1-0.4,4.4,0,6.5,0c6.9,0,11.1,5.7,12.4,12.4
	C100.4,32.7,95.9,53,82.5,73.3L82.5,73.3z"/>
</svg>
