<?xml version="1.0" encoding="utf-8"?>
<!-- Generator: Adobe Illustrator 18.1.1, SVG Export Plug-In . SVG Version: 6.00 Build 0)  -->
<svg version="1.1" xmlns="http://www.w3.org/2000/svg" xmlns:xlink="http://www.w3.org/1999/xlink" x="0px" y="0px"
	 viewBox="0 0 150 150" enable-background="new 0 0 150 150" xml:space="preserve">
<g id="圖層_2" display="none">
	<rect x="0.1" y="-0.1" display="inline" fill="none" stroke="#0092EB" stroke-miterlimit="10" width="150" height="150"/>
</g>
<g id="圖層_1">
	<path fill-rule="evenodd" clip-rule="evenodd" fill="#0092EB" d="M46.7,65.5c0.1,0,0.1,0,0.1-0.1V22.9c0,0,0-0.1-0.1-0.1H11.4
		c-0.1,0-0.1,0.1-0.1,0.1v42.4c0,0.1,0,0.1,0.1,0.1H46.7z M97.4,65.5c0.1,0,0.2,0,0.2-0.1V23c0-0.1-0.1-0.2-0.2-0.2H52
		c0,0-0.1,0.1-0.1,0.2v42.3c0,0.1,0.1,0.1,0.1,0.1H97.4z M64.1,56.6c0.9-0.6,1.8-1.2,2.8-1.6c1.2,2,2.7,3.9,4.4,5.4
		C68.6,59.8,66.1,58.5,64.1,56.6z M74.1,60.2c-2.2-1.6-4.1-3.6-5.5-5.9c1.7-0.6,3.6-1,5.5-1.1V60.2z M74.1,51.3
		c-2.2,0.1-4.4,0.5-6.4,1.3c-1-2.2-1.6-4.6-1.7-7.2h8.1V51.3z M74.1,43.5h-8.1c0.1-2.5,0.8-4.9,1.9-7.1c2,0.7,4,1.1,6.2,1.2V43.5z
		 M78.8,60.4c1.8-1.5,3.2-3.4,4.4-5.4c1,0.5,1.9,1,2.8,1.6C84,58.5,81.5,59.8,78.8,60.4z M87.3,55.3c-1-0.7-2.1-1.4-3.3-2
		c1.1-2.4,1.8-5.1,1.9-7.9h5.4C91.2,49.2,89.7,52.6,87.3,55.3z M91.4,43.5h-5.5c-0.2-2.8-0.9-5.5-2-7.9c1.2-0.6,2.3-1.3,3.4-2
		C89.7,36.3,91.2,39.7,91.4,43.5z M86,32.3c-0.9,0.7-1.9,1.2-3,1.7c-1.3-2.2-3-4.1-4.9-5.6C81.1,28.9,83.8,30.3,86,32.3z M76,29.1
		c2.1,1.5,3.9,3.4,5.3,5.6c-1.7,0.6-3.4,0.9-5.3,1V29.1z M76,37.6c2.2-0.1,4.2-0.5,6.2-1.2c1.1,2.2,1.7,4.6,1.9,7.1H76V37.6z
		 M76,45.4h8.1c-0.1,2.6-0.7,5-1.7,7.2c-2-0.7-4.1-1.2-6.4-1.3V45.4z M76,53.2c1.9,0.1,3.8,0.5,5.5,1.1c-1.4,2.3-3.3,4.4-5.5,5.9
		V53.2z M74.1,35.8c-1.8-0.1-3.6-0.5-5.3-1c1.4-2.2,3.2-4.1,5.3-5.6V35.8z M72,28.4c-2,1.6-3.6,3.5-4.9,5.6c-1-0.5-2-1.1-3-1.7
		C66.3,30.3,69,28.9,72,28.4z M62.8,33.6c1.1,0.8,2.2,1.5,3.4,2c-1.2,2.4-1.9,5.1-2,7.9h-5.5C58.9,39.7,60.4,36.3,62.8,33.6z
		 M64.2,45.4c0.1,2.8,0.8,5.5,1.9,7.9c-1.1,0.5-2.2,1.2-3.3,2c-2.4-2.7-3.8-6.1-4.1-9.9H64.2z M11.3,92.5h126.9V68.8H11.3V92.5z
		 M149.8,12.4H0.3c-0.1,0-0.2,0.1-0.2,0.2v90.5c0,0.1,0.1,0.2,0.2,0.2H64c-0.1,0-0.2,0.1-0.2,0.2v20c0,0.1,0.1,0.2,0.2,0.2H41.1
		c-0.1,0-0.1,0-0.1,0.1v13.2c0,0.1,0,0.1,0.1,0.1H109c0.1,0,0.1,0,0.1-0.1v-13.2c0-0.1,0-0.1-0.1-0.1H86.2c0.1,0,0.2-0.1,0.2-0.2
		v-20c0-0.1-0.1-0.2-0.2-0.2h63.7c0.1,0,0.2-0.1,0.2-0.2V12.7C150.1,12.5,149.9,12.4,149.8,12.4z M143.3,96.9c0,0.1-0.1,0.2-0.2,0.2
		H7.1c-0.1,0-0.2-0.1-0.2-0.2V19c0-0.1,0.1-0.2,0.2-0.2H143c0.1,0,0.2,0.1,0.2,0.2V96.9z M102.8,22.8c-0.1,0-0.1,0.1-0.1,0.1v42.4
		c0,0.1,0,0.1,0.1,0.1h35.3c0.1,0,0.1,0,0.1-0.1V22.9c0,0,0-0.1-0.1-0.1H102.8z"/>
</g>
</svg>
