<?xml version="1.0" encoding="utf-8"?>
<!-- Generator: Adobe Illustrator 18.1.1, SVG Export Plug-In . SVG Version: 6.00 Build 0)  -->
<svg version="1.1" xmlns="http://www.w3.org/2000/svg" xmlns:xlink="http://www.w3.org/1999/xlink" x="0px" y="0px"
	 viewBox="0 0 150 150" enable-background="new 0 0 150 150" xml:space="preserve">
<g id="圖層_2" display="none">
	<rect x="0.1" y="-0.1" display="inline" fill="none" stroke="#0092EB" stroke-miterlimit="10" width="150" height="150"/>
</g>
<g id="圖層_1">
	<path fill-rule="evenodd" clip-rule="evenodd" fill="#0092EB" stroke="#0092EB" stroke-width="0.1" stroke-miterlimit="10" d="
		M50.7,14.9h48.7c0.1,0,0.2,0.1,0.2,0.4v35.2c0,0.3-0.1,0.4-0.2,0.4H76l0,0v17.3h4.5c0.2,0,0.3,0.1,0.3,0.3v5.3H128h0.9h0.8
		c0.1,0,0.1,0,0.1,0v24.9c0,0.1,0,0.1-0.1,0.1h20.1c0.1,0,0.3,0.1,0.3,0.3v35.3c0,0.3-0.2,0.4-0.3,0.4h-42c-0.2,0-0.3-0.1-0.3-0.4
		V99.1c0-0.1,0.1-0.3,0.3-0.3H128c0,0,0,0,0-0.1V75.9H80.8v5.2c0,0.3-0.1,0.4-0.3,0.4H76v17.2c0,0.1,0,0.1,0,0.1H96
		c0.2,0,0.3,0.1,0.3,0.3v35.3c0,0.3-0.1,0.4-0.3,0.4h-42c-0.2,0-0.3-0.1-0.3-0.4V99.1c0-0.1,0.1-0.3,0.3-0.3h20.1c0,0,0,0,0-0.1
		V81.5h-4.6c-0.1,0-0.2-0.1-0.2-0.4v-5.2H22.2v22.8c0,0.1,0,0.1,0,0.1h20.2c0.2,0,0.3,0.1,0.3,0.3v35.3c0,0.3-0.1,0.4-0.3,0.4h-42
		c-0.1,0-0.3-0.1-0.3-0.4V99.1c0-0.1,0.2-0.3,0.3-0.3h20c0,0,0,0,0-0.1V73.9l0,0h0.9l0,0h48.1v-5.3c0-0.1,0.1-0.3,0.2-0.3h4.6V50.9
		l0,0H50.7c-0.1,0-0.3-0.1-0.3-0.4V15.3C50.4,15,50.6,14.9,50.7,14.9L50.7,14.9z M71.9,71h6.3c0.1,0,0.2,0.1,0.2,0.3v7.3
		c0,0.1-0.1,0.3-0.2,0.3h-6.3c-0.1,0-0.2-0.1-0.2-0.3v-7.3C71.7,71.1,71.8,71,71.9,71L71.9,71z M113,117.9h31.7c0,0,0.1,0,0.1,0.1
		v6.3h-0.1H113c-0.1,0-0.1,0-0.1,0v-6.3C112.9,117.9,112.9,117.9,113,117.9L113,117.9z M113,107.6h11.4c0.1,0,0.1,0.1,0.1,0.1v6.3
		c0,0.1,0,0.1-0.1,0.1H113c-0.1,0-0.1,0-0.1-0.1v-6.3C112.9,107.8,112.9,107.6,113,107.6L113,107.6z M59.3,117.9H91
		c0.1,0,0.1,0,0.1,0.1v6.3c0,0,0,0-0.1,0H59.3c-0.1,0-0.1,0-0.1,0v-6.3C59.2,117.9,59.2,117.9,59.3,117.9L59.3,117.9z M59.3,107.6
		h11.5v0.1v6.3c0,0.1,0,0.1,0,0.1H59.3c-0.1,0-0.1,0-0.1-0.1v-6.3C59.2,107.8,59.2,107.6,59.3,107.6L59.3,107.6z M5.6,117.9h31.7
		c0.1,0,0.1,0,0.1,0.1v6.3c0,0,0,0-0.1,0H5.6H5.5v-6.3C5.5,117.9,5.6,117.9,5.6,117.9L5.6,117.9z M5.6,107.6h11.5v0.1v6.3
		c0,0.1,0,0.1,0,0.1H5.6c0,0-0.1,0-0.1-0.1v-6.3L5.6,107.6L5.6,107.6z M56.9,33h36.7l0,0v6.4l0,0H56.9c-0.1,0-0.1,0-0.1,0V33
		C56.8,33,56.8,33,56.9,33L56.9,33z M56.9,22.7h13.3c0,0,0,0,0,0.1v6.3l0,0H56.9c-0.1,0-0.1,0-0.1,0v-6.3
		C56.8,22.7,56.8,22.7,56.9,22.7L56.9,22.7z"/>
</g>
</svg>
