<?xml version="1.0" encoding="utf-8"?>
<!-- Generator: Adobe Illustrator 18.1.1, SVG Export Plug-In . SVG Version: 6.00 Build 0)  -->
<svg version="1.1" xmlns="http://www.w3.org/2000/svg" xmlns:xlink="http://www.w3.org/1999/xlink" x="0px" y="0px"
	 viewBox="0 0 150 150" enable-background="new 0 0 150 150" xml:space="preserve">
<g id="圖層_2" display="none">
	<rect x="0.1" y="-0.1" display="inline" fill="none" stroke="#0092EB" stroke-miterlimit="10" width="150" height="150"/>
</g>
<g id="圖層_1">
	<path fill-rule="evenodd" clip-rule="evenodd" fill="#0092EB" d="M150.1,49.6v80.8H0.1V49.6H150.1z M0.1,19.4h150v25.7H0.1V19.4z
		 M134.1,28.4h8.1v7.8h-8.1V28.4z M120.7,28.4h8.1v7.8h-8.1V28.4z M107.3,28.4h8.1v7.8h-8.1V28.4z M129.2,93h12.2v4.7h-12.2V93z
		 M111.8,93H124v4.7h-12.2V93z M85.2,85.4h11.9v4.7H85.2V85.4z M59.4,77.7H48.7v4.8h10.7V77.7z M113.7,77.7h27.7v4.8h-27.7V77.7z
		 M80.5,93h27.4v4.7H80.5V93z M73.1,93h-44v4.7h44V93z M9.9,93H22v4.7H9.9V93z M102.4,85.4h39v4.7h-39V85.4z M80.5,85.4h-39v4.7h39
		V85.4z M9.9,85.4h25.1v4.7H9.9V85.4z M109.2,77.7H66.3v4.8h42.9V77.7z M9.9,77.7h31.3v4.8H9.9V77.7z M129.2,116.1h12.2v4.8h-12.2
		V116.1z M111.8,116.1H124v4.8h-12.2V116.1z M85.2,108.5h11.9v4.8H85.2V108.5z M59.4,100.9H48.7v4.8h10.7V100.9z M113.7,100.9h27.7
		v4.8h-27.7V100.9z M80.5,116.1h27.4v4.8H80.5V116.1z M73.1,116.1h-44v4.8h44V116.1z M9.9,116.1H22v4.8H9.9V116.1z M102.4,108.5h39
		v4.8h-39V108.5z M80.5,108.5h-39v4.8h39V108.5z M9.9,108.5h25.1v4.8H9.9V108.5z M109.2,100.9H66.3v4.8h42.9V100.9z M9.9,100.9h31.3
		v4.8H9.9V100.9z M80.5,63.4h60.9v4.8H80.5V63.4z M73.1,63.4H48.7v4.8h24.4V63.4z M9.9,63.4h31.3v4.8H9.9V63.4z M109.2,55.8H48.7
		v4.8h60.6V55.8z M9.9,55.8h31.3v4.8H9.9V55.8z"/>
</g>
</svg>
