<?xml version="1.0" encoding="utf-8"?>
<!-- Generator: Adobe Illustrator 18.1.1, SVG Export Plug-In . SVG Version: 6.00 Build 0)  -->
<svg version="1.1" id="圖層_1" xmlns="http://www.w3.org/2000/svg" xmlns:xlink="http://www.w3.org/1999/xlink" x="0px" y="0px"
	 viewBox="0 0 268.7 84.1" enable-background="new 0 0 268.7 84.1" xml:space="preserve">
<g>
	<path fill="#0091EA" d="M37.5,44.3c3.8-7.1,5.8-6.7-1.7-14.3c-7.5-7.6,1.7-29.9,1.7-29.9c-22.7,16.3-10.3,41-10.3,41
		c-4.9,0-10.3-13.7-10.3-13.7c0,26.2,27.4,34.2,27.4,34.2S33.7,51.4,37.5,44.3z M34,41.2c0,0,1.7-3.8-3.4-6.8
		c-6-3.5-1.7-13.7-1.7-13.7c-1.3,7.8,2.5,10.9,5.1,13.7C36.6,37.1,34,41.2,34,41.2z M44.3,30.9C34.5,21.1,40.9,7,40.9,7
		C26.9,23.5,44.3,30.9,44.3,30.9z M88.8,41.2c0,0,12.4-24.8-10.3-41c0,0,9.2,22.3,1.7,29.9c-7.5,7.6-5.5,7.1-1.7,14.3
		c3.8,7.1-6.8,17.4-6.8,17.4S99,53.7,99,27.5C99,27.5,93.6,41.2,88.8,41.2z M85.3,34.3c-5.1,3-3.4,6.8-3.4,6.8s-2.6-4.1,0-6.8
		c2.6-2.8,6.4-5.9,5.1-13.7C87,20.7,91.4,30.8,85.3,34.3z M75.1,7c0,0,6.4,14.2-3.4,23.9C71.7,30.9,89.1,23.5,75.1,7z M61.4,75.4
		c0,0,5.2-3.4,9.1-13c0,0-4.7,3.5-9.9,3.7C60.6,66.1,62.2,71.9,61.4,75.4z M58,66.2c-4.3,1.1-12-3.8-12-3.8c7.2,7.2,6.1,4.7,9.4,7.8
		c3.4,3.2,2.6,12,2.6,12C61.4,73,58.6,66,58,66.2z M72.7,56.2l-7.3,0.4l-3.1-4l1.9-6l6.1-2l5.1,4c0-0.4,0.1-0.8,0.1-1.3
		c0-3.8-1.2-7.2-3.2-10.1l-2.3,6.4l-6,1.9l-5.4-3.9v-6.2l5.9-4.3l0,0c-2-0.8-4.2-1.2-6.4-1.2c-2.2,0-4.4,0.4-6.3,1.2l0,0.1l5.8,4.2
		v6.3l-5.5,4l-6-1.8l-2.4-6.5c-2,2.8-3.2,6.3-3.2,10c0,0.5,0,1,0.1,1.5l5.1-4l6.2,1.9l1.9,5.8l-3.2,4l-7.3-0.4l-0.2,0.4
		c2.3,3.7,5.9,6.4,10.1,7.6l-1.9-6.9l3-3.8h7.2l3,3.8l-1.9,6.9c4.3-1.2,7.8-3.9,10.1-7.6L72.7,56.2z"/>
	<path fill="#2A2A2A" d="M15.3,67.4H0.8L0,72.1h14.4L15.3,67.4z M108.7,67.4H97.9l-0.8,4.7h14.4l0.2-1.1c0-0.1,0-0.2,0-0.3
		s0-0.2,0-0.3c0-0.9-0.3-1.6-0.9-2.2C110.3,67.7,109.6,67.4,108.7,67.4z M2.9,83.2h4.7l1.7-9.8H4.6L2.9,83.2z M95.1,83.2h4.7
		l1.7-9.8h-4.7L95.1,83.2z M104.8,83.2h4.7l1.7-9.8h-4.7L104.8,83.2z M90.8,73.4l-1.7,9.8h4.7l1.7-9.8H90.8z M39.6,78.4h-5l0.9-5
		h-4.7l-1,6.1c0,0.1,0,0.2,0,0.3c0,0.1,0,0.2,0,0.3c0,0.9,0.3,1.6,0.9,2.2c0.6,0.6,1.3,0.9,2.2,0.9h7.1c1,0,1.9-0.4,2.8-1.1
		c0.9-0.7,1.4-1.6,1.5-2.6l1.1-6.1h-4.7L39.6,78.4z M42.6,67.4h-7.1c-1,0-2,0.4-2.8,1.1c-0.8,0.7-1.4,1.6-1.5,2.6L31,72.1h14.4
		l0.2-1.1c0-0.1,0-0.2,0-0.3s0-0.2,0-0.3c0-0.9-0.3-1.6-0.9-2.2C44.2,67.7,43.5,67.4,42.6,67.4z M82.4,73.4l-0.6,3.7h2.1l-0.2,1.3
		h-5l0.9-5h-4.7l-1,6.1c0,0.1,0,0.2,0,0.3c0,0.1,0,0.2,0,0.3c0,0.9,0.3,1.6,0.9,2.2c0.6,0.6,1.3,0.9,2.2,0.9h7.1
		c1,0,1.9-0.4,2.8-1.1c0.9-0.7,1.4-1.6,1.5-2.6l1.1-6.1H82.4z M22.9,73.4l0.3,3.7h-2.5l1.6-3.7h-4.7l-4.1,9.8h4.7l0.9-2.1h4.5
		l0.2,2.1h4.7l-0.7-9.8H22.9z M96.6,67.4h-4.7l-0.8,4.7h4.7L96.6,67.4z M27.2,67.4h-7.1l-2,4.7h9.5L27.2,67.4z M90.3,67.4H79.6
		c-1,0-2,0.4-2.8,1.1c-0.8,0.7-1.4,1.6-1.5,2.6l-0.2,1.1h14.4L90.3,67.4z M181,59.9l7.1-10.8h-9.9l-5.1,7.3h-1.6l1,3.5H181z
		 M203.7,53.8l5,6.1h8.9l1.1-3.5h-2.2l-5.6-7.3h-21.8l-3.2,4.7H203.7z M131.9,64.2l-1.5-4.7h-8.4l1.5,4.7H131.9z M131.9,57.1l1.5-3
		H132l-1.6-4.8h-8.4l2.6,7.9H131.9z M124.5,67.4h7.4l0-0.1L124.5,67.4L124.5,67.4z M175.5,64.2h39.1v-3.5h-39.1V64.2z M188.3,76.7
		h-1.5l-1.7-3.3h-9.3l3.1,5.5h8.6L188.3,76.7z M199.8,72.2h16.5V68h-16.5v-0.6h-9.4V68h-16.5v4.3h16.5v7.6h-18.9v4.3h47.4v-4.3h-19
		V72.2z M201.7,76.7l0.7,2.1h8.6l3.1-5.5h-9.3l-1.7,3.3H201.7z M259.2,76.6l-3.6-9l0.1-0.2h-6.9l0.1,0.2l-3.3,8.3l-3.3-8.3l0.1-0.2
		h-7l0.1,0.2l-3.5,9v-9.2h-9.5v16.8h9.5v-4.7h5.6l1.3-3.4l1.3,3.4h10.7l1.3-3.4l1.3,3.4h5.6v0.8h-2.7l1.8,3.9h10.4V67.4h-9.5V76.6z
		 M222.5,49.6v14.6h9.5v-5.5l2.2,5.5h9.5l2-4.9l1.9,4.9h9.4l2.2-5.5v5.5h9.5V49.6H222.5z M259.2,55.6h-5.6l-1.3,3.4l-1.3-3.4h-10.7
		l-1.3,3.4l-1.3-3.4H232v-1.8h27.2V55.6z M145,49.1h-9l-2.7,6.4h25.6v8.7h8.8V51.4h-23.9L145,49.1z M123.2,79.7h-1.9l1.3,4.2h8.2
		l2.6-14.3h-8.4L123.2,79.7z M150,69.8h8.1v-2.4h-23.9v2.4h8.1v6.9h-1.8v-5.3h-6v9.3h16.3l1-4H150V69.8z M141.4,62.5h0.9v1.7h7.7
		v-1.7h6.9v-4h-14l0.9-2.3h-7.5l-2,5.6h-0.9l0.7,2.4h6.8L141.4,62.5z M157.7,80.7v-9.3h-6v5.3v4H157.7z M158.9,81h-2.2l1.5,3h9.5
		V67.4h-8.8V81z"/>
</g>
</svg>
