<?xml version="1.0" encoding="utf-8"?>
<!-- Generator: Adobe Illustrator 18.1.1, SVG Export Plug-In . SVG Version: 6.00 Build 0)  -->
<svg version="1.1" id="圖層_1" xmlns="http://www.w3.org/2000/svg" xmlns:xlink="http://www.w3.org/1999/xlink" x="0px" y="0px"
	 viewBox="0 0 72.1 29.8" enable-background="new 0 0 72.1 29.8" xml:space="preserve">
<g>
	<g>
		<g>
			<linearGradient id="SVGID_1_" gradientUnits="userSpaceOnUse" x1="36.0551" y1="1.167" x2="36.0551" y2="29.9873">
				<stop  offset="0" style="stop-color:#E50012"/>
				<stop  offset="0.111" style="stop-color:#DF0012"/>
				<stop  offset="0.2654" style="stop-color:#CD0010"/>
				<stop  offset="0.4453" style="stop-color:#AF000E"/>
				<stop  offset="0.6445" style="stop-color:#86000B"/>
				<stop  offset="0.857" style="stop-color:#510008"/>
				<stop  offset="1" style="stop-color:#2A0005"/>
			</linearGradient>
			<path fill="url(#SVGID_1_)" d="M9.1,29.9c-5,0-9.1-4.1-9.1-9.1V9.1C0,4.1,4.1,0,9.1,0H63c5,0,9.1,4.1,9.1,9.1v11.6
				c0,5-4.1,9.1-9.1,9.1H9.1z"/>
		</g>
		<g>
			<path fill="#FF1717" d="M9.1,28.2c-4.1,0-7.5-3.3-7.5-7.5V9.1C1.7,5,5,1.7,9.1,1.7H63c4.1,0,7.5,3.3,7.5,7.5v11.6
				c0,4.1-3.3,7.5-7.5,7.5H9.1z"/>
		</g>
		<g>
			<path fill="#BC0808" d="M69.6,20.7c0,3.7-3,6.6-6.6,6.6H9.1c-3.7,0-6.6-3-6.6-6.6V9.1c0-3.7,3-6.6,6.6-6.6H63
				c3.7,0,6.6,3,6.6,6.6V20.7z"/>
		</g>
		<g>
			<linearGradient id="SVGID_2_" gradientUnits="userSpaceOnUse" x1="36.0551" y1="21.2136" x2="36.0551" y2="2.5067">
				<stop  offset="0" style="stop-color:#FFBFC8;stop-opacity:0.5"/>
				<stop  offset="0.1905" style="stop-color:#FCBCC5;stop-opacity:0.5952"/>
				<stop  offset="0.3322" style="stop-color:#F3B4BD;stop-opacity:0.6661"/>
				<stop  offset="0.4583" style="stop-color:#E2A5AE;stop-opacity:0.7292"/>
				<stop  offset="0.5752" style="stop-color:#CC9199;stop-opacity:0.7876"/>
				<stop  offset="0.6858" style="stop-color:#AE777E;stop-opacity:0.8429"/>
				<stop  offset="0.7917" style="stop-color:#8A565D;stop-opacity:0.8958"/>
				<stop  offset="0.8938" style="stop-color:#5F3036;stop-opacity:0.9469"/>
				<stop  offset="0.9905" style="stop-color:#2F050A;stop-opacity:0.9953"/>
				<stop  offset="1" style="stop-color:#2A0005"/>
			</linearGradient>
			<path fill="url(#SVGID_2_)" d="M69.6,12.8V9.1c0-3.7-3-6.6-6.6-6.6H9.1c-3.7,0-6.6,3-6.6,6.6v11.6c0,0.2,0,0.3,0,0.5
				C18.9,13.9,51.1,9.2,69.6,12.8z"/>
		</g>
	</g>
</g>
</svg>
